<svg xmlns="http://www.w3.org/2000/svg" xmlns:xl="http://www.w3.org/1999/xlink" width="1011" height="824" version="1.1" viewBox="-3864 -4 1011 824"><defs><marker id="FilledArrow_Marker" stroke-linejoin="miter" stroke-miterlimit="10" color="#000" markerHeight="6" markerUnits="strokeWidth" markerWidth="7" orient="auto" overflow="visible" viewBox="-1 -3 7 6"><g><path fill="currentColor" stroke="currentColor" stroke-width="1" d="M 4.8 0 L 0 -1.8 L 0 1.8 Z"/></g></marker></defs><g id="Blue_Green_and_Canary_Deployment" fill="none" fill-opacity="1" stroke="none" stroke-dasharray="none" stroke-opacity="1"><title>Blue Green and Canary Deployment</title><rect width="1011" height="824" x="-3864" y="-4" fill="#fff"/><g id="Blue_Green_and_Canary_Deployment_Layer_1"><title>Layer 1</title><g id="Graphic_144"><rect width="456.378" height="788.032" x="-3838.11" y="11.835" stroke="gray" stroke-linecap="round" stroke-linejoin="round" stroke-width="1"/></g><g id="Graphic_145"><rect width="456.378" height="788.032" x="-3332.126" y="11.835" stroke="gray" stroke-linecap="round" stroke-linejoin="round" stroke-width="1"/></g><g id="Graphic_2"><title>Account Box</title><path fill="#000" d="M -3802.677 226.73229 L -3802.677 264.65355 C -3802.677 267.63307 -3800.2665 270.07087 -3797.26 270.07087 L -3759.3386 270.07087 C -3756.359 270.07087 -3753.9213 267.63307 -3753.9213 264.65355 L -3753.9213 226.73229 C -3753.9213 223.75276 -3756.359 221.31496 -3759.3386 221.31496 L -3797.26 221.31496 C -3800.2665 221.31496 -3802.677 223.75276 -3802.677 226.73229 Z M -3770.1733 237.56693 C -3770.1733 242.0633 -3773.803 245.69292 -3778.2992 245.69292 C -3782.7956 245.69292 -3786.4252 242.0633 -3786.4252 237.56693 C -3786.4252 233.07055 -3782.7956 229.44095 -3778.2992 229.44095 C -3773.803 229.44095 -3770.1733 233.07055 -3770.1733 237.56693 Z M -3794.551 259.23622 C -3794.551 253.8189 -3783.7166 250.83937 -3778.2992 250.83937 C -3772.882 250.83937 -3762.0473 253.8189 -3762.0473 259.23622 L -3762.0473 261.94488 L -3794.551 261.94488 L -3794.551 259.23622 Z"/></g><g id="Graphic_10"><rect width="114.803" height="67.606" x="-3521.055" y="170.079" fill="#001e9b"/><text fill="#fff" transform="translate(-3516.055 194.14984)"><tspan x="42.914" y="16" fill="#fff" font-family="Helvetica Neue" font-size="16" font-weight="bold">V1</tspan></text></g><g id="Group_17"><g id="Graphic_16"><path fill="#000" d="M -3654.39 275.27067 L -3667.066 275.27067 L -3667.066 262.5945 L -3654.39 262.5945 Z M -3662.8406 271.04528 L -3658.615 271.04528 L -3658.615 266.8199 L -3662.8406 266.8199 Z"/></g><g id="Graphic_15"><path fill="#000" d="M -3631.15 275.27067 L -3643.8263 275.27067 L -3643.8263 262.5945 L -3631.15 262.5945 Z M -3639.601 271.04528 L -3635.3755 271.04528 L -3635.3755 266.8199 L -3639.601 266.8199 Z"/></g><g id="Graphic_14"><path fill="#000" d="M -3607.9105 275.27067 L -3620.5866 275.27067 L -3620.5866 262.5945 L -3607.9105 262.5945 Z M -3616.3613 271.04528 L -3612.136 271.04528 L -3612.136 266.8199 L -3616.3613 266.8199 Z"/></g><g id="Graphic_13"><path fill="#000" d="M -3637.4882 233.01673 C -3642.1555 233.01673 -3645.939 229.2332 -3645.939 224.56595 C -3645.939 219.8987 -3642.1555 216.11516 -3637.4882 216.11516 C -3632.821 216.11516 -3629.0374 219.8987 -3629.0374 224.56595 C -3629.0427 229.23102 -3632.823 233.0115 -3637.4882 233.01673 Z M -3637.4882 220.34055 C -3639.822 220.34055 -3641.7136 222.23233 -3641.7136 224.56595 C -3641.7136 226.89957 -3639.822 228.79134 -3637.4882 228.79134 C -3635.1546 228.79134 -3633.263 226.89957 -3633.263 224.56595 C -3633.265 222.2333 -3635.1556 220.34288 -3637.4882 220.34055 Z"/></g><g id="Graphic_12"><path fill="#000" d="M -3616.3613 245.69292 L -3626.9247 245.69292 C -3631.59 245.68768 -3635.3703 241.9072 -3635.3755 237.24213 L -3639.601 237.24213 C -3639.606 241.9072 -3643.3866 245.68768 -3648.0517 245.69292 L -3658.615 245.69292 C -3660.9477 245.6956 -3662.838 247.5858 -3662.8406 249.9183 L -3662.8406 258.3691 L -3658.615 258.3691 L -3658.615 249.9183 L -3648.0517 249.9183 C -3644.929 249.91738 -3641.918 248.75807 -3639.601 246.66476 L -3639.601 258.3691 L -3635.3755 258.3691 L -3635.3755 246.66476 C -3633.0585 248.75807 -3630.0473 249.91738 -3626.9247 249.9183 L -3616.3613 249.9183 L -3616.3613 258.3691 L -3612.136 258.3691 L -3612.136 249.9183 C -3612.1385 247.5858 -3614.0287 245.6956 -3616.3613 245.69292 Z"/></g><g id="Graphic_11"><title>_Transparent_Rectangle_</title></g></g><g id="Graphic_18"><rect width="114.803" height="62.362" x="-3521.055" y="258.945" fill="#018444"/><text fill="#fff" transform="translate(-3516.055 280.39393)"><tspan x="42.914" y="16" fill="#fff" font-family="Helvetica Neue" font-size="16" font-weight="bold">V2</tspan></text></g><g id="Line_19"><line x1="-3753.921" x2="-3684.191" y1="245.693" y2="245.693" stroke="#000" stroke-linecap="round" stroke-linejoin="round" stroke-width="2" marker-end="url(#FilledArrow_Marker)"/></g><g id="Line_20"><path stroke="#000" stroke-linecap="round" stroke-linejoin="round" stroke-width="2" marker-end="url(#FilledArrow_Marker)" d="M -3603.685 245.69292 L -3562.37 245.69292 L -3562.37 203.8819 L -3533.955 203.8819"/></g><g id="Graphic_34"><title>Account Box</title><path fill="#000" d="M -3292.441 39.062537 L -3292.441 76.9838 C -3292.441 79.96332 -3290.0303 82.40112 -3287.0237 82.40112 L -3249.1024 82.40112 C -3246.123 82.40112 -3243.685 79.96332 -3243.685 76.9838 L -3243.685 39.062537 C -3243.685 36.08301 -3246.123 33.645214 -3249.1024 33.645214 L -3287.0237 33.645214 C -3290.0303 33.645214 -3292.441 36.08301 -3292.441 39.062537 Z M -3259.937 49.89718 C -3259.937 54.39356 -3263.5666 58.02317 -3268.063 58.02317 C -3272.5594 58.02317 -3276.189 54.39356 -3276.189 49.89718 C -3276.189 45.400805 -3272.5594 41.7712 -3268.063 41.7712 C -3263.5666 41.7712 -3259.937 45.400805 -3259.937 49.89718 Z M -3284.315 71.56647 C -3284.315 66.14915 -3273.4803 63.16962 -3268.063 63.16962 C -3262.6457 63.16962 -3251.811 66.14915 -3251.811 71.56647 L -3251.811 74.275135 L -3284.315 74.275135 L -3284.315 71.56647 Z"/></g><g id="Graphic_33"><rect width="114.803" height="67.606" x="-3009.919" y="24.22" fill="#001e9b"/><text fill="#fff" transform="translate(-3004.919 48.29111)"><tspan x="42.914" y="16" fill="#fff" font-family="Helvetica Neue" font-size="16" font-weight="bold">V1</tspan></text></g><g id="Group_26"><g id="Graphic_32"><path fill="#000" d="M -3144.1536 87.60092 L -3156.8298 87.60092 L -3156.8298 74.92474 L -3144.1536 74.92474 Z M -3152.6044 83.37553 L -3148.379 83.37553 L -3148.379 79.15014 L -3152.6044 79.15014 Z"/></g><g id="Graphic_31"><path fill="#000" d="M -3120.914 87.60092 L -3133.59 87.60092 L -3133.59 74.92474 L -3120.914 74.92474 Z M -3129.3647 83.37553 L -3125.1393 83.37553 L -3125.1393 79.15014 L -3129.3647 79.15014 Z"/></g><g id="Graphic_30"><path fill="#000" d="M -3097.6742 87.60092 L -3110.3504 87.60092 L -3110.3504 74.92474 L -3097.6742 74.92474 Z M -3106.125 83.37553 L -3101.8996 83.37553 L -3101.8996 79.15014 L -3106.125 79.15014 Z"/></g><g id="Graphic_29"><path fill="#000" d="M -3127.252 45.346986 C -3131.9192 45.346986 -3135.7028 41.56344 -3135.7028 36.8962 C -3135.7028 32.228957 -3131.9192 28.44541 -3127.252 28.44541 C -3122.5848 28.44541 -3118.8012 32.228957 -3118.8012 36.8962 C -3118.8064 41.561267 -3122.587 45.341746 -3127.252 45.346986 Z M -3127.252 32.670804 C -3129.5856 32.670804 -3131.4774 34.562578 -3131.4774 36.8962 C -3131.4774 39.22982 -3129.5856 41.12159 -3127.252 41.12159 C -3124.9184 41.12159 -3123.0266 39.22982 -3123.0266 36.8962 C -3123.029 34.563543 -3124.9193 32.673134 -3127.252 32.670804 Z"/></g><g id="Graphic_28"><path fill="#000" d="M -3106.125 58.02317 L -3116.6885 58.02317 C -3121.3536 58.01793 -3125.134 54.23745 -3125.1393 49.57238 L -3129.3647 49.57238 C -3129.37 54.23745 -3133.1504 58.01793 -3137.8155 58.02317 L -3148.379 58.02317 C -3150.7115 58.025845 -3152.6017 59.91605 -3152.6044 62.24856 L -3152.6044 70.69935 L -3148.379 70.69935 L -3148.379 62.24856 L -3137.8155 62.24856 C -3134.693 62.247635 -3131.6817 61.08832 -3129.3647 58.99501 L -3129.3647 70.69935 L -3125.1393 70.69935 L -3125.1393 58.99501 C -3122.8223 61.08832 -3119.811 62.247635 -3116.6885 62.24856 L -3106.125 62.24856 L -3106.125 70.69935 L -3101.8996 70.69935 L -3101.8996 62.24856 C -3101.9023 59.91605 -3103.7925 58.025845 -3106.125 58.02317 Z"/></g><g id="Graphic_27"><title>_Transparent_Rectangle_</title></g></g><g id="Line_24"><line x1="-3243.685" x2="-3173.955" y1="58.023" y2="58.023" stroke="#000" stroke-linecap="round" stroke-linejoin="round" stroke-width="2" marker-end="url(#FilledArrow_Marker)"/></g><g id="Line_23"><line x1="-3093.449" x2="-3022.819" y1="58.023" y2="58.023" stroke="#000" stroke-linecap="round" stroke-linejoin="round" stroke-width="2" marker-end="url(#FilledArrow_Marker)"/></g><g id="Graphic_47"><title>Account Box</title><path fill="#000" d="M -3802.677 456.21306 L -3802.677 494.1343 C -3802.677 497.11385 -3800.2665 499.55164 -3797.26 499.55164 L -3759.3386 499.55164 C -3756.359 499.55164 -3753.9213 497.11385 -3753.9213 494.1343 L -3753.9213 456.21306 C -3753.9213 453.23353 -3756.359 450.79574 -3759.3386 450.79574 L -3797.26 450.79574 C -3800.2665 450.79574 -3802.677 453.23353 -3802.677 456.21306 Z M -3770.1733 467.0477 C -3770.1733 471.5441 -3773.803 475.1737 -3778.2992 475.1737 C -3782.7956 475.1737 -3786.4252 471.5441 -3786.4252 467.0477 C -3786.4252 462.5513 -3782.7956 458.9217 -3778.2992 458.9217 C -3773.803 458.9217 -3770.1733 462.5513 -3770.1733 467.0477 Z M -3794.551 488.717 C -3794.551 483.2997 -3783.7166 480.32014 -3778.2992 480.32014 C -3772.882 480.32014 -3762.0473 483.2997 -3762.0473 488.717 L -3762.0473 491.42566 L -3794.551 491.42566 L -3794.551 488.717 Z"/></g><g id="Graphic_46"><rect width="114.803" height="67.606" x="-3521.055" y="399.56" fill="#001e9b"/><text fill="#fff" transform="translate(-3516.055 423.6306)"><tspan x="42.914" y="16" fill="#fff" font-family="Helvetica Neue" font-size="16" font-weight="bold">V1</tspan></text></g><g id="Group_39"><g id="Graphic_45"><path fill="#000" d="M -3654.39 504.75144 L -3667.066 504.75144 L -3667.066 492.07526 L -3654.39 492.07526 Z M -3662.8406 500.52605 L -3658.615 500.52605 L -3658.615 496.30066 L -3662.8406 496.30066 Z"/></g><g id="Graphic_44"><path fill="#000" d="M -3631.15 504.75144 L -3643.8263 504.75144 L -3643.8263 492.07526 L -3631.15 492.07526 Z M -3639.601 500.52605 L -3635.3755 500.52605 L -3635.3755 496.30066 L -3639.601 496.30066 Z"/></g><g id="Graphic_43"><path fill="#000" d="M -3607.9105 504.75144 L -3620.5866 504.75144 L -3620.5866 492.07526 L -3607.9105 492.07526 Z M -3616.3613 500.52605 L -3612.136 500.52605 L -3612.136 496.30066 L -3616.3613 496.30066 Z"/></g><g id="Graphic_42"><path fill="#000" d="M -3637.4882 462.4975 C -3642.1555 462.4975 -3645.939 458.71396 -3645.939 454.0467 C -3645.939 449.3795 -3642.1555 445.59593 -3637.4882 445.59593 C -3632.821 445.59593 -3629.0374 449.3795 -3629.0374 454.0467 C -3629.0427 458.7118 -3632.823 462.49227 -3637.4882 462.4975 Z M -3637.4882 449.8213 C -3639.822 449.8213 -3641.7136 451.7131 -3641.7136 454.0467 C -3641.7136 456.38034 -3639.822 458.2721 -3637.4882 458.2721 C -3635.1546 458.2721 -3633.263 456.38034 -3633.263 454.0467 C -3633.265 451.71406 -3635.1556 449.82366 -3637.4882 449.8213 Z"/></g><g id="Graphic_41"><path fill="#000" d="M -3616.3613 475.1737 L -3626.9247 475.1737 C -3631.59 475.16845 -3635.3703 471.38797 -3635.3755 466.7229 L -3639.601 466.7229 C -3639.606 471.38797 -3643.3866 475.16845 -3648.0517 475.1737 L -3658.615 475.1737 C -3660.9477 475.17637 -3662.838 477.06657 -3662.8406 479.3991 L -3662.8406 487.84987 L -3658.615 487.84987 L -3658.615 479.3991 L -3648.0517 479.3991 C -3644.929 479.39816 -3641.918 478.23884 -3639.601 476.14553 L -3639.601 487.84987 L -3635.3755 487.84987 L -3635.3755 476.14553 C -3633.0585 478.23884 -3630.0473 479.39816 -3626.9247 479.3991 L -3616.3613 479.3991 L -3616.3613 487.84987 L -3612.136 487.84987 L -3612.136 479.3991 C -3612.1385 477.06657 -3614.0287 475.17637 -3616.3613 475.1737 Z"/></g><g id="Graphic_40"><title>_Transparent_Rectangle_</title></g></g><g id="Graphic_38"><rect width="114.803" height="62.362" x="-3521.055" y="488.426" fill="#018444"/><text fill="#fff" transform="translate(-3516.055 509.8747)"><tspan x="42.914" y="16" fill="#fff" font-family="Helvetica Neue" font-size="16" font-weight="bold">V2</tspan></text></g><g id="Line_37"><line x1="-3753.921" x2="-3684.191" y1="475.174" y2="475.174" stroke="#000" stroke-linecap="round" stroke-linejoin="round" stroke-width="2" marker-end="url(#FilledArrow_Marker)"/></g><g id="Line_35"><path stroke="#000" stroke-linecap="round" stroke-linejoin="round" stroke-width="2" marker-end="url(#FilledArrow_Marker)" d="M -3603.685 475.1737 L -3562.37 475.1737 L -3562.37 519.60676 L -3533.955 519.60676"/></g><g id="Graphic_60"><title>Account Box</title><path fill="#000" d="M -3292.441 223.89764 L -3292.441 261.8189 C -3292.441 264.79843 -3290.0303 267.23622 -3287.0237 267.23622 L -3249.1024 267.23622 C -3246.123 267.23622 -3243.685 264.79843 -3243.685 261.8189 L -3243.685 223.89764 C -3243.685 220.9181 -3246.123 218.48032 -3249.1024 218.48032 L -3287.0237 218.48032 C -3290.0303 218.48032 -3292.441 220.9181 -3292.441 223.89764 Z M -3259.937 234.73229 C -3259.937 239.22866 -3263.5666 242.85827 -3268.063 242.85827 C -3272.5594 242.85827 -3276.189 239.22866 -3276.189 234.73229 C -3276.189 230.2359 -3272.5594 226.6063 -3268.063 226.6063 C -3263.5666 226.6063 -3259.937 230.2359 -3259.937 234.73229 Z M -3284.315 256.40158 C -3284.315 250.98425 -3273.4803 248.00473 -3268.063 248.00473 C -3262.6457 248.00473 -3251.811 250.98425 -3251.811 256.40158 L -3251.811 259.11024 L -3284.315 259.11024 L -3284.315 256.40158 Z"/></g><g id="Graphic_59"><rect width="114.803" height="67.606" x="-3010.819" y="167.244" fill="#001e9b"/><text fill="#fff" transform="translate(-3005.819 191.3152)"><tspan x="42.914" y="16" fill="#fff" font-family="Helvetica Neue" font-size="16" font-weight="bold">V1</tspan></text></g><g id="Group_52"><g id="Graphic_58"><path fill="#000" d="M -3144.1536 272.43603 L -3156.8298 272.43603 L -3156.8298 259.75984 L -3144.1536 259.75984 Z M -3152.6044 268.21063 L -3148.379 268.21063 L -3148.379 263.98524 L -3152.6044 263.98524 Z"/></g><g id="Graphic_57"><path fill="#000" d="M -3120.914 272.43603 L -3133.59 272.43603 L -3133.59 259.75984 L -3120.914 259.75984 Z M -3129.3647 268.21063 L -3125.1393 268.21063 L -3125.1393 263.98524 L -3129.3647 263.98524 Z"/></g><g id="Graphic_56"><path fill="#000" d="M -3097.6742 272.43603 L -3110.3504 272.43603 L -3110.3504 259.75984 L -3097.6742 259.75984 Z M -3106.125 268.21063 L -3101.8996 268.21063 L -3101.8996 263.98524 L -3106.125 263.98524 Z"/></g><g id="Graphic_55"><path fill="#000" d="M -3127.252 230.1821 C -3131.9192 230.1821 -3135.7028 226.39854 -3135.7028 221.7313 C -3135.7028 217.06406 -3131.9192 213.28051 -3127.252 213.28051 C -3122.5848 213.28051 -3118.8012 217.06406 -3118.8012 221.7313 C -3118.8064 226.39637 -3122.587 230.17685 -3127.252 230.1821 Z M -3127.252 217.5059 C -3129.5856 217.5059 -3131.4774 219.39768 -3131.4774 221.7313 C -3131.4774 224.06492 -3129.5856 225.9567 -3127.252 225.9567 C -3124.9184 225.9567 -3123.0266 224.06492 -3123.0266 221.7313 C -3123.029 219.39865 -3124.9193 217.50824 -3127.252 217.5059 Z"/></g><g id="Graphic_54"><path fill="#000" d="M -3106.125 242.85827 L -3116.6885 242.85827 C -3121.3536 242.85303 -3125.134 239.07255 -3125.1393 234.40748 L -3129.3647 234.40748 C -3129.37 239.07255 -3133.1504 242.85303 -3137.8155 242.85827 L -3148.379 242.85827 C -3150.7115 242.86095 -3152.6017 244.75115 -3152.6044 247.08366 L -3152.6044 255.53445 L -3148.379 255.53445 L -3148.379 247.08366 L -3137.8155 247.08366 C -3134.693 247.08274 -3131.6817 245.92342 -3129.3647 243.8301 L -3129.3647 255.53445 L -3125.1393 255.53445 L -3125.1393 243.8301 C -3122.8223 245.92342 -3119.811 247.08274 -3116.6885 247.08366 L -3106.125 247.08366 L -3106.125 255.53445 L -3101.8996 255.53445 L -3101.8996 247.08366 C -3101.9023 244.75115 -3103.7925 242.86095 -3106.125 242.85827 Z"/></g><g id="Graphic_53"><title>_Transparent_Rectangle_</title></g></g><g id="Graphic_51"><rect width="114.803" height="62.362" x="-3010.819" y="256.11" fill="#018444"/><text fill="#fff" transform="translate(-3005.819 277.5593)"><tspan x="42.914" y="16" fill="#fff" font-family="Helvetica Neue" font-size="16" font-weight="bold">V2</tspan></text></g><g id="Line_50"><line x1="-3243.685" x2="-3173.955" y1="242.858" y2="242.858" stroke="#000" stroke-linecap="round" stroke-linejoin="round" stroke-width="2" marker-end="url(#FilledArrow_Marker)"/></g><g id="Line_49"><path stroke="#000" stroke-linecap="round" stroke-linejoin="round" stroke-width="2" marker-end="url(#FilledArrow_Marker)" d="M -3093.449 242.85827 L -3052.134 242.85827 L -3052.134 201.04725 L -3023.719 201.04725"/></g><g id="Line_48"><path stroke="#000" stroke-linecap="round" stroke-linejoin="round" stroke-width="2" marker-end="url(#FilledArrow_Marker)" d="M -3093.449 242.85827 L -3052.134 242.85827 L -3052.134 287.29134 L -3023.719 287.29134"/></g><g id="Graphic_61"><text fill="#000" transform="translate(-3063.504 29.220017)"><tspan x="0" y="16" fill="#000" font-family="Helvetica Neue" font-size="16" font-weight="bold">100%</tspan></text></g><g id="Graphic_63"><text fill="#000" transform="translate(-3049.611 175.07874)"><tspan x="0" y="16" fill="#000" font-family="Helvetica Neue" font-size="16" font-weight="bold">90%</tspan></text></g><g id="Graphic_65"><text fill="#000" transform="translate(-3049.611 294.00833)"><tspan x="0" y="16" fill="#000" font-family="Helvetica Neue" font-size="16" font-weight="bold">10%</tspan></text></g><g id="Graphic_80"><title>Account Box</title><path fill="#000" d="M -3291.541 655.0959 L -3291.541 693.0171 C -3291.541 695.99665 -3289.1303 698.43444 -3286.1237 698.43444 L -3248.2024 698.43444 C -3245.223 698.43444 -3242.785 695.99665 -3242.785 693.0171 L -3242.785 655.0959 C -3242.785 652.1163 -3245.223 649.6785 -3248.2024 649.6785 L -3286.1237 649.6785 C -3289.1303 649.6785 -3291.541 652.1163 -3291.541 655.0959 Z M -3259.037 665.9305 C -3259.037 670.4269 -3262.6666 674.0565 -3267.163 674.0565 C -3271.6594 674.0565 -3275.289 670.4269 -3275.289 665.9305 C -3275.289 661.4341 -3271.6594 657.8045 -3267.163 657.8045 C -3262.6666 657.8045 -3259.037 661.4341 -3259.037 665.9305 Z M -3283.415 687.5998 C -3283.415 682.1825 -3272.5803 679.20295 -3267.163 679.20295 C -3261.7457 679.20295 -3250.911 682.1825 -3250.911 687.5998 L -3250.911 690.3085 L -3283.415 690.3085 L -3283.415 687.5998 Z"/></g><g id="Group_72"><g id="Graphic_78"><path fill="#000" d="M -3143.2536 703.63425 L -3155.9298 703.63425 L -3155.9298 690.9581 L -3143.2536 690.9581 Z M -3151.7044 699.40885 L -3147.479 699.40885 L -3147.479 695.1835 L -3151.7044 695.1835 Z"/></g><g id="Graphic_77"><path fill="#000" d="M -3120.014 703.63425 L -3132.69 703.63425 L -3132.69 690.9581 L -3120.014 690.9581 Z M -3128.4647 699.40885 L -3124.2393 699.40885 L -3124.2393 695.1835 L -3128.4647 695.1835 Z"/></g><g id="Graphic_76"><path fill="#000" d="M -3096.7742 703.63425 L -3109.4504 703.63425 L -3109.4504 690.9581 L -3096.7742 690.9581 Z M -3105.225 699.40885 L -3100.9996 699.40885 L -3100.9996 695.1835 L -3105.225 695.1835 Z"/></g><g id="Graphic_75"><path fill="#000" d="M -3126.352 661.3803 C -3131.0192 661.3803 -3134.8028 657.5968 -3134.8028 652.9295 C -3134.8028 648.2623 -3131.0192 644.4787 -3126.352 644.4787 C -3121.6848 644.4787 -3117.9012 648.2623 -3117.9012 652.9295 C -3117.9064 657.5946 -3121.687 661.3751 -3126.352 661.3803 Z M -3126.352 648.7041 C -3128.6856 648.7041 -3130.5774 650.5959 -3130.5774 652.9295 C -3130.5774 655.26314 -3128.6856 657.1549 -3126.352 657.1549 C -3124.0184 657.1549 -3122.1266 655.26314 -3122.1266 652.9295 C -3122.129 650.5969 -3124.0193 648.70646 -3126.352 648.7041 Z"/></g><g id="Graphic_74"><path fill="#000" d="M -3105.225 674.0565 L -3115.7885 674.0565 C -3120.4536 674.05125 -3124.234 670.2708 -3124.2393 665.6057 L -3128.4647 665.6057 C -3128.47 670.2708 -3132.2504 674.05125 -3136.9155 674.0565 L -3147.479 674.0565 C -3149.8115 674.0592 -3151.7017 675.9494 -3151.7044 678.2819 L -3151.7044 686.7327 L -3147.479 686.7327 L -3147.479 678.2819 L -3136.9155 678.2819 C -3133.793 678.281 -3130.7817 677.12165 -3128.4647 675.0283 L -3128.4647 686.7327 L -3124.2393 686.7327 L -3124.2393 675.0283 C -3121.9223 677.12165 -3118.911 678.281 -3115.7885 678.2819 L -3105.225 678.2819 L -3105.225 686.7327 L -3100.9996 686.7327 L -3100.9996 678.2819 C -3101.0023 675.9494 -3102.8925 674.0592 -3105.225 674.0565 Z"/></g><g id="Graphic_73"><title>_Transparent_Rectangle_</title></g></g><g id="Graphic_71"><rect width="114.803" height="62.362" x="-3009.919" y="642.875" fill="#018444"/><text fill="#fff" transform="translate(-3004.919 664.3244)"><tspan x="42.914" y="16" fill="#fff" font-family="Helvetica Neue" font-size="16" font-weight="bold">V2</tspan></text></g><g id="Line_70"><line x1="-3242.785" x2="-3173.055" y1="674.057" y2="674.057" stroke="#000" stroke-linecap="round" stroke-linejoin="round" stroke-width="2" marker-end="url(#FilledArrow_Marker)"/></g><g id="Line_68"><line x1="-3092.549" x2="-3022.819" y1="674.057" y2="674.057" stroke="#000" stroke-linecap="round" stroke-linejoin="round" stroke-width="2" marker-end="url(#FilledArrow_Marker)"/></g><g id="Graphic_92"><title>Account Box</title><path fill="#000" d="M -3802.677 652.4738 L -3802.677 690.3951 C -3802.677 693.3746 -3800.2665 695.8124 -3797.26 695.8124 L -3759.3386 695.8124 C -3756.359 695.8124 -3753.9213 693.3746 -3753.9213 690.3951 L -3753.9213 652.4738 C -3753.9213 649.4943 -3756.359 647.0565 -3759.3386 647.0565 L -3797.26 647.0565 C -3800.2665 647.0565 -3802.677 649.4943 -3802.677 652.4738 Z M -3770.1733 663.30846 C -3770.1733 667.8048 -3773.803 671.43444 -3778.2992 671.43444 C -3782.7956 671.43444 -3786.4252 667.8048 -3786.4252 663.30846 C -3786.4252 658.8121 -3782.7956 655.1825 -3778.2992 655.1825 C -3773.803 655.1825 -3770.1733 658.8121 -3770.1733 663.30846 Z M -3794.551 684.97775 C -3794.551 679.5604 -3783.7166 676.5809 -3778.2992 676.5809 C -3772.882 676.5809 -3762.0473 679.5604 -3762.0473 684.97775 L -3762.0473 687.6864 L -3794.551 687.6864 L -3794.551 684.97775 Z"/></g><g id="Group_84"><g id="Graphic_90"><path fill="#000" d="M -3654.39 701.0122 L -3667.066 701.0122 L -3667.066 688.336 L -3654.39 688.336 Z M -3662.8406 696.7868 L -3658.615 696.7868 L -3658.615 692.5614 L -3662.8406 692.5614 Z"/></g><g id="Graphic_89"><path fill="#000" d="M -3631.15 701.0122 L -3643.8263 701.0122 L -3643.8263 688.336 L -3631.15 688.336 Z M -3639.601 696.7868 L -3635.3755 696.7868 L -3635.3755 692.5614 L -3639.601 692.5614 Z"/></g><g id="Graphic_88"><path fill="#000" d="M -3607.9105 701.0122 L -3620.5866 701.0122 L -3620.5866 688.336 L -3607.9105 688.336 Z M -3616.3613 696.7868 L -3612.136 696.7868 L -3612.136 692.5614 L -3616.3613 692.5614 Z"/></g><g id="Graphic_87"><path fill="#000" d="M -3637.4882 658.7583 C -3642.1555 658.7583 -3645.939 654.9747 -3645.939 650.3075 C -3645.939 645.6402 -3642.1555 641.8567 -3637.4882 641.8567 C -3632.821 641.8567 -3629.0374 645.6402 -3629.0374 650.3075 C -3629.0427 654.97254 -3632.823 658.753 -3637.4882 658.7583 Z M -3637.4882 646.0821 C -3639.822 646.0821 -3641.7136 647.97385 -3641.7136 650.3075 C -3641.7136 652.6411 -3639.822 654.5329 -3637.4882 654.5329 C -3635.1546 654.5329 -3633.263 652.6411 -3633.263 650.3075 C -3633.265 647.9748 -3635.1556 646.0844 -3637.4882 646.0821 Z"/></g><g id="Graphic_86"><path fill="#000" d="M -3616.3613 671.43444 L -3626.9247 671.43444 C -3631.59 671.4292 -3635.3703 667.6487 -3635.3755 662.98366 L -3639.601 662.98366 C -3639.606 667.6487 -3643.3866 671.4292 -3648.0517 671.43444 L -3658.615 671.43444 C -3660.9477 671.4371 -3662.838 673.3273 -3662.8406 675.6598 L -3662.8406 684.1106 L -3658.615 684.1106 L -3658.615 675.6598 L -3648.0517 675.6598 C -3644.929 675.6589 -3641.918 674.4996 -3639.601 672.4063 L -3639.601 684.1106 L -3635.3755 684.1106 L -3635.3755 672.4063 C -3633.0585 674.4996 -3630.0473 675.6589 -3626.9247 675.6598 L -3616.3613 675.6598 L -3616.3613 684.1106 L -3612.136 684.1106 L -3612.136 675.6598 C -3612.1385 673.3273 -3614.0287 671.4371 -3616.3613 671.43444 Z"/></g><g id="Graphic_85"><title>_Transparent_Rectangle_</title></g></g><g id="Graphic_83"><rect width="114.803" height="62.362" x="-3521.055" y="640.253" fill="#018444"/><text fill="#fff" transform="translate(-3516.055 661.7024)"><tspan x="42.914" y="16" fill="#fff" font-family="Helvetica Neue" font-size="16" font-weight="bold">V2</tspan></text></g><g id="Line_82"><line x1="-3753.921" x2="-3684.191" y1="671.434" y2="671.434" stroke="#000" stroke-linecap="round" stroke-linejoin="round" stroke-width="2" marker-end="url(#FilledArrow_Marker)"/></g><g id="Line_81"><line x1="-3603.685" x2="-3533.955" y1="671.434" y2="671.434" stroke="#000" stroke-linecap="round" stroke-linejoin="round" stroke-width="2" marker-end="url(#FilledArrow_Marker)"/></g><g id="Graphic_93"><text fill="#000" transform="translate(-3056.707 648.7754)"><tspan x="0" y="16" fill="#000" font-family="Helvetica Neue" font-size="16" font-weight="bold">100%</tspan></text></g><g id="Graphic_119"><title>Account Box</title><path fill="#000" d="M -3291.541 456.21306 L -3291.541 494.1343 C -3291.541 497.11385 -3289.1303 499.55164 -3286.1237 499.55164 L -3248.2024 499.55164 C -3245.223 499.55164 -3242.785 497.11385 -3242.785 494.1343 L -3242.785 456.21306 C -3242.785 453.23353 -3245.223 450.79574 -3248.2024 450.79574 L -3286.1237 450.79574 C -3289.1303 450.79574 -3291.541 453.23353 -3291.541 456.21306 Z M -3259.037 467.0477 C -3259.037 471.5441 -3262.6666 475.1737 -3267.163 475.1737 C -3271.6594 475.1737 -3275.289 471.5441 -3275.289 467.0477 C -3275.289 462.5513 -3271.6594 458.9217 -3267.163 458.9217 C -3262.6666 458.9217 -3259.037 462.5513 -3259.037 467.0477 Z M -3283.415 488.717 C -3283.415 483.2997 -3272.5803 480.32014 -3267.163 480.32014 C -3261.7457 480.32014 -3250.911 483.2997 -3250.911 488.717 L -3250.911 491.42566 L -3283.415 491.42566 L -3283.415 488.717 Z"/></g><g id="Graphic_118"><rect width="114.803" height="67.606" x="-3009.919" y="399.56" fill="#001e9b"/><text fill="#fff" transform="translate(-3004.919 423.6306)"><tspan x="42.914" y="16" fill="#fff" font-family="Helvetica Neue" font-size="16" font-weight="bold">V1</tspan></text></g><g id="Group_111"><g id="Graphic_117"><path fill="#000" d="M -3143.2536 504.75144 L -3155.9298 504.75144 L -3155.9298 492.07526 L -3143.2536 492.07526 Z M -3151.7044 500.52605 L -3147.479 500.52605 L -3147.479 496.30066 L -3151.7044 496.30066 Z"/></g><g id="Graphic_116"><path fill="#000" d="M -3120.014 504.75144 L -3132.69 504.75144 L -3132.69 492.07526 L -3120.014 492.07526 Z M -3128.4647 500.52605 L -3124.2393 500.52605 L -3124.2393 496.30066 L -3128.4647 496.30066 Z"/></g><g id="Graphic_115"><path fill="#000" d="M -3096.7742 504.75144 L -3109.4504 504.75144 L -3109.4504 492.07526 L -3096.7742 492.07526 Z M -3105.225 500.52605 L -3100.9996 500.52605 L -3100.9996 496.30066 L -3105.225 496.30066 Z"/></g><g id="Graphic_114"><path fill="#000" d="M -3126.352 462.4975 C -3131.0192 462.4975 -3134.8028 458.71396 -3134.8028 454.0467 C -3134.8028 449.3795 -3131.0192 445.59593 -3126.352 445.59593 C -3121.6848 445.59593 -3117.9012 449.3795 -3117.9012 454.0467 C -3117.9064 458.7118 -3121.687 462.49227 -3126.352 462.4975 Z M -3126.352 449.8213 C -3128.6856 449.8213 -3130.5774 451.7131 -3130.5774 454.0467 C -3130.5774 456.38034 -3128.6856 458.2721 -3126.352 458.2721 C -3124.0184 458.2721 -3122.1266 456.38034 -3122.1266 454.0467 C -3122.129 451.71406 -3124.0193 449.82366 -3126.352 449.8213 Z"/></g><g id="Graphic_113"><path fill="#000" d="M -3105.225 475.1737 L -3115.7885 475.1737 C -3120.4536 475.16845 -3124.234 471.38797 -3124.2393 466.7229 L -3128.4647 466.7229 C -3128.47 471.38797 -3132.2504 475.16845 -3136.9155 475.1737 L -3147.479 475.1737 C -3149.8115 475.17637 -3151.7017 477.06657 -3151.7044 479.3991 L -3151.7044 487.84987 L -3147.479 487.84987 L -3147.479 479.3991 L -3136.9155 479.3991 C -3133.793 479.39816 -3130.7817 478.23884 -3128.4647 476.14553 L -3128.4647 487.84987 L -3124.2393 487.84987 L -3124.2393 476.14553 C -3121.9223 478.23884 -3118.911 479.39816 -3115.7885 479.3991 L -3105.225 479.3991 L -3105.225 487.84987 L -3100.9996 487.84987 L -3100.9996 479.3991 C -3101.0023 477.06657 -3102.8925 475.17637 -3105.225 475.1737 Z"/></g><g id="Graphic_112"><title>_Transparent_Rectangle_</title></g></g><g id="Graphic_110"><rect width="114.803" height="62.362" x="-3009.919" y="488.426" fill="#018444"/><text fill="#fff" transform="translate(-3004.919 509.8747)"><tspan x="42.914" y="16" fill="#fff" font-family="Helvetica Neue" font-size="16" font-weight="bold">V2</tspan></text></g><g id="Line_109"><line x1="-3242.785" x2="-3173.055" y1="475.174" y2="475.174" stroke="#000" stroke-linecap="round" stroke-linejoin="round" stroke-width="2" marker-end="url(#FilledArrow_Marker)"/></g><g id="Line_108"><path stroke="#000" stroke-linecap="round" stroke-linejoin="round" stroke-width="2" marker-end="url(#FilledArrow_Marker)" d="M -3092.549 475.1737 L -3051.234 475.1737 L -3051.234 433.36266 L -3022.819 433.36266"/></g><g id="Line_107"><path stroke="#000" stroke-linecap="round" stroke-linejoin="round" stroke-width="2" marker-end="url(#FilledArrow_Marker)" d="M -3092.549 475.1737 L -3051.234 475.1737 L -3051.234 519.60676 L -3022.819 519.60676"/></g><g id="Graphic_106"><text fill="#000" transform="translate(-3048.711 407.39416)"><tspan x="0" y="16" fill="#000" font-family="Helvetica Neue" font-size="16" font-weight="bold">50%</tspan></text></g><g id="Graphic_105"><text fill="#000" transform="translate(-3048.711 526.32375)"><tspan x="0" y="16" fill="#000" font-family="Helvetica Neue" font-size="16" font-weight="bold">50%</tspan></text></g><g id="Line_120"><path stroke="#000" stroke-dasharray="2 8" stroke-linecap="round" stroke-linejoin="round" stroke-width="2" marker-end="url(#FilledArrow_Marker)" d="M -3603.685 475.1737 L -3562.37 475.1737 L -3562.37 433.36266 L -3533.955 433.36266"/></g><g id="Graphic_132"><title>Account Box</title><path fill="#000" d="M -3803.577 39.062537 L -3803.577 76.9838 C -3803.577 79.96332 -3801.1665 82.40112 -3798.16 82.40112 L -3760.2386 82.40112 C -3757.259 82.40112 -3754.8213 79.96332 -3754.8213 76.9838 L -3754.8213 39.062537 C -3754.8213 36.08301 -3757.259 33.645214 -3760.2386 33.645214 L -3798.16 33.645214 C -3801.1665 33.645214 -3803.577 36.08301 -3803.577 39.062537 Z M -3771.0733 49.89718 C -3771.0733 54.39356 -3774.703 58.02317 -3779.1992 58.02317 C -3783.6956 58.02317 -3787.3252 54.39356 -3787.3252 49.89718 C -3787.3252 45.400805 -3783.6956 41.7712 -3779.1992 41.7712 C -3774.703 41.7712 -3771.0733 45.400805 -3771.0733 49.89718 Z M -3795.451 71.56647 C -3795.451 66.14915 -3784.6166 63.16962 -3779.1992 63.16962 C -3773.782 63.16962 -3762.9473 66.14915 -3762.9473 71.56647 L -3762.9473 74.275135 L -3795.451 74.275135 L -3795.451 71.56647 Z"/></g><g id="Graphic_131"><rect width="114.803" height="67.606" x="-3521.055" y="24.22" fill="#001e9b"/><text fill="#fff" transform="translate(-3516.055 48.29111)"><tspan x="42.914" y="16" fill="#fff" font-family="Helvetica Neue" font-size="16" font-weight="bold">V1</tspan></text></g><g id="Group_124"><g id="Graphic_130"><path fill="#000" d="M -3655.29 87.60092 L -3667.966 87.60092 L -3667.966 74.92474 L -3655.29 74.92474 Z M -3663.7406 83.37553 L -3659.515 83.37553 L -3659.515 79.15014 L -3663.7406 79.15014 Z"/></g><g id="Graphic_129"><path fill="#000" d="M -3632.05 87.60092 L -3644.7263 87.60092 L -3644.7263 74.92474 L -3632.05 74.92474 Z M -3640.501 83.37553 L -3636.2755 83.37553 L -3636.2755 79.15014 L -3640.501 79.15014 Z"/></g><g id="Graphic_128"><path fill="#000" d="M -3608.8105 87.60092 L -3621.4866 87.60092 L -3621.4866 74.92474 L -3608.8105 74.92474 Z M -3617.2613 83.37553 L -3613.036 83.37553 L -3613.036 79.15014 L -3617.2613 79.15014 Z"/></g><g id="Graphic_127"><path fill="#000" d="M -3638.3882 45.346986 C -3643.0555 45.346986 -3646.839 41.56344 -3646.839 36.8962 C -3646.839 32.228957 -3643.0555 28.44541 -3638.3882 28.44541 C -3633.721 28.44541 -3629.9374 32.228957 -3629.9374 36.8962 C -3629.9427 41.561267 -3633.723 45.341746 -3638.3882 45.346986 Z M -3638.3882 32.670804 C -3640.722 32.670804 -3642.6136 34.562578 -3642.6136 36.8962 C -3642.6136 39.22982 -3640.722 41.12159 -3638.3882 41.12159 C -3636.0546 41.12159 -3634.163 39.22982 -3634.163 36.8962 C -3634.165 34.563543 -3636.0556 32.673134 -3638.3882 32.670804 Z"/></g><g id="Graphic_126"><path fill="#000" d="M -3617.2613 58.02317 L -3627.8247 58.02317 C -3632.49 58.01793 -3636.2703 54.23745 -3636.2755 49.57238 L -3640.501 49.57238 C -3640.506 54.23745 -3644.2866 58.01793 -3648.9517 58.02317 L -3659.515 58.02317 C -3661.8477 58.025845 -3663.738 59.91605 -3663.7406 62.24856 L -3663.7406 70.69935 L -3659.515 70.69935 L -3659.515 62.24856 L -3648.9517 62.24856 C -3645.829 62.247635 -3642.818 61.08832 -3640.501 58.99501 L -3640.501 70.69935 L -3636.2755 70.69935 L -3636.2755 58.99501 C -3633.9585 61.08832 -3630.9473 62.247635 -3627.8247 62.24856 L -3617.2613 62.24856 L -3617.2613 70.69935 L -3613.036 70.69935 L -3613.036 62.24856 C -3613.0385 59.91605 -3614.9287 58.025845 -3617.2613 58.02317 Z"/></g><g id="Graphic_125"><title>_Transparent_Rectangle_</title></g></g><g id="Line_123"><line x1="-3754.821" x2="-3685.091" y1="58.023" y2="58.023" stroke="#000" stroke-linecap="round" stroke-linejoin="round" stroke-width="2" marker-end="url(#FilledArrow_Marker)"/></g><g id="Line_122"><line x1="-3604.585" x2="-3533.955" y1="58.023" y2="58.023" stroke="#000" stroke-linecap="round" stroke-linejoin="round" stroke-width="2" marker-end="url(#FilledArrow_Marker)"/></g><g id="Graphic_133"><text fill="#000" transform="translate(-3728.748 754.7638)"><tspan x="0" y="16" fill="#000" font-family="Helvetica Neue" font-size="16" font-weight="bold">Blue Green Deployment</tspan></text></g><g id="Graphic_134"><text fill="#000" transform="translate(-3201.608 754.7638)"><tspan x="0" y="16" fill="#000" font-family="Helvetica Neue" font-size="16" font-weight="bold">Canary Deployment</tspan></text></g><g id="Graphic_135"><text fill="#000" transform="translate(-3798.577 330.3038)"><tspan x="0" y="15" fill="#000" font-family="Helvetica Neue" font-size="16" font-style="italic">2. Deploy new version</tspan></text></g><g id="Graphic_136"><text fill="#000" transform="translate(-3798.577 93.27431)"><tspan x="0" y="17" fill="#000" font-family="Helvetica Neue" font-size="16" font-style="italic">1</tspan> <tspan y="17" fill="#000" font-family="PingFang SC" font-size="16">. </tspan> <tspan y="17" fill="#000" font-family="Helvetica Neue" font-size="16" font-style="italic">Initial version</tspan></text></g><g id="Graphic_137"><text fill="#000" transform="translate(-3798.577 523.78786)"><tspan x="0" y="17" fill="#000" font-family="Helvetica Neue" font-size="16" font-style="italic">3</tspan> <tspan y="17" fill="#000" font-family="PingFang SC" font-size="16">. </tspan> <tspan y="17" fill="#000" font-family="Helvetica Neue" font-size="16" font-style="italic">Switch traffic</tspan></text></g><g id="Graphic_139"><text fill="#000" transform="translate(-3287.441 330.3038)"><tspan x="0" y="15" fill="#000" font-family="Helvetica Neue" font-size="16" font-style="italic">2. Switch traffic with new version</tspan></text></g><g id="Graphic_140"><text fill="#000" transform="translate(-3287.441 560.8797)"><tspan x="0" y="15" fill="#000" font-family="Helvetica Neue" font-size="16" font-style="italic">3. The new version working properly </tspan> <tspan x="0" y="33.448" fill="#000" font-family="Helvetica Neue" font-size="16" font-style="italic">and continues to split traffic</tspan></text></g><g id="Graphic_141"><text fill="#000" transform="translate(-3797.677 713.5641)"><tspan x="0" y="15" fill="#000" font-family="Helvetica Neue" font-size="16" font-style="italic">4. Finish</tspan></text></g><g id="Graphic_143"><text fill="#ff2600" transform="translate(-3554.4225 419.0146)"><tspan x="0" y="23" fill="#ff2600" font-family="Helvetica Neue" font-size="24" font-weight="bold">×</tspan></text></g><g id="Graphic_146"><text fill="#000" transform="translate(-3287.441 93.27431)"><tspan x="0" y="17" fill="#000" font-family="Helvetica Neue" font-size="16" font-style="italic">1</tspan> <tspan y="17" fill="#000" font-family="PingFang SC" font-size="16">. </tspan> <tspan y="17" fill="#000" font-family="Helvetica Neue" font-size="16" font-style="italic">Initial version</tspan></text></g><g id="Graphic_147"><text fill="#000" transform="translate(-3287.441 713.5641)"><tspan x="0" y="15" fill="#000" font-family="Helvetica Neue" font-size="16" font-style="italic">4. Finish</tspan></text></g></g></g></svg>