<svg xmlns="http://www.w3.org/2000/svg" xmlns:xl="http://www.w3.org/1999/xlink" width="765" height="374" version="1.1" viewBox="-4349 -553 765 374"><defs><marker id="FilledArrow_Marker" stroke-linejoin="miter" stroke-miterlimit="10" color="#000" markerHeight="6" markerUnits="strokeWidth" markerWidth="7" orient="auto" overflow="visible" viewBox="-1 -3 7 6"><g><path fill="currentColor" stroke="currentColor" stroke-width="1" d="M 4.8 0 L 0 -1.8 L 0 1.8 Z"/></g></marker></defs><g id="Kubernetes_Deployment" fill="none" fill-opacity="1" stroke="none" stroke-dasharray="none" stroke-opacity="1"><title>Kubernetes Deployment</title><rect width="765" height="374" x="-4349" y="-553" fill="#fff"/><g id="Kubernetes_Deployment_Layer_1"><title>Layer 1</title><g id="Graphic_2"><rect width="208.346" height="57.661" x="-4070.323" y="-537.165" fill="#fff"/><rect width="208.346" height="57.661" x="-4070.323" y="-537.165" stroke="gray" stroke-linecap="round" stroke-linejoin="round" stroke-width="1"/><text fill="#000" transform="translate(-4065.323 -518.0667)"><tspan x="53.261" y="16" fill="#000" font-family="Helvetica Neue" font-size="16" font-weight="bold">Deployment</tspan></text></g><g id="Graphic_3"><rect width="208.346" height="167.244" x="-4336.78" y="-361.417" fill="#fff"/><rect width="208.346" height="167.244" x="-4336.78" y="-361.417" stroke="gray" stroke-linecap="round" stroke-linejoin="round" stroke-width="1"/><text fill="#000" transform="translate(-4331.7796 -356.41733)"><tspan x="58.005" y="16" fill="#000" font-family="Helvetica Neue" font-size="16" font-weight="bold">ReplicaSet</tspan></text></g><g id="Graphic_4"><rect width="56.693" height="39.685" x="-4304.181" y="-310.394" fill="#ff012b"/><text fill="#fff" transform="translate(-4299.181 -300.28324)"><tspan x="13.858" y="16" fill="#fff" font-family="Helvetica Neue" font-size="16" font-weight="bold">V1</tspan></text></g><g id="Graphic_6"><rect width="208.346" height="167.244" x="-4070.323" y="-361.417" fill="#fff"/><rect width="208.346" height="167.244" x="-4070.323" y="-361.417" stroke="gray" stroke-linecap="round" stroke-linejoin="round" stroke-width="1"/><text fill="#000" transform="translate(-4065.323 -356.41733)"><tspan x="58.005" y="16" fill="#000" font-family="Helvetica Neue" font-size="16" font-weight="bold">ReplicaSet</tspan></text></g><g id="Graphic_5"><rect width="56.693" height="39.685" x="-4037.953" y="-310.394" fill="#018444"/><text fill="#fff" transform="translate(-4032.953 -300.28324)"><tspan x="13.858" y="16" fill="#fff" font-family="Helvetica Neue" font-size="16" font-weight="bold">V2</tspan></text></g><g id="Graphic_8"><rect width="208.346" height="167.244" x="-3804.323" y="-361.417" fill="#fff"/><rect width="208.346" height="167.244" x="-3804.323" y="-361.417" stroke="gray" stroke-linecap="round" stroke-linejoin="round" stroke-width="1"/><text fill="#000" transform="translate(-3799.323 -356.41733)"><tspan x="58.005" y="16" fill="#000" font-family="Helvetica Neue" font-size="16" font-weight="bold">ReplicaSet</tspan></text></g><g id="Graphic_7"><rect width="56.693" height="39.685" x="-3771.724" y="-310.394" fill="#001e9b"/><text fill="#fff" transform="translate(-3766.7244 -300.28324)"><tspan x="13.858" y="16" fill="#fff" font-family="Helvetica Neue" font-size="16" font-weight="bold">V3</tspan></text></g><g id="Line_9"><path stroke="#000" stroke-linecap="round" stroke-linejoin="round" stroke-width="2" marker-end="url(#FilledArrow_Marker)" d="M -3966.1496 -479.50394 L -3966.1496 -420.46063 L -4232.6063 -420.46063 L -4232.6063 -374.31733"/></g><g id="Line_10"><line x1="-3966.15" x2="-3966.15" y1="-479.504" y2="-374.317" stroke="#000" stroke-linecap="round" stroke-linejoin="round" stroke-width="2" marker-end="url(#FilledArrow_Marker)"/></g><g id="Line_11"><path stroke="#000" stroke-linecap="round" stroke-linejoin="round" stroke-width="2" marker-end="url(#FilledArrow_Marker)" d="M -3966.1496 -479.50394 L -3966.1496 -420.46063 L -3700.1496 -420.46063 L -3700.1496 -374.31733"/></g><g id="Graphic_13"><rect width="56.693" height="39.685" x="-4217.724" y="-310.394" fill="#ff012b"/><text fill="#fff" transform="translate(-4212.7244 -300.28324)"><tspan x="13.858" y="16" fill="#fff" font-family="Helvetica Neue" font-size="16" font-weight="bold">V1</tspan></text></g><g id="Graphic_15"><rect width="56.693" height="39.685" x="-4304.181" y="-252.283" fill="#ff012b"/><text fill="#fff" transform="translate(-4299.181 -242.173)"><tspan x="13.858" y="16" fill="#fff" font-family="Helvetica Neue" font-size="16" font-weight="bold">V1</tspan></text></g><g id="Graphic_14"><rect width="56.693" height="39.685" x="-4217.724" y="-252.283" fill="#ff012b"/><text fill="#fff" transform="translate(-4212.7244 -242.173)"><tspan x="13.858" y="16" fill="#fff" font-family="Helvetica Neue" font-size="16" font-weight="bold">V1</tspan></text></g><g id="Graphic_16"><rect width="56.693" height="39.685" x="-3951.496" y="-310.394" fill="#018444"/><text fill="#fff" transform="translate(-3946.496 -300.28324)"><tspan x="13.858" y="16" fill="#fff" font-family="Helvetica Neue" font-size="16" font-weight="bold">V2</tspan></text></g><g id="Graphic_17"><rect width="56.693" height="39.685" x="-3684.811" y="-310.394" fill="#001e9b"/><text fill="#fff" transform="translate(-3679.811 -300.28324)"><tspan x="13.858" y="16" fill="#fff" font-family="Helvetica Neue" font-size="16" font-weight="bold">V3</tspan></text></g><g id="Graphic_18"><rect width="56.693" height="39.685" x="-3771.724" y="-252.283" fill="#001e9b"/><text fill="#fff" transform="translate(-3766.7244 -242.173)"><tspan x="13.858" y="16" fill="#fff" font-family="Helvetica Neue" font-size="16" font-weight="bold">V3</tspan></text></g></g></g></svg>