<svg xmlns="http://www.w3.org/2000/svg" xmlns:xl="http://www.w3.org/1999/xlink" width="1026" height="461" version="1.1" viewBox="134 170 1026 461"><defs><marker id="FilledArrow_Marker" stroke-linejoin="miter" stroke-miterlimit="10" color="#000" markerHeight="6" markerUnits="strokeWidth" markerWidth="7" orient="auto" overflow="visible" viewBox="-1 -3 7 6"><g><path fill="currentColor" stroke="currentColor" stroke-width="1" d="M 4.8 0 L 0 -1.8 L 0 1.8 Z"/></g></marker></defs><g id="arch" fill="none" fill-opacity="1" stroke="none" stroke-dasharray="none" stroke-opacity="1"><title>basic</title><rect width="1026" height="461" x="134" y="170" fill="#fff"/><g id="arch_Layer_1"><title>Layer 1</title><g id="Graphic_42"><rect width="1025" height="461" x="134.25" y="170" fill="#fff"/></g><g id="Graphic_2"><rect width="500" height="40" x="643" y="235.5" fill="#333"/><text fill="#fff" transform="translate(648 245.76794)"><tspan x="239.52" y="16" fill="#fff" font-family="Helvetica Neue" font-size="16" font-weight="bold">A</tspan></text></g><g id="Graphic_3"><rect width="458" height="40" x="685" y="307.732" fill="#333"/><text fill="#fff" transform="translate(690 318)"><tspan x="218.368" y="16" fill="#fff" font-family="Helvetica Neue" font-size="16" font-weight="bold">B</tspan></text></g><g id="Graphic_4"><rect width="414.5" height="40" x="716" y="370.616" fill="#333"/><text fill="#fff" transform="translate(721 380.88397)"><tspan x="196.322" y="16" fill="#fff" font-family="Helvetica Neue" font-size="16" font-weight="bold">C</tspan></text></g><g id="Graphic_5"><rect width="202.5" height="40" x="928" y="433.5" fill="#333"/><text fill="#fff" transform="translate(933 443.76794)"><tspan x="90.322" y="16" fill="#fff" font-family="Helvetica Neue" font-size="16" font-weight="bold">D</tspan></text></g><g id="Graphic_6"><rect width="215" height="40" x="704.5" y="496.384" fill="#333"/><text fill="#fff" transform="translate(709.5 506.6519)"><tspan x="97.316" y="16" fill="#fff" font-family="Helvetica Neue" font-size="16" font-weight="bold">E</tspan></text></g><g id="Graphic_7"><rect width="7.5" height="20" x="629.855" y="246" fill="#fff"/></g><g id="Graphic_8"><rect width="7.5" height="20" x="629.855" y="502.5" fill="#fff"/></g><g id="Line_9"><path stroke="#000" stroke-linecap="round" stroke-linejoin="round" stroke-width="2" d="M 629.8546 255.81915 L 616.5 255.81915 L 616.5 512.5 L 629.8546 512.5"/></g><g id="Graphic_10"><text fill="#000" transform="translate(539.784 380.76794)"><tspan x="0" y="16" fill="#000" font-family="Helvetica Neue" font-size="16" font-weight="bold">TRACE</tspan></text></g><g id="Graphic_20"><rect width="7.5" height="20" x="643" y="550" fill="#fff"/></g><g id="Graphic_19"><rect width="7.5" height="20" x="1144" y="550" fill="#fff"/></g><g id="Line_18"><path stroke="#000" stroke-linecap="round" stroke-linejoin="round" stroke-width="2" d="M 646.75 570 L 646.75 586.1386 L 1144 586.1386 L 1144 570"/></g><g id="Graphic_17"><text fill="#000" transform="translate(866.464 597)"><tspan x="0" y="16" fill="#000" font-family="Helvetica Neue" font-size="16" font-weight="bold">SPANS</tspan></text></g><g id="Graphic_21"><text fill="#000" transform="translate(1082 183.53589)"><tspan x="0" y="16" fill="#000" font-family="Helvetica Neue" font-size="16" font-style="italic" font-weight="bold">time</tspan></text></g><g id="Graphic_22"><rect width="7.5" height="20" x="1135.5" y="199" fill="#fff"/></g><g id="Graphic_23"><rect width="7.5" height="20" x="629.855" y="199" fill="#fff"/></g><g id="Line_24"><line x1="637.355" x2="1122.6" y1="209" y2="209" stroke="#000" stroke-dasharray="8 8" stroke-linecap="round" stroke-linejoin="round" stroke-width="2" marker-end="url(#FilledArrow_Marker)"/></g><g id="Graphic_25"><circle cx="411.506" cy="285.5" r="22.5" fill="#fff"/><circle cx="411.506" cy="285.5" r="22.5" stroke="gray" stroke-linecap="round" stroke-linejoin="round" stroke-width="1"/><text fill="#000" transform="translate(398.506 275.76794)"><tspan x="7.52" y="16" fill="#000" font-family="Helvetica Neue" font-size="16" font-weight="bold">A</tspan></text></g><g id="Graphic_26"><circle cx="335.81" cy="397.5" r="22.5" fill="#fff"/><circle cx="335.81" cy="397.5" r="22.5" stroke="gray" stroke-linecap="round" stroke-linejoin="round" stroke-width="1"/><text fill="#000" transform="translate(322.81 387.76794)"><tspan x="7.368" y="16" fill="#000" font-family="Helvetica Neue" font-size="16" font-weight="bold">B</tspan></text></g><g id="Graphic_27"><circle cx="194.864" cy="588.5" r="22.5" fill="#fff"/><circle cx="194.864" cy="588.5" r="22.5" stroke="gray" stroke-linecap="round" stroke-linejoin="round" stroke-width="1"/><text fill="#000" transform="translate(181.864 578.76794)"><tspan x="7.072" y="16" fill="#000" font-family="Helvetica Neue" font-size="16" font-weight="bold">D</tspan></text></g><g id="Graphic_28"><circle cx="260.114" cy="502" r="22.5" fill="#fff"/><circle cx="260.114" cy="502" r="22.5" stroke="gray" stroke-linecap="round" stroke-linejoin="round" stroke-width="1"/><text fill="#000" transform="translate(247.114 492.26794)"><tspan x="7.072" y="16" fill="#000" font-family="Helvetica Neue" font-size="16" font-weight="bold">C</tspan></text></g><g id="Graphic_29"><circle cx="411.506" cy="502" r="22.5" fill="#fff"/><circle cx="411.506" cy="502" r="22.5" stroke="gray" stroke-linecap="round" stroke-linejoin="round" stroke-width="1"/><text fill="#000" transform="translate(398.506 492.26794)"><tspan x="7.816" y="16" fill="#000" font-family="Helvetica Neue" font-size="16" font-weight="bold">E</tspan></text></g><g id="Line_30"><line x1="398.905" x2="355.635" y1="304.145" y2="368.167" stroke="#000" stroke-linecap="round" stroke-linejoin="round" stroke-width="2" marker-end="url(#FilledArrow_Marker)"/></g><g id="Line_31"><line x1="322.609" x2="280.883" y1="415.724" y2="473.328" stroke="#000" stroke-linecap="round" stroke-linejoin="round" stroke-width="2" marker-end="url(#FilledArrow_Marker)"/></g><g id="Line_32"><line x1="349.011" x2="390.737" y1="415.724" y2="473.328" stroke="#000" stroke-linecap="round" stroke-linejoin="round" stroke-width="2" marker-end="url(#FilledArrow_Marker)"/></g><g id="Line_33"><line x1="246.563" x2="216.184" y1="519.965" y2="560.237" stroke="#000" stroke-linecap="round" stroke-linejoin="round" stroke-width="2" marker-end="url(#FilledArrow_Marker)"/></g><g id="Line_34"><line x1="411.506" x2="411.506" y1="225.5" y2="250.1" stroke="#000" stroke-linecap="round" stroke-linejoin="round" stroke-width="2" marker-end="url(#FilledArrow_Marker)"/></g><g id="Graphic_35"><rect width="7.5" height="20" x="407.756" y="205.5" fill="#fff"/></g><g id="Graphic_36"><text fill="#000" transform="translate(382.178 194)"><tspan x="0" y="16" fill="#000" font-family="Helvetica Neue" font-size="16" font-weight="bold">TraceID</tspan></text></g><g id="Graphic_37"><text fill="#000" transform="translate(311.946 318)"><tspan x="0" y="16" fill="#000" font-family="Helvetica Neue" font-size="16" font-weight="bold">Span2</tspan></text></g><g id="Graphic_38"><text fill="#000" transform="translate(171 532)"><tspan x="0" y="16" fill="#000" font-family="Helvetica Neue" font-size="16" font-weight="bold">Span4</tspan></text></g><g id="Graphic_39"><text fill="#000" transform="translate(236.25 428)"><tspan x="0" y="16" fill="#000" font-family="Helvetica Neue" font-size="16" font-weight="bold">Span3</tspan></text></g><g id="Graphic_40"><text fill="#000" transform="translate(387.642 432)"><tspan x="0" y="16" fill="#000" font-family="Helvetica Neue" font-size="16" font-weight="bold">Span5</tspan></text></g><g id="Graphic_41"><text fill="#000" transform="translate(423.114 231)"><tspan x="0" y="16" fill="#000" font-family="Helvetica Neue" font-size="16" font-weight="bold">Span1</tspan></text></g></g></g></svg>