<svg xmlns="http://www.w3.org/2000/svg" xmlns:xl="http://www.w3.org/1999/xlink" width="445" height="649" version="1.1" viewBox="423 28 445 649"><defs><marker id="FilledArrow_Marker" stroke-linejoin="miter" stroke-miterlimit="10" color="#000" markerHeight="8" markerUnits="strokeWidth" markerWidth="10" orient="auto" overflow="visible" viewBox="-1 -4 10 8"><g><path fill="currentColor" stroke="currentColor" stroke-width="1" d="M 8 0 L 0 -3 L 0 3 Z"/></g></marker></defs><g id="Canvas_6" fill="none" fill-opacity="1" stroke="none" stroke-dasharray="none" stroke-opacity="1"><title>Canvas 6</title><rect width="445" height="649" x="423" y="28" fill="#fff"/><g id="Canvas_6_Layer_1"><title>Layer 1</title><g id="Graphic_48"><rect width="444.5" height="648.2" x="423" y="28" fill="#fff"/></g><g id="Graphic_47"><rect width="140" height="130" x="575.25" y="180.099" fill="#fff"/><rect width="140" height="130" x="575.25" y="180.099" stroke="gray" stroke-linecap="round" stroke-linejoin="round" stroke-width="1"/></g><g id="Graphic_46"><rect width="140" height="40" x="575.25" y="108.362" fill="#0a55a8"/><text fill="#fff" transform="translate(580.25 118.6303)"><tspan x="1.304" y="16" fill="#fff" font-family="Helvetica Neue" font-size="16" font-weight="bold">Ingress Gateway</tspan></text></g><g id="Graphic_45"><rect width="120" height="30" x="585.25" y="270.804" fill="#333"/><text fill="#fff" transform="translate(590.25 276.07223)"><tspan x="5.808" y="16" fill="#fff" font-family="Helvetica Neue" font-size="16" font-weight="bold">Productpage</tspan></text></g><g id="Graphic_44"><rect width="120" height="30" x="585.25" y="209.804" fill="#0a55a8"/><text fill="#fff" transform="translate(590.25 215.07223)"><tspan x="31.872" y="16" fill="#fff" font-family="Helvetica Neue" font-size="16" font-weight="bold">Envoy</tspan></text></g><g id="Line_43"><line x1="645.25" x2="645.25" y1="76.625" y2="98.462" stroke="#000" stroke-linecap="round" stroke-linejoin="round" stroke-width="1" marker-end="url(#FilledArrow_Marker)"/></g><g id="Line_42"><line x1="645.25" x2="645.25" y1="270.804" y2="249.704" stroke="#000" stroke-linecap="round" stroke-linejoin="round" stroke-width="1" marker-end="url(#FilledArrow_Marker)"/></g><g id="Graphic_41"><rect width="140" height="130" x="446.545" y="358.5" fill="#fff"/><rect width="140" height="130" x="446.545" y="358.5" stroke="gray" stroke-linecap="round" stroke-linejoin="round" stroke-width="1"/></g><g id="Graphic_40"><rect width="120" height="30" x="455.875" y="449.545" fill="#333"/><text fill="#fff" transform="translate(460.875 454.81255)"><tspan x="23.008" y="16" fill="#fff" font-family="Helvetica Neue" font-size="16" font-weight="bold">Reviews</tspan></text></g><g id="Graphic_39"><rect width="120" height="30" x="455.875" y="390.861" fill="#0a55a8"/><text fill="#fff" transform="translate(460.875 396.12886)"><tspan x="31.872" y="16" fill="#fff" font-family="Helvetica Neue" font-size="16" font-weight="bold">Envoy</tspan></text></g><g id="Graphic_38"><rect width="140" height="130" x="702.509" y="358.5" fill="#fff"/><rect width="140" height="130" x="702.509" y="358.5" stroke="gray" stroke-linecap="round" stroke-linejoin="round" stroke-width="1"/></g><g id="Graphic_37"><rect width="120" height="30" x="712.602" y="449.545" fill="#333"/><text fill="#fff" transform="translate(717.6025 454.81255)"><tspan x="28.648" y="16" fill="#fff" font-family="Helvetica Neue" font-size="16" font-weight="bold">Details</tspan></text></g><g id="Graphic_36"><rect width="120" height="30" x="712.415" y="390.861" fill="#0a55a8"/><text fill="#fff" transform="translate(717.415 396.12886)"><tspan x="31.872" y="16" fill="#fff" font-family="Helvetica Neue" font-size="16" font-weight="bold">Envoy</tspan></text></g><g id="Line_35"><path stroke="#000" stroke-linecap="round" stroke-linejoin="round" stroke-width="1" marker-end="url(#FilledArrow_Marker)" d="M 772.415 420.8609 L 772.415 430.8609 L 772.5087 435.20276 L 772.6025 435.20276 L 772.6025 439.6446"/></g><g id="Graphic_34"><rect width="140" height="130" x="446.545" y="525.5" fill="#fff"/><rect width="140" height="130" x="446.545" y="525.5" stroke="gray" stroke-linecap="round" stroke-linejoin="round" stroke-width="1"/></g><g id="Graphic_33"><rect width="120" height="30" x="456.545" y="613.889" fill="#333"/><text fill="#fff" transform="translate(461.545 619.1566)"><tspan x="25.824" y="16" fill="#fff" font-family="Helvetica Neue" font-size="16" font-weight="bold">Ratings</tspan></text></g><g id="Graphic_32"><rect width="120" height="30" x="456.545" y="558.189" fill="#0a55a8"/><text fill="#fff" transform="translate(461.545 563.4566)"><tspan x="31.872" y="16" fill="#fff" font-family="Helvetica Neue" font-size="16" font-weight="bold">Envoy</tspan></text></g><g id="Line_31"><line x1="516.545" x2="516.545" y1="588.189" y2="603.989" stroke="#000" stroke-linecap="round" stroke-linejoin="round" stroke-width="1" marker-end="url(#FilledArrow_Marker)"/></g><g id="Line_30"><path stroke="#000" stroke-linecap="round" stroke-linejoin="round" stroke-width="1" marker-end="url(#FilledArrow_Marker)" d="M 645.25 310.0994 L 645.25 334.2997 L 516.545 334.2997 L 516.545 348.6"/></g><g id="Line_29"><path stroke="#000" stroke-linecap="round" stroke-linejoin="round" stroke-width="1" marker-end="url(#FilledArrow_Marker)" d="M 645.25 310.0994 L 645.25 334.2997 L 772.5087 334.2997 L 772.5087 348.6"/></g><g id="Line_28"><line x1="516.545" x2="516.545" y1="488.5" y2="515.6" stroke="#000" stroke-linecap="round" stroke-linejoin="round" stroke-width="1" marker-end="url(#FilledArrow_Marker)"/></g><g id="Line_27"><line x1="645.25" x2="645.25" y1="148.362" y2="170.199" stroke="#000" stroke-linecap="round" stroke-linejoin="round" stroke-width="1" marker-end="url(#FilledArrow_Marker)"/></g><g id="Graphic_26"><path fill="#000" d="M 654.3917 68.22263 L 649.5438 65.87729 C 649.0865 65.655816 648.80235 65.21091 648.80235 64.71591 L 648.80235 63.05561 C 648.91856 62.91811 649.0409 62.76146 649.1672 62.5886 C 649.796 61.72923 650.2999 60.77263 650.6663 59.740895 C 651.3824 59.423174 651.8472 58.738134 651.8472 57.9647 L 651.8472 56.000427 C 651.8472 55.52753 651.6645 55.06936 651.33974 54.71137 L 651.33974 52.09938 C 651.36816 51.82929 651.4798 50.22153 650.2781 48.895156 C 649.2357 47.74458 647.5443 47.161193 645.25 47.161193 C 642.9557 47.161193 641.2643 47.74458 640.2219 48.894665 C 639.0202 50.22104 639.13184 51.82929 639.16026 52.09938 L 639.16026 54.71137 C 638.8355 55.06936 638.6528 55.52753 638.6528 56.000427 L 638.6528 57.9647 C 638.6528 58.56233 638.9334 59.119694 639.4125 59.49143 C 639.8773 61.27254 640.8502 62.61463 641.1902 63.045296 L 641.1902 64.67024 C 641.1902 65.145596 640.9222 65.581664 640.4914 65.80952 L 635.9642 68.19906 C 634.492 68.97642 633.578 70.46632 633.578 72.08881 L 633.578 73.67889 C 633.578 76.009505 641.213 76.6253 645.25 76.6253 C 649.287 76.6253 656.922 76.009505 656.922 73.67889 L 656.922 72.18457 C 656.922 70.49628 655.9522 68.977894 654.3917 68.22263 Z"/></g><g id="Line_25"><line x1="484.085" x2="484.085" y1="420.861" y2="439.645" stroke="#000" stroke-linecap="round" stroke-linejoin="round" stroke-width="1" marker-end="url(#FilledArrow_Marker)"/></g><g id="Line_24"><line x1="556.261" x2="556.261" y1="449.545" y2="430.761" stroke="#000" stroke-linecap="round" stroke-linejoin="round" stroke-width="1" marker-end="url(#FilledArrow_Marker)"/></g><g id="Line_23"><path stroke="#000" stroke-linecap="round" stroke-linejoin="round" stroke-width="1" marker-end="url(#FilledArrow_Marker)" d="M 516.545 356.04432 L 516.545 366.04432 L 516.21 373.4526 L 515.875 380.9526 L 515.875 380.9609"/></g><g id="Line_22"><line x1="516.545" x2="516.545" y1="519.866" y2="548.289" stroke="#000" stroke-linecap="round" stroke-linejoin="round" stroke-width="1" marker-end="url(#FilledArrow_Marker)"/></g><g id="Line_21"><path stroke="#000" stroke-linecap="round" stroke-linejoin="round" stroke-width="1" marker-end="url(#FilledArrow_Marker)" d="M 772.5087 352.5447 L 772.5087 362.5447 L 772.46185 371.7028 L 772.415 379.2028 L 772.415 380.9609"/></g><g id="Graphic_20"><rect width="38.512" height="11" x="625.994" y="85.415" fill="#fff"/><text fill="#000" transform="translate(630.994 85.41478)"><tspan x="0" y="8" fill="#000" font-family="Helvetica Neue" font-size="8" font-weight="bold">1</tspan> <tspan y="8" fill="#000" font-family="PingFang SC" font-size="8" font-weight="bold"> (0ms)</tspan></text></g><g id="Graphic_19"><rect width="37.4" height="10.232" x="626.55" y="253.338" fill="#fff"/><text fill="#000" transform="translate(631.55 253.3378)"><tspan x="0" y="8" fill="#000" font-family="Helvetica Neue" font-size="8" font-weight="bold">5 (1ms)</tspan></text></g><g id="Graphic_18"><rect width="37.4" height="10.232" x="753.741" y="426.939" fill="#fff"/><text fill="#000" transform="translate(758.74075 426.9389)"><tspan x="0" y="8" fill="#000" font-family="Helvetica Neue" font-size="8" font-weight="bold">8 (4ms)</tspan></text></g><g id="Graphic_17"><rect width="46.296" height="10.232" x="493.397" y="590.878" fill="#fff"/><text fill="#000" transform="translate(498.397 590.8775)"><tspan x="0" y="8" fill="#000" font-family="Helvetica Neue" font-size="8" font-weight="bold">16 (16ms)</tspan></text></g><g id="Graphic_16"><rect width="37.4" height="10.232" x="626.55" y="156.113" fill="#fff"/><text fill="#000" transform="translate(631.55 156.1125)"><tspan x="0" y="8" fill="#000" font-family="Helvetica Neue" font-size="8" font-weight="bold">2 (1ms)</tspan></text></g><g id="Graphic_15"><rect width="42.296" height="10.232" x="566.777" y="329.184" fill="#fff"/><text fill="#000" transform="translate(569.7774 329.18368)"><tspan x="0" y="8" fill="#000" font-family="Helvetica Neue" font-size="8" font-weight="bold">10 (14ms)</tspan></text></g><g id="Graphic_14"><rect width="37.4" height="10.232" x="753.766" y="365.79" fill="#fff"/><text fill="#000" transform="translate(758.7659 365.78995)"><tspan x="0" y="8" fill="#000" font-family="Helvetica Neue" font-size="8" font-weight="bold">7 (0ms)</tspan></text></g><g id="Graphic_13"><rect width="46.296" height="10.232" x="493.397" y="497.859" fill="#fff"/><text fill="#000" transform="translate(498.397 497.85857)"><tspan x="0" y="8" fill="#000" font-family="Helvetica Neue" font-size="8" font-weight="bold">14 (16ms)</tspan></text></g><g id="Graphic_12"><rect width="50.744" height="10.232" x="458.713" y="427.926" fill="#fff"/><text fill="#000" transform="translate(463.71295 427.9262)"><tspan x="0" y="8" fill="#000" font-family="Helvetica Neue" font-size="8" font-weight="bold">12 (109ms)</tspan></text></g><g id="Graphic_11"><rect width="41.848" height="10.232" x="535.337" y="435.753" fill="#fff"/><text fill="#000" transform="translate(540.33655 435.7531)"><tspan x="0" y="8" fill="#000" font-family="Helvetica Neue" font-size="8" font-weight="bold">13 (2ms)</tspan></text></g><g id="Graphic_10"><rect width="41.848" height="10.232" x="495.371" y="366.449" fill="#fff"/><text fill="#000" transform="translate(500.37137 366.44876)"><tspan x="0" y="8" fill="#000" font-family="Helvetica Neue" font-size="8" font-weight="bold">11 (1ms)</tspan></text></g><g id="Graphic_9"><rect width="41.848" height="10.232" x="495.621" y="532.536" fill="#fff"/><text fill="#000" transform="translate(500.621 532.5357)"><tspan x="0" y="8" fill="#000" font-family="Helvetica Neue" font-size="8" font-weight="bold">15 (1ms)</tspan></text></g><g id="Graphic_8"><rect width="33.4" height="10.232" x="696.226" y="329.184" fill="#fff"/><text fill="#000" transform="translate(699.2264 329.18368)"><tspan x="0" y="8" fill="#000" font-family="Helvetica Neue" font-size="8" font-weight="bold">6 (3ms)</tspan></text></g><g id="Line_7"><line x1="645.25" x2="645.25" y1="175.954" y2="199.904" stroke="#000" stroke-linecap="round" stroke-linejoin="round" stroke-width="1" marker-end="url(#FilledArrow_Marker)"/></g><g id="Graphic_6"><rect width="37.4" height="10.232" x="626.55" y="185.451" fill="#fff"/><text fill="#000" transform="translate(631.55 185.45076)"><tspan x="0" y="8" fill="#000" font-family="Helvetica Neue" font-size="8" font-weight="bold">3 (1ms)</tspan></text></g><g id="Line_5"><line x1="606.153" x2="606.153" y1="239.804" y2="260.904" stroke="#000" stroke-linecap="round" stroke-linejoin="round" stroke-width="1" marker-end="url(#FilledArrow_Marker)"/></g><g id="Graphic_4"><rect width="41.848" height="10.232" x="585.229" y="245.488" fill="#fff"/><text fill="#000" transform="translate(590.2293 245.48753)"><tspan x="0" y="8" fill="#000" font-family="Helvetica Neue" font-size="8" font-weight="bold">4 (21ms)</tspan></text></g><g id="Line_3"><line x1="688.75" x2="688.75" y1="270.804" y2="249.704" stroke="#000" stroke-linecap="round" stroke-linejoin="round" stroke-width="1" marker-end="url(#FilledArrow_Marker)"/></g><g id="Graphic_2"><rect width="37.4" height="10.232" x="670.05" y="254.421" fill="#fff"/><text fill="#000" transform="translate(675.05 254.42142)"><tspan x="0" y="8" fill="#000" font-family="Helvetica Neue" font-size="8" font-weight="bold">9 (0ms)</tspan></text></g></g></g></svg>