<?xml version="1.0" encoding="UTF-8" standalone="no"?>
<!DOCTYPE svg PUBLIC "-//W3C//DTD SVG 1.1//EN" "http://www.w3.org/Graphics/SVG/1.1/DTD/svg11.dtd">
<svg xmlns:dc="http://purl.org/dc/elements/1.1/" version="1.1" xmlns:xl="http://www.w3.org/1999/xlink" xmlns="http://www.w3.org/2000/svg" viewBox="423 28 445 649" width="445" height="649">
  <defs>
    <marker orient="auto" overflow="visible" markerUnits="strokeWidth" id="FilledArrow_Marker" stroke-linejoin="miter" stroke-miterlimit="10" viewBox="-1 -4 10 8" markerWidth="10" markerHeight="8" color="black">
      <g>
        <path d="M 8 0 L 0 -3 L 0 3 Z" fill="currentColor" stroke="currentColor" stroke-width="1"/>
      </g>
    </marker>
  </defs>
  <g id="Canvas_6" fill-opacity="1" fill="none" stroke="none" stroke-opacity="1" stroke-dasharray="none">
    <title>Canvas 6</title>
    <rect fill="white" x="423" y="28" width="445" height="649"/>
    <g id="Canvas_6_Layer_1">
      <title>Layer 1</title>
      <g id="Graphic_48">
        <rect x="423" y="28" width="444.5" height="648.2003" fill="white"/>
      </g>
      <g id="Graphic_47">
        <rect x="575.25" y="180.09941" width="140" height="130" fill="white"/>
        <rect x="575.25" y="180.09941" width="140" height="130" stroke="gray" stroke-linecap="round" stroke-linejoin="round" stroke-width="1"/>
      </g>
      <g id="Graphic_46">
        <rect x="575.25" y="108.36236" width="140" height="40" fill="#0a55a8"/>
        <text transform="translate(580.25 118.6303)" fill="white">
          <tspan font-family="Helvetica Neue" font-weight="bold" font-size="16" fill="white" x="1.304" y="16">Ingress Gateway</tspan>
        </text>
      </g>
      <g id="Graphic_45">
        <rect x="585.25" y="270.8043" width="120" height="30" fill="#333"/>
        <text transform="translate(590.25 276.07223)" fill="white">
          <tspan font-family="Helvetica Neue" font-weight="bold" font-size="16" fill="white" x="5.808" y="16">Productpage</tspan>
        </text>
      </g>
      <g id="Graphic_44">
        <rect x="585.25" y="209.8043" width="120" height="30" fill="#0a55a8"/>
        <text transform="translate(590.25 215.07223)" fill="white">
          <tspan font-family="Helvetica Neue" font-weight="bold" font-size="16" fill="white" x="31.872" y="16">Envoy</tspan>
        </text>
      </g>
      <g id="Line_43">
        <line x1="645.25" y1="76.6253" x2="645.25" y2="98.46236" marker-end="url(#FilledArrow_Marker)" stroke="black" stroke-linecap="round" stroke-linejoin="round" stroke-width="1"/>
      </g>
      <g id="Line_42">
        <line x1="645.25" y1="270.8043" x2="645.25" y2="249.7043" marker-end="url(#FilledArrow_Marker)" stroke="black" stroke-linecap="round" stroke-linejoin="round" stroke-width="1"/>
      </g>
      <g id="Graphic_41">
        <rect x="446.545" y="358.5" width="140" height="130" fill="white"/>
        <rect x="446.545" y="358.5" width="140" height="130" stroke="gray" stroke-linecap="round" stroke-linejoin="round" stroke-width="1"/>
      </g>
      <g id="Graphic_40">
        <rect x="455.875" y="449.5446" width="120" height="30" fill="#333"/>
        <text transform="translate(460.875 454.81255)" fill="white">
          <tspan font-family="Helvetica Neue" font-weight="bold" font-size="16" fill="white" x="23.008" y="16">Reviews</tspan>
        </text>
      </g>
      <g id="Graphic_39">
        <rect x="455.875" y="390.8609" width="120" height="30" fill="#0a55a8"/>
        <text transform="translate(460.875 396.12886)" fill="white">
          <tspan font-family="Helvetica Neue" font-weight="bold" font-size="16" fill="white" x="31.872" y="16">Envoy</tspan>
        </text>
      </g>
      <g id="Graphic_38">
        <rect x="702.5087" y="358.5" width="140" height="130" fill="white"/>
        <rect x="702.5087" y="358.5" width="140" height="130" stroke="gray" stroke-linecap="round" stroke-linejoin="round" stroke-width="1"/>
      </g>
      <g id="Graphic_37">
        <rect x="712.6025" y="449.5446" width="120" height="30" fill="#333"/>
        <text transform="translate(717.6025 454.81255)" fill="white">
          <tspan font-family="Helvetica Neue" font-weight="bold" font-size="16" fill="white" x="28.648" y="16">Details</tspan>
        </text>
      </g>
      <g id="Graphic_36">
        <rect x="712.415" y="390.8609" width="120" height="30" fill="#0a55a8"/>
        <text transform="translate(717.415 396.12886)" fill="white">
          <tspan font-family="Helvetica Neue" font-weight="bold" font-size="16" fill="white" x="31.872" y="16">Envoy</tspan>
        </text>
      </g>
      <g id="Line_35">
        <path d="M 772.415 420.8609 L 772.415 430.8609 L 772.5087 435.20276 L 772.6025 435.20276 L 772.6025 439.6446" marker-end="url(#FilledArrow_Marker)" stroke="black" stroke-linecap="round" stroke-linejoin="round" stroke-width="1"/>
      </g>
      <g id="Graphic_34">
        <rect x="446.545" y="525.5003" width="140" height="130" fill="white"/>
        <rect x="446.545" y="525.5003" width="140" height="130" stroke="gray" stroke-linecap="round" stroke-linejoin="round" stroke-width="1"/>
      </g>
      <g id="Graphic_33">
        <rect x="456.545" y="613.88865" width="120" height="30" fill="#333"/>
        <text transform="translate(461.545 619.1566)" fill="white">
          <tspan font-family="Helvetica Neue" font-weight="bold" font-size="16" fill="white" x="25.824" y="16">Ratings</tspan>
        </text>
      </g>
      <g id="Graphic_32">
        <rect x="456.545" y="558.18864" width="120" height="30" fill="#0a55a8"/>
        <text transform="translate(461.545 563.4566)" fill="white">
          <tspan font-family="Helvetica Neue" font-weight="bold" font-size="16" fill="white" x="31.872" y="16">Envoy</tspan>
        </text>
      </g>
      <g id="Line_31">
        <line x1="516.545" y1="588.18864" x2="516.545" y2="603.98865" marker-end="url(#FilledArrow_Marker)" stroke="black" stroke-linecap="round" stroke-linejoin="round" stroke-width="1"/>
      </g>
      <g id="Line_30">
        <path d="M 645.25 310.0994 L 645.25 334.2997 L 516.545 334.2997 L 516.545 348.6" marker-end="url(#FilledArrow_Marker)" stroke="black" stroke-linecap="round" stroke-linejoin="round" stroke-width="1"/>
      </g>
      <g id="Line_29">
        <path d="M 645.25 310.0994 L 645.25 334.2997 L 772.5087 334.2997 L 772.5087 348.6" marker-end="url(#FilledArrow_Marker)" stroke="black" stroke-linecap="round" stroke-linejoin="round" stroke-width="1"/>
      </g>
      <g id="Line_28">
        <line x1="516.545" y1="488.5" x2="516.545" y2="515.6003" marker-end="url(#FilledArrow_Marker)" stroke="black" stroke-linecap="round" stroke-linejoin="round" stroke-width="1"/>
      </g>
      <g id="Line_27">
        <line x1="645.25" y1="148.36236" x2="645.25" y2="170.19941" marker-end="url(#FilledArrow_Marker)" stroke="black" stroke-linecap="round" stroke-linejoin="round" stroke-width="1"/>
      </g>
      <g id="Graphic_26">
        <path d="M 654.3917 68.22263 L 649.5438 65.87729 C 649.0865 65.655816 648.80235 65.21091 648.80235 64.71591 L 648.80235 63.05561 C 648.91856 62.91811 649.0409 62.76146 649.1672 62.5886 C 649.796 61.72923 650.2999 60.77263 650.6663 59.740895 C 651.3824 59.423174 651.8472 58.738134 651.8472 57.9647 L 651.8472 56.000427 C 651.8472 55.52753 651.6645 55.06936 651.33974 54.71137 L 651.33974 52.09938 C 651.36816 51.82929 651.4798 50.22153 650.2781 48.895156 C 649.2357 47.74458 647.5443 47.161193 645.25 47.161193 C 642.9557 47.161193 641.2643 47.74458 640.2219 48.894665 C 639.0202 50.22104 639.13184 51.82929 639.16026 52.09938 L 639.16026 54.71137 C 638.8355 55.06936 638.6528 55.52753 638.6528 56.000427 L 638.6528 57.9647 C 638.6528 58.56233 638.9334 59.119694 639.4125 59.49143 C 639.8773 61.27254 640.8502 62.61463 641.1902 63.045296 L 641.1902 64.67024 C 641.1902 65.145596 640.9222 65.581664 640.4914 65.80952 L 635.9642 68.19906 C 634.492 68.97642 633.578 70.46632 633.578 72.08881 L 633.578 73.67889 C 633.578 76.009505 641.213 76.6253 645.25 76.6253 C 649.287 76.6253 656.922 76.009505 656.922 73.67889 L 656.922 72.18457 C 656.922 70.49628 655.9522 68.977894 654.3917 68.22263 Z" fill="black"/>
      </g>
      <g id="Line_25">
        <line x1="484.08495" y1="420.8609" x2="484.08495" y2="439.6446" marker-end="url(#FilledArrow_Marker)" stroke="black" stroke-linecap="round" stroke-linejoin="round" stroke-width="1"/>
      </g>
      <g id="Line_24">
        <line x1="556.26055" y1="449.5446" x2="556.26055" y2="430.7609" marker-end="url(#FilledArrow_Marker)" stroke="black" stroke-linecap="round" stroke-linejoin="round" stroke-width="1"/>
      </g>
      <g id="Line_23">
        <path d="M 516.545 356.04432 L 516.545 366.04432 L 516.21 373.4526 L 515.875 380.9526 L 515.875 380.9609" marker-end="url(#FilledArrow_Marker)" stroke="black" stroke-linecap="round" stroke-linejoin="round" stroke-width="1"/>
      </g>
      <g id="Line_22">
        <line x1="516.545" y1="519.8656" x2="516.545" y2="548.28864" marker-end="url(#FilledArrow_Marker)" stroke="black" stroke-linecap="round" stroke-linejoin="round" stroke-width="1"/>
      </g>
      <g id="Line_21">
        <path d="M 772.5087 352.5447 L 772.5087 362.5447 L 772.46185 371.7028 L 772.415 379.2028 L 772.415 380.9609" marker-end="url(#FilledArrow_Marker)" stroke="black" stroke-linecap="round" stroke-linejoin="round" stroke-width="1"/>
      </g>
      <g id="Graphic_20">
        <rect x="625.994" y="85.41478" width="38.512" height="11" fill="white"/>
        <text transform="translate(630.994 85.41478)" fill="black">
          <tspan font-family="Helvetica Neue" font-weight="bold" font-size="8" fill="black" x="0" y="8">1</tspan>
          <tspan font-family="PingFang SC" font-weight="bold" font-size="8" fill="black" y="8"> (0ms)</tspan>
        </text>
      </g>
      <g id="Graphic_19">
        <rect x="626.55" y="253.3378" width="37.4" height="10.232056" fill="white"/>
        <text transform="translate(631.55 253.3378)" fill="black">
          <tspan font-family="Helvetica Neue" font-weight="bold" font-size="8" fill="black" x="7283063e-19" y="8">5 (1ms)</tspan>
        </text>
      </g>
      <g id="Graphic_18">
        <rect x="753.74075" y="426.9389" width="37.4" height="10.232056" fill="white"/>
        <text transform="translate(758.74075 426.9389)" fill="black">
          <tspan font-family="Helvetica Neue" font-weight="bold" font-size="8" fill="black" x="7283063e-19" y="8">8 (4ms)</tspan>
        </text>
      </g>
      <g id="Graphic_17">
        <rect x="493.397" y="590.8775" width="46.296" height="10.232056" fill="white"/>
        <text transform="translate(498.397 590.8775)" fill="black">
          <tspan font-family="Helvetica Neue" font-weight="bold" font-size="8" fill="black" x="0" y="8">16 (16ms)</tspan>
        </text>
      </g>
      <g id="Graphic_16">
        <rect x="626.55" y="156.1125" width="37.4" height="10.232056" fill="white"/>
        <text transform="translate(631.55 156.1125)" fill="black">
          <tspan font-family="Helvetica Neue" font-weight="bold" font-size="8" fill="black" x="7283063e-19" y="8">2 (1ms)</tspan>
        </text>
      </g>
      <g id="Graphic_15">
        <rect x="566.7774" y="329.18368" width="42.296" height="10.232056" fill="white"/>
        <text transform="translate(569.7774 329.18368)" fill="black">
          <tspan font-family="Helvetica Neue" font-weight="bold" font-size="8" fill="black" x="0" y="8">10 (14ms)</tspan>
        </text>
      </g>
      <g id="Graphic_14">
        <rect x="753.7659" y="365.78995" width="37.4" height="10.232056" fill="white"/>
        <text transform="translate(758.7659 365.78995)" fill="black">
          <tspan font-family="Helvetica Neue" font-weight="bold" font-size="8" fill="black" x="7283063e-19" y="8">7 (0ms)</tspan>
        </text>
      </g>
      <g id="Graphic_13">
        <rect x="493.397" y="497.85857" width="46.296" height="10.232056" fill="white"/>
        <text transform="translate(498.397 497.85857)" fill="black">
          <tspan font-family="Helvetica Neue" font-weight="bold" font-size="8" fill="black" x="0" y="8">14 (16ms)</tspan>
        </text>
      </g>
      <g id="Graphic_12">
        <rect x="458.71295" y="427.9262" width="50.744" height="10.232056" fill="white"/>
        <text transform="translate(463.71295 427.9262)" fill="black">
          <tspan font-family="Helvetica Neue" font-weight="bold" font-size="8" fill="black" x="0" y="8">12 (109ms)</tspan>
        </text>
      </g>
      <g id="Graphic_11">
        <rect x="535.33655" y="435.7531" width="41.848" height="10.232056" fill="white"/>
        <text transform="translate(540.33655 435.7531)" fill="black">
          <tspan font-family="Helvetica Neue" font-weight="bold" font-size="8" fill="black" x="8864021e-19" y="8">13 (2ms)</tspan>
        </text>
      </g>
      <g id="Graphic_10">
        <rect x="495.37137" y="366.44876" width="41.848" height="10.232056" fill="white"/>
        <text transform="translate(500.37137 366.44876)" fill="black">
          <tspan font-family="Helvetica Neue" font-weight="bold" font-size="8" fill="black" x="8864021e-19" y="8">11 (1ms)</tspan>
        </text>
      </g>
      <g id="Graphic_9">
        <rect x="495.621" y="532.5357" width="41.848" height="10.232056" fill="white"/>
        <text transform="translate(500.621 532.5357)" fill="black">
          <tspan font-family="Helvetica Neue" font-weight="bold" font-size="8" fill="black" x="8864021e-19" y="8">15 (1ms)</tspan>
        </text>
      </g>
      <g id="Graphic_8">
        <rect x="696.2264" y="329.18368" width="33.4" height="10.232056" fill="white"/>
        <text transform="translate(699.2264 329.18368)" fill="black">
          <tspan font-family="Helvetica Neue" font-weight="bold" font-size="8" fill="black" x="7283063e-19" y="8">6 (3ms)</tspan>
        </text>
      </g>
      <g id="Line_7">
        <line x1="645.25" y1="175.95415" x2="645.25" y2="199.9043" marker-end="url(#FilledArrow_Marker)" stroke="black" stroke-linecap="round" stroke-linejoin="round" stroke-width="1"/>
      </g>
      <g id="Graphic_6">
        <rect x="626.55" y="185.45076" width="37.4" height="10.232056" fill="white"/>
        <text transform="translate(631.55 185.45076)" fill="black">
          <tspan font-family="Helvetica Neue" font-weight="bold" font-size="8" fill="black" x="7283063e-19" y="8">3 (1ms)</tspan>
        </text>
      </g>
      <g id="Line_5">
        <line x1="606.1533" y1="239.8043" x2="606.1533" y2="260.9043" marker-end="url(#FilledArrow_Marker)" stroke="black" stroke-linecap="round" stroke-linejoin="round" stroke-width="1"/>
      </g>
      <g id="Graphic_4">
        <rect x="585.2293" y="245.48753" width="41.848" height="10.232056" fill="white"/>
        <text transform="translate(590.2293 245.48753)" fill="black">
          <tspan font-family="Helvetica Neue" font-weight="bold" font-size="8" fill="black" x="8864021e-19" y="8">4 (21ms)</tspan>
        </text>
      </g>
      <g id="Line_3">
        <line x1="688.75" y1="270.8043" x2="688.75" y2="249.7043" marker-end="url(#FilledArrow_Marker)" stroke="black" stroke-linecap="round" stroke-linejoin="round" stroke-width="1"/>
      </g>
      <g id="Graphic_2">
        <rect x="670.05" y="254.42142" width="37.4" height="10.232056" fill="white"/>
        <text transform="translate(675.05 254.42142)" fill="black">
          <tspan font-family="Helvetica Neue" font-weight="bold" font-size="8" fill="black" x="7283063e-19" y="8">9 (0ms)</tspan>
        </text>
      </g>
    </g>
  </g>
</svg>
