<svg xmlns="http://www.w3.org/2000/svg" xmlns:xl="http://www.w3.org/1999/xlink" width="659" height="244" version="1.1" viewBox="794 65 659 244"><defs><marker id="FilledArrow_Marker" stroke-linejoin="miter" stroke-miterlimit="10" color="#000" markerHeight="8" markerUnits="strokeWidth" markerWidth="10" orient="auto" overflow="visible" viewBox="-1 -4 10 8"><g><path fill="currentColor" stroke="currentColor" stroke-width="1" d="M 8 0 L 0 -3 L 0 3 Z"/></g></marker></defs><g id="Canvas_5" fill="none" fill-opacity="1" stroke="none" stroke-dasharray="none" stroke-opacity="1"><title>Canvas 5</title><rect width="659" height="244" x="794" y="65" fill="#fff"/><g id="Canvas_5_Layer_1"><title>Layer 1</title><g id="Graphic_35"><rect width="657.5" height="242.75" x="794.955" y="65.375" fill="#fff"/></g><g id="Graphic_18"><rect width="214.824" height="209.5" x="1016.293" y="82" fill="#fff"/><rect width="214.824" height="209.5" x="1016.293" y="82" stroke="gray" stroke-linecap="round" stroke-linejoin="round" stroke-width="1"/><text fill="#000" transform="translate(1021.2931 87)"><tspan x="85.411" y="18" fill="#000" font-family="Helvetica Neue" font-size="18" font-weight="bold">Pod</tspan></text></g><g id="Graphic_17"><rect width="120" height="40" x="1063.705" y="233.5" fill="#333"/><text fill="#fff" transform="translate(1068.705 243.76794)"><tspan x="39.744" y="16" fill="#fff" font-family="Helvetica Neue" font-size="16" font-weight="bold">App</tspan></text></g><g id="Graphic_16"><rect width="120" height="40" x="1063.705" y="123.5" fill="#0a55a8"/><text fill="#fff" transform="translate(1068.705 133.76794)"><tspan x="31.872" y="16" fill="#fff" font-family="Helvetica Neue" font-size="16" font-weight="bold">Envoy</tspan></text></g><g id="Graphic_19"><rect width="108.5" height="47.5" x="803.5" y="119.75" fill="#fff"/><rect width="108.5" height="47.5" x="803.5" y="119.75" stroke="gray" stroke-linecap="round" stroke-linejoin="round" stroke-width="1"/><text fill="#000" transform="translate(808.5 133.76794)"><tspan x=".666" y="16" fill="#000" font-family="Helvetica Neue" font-size="16" font-weight="bold">Downstream</tspan></text></g><g id="Graphic_20"><rect width="108.5" height="47.5" x="1335.41" y="119.75" fill="#fff"/><rect width="108.5" height="47.5" x="1335.41" y="119.75" stroke="gray" stroke-linecap="round" stroke-linejoin="round" stroke-width="1"/><text fill="#000" transform="translate(1340.41 133.76794)"><tspan x="11.922" y="16" fill="#000" font-family="Helvetica Neue" font-size="16" font-weight="bold">Upstream</tspan></text></g><g id="Line_21"><line x1="912" x2="1053.805" y1="143.5" y2="143.5" stroke="#000" stroke-linecap="round" stroke-linejoin="round" stroke-width="1" marker-end="url(#FilledArrow_Marker)"/></g><g id="Line_22"><line x1="1183.705" x2="1325.51" y1="143.5" y2="143.5" stroke="#000" stroke-linecap="round" stroke-linejoin="round" stroke-width="1" marker-end="url(#FilledArrow_Marker)"/></g><g id="Graphic_23"><path fill="#fff" d="M 943.8234 128.76794 L 985.8616 128.76794 L 985.8616 152.33923 C 973.2502 149.39282 956.4349 161.17847 943.8234 155.28564 Z"/><path stroke="gray" stroke-linecap="round" stroke-linejoin="round" stroke-width="1" d="M 943.8234 128.76794 L 985.8616 128.76794 L 985.8616 152.33923 C 973.2502 149.39282 956.4349 161.17847 943.8234 155.28564 Z"/><text fill="#000" transform="translate(948.8234 134.35275)"><tspan x="1.457" y="12" fill="#000" font-family="Helvetica Neue" font-size="12" font-weight="bold">Span</tspan></text></g><g id="Line_25"><line x1="1089.377" x2="1089.377" y1="163.5" y2="223.6" stroke="#000" stroke-linecap="round" stroke-linejoin="round" stroke-width="1" marker-end="url(#FilledArrow_Marker)"/></g><g id="Line_26"><line x1="1155.455" x2="1155.455" y1="233.5" y2="173.4" stroke="#000" stroke-linecap="round" stroke-linejoin="round" stroke-width="1" marker-end="url(#FilledArrow_Marker)"/></g><g id="Graphic_29"><rect width="68.992" height="28.448" x="929.651" y="93" fill="#fff"/><text fill="#000" transform="translate(934.6506 98)"><tspan x="0" y="15" fill="#000" font-family="Helvetica Neue" font-size="16">Inbound</tspan></text></g><g id="Graphic_30"><rect width="82.048" height="28.448" x="1242.239" y="93" fill="#fff"/><text fill="#000" transform="translate(1247.2394 98)"><tspan x="0" y="15" fill="#000" font-family="Helvetica Neue" font-size="16">Outbound</tspan></text></g><g id="Graphic_31"><path fill="#fff" d="M 1068.3579 181.09268 L 1110.3961 181.09268 L 1110.3961 204.66397 C 1097.7847 201.71756 1080.9693 213.5032 1068.3579 207.61038 Z"/><path stroke="gray" stroke-linecap="round" stroke-linejoin="round" stroke-width="1" d="M 1068.3579 181.09268 L 1110.3961 181.09268 L 1110.3961 204.66397 C 1097.7847 201.71756 1080.9693 213.5032 1068.3579 207.61038 Z"/><text fill="#000" transform="translate(1073.3579 186.67749)"><tspan x="1.457" y="12" fill="#000" font-family="Helvetica Neue" font-size="12" font-weight="bold">Span</tspan></text></g><g id="Graphic_32"><path fill="#fff" d="M 1134.4359 181.1825 L 1176.4741 181.1825 L 1176.4741 204.7538 C 1163.8627 201.80739 1147.0473 213.59303 1134.4359 207.7002 Z"/><path stroke="gray" stroke-linecap="round" stroke-linejoin="round" stroke-width="1" d="M 1134.4359 181.1825 L 1176.4741 181.1825 L 1176.4741 204.7538 C 1163.8627 201.80739 1147.0473 213.59303 1134.4359 207.7002 Z"/><text fill="#000" transform="translate(1139.4359 186.76732)"><tspan x="1.457" y="12" fill="#000" font-family="Helvetica Neue" font-size="12" font-weight="bold">Span</tspan></text></g><g id="Graphic_33"><path fill="#fff" d="M 1258.3616 128.76794 L 1300.3999 128.76794 L 1300.3999 152.33923 C 1287.7884 149.39282 1270.9731 161.17847 1258.3616 155.28564 Z"/><path stroke="gray" stroke-linecap="round" stroke-linejoin="round" stroke-width="1" d="M 1258.3616 128.76794 L 1300.3999 128.76794 L 1300.3999 152.33923 C 1287.7884 149.39282 1270.9731 161.17847 1258.3616 155.28564 Z"/><text fill="#000" transform="translate(1263.3616 134.35275)"><tspan x="1.457" y="12" fill="#000" font-family="Helvetica Neue" font-size="12" font-weight="bold">Span</tspan></text></g></g></g></svg>