<svg xmlns="http://www.w3.org/2000/svg" xmlns:xl="http://www.w3.org/1999/xlink" width="212" height="333" version="1.1" viewBox="235 1418 212 333"><defs><marker id="FilledArrow_Marker" stroke-linejoin="miter" stroke-miterlimit="10" color="#000" markerHeight="8" markerUnits="strokeWidth" markerWidth="10" orient="auto" overflow="visible" viewBox="-1 -4 10 8"><g><path fill="currentColor" stroke="currentColor" stroke-width="1" d="M 8 0 L 0 -3 L 0 3 Z"/></g></marker></defs><g id="spire-auth" fill="none" fill-opacity="1" stroke="none" stroke-dasharray="none" stroke-opacity="1"><title>spire-auth</title><rect width="212" height="333" x="235" y="1418" fill="#fff"/><g id="spire-auth_Layer_1"><title>Layer 1</title><g id="Graphic_20"><rect width="197.008" height="323.15" x="242.362" y="1422.992" fill="#fff"/><rect width="197.008" height="323.15" x="242.362" y="1422.992" stroke="gray" stroke-linecap="round" stroke-linejoin="round" stroke-width="1"/></g><g id="Graphic_19"><rect width="157.323" height="109.417" x="262.205" y="1432.63" fill="#fff"/><rect width="157.323" height="109.417" x="262.205" y="1432.63" stroke="gray" stroke-linecap="round" stroke-linejoin="round" stroke-width="1"/></g><g id="Graphic_18"><rect width="157.323" height="95.002" x="262.205" y="1577.823" fill="#fff"/><rect width="157.323" height="95.002" x="262.205" y="1577.823" stroke="#a5a5a5" stroke-linecap="round" stroke-linejoin="round" stroke-width="1"/><text fill="#000" transform="translate(267.20473 1605.8228)"><tspan x="31.143" y="14" fill="#000" font-family="Helvetica Neue" font-size="14" font-weight="bold">SPIRE Agent</tspan></text></g><g id="Graphic_17"><rect width="101.956" height="30.59" x="289.888" y="1628.02" fill="#0a55a8"/><rect width="101.956" height="30.59" x="289.888" y="1628.02" stroke="#a5a5a5" stroke-linecap="round" stroke-linejoin="round" stroke-width="1"/><text fill="#fff" transform="translate(294.8881 1629.9958)"><tspan x="21.146" y="11" fill="#fff" font-family="Helvetica Neue" font-size="11" font-weight="bold">Workload</tspan> <tspan x="24.792" y="24.319" fill="#fff" font-family="Helvetica Neue" font-size="11" font-weight="bold">Attestor</tspan></text></g><g id="Graphic_16"><rect width="101.956" height="24.78" x="289.888" y="1707.124" fill="#fff"/><rect width="101.956" height="24.78" x="289.888" y="1707.124" stroke="#a5a5a5" stroke-linecap="round" stroke-linejoin="round" stroke-width="1"/><text fill="#000" transform="translate(294.8881 1713.8831)"><tspan x="29.4" y="9" fill="#000" font-family="Helvetica Neue" font-size="9" font-weight="bold">Kubelet</tspan></text></g><g id="Graphic_15"><rect width="101.956" height="60.596" x="289.888" y="1470.331" fill="#000"/><rect width="101.956" height="60.596" x="289.888" y="1470.331" stroke="#a5a5a5" stroke-linecap="round" stroke-linejoin="round" stroke-width=".5"/></g><g id="Graphic_14"><rect width="157.323" height="19.559" x="262.205" y="1577.823" fill="#0a55a8"/><rect width="157.323" height="19.559" x="262.205" y="1577.823" stroke="#a5a5a5" stroke-linecap="round" stroke-linejoin="round" stroke-width="1"/><text fill="#fff" transform="translate(267.20473 1579.9282)"><tspan x="35.021" y="12" fill="#fff" font-family="Helvetica Neue" font-size="12" font-weight="bold">Workload API</tspan></text></g><g id="Line_13"><line x1="317.8" x2="317.8" y1="1530.927" y2="1567.923" stroke="#000" stroke-linecap="round" stroke-linejoin="round" stroke-width="1" marker-end="url(#FilledArrow_Marker)"/></g><g id="Line_12"><line x1="317.8" x2="317.8" y1="1658.61" y2="1697.224" stroke="#000" stroke-linecap="round" stroke-linejoin="round" stroke-width="1" marker-end="url(#FilledArrow_Marker)"/></g><g id="Line_11"><line x1="365.499" x2="365.499" y1="1577.823" y2="1540.827" stroke="#000" stroke-linecap="round" stroke-linejoin="round" stroke-width="1" marker-end="url(#FilledArrow_Marker)"/></g><g id="Graphic_10"><circle cx="317.8" cy="1552.234" r="5.669" fill="#000"/><text fill="#fff" transform="translate(313.2648 1546.0887)"><tspan x="1.755" y="10" fill="#fff" font-family="Helvetica Neue" font-size="10" font-weight="bold">1</tspan></text></g><g id="Graphic_9"><circle cx="365.499" cy="1553.171" r="5.669" fill="#000"/><text fill="#fff" transform="translate(360.96353 1547.0256)"><tspan x="1.755" y="10" fill="#fff" font-family="Helvetica Neue" font-size="10" font-weight="bold">4</tspan></text></g><g id="Graphic_8"><circle cx="317.8" cy="1684.302" r="5.669" fill="#000"/><text fill="#fff" transform="translate(313.2648 1678.1564)"><tspan x="1.755" y="10" fill="#fff" font-family="Helvetica Neue" font-size="10" font-weight="bold">2</tspan></text></g><g id="Graphic_7"><rect width="101.956" height="24.78" x="289.888" y="1438.016" fill="#000"/><rect width="101.956" height="24.78" x="289.888" y="1438.016" stroke="#a5a5a5" stroke-linecap="round" stroke-linejoin="round" stroke-width=".5"/><text fill="#fff" transform="translate(294.8881 1442.7314)"><tspan x="34.536" y="12" fill="#fff" font-family="Helvetica Neue" font-size="12" font-weight="bold">App</tspan></text></g><g id="Line_6"><line x1="365.781" x2="365.781" y1="1707.124" y2="1668.51" stroke="#000" stroke-linecap="round" stroke-linejoin="round" stroke-width="1" marker-end="url(#FilledArrow_Marker)"/></g><g id="Graphic_5"><circle cx="365.781" cy="1684.549" r="5.669" fill="#000"/><text fill="#fff" transform="translate(361.2456 1678.4039)"><tspan x="1.755" y="10" fill="#fff" font-family="Helvetica Neue" font-size="10" font-weight="bold">3</tspan></text></g><g id="Graphic_4"><text fill="#000" transform="translate(247.3622 1725.7937)"><tspan x="0" y="12" fill="#000" font-family="Helvetica Neue" font-size="12" font-weight="bold">Node</tspan></text></g><g id="Graphic_3"><text fill="#000" transform="translate(267.20473 1526.2335)"><tspan x="0" y="10" fill="#000" font-family="Helvetica Neue" font-size="10" font-weight="bold">Pod</tspan></text></g><g id="Graphic_2"><text fill="#000" transform="translate(265.9981 1655.5346)"><tspan x="0" y="10" fill="#000" font-family="Helvetica Neue" font-size="10" font-weight="bold">Pod</tspan></text></g><g id="Graphic_21"><rect width="75.685" height="19.559" x="303.024" y="1504.913" fill="#fff"/><rect width="75.685" height="19.559" x="303.024" y="1504.913" stroke="gray" stroke-linecap="round" stroke-linejoin="round" stroke-width="1"/><text fill="#000" transform="translate(308.02363 1507.5249)"><tspan x="3.839" y="11" fill="#000" font-family="Helvetica Neue" font-size="12">pilot-agent</tspan></text></g><g id="Graphic_22"><rect width="75.685" height="19.559" x="303.024" y="1477.013" fill="#fff"/><rect width="75.685" height="19.559" x="303.024" y="1477.013" stroke="gray" stroke-linecap="round" stroke-linejoin="round" stroke-width="1"/><text fill="#000" transform="translate(308.02363 1479.6249)"><tspan x="16.841" y="11" fill="#000" font-family="Helvetica Neue" font-size="12">envoy</tspan></text></g></g></g></svg>