<svg xmlns="http://www.w3.org/2000/svg" xmlns:xl="http://www.w3.org/1999/xlink" width="1550" height="814" version="1.1" viewBox="-841 -232 1550 814"><defs><marker id="FilledArrow_Marker" stroke-linejoin="miter" stroke-miterlimit="10" color="#000" markerHeight="6" markerUnits="strokeWidth" markerWidth="7" orient="auto" overflow="visible" viewBox="-1 -3 7 6"><g><path fill="currentColor" stroke="currentColor" stroke-width="1" d="M 4.8 0 L 0 -1.8 L 0 1.8 Z"/></g></marker></defs><g id="tsb-org" fill="none" fill-opacity="1" stroke="none" stroke-dasharray="none" stroke-opacity="1"><title>tsb-org</title><rect width="1550" height="814" x="-841" y="-232" fill="#fff"/><g id="tsb-org_Layer_1"><title>Layer 1</title><g id="Graphic_54"><rect width="288" height="51.5" x="-419.626" y="-215.433" fill="#0a55a8"/><rect width="288" height="51.5" x="-419.626" y="-215.433" stroke="gray" stroke-linecap="round" stroke-linejoin="round" stroke-width="1"/><text fill="#fff" transform="translate(-414.626 -199.41513)"><tspan x="90.344" y="16" fill="#fff" font-family="Helvetica Neue" font-size="16" font-weight="bold">Organization</tspan></text></g><g id="Graphic_53"><rect width="156" height="46.5" x="503.374" y="-162.183" fill="#0a55a8"/><text fill="#fff" transform="translate(508.374 -148.66513)"><tspan x="50.776" y="16" fill="#fff" font-family="Helvetica Neue" font-size="16" font-weight="bold">Users</tspan></text></g><g id="Graphic_52"><rect width="156" height="46.5" x="503.374" y="-82.183" fill="#0a55a8"/><text fill="#fff" transform="translate(508.374 -68.66513)"><tspan x="48.272" y="16" fill="#fff" font-family="Helvetica Neue" font-size="16" font-weight="bold">Teams</tspan></text></g><g id="Graphic_51"><rect width="156" height="46.5" x="-91.991" y="-82.183" fill="#0a55a8"/><text fill="#fff" transform="translate(-86.99069 -68.66513)"><tspan x="47.512" y="16" fill="#fff" font-family="Helvetica Neue" font-size="16" font-weight="bold">Tenant</tspan></text></g><g id="Graphic_50"><rect width="796.812" height="46.5" x="-412.397" y="18.567" fill="#0a55a8"/><text fill="#fff" transform="translate(-407.3966 32.08487)"><tspan x="350.758" y="16" fill="#fff" font-family="Helvetica Neue" font-size="16" font-weight="bold">Workspace</tspan></text></g><g id="Graphic_49"><rect width="223.271" height="46.5" x="-412.397" y="146.567" fill="#fff"/><rect width="223.271" height="46.5" x="-412.397" y="146.567" stroke="#000" stroke-linecap="round" stroke-linejoin="round" stroke-width="2"/><text fill="#000" transform="translate(-407.3966 160.08487)"><tspan x="47.523" y="16" fill="#000" font-family="Helvetica Neue" font-size="16" font-weight="bold">Gateway Group</tspan></text></g><g id="Graphic_48"><rect width="195.184" height="46.5" x="-384.31" y="239.567" fill="#fff"/><rect width="195.184" height="46.5" x="-384.31" y="239.567" stroke="#000" stroke-linecap="round" stroke-linejoin="round" stroke-width="2"/><text fill="#000" transform="translate(-379.30993 243.35282)"><tspan x="31.568" y="16" fill="#000" font-family="Helvetica Neue" font-size="16" font-weight="bold">Bridge - Ingress </tspan> <tspan x="59.264" y="35.464" fill="#000" font-family="Helvetica Neue" font-size="16" font-weight="bold">Gateway</tspan></text></g><g id="Graphic_47"><rect width="195.184" height="46.5" x="-384.31" y="332.567" fill="#fff"/><rect width="195.184" height="46.5" x="-384.31" y="332.567" stroke="#000" stroke-linecap="round" stroke-linejoin="round" stroke-width="2"/><text fill="#000" transform="translate(-379.30993 336.3528)"><tspan x="33.488" y="16" fill="#000" font-family="Helvetica Neue" font-size="16" font-weight="bold">Bridge - Egress </tspan> <tspan x="59.264" y="35.464" fill="#000" font-family="Helvetica Neue" font-size="16" font-weight="bold">Gateway</tspan></text></g><g id="Graphic_46"><rect width="195.184" height="46.5" x="-384.31" y="425.567" fill="#fff"/><rect width="195.184" height="46.5" x="-384.31" y="425.567" stroke="#000" stroke-linecap="round" stroke-linejoin="round" stroke-width="2"/><text fill="#000" transform="translate(-379.30993 439.08487)"><tspan x="5.056" y="16" fill="#000" font-family="Helvetica Neue" font-size="16" font-weight="bold">Bridge - Tier1 Gateway</tspan></text></g><g id="Graphic_45"><rect width="195.184" height="46.5" x="-384.31" y="518.567" fill="#fff"/><rect width="195.184" height="46.5" x="-384.31" y="518.567" stroke="#000" stroke-linecap="round" stroke-linejoin="round" stroke-width="2"/><text fill="#000" transform="translate(-379.30993 522.3528)"><tspan x="45.504" y="16" fill="#000" font-family="Helvetica Neue" font-size="16" font-weight="bold">Direct - Istio </tspan> <tspan x="28.76" y="35.464" fill="#000" font-family="Helvetica Neue" font-size="16" font-weight="bold">Networking APIs</tspan></text></g><g id="Graphic_44"><rect width="223.271" height="46.5" x="-125.626" y="146.567" fill="#fff"/><rect width="223.271" height="46.5" x="-125.626" y="146.567" stroke="#000" stroke-linecap="round" stroke-linejoin="round" stroke-width="2"/><text fill="#000" transform="translate(-120.62599 160.08487)"><tspan x="57.251" y="16" fill="#000" font-family="Helvetica Neue" font-size="16" font-weight="bold">Traffic Group</tspan></text></g><g id="Graphic_43"><rect width="195.184" height="46.5" x="-97.539" y="332.567" fill="#fff"/><rect width="195.184" height="46.5" x="-97.539" y="332.567" stroke="#000" stroke-linecap="round" stroke-linejoin="round" stroke-width="2"/><text fill="#000" transform="translate(-92.53933 346.08487)"><tspan x="6.368" y="16" fill="#000" font-family="Helvetica Neue" font-size="16" font-weight="bold">Bridge - Service Route</tspan></text></g><g id="Graphic_42"><rect width="195.184" height="46.5" x="-97.539" y="425.567" fill="#fff"/><rect width="195.184" height="46.5" x="-97.539" y="425.567" stroke="#000" stroke-linecap="round" stroke-linejoin="round" stroke-width="2"/><text fill="#000" transform="translate(-92.53933 429.3528)"><tspan x="45.504" y="16" fill="#000" font-family="Helvetica Neue" font-size="16" font-weight="bold">Direct - Istio </tspan> <tspan x="28.76" y="35.464" fill="#000" font-family="Helvetica Neue" font-size="16" font-weight="bold">Networking APIs</tspan></text></g><g id="Graphic_41"><rect width="223.271" height="46.5" x="161.145" y="147.067" fill="#fff"/><rect width="223.271" height="46.5" x="161.145" y="147.067" stroke="#000" stroke-linecap="round" stroke-linejoin="round" stroke-width="2"/><text fill="#000" transform="translate(166.14461 160.58487)"><tspan x="49.587" y="16" fill="#000" font-family="Helvetica Neue" font-size="16" font-weight="bold">Security Group</tspan></text></g><g id="Graphic_40"><rect width="195.184" height="46.5" x="189.231" y="240.067" fill="#fff"/><rect width="195.184" height="46.5" x="189.231" y="240.067" stroke="#000" stroke-linecap="round" stroke-linejoin="round" stroke-width="2"/><text fill="#000" transform="translate(194.23128 253.58487)"><tspan x="28.304" y="16" fill="#000" font-family="Helvetica Neue" font-size="16" font-weight="bold">Bridge - Settings</tspan></text></g><g id="Graphic_39"><rect width="195.184" height="46.5" x="189.231" y="333.067" fill="#fff"/><rect width="195.184" height="46.5" x="189.231" y="333.067" stroke="#000" stroke-linecap="round" stroke-linejoin="round" stroke-width="2"/><text fill="#000" transform="translate(194.23128 336.8528)"><tspan x="12.016" y="16" fill="#000" font-family="Helvetica Neue" font-size="16" font-weight="bold">Direct - Istio Security </tspan> <tspan x="75.12" y="35.464" fill="#000" font-family="Helvetica Neue" font-size="16" font-weight="bold">APIs</tspan></text></g><g id="Graphic_38"><rect width="223.271" height="46.5" x="-812.126" y="19.067" fill="#0a55a8"/><rect width="223.271" height="46.5" x="-812.126" y="19.067" stroke="gray" stroke-linecap="round" stroke-linejoin="round" stroke-width="1"/><text fill="#fff" transform="translate(-807.126 32.58487)"><tspan x="79.083" y="16" fill="#fff" font-family="Helvetica Neue" font-size="16" font-weight="bold">Cluster</tspan></text></g><g id="Graphic_37"><rect width="195.184" height="46.5" x="-787.126" y="147.067" fill="#0a55a8"/><rect width="195.184" height="46.5" x="-787.126" y="147.067" stroke="gray" stroke-linecap="round" stroke-linejoin="round" stroke-width="1"/><text fill="#fff" transform="translate(-782.126 160.58487)"><tspan x="47.272" y="16" fill="#fff" font-family="Helvetica Neue" font-size="16" font-weight="bold">Namespace</tspan></text></g><g id="Graphic_36"><rect width="134.184" height="46.5" x="-726.126" y="333.067" fill="#0a55a8"/><rect width="134.184" height="46.5" x="-726.126" y="333.067" stroke="gray" stroke-linecap="round" stroke-linejoin="round" stroke-width="1"/><text fill="#fff" transform="translate(-721.126 336.8528)"><tspan x="33.788" y="16" fill="#fff" font-family="Helvetica Neue" font-size="16" font-weight="bold">Service </tspan> <tspan x="29.356" y="35.464" fill="#fff" font-family="Helvetica Neue" font-size="16" font-weight="bold">Instance</tspan></text></g><g id="Graphic_35"><rect width="156" height="46.5" x="-747.942" y="240.067" fill="#0a55a8"/><rect width="156" height="46.5" x="-747.942" y="240.067" stroke="gray" stroke-linecap="round" stroke-linejoin="round" stroke-width="1"/><text fill="#fff" transform="translate(-742.94205 253.58487)"><tspan x="44.696" y="16" fill="#fff" font-family="Helvetica Neue" font-size="16" font-weight="bold">Service</tspan></text></g><g id="Line_34"><path stroke="#000" stroke-linecap="round" stroke-linejoin="round" stroke-width="2" d="M -275.626 -163.93307 L -275.626 -152.93307 L -275.491 -121.09894 L -13.99069 -121.09894 L -13.99069 -82.18307"/></g><g id="Line_33"><path stroke="#000" stroke-linecap="round" stroke-linejoin="round" stroke-width="2" d="M 64.00931 -58.93307 L 283.69166 -58.93307 L 283.69166 -138.93307 L 503.374 -138.93307"/></g><g id="Line_32"><line x1="64.009" x2="503.374" y1="-58.933" y2="-58.933" stroke="#000" stroke-linecap="round" stroke-linejoin="round" stroke-width="2"/></g><g id="Line_31"><line x1="-13.991" x2="-13.991" y1="-35.683" y2="18.567" stroke="#000" stroke-linecap="round" stroke-linejoin="round" stroke-width="2"/></g><g id="Line_30"><path stroke="#000" stroke-linecap="round" stroke-linejoin="round" stroke-width="2" d="M -13.99069 65.06693 L -13.99069 105.81693 L -300.7613 105.81693 L -300.7613 145.56693"/></g><g id="Line_29"><line x1="-13.991" x2="-13.991" y1="65.067" y2="145.567" stroke="#000" stroke-linecap="round" stroke-linejoin="round" stroke-width="2"/></g><g id="Line_28"><path stroke="#000" stroke-linecap="round" stroke-linejoin="round" stroke-width="2" d="M -13.99069 65.06693 L -13.99069 105.81693 L 272.7799 105.81693 L 272.7799 146.06693"/></g><g id="Line_27"><path stroke="#000" stroke-linecap="round" stroke-linejoin="round" stroke-width="2" d="M -413.3966 169.81693 L -459.626 169.81693 L -459.626 265.56693 L -385.30993 265.56693"/></g><g id="Line_26"><path stroke="#000" stroke-linecap="round" stroke-linejoin="round" stroke-width="2" d="M -700.4907 65.56693 L -700.4907 106.31693 L -689.534 106.31693 L -689.534 147.06693"/></g><g id="Line_25"><path stroke="#000" stroke-linecap="round" stroke-linejoin="round" stroke-width="2" d="M -689.534 193.56693 L -689.534 216.81693 L -669.94205 216.81693 L -669.94205 240.06693"/></g><g id="Line_24"><path stroke="#000" stroke-linecap="round" stroke-linejoin="round" stroke-width="2" d="M -669.94205 286.56693 L -669.94205 309.81693 L -659.034 309.81693 L -659.034 333.06693"/></g><g id="Line_23"><path stroke="#000" stroke-linecap="round" stroke-linejoin="round" stroke-width="2" d="M 160.14461 170.31693 L 130.50302 170.31693 L 130.50302 263.56693 L 188.23128 263.56693"/></g><g id="Line_22"><path stroke="#000" stroke-linecap="round" stroke-linejoin="round" stroke-width="2" d="M -459.626 252.37607 L -459.626 263.37607 L -459.76085 354.8465 L -459.76085 355.81693 L -385.30993 355.81693"/></g><g id="Line_21"><path stroke="#000" stroke-linecap="round" stroke-linejoin="round" stroke-width="2" d="M -459.626 245.93562 L -459.626 445.96174 L -385.30993 445.96174"/></g><g id="Line_20"><path stroke="#000" stroke-linecap="round" stroke-linejoin="round" stroke-width="2" d="M -459.626 279.4102 L -459.626 540.83965 L -385.30993 540.83965"/></g><g id="Graphic_19"><rect width="195.184" height="46.5" x="-97.539" y="239.567" fill="#fff"/><rect width="195.184" height="46.5" x="-97.539" y="239.567" stroke="#000" stroke-linecap="round" stroke-linejoin="round" stroke-width="2"/><text fill="#000" transform="translate(-92.53933 253.08487)"><tspan x="28.304" y="16" fill="#000" font-family="Helvetica Neue" font-size="16" font-weight="bold">Bridge - Settings</tspan></text></g><g id="Line_18"><path stroke="#000" stroke-linecap="round" stroke-linejoin="round" stroke-width="2" d="M -126.62599 169.81693 L -136.62599 169.81693 L -157.89872 170.21028 L -158.59802 170.21028 L -158.59802 263.21728 L -108.53933 262.81693 L -98.53933 262.81693"/></g><g id="Line_17"><path stroke="#000" stroke-linecap="round" stroke-linejoin="round" stroke-width="2" d="M -158.59802 263.21728 L -158.59802 355.81693 L -98.53933 355.81693"/></g><g id="Line_16"><path stroke="#000" stroke-linecap="round" stroke-linejoin="round" stroke-width="2" d="M -158.59802 263.21728 L -158.59802 447.83266 L -157.89872 447.83266 L -157.89872 448.81693 L -98.53933 448.81693"/></g><g id="Line_15"><path stroke="#000" stroke-linecap="round" stroke-linejoin="round" stroke-width="2" d="M 130.50302 263.21014 L 130.50302 356.2643 L 161.41348 356.2643 L 178.23128 356.31693 L 188.23128 356.31693"/></g><g id="Graphic_14"><path stroke="#000" stroke-dasharray="8 8" stroke-linecap="round" stroke-linejoin="round" stroke-width="2" d="M 473.624 -195.18307 L 689.124 -195.18307 L 689.124 -19.933073 L 473.624 -19.933073 Z"/></g><g id="Line_13"><path stroke="#000" stroke-linecap="round" stroke-linejoin="round" stroke-width="2" d="M -275.626 -163.93307 L -275.626 -152.93307 L -275.491 -121.09894 L -700.4907 -121.09894 L -700.4907 19.066927"/></g><g id="Line_10"><path stroke="#000" stroke-linecap="round" stroke-linejoin="round" stroke-width="2" d="M 430.874 8.394513 L 448.2533 8.394513 L 448.2533 558.8169 L 430.874 558.8169"/></g><g id="Line_9"><path stroke="#000" stroke-dasharray="8 8" stroke-linecap="round" stroke-linejoin="round" stroke-width="2" marker-end="url(#FilledArrow_Marker)" d="M 581.374 -18.933073 L 581.374 282.32787 L 461.11324 282.32787"/></g><g id="Line_6"><path stroke="#000" stroke-linecap="round" stroke-linejoin="round" stroke-width="2" d="M -485.3966 23.816927 L -505.19496 23.816927 L -505.19496 187.70486 L -485.3966 187.70486"/></g><g id="Line_5"><path stroke="#000" stroke-dasharray="8 8" stroke-linecap="round" stroke-linejoin="round" stroke-width="2" marker-end="url(#FilledArrow_Marker)" d="M -505.19496 98.56693 L -566.40185 98.56693 L -566.40185 42.316927 L -575.9554 42.316927"/></g><g id="Line_4"><path stroke="#000" stroke-dasharray="8 8" stroke-linecap="round" stroke-linejoin="round" stroke-width="2" marker-end="url(#FilledArrow_Marker)" d="M -505.19496 99.86134 L -566.1338 99.86134 L -566.1338 170.31693 L -579.04205 170.31693"/></g><g id="Graphic_3"><rect width="121.104" height="28.448" x="514.488" y="147.067" fill="#fff"/><text fill="#000" transform="translate(519.4882 152.06693)"><tspan x="0" y="15" fill="#000" font-family="Helvetica Neue" font-size="16">Access policies</tspan></text></g><g id="Graphic_2"><rect width="77.248" height="28.448" x="-543.819" y="53.619" fill="#fff"/><text fill="#000" transform="translate(-538.81896 58.618805)"><tspan x="0" y="15" fill="#000" font-family="Helvetica Neue" font-size="16">Selectors</tspan></text></g></g></g></svg>