<?xml version="1.0" encoding="UTF-8" standalone="no"?>
<!DOCTYPE svg PUBLIC "-//W3C//DTD SVG 1.1//EN" "http://www.w3.org/Graphics/SVG/1.1/DTD/svg11.dtd">
<svg version="1.1" xmlns:dc="http://purl.org/dc/elements/1.1/" xmlns="http://www.w3.org/2000/svg" xmlns:xl="http://www.w3.org/1999/xlink" viewBox="-841 -232 1550 814" width="1550" height="814">
  <defs>
    <marker orient="auto" overflow="visible" markerUnits="strokeWidth" id="FilledArrow_Marker" stroke-linejoin="miter" stroke-miterlimit="10" viewBox="-1 -3 7 6" markerWidth="7" markerHeight="6" color="black">
      <g>
        <path d="M 4.8 0 L 0 -1.8 L 0 1.8 Z" fill="currentColor" stroke="currentColor" stroke-width="1"/>
      </g>
    </marker>
  </defs>
  <g id="tsb-org" stroke="none" stroke-dasharray="none" stroke-opacity="1" fill-opacity="1" fill="none">
    <title>tsb-org</title>
    <rect fill="white" x="-841" y="-232" width="1550" height="814"/>
    <g id="tsb-org_Layer_1">
      <title>Layer 1</title>
      <g id="Graphic_55"/>
      <g id="Graphic_54">
        <rect x="-419.626" y="-215.43307" width="288" height="51.5" fill="#0a55a8"/>
        <rect x="-419.626" y="-215.43307" width="288" height="51.5" stroke="gray" stroke-linecap="round" stroke-linejoin="round" stroke-width="1"/>
        <text transform="translate(-414.626 -199.41513)" fill="white">
          <tspan font-family="Helvetica Neue" font-weight="bold" font-size="16" fill="white" x="90.344" y="16">Organization</tspan>
        </text>
      </g>
      <g id="Graphic_53">
        <rect x="503.374" y="-162.18307" width="156" height="46.5" fill="#0a55a8"/>
        <text transform="translate(508.374 -148.66513)" fill="white">
          <tspan font-family="Helvetica Neue" font-weight="bold" font-size="16" fill="white" x="50.776" y="16">Users</tspan>
        </text>
      </g>
      <g id="Graphic_52">
        <rect x="503.374" y="-82.18307" width="156" height="46.5" fill="#0a55a8"/>
        <text transform="translate(508.374 -68.66513)" fill="white">
          <tspan font-family="Helvetica Neue" font-weight="bold" font-size="16" fill="white" x="48.272" y="16">Teams</tspan>
        </text>
      </g>
      <g id="Graphic_51">
        <rect x="-91.99069" y="-82.18307" width="156" height="46.5" fill="#0a55a8"/>
        <text transform="translate(-86.99069 -68.66513)" fill="white">
          <tspan font-family="Helvetica Neue" font-weight="bold" font-size="16" fill="white" x="47.512" y="16">Tenant</tspan>
        </text>
      </g>
      <g id="Graphic_50">
        <rect x="-412.3966" y="18.566927" width="796.8118" height="46.5" fill="#0a55a8"/>
        <text transform="translate(-407.3966 32.08487)" fill="white">
          <tspan font-family="Helvetica Neue" font-weight="bold" font-size="16" fill="white" x="350.7579" y="16">Workspace</tspan>
        </text>
      </g>
      <g id="Graphic_49">
        <rect x="-412.3966" y="146.56693" width="223.2706" height="46.5" fill="white"/>
        <rect x="-412.3966" y="146.56693" width="223.2706" height="46.5" stroke="black" stroke-linecap="round" stroke-linejoin="round" stroke-width="2"/>
        <text transform="translate(-407.3966 160.08487)" fill="black">
          <tspan font-family="Helvetica Neue" font-weight="bold" font-size="16" fill="black" x="47.5233" y="16">Gateway Group</tspan>
        </text>
      </g>
      <g id="Graphic_48">
        <rect x="-384.30993" y="239.56693" width="195.18394" height="46.5" fill="white"/>
        <rect x="-384.30993" y="239.56693" width="195.18394" height="46.5" stroke="black" stroke-linecap="round" stroke-linejoin="round" stroke-width="2"/>
        <text transform="translate(-379.30993 243.35282)" fill="black">
          <tspan font-family="Helvetica Neue" font-weight="bold" font-size="16" fill="black" x="31.567972" y="16">Bridge - Ingress </tspan>
          <tspan font-family="Helvetica Neue" font-weight="bold" font-size="16" fill="black" x="59.26397" y="35.46411">Gateway</tspan>
        </text>
      </g>
      <g id="Graphic_47">
        <rect x="-384.30993" y="332.56693" width="195.18394" height="46.5" fill="white"/>
        <rect x="-384.30993" y="332.56693" width="195.18394" height="46.5" stroke="black" stroke-linecap="round" stroke-linejoin="round" stroke-width="2"/>
        <text transform="translate(-379.30993 336.3528)" fill="black">
          <tspan font-family="Helvetica Neue" font-weight="bold" font-size="16" fill="black" x="33.487972" y="16">Bridge - Egress </tspan>
          <tspan font-family="Helvetica Neue" font-weight="bold" font-size="16" fill="black" x="59.26397" y="35.46411">Gateway</tspan>
        </text>
      </g>
      <g id="Graphic_46">
        <rect x="-384.30993" y="425.56693" width="195.18394" height="46.5" fill="white"/>
        <rect x="-384.30993" y="425.56693" width="195.18394" height="46.5" stroke="black" stroke-linecap="round" stroke-linejoin="round" stroke-width="2"/>
        <text transform="translate(-379.30993 439.08487)" fill="black">
          <tspan font-family="Helvetica Neue" font-weight="bold" font-size="16" fill="black" x="5.0559724" y="16">Bridge - Tier1 Gateway</tspan>
        </text>
      </g>
      <g id="Graphic_45">
        <rect x="-384.30993" y="518.5669" width="195.18394" height="46.5" fill="white"/>
        <rect x="-384.30993" y="518.5669" width="195.18394" height="46.5" stroke="black" stroke-linecap="round" stroke-linejoin="round" stroke-width="2"/>
        <text transform="translate(-379.30993 522.3528)" fill="black">
          <tspan font-family="Helvetica Neue" font-weight="bold" font-size="16" fill="black" x="45.50397" y="16">Direct - Istio </tspan>
          <tspan font-family="Helvetica Neue" font-weight="bold" font-size="16" fill="black" x="28.759972" y="35.46411">Networking APIs</tspan>
        </text>
      </g>
      <g id="Graphic_44">
        <rect x="-125.62599" y="146.56693" width="223.2706" height="46.5" fill="white"/>
        <rect x="-125.62599" y="146.56693" width="223.2706" height="46.5" stroke="black" stroke-linecap="round" stroke-linejoin="round" stroke-width="2"/>
        <text transform="translate(-120.62599 160.08487)" fill="black">
          <tspan font-family="Helvetica Neue" font-weight="bold" font-size="16" fill="black" x="57.2513" y="16">Traffic Group</tspan>
        </text>
      </g>
      <g id="Graphic_43">
        <rect x="-97.53933" y="332.56693" width="195.18394" height="46.5" fill="white"/>
        <rect x="-97.53933" y="332.56693" width="195.18394" height="46.5" stroke="black" stroke-linecap="round" stroke-linejoin="round" stroke-width="2"/>
        <text transform="translate(-92.53933 346.08487)" fill="black">
          <tspan font-family="Helvetica Neue" font-weight="bold" font-size="16" fill="black" x="6.367972" y="16">Bridge - Service Route</tspan>
        </text>
      </g>
      <g id="Graphic_42">
        <rect x="-97.53933" y="425.56693" width="195.18394" height="46.5" fill="white"/>
        <rect x="-97.53933" y="425.56693" width="195.18394" height="46.5" stroke="black" stroke-linecap="round" stroke-linejoin="round" stroke-width="2"/>
        <text transform="translate(-92.53933 429.3528)" fill="black">
          <tspan font-family="Helvetica Neue" font-weight="bold" font-size="16" fill="black" x="45.50397" y="16">Direct - Istio </tspan>
          <tspan font-family="Helvetica Neue" font-weight="bold" font-size="16" fill="black" x="28.759972" y="35.46411">Networking APIs</tspan>
        </text>
      </g>
      <g id="Graphic_41">
        <rect x="161.14461" y="147.06693" width="223.2706" height="46.5" fill="white"/>
        <rect x="161.14461" y="147.06693" width="223.2706" height="46.5" stroke="black" stroke-linecap="round" stroke-linejoin="round" stroke-width="2"/>
        <text transform="translate(166.14461 160.58487)" fill="black">
          <tspan font-family="Helvetica Neue" font-weight="bold" font-size="16" fill="black" x="49.5873" y="16">Security Group</tspan>
        </text>
      </g>
      <g id="Graphic_40">
        <rect x="189.23128" y="240.06693" width="195.18394" height="46.5" fill="white"/>
        <rect x="189.23128" y="240.06693" width="195.18394" height="46.5" stroke="black" stroke-linecap="round" stroke-linejoin="round" stroke-width="2"/>
        <text transform="translate(194.23128 253.58487)" fill="black">
          <tspan font-family="Helvetica Neue" font-weight="bold" font-size="16" fill="black" x="28.303972" y="16">Bridge - Settings</tspan>
        </text>
      </g>
      <g id="Graphic_39">
        <rect x="189.23128" y="333.06693" width="195.18394" height="46.5" fill="white"/>
        <rect x="189.23128" y="333.06693" width="195.18394" height="46.5" stroke="black" stroke-linecap="round" stroke-linejoin="round" stroke-width="2"/>
        <text transform="translate(194.23128 336.8528)" fill="black">
          <tspan font-family="Helvetica Neue" font-weight="bold" font-size="16" fill="black" x="12.015972" y="16">Direct - Istio Security </tspan>
          <tspan font-family="Helvetica Neue" font-weight="bold" font-size="16" fill="black" x="75.11997" y="35.46411">APIs</tspan>
        </text>
      </g>
      <g id="Graphic_38">
        <rect x="-812.126" y="19.066927" width="223.2706" height="46.5" fill="#0a55a8"/>
        <rect x="-812.126" y="19.066927" width="223.2706" height="46.5" stroke="gray" stroke-linecap="round" stroke-linejoin="round" stroke-width="1"/>
        <text transform="translate(-807.126 32.58487)" fill="white">
          <tspan font-family="Helvetica Neue" font-weight="bold" font-size="16" fill="white" x="79.0833" y="16">Cluster</tspan>
        </text>
      </g>
      <g id="Graphic_37">
        <rect x="-787.126" y="147.06693" width="195.18394" height="46.5" fill="#0a55a8"/>
        <rect x="-787.126" y="147.06693" width="195.18394" height="46.5" stroke="gray" stroke-linecap="round" stroke-linejoin="round" stroke-width="1"/>
        <text transform="translate(-782.126 160.58487)" fill="white">
          <tspan font-family="Helvetica Neue" font-weight="bold" font-size="16" fill="white" x="47.27197" y="16">Namespace</tspan>
        </text>
      </g>
      <g id="Graphic_36">
        <rect x="-726.126" y="333.06693" width="134.18394" height="46.5" fill="#0a55a8"/>
        <rect x="-726.126" y="333.06693" width="134.18394" height="46.5" stroke="gray" stroke-linecap="round" stroke-linejoin="round" stroke-width="1"/>
        <text transform="translate(-721.126 336.8528)" fill="white">
          <tspan font-family="Helvetica Neue" font-weight="bold" font-size="16" fill="white" x="33.78797" y="16">Service </tspan>
          <tspan font-family="Helvetica Neue" font-weight="bold" font-size="16" fill="white" x="29.35597" y="35.46411">Instance</tspan>
        </text>
      </g>
      <g id="Graphic_35">
        <rect x="-747.94205" y="240.06693" width="156" height="46.5" fill="#0a55a8"/>
        <rect x="-747.94205" y="240.06693" width="156" height="46.5" stroke="gray" stroke-linecap="round" stroke-linejoin="round" stroke-width="1"/>
        <text transform="translate(-742.94205 253.58487)" fill="white">
          <tspan font-family="Helvetica Neue" font-weight="bold" font-size="16" fill="white" x="44.696" y="16">Service</tspan>
        </text>
      </g>
      <g id="Line_34">
        <path d="M -275.626 -163.93307 L -275.626 -152.93307 L -275.491 -121.09894 L -13.99069 -121.09894 L -13.99069 -82.18307" stroke="black" stroke-linecap="round" stroke-linejoin="round" stroke-width="2"/>
      </g>
      <g id="Line_33">
        <path d="M 64.00931 -58.93307 L 283.69166 -58.93307 L 283.69166 -138.93307 L 503.374 -138.93307" stroke="black" stroke-linecap="round" stroke-linejoin="round" stroke-width="2"/>
      </g>
      <g id="Line_32">
        <line x1="64.00931" y1="-58.93307" x2="503.374" y2="-58.93307" stroke="black" stroke-linecap="round" stroke-linejoin="round" stroke-width="2"/>
      </g>
      <g id="Line_31">
        <line x1="-13.99069" y1="-35.683073" x2="-13.99069" y2="18.566927" stroke="black" stroke-linecap="round" stroke-linejoin="round" stroke-width="2"/>
      </g>
      <g id="Line_30">
        <path d="M -13.99069 65.06693 L -13.99069 105.81693 L -300.7613 105.81693 L -300.7613 145.56693" stroke="black" stroke-linecap="round" stroke-linejoin="round" stroke-width="2"/>
      </g>
      <g id="Line_29">
        <line x1="-13.99069" y1="65.06693" x2="-13.99069" y2="145.56693" stroke="black" stroke-linecap="round" stroke-linejoin="round" stroke-width="2"/>
      </g>
      <g id="Line_28">
        <path d="M -13.99069 65.06693 L -13.99069 105.81693 L 272.7799 105.81693 L 272.7799 146.06693" stroke="black" stroke-linecap="round" stroke-linejoin="round" stroke-width="2"/>
      </g>
      <g id="Line_27">
        <path d="M -413.3966 169.81693 L -459.626 169.81693 L -459.626 265.56693 L -385.30993 265.56693" stroke="black" stroke-linecap="round" stroke-linejoin="round" stroke-width="2"/>
      </g>
      <g id="Line_26">
        <path d="M -700.4907 65.56693 L -700.4907 106.31693 L -689.534 106.31693 L -689.534 147.06693" stroke="black" stroke-linecap="round" stroke-linejoin="round" stroke-width="2"/>
      </g>
      <g id="Line_25">
        <path d="M -689.534 193.56693 L -689.534 216.81693 L -669.94205 216.81693 L -669.94205 240.06693" stroke="black" stroke-linecap="round" stroke-linejoin="round" stroke-width="2"/>
      </g>
      <g id="Line_24">
        <path d="M -669.94205 286.56693 L -669.94205 309.81693 L -659.034 309.81693 L -659.034 333.06693" stroke="black" stroke-linecap="round" stroke-linejoin="round" stroke-width="2"/>
      </g>
      <g id="Line_23">
        <path d="M 160.14461 170.31693 L 130.50302 170.31693 L 130.50302 263.56693 L 188.23128 263.56693" stroke="black" stroke-linecap="round" stroke-linejoin="round" stroke-width="2"/>
      </g>
      <g id="Line_22">
        <path d="M -459.626 252.37607 L -459.626 263.37607 L -459.76085 354.8465 L -459.76085 355.81693 L -385.30993 355.81693" stroke="black" stroke-linecap="round" stroke-linejoin="round" stroke-width="2"/>
      </g>
      <g id="Line_21">
        <path d="M -459.626 245.93562 L -459.626 445.96174 L -385.30993 445.96174" stroke="black" stroke-linecap="round" stroke-linejoin="round" stroke-width="2"/>
      </g>
      <g id="Line_20">
        <path d="M -459.626 279.4102 L -459.626 540.83965 L -385.30993 540.83965" stroke="black" stroke-linecap="round" stroke-linejoin="round" stroke-width="2"/>
      </g>
      <g id="Graphic_19">
        <rect x="-97.53933" y="239.56693" width="195.18394" height="46.5" fill="white"/>
        <rect x="-97.53933" y="239.56693" width="195.18394" height="46.5" stroke="black" stroke-linecap="round" stroke-linejoin="round" stroke-width="2"/>
        <text transform="translate(-92.53933 253.08487)" fill="black">
          <tspan font-family="Helvetica Neue" font-weight="bold" font-size="16" fill="black" x="28.303972" y="16">Bridge - Settings</tspan>
        </text>
      </g>
      <g id="Line_18">
        <path d="M -126.62599 169.81693 L -136.62599 169.81693 L -157.89872 170.21028 L -158.59802 170.21028 L -158.59802 263.21728 L -108.53933 262.81693 L -98.53933 262.81693" stroke="black" stroke-linecap="round" stroke-linejoin="round" stroke-width="2"/>
      </g>
      <g id="Line_17">
        <path d="M -158.59802 263.21728 L -158.59802 355.81693 L -98.53933 355.81693" stroke="black" stroke-linecap="round" stroke-linejoin="round" stroke-width="2"/>
      </g>
      <g id="Line_16">
        <path d="M -158.59802 263.21728 L -158.59802 447.83266 L -157.89872 447.83266 L -157.89872 448.81693 L -98.53933 448.81693" stroke="black" stroke-linecap="round" stroke-linejoin="round" stroke-width="2"/>
      </g>
      <g id="Line_15">
        <path d="M 130.50302 263.21014 L 130.50302 356.2643 L 161.41348 356.2643 L 178.23128 356.31693 L 188.23128 356.31693" stroke="black" stroke-linecap="round" stroke-linejoin="round" stroke-width="2"/>
      </g>
      <g id="Graphic_14">
        <path d="M 473.624 -195.18307 L 689.124 -195.18307 L 689.124 -19.933073 L 473.624 -19.933073 Z" stroke="black" stroke-linecap="round" stroke-linejoin="round" stroke-dasharray="8.0,8.0" stroke-width="2"/>
      </g>
      <g id="Line_13">
        <path d="M -275.626 -163.93307 L -275.626 -152.93307 L -275.491 -121.09894 L -700.4907 -121.09894 L -700.4907 19.066927" stroke="black" stroke-linecap="round" stroke-linejoin="round" stroke-width="2"/>
      </g>
      <g id="Graphic_12"/>
      <g id="Graphic_11"/>
      <g id="Line_10">
        <path d="M 430.874 8.394513 L 448.2533 8.394513 L 448.2533 558.8169 L 430.874 558.8169" stroke="black" stroke-linecap="round" stroke-linejoin="round" stroke-width="2"/>
      </g>
      <g id="Line_9">
        <path d="M 581.374 -18.933073 L 581.374 282.32787 L 461.11324 282.32787" marker-end="url(#FilledArrow_Marker)" stroke="black" stroke-linecap="round" stroke-linejoin="round" stroke-dasharray="8.0,8.0" stroke-width="2"/>
      </g>
      <g id="Graphic_8"/>
      <g id="Graphic_7"/>
      <g id="Line_6">
        <path d="M -485.3966 23.816927 L -505.19496 23.816927 L -505.19496 187.70486 L -485.3966 187.70486" stroke="black" stroke-linecap="round" stroke-linejoin="round" stroke-width="2"/>
      </g>
      <g id="Line_5">
        <path d="M -505.19496 98.56693 L -566.40185 98.56693 L -566.40185 42.316927 L -575.9554 42.316927" marker-end="url(#FilledArrow_Marker)" stroke="black" stroke-linecap="round" stroke-linejoin="round" stroke-dasharray="8.0,8.0" stroke-width="2"/>
      </g>
      <g id="Line_4">
        <path d="M -505.19496 99.86134 L -566.1338 99.86134 L -566.1338 170.31693 L -579.04205 170.31693" marker-end="url(#FilledArrow_Marker)" stroke="black" stroke-linecap="round" stroke-linejoin="round" stroke-dasharray="8.0,8.0" stroke-width="2"/>
      </g>
      <g id="Graphic_3">
        <rect x="514.4882" y="147.06693" width="121.104" height="28.447998" fill="white"/>
        <text transform="translate(519.4882 152.06693)" fill="black">
          <tspan font-family="Helvetica Neue" font-size="16" fill="black" x="0" y="15">Access policies</tspan>
        </text>
      </g>
      <g id="Graphic_2">
        <rect x="-543.81896" y="53.618805" width="77.248" height="28.447998" fill="white"/>
        <text transform="translate(-538.81896 58.618805)" fill="black">
          <tspan font-family="Helvetica Neue" font-size="16" fill="black" x="0" y="15">Selectors</tspan>
        </text>
      </g>
    </g>
  </g>
</svg>
