<svg xmlns="http://www.w3.org/2000/svg" xmlns:xl="http://www.w3.org/1999/xlink" width="908" height="526" version="1.1" viewBox="-88 253 908 526"><g id="tsb" fill="none" fill-opacity="1" stroke="none" stroke-dasharray="none" stroke-opacity="1"><title>tsb</title><rect width="908" height="526" x="-88" y="253" fill="#fff"/><g id="tsb_Layer_1"><title>Layer 1</title><g id="Graphic_40"><path stroke="#666" stroke-dasharray="1 5" stroke-linecap="round" stroke-linejoin="round" stroke-width="1" d="M -87.49491 503.5893 L 210.2551 503.5893 L 210.2551 778.4331 L -87.49491 778.4331 Z"/></g><g id="Graphic_5"><path stroke="#666" stroke-dasharray="1 5" stroke-linecap="round" stroke-linejoin="round" stroke-width="1" d="M 501.0051 503.5893 L 818.8335 503.5893 L 818.8335 778.4331 L 501.0051 778.4331 Z"/></g><g id="Graphic_9"><path stroke="#666" stroke-dasharray="1 5" stroke-linecap="round" stroke-linejoin="round" stroke-width="1" d="M 210.2551 503.5893 L 501.2551 503.5893 L 501.2551 778.4331 L 210.2551 778.4331 Z"/></g><g id="Graphic_54"><rect width="906.328" height="274.844" x="-87.495" y="503.589" stroke="gray" stroke-linecap="round" stroke-linejoin="round" stroke-width="1"/></g><g id="Graphic_39"><rect width="230.75" height="105.5" x="-55.12" y="623.714" fill="#f3f3f3" fill-opacity=".28"/><rect width="230.75" height="105.5" x="-55.12" y="623.714" stroke="gray" stroke-linecap="round" stroke-linejoin="round" stroke-width="1"/><text fill="#000" transform="translate(-50.11991 704.7502)"><tspan x="49.087" y="16" fill="#000" font-family="Helvetica Neue" font-size="16">Virtual Machines</tspan></text></g><g id="Graphic_37"><rect width="906.328" height="136.156" x="-87.495" y="367.433" fill="#fff"/><rect width="906.328" height="136.156" x="-87.495" y="367.433" stroke="gray" stroke-linecap="round" stroke-linejoin="round" stroke-width="1"/><text fill="#000" transform="translate(-82.49491 372.43307)"><tspan x="0" y="16" fill="#000" font-family="Helvetica Neue" font-size="16" font-weight="bold">Global Control Plane</tspan></text></g><g id="Graphic_36"><rect width="126.392" height="55.161" x="-55.12" y="404.052" fill="#0a55a8"/><text fill="#fff" transform="translate(-50.11991 412.16797)"><tspan x="29.892" y="16" fill="#fff" font-family="Helvetica Neue" font-size="16" font-weight="bold">Service </tspan> <tspan x="20.412" y="35.464" fill="#fff" font-family="Helvetica Neue" font-size="16" font-weight="bold">Discovery</tspan></text></g><g id="Graphic_35"><rect width="126.392" height="55.161" x="110.329" y="404.052" fill="#0a55a8"/><text fill="#fff" transform="translate(115.32868 421.9)"><tspan x="21.028" y="16" fill="#fff" font-family="Helvetica Neue" font-size="16" font-weight="bold">Telemetry</tspan></text></g><g id="Graphic_34"><rect width="155.956" height="55.161" x="275.777" y="404.052" fill="#0a55a8"/><text fill="#fff" transform="translate(280.77727 412.16797)"><tspan x="41.282" y="16" fill="#fff" font-family="Helvetica Neue" font-size="16" font-weight="bold">Disaster</tspan> <tspan x="3.93" y="35.464" fill="#fff" font-family="Helvetica Neue" font-size="16" font-weight="bold">Recovery/Failover</tspan></text></g><g id="Graphic_33"><rect width="126.392" height="55.161" x="470.79" y="404.052" fill="#0a55a8"/><text fill="#fff" transform="translate(475.7896 412.16797)"><tspan x="31.516" y="16" fill="#fff" font-family="Helvetica Neue" font-size="16" font-weight="bold">AuthN/</tspan> <tspan x="35.228" y="35.464" fill="#fff" font-family="Helvetica Neue" font-size="16" font-weight="bold">AuthZ</tspan></text></g><g id="Graphic_32"><rect width="126.392" height="55.161" x="636.238" y="404.052" fill="#0a55a8"/><text fill="#fff" transform="translate(641.2382 412.16797)"><tspan x="31.972" y="16" fill="#fff" font-family="Helvetica Neue" font-size="16" font-weight="bold">Egress</tspan> <tspan x="25.604" y="35.464" fill="#fff" font-family="Helvetica Neue" font-size="16" font-weight="bold">Controls</tspan></text></g><g id="Graphic_31"><rect width="230.75" height="105.5" x="237.349" y="628.097" fill="#f3f3f3" fill-opacity=".28"/><rect width="230.75" height="105.5" x="237.349" y="628.097" stroke="gray" stroke-linecap="round" stroke-linejoin="round" stroke-width="1"/><text fill="#000" transform="translate(242.34884 709.133)"><tspan x="23.975" y="16" fill="#000" font-family="Helvetica Neue" font-size="16">Kubernetes on Premise</tspan></text></g><g id="Graphic_30"><rect width="906.328" height="113.732" x="-87.495" y="253.701" fill="#fff"/><rect width="906.328" height="113.732" x="-87.495" y="253.701" stroke="#666" stroke-linecap="round" stroke-linejoin="round" stroke-width="1"/><text fill="#000" transform="translate(-82.49491 258.7008)"><tspan x="0" y="16" fill="#000" font-family="Helvetica Neue" font-size="16" font-weight="bold">Management Plane</tspan></text></g><g id="Graphic_29"><rect width="113" height="54.285" x="-55.401" y="294.42" fill="#0a55a8"/><rect width="113" height="54.285" x="-55.401" y="294.42" stroke="gray" stroke-linecap="round" stroke-linejoin="round" stroke-width="0"/><text fill="#fff" transform="translate(-50.40116 302.09908)"><tspan x="32.556" y="16" fill="#fff" font-family="Helvetica Neue" font-size="16" font-weight="bold">Multi</tspan> <tspan x="20.084" y="35.464" fill="#fff" font-family="Helvetica Neue" font-size="16" font-weight="bold">Tenancy</tspan></text></g><g id="Graphic_28"><rect width="114" height="55.161" x="84.599" y="294.42" fill="#0a55a8"/><rect width="114" height="55.161" x="84.599" y="294.42" stroke="gray" stroke-linecap="round" stroke-linejoin="round" stroke-width="0"/><text fill="#fff" transform="translate(89.59884 302.53687)"><tspan x="23.696" y="16" fill="#fff" font-family="Helvetica Neue" font-size="16" font-weight="bold">Service</tspan> <tspan x="16.432" y="35.464" fill="#fff" font-family="Helvetica Neue" font-size="16" font-weight="bold">Inventory</tspan></text></g><g id="Graphic_27"><rect width="114" height="55.161" x="225.599" y="294.42" fill="#0a55a8"/><rect width="114" height="55.161" x="225.599" y="294.42" stroke="gray" stroke-linecap="round" stroke-linejoin="round" stroke-width="0"/><text fill="#fff" transform="translate(230.59884 312.26892)"><tspan x="2.088" y="16" fill="#fff" font-family="Helvetica Neue" font-size="16" font-weight="bold">Observability</tspan></text></g><g id="Graphic_26"><rect width="114" height="54.285" x="366.599" y="294.42" fill="#0a55a8"/><rect width="114" height="54.285" x="366.599" y="294.42" stroke="gray" stroke-linecap="round" stroke-linejoin="round" stroke-width="0"/><text fill="#fff" transform="translate(371.59884 302.09908)"><tspan x="3.864" y="16" fill="#fff" font-family="Helvetica Neue" font-size="16" font-weight="bold">Role/Access </tspan> <tspan x="1.936" y="35.464" fill="#fff" font-family="Helvetica Neue" font-size="16" font-weight="bold">Management</tspan></text></g><g id="Graphic_25"><rect width="113" height="55.161" x="507.599" y="294.42" fill="#0a55a8"/><rect width="113" height="55.161" x="507.599" y="294.42" stroke="gray" stroke-linecap="round" stroke-linejoin="round" stroke-width="0"/><text fill="#fff" transform="translate(512.59884 312.26892)"><tspan x="31.508" y="16" fill="#fff" font-family="Helvetica Neue" font-size="16" font-weight="bold">Audit</tspan></text></g><g id="Graphic_24"><rect width="114" height="55.161" x="647.599" y="294.42" fill="#0a55a8"/><rect width="114" height="55.161" x="647.599" y="294.42" stroke="gray" stroke-linecap="round" stroke-linejoin="round" stroke-width="0"/><text fill="#fff" transform="translate(652.59884 302.53687)"><tspan x="26.664" y="16" fill="#fff" font-family="Helvetica Neue" font-size="16" font-weight="bold">Config</tspan> <tspan x="1.936" y="35.464" fill="#fff" font-family="Helvetica Neue" font-size="16" font-weight="bold">Management</tspan></text></g><g id="Graphic_23"><rect width="228.625" height="105.5" x="532.974" y="623.714" fill="#f3f3f3" fill-opacity=".28"/><rect width="228.625" height="105.5" x="532.974" y="623.714" stroke="gray" stroke-linecap="round" stroke-linejoin="round" stroke-width="1"/><text fill="#000" transform="translate(537.97384 704.7502)"><tspan x="30.928" y="16" fill="#000" font-family="Helvetica Neue" font-size="16">Kubernetes on Cloud</tspan></text></g><g id="Graphic_22"><rect width="230.75" height="39" x="237.349" y="589.097" fill="#fff"/><rect width="230.75" height="39" x="237.349" y="589.097" stroke="gray" stroke-linecap="round" stroke-linejoin="round" stroke-width="1"/><text fill="#000" transform="translate(242.34884 598.8651)"><tspan x="10.919" y="16" fill="#000" font-family="Helvetica Neue" font-size="16">Local Control Plane (istiod)</tspan></text></g><g id="Graphic_21"><rect width="817.75" height="29.5" x="-56.151" y="474.089" fill="#0a55a8"/><text fill="#fff" transform="translate(-51.15116 479.10726)"><tspan x="321.651" y="16" fill="#fff" font-family="Helvetica Neue" font-size="16" font-weight="bold">XCP Central Gateway</tspan></text></g><g id="Graphic_20"><rect width="230.75" height="39" x="237.349" y="550.097" fill="#0a55a8"/><rect width="230.75" height="39" x="237.349" y="550.097" stroke="gray" stroke-linecap="round" stroke-linejoin="round" stroke-width="1"/><text fill="#fff" transform="translate(242.34884 559.8651)"><tspan x="38.055" y="16" fill="#fff" font-family="Helvetica Neue" font-size="16">XCP Edge Gateway</tspan></text></g><g id="Graphic_19"><rect width="228.625" height="39" x="532.974" y="584.714" fill="#fff"/><rect width="228.625" height="39" x="532.974" y="584.714" stroke="gray" stroke-linecap="round" stroke-linejoin="round" stroke-width="1"/><text fill="#000" transform="translate(537.97384 594.48226)"><tspan x="9.857" y="16" fill="#000" font-family="Helvetica Neue" font-size="16">Local Control Plane (istiod)</tspan></text></g><g id="Graphic_18"><rect width="228.625" height="39" x="532.974" y="545.714" fill="#0a55a8"/><rect width="228.625" height="39" x="532.974" y="545.714" stroke="gray" stroke-linecap="round" stroke-linejoin="round" stroke-width="1"/><text fill="#fff" transform="translate(537.97384 555.48226)"><tspan x="36.992" y="16" fill="#fff" font-family="Helvetica Neue" font-size="16">XCP Edge Gateway</tspan></text></g><g id="Group_57"><g id="Graphic_38"><rect width="84.5" height="29.5" x="35.464" y="640.972" fill="#333"/><rect width="84.5" height="29.5" x="35.464" y="640.972" stroke="#a5a5a5" stroke-linecap="round" stroke-linejoin="round" stroke-width="1"/></g><g id="Graphic_17"><rect width="84.5" height="29.5" x="10.661" y="651.343" fill="#333"/><rect width="84.5" height="29.5" x="10.661" y="651.343" stroke="#a5a5a5" stroke-linecap="round" stroke-linejoin="round" stroke-width="1"/></g><g id="Graphic_16"><rect width="84.5" height="29.5" x="-14.142" y="661.714" fill="#333"/><rect width="84.5" height="29.5" x="-14.142" y="661.714" stroke="#a5a5a5" stroke-linecap="round" stroke-linejoin="round" stroke-width="1"/><text fill="#fff" transform="translate(-9.14181 667.2403)"><tspan x="25.394" y="15" fill="#fff" font-family="Helvetica Neue" font-size="16">VM</tspan></text></g></g><g id="Line_8"><line x1="352.724" x2="352.724" y1="550.097" y2="503.589" stroke="#000" stroke-linecap="round" stroke-linejoin="round" stroke-width="2"/></g><g id="Line_7"><path stroke="#000" stroke-linecap="round" stroke-linejoin="round" stroke-width="2" d="M 352.72384 503.5893 L 352.72384 530.34927 L 647.28634 530.34927 L 647.28634 545.7143"/></g><g id="Line_6"><path stroke="#000" stroke-linecap="round" stroke-linejoin="round" stroke-width="2" d="M 352.72384 503.5893 L 352.72384 530.2678 L 60.25509 530.2678 L 60.25509 623.7143"/></g><g id="Graphic_4"><text fill="#000" transform="translate(17.65534 747.4331)"><tspan x="0" y="16" fill="#000" font-family="Helvetica Neue" font-size="16" font-weight="bold">Cluster A</tspan></text></g><g id="Graphic_3"><text fill="#000" transform="translate(317.31584 747.3471)"><tspan x="0" y="16" fill="#000" font-family="Helvetica Neue" font-size="16" font-weight="bold">Cluster B</tspan></text></g><g id="Graphic_2"><text fill="#000" transform="translate(611.58234 747.4331)"><tspan x="0" y="16" fill="#000" font-family="Helvetica Neue" font-size="16" font-weight="bold">Cluster C</tspan></text></g><g id="Group_58"><g id="Graphic_47"><rect width="84.5" height="29.5" x="335.277" y="640.972" fill="#333"/><rect width="84.5" height="29.5" x="335.277" y="640.972" stroke="#a5a5a5" stroke-linecap="round" stroke-linejoin="round" stroke-width="1"/></g><g id="Graphic_46"><rect width="84.5" height="29.5" x="310.474" y="651.343" fill="#333"/><rect width="84.5" height="29.5" x="310.474" y="651.343" stroke="#a5a5a5" stroke-linecap="round" stroke-linejoin="round" stroke-width="1"/></g><g id="Graphic_45"><rect width="84.5" height="29.5" x="285.671" y="661.714" fill="#333"/><rect width="84.5" height="29.5" x="285.671" y="661.714" stroke="#a5a5a5" stroke-linecap="round" stroke-linejoin="round" stroke-width="1"/><text fill="#fff" transform="translate(290.6707 667.2403)"><tspan x="3.482" y="15" fill="#fff" font-family="Helvetica Neue" font-size="16">Workload</tspan></text></g></g><g id="Group_56"><g id="Graphic_51"><rect width="84.5" height="29.5" x="629.84" y="640.972" fill="#333"/><rect width="84.5" height="29.5" x="629.84" y="640.972" stroke="#a5a5a5" stroke-linecap="round" stroke-linejoin="round" stroke-width="1"/></g><g id="Graphic_50"><rect width="84.5" height="29.5" x="605.036" y="651.339" fill="#333"/><rect width="84.5" height="29.5" x="605.036" y="651.339" stroke="#a5a5a5" stroke-linecap="round" stroke-linejoin="round" stroke-width="1"/></g><g id="Graphic_49"><rect width="84.5" height="29.5" x="580.233" y="661.714" fill="#333"/><rect width="84.5" height="29.5" x="580.233" y="661.714" stroke="#a5a5a5" stroke-linecap="round" stroke-linejoin="round" stroke-width="1"/><text fill="#fff" transform="translate(585.2332 667.2403)"><tspan x="3.482" y="15" fill="#fff" font-family="Helvetica Neue" font-size="16">Workload</tspan></text></g></g></g></g></svg>