<svg xmlns="http://www.w3.org/2000/svg" xmlns:xl="http://www.w3.org/1999/xlink" width="353" height="332" version="1.1" viewBox="2058 1028 353 332"><defs><marker id="FilledArrow_Marker" stroke-linejoin="miter" stroke-miterlimit="10" color="#000" markerHeight="6" markerUnits="strokeWidth" markerWidth="7" orient="auto" overflow="visible" viewBox="-1 -3 7 6"><g><path fill="currentColor" stroke="currentColor" stroke-width="1" d="M 4.8 0 L 0 -1.8 L 0 1.8 Z"/></g></marker><marker id="FilledArrow_Marker_2" stroke-linejoin="miter" stroke-miterlimit="10" color="#fff" markerHeight="6" markerUnits="strokeWidth" markerWidth="7" orient="auto" overflow="visible" viewBox="-1 -3 7 6"><g><path fill="currentColor" stroke="currentColor" stroke-width="1" d="M 4.8 0 L 0 -1.8 L 0 1.8 Z"/></g></marker></defs><g id="Istiod_Certs_Process" fill="none" fill-opacity="1" stroke="none" stroke-dasharray="none" stroke-opacity="1"><title>Istiod Certs Process</title><rect width="353" height="332" x="2058" y="1028" fill="#fff"/><g id="Istiod_Certs_Process_Layer_1"><title>Layer 1</title><g id="Graphic_424"><rect width="350.209" height="332" x="2058.178" y="1028" fill="#fff"/></g><g id="Graphic_369"><rect width="319.123" height="186.496" x="2074.648" y="1044.089" fill="#fff"/><rect width="319.123" height="186.496" x="2074.648" y="1044.089" stroke="gray" stroke-linecap="round" stroke-linejoin="round" stroke-width="1"/><text fill="#000" transform="translate(2079.6476 1049.0887)"><tspan x="139.449" y="16" fill="#000" font-family="Helvetica Neue" font-size="16" font-weight="bold">Pod</tspan></text></g><g id="Graphic_368"><rect width="289.582" height="86.6" x="2089.418" y="1126.4" fill="#0a55a8"/><rect width="289.582" height="86.6" x="2089.418" y="1126.4" stroke="#a5a5a5" stroke-linecap="round" stroke-linejoin="round" stroke-width=".5"/><text fill="#fff" transform="translate(2094.4182 1131.4)"><tspan x="92.799" y="16" fill="#fff" font-family="Helvetica Neue" font-size="16" font-weight="bold">Envoy Proxy</tspan></text></g><g id="Graphic_367"><rect width="289.582" height="40" x="2089.418" y="1078.5" fill="#333"/><rect width="289.582" height="40" x="2089.418" y="1078.5" stroke="#a5a5a5" stroke-linecap="round" stroke-linejoin="round" stroke-width=".5"/><text fill="#fff" transform="translate(2094.4182 1088.768)"><tspan x="124.535" y="16" fill="#fff" font-family="Helvetica Neue" font-size="16" font-weight="bold">App</tspan></text></g><g id="Graphic_325"><path fill="#333" d="M 2180.7137 1341.8 L 2180.7137 1309.8 C 2180.7137 1307.592 2204.6796 1305.8 2234.209 1305.8 C 2263.7386 1305.8 2287.7046 1307.592 2287.7046 1309.8 L 2287.7046 1341.8 C 2287.7046 1344.008 2263.7386 1345.8 2234.209 1345.8 C 2204.6796 1345.8 2180.7137 1344.008 2180.7137 1341.8"/><path stroke="#fff" stroke-linecap="round" stroke-linejoin="round" stroke-width="1" d="M 2180.7137 1341.8 L 2180.7137 1309.8 C 2180.7137 1307.592 2204.6796 1305.8 2234.209 1305.8 C 2263.7386 1305.8 2287.7046 1307.592 2287.7046 1309.8 L 2287.7046 1341.8 C 2287.7046 1344.008 2263.7386 1345.8 2234.209 1345.8 C 2204.6796 1345.8 2180.7137 1344.008 2180.7137 1341.8 M 2180.7137 1309.8 C 2180.7137 1312.008 2204.6796 1313.8 2234.209 1313.8 C 2263.7386 1313.8 2287.7046 1312.008 2287.7046 1309.8"/><text fill="#fff" transform="translate(2185.7137 1318.068)"><tspan x="37.087" y="16" fill="#fff" font-family="Helvetica Neue" font-size="16" font-weight="bold">CA</tspan></text></g><g id="Graphic_406"><rect width="98.2" height="29.464" x="2098.209" y="1155.2" stroke="#fff" stroke-linecap="round" stroke-linejoin="round" stroke-width="2"/><text fill="#fff" transform="translate(2103.209 1160.7081)"><tspan x="22.764" y="15" fill="#fff" font-family="Helvetica Neue" font-size="16">envoy</tspan></text></g><g id="Graphic_415"><rect width="98.2" height="29.464" x="2272.009" y="1155.2" stroke="#fff" stroke-linecap="round" stroke-linejoin="round" stroke-width="2"/><text fill="#fff" transform="translate(2277.009 1160.7081)"><tspan x="5.428" y="15" fill="#fff" font-family="Helvetica Neue" font-size="16">pilot-agent</tspan></text></g><g id="Line_416"><path stroke="#000" stroke-linecap="round" stroke-linejoin="round" stroke-width="2" marker-end="url(#FilledArrow_Marker)" d="M 2321.109 1204.6641 L 2321.109 1238.5659 L 2242.6948 1238.5659 L 2242.6948 1292.9501"/></g><g id="Line_417"><path stroke="#000" stroke-linecap="round" stroke-linejoin="round" stroke-width="2" marker-end="url(#FilledArrow_Marker)" d="M 2287.7046 1325.8 L 2343.0195 1325.8 L 2343.0195 1217.5641"/></g><g id="Graphic_418"><rect width="42.88" height="28.448" x="2221.255" y="1255.79" fill="#fff"/><text fill="#000" transform="translate(2226.2548 1260.7904)"><tspan x="0" y="15" fill="#000" font-family="Helvetica Neue" font-size="16" font-style="italic">CSR</tspan></text></g><g id="Graphic_419"><rect width="134.464" height="28.448" x="2275.787" y="1255.774" fill="#fff"/><text fill="#000" transform="translate(2280.7875 1260.7737)"><tspan x="0" y="15" fill="#000" font-family="Helvetica Neue" font-size="16" font-style="italic">Signed certificate</tspan></text></g><g id="Line_421"><line x1="2271.009" x2="2210.309" y1="1169.932" y2="1169.932" stroke="#fff" stroke-linecap="round" stroke-linejoin="round" stroke-width="2" marker-end="url(#FilledArrow_Marker_2)"/></g><g id="Group_395"><g id="Group_396"><g id="Graphic_398"><path fill="#fff" d="M 2253.7347 1193.9642 L 2250.5143 1193.9642 L 2250.5143 1190.8171 C 2251.1306 1190.1191 2251.502 1189.2129 2251.502 1188.221 C 2251.502 1186.0331 2249.6898 1184.2575 2247.4613 1184.2575 C 2245.2327 1184.2575 2243.4204 1186.0372 2243.4204 1188.221 C 2243.4204 1189.2129 2243.792 1190.1191 2244.4082 1190.8171 L 2244.4082 1193.9642 L 2237.0653 1193.9642 L 2237.0653 1179.6654 L 2253.7306 1179.6654 L 2253.7306 1193.9642 Z M 2247.4613 1194.3765 L 2246.0857 1195.4337 L 2246.0857 1191.9518 C 2246.5143 1192.1029 2246.9796 1192.1886 2247.4613 1192.1886 C 2247.943 1192.1886 2248.4082 1192.107 2248.8368 1191.9518 L 2248.8368 1195.4337 Z M 2247.4613 1190.5232 C 2246.151 1190.5232 2245.0857 1189.4905 2245.0857 1188.221 C 2245.0857 1186.9516 2246.151 1185.9188 2247.4613 1185.9188 C 2248.7715 1185.9188 2249.8368 1186.9516 2249.8368 1188.221 C 2249.8368 1189.4905 2248.7715 1190.5232 2247.4613 1190.5232 Z M 2254.5674 1178 L 2236.2327 1178 C 2235.7715 1178 2235.4 1178.3715 2235.4 1178.8327 L 2235.4 1194.7969 C 2235.4 1195.2582 2235.7715 1195.6296 2236.2327 1195.6296 L 2244.4082 1195.6296 L 2244.4082 1197.1848 C 2244.4082 1197.8583 2245.1837 1198.242 2245.7184 1197.8297 L 2247.4613 1196.4909 L 2249.204 1197.8297 C 2249.7388 1198.242 2250.5143 1197.8583 2250.5143 1197.1848 L 2250.5143 1195.6296 L 2254.5674 1195.6296 C 2255.0286 1195.6296 2255.4 1195.2582 2255.4 1194.7969 L 2255.4 1178.8327 C 2255.4 1178.3715 2255.0286 1178 2254.5674 1178 Z"/></g><g id="Graphic_397"><path fill="#fff" d="M 2241.1184 1183.4656 L 2249.6776 1183.4656 C 2250.1388 1183.4656 2250.5102 1183.0942 2250.5102 1182.6329 C 2250.5102 1182.1717 2250.1388 1181.8002 2249.6776 1181.8002 L 2241.1184 1181.8002 C 2240.6572 1181.8002 2240.2857 1182.1717 2240.2857 1182.6329 C 2240.2857 1183.0901 2240.6613 1183.4656 2241.1184 1183.4656 Z"/></g></g></g><g id="Graphic_423"><path fill="#fff" d="M 2222.4816 1186.2816 C 2223.3968 1185.3664 2223.9025 1184.1461 2223.9025 1182.8512 C 2223.9025 1181.5563 2223.3968 1180.336 2222.4816 1179.4208 C 2221.5643 1178.5056 2220.3461 1178 2219.0512 1178 C 2217.7563 1178 2216.5382 1178.5056 2215.6208 1179.4208 C 2214.7056 1180.336 2214.2 1181.5563 2214.2 1182.8512 C 2214.2 1184.1461 2214.7056 1185.3643 2215.6208 1186.2816 C 2216.214 1186.8747 2216.9328 1187.295 2217.718 1187.5168 L 2217.718 1191.5808 L 2217.718 1195.0304 L 2217.718 1196.6667 C 2217.718 1197.4027 2218.3152 1198 2219.0512 1198 C 2219.7872 1198 2220.3846 1197.4027 2220.3846 1196.6667 L 2220.3846 1196.3637 L 2221.1483 1196.3637 C 2221.8843 1196.3637 2222.4816 1195.7664 2222.4816 1195.0304 C 2222.4816 1194.2944 2221.8843 1193.697 2221.1483 1193.697 L 2220.3846 1193.697 L 2220.3846 1192.9141 L 2221.1483 1192.9141 C 2221.8843 1192.9141 2222.4816 1192.3168 2222.4816 1191.5808 C 2222.4816 1190.8448 2221.8843 1190.2475 2221.1483 1190.2475 L 2220.3846 1190.2475 L 2220.3846 1187.5168 C 2221.1696 1187.295 2221.8886 1186.8747 2222.4816 1186.2816 Z M 2216.8667 1182.8512 C 2216.8667 1181.6459 2217.846 1180.6667 2219.0512 1180.6667 C 2220.2565 1180.6667 2221.2358 1181.6459 2221.2358 1182.8512 C 2221.2358 1184.0565 2220.2566 1185.0357 2219.0512 1185.0357 C 2217.846 1185.0357 2216.8667 1184.0544 2216.8667 1182.8512 Z"/></g><g id="Graphic_426"><path stroke="#fff" stroke-dasharray="4 4" stroke-linecap="round" stroke-linejoin="round" stroke-width="1" d="M 2272.009 1184.6641 L 2370.209 1184.6641 L 2370.209 1204.6641 L 2272.009 1204.6641 Z"/><text fill="#fff" transform="translate(2277.009 1185.4401)"><tspan x="27.508" y="15" fill="#fff" font-family="Helvetica Neue" font-size="16">UDS</tspan></text></g></g></g></svg>