<svg xmlns="http://www.w3.org/2000/svg" xmlns:xl="http://www.w3.org/1999/xlink" width="561" height="437" version="1.1" viewBox="1527 881 561 437"><defs><marker id="FilledArrow_Marker" stroke-linejoin="miter" stroke-miterlimit="10" color="#000" markerHeight="6" markerUnits="strokeWidth" markerWidth="7" orient="auto" overflow="visible" viewBox="-1 -3 7 6"><g><path fill="currentColor" stroke="currentColor" stroke-width="1" d="M 4.8 0 L 0 -1.8 L 0 1.8 Z"/></g></marker></defs><g id="Root_and_Intermediate_CA_in_Multicluster_Mesh" fill="none" fill-opacity="1" stroke="none" stroke-dasharray="none" stroke-opacity="1"><title>Root and Intermediate CA in Multicluster Mesh</title><rect width="561" height="437" x="1527" y="881" fill="#fff"/><g id="Root_and_Intermediate_CA_in_Multicluster_Mesh_Layer_1"><title>Layer 1</title><g id="Graphic_324"><rect width="559.5" height="436.5" x="1527.75" y="881.5" fill="#fff"/></g><g id="Graphic_323"><rect width="214" height="306.5" x="1853.55" y="999.5" fill="#fff"/><path stroke="gray" stroke-dasharray="4 4" stroke-linecap="round" stroke-linejoin="round" stroke-width="1" d="M 1853.5495 999.5 L 2067.5495 999.5 L 2067.5495 1306 L 1853.5495 1306 Z"/><text fill="#000" transform="translate(1858.5495 1281.5359)"><tspan x="70" y="16" fill="#000" font-family="Helvetica Neue" font-size="16" font-weight="bold">Cluster2</tspan></text></g><g id="Graphic_322"><rect width="214" height="306.5" x="1547.45" y="999.5" fill="#fff"/><path stroke="gray" stroke-dasharray="4 4" stroke-linecap="round" stroke-linejoin="round" stroke-width="1" d="M 1547.4505 999.5 L 1761.4505 999.5 L 1761.4505 1306 L 1547.4505 1306 Z"/><text fill="#000" transform="translate(1552.4505 1281.5359)"><tspan x="70" y="16" fill="#000" font-family="Helvetica Neue" font-size="16" font-weight="bold">Cluster1</tspan></text></g><g id="Graphic_10"><rect width="120" height="60" x="1594.45" y="1019.5" fill="#0a55a8"/><text fill="#fff" transform="translate(1599.4505 1032.0939)"><tspan x="33.688" y="16" fill="#fff" font-family="Helvetica Neue" font-size="16" font-weight="bold">Istiod</tspan> <tspan x="8.464" y="31.464" fill="#fff" font-family="Helvetica Neue" font-size="12" font-weight="bold">Intermediate CA</tspan></text></g><g id="Graphic_17"><rect width="120" height="60" x="1747.5" y="889.5" fill="#333"/><text fill="#fff" transform="translate(1752.5 909.7679)"><tspan x="23" y="16" fill="#fff" font-family="Helvetica Neue" font-size="16" font-weight="bold">Root CA</tspan></text></g><g id="Graphic_18"><rect width="120" height="60" x="1900.55" y="1019.5" fill="#0a55a8"/><text fill="#fff" transform="translate(1905.5495 1032.0939)"><tspan x="33.688" y="16" fill="#fff" font-family="Helvetica Neue" font-size="16" font-weight="bold">Istiod</tspan> <tspan x="8.464" y="31.464" fill="#fff" font-family="Helvetica Neue" font-size="12" font-weight="bold">Intermediate CA</tspan></text></g><g id="Line_21"><path stroke="#000" stroke-linecap="round" stroke-linejoin="round" stroke-width="2" marker-end="url(#FilledArrow_Marker)" d="M 1807.5 949.5 L 1807.5 984.5 L 1654.4505 984.5 L 1654.4505 1006.6"/></g><g id="Line_22"><path stroke="#000" stroke-linecap="round" stroke-linejoin="round" stroke-width="2" marker-end="url(#FilledArrow_Marker)" d="M 1807.5 949.5 L 1807.5 984.5 L 1960.5495 984.5 L 1960.5495 1006.6"/></g><g id="Group_244"><g id="Graphic_222"><rect width="149.953" height="147.5" x="1564.293" y="1104.5" fill="#fff"/><rect width="149.953" height="147.5" x="1564.293" y="1104.5" stroke="gray" stroke-linecap="round" stroke-linejoin="round" stroke-width="1"/><text fill="#000" transform="translate(1569.2925 1227.5359)"><tspan x="54.864" y="16" fill="#000" font-family="Helvetica Neue" font-size="16" font-weight="bold">Pod</tspan></text></g><g id="Graphic_220"><rect width="120" height="44.7" x="1579.269" y="1120.65" fill="#0a55a8"/><rect width="120" height="44.7" x="1579.269" y="1120.65" stroke="#a5a5a5" stroke-linecap="round" stroke-linejoin="round" stroke-width=".5"/><text fill="#fff" transform="translate(1584.269 1133.268)"><tspan x="31.872" y="16" fill="#fff" font-family="Helvetica Neue" font-size="16" font-weight="bold">Envoy</tspan></text></g><g id="Graphic_219"><rect width="120" height="38" x="1579.269" y="1183" fill="#333"/><rect width="120" height="38" x="1579.269" y="1183" stroke="#a5a5a5" stroke-linecap="round" stroke-linejoin="round" stroke-width=".5"/><text fill="#fff" transform="translate(1584.269 1192.268)"><tspan x="39.744" y="16" fill="#fff" font-family="Helvetica Neue" font-size="16" font-weight="bold">App</tspan></text></g><g id="Group_25"><g id="Group_26"><g id="Graphic_28"><path fill="#fff" d="M 1691.3017 1152.4642 L 1688.0813 1152.4642 L 1688.0813 1149.3171 C 1688.6976 1148.6191 1689.069 1147.7129 1689.069 1146.721 C 1689.069 1144.5331 1687.2568 1142.7575 1685.0282 1142.7575 C 1682.7997 1142.7575 1680.9874 1144.5372 1680.9874 1146.721 C 1680.9874 1147.7129 1681.3588 1148.6191 1681.9752 1149.3171 L 1681.9752 1152.4642 L 1674.6323 1152.4642 L 1674.6323 1138.1654 L 1691.2976 1138.1654 L 1691.2976 1152.4642 Z M 1685.0282 1152.8765 L 1683.6527 1153.9337 L 1683.6527 1150.4518 C 1684.0813 1150.6029 1684.5466 1150.6886 1685.0282 1150.6886 C 1685.5099 1150.6886 1685.9752 1150.607 1686.4037 1150.4518 L 1686.4037 1153.9337 Z M 1685.0282 1149.0232 C 1683.718 1149.0232 1682.6527 1147.9905 1682.6527 1146.721 C 1682.6527 1145.4516 1683.718 1144.4188 1685.0282 1144.4188 C 1686.3384 1144.4188 1687.4037 1145.4516 1687.4037 1146.721 C 1687.4037 1147.9905 1686.3384 1149.0232 1685.0282 1149.0232 Z M 1692.1343 1136.5 L 1673.7997 1136.5 C 1673.3384 1136.5 1672.967 1136.8715 1672.967 1137.3327 L 1672.967 1153.2969 C 1672.967 1153.7582 1673.3384 1154.1296 1673.7997 1154.1296 L 1681.9752 1154.1296 L 1681.9752 1155.6848 C 1681.9752 1156.3583 1682.7507 1156.742 1683.2854 1156.3297 L 1685.0282 1154.9909 L 1686.771 1156.3297 C 1687.3058 1156.742 1688.0813 1156.3583 1688.0813 1155.6848 L 1688.0813 1154.1296 L 1692.1343 1154.1296 C 1692.5956 1154.1296 1692.967 1153.7582 1692.967 1153.2969 L 1692.967 1137.3327 C 1692.967 1136.8715 1692.5956 1136.5 1692.1343 1136.5 Z"/></g><g id="Graphic_27"><path fill="#fff" d="M 1678.6854 1141.9656 L 1687.2446 1141.9656 C 1687.7058 1141.9656 1688.0772 1141.5942 1688.0772 1141.1329 C 1688.0772 1140.6717 1687.7058 1140.3002 1687.2446 1140.3002 L 1678.6854 1140.3002 C 1678.2241 1140.3002 1677.8527 1140.6717 1677.8527 1141.1329 C 1677.8527 1141.5901 1678.2282 1141.9656 1678.6854 1141.9656 Z"/></g></g></g><g id="Graphic_236"><rect width="149.953" height="147.5" x="1564.703" y="1104.91" fill="#fff"/><rect width="149.953" height="147.5" x="1564.703" y="1104.91" stroke="gray" stroke-linecap="round" stroke-linejoin="round" stroke-width="1"/><text fill="#000" transform="translate(1569.7025 1227.9459)"><tspan x="54.864" y="16" fill="#000" font-family="Helvetica Neue" font-size="16" font-weight="bold">Pod</tspan></text></g><g id="Graphic_235"><rect width="120" height="44.7" x="1579.679" y="1121.06" fill="#0a55a8"/><rect width="120" height="44.7" x="1579.679" y="1121.06" stroke="#a5a5a5" stroke-linecap="round" stroke-linejoin="round" stroke-width=".5"/><text fill="#fff" transform="translate(1584.679 1133.678)"><tspan x="31.872" y="16" fill="#fff" font-family="Helvetica Neue" font-size="16" font-weight="bold">Envoy</tspan></text></g><g id="Graphic_234"><rect width="120" height="38" x="1579.679" y="1183.41" fill="#333"/><rect width="120" height="38" x="1579.679" y="1183.41" stroke="#a5a5a5" stroke-linecap="round" stroke-linejoin="round" stroke-width=".5"/><text fill="#fff" transform="translate(1584.679 1192.678)"><tspan x="39.744" y="16" fill="#fff" font-family="Helvetica Neue" font-size="16" font-weight="bold">App</tspan></text></g><g id="Group_230"><g id="Group_231"><g id="Graphic_233"><path fill="#fff" d="M 1691.7117 1152.8742 L 1688.4913 1152.8742 L 1688.4913 1149.7271 C 1689.1076 1149.0291 1689.479 1148.1229 1689.479 1147.131 C 1689.479 1144.9431 1687.6668 1143.1675 1685.4382 1143.1675 C 1683.2097 1143.1675 1681.3974 1144.9472 1681.3974 1147.131 C 1681.3974 1148.1229 1681.7688 1149.0291 1682.3852 1149.7271 L 1682.3852 1152.8742 L 1675.0423 1152.8742 L 1675.0423 1138.5754 L 1691.7076 1138.5754 L 1691.7076 1152.8742 Z M 1685.4382 1153.2865 L 1684.0627 1154.3437 L 1684.0627 1150.8618 C 1684.4913 1151.0129 1684.9566 1151.0986 1685.4382 1151.0986 C 1685.9199 1151.0986 1686.3852 1151.017 1686.8137 1150.8618 L 1686.8137 1154.3437 Z M 1685.4382 1149.4332 C 1684.128 1149.4332 1683.0627 1148.4005 1683.0627 1147.131 C 1683.0627 1145.8616 1684.128 1144.8288 1685.4382 1144.8288 C 1686.7484 1144.8288 1687.8137 1145.8616 1687.8137 1147.131 C 1687.8137 1148.4005 1686.7484 1149.4332 1685.4382 1149.4332 Z M 1692.5443 1136.91 L 1674.2097 1136.91 C 1673.7484 1136.91 1673.377 1137.2815 1673.377 1137.7427 L 1673.377 1153.7069 C 1673.377 1154.1682 1673.7484 1154.5396 1674.2097 1154.5396 L 1682.3852 1154.5396 L 1682.3852 1156.0948 C 1682.3852 1156.7683 1683.1607 1157.152 1683.6954 1156.7397 L 1685.4382 1155.4009 L 1687.181 1156.7397 C 1687.7158 1157.152 1688.4913 1156.7683 1688.4913 1156.0948 L 1688.4913 1154.5396 L 1692.5443 1154.5396 C 1693.0056 1154.5396 1693.377 1154.1682 1693.377 1153.7069 L 1693.377 1137.7427 C 1693.377 1137.2815 1693.0056 1136.91 1692.5443 1136.91 Z"/></g><g id="Graphic_232"><path fill="#fff" d="M 1679.0954 1142.3756 L 1687.6546 1142.3756 C 1688.1158 1142.3756 1688.4872 1142.0042 1688.4872 1141.5429 C 1688.4872 1141.0817 1688.1158 1140.7102 1687.6546 1140.7102 L 1679.0954 1140.7102 C 1678.6341 1140.7102 1678.2627 1141.0817 1678.2627 1141.5429 C 1678.2627 1142.0001 1678.6382 1142.3756 1679.0954 1142.3756 Z"/></g></g></g></g><g id="Group_245"><g id="Graphic_259"><rect width="149.953" height="147.5" x="1579.269" y="1116.5" fill="#fff"/><rect width="149.953" height="147.5" x="1579.269" y="1116.5" stroke="gray" stroke-linecap="round" stroke-linejoin="round" stroke-width="1"/><text fill="#000" transform="translate(1584.269 1239.5359)"><tspan x="54.864" y="16" fill="#000" font-family="Helvetica Neue" font-size="16" font-weight="bold">Pod</tspan></text></g><g id="Graphic_258"><rect width="120" height="44.7" x="1594.245" y="1132.65" fill="#0a55a8"/><rect width="120" height="44.7" x="1594.245" y="1132.65" stroke="#a5a5a5" stroke-linecap="round" stroke-linejoin="round" stroke-width=".5"/><text fill="#fff" transform="translate(1599.2455 1145.268)"><tspan x="31.872" y="16" fill="#fff" font-family="Helvetica Neue" font-size="16" font-weight="bold">Envoy</tspan></text></g><g id="Graphic_257"><rect width="120" height="38" x="1594.245" y="1195" fill="#333"/><rect width="120" height="38" x="1594.245" y="1195" stroke="#a5a5a5" stroke-linecap="round" stroke-linejoin="round" stroke-width=".5"/><text fill="#fff" transform="translate(1599.2455 1204.268)"><tspan x="39.744" y="16" fill="#fff" font-family="Helvetica Neue" font-size="16" font-weight="bold">App</tspan></text></g><g id="Group_253"><g id="Group_254"><g id="Graphic_256"><path fill="#fff" d="M 1706.2782 1164.4642 L 1703.0578 1164.4642 L 1703.0578 1161.3171 C 1703.6741 1160.6191 1704.0455 1159.7129 1704.0455 1158.721 C 1704.0455 1156.5331 1702.2333 1154.7575 1700.0047 1154.7575 C 1697.7762 1154.7575 1695.964 1156.5372 1695.964 1158.721 C 1695.964 1159.7129 1696.3353 1160.6191 1696.9517 1161.3171 L 1696.9517 1164.4642 L 1689.6088 1164.4642 L 1689.6088 1150.1654 L 1706.2741 1150.1654 L 1706.2741 1164.4642 Z M 1700.0047 1164.8765 L 1698.6292 1165.9337 L 1698.6292 1162.4518 C 1699.0578 1162.6029 1699.523 1162.6886 1700.0047 1162.6886 C 1700.4864 1162.6886 1700.9517 1162.607 1701.3802 1162.4518 L 1701.3802 1165.9337 Z M 1700.0047 1161.0232 C 1698.6945 1161.0232 1697.6292 1159.9905 1697.6292 1158.721 C 1697.6292 1157.4516 1698.6945 1156.4188 1700.0047 1156.4188 C 1701.315 1156.4188 1702.3802 1157.4516 1702.3802 1158.721 C 1702.3802 1159.9905 1701.315 1161.0232 1700.0047 1161.0232 Z M 1707.1108 1148.5 L 1688.7762 1148.5 C 1688.315 1148.5 1687.9435 1148.8715 1687.9435 1149.3327 L 1687.9435 1165.2969 C 1687.9435 1165.7582 1688.315 1166.1296 1688.7762 1166.1296 L 1696.9517 1166.1296 L 1696.9517 1167.6848 C 1696.9517 1168.3583 1697.7272 1168.742 1698.2619 1168.3297 L 1700.0047 1166.9909 L 1701.7476 1168.3297 C 1702.2823 1168.742 1703.0578 1168.3583 1703.0578 1167.6848 L 1703.0578 1166.1296 L 1707.1108 1166.1296 C 1707.572 1166.1296 1707.9435 1165.7582 1707.9435 1165.2969 L 1707.9435 1149.3327 C 1707.9435 1148.8715 1707.572 1148.5 1707.1108 1148.5 Z"/></g><g id="Graphic_255"><path fill="#fff" d="M 1693.6619 1153.9656 L 1702.221 1153.9656 C 1702.6823 1153.9656 1703.0537 1153.5942 1703.0537 1153.1329 C 1703.0537 1152.6717 1702.6823 1152.3002 1702.221 1152.3002 L 1693.6619 1152.3002 C 1693.2006 1152.3002 1692.8292 1152.6717 1692.8292 1153.1329 C 1692.8292 1153.5901 1693.2047 1153.9656 1693.6619 1153.9656 Z"/></g></g></g><g id="Graphic_252"><rect width="149.953" height="147.5" x="1579.679" y="1116.91" fill="#fff"/><rect width="149.953" height="147.5" x="1579.679" y="1116.91" stroke="gray" stroke-linecap="round" stroke-linejoin="round" stroke-width="1"/><text fill="#000" transform="translate(1584.679 1239.9459)"><tspan x="54.864" y="16" fill="#000" font-family="Helvetica Neue" font-size="16" font-weight="bold">Pod</tspan></text></g><g id="Graphic_251"><rect width="120" height="44.7" x="1594.656" y="1133.06" fill="#0a55a8"/><rect width="120" height="44.7" x="1594.656" y="1133.06" stroke="#a5a5a5" stroke-linecap="round" stroke-linejoin="round" stroke-width=".5"/><text fill="#fff" transform="translate(1599.6555 1145.678)"><tspan x="31.872" y="16" fill="#fff" font-family="Helvetica Neue" font-size="16" font-weight="bold">Envoy</tspan></text></g><g id="Graphic_250"><rect width="120" height="38" x="1594.656" y="1195.41" fill="#333"/><rect width="120" height="38" x="1594.656" y="1195.41" stroke="#a5a5a5" stroke-linecap="round" stroke-linejoin="round" stroke-width=".5"/><text fill="#fff" transform="translate(1599.6555 1204.678)"><tspan x="39.744" y="16" fill="#fff" font-family="Helvetica Neue" font-size="16" font-weight="bold">App</tspan></text></g><g id="Group_246"><g id="Group_247"><g id="Graphic_249"><path fill="#fff" d="M 1706.6882 1164.8742 L 1703.4678 1164.8742 L 1703.4678 1161.7271 C 1704.0841 1161.0291 1704.4555 1160.1229 1704.4555 1159.131 C 1704.4555 1156.9431 1702.6433 1155.1675 1700.4147 1155.1675 C 1698.1862 1155.1675 1696.374 1156.9472 1696.374 1159.131 C 1696.374 1160.1229 1696.7453 1161.0291 1697.3617 1161.7271 L 1697.3617 1164.8742 L 1690.0188 1164.8742 L 1690.0188 1150.5754 L 1706.6841 1150.5754 L 1706.6841 1164.8742 Z M 1700.4147 1165.2865 L 1699.0392 1166.3437 L 1699.0392 1162.8618 C 1699.4678 1163.0129 1699.933 1163.0986 1700.4147 1163.0986 C 1700.8964 1163.0986 1701.3617 1163.017 1701.7902 1162.8618 L 1701.7902 1166.3437 Z M 1700.4147 1161.4332 C 1699.1045 1161.4332 1698.0392 1160.4005 1698.0392 1159.131 C 1698.0392 1157.8616 1699.1045 1156.8288 1700.4147 1156.8288 C 1701.725 1156.8288 1702.7902 1157.8616 1702.7902 1159.131 C 1702.7902 1160.4005 1701.725 1161.4332 1700.4147 1161.4332 Z M 1707.5208 1148.91 L 1689.1862 1148.91 C 1688.725 1148.91 1688.3535 1149.2815 1688.3535 1149.7427 L 1688.3535 1165.7069 C 1688.3535 1166.1682 1688.725 1166.5396 1689.1862 1166.5396 L 1697.3617 1166.5396 L 1697.3617 1168.0948 C 1697.3617 1168.7683 1698.1372 1169.152 1698.6719 1168.7397 L 1700.4147 1167.4009 L 1702.1576 1168.7397 C 1702.6923 1169.152 1703.4678 1168.7683 1703.4678 1168.0948 L 1703.4678 1166.5396 L 1707.5208 1166.5396 C 1707.982 1166.5396 1708.3535 1166.1682 1708.3535 1165.7069 L 1708.3535 1149.7427 C 1708.3535 1149.2815 1707.982 1148.91 1707.5208 1148.91 Z"/></g><g id="Graphic_248"><path fill="#fff" d="M 1694.0719 1154.3756 L 1702.631 1154.3756 C 1703.0923 1154.3756 1703.4637 1154.0042 1703.4637 1153.5429 C 1703.4637 1153.0817 1703.0923 1152.7102 1702.631 1152.7102 L 1694.0719 1152.7102 C 1693.6106 1152.7102 1693.2392 1153.0817 1693.2392 1153.5429 C 1693.2392 1154.0001 1693.6147 1154.3756 1694.0719 1154.3756 Z"/></g></g></g></g><g id="Group_260"><g id="Graphic_274"><rect width="149.953" height="147.5" x="1593.433" y="1128.42" fill="#fff"/><rect width="149.953" height="147.5" x="1593.433" y="1128.42" stroke="gray" stroke-linecap="round" stroke-linejoin="round" stroke-width="1"/><text fill="#000" transform="translate(1598.4329 1251.4559)"><tspan x="54.864" y="16" fill="#000" font-family="Helvetica Neue" font-size="16" font-weight="bold">Pod</tspan></text></g><g id="Graphic_273"><rect width="120" height="44.7" x="1608.409" y="1144.57" fill="#0a55a8"/><rect width="120" height="44.7" x="1608.409" y="1144.57" stroke="#a5a5a5" stroke-linecap="round" stroke-linejoin="round" stroke-width=".5"/><text fill="#fff" transform="translate(1613.4094 1157.188)"><tspan x="31.872" y="16" fill="#fff" font-family="Helvetica Neue" font-size="16" font-weight="bold">Envoy</tspan></text></g><g id="Graphic_272"><rect width="120" height="38" x="1608.409" y="1206.92" fill="#333"/><rect width="120" height="38" x="1608.409" y="1206.92" stroke="#a5a5a5" stroke-linecap="round" stroke-linejoin="round" stroke-width=".5"/><text fill="#fff" transform="translate(1613.4094 1216.188)"><tspan x="39.744" y="16" fill="#fff" font-family="Helvetica Neue" font-size="16" font-weight="bold">App</tspan></text></g><g id="Group_268"><g id="Group_269"><g id="Graphic_271"><path fill="#fff" d="M 1720.442 1176.3842 L 1717.2217 1176.3842 L 1717.2217 1173.2371 C 1717.838 1172.5391 1718.2094 1171.6329 1718.2094 1170.641 C 1718.2094 1168.4531 1716.3972 1166.6775 1714.1686 1166.6775 C 1711.94 1166.6775 1710.1278 1168.4572 1710.1278 1170.641 C 1710.1278 1171.6329 1710.4992 1172.5391 1711.1155 1173.2371 L 1711.1155 1176.3842 L 1703.7727 1176.3842 L 1703.7727 1162.0854 L 1720.438 1162.0854 L 1720.438 1176.3842 Z M 1714.1686 1176.7965 L 1712.793 1177.8537 L 1712.793 1174.3718 C 1713.2217 1174.5229 1713.687 1174.6086 1714.1686 1174.6086 C 1714.6502 1174.6086 1715.1155 1174.527 1715.544 1174.3718 L 1715.544 1177.8537 Z M 1714.1686 1172.9432 C 1712.8584 1172.9432 1711.793 1171.9105 1711.793 1170.641 C 1711.793 1169.3716 1712.8584 1168.3388 1714.1686 1168.3388 C 1715.4788 1168.3388 1716.544 1169.3716 1716.544 1170.641 C 1716.544 1171.9105 1715.4788 1172.9432 1714.1686 1172.9432 Z M 1721.2747 1160.42 L 1702.94 1160.42 C 1702.4788 1160.42 1702.1074 1160.7915 1702.1074 1161.2527 L 1702.1074 1177.2169 C 1702.1074 1177.6782 1702.4788 1178.0496 1702.94 1178.0496 L 1711.1155 1178.0496 L 1711.1155 1179.6048 C 1711.1155 1180.2783 1711.891 1180.662 1712.4257 1180.2497 L 1714.1686 1178.9109 L 1715.9114 1180.2497 C 1716.4461 1180.662 1717.2217 1180.2783 1717.2217 1179.6048 L 1717.2217 1178.0496 L 1721.2747 1178.0496 C 1721.736 1178.0496 1722.1074 1177.6782 1722.1074 1177.2169 L 1722.1074 1161.2527 C 1722.1074 1160.7915 1721.736 1160.42 1721.2747 1160.42 Z"/></g><g id="Graphic_270"><path fill="#fff" d="M 1707.8257 1165.8856 L 1716.385 1165.8856 C 1716.8461 1165.8856 1717.2176 1165.5142 1717.2176 1165.0529 C 1717.2176 1164.5917 1716.8461 1164.2202 1716.385 1164.2202 L 1707.8257 1164.2202 C 1707.3645 1164.2202 1706.993 1164.5917 1706.993 1165.0529 C 1706.993 1165.5101 1707.3686 1165.8856 1707.8257 1165.8856 Z"/></g></g></g><g id="Graphic_267"><rect width="149.953" height="147.5" x="1593.843" y="1128.83" fill="#fff"/><rect width="149.953" height="147.5" x="1593.843" y="1128.83" stroke="gray" stroke-linecap="round" stroke-linejoin="round" stroke-width="1"/><text fill="#000" transform="translate(1598.8429 1251.8659)"><tspan x="54.864" y="16" fill="#000" font-family="Helvetica Neue" font-size="16" font-weight="bold">Pod</tspan></text></g><g id="Graphic_266"><rect width="120" height="44.7" x="1608.819" y="1144.98" fill="#0a55a8"/><rect width="120" height="44.7" x="1608.819" y="1144.98" stroke="#a5a5a5" stroke-linecap="round" stroke-linejoin="round" stroke-width=".5"/><text fill="#fff" transform="translate(1613.8194 1157.598)"><tspan x="31.872" y="16" fill="#fff" font-family="Helvetica Neue" font-size="16" font-weight="bold">Envoy</tspan></text></g><g id="Graphic_265"><rect width="120" height="38" x="1608.819" y="1207.33" fill="#333"/><rect width="120" height="38" x="1608.819" y="1207.33" stroke="#a5a5a5" stroke-linecap="round" stroke-linejoin="round" stroke-width=".5"/><text fill="#fff" transform="translate(1613.8194 1216.598)"><tspan x="39.744" y="16" fill="#fff" font-family="Helvetica Neue" font-size="16" font-weight="bold">App</tspan></text></g><g id="Group_261"><g id="Group_262"><g id="Graphic_264"><path fill="#fff" d="M 1720.852 1176.7942 L 1717.6317 1176.7942 L 1717.6317 1173.6471 C 1718.248 1172.9491 1718.6194 1172.0429 1718.6194 1171.051 C 1718.6194 1168.8631 1716.8072 1167.0875 1714.5786 1167.0875 C 1712.35 1167.0875 1710.5378 1168.8672 1710.5378 1171.051 C 1710.5378 1172.0429 1710.9092 1172.9491 1711.5255 1173.6471 L 1711.5255 1176.7942 L 1704.1827 1176.7942 L 1704.1827 1162.4954 L 1720.848 1162.4954 L 1720.848 1176.7942 Z M 1714.5786 1177.2065 L 1713.203 1178.2637 L 1713.203 1174.7818 C 1713.6317 1174.9329 1714.097 1175.0186 1714.5786 1175.0186 C 1715.0602 1175.0186 1715.5255 1174.937 1715.954 1174.7818 L 1715.954 1178.2637 Z M 1714.5786 1173.3532 C 1713.2684 1173.3532 1712.203 1172.3205 1712.203 1171.051 C 1712.203 1169.7816 1713.2684 1168.7488 1714.5786 1168.7488 C 1715.8888 1168.7488 1716.954 1169.7816 1716.954 1171.051 C 1716.954 1172.3205 1715.8888 1173.3532 1714.5786 1173.3532 Z M 1721.6847 1160.83 L 1703.35 1160.83 C 1702.8888 1160.83 1702.5174 1161.2015 1702.5174 1161.6627 L 1702.5174 1177.6269 C 1702.5174 1178.0882 1702.8888 1178.4596 1703.35 1178.4596 L 1711.5255 1178.4596 L 1711.5255 1180.0148 C 1711.5255 1180.6883 1712.301 1181.072 1712.8357 1180.6597 L 1714.5786 1179.3209 L 1716.3214 1180.6597 C 1716.8561 1181.072 1717.6317 1180.6883 1717.6317 1180.0148 L 1717.6317 1178.4596 L 1721.6847 1178.4596 C 1722.146 1178.4596 1722.5174 1178.0882 1722.5174 1177.6269 L 1722.5174 1161.6627 C 1722.5174 1161.2015 1722.146 1160.83 1721.6847 1160.83 Z"/></g><g id="Graphic_263"><path fill="#fff" d="M 1708.2357 1166.2956 L 1716.795 1166.2956 C 1717.2561 1166.2956 1717.6276 1165.9242 1717.6276 1165.4629 C 1717.6276 1165.0017 1717.2561 1164.6302 1716.795 1164.6302 L 1708.2357 1164.6302 C 1707.7745 1164.6302 1707.403 1165.0017 1707.403 1165.4629 C 1707.403 1165.9201 1707.7786 1166.2956 1708.2357 1166.2956 Z"/></g></g></g></g><g id="Line_275"><line x1="1654.494" x2="1654.53" y1="1079.5" y2="1104.01" stroke="#000" stroke-linecap="round" stroke-linejoin="round" stroke-width="2" marker-end="url(#FilledArrow_Marker)"/></g><g id="Group_306"><g id="Graphic_320"><rect width="149.953" height="147.5" x="1870.391" y="1104.54" fill="#fff"/><rect width="149.953" height="147.5" x="1870.391" y="1104.54" stroke="gray" stroke-linecap="round" stroke-linejoin="round" stroke-width="1"/><text fill="#000" transform="translate(1875.3915 1227.5759)"><tspan x="54.864" y="16" fill="#000" font-family="Helvetica Neue" font-size="16" font-weight="bold">Pod</tspan></text></g><g id="Graphic_319"><rect width="120" height="44.7" x="1885.368" y="1120.69" fill="#0a55a8"/><rect width="120" height="44.7" x="1885.368" y="1120.69" stroke="#a5a5a5" stroke-linecap="round" stroke-linejoin="round" stroke-width=".5"/><text fill="#fff" transform="translate(1890.368 1133.308)"><tspan x="31.872" y="16" fill="#fff" font-family="Helvetica Neue" font-size="16" font-weight="bold">Envoy</tspan></text></g><g id="Graphic_318"><rect width="120" height="38" x="1885.368" y="1183.04" fill="#333"/><rect width="120" height="38" x="1885.368" y="1183.04" stroke="#a5a5a5" stroke-linecap="round" stroke-linejoin="round" stroke-width=".5"/><text fill="#fff" transform="translate(1890.368 1192.308)"><tspan x="39.744" y="16" fill="#fff" font-family="Helvetica Neue" font-size="16" font-weight="bold">App</tspan></text></g><g id="Group_314"><g id="Group_315"><g id="Graphic_317"><path fill="#fff" d="M 1997.4007 1152.5042 L 1994.1803 1152.5042 L 1994.1803 1149.3571 C 1994.7966 1148.6591 1995.168 1147.7529 1995.168 1146.761 C 1995.168 1144.5731 1993.3558 1142.7975 1991.1272 1142.7975 C 1988.8987 1142.7975 1987.0864 1144.5772 1987.0864 1146.761 C 1987.0864 1147.7529 1987.4578 1148.6591 1988.0742 1149.3571 L 1988.0742 1152.5042 L 1980.7313 1152.5042 L 1980.7313 1138.2054 L 1997.3966 1138.2054 L 1997.3966 1152.5042 Z M 1991.1272 1152.9165 L 1989.7517 1153.9737 L 1989.7517 1150.4918 C 1990.1803 1150.6429 1990.6456 1150.7286 1991.1272 1150.7286 C 1991.6089 1150.7286 1992.0742 1150.647 1992.5027 1150.4918 L 1992.5027 1153.9737 Z M 1991.1272 1149.0632 C 1989.817 1149.0632 1988.7517 1148.0305 1988.7517 1146.761 C 1988.7517 1145.4916 1989.817 1144.4588 1991.1272 1144.4588 C 1992.4374 1144.4588 1993.5027 1145.4916 1993.5027 1146.761 C 1993.5027 1148.0305 1992.4374 1149.0632 1991.1272 1149.0632 Z M 1998.2333 1136.54 L 1979.8987 1136.54 C 1979.4374 1136.54 1979.066 1136.9115 1979.066 1137.3727 L 1979.066 1153.3369 C 1979.066 1153.7982 1979.4374 1154.1696 1979.8987 1154.1696 L 1988.0742 1154.1696 L 1988.0742 1155.7248 C 1988.0742 1156.3983 1988.8497 1156.782 1989.3844 1156.3697 L 1991.1272 1155.0309 L 1992.87 1156.3697 C 1993.4048 1156.782 1994.1803 1156.3983 1994.1803 1155.7248 L 1994.1803 1154.1696 L 1998.2333 1154.1696 C 1998.6946 1154.1696 1999.066 1153.7982 1999.066 1153.3369 L 1999.066 1137.3727 C 1999.066 1136.9115 1998.6946 1136.54 1998.2333 1136.54 Z"/></g><g id="Graphic_316"><path fill="#fff" d="M 1984.7844 1142.0056 L 1993.3436 1142.0056 C 1993.8048 1142.0056 1994.1762 1141.6342 1994.1762 1141.1729 C 1994.1762 1140.7117 1993.8048 1140.3402 1993.3436 1140.3402 L 1984.7844 1140.3402 C 1984.3231 1140.3402 1983.9517 1140.7117 1983.9517 1141.1729 C 1983.9517 1141.6301 1984.3272 1142.0056 1984.7844 1142.0056 Z"/></g></g></g><g id="Graphic_313"><rect width="149.953" height="147.5" x="1870.802" y="1104.95" fill="#fff"/><rect width="149.953" height="147.5" x="1870.802" y="1104.95" stroke="gray" stroke-linecap="round" stroke-linejoin="round" stroke-width="1"/><text fill="#000" transform="translate(1875.8015 1227.9859)"><tspan x="54.864" y="16" fill="#000" font-family="Helvetica Neue" font-size="16" font-weight="bold">Pod</tspan></text></g><g id="Graphic_312"><rect width="120" height="44.7" x="1885.778" y="1121.1" fill="#0a55a8"/><rect width="120" height="44.7" x="1885.778" y="1121.1" stroke="#a5a5a5" stroke-linecap="round" stroke-linejoin="round" stroke-width=".5"/><text fill="#fff" transform="translate(1890.778 1133.718)"><tspan x="31.872" y="16" fill="#fff" font-family="Helvetica Neue" font-size="16" font-weight="bold">Envoy</tspan></text></g><g id="Graphic_311"><rect width="120" height="38" x="1885.778" y="1183.45" fill="#333"/><rect width="120" height="38" x="1885.778" y="1183.45" stroke="#a5a5a5" stroke-linecap="round" stroke-linejoin="round" stroke-width=".5"/><text fill="#fff" transform="translate(1890.778 1192.718)"><tspan x="39.744" y="16" fill="#fff" font-family="Helvetica Neue" font-size="16" font-weight="bold">App</tspan></text></g><g id="Group_307"><g id="Group_308"><g id="Graphic_310"><path fill="#fff" d="M 1997.8107 1152.9142 L 1994.5903 1152.9142 L 1994.5903 1149.7671 C 1995.2066 1149.0691 1995.578 1148.1629 1995.578 1147.171 C 1995.578 1144.9831 1993.7658 1143.2075 1991.5372 1143.2075 C 1989.3087 1143.2075 1987.4964 1144.9872 1987.4964 1147.171 C 1987.4964 1148.1629 1987.8678 1149.0691 1988.4842 1149.7671 L 1988.4842 1152.9142 L 1981.1413 1152.9142 L 1981.1413 1138.6154 L 1997.8066 1138.6154 L 1997.8066 1152.9142 Z M 1991.5372 1153.3265 L 1990.1617 1154.3837 L 1990.1617 1150.9018 C 1990.5903 1151.0529 1991.0556 1151.1386 1991.5372 1151.1386 C 1992.0189 1151.1386 1992.4842 1151.057 1992.9127 1150.9018 L 1992.9127 1154.3837 Z M 1991.5372 1149.4732 C 1990.227 1149.4732 1989.1617 1148.4405 1989.1617 1147.171 C 1989.1617 1145.9016 1990.227 1144.8688 1991.5372 1144.8688 C 1992.8474 1144.8688 1993.9127 1145.9016 1993.9127 1147.171 C 1993.9127 1148.4405 1992.8474 1149.4732 1991.5372 1149.4732 Z M 1998.6433 1136.95 L 1980.3087 1136.95 C 1979.8474 1136.95 1979.476 1137.3215 1979.476 1137.7827 L 1979.476 1153.7469 C 1979.476 1154.2082 1979.8474 1154.5796 1980.3087 1154.5796 L 1988.4842 1154.5796 L 1988.4842 1156.1348 C 1988.4842 1156.8083 1989.2597 1157.192 1989.7944 1156.7797 L 1991.5372 1155.4409 L 1993.28 1156.7797 C 1993.8148 1157.192 1994.5903 1156.8083 1994.5903 1156.1348 L 1994.5903 1154.5796 L 1998.6433 1154.5796 C 1999.1046 1154.5796 1999.476 1154.2082 1999.476 1153.7469 L 1999.476 1137.7827 C 1999.476 1137.3215 1999.1046 1136.95 1998.6433 1136.95 Z"/></g><g id="Graphic_309"><path fill="#fff" d="M 1985.1944 1142.4156 L 1993.7536 1142.4156 C 1994.2148 1142.4156 1994.5862 1142.0442 1994.5862 1141.5829 C 1994.5862 1141.1217 1994.2148 1140.7502 1993.7536 1140.7502 L 1985.1944 1140.7502 C 1984.7331 1140.7502 1984.3617 1141.1217 1984.3617 1141.5829 C 1984.3617 1142.0401 1984.7372 1142.4156 1985.1944 1142.4156 Z"/></g></g></g></g><g id="Group_291"><g id="Graphic_305"><rect width="149.953" height="147.5" x="1885.368" y="1116.54" fill="#fff"/><rect width="149.953" height="147.5" x="1885.368" y="1116.54" stroke="gray" stroke-linecap="round" stroke-linejoin="round" stroke-width="1"/><text fill="#000" transform="translate(1890.368 1239.5759)"><tspan x="54.864" y="16" fill="#000" font-family="Helvetica Neue" font-size="16" font-weight="bold">Pod</tspan></text></g><g id="Graphic_304"><rect width="120" height="44.7" x="1900.344" y="1132.69" fill="#0a55a8"/><rect width="120" height="44.7" x="1900.344" y="1132.69" stroke="#a5a5a5" stroke-linecap="round" stroke-linejoin="round" stroke-width=".5"/><text fill="#fff" transform="translate(1905.3445 1145.308)"><tspan x="31.872" y="16" fill="#fff" font-family="Helvetica Neue" font-size="16" font-weight="bold">Envoy</tspan></text></g><g id="Graphic_303"><rect width="120" height="38" x="1900.344" y="1195.04" fill="#333"/><rect width="120" height="38" x="1900.344" y="1195.04" stroke="#a5a5a5" stroke-linecap="round" stroke-linejoin="round" stroke-width=".5"/><text fill="#fff" transform="translate(1905.3445 1204.308)"><tspan x="39.744" y="16" fill="#fff" font-family="Helvetica Neue" font-size="16" font-weight="bold">App</tspan></text></g><g id="Group_299"><g id="Group_300"><g id="Graphic_302"><path fill="#fff" d="M 2012.3772 1164.5042 L 2009.1568 1164.5042 L 2009.1568 1161.3571 C 2009.773 1160.6591 2010.1445 1159.7529 2010.1445 1158.761 C 2010.1445 1156.5731 2008.3323 1154.7975 2006.1037 1154.7975 C 2003.8752 1154.7975 2002.063 1156.5772 2002.063 1158.761 C 2002.063 1159.7529 2002.4343 1160.6591 2003.0507 1161.3571 L 2003.0507 1164.5042 L 1995.7078 1164.5042 L 1995.7078 1150.2054 L 2012.373 1150.2054 L 2012.373 1164.5042 Z M 2006.1037 1164.9165 L 2004.7282 1165.9737 L 2004.7282 1162.4918 C 2005.1568 1162.6429 2005.622 1162.7286 2006.1037 1162.7286 C 2006.5854 1162.7286 2007.0507 1162.647 2007.4792 1162.4918 L 2007.4792 1165.9737 Z M 2006.1037 1161.0632 C 2004.7935 1161.0632 2003.7282 1160.0305 2003.7282 1158.761 C 2003.7282 1157.4916 2004.7935 1156.4588 2006.1037 1156.4588 C 2007.414 1156.4588 2008.4792 1157.4916 2008.4792 1158.761 C 2008.4792 1160.0305 2007.414 1161.0632 2006.1037 1161.0632 Z M 2013.2098 1148.54 L 1994.8752 1148.54 C 1994.414 1148.54 1994.0425 1148.9115 1994.0425 1149.3727 L 1994.0425 1165.3369 C 1994.0425 1165.7982 1994.414 1166.1696 1994.8752 1166.1696 L 2003.0507 1166.1696 L 2003.0507 1167.7248 C 2003.0507 1168.3983 2003.8262 1168.782 2004.3609 1168.3697 L 2006.1037 1167.0309 L 2007.8466 1168.3697 C 2008.3813 1168.782 2009.1568 1168.3983 2009.1568 1167.7248 L 2009.1568 1166.1696 L 2013.2098 1166.1696 C 2013.671 1166.1696 2014.0425 1165.7982 2014.0425 1165.3369 L 2014.0425 1149.3727 C 2014.0425 1148.9115 2013.671 1148.54 2013.2098 1148.54 Z"/></g><g id="Graphic_301"><path fill="#fff" d="M 1999.7609 1154.0056 L 2008.32 1154.0056 C 2008.7813 1154.0056 2009.1527 1153.6342 2009.1527 1153.1729 C 2009.1527 1152.7117 2008.7813 1152.3402 2008.32 1152.3402 L 1999.7609 1152.3402 C 1999.2996 1152.3402 1998.9282 1152.7117 1998.9282 1153.1729 C 1998.9282 1153.6301 1999.3037 1154.0056 1999.7609 1154.0056 Z"/></g></g></g><g id="Graphic_298"><rect width="149.953" height="147.5" x="1885.778" y="1116.95" fill="#fff"/><rect width="149.953" height="147.5" x="1885.778" y="1116.95" stroke="gray" stroke-linecap="round" stroke-linejoin="round" stroke-width="1"/><text fill="#000" transform="translate(1890.778 1239.9859)"><tspan x="54.864" y="16" fill="#000" font-family="Helvetica Neue" font-size="16" font-weight="bold">Pod</tspan></text></g><g id="Graphic_297"><rect width="120" height="44.7" x="1900.755" y="1133.1" fill="#0a55a8"/><rect width="120" height="44.7" x="1900.755" y="1133.1" stroke="#a5a5a5" stroke-linecap="round" stroke-linejoin="round" stroke-width=".5"/><text fill="#fff" transform="translate(1905.7545 1145.718)"><tspan x="31.872" y="16" fill="#fff" font-family="Helvetica Neue" font-size="16" font-weight="bold">Envoy</tspan></text></g><g id="Graphic_296"><rect width="120" height="38" x="1900.755" y="1195.45" fill="#333"/><rect width="120" height="38" x="1900.755" y="1195.45" stroke="#a5a5a5" stroke-linecap="round" stroke-linejoin="round" stroke-width=".5"/><text fill="#fff" transform="translate(1905.7545 1204.718)"><tspan x="39.744" y="16" fill="#fff" font-family="Helvetica Neue" font-size="16" font-weight="bold">App</tspan></text></g><g id="Group_292"><g id="Group_293"><g id="Graphic_295"><path fill="#fff" d="M 2012.7872 1164.9142 L 2009.5668 1164.9142 L 2009.5668 1161.7671 C 2010.183 1161.0691 2010.5545 1160.1629 2010.5545 1159.171 C 2010.5545 1156.9831 2008.7423 1155.2075 2006.5137 1155.2075 C 2004.2852 1155.2075 2002.473 1156.9872 2002.473 1159.171 C 2002.473 1160.1629 2002.8443 1161.0691 2003.4607 1161.7671 L 2003.4607 1164.9142 L 1996.1178 1164.9142 L 1996.1178 1150.6154 L 2012.783 1150.6154 L 2012.783 1164.9142 Z M 2006.5137 1165.3265 L 2005.1382 1166.3837 L 2005.1382 1162.9018 C 2005.5668 1163.0529 2006.032 1163.1386 2006.5137 1163.1386 C 2006.9954 1163.1386 2007.4607 1163.057 2007.8892 1162.9018 L 2007.8892 1166.3837 Z M 2006.5137 1161.4732 C 2005.2035 1161.4732 2004.1382 1160.4405 2004.1382 1159.171 C 2004.1382 1157.9016 2005.2035 1156.8688 2006.5137 1156.8688 C 2007.824 1156.8688 2008.8892 1157.9016 2008.8892 1159.171 C 2008.8892 1160.4405 2007.824 1161.4732 2006.5137 1161.4732 Z M 2013.6198 1148.95 L 1995.2852 1148.95 C 1994.824 1148.95 1994.4525 1149.3215 1994.4525 1149.7827 L 1994.4525 1165.7469 C 1994.4525 1166.2082 1994.824 1166.5796 1995.2852 1166.5796 L 2003.4607 1166.5796 L 2003.4607 1168.1348 C 2003.4607 1168.8083 2004.2362 1169.192 2004.7709 1168.7797 L 2006.5137 1167.4409 L 2008.2566 1168.7797 C 2008.7913 1169.192 2009.5668 1168.8083 2009.5668 1168.1348 L 2009.5668 1166.5796 L 2013.6198 1166.5796 C 2014.081 1166.5796 2014.4525 1166.2082 2014.4525 1165.7469 L 2014.4525 1149.7827 C 2014.4525 1149.3215 2014.081 1148.95 2013.6198 1148.95 Z"/></g><g id="Graphic_294"><path fill="#fff" d="M 2000.1709 1154.4156 L 2008.73 1154.4156 C 2009.1913 1154.4156 2009.5627 1154.0442 2009.5627 1153.5829 C 2009.5627 1153.1217 2009.1913 1152.7502 2008.73 1152.7502 L 2000.1709 1152.7502 C 1999.7096 1152.7502 1999.3382 1153.1217 1999.3382 1153.5829 C 1999.3382 1154.0401 1999.7137 1154.4156 2000.1709 1154.4156 Z"/></g></g></g></g><g id="Group_276"><g id="Graphic_290"><rect width="149.953" height="147.5" x="1899.532" y="1128.46" fill="#fff"/><rect width="149.953" height="147.5" x="1899.532" y="1128.46" stroke="gray" stroke-linecap="round" stroke-linejoin="round" stroke-width="1"/><text fill="#000" transform="translate(1904.5319 1251.4959)"><tspan x="54.864" y="16" fill="#000" font-family="Helvetica Neue" font-size="16" font-weight="bold">Pod</tspan></text></g><g id="Graphic_289"><rect width="120" height="44.7" x="1914.508" y="1144.61" fill="#0a55a8"/><rect width="120" height="44.7" x="1914.508" y="1144.61" stroke="#a5a5a5" stroke-linecap="round" stroke-linejoin="round" stroke-width=".5"/><text fill="#fff" transform="translate(1919.5084 1157.228)"><tspan x="31.872" y="16" fill="#fff" font-family="Helvetica Neue" font-size="16" font-weight="bold">Envoy</tspan></text></g><g id="Graphic_288"><rect width="120" height="38" x="1914.508" y="1206.96" fill="#333"/><rect width="120" height="38" x="1914.508" y="1206.96" stroke="#a5a5a5" stroke-linecap="round" stroke-linejoin="round" stroke-width=".5"/><text fill="#fff" transform="translate(1919.5084 1216.228)"><tspan x="39.744" y="16" fill="#fff" font-family="Helvetica Neue" font-size="16" font-weight="bold">App</tspan></text></g><g id="Group_284"><g id="Group_285"><g id="Graphic_287"><path fill="#fff" d="M 2026.541 1176.4242 L 2023.3207 1176.4242 L 2023.3207 1173.2771 C 2023.937 1172.5791 2024.3084 1171.6729 2024.3084 1170.681 C 2024.3084 1168.4931 2022.4962 1166.7175 2020.2676 1166.7175 C 2018.039 1166.7175 2016.2268 1168.4972 2016.2268 1170.681 C 2016.2268 1171.6729 2016.5982 1172.5791 2017.2145 1173.2771 L 2017.2145 1176.4242 L 2009.8717 1176.4242 L 2009.8717 1162.1254 L 2026.537 1162.1254 L 2026.537 1176.4242 Z M 2020.2676 1176.8365 L 2018.892 1177.8937 L 2018.892 1174.4118 C 2019.3207 1174.5629 2019.786 1174.6486 2020.2676 1174.6486 C 2020.7492 1174.6486 2021.2145 1174.567 2021.643 1174.4118 L 2021.643 1177.8937 Z M 2020.2676 1172.9832 C 2018.9574 1172.9832 2017.892 1171.9505 2017.892 1170.681 C 2017.892 1169.4116 2018.9574 1168.3788 2020.2676 1168.3788 C 2021.5778 1168.3788 2022.643 1169.4116 2022.643 1170.681 C 2022.643 1171.9505 2021.5778 1172.9832 2020.2676 1172.9832 Z M 2027.3737 1160.46 L 2009.039 1160.46 C 2008.5778 1160.46 2008.2064 1160.8315 2008.2064 1161.2927 L 2008.2064 1177.2569 C 2008.2064 1177.7182 2008.5778 1178.0896 2009.039 1178.0896 L 2017.2145 1178.0896 L 2017.2145 1179.6448 C 2017.2145 1180.3183 2017.99 1180.702 2018.5247 1180.2897 L 2020.2676 1178.9509 L 2022.0104 1180.2897 C 2022.5451 1180.702 2023.3207 1180.3183 2023.3207 1179.6448 L 2023.3207 1178.0896 L 2027.3737 1178.0896 C 2027.835 1178.0896 2028.2064 1177.7182 2028.2064 1177.2569 L 2028.2064 1161.2927 C 2028.2064 1160.8315 2027.835 1160.46 2027.3737 1160.46 Z"/></g><g id="Graphic_286"><path fill="#fff" d="M 2013.9247 1165.9256 L 2022.484 1165.9256 C 2022.9451 1165.9256 2023.3166 1165.5542 2023.3166 1165.0929 C 2023.3166 1164.6317 2022.9451 1164.2602 2022.484 1164.2602 L 2013.9247 1164.2602 C 2013.4635 1164.2602 2013.092 1164.6317 2013.092 1165.0929 C 2013.092 1165.5501 2013.4676 1165.9256 2013.9247 1165.9256 Z"/></g></g></g><g id="Graphic_283"><rect width="149.953" height="147.5" x="1899.942" y="1128.87" fill="#fff"/><rect width="149.953" height="147.5" x="1899.942" y="1128.87" stroke="gray" stroke-linecap="round" stroke-linejoin="round" stroke-width="1"/><text fill="#000" transform="translate(1904.9419 1251.9059)"><tspan x="54.864" y="16" fill="#000" font-family="Helvetica Neue" font-size="16" font-weight="bold">Pod</tspan></text></g><g id="Graphic_282"><rect width="120" height="44.7" x="1914.918" y="1145.02" fill="#0a55a8"/><rect width="120" height="44.7" x="1914.918" y="1145.02" stroke="#a5a5a5" stroke-linecap="round" stroke-linejoin="round" stroke-width=".5"/><text fill="#fff" transform="translate(1919.9184 1157.638)"><tspan x="31.872" y="16" fill="#fff" font-family="Helvetica Neue" font-size="16" font-weight="bold">Envoy</tspan></text></g><g id="Graphic_281"><rect width="120" height="38" x="1914.918" y="1207.37" fill="#333"/><rect width="120" height="38" x="1914.918" y="1207.37" stroke="#a5a5a5" stroke-linecap="round" stroke-linejoin="round" stroke-width=".5"/><text fill="#fff" transform="translate(1919.9184 1216.638)"><tspan x="39.744" y="16" fill="#fff" font-family="Helvetica Neue" font-size="16" font-weight="bold">App</tspan></text></g><g id="Group_277"><g id="Group_278"><g id="Graphic_280"><path fill="#fff" d="M 2026.951 1176.8342 L 2023.7307 1176.8342 L 2023.7307 1173.6871 C 2024.347 1172.9891 2024.7184 1172.0829 2024.7184 1171.091 C 2024.7184 1168.9031 2022.9062 1167.1275 2020.6776 1167.1275 C 2018.449 1167.1275 2016.6368 1168.9072 2016.6368 1171.091 C 2016.6368 1172.0829 2017.0082 1172.9891 2017.6245 1173.6871 L 2017.6245 1176.8342 L 2010.2817 1176.8342 L 2010.2817 1162.5354 L 2026.947 1162.5354 L 2026.947 1176.8342 Z M 2020.6776 1177.2465 L 2019.302 1178.3037 L 2019.302 1174.8218 C 2019.7307 1174.9729 2020.196 1175.0586 2020.6776 1175.0586 C 2021.1592 1175.0586 2021.6245 1174.977 2022.053 1174.8218 L 2022.053 1178.3037 Z M 2020.6776 1173.3932 C 2019.3674 1173.3932 2018.302 1172.3605 2018.302 1171.091 C 2018.302 1169.8216 2019.3674 1168.7888 2020.6776 1168.7888 C 2021.9878 1168.7888 2023.053 1169.8216 2023.053 1171.091 C 2023.053 1172.3605 2021.9878 1173.3932 2020.6776 1173.3932 Z M 2027.7837 1160.87 L 2009.449 1160.87 C 2008.9878 1160.87 2008.6164 1161.2415 2008.6164 1161.7027 L 2008.6164 1177.6669 C 2008.6164 1178.1282 2008.9878 1178.4996 2009.449 1178.4996 L 2017.6245 1178.4996 L 2017.6245 1180.0548 C 2017.6245 1180.7283 2018.4 1181.112 2018.9347 1180.6997 L 2020.6776 1179.3609 L 2022.4204 1180.6997 C 2022.9551 1181.112 2023.7307 1180.7283 2023.7307 1180.0548 L 2023.7307 1178.4996 L 2027.7837 1178.4996 C 2028.245 1178.4996 2028.6164 1178.1282 2028.6164 1177.6669 L 2028.6164 1161.7027 C 2028.6164 1161.2415 2028.245 1160.87 2027.7837 1160.87 Z"/></g><g id="Graphic_279"><path fill="#fff" d="M 2014.3347 1166.3356 L 2022.894 1166.3356 C 2023.3551 1166.3356 2023.7266 1165.9642 2023.7266 1165.5029 C 2023.7266 1165.0417 2023.3551 1164.6702 2022.894 1164.6702 L 2014.3347 1164.6702 C 2013.8735 1164.6702 2013.502 1165.0417 2013.502 1165.5029 C 2013.502 1165.9601 2013.8776 1166.3356 2014.3347 1166.3356 Z"/></g></g></g></g><g id="Line_321"><line x1="1960.593" x2="1960.629" y1="1079.5" y2="1104.05" stroke="#000" stroke-linecap="round" stroke-linejoin="round" stroke-width="2" marker-end="url(#FilledArrow_Marker)"/></g></g></g></svg>