<svg xmlns="http://www.w3.org/2000/svg" xmlns:xl="http://www.w3.org/1999/xlink" width="1334" height="1191" version="1.1" viewBox="936 720 1334 1191"><defs><marker id="FilledArrow_Marker" stroke-linejoin="miter" stroke-miterlimit="10" color="#000" markerHeight="8" markerUnits="strokeWidth" markerWidth="10" orient="auto" overflow="visible" viewBox="-1 -4 10 8"><g><path fill="currentColor" stroke="currentColor" stroke-width="1" d="M 8 0 L 0 -3 L 0 3 Z"/></g></marker></defs><g id="Canvas__-L4" fill="none" fill-opacity="1" stroke="none" stroke-dasharray="none" stroke-opacity="1"><title>博客-L4</title><rect width="1334" height="1191" x="936" y="720" fill="#fff"/><g id="Canvas__-L4_Layer_1"><title>Layer 1</title><g id="Graphic_94"><rect width="1332.284" height="1190.551" x="936.85" y="720" fill="#fff"/></g><g id="Graphic_45"><rect width="566.929" height="1105.512" x="1679.528" y="762.52" stroke="#a5a5a5" stroke-linecap="round" stroke-linejoin="round" stroke-width="1"/><text fill="#000" transform="translate(1684.5276 1843.5674)"><tspan x="0" y="16" fill="#000" font-family="Helvetica Neue" font-size="16" font-weight="bold">Node B</tspan></text></g><g id="Graphic_44"><rect width="566.929" height="1105.512" x="963.779" y="762.52" stroke="#a5a5a5" stroke-linecap="round" stroke-linejoin="round" stroke-width="1"/><text fill="#000" transform="translate(968.7795 1843.5674)"><tspan x="0" y="16" fill="#000" font-family="Helvetica Neue" font-size="16" font-weight="bold">Node A</tspan></text></g><g id="Graphic_43"><title>ztunnel a pod</title><rect width="501.732" height="588.431" x="996.378" y="1081.176" fill="#f4f9ff"/><rect width="501.732" height="588.431" x="996.378" y="1081.176" stroke="#a5a5a5" stroke-linecap="round" stroke-linejoin="round" stroke-width="1"/><text fill="#000" transform="translate(1001.378 1645.1422)"><tspan x="0" y="16" fill="#000" font-family="Helvetica Neue" font-size="16" font-weight="bold">Ztunnel A Pod</tspan></text></g><g id="Graphic_29"><rect width="501.732" height="529.769" x="1714.252" y="985.039" fill="#f4f9ff"/><rect width="501.732" height="529.769" x="1714.252" y="985.039" stroke="#a5a5a5" stroke-linecap="round" stroke-linejoin="round" stroke-width="1"/><text fill="#000" transform="translate(1719.252 1490.344)"><tspan x="0" y="16" fill="#000" font-family="Helvetica Neue" font-size="16" font-weight="bold">Ztunnel B Pod</tspan></text></g><g id="Graphic_42"><rect width="391.181" height="68.031" x="1050.204" y="799.37" fill="#333"/><rect width="391.181" height="68.031" x="1050.204" y="799.37" stroke="gray" stroke-linecap="round" stroke-linejoin="round" stroke-width="1"/><text fill="#fff" transform="translate(1055.2043 804.3701)"><tspan x="137.247" y="16" fill="#fff" font-family="Helvetica Neue" font-size="16" font-weight="bold">Service A Pod</tspan></text></g><g id="Graphic_40"><rect width="391.181" height="46.772" x="1050.204" y="985.039" fill="#dadada"/><rect width="391.181" height="46.772" x="1050.204" y="985.039" stroke="gray" stroke-linecap="round" stroke-linejoin="round" stroke-width="1"/><text fill="#000" transform="translate(1055.2043 989.4692)"><tspan x="162.015" y="16" fill="#000" font-family="Helvetica Neue" font-size="16" font-weight="bold">istioout</tspan> <tspan x="139.439" y="34.464" fill="#000" font-family="Helvetica Neue" font-size="16">192.168.127.1</tspan></text></g><g id="Graphic_39"><rect width="245.969" height="46.772" x="1122.81" y="1081.176" fill="#dadada"/><rect width="245.969" height="46.772" x="1122.81" y="1081.176" stroke="gray" stroke-linecap="round" stroke-linejoin="round" stroke-width="1"/><text fill="#000" transform="translate(1127.8101 1085.6056)"><tspan x="84.521" y="16" fill="#000" font-family="Helvetica Neue" font-size="16" font-weight="bold">pistioout</tspan> <tspan x="66.833" y="34.464" fill="#000" font-family="Helvetica Neue" font-size="16">192.168.127.2</tspan></text></g><g id="Graphic_37"><rect width="391.181" height="365.669" x="1051.654" y="1193.386" fill="#fff"/><rect width="391.181" height="365.669" x="1051.654" y="1193.386" stroke="gray" stroke-linecap="round" stroke-linejoin="round" stroke-width="1"/><text fill="#000" transform="translate(1056.6536 1534.591)"><tspan x="0" y="16" fill="#000" font-family="Helvetica Neue" font-size="16" font-weight="bold">Envoy Proxy</tspan></text></g><g id="Line_35"><line x1="1245.795" x2="1245.795" y1="867.402" y2="884.707" stroke="#000" stroke-linecap="round" stroke-linejoin="round" stroke-width="1" marker-end="url(#FilledArrow_Marker)"/></g><g id="Line_33"><line x1="1245.795" x2="1245.795" y1="1031.811" y2="1071.276" stroke="#000" stroke-linecap="round" stroke-linejoin="round" stroke-width="1" marker-end="url(#FilledArrow_Marker)"/></g><g id="Line_31"><line x1="1245.92" x2="1246.216" y1="1127.947" y2="1183.486" stroke="#000" stroke-linecap="round" stroke-linejoin="round" stroke-width="1" marker-end="url(#FilledArrow_Marker)"/></g><g id="Graphic_28"><rect width="391.181" height="68.031" x="1767.402" y="799.37" fill="#333"/><rect width="391.181" height="68.031" x="1767.402" y="799.37" stroke="gray" stroke-linecap="round" stroke-linejoin="round" stroke-width="1"/><text fill="#fff" transform="translate(1772.4016 804.3701)"><tspan x="137.095" y="16" fill="#fff" font-family="Helvetica Neue" font-size="16" font-weight="bold">Service B Pod</tspan></text></g><g id="Graphic_27"><rect width="391.181" height="57.734" x="1767.402" y="1587.402" fill="#dadada"/><rect width="391.181" height="57.734" x="1767.402" y="1587.402" stroke="gray" stroke-linecap="round" stroke-linejoin="round" stroke-width="1"/><text fill="#000" transform="translate(1772.4016 1597.3124)"><tspan x="167.655" y="16" fill="#000" font-family="Helvetica Neue" font-size="16" font-weight="bold">istioin</tspan> <tspan x="139.439" y="34.464" fill="#000" font-family="Helvetica Neue" font-size="16">192.168.126.1</tspan></text></g><g id="Graphic_24"><rect width="391.181" height="199.755" x="1767.402" y="1025.253" fill="#fff"/><rect width="391.181" height="199.755" x="1767.402" y="1025.253" stroke="gray" stroke-linecap="round" stroke-linejoin="round" stroke-width="1"/><text fill="#000" transform="translate(1772.4016 1200.5438)"><tspan x="0" y="16" fill="#000" font-family="Helvetica Neue" font-size="16" font-weight="bold">Envoy Proxy</tspan></text></g><g id="Graphic_23"><rect width="232.441" height="34.99" x="1846.772" y="1117.187" fill="#0a55a8"/><text fill="#fff" transform="translate(1851.7717 1124.9498)"><tspan x="14.188" y="16" fill="#fff" font-family="Helvetica Neue" font-size="16" font-weight="bold">Ztunnel_inbound Listener</tspan></text></g><g id="Graphic_22"><rect width="232.441" height="34.99" x="1846.772" y="1056.694" fill="#0a55a8"/><text fill="#fff" transform="translate(1851.7717 1064.4568)"><tspan x="22.196" y="16" fill="#fff" font-family="Helvetica Neue" font-size="16" font-weight="bold">Virtual_inbound Cluster</tspan></text></g><g id="Line_17"><line x1="1962.992" x2="1962.992" y1="1812.588" y2="1655.035" stroke="#000" stroke-linecap="round" stroke-linejoin="round" stroke-width="1" marker-end="url(#FilledArrow_Marker)"/></g><g id="Line_16"><line x1="1962.992" x2="1962.992" y1="1587.402" y2="1398.982" stroke="#000" stroke-linecap="round" stroke-linejoin="round" stroke-width="1" marker-end="url(#FilledArrow_Marker)"/></g><g id="Line_15"><line x1="1962.992" x2="1962.992" y1="1331.348" y2="1313.654" stroke="#000" stroke-linecap="round" stroke-linejoin="round" stroke-width="1"/></g><g id="Line_13"><line x1="1962.992" x2="1962.992" y1="1117.187" y2="1101.584" stroke="#000" stroke-linecap="round" stroke-linejoin="round" stroke-width="1" marker-end="url(#FilledArrow_Marker)"/></g><g id="Line_12"><line x1="1962.992" x2="1962.992" y1="985.039" y2="970.843" stroke="#000" stroke-linecap="round" stroke-linejoin="round" stroke-width="1" marker-end="url(#FilledArrow_Marker)"/></g><g id="Graphic_11"><rect width="122.336" height="46.896" x="1535.271" y="1803.44" fill="#fff"/><text fill="#000" transform="translate(1540.2709 1808.4402)"><tspan x="2.672" y="15" fill="#000" font-family="Helvetica Neue" font-size="16">HBONE Tunnel</tspan> <tspan x="0" y="33.448" fill="#000" font-family="Helvetica Neue" font-size="16">Pod B IP:15008</tspan></text></g><g id="Graphic_10"><rect width="232.441" height="28.346" x="1131.024" y="1251.209" fill="#0a55a8"/><text fill="#fff" transform="translate(1136.0236 1255.65)"><tspan x="8.548" y="16" fill="#fff" font-family="Helvetica Neue" font-size="16" font-weight="bold">Ztunnel_outbound Listener</tspan></text></g><g id="Graphic_9"><rect width="232.441" height="28.346" x="1131.024" y="1331.348" fill="#0a55a8"/><text fill="#fff" transform="translate(1136.0236 1335.7895)"><tspan x="45.436" y="16" fill="#fff" font-family="Helvetica Neue" font-size="16" font-weight="bold">Service A Cluster</tspan></text></g><g id="Graphic_8"><rect width="232.441" height="28.346" x="1131.024" y="1411.488" fill="#0a55a8"/><text fill="#fff" transform="translate(1136.0236 1415.9291)"><tspan x="9.316" y="16" fill="#fff" font-family="Helvetica Neue" font-size="16" font-weight="bold">Internal Upstream Listener</tspan></text></g><g id="Line_7"><line x1="1247.244" x2="1247.244" y1="1279.555" y2="1321.448" stroke="#000" stroke-linecap="round" stroke-linejoin="round" stroke-width="1" marker-end="url(#FilledArrow_Marker)"/></g><g id="Graphic_6"><rect width="243.071" height="24.336" x="1122.81" y="1290.243" fill="#fff"/><text fill="#000" transform="translate(1127.8101 1295.2433)"><tspan x="7.173" y="11" fill="#000" font-family="Helvetica Neue" font-size="12">Match the destination port and cluster IP</tspan></text></g><g id="Graphic_5"><rect width="232.441" height="28.346" x="1131.024" y="1491.628" fill="#0a55a8"/><text fill="#fff" transform="translate(1136.0236 1496.0686)"><tspan x="16.244" y="16" fill="#fff" font-family="Helvetica Neue" font-size="16" font-weight="bold">Outbound Tunnel Cluster</tspan></text></g><g id="Line_4"><line x1="1247.244" x2="1247.244" y1="1359.695" y2="1401.588" stroke="#000" stroke-linecap="round" stroke-linejoin="round" stroke-width="1" marker-end="url(#FilledArrow_Marker)"/></g><g id="Line_3"><line x1="1247.244" x2="1247.244" y1="1439.834" y2="1481.727" stroke="#000" stroke-linecap="round" stroke-linejoin="round" stroke-width="1" marker-end="url(#FilledArrow_Marker)"/></g><g id="Graphic_50"><rect width="243.071" height="24.336" x="1125.709" y="1040.125" fill="#fff"/><text fill="#000" transform="translate(1130.7087 1045.1251)"><tspan x="77.859" y="11" fill="#000" font-family="Helvetica Neue" font-size="12">Geneva tunnel</tspan></text></g><g id="Graphic_53"><rect width="42.608" height="24.336" x="1225.94" y="1368.433" fill="#fff"/><text fill="#000" transform="translate(1230.9401 1373.433)"><tspan x="4.526" y="11" fill="#000" font-family="Helvetica Neue" font-size="12">EDS</tspan></text></g><g id="Graphic_54"><rect width="391.181" height="28.346" x="1051.654" y="1812.756" fill="#dadada"/><rect width="391.181" height="28.346" x="1051.654" y="1812.756" stroke="gray" stroke-linecap="round" stroke-linejoin="round" stroke-width="1"/><text fill="#000" transform="translate(1056.6536 1817.197)"><tspan x="173.991" y="16" fill="#000" font-family="Helvetica Neue" font-size="16" font-weight="bold">eth0</tspan></text></g><g id="Graphic_38"><rect width="391.181" height="25.348" x="1051.654" y="1144.662" fill="#f4f9ff"/><text fill="#000" transform="translate(1056.6536 1147.6042)"><tspan x="166.583" y="16" fill="#000" font-family="Helvetica Neue" font-size="16" font-weight="bold">tproxy</tspan></text></g><g id="Graphic_55"><rect width="98.922" height="28.346" x="1196.334" y="839.055" fill="#dadada"/><text fill="#000" transform="translate(1201.3337 843.4963)"><tspan x="27.861" y="16" fill="#000" font-family="Helvetica Neue" font-size="16" font-weight="bold">eth0</tspan></text></g><g id="Graphic_56"><rect width="391.181" height="28.346" x="1050.204" y="894.607" fill="#dadada"/><rect width="391.181" height="28.346" x="1050.204" y="894.607" stroke="gray" stroke-linecap="round" stroke-linejoin="round" stroke-width="1"/><text fill="#000" transform="translate(1055.2043 899.0487)"><tspan x="161.391" y="16" fill="#000" font-family="Helvetica Neue" font-size="16" font-weight="bold">vethxxx</tspan></text></g><g id="Line_58"><line x1="1245.795" x2="1245.795" y1="922.954" y2="975.139" stroke="#000" stroke-linecap="round" stroke-linejoin="round" stroke-width="1" marker-end="url(#FilledArrow_Marker)"/></g><g id="Graphic_59"><rect width="289.936" height="39.684" x="1100.827" y="929.307" fill="#fff"/><text fill="#000" transform="translate(1105.8268 934.3066)"><tspan x="34.992" y="12" fill="#000" font-family="Helvetica Neue" font-size="12" font-weight="bold">iptables chain ztunnel-PREROUTING</tspan> <tspan x="89.946" y="26.348" fill="#000" font-family="Helvetica Neue" font-size="12">mark 0x100/0x100</tspan></text></g><g id="Graphic_60"><rect width="70.752" height="28.346" x="1211.868" y="1193.386" fill="#0a55a8"/><text fill="#fff" transform="translate(1216.8681 1197.827)"><tspan x="8.136" y="16" fill="#fff" font-family="Helvetica Neue" font-size="16" font-weight="bold">15001</tspan></text></g><g id="Graphic_63"><rect width="136.772" height="24.336" x="1178.858" y="1449.219" fill="#fff"/><text fill="#000" transform="translate(1183.8583 1454.2193)"><tspan x="10.934" y="11" fill="#000" font-family="Helvetica Neue" font-size="12">HTTP Tunnel config</tspan></text></g><g id="Graphic_64"><rect width="219.685" height="28.346" x="1137.402" y="1641.26" fill="#dadada"/><rect width="219.685" height="28.346" x="1137.402" y="1641.26" stroke="gray" stroke-linecap="round" stroke-linejoin="round" stroke-width="1"/><text fill="#000" transform="translate(1142.4016 1645.701)"><tspan x="88.243" y="16" fill="#000" font-family="Helvetica Neue" font-size="16" font-weight="bold">eth0</tspan></text></g><g id="Graphic_65"><rect width="391.181" height="28.346" x="1051.654" y="1695.118" fill="#dadada"/><rect width="391.181" height="28.346" x="1051.654" y="1695.118" stroke="gray" stroke-linecap="round" stroke-linejoin="round" stroke-width="1"/><text fill="#000" transform="translate(1056.6536 1699.5593)"><tspan x="161.391" y="16" fill="#000" font-family="Helvetica Neue" font-size="16" font-weight="bold">vethxxx</tspan></text></g><g id="Line_66"><line x1="1247.244" x2="1247.244" y1="1221.732" y2="1241.309" stroke="#000" stroke-linecap="round" stroke-linejoin="round" stroke-width="1" marker-end="url(#FilledArrow_Marker)"/></g><g id="Line_67"><line x1="1247.244" x2="1247.244" y1="1519.974" y2="1631.36" stroke="#000" stroke-linecap="round" stroke-linejoin="round" stroke-width="1" marker-end="url(#FilledArrow_Marker)"/></g><g id="Graphic_30"><rect width="391.181" height="46.772" x="1051.654" y="1570.997" fill="#f4f9ff"/><path stroke="gray" stroke-dasharray="4 4" stroke-linecap="round" stroke-linejoin="round" stroke-width="1" d="M 1051.6536 1570.9975 L 1442.8347 1570.9975 L 1442.8347 1617.7692 L 1051.6536 1617.7692 Z"/><text fill="#000" transform="translate(1056.6536 1575.4273)"><tspan x="140.535" y="16" fill="#000" font-family="Helvetica Neue" font-size="16" font-weight="bold">init container</tspan> <tspan x="79.767" y="34.464" fill="#000" font-family="Helvetica Neue" font-size="16">Setup iptables rules for ztunnel</tspan></text></g><g id="Line_68"><line x1="1247.244" x2="1247.244" y1="1669.606" y2="1685.218" stroke="#000" stroke-linecap="round" stroke-linejoin="round" stroke-width="1" marker-end="url(#FilledArrow_Marker)"/></g><g id="Line_69"><line x1="1247.244" x2="1247.244" y1="1723.465" y2="1802.856" stroke="#000" stroke-linecap="round" stroke-linejoin="round" stroke-width="1" marker-end="url(#FilledArrow_Marker)"/></g><g id="Graphic_36"><rect width="391.181" height="50.616" x="1051.654" y="1742.689" fill="#fff"/><path stroke="gray" stroke-dasharray="4 4" stroke-linecap="round" stroke-linejoin="round" stroke-width="1" d="M 1051.6536 1742.6886 L 1442.8347 1742.6886 L 1442.8347 1793.3045 L 1051.6536 1793.3045 Z"/><text fill="#000" transform="translate(1056.6536 1749.0405)"><tspan x="157.727" y="16" fill="#000" font-family="Helvetica Neue" font-size="16" font-weight="bold">Istio CNI</tspan> <tspan x="38.559" y="34.464" fill="#000" font-family="Helvetica Neue" font-size="16">Setup iptables rules and veth pair for node</tspan></text></g><g id="Graphic_70"><rect width="391.181" height="28.514" x="1767.402" y="1812.588" fill="#dadada"/><rect width="391.181" height="28.514" x="1767.402" y="1812.588" stroke="gray" stroke-linecap="round" stroke-linejoin="round" stroke-width="1"/><text fill="#000" transform="translate(1772.4016 1817.1131)"><tspan x="173.991" y="16" fill="#000" font-family="Helvetica Neue" font-size="16" font-weight="bold">eth0</tspan></text></g><g id="Graphic_21"><rect width="391.181" height="57.734" x="1767.402" y="1735.571" fill="#fff"/><rect width="391.181" height="57.734" x="1767.402" y="1735.571" stroke="gray" stroke-linecap="round" stroke-linejoin="round" stroke-width="1"/><text fill="#000" transform="translate(1772.4016 1745.4815)"><tspan x="157.727" y="16" fill="#000" font-family="Helvetica Neue" font-size="16" font-weight="bold">Istio CNI</tspan> <tspan x="38.559" y="34.464" fill="#000" font-family="Helvetica Neue" font-size="16">Setup iptables rules and veth pair for node</tspan></text></g><g id="Graphic_26"><rect width="391.181" height="57.734" x="1767.402" y="1331.348" fill="#dadada"/><rect width="391.181" height="57.734" x="1767.402" y="1331.348" stroke="gray" stroke-linecap="round" stroke-linejoin="round" stroke-width="1"/><text fill="#000" transform="translate(1772.4016 1341.2592)"><tspan x="162.767" y="16" fill="#000" font-family="Helvetica Neue" font-size="16" font-weight="bold">pistioin</tspan> <tspan x="139.439" y="34.464" fill="#000" font-family="Helvetica Neue" font-size="16">192.168.126.2</tspan></text></g><g id="Graphic_20"><rect width="391.181" height="57.734" x="1767.402" y="1412.462" fill="#f4f9ff"/><path stroke="gray" stroke-dasharray="4 4" stroke-linecap="round" stroke-linejoin="round" stroke-width="1" d="M 1767.4016 1412.4619 L 2158.5827 1412.4619 L 2158.5827 1470.1956 L 1767.4016 1470.1956 Z"/><text fill="#000" transform="translate(1772.4016 1422.3727)"><tspan x="140.535" y="16" fill="#000" font-family="Helvetica Neue" font-size="16" font-weight="bold">init container</tspan> <tspan x="79.767" y="34.464" fill="#000" font-family="Helvetica Neue" font-size="16">Setup iptables rules for ztunnel</tspan></text></g><g id="Graphic_73"><rect width="70.752" height="28.346" x="1890.937" y="1196.661" fill="#0a55a8"/><text fill="#fff" transform="translate(1895.937 1201.1027)"><tspan x="8.136" y="16" fill="#fff" font-family="Helvetica Neue" font-size="16" font-weight="bold">15006</tspan></text></g><g id="Graphic_25"><rect width="391.181" height="24.336" x="1767.402" y="1289.318" fill="#f4f9ff"/><text fill="#000" transform="translate(1772.4016 1291.7541)"><tspan x="166.583" y="16" fill="#000" font-family="Helvetica Neue" font-size="16" font-weight="bold">tproxy</tspan></text></g><g id="Graphic_76"><rect width="289.936" height="39.684" x="1820.15" y="1676.603" fill="#fff"/><text fill="#000" transform="translate(1825.1501 1681.6031)"><tspan x="34.992" y="12" fill="#000" font-family="Helvetica Neue" font-size="12" font-weight="bold">iptables chain ztunnel-PREROUTING</tspan> <tspan x="89.946" y="26.348" fill="#000" font-family="Helvetica Neue" font-size="12">mark 0x200/0x200</tspan></text></g><g id="Graphic_77"><rect width="243.071" height="24.336" x="1841.457" y="1534.719" fill="#fff"/><text fill="#000" transform="translate(1846.4567 1539.7191)"><tspan x="77.859" y="11" fill="#000" font-family="Helvetica Neue" font-size="12">Geneva tunnel</tspan></text></g><g id="Graphic_78"><rect width="136.772" height="21.258" x="1894.606" y="985.039" fill="#dadada"/><rect width="136.772" height="21.258" x="1894.606" y="985.039" stroke="gray" stroke-linecap="round" stroke-linejoin="round" stroke-width="1"/><text fill="#000" transform="translate(1899.6063 985.9361)"><tspan x="46.786" y="16" fill="#000" font-family="Helvetica Neue" font-size="16" font-weight="bold">eth0</tspan></text></g><g id="Graphic_79"><rect width="98.922" height="28.346" x="1913.531" y="839.055" fill="#dadada"/><text fill="#000" transform="translate(1918.531 843.4963)"><tspan x="27.861" y="16" fill="#000" font-family="Helvetica Neue" font-size="16" font-weight="bold">eth0</tspan></text></g><g id="Graphic_80"><rect width="391.181" height="21.258" x="1767.402" y="939.685" fill="#dadada"/><rect width="391.181" height="21.258" x="1767.402" y="939.685" stroke="gray" stroke-linecap="round" stroke-linejoin="round" stroke-width="1"/><text fill="#000" transform="translate(1772.4016 940.5818)"><tspan x="161.391" y="16" fill="#000" font-family="Helvetica Neue" font-size="16" font-weight="bold">vethxxx</tspan></text></g><g id="Graphic_81"><rect width="391.181" height="21.258" x="1767.402" y="892.915" fill="#dadada"/><rect width="391.181" height="21.258" x="1767.402" y="892.915" stroke="gray" stroke-linecap="round" stroke-linejoin="round" stroke-width="1"/><text fill="#000" transform="translate(1772.4016 893.8113)"><tspan x="161.391" y="16" fill="#000" font-family="Helvetica Neue" font-size="16" font-weight="bold">vethxxx</tspan></text></g><g id="Line_82"><line x1="1962.992" x2="1962.992" y1="939.685" y2="924.072" stroke="#000" stroke-linecap="round" stroke-linejoin="round" stroke-width="1" marker-end="url(#FilledArrow_Marker)"/></g><g id="Line_83"><line x1="1962.992" x2="1962.992" y1="892.915" y2="877.302" stroke="#000" stroke-linecap="round" stroke-linejoin="round" stroke-width="1" marker-end="url(#FilledArrow_Marker)"/></g><g id="Line_84"><line x1="1442.835" x2="1757.502" y1="1826.906" y2="1826.869" stroke="#000" stroke-linecap="round" stroke-linejoin="round" stroke-width="1" marker-end="url(#FilledArrow_Marker)"/></g><g id="Graphic_85"><rect width="70.752" height="28.346" x="1961.689" y="1196.661" fill="#0a55a8"/><text fill="#fff" transform="translate(1966.689 1201.1027)"><tspan x="8.136" y="16" fill="#fff" font-family="Helvetica Neue" font-size="16" font-weight="bold">15008</tspan></text></g><g id="Line_87"><path stroke="#000" stroke-linecap="round" stroke-linejoin="round" stroke-width="1" marker-end="url(#FilledArrow_Marker)" d="M 1962.9921 1289.3182 L 1962.9921 1276.4975 L 1926.313 1276.4975 L 1926.313 1234.908"/></g><g id="Line_88"><path stroke="#000" stroke-linecap="round" stroke-linejoin="round" stroke-width="1" marker-end="url(#FilledArrow_Marker)" d="M 1962.9921 1289.3182 L 1962.9921 1276.3726 L 1997.065 1276.3726 L 1997.065 1234.908"/></g><g id="Graphic_89"><rect width="58.11" height="24.336" x="1968.01" y="1243.645" fill="#f4f9ff"/><text fill="#000" transform="translate(1973.0098 1248.6446)"><tspan x="13.387" y="11" fill="#000" font-family="Helvetica Neue" font-size="12">TLS</tspan></text></g><g id="Graphic_90"><rect width="58.11" height="24.336" x="1897.258" y="1246.462" fill="#f4f9ff"/><text fill="#000" transform="translate(1902.2578 1251.4618)"><tspan x="10.945" y="11" fill="#000" font-family="Helvetica Neue" font-size="12">Plain</tspan></text></g><g id="Line_91"><path stroke="#000" stroke-linecap="round" stroke-linejoin="round" stroke-width="1" marker-end="url(#FilledArrow_Marker)" d="M 1926.313 1196.6615 L 1926.313 1174.4192 L 1962.9921 1174.4192 L 1962.9921 1162.077"/></g><g id="Line_92"><path stroke="#000" stroke-linecap="round" stroke-linejoin="round" stroke-width="1" marker-end="url(#FilledArrow_Marker)" d="M 1997.065 1196.6615 L 1997.065 1174.4192 L 1962.9921 1174.4192 L 1962.9921 1162.077"/></g><g id="Line_93"><line x1="1962.992" x2="1962.992" y1="1056.694" y2="1016.197" stroke="#000" stroke-linecap="round" stroke-linejoin="round" stroke-width="1" marker-end="url(#FilledArrow_Marker)"/></g></g></g></svg>