<?xml version="1.0" encoding="UTF-8" standalone="no"?>
<!DOCTYPE svg PUBLIC "-//W3C//DTD SVG 1.1//EN" "http://www.w3.org/Graphics/SVG/1.1/DTD/svg11.dtd">
<svg xmlns:dc="http://purl.org/dc/elements/1.1/" version="1.1" xmlns="http://www.w3.org/2000/svg" xmlns:xl="http://www.w3.org/1999/xlink" viewBox="-3614 2775 1124 652" width="1124" height="652">
  <defs>
    <marker orient="auto" overflow="visible" markerUnits="strokeWidth" id="FilledArrow_Marker" stroke-linejoin="miter" stroke-miterlimit="10" viewBox="-1 -3 7 6" markerWidth="7" markerHeight="6" color="black">
      <g>
        <path d="M 4.8 0 L 0 -1.8 L 0 1.8 Z" fill="currentColor" stroke="currentColor" stroke-width="1"/>
      </g>
    </marker>
  </defs>
  <g id="gateway-api-request" stroke-opacity="1" stroke="none" fill="none" fill-opacity="1" stroke-dasharray="none">
    <title>gateway-api-request</title>
    <rect fill="white" x="-3614" y="2775" width="1124" height="652"/>
    <g id="gateway-api-request_jimmysong">
      <title>jimmysong</title>
      <g id="Graphic_54">
        <text transform="translate(-3608.5 3174.978)" fill="black">
          <tspan font-family="Helvetica Neue" font-weight="bold" font-size="18" fill="black" x="390.999" y="18">South-East Request (Ingress Gateway)</tspan>
        </text>
      </g>
      <g id="Graphic_53">
        <text transform="translate(-3608.5 3398.978)" fill="black">
          <tspan font-family="Helvetica Neue" font-weight="bold" font-size="18" fill="black" x="407.874" y="18">West-East Request (Mesh Internal)</tspan>
        </text>
      </g>
      <g id="Graphic_52">
        <text transform="translate(-3608.5 2950.978)" fill="black">
          <tspan font-family="Helvetica Neue" font-weight="bold" font-size="18" fill="black" x="433.182" y="18">Kubernetes Internal Request</tspan>
        </text>
      </g>
      <g id="Line_51">
        <line x1="-3470.5" y1="2869.6027" x2="-3254.9" y2="2869.6027" marker-end="url(#FilledArrow_Marker)" stroke="black" stroke-linecap="round" stroke-linejoin="round" stroke-width="2"/>
      </g>
      <g id="Line_50">
        <path d="M -3120.5 2869.6027 L -3109.5 2869.6027 L -2927.498 2869.762 L -2927.498 2817.5 L -2868.4 2817.5" marker-end="url(#FilledArrow_Marker)" stroke="black" stroke-linecap="round" stroke-linejoin="round" stroke-width="2"/>
      </g>
      <g id="Line_49">
        <path d="M -3120.5 2869.6027 L -3109.5 2869.6027 L -2927.498 2869.762 L -2927.498 2923.5 L -2868.4 2923.5" marker-end="url(#FilledArrow_Marker)" stroke="black" stroke-linecap="round" stroke-linejoin="round" stroke-width="2"/>
      </g>
      <g id="Graphic_48">
        <text transform="translate(-3446.604 2847.1027)" fill="#666">
          <tspan font-family="Helvetica Neue" font-style="italic" font-size="16" fill="#666" x="881073e-18" y="15">DNS name or Cluster IP</tspan>
        </text>
      </g>
      <g id="Graphic_47">
        <text transform="translate(-3095.952 2847.1027)" fill="#666">
          <tspan font-family="Helvetica Neue" font-style="italic" font-size="16" fill="#666" x="0" y="15">Workload Selector</tspan>
        </text>
      </g>
      <g id="Line_46">
        <line x1="-3470.5" y1="3100" x2="-3389.4" y2="3100" marker-end="url(#FilledArrow_Marker)" stroke="black" stroke-linecap="round" stroke-linejoin="round" stroke-width="2"/>
      </g>
      <g id="Graphic_45">
        <text transform="translate(-3453.132 3078.5)" fill="#666">
          <tspan font-family="Helvetica Neue" font-style="italic" font-size="16" fill="#666" x="0" y="15">Request</tspan>
        </text>
      </g>
      <g id="Line_44">
        <line x1="-3255" y1="3100" x2="-2931.4" y2="3100" marker-end="url(#FilledArrow_Marker)" stroke="black" stroke-linecap="round" stroke-linejoin="round" stroke-width="2"/>
      </g>
      <g id="Graphic_43">
        <path d="M -3234 2842.1027 L -3128.5 2842.1027 C -3124.0817 2842.1027 -3120.5 2845.6844 -3120.5 2850.1027 L -3120.5 2889.1027 C -3120.5 2893.521 -3124.0817 2897.1027 -3128.5 2897.1027 L -3234 2897.1027 C -3238.4183 2897.1027 -3242 2893.521 -3242 2889.1027 L -3242 2850.1027 C -3242 2845.6844 -3238.4183 2842.1027 -3234 2842.1027 Z" fill="#0a55a8"/>
        <text transform="translate(-3237 2859.8706)" fill="white">
          <tspan font-family="Helvetica Neue" font-weight="bold" font-size="16" fill="white" x="27.446" y="16">Service</tspan>
        </text>
      </g>
      <g id="Graphic_42">
        <path d="M -3584 2842.1027 L -3478.5 2842.1027 C -3474.0817 2842.1027 -3470.5 2845.6844 -3470.5 2850.1027 L -3470.5 2889.1027 C -3470.5 2893.521 -3474.0817 2897.1027 -3478.5 2897.1027 L -3584 2897.1027 C -3588.4183 2897.1027 -3592 2893.521 -3592 2889.1027 L -3592 2850.1027 C -3592 2845.6844 -3588.4183 2842.1027 -3584 2842.1027 Z" fill="#0a55a8"/>
        <text transform="translate(-3587 2859.8706)" fill="white">
          <tspan font-family="Helvetica Neue" font-weight="bold" font-size="16" fill="white" x="33.542" y="16">Client</tspan>
        </text>
      </g>
      <g id="Graphic_41">
        <path d="M -2847.5 2790 L -2742 2790 C -2737.5817 2790 -2734 2793.5817 -2734 2798 L -2734 2837 C -2734 2841.4183 -2737.5817 2845 -2742 2845 L -2847.5 2845 C -2851.9183 2845 -2855.5 2841.4183 -2855.5 2837 L -2855.5 2798 C -2855.5 2793.5817 -2851.9183 2790 -2847.5 2790 Z" fill="#0a55a8"/>
        <text transform="translate(-2850.5 2807.768)" fill="white">
          <tspan font-family="Helvetica Neue" font-weight="bold" font-size="16" fill="white" x="40.638" y="16">Pod</tspan>
        </text>
      </g>
      <g id="Graphic_40">
        <path d="M -2847.5 2896 L -2742 2896 C -2737.5817 2896 -2734 2899.5817 -2734 2904 L -2734 2943 C -2734 2947.4183 -2737.5817 2951 -2742 2951 L -2847.5 2951 C -2851.9183 2951 -2855.5 2947.4183 -2855.5 2943 L -2855.5 2904 C -2855.5 2899.5817 -2851.9183 2896 -2847.5 2896 Z" fill="#0a55a8"/>
        <text transform="translate(-2850.5 2913.768)" fill="white">
          <tspan font-family="Helvetica Neue" font-weight="bold" font-size="16" fill="white" x="40.638" y="16">Pod</tspan>
        </text>
      </g>
      <g id="Graphic_39">
        <path d="M -3584 3072.5 L -3478.5 3072.5 C -3474.0817 3072.5 -3470.5 3076.0817 -3470.5 3080.5 L -3470.5 3119.5 C -3470.5 3123.9183 -3474.0817 3127.5 -3478.5 3127.5 L -3584 3127.5 C -3588.4183 3127.5 -3592 3123.9183 -3592 3119.5 L -3592 3080.5 C -3592 3076.0817 -3588.4183 3072.5 -3584 3072.5 Z" fill="#0a55a8"/>
        <text transform="translate(-3587 3090.268)" fill="white">
          <tspan font-family="Helvetica Neue" font-weight="bold" font-size="16" fill="white" x="33.542" y="16">Client</tspan>
        </text>
      </g>
      <g id="Graphic_38">
        <path d="M -3368.5 3072.5 L -3263 3072.5 C -3258.5817 3072.5 -3255 3076.0817 -3255 3080.5 L -3255 3119.5 C -3255 3123.9183 -3258.5817 3127.5 -3263 3127.5 L -3368.5 3127.5 C -3372.9183 3127.5 -3376.5 3123.9183 -3376.5 3119.5 L -3376.5 3080.5 C -3376.5 3076.0817 -3372.9183 3072.5 -3368.5 3072.5 Z" fill="#0a55a8"/>
        <text transform="translate(-3371.5 3090.268)" fill="white">
          <tspan font-family="Helvetica Neue" font-weight="bold" font-size="16" fill="white" x="22.422" y="16">Gateway</tspan>
        </text>
      </g>
      <g id="Graphic_37">
        <path d="M -2910.5 3072.5 L -2805 3072.5 C -2800.5817 3072.5 -2797 3076.0817 -2797 3080.5 L -2797 3119.5 C -2797 3123.9183 -2800.5817 3127.5 -2805 3127.5 L -2910.5 3127.5 C -2914.9183 3127.5 -2918.5 3123.9183 -2918.5 3119.5 L -2918.5 3080.5 C -2918.5 3076.0817 -2914.9183 3072.5 -2910.5 3072.5 Z" fill="#0a55a8"/>
        <text transform="translate(-2913.5 3090.268)" fill="white">
          <tspan font-family="Helvetica Neue" font-weight="bold" font-size="16" fill="white" x="27.446" y="16">Service</tspan>
        </text>
      </g>
      <g id="Graphic_36">
        <path d="M -3183.6428 3072.5 L -3078.1428 3072.5 C -3073.7245 3072.5 -3070.1428 3076.0817 -3070.1428 3080.5 L -3070.1428 3119.5 C -3070.1428 3123.9183 -3073.7245 3127.5 -3078.1428 3127.5 L -3183.6428 3127.5 C -3188.061 3127.5 -3191.6428 3123.9183 -3191.6428 3119.5 L -3191.6428 3080.5 C -3191.6428 3076.0817 -3188.061 3072.5 -3183.6428 3072.5 Z" fill="#0a55a8"/>
        <text transform="translate(-3186.6428 3090.268)" fill="white">
          <tspan font-family="Helvetica Neue" font-weight="bold" font-size="16" fill="white" x="28.638" y="16">xRoute</tspan>
        </text>
      </g>
      <g id="Line_35">
        <path d="M -3130.8928 3072.5 L -3130.8928 3033.2743 L -3315.75 3033.2743 L -3315.75 3059.6" marker-end="url(#FilledArrow_Marker)" stroke="black" stroke-linecap="round" stroke-linejoin="round" stroke-dasharray="8.0,8.0" stroke-width="2"/>
      </g>
      <g id="Graphic_34">
        <text transform="translate(-3271.5 3008.5)" fill="#666">
          <tspan font-family="Helvetica Neue" font-style="italic" font-size="16" fill="#666" x="47606363e-20" y="15">parentRefs</tspan>
        </text>
      </g>
      <g id="Graphic_33">
        <text transform="translate(-3047.5 3078.5)" fill="#666">
          <tspan font-family="Helvetica Neue" font-style="italic" font-size="16" fill="#666" x="4405365e-19" y="15">backendRefs</tspan>
        </text>
      </g>
      <g id="Graphic_32">
        <path d="M -2617.5 3019.5 L -2512 3019.5 C -2507.5817 3019.5 -2504 3023.0817 -2504 3027.5 L -2504 3066.5 C -2504 3070.9183 -2507.5817 3074.5 -2512 3074.5 L -2617.5 3074.5 C -2621.9183 3074.5 -2625.5 3070.9183 -2625.5 3066.5 L -2625.5 3027.5 C -2625.5 3023.0817 -2621.9183 3019.5 -2617.5 3019.5 Z" fill="#0a55a8"/>
        <text transform="translate(-2620.5 3037.268)" fill="white">
          <tspan font-family="Helvetica Neue" font-weight="bold" font-size="16" fill="white" x="40.638" y="16">Pod</tspan>
        </text>
      </g>
      <g id="Graphic_31">
        <path d="M -2617.5 3125.5 L -2512 3125.5 C -2507.5817 3125.5 -2504 3129.0817 -2504 3133.5 L -2504 3172.5 C -2504 3176.9183 -2507.5817 3180.5 -2512 3180.5 L -2617.5 3180.5 C -2621.9183 3180.5 -2625.5 3176.9183 -2625.5 3172.5 L -2625.5 3133.5 C -2625.5 3129.0817 -2621.9183 3125.5 -2617.5 3125.5 Z" fill="#0a55a8"/>
        <text transform="translate(-2620.5 3143.268)" fill="white">
          <tspan font-family="Helvetica Neue" font-weight="bold" font-size="16" fill="white" x="40.638" y="16">Pod</tspan>
        </text>
      </g>
      <g id="Line_30">
        <path d="M -2797 3100 L -2711.25 3100 L -2711.25 3047 L -2638.4 3047" marker-end="url(#FilledArrow_Marker)" stroke="black" stroke-linecap="round" stroke-linejoin="round" stroke-width="2"/>
      </g>
      <g id="Line_29">
        <path d="M -2797 3100 L -2711.25 3100 L -2711.25 3153 L -2638.4 3153" marker-end="url(#FilledArrow_Marker)" stroke="black" stroke-linecap="round" stroke-linejoin="round" stroke-width="2"/>
      </g>
      <g id="Graphic_28">
        <text transform="translate(-2794.0387 3081.552)" fill="#666">
          <tspan font-family="Helvetica Neue" font-style="italic" font-size="16" fill="#666" x="0" y="15">Workload</tspan>
          <tspan font-family="Helvetica Neue" font-style="italic" font-size="16" fill="#666" x="3.696" y="33.448">Selector</tspan>
        </text>
      </g>
      <g id="Line_27">
        <path d="M -3468.747 3329 L -3457.747 3329 L -3375 3328 L -3364 3328" stroke="black" stroke-linecap="round" stroke-linejoin="round" stroke-width="2"/>
      </g>
      <g id="Graphic_26">
        <text transform="translate(-3440.632 3306.5)" fill="#666">
          <tspan font-family="Helvetica Neue" font-style="italic" font-size="16" fill="#666" x="0" y="15">Request</tspan>
        </text>
      </g>
      <g id="Line_25">
        <line x1="-3242.5" y1="3328" x2="-2931.4" y2="3328" marker-end="url(#FilledArrow_Marker)" stroke="black" stroke-linecap="round" stroke-linejoin="round" stroke-width="2"/>
      </g>
      <g id="Graphic_24">
        <path d="M -3356 3300.5 L -3250.5 3300.5 C -3246.0817 3300.5 -3242.5 3304.0817 -3242.5 3308.5 L -3242.5 3347.5 C -3242.5 3351.9183 -3246.0817 3355.5 -3250.5 3355.5 L -3356 3355.5 C -3360.4183 3355.5 -3364 3351.9183 -3364 3347.5 L -3364 3308.5 C -3364 3304.0817 -3360.4183 3300.5 -3356 3300.5 Z" fill="#0a55a8"/>
        <text transform="translate(-3359 3318.268)" fill="white">
          <tspan font-family="Helvetica Neue" font-weight="bold" font-size="16" fill="white" x="19.742" y="16">Service A</tspan>
        </text>
      </g>
      <g id="Graphic_23">
        <path d="M -2910.5 3300.5 L -2805 3300.5 C -2800.5817 3300.5 -2797 3304.0817 -2797 3308.5 L -2797 3347.5 C -2797 3351.9183 -2800.5817 3355.5 -2805 3355.5 L -2910.5 3355.5 C -2914.9183 3355.5 -2918.5 3351.9183 -2918.5 3347.5 L -2918.5 3308.5 C -2918.5 3304.0817 -2914.9183 3300.5 -2910.5 3300.5 Z" fill="#0a55a8"/>
        <text transform="translate(-2913.5 3318.268)" fill="white">
          <tspan font-family="Helvetica Neue" font-weight="bold" font-size="16" fill="white" x="11.142" y="16">Service A/B</tspan>
        </text>
      </g>
      <g id="Graphic_22">
        <path d="M -3175.753 3300.5 L -3070.253 3300.5 C -3065.8347 3300.5 -3062.253 3304.0817 -3062.253 3308.5 L -3062.253 3347.5 C -3062.253 3351.9183 -3065.8347 3355.5 -3070.253 3355.5 L -3175.753 3355.5 C -3180.1713 3355.5 -3183.753 3351.9183 -3183.753 3347.5 L -3183.753 3308.5 C -3183.753 3304.0817 -3180.1713 3300.5 -3175.753 3300.5 Z" fill="#0a55a8"/>
        <text transform="translate(-3178.753 3318.268)" fill="white">
          <tspan font-family="Helvetica Neue" font-weight="bold" font-size="16" fill="white" x="28.638" y="16">xRoute</tspan>
        </text>
      </g>
      <g id="Line_21">
        <path d="M -3123.003 3300.5 L -3123.003 3261.2743 L -3303.25 3261.2743 L -3303.25 3287.6" marker-end="url(#FilledArrow_Marker)" stroke="black" stroke-linecap="round" stroke-linejoin="round" stroke-dasharray="8.0,8.0" stroke-width="2"/>
      </g>
      <g id="Graphic_20">
        <text transform="translate(-3259 3236.5)" fill="#666">
          <tspan font-family="Helvetica Neue" font-style="italic" font-size="16" fill="#666" x="47606363e-20" y="15">parentRefs</tspan>
        </text>
      </g>
      <g id="Graphic_19">
        <text transform="translate(-3047.5 3306.5)" fill="#666">
          <tspan font-family="Helvetica Neue" font-style="italic" font-size="16" fill="#666" x="4405365e-19" y="15">backendRefs</tspan>
        </text>
      </g>
      <g id="Graphic_18">
        <path d="M -2617.5 3247.5 L -2512 3247.5 C -2507.5817 3247.5 -2504 3251.0817 -2504 3255.5 L -2504 3294.5 C -2504 3298.9183 -2507.5817 3302.5 -2512 3302.5 L -2617.5 3302.5 C -2621.9183 3302.5 -2625.5 3298.9183 -2625.5 3294.5 L -2625.5 3255.5 C -2625.5 3251.0817 -2621.9183 3247.5 -2617.5 3247.5 Z" fill="#0a55a8"/>
        <text transform="translate(-2620.5 3265.268)" fill="white">
          <tspan font-family="Helvetica Neue" font-weight="bold" font-size="16" fill="white" x="40.638" y="16">Pod</tspan>
        </text>
      </g>
      <g id="Graphic_17">
        <path d="M -2617.5 3353.5 L -2512 3353.5 C -2507.5817 3353.5 -2504 3357.0817 -2504 3361.5 L -2504 3400.5 C -2504 3404.9183 -2507.5817 3408.5 -2512 3408.5 L -2617.5 3408.5 C -2621.9183 3408.5 -2625.5 3404.9183 -2625.5 3400.5 L -2625.5 3361.5 C -2625.5 3357.0817 -2621.9183 3353.5 -2617.5 3353.5 Z" fill="#0a55a8"/>
        <text transform="translate(-2620.5 3371.268)" fill="white">
          <tspan font-family="Helvetica Neue" font-weight="bold" font-size="16" fill="white" x="40.638" y="16">Pod</tspan>
        </text>
      </g>
      <g id="Line_16">
        <path d="M -2797 3328 L -2711.25 3328 L -2711.25 3275 L -2638.4 3275" marker-end="url(#FilledArrow_Marker)" stroke="black" stroke-linecap="round" stroke-linejoin="round" stroke-width="2"/>
      </g>
      <g id="Line_15">
        <path d="M -2797 3328 L -2711.25 3328 L -2711.25 3381 L -2638.4 3381" marker-end="url(#FilledArrow_Marker)" stroke="black" stroke-linecap="round" stroke-linejoin="round" stroke-width="2"/>
      </g>
      <g id="Graphic_14">
        <text transform="translate(-2794.0387 3309.552)" fill="#666">
          <tspan font-family="Helvetica Neue" font-style="italic" font-size="16" fill="#666" x="0" y="15">Workload</tspan>
          <tspan font-family="Helvetica Neue" font-style="italic" font-size="16" fill="#666" x="3.696" y="33.448">Selector</tspan>
        </text>
      </g>
      <g id="Graphic_13">
        <path d="M -3577.753 3301.5 L -3539 3301.5 C -3534.5817 3301.5 -3531 3305.0817 -3531 3309.5 L -3531 3348.5 C -3531 3352.9183 -3534.5817 3356.5 -3539 3356.5 L -3577.753 3356.5 C -3582.1713 3356.5 -3585.753 3352.9183 -3585.753 3348.5 L -3585.753 3309.5 C -3585.753 3305.0817 -3582.1713 3301.5 -3577.753 3301.5 Z" fill="#0a55a8"/>
        <text transform="translate(-3580.753 3319.268)" fill="white">
          <tspan font-family="Helvetica Neue" font-weight="bold" font-size="16" fill="white" x="7.1205335" y="16">App</tspan>
        </text>
      </g>
      <g id="Group_5">
        <g id="Graphic_12">
          <path d="M -3515.5 3301.5 L -3476.747 3301.5 C -3472.3287 3301.5 -3468.747 3305.0817 -3468.747 3309.5 L -3468.747 3348.5 C -3468.747 3352.9183 -3472.3287 3356.5 -3476.747 3356.5 L -3515.5 3356.5 C -3519.9183 3356.5 -3523.5 3352.9183 -3523.5 3348.5 L -3523.5 3309.5 C -3523.5 3305.0817 -3519.9183 3301.5 -3515.5 3301.5 Z" fill="#0a55a8"/>
        </g>
        <g id="Group_6">
          <g id="Graphic_11">
            <path d="M -3514.6595 3341.5486 C -3514.6595 3341.8787 -3514.5845 3342.1937 -3514.4345 3342.4638 C -3514.2845 3342.734 -3514.0894 3342.974 -3513.8644 3343.169 C -3513.6243 3343.364 -3513.3543 3343.514 -3513.0392 3343.619 C -3512.724 3343.724 -3512.394 3343.784 -3512.064 3343.784 C -3511.614 3343.784 -3511.209 3343.679 -3510.879 3343.469 C -3510.5487 3343.259 -3510.2337 3342.974 -3509.9486 3342.629 L -3508.8384 3343.469 C -3509.6486 3344.519 -3510.789 3345.0443 -3512.244 3345.0443 C -3512.844 3345.0443 -3513.3993 3344.9393 -3513.8944 3344.7292 C -3514.3895 3344.519 -3514.8096 3344.234 -3515.1396 3343.874 C -3515.4847 3343.514 -3515.7397 3343.079 -3515.9198 3342.599 C -3516.1 3342.1037 -3516.19 3341.5786 -3516.19 3340.9935 C -3516.19 3340.4234 -3516.085 3339.8833 -3515.8898 3339.388 C -3515.6947 3338.893 -3515.4097 3338.473 -3515.0646 3338.113 C -3514.7195 3337.753 -3514.2995 3337.468 -3513.8044 3337.2578 C -3513.3243 3337.0477 -3512.784 3336.9427 -3512.214 3336.9427 C -3511.539 3336.9427 -3510.954 3337.0627 -3510.4887 3337.3028 C -3510.0236 3337.543 -3509.6336 3337.858 -3509.3335 3338.233 C -3509.0335 3338.623 -3508.8084 3339.043 -3508.6734 3339.5382 C -3508.5384 3340.0183 -3508.4633 3340.5134 -3508.4633 3341.0085 L -3508.4633 3341.5336 L -3514.6595 3341.5336 Z M -3510.0386 3340.3934 C -3510.0536 3340.0633 -3510.0987 3339.7783 -3510.1887 3339.5082 C -3510.2787 3339.238 -3510.4137 3338.998 -3510.6088 3338.803 C -3510.789 3338.608 -3511.029 3338.443 -3511.299 3338.338 C -3511.569 3338.218 -3511.899 3338.173 -3512.259 3338.173 C -3512.619 3338.173 -3512.949 3338.248 -3513.2343 3338.383 C -3513.5343 3338.518 -3513.7894 3338.698 -3513.9844 3338.908 C -3514.1944 3339.118 -3514.3445 3339.358 -3514.4645 3339.6282 C -3514.5845 3339.8983 -3514.6295 3340.1533 -3514.6295 3340.4084 L -3510.0386 3340.4084 Z M -3507.218 3337.1678 L -3505.763 3337.1678 L -3505.763 3338.353 L -3505.733 3338.353 C -3505.5528 3337.948 -3505.2227 3337.603 -3504.7726 3337.363 C -3504.3225 3337.1078 -3503.7974 3336.9877 -3503.1973 3336.9877 C -3502.8223 3336.9877 -3502.477 3337.0477 -3502.132 3337.1528 C -3501.787 3337.2728 -3501.487 3337.438 -3501.247 3337.678 C -3500.992 3337.918 -3500.797 3338.218 -3500.632 3338.593 C -3500.482 3338.968 -3500.407 3339.4032 -3500.407 3339.9133 L -3500.407 3344.8643 L -3501.862 3344.8643 L -3501.862 3340.3184 C -3501.862 3339.9583 -3501.907 3339.6582 -3502.012 3339.4032 C -3502.102 3339.148 -3502.237 3338.938 -3502.402 3338.788 C -3502.567 3338.638 -3502.7472 3338.518 -3502.9573 3338.443 C -3503.1673 3338.368 -3503.3924 3338.338 -3503.6174 3338.338 C -3503.9175 3338.338 -3504.2025 3338.383 -3504.4576 3338.488 C -3504.7126 3338.593 -3504.9377 3338.743 -3505.1327 3338.953 C -3505.3277 3339.163 -3505.4778 3339.4332 -3505.5828 3339.7633 C -3505.688 3340.0933 -3505.748 3340.4684 -3505.748 3340.9185 L -3505.748 3344.8793 L -3507.203 3344.8793 L -3507.203 3337.1678 Z M -3498.2464 3337.1678 L -3495.951 3343.064 L -3493.7455 3337.1678 L -3492.185 3337.1678 L -3495.2008 3344.8643 L -3496.806 3344.8643 L -3499.9417 3337.1678 Z M -3492.08 3341.0235 C -3492.08 3340.4684 -3491.975 3339.9433 -3491.765 3339.4482 C -3491.555 3338.968 -3491.27 3338.533 -3490.895 3338.173 C -3490.52 3337.813 -3490.1 3337.513 -3489.5897 3337.3028 C -3489.0946 3337.0928 -3488.5545 3336.9877 -3487.9844 3336.9877 C -3487.4143 3336.9877 -3486.874 3337.0928 -3486.379 3337.3028 C -3485.884 3337.513 -3485.449 3337.798 -3485.074 3338.173 C -3484.7138 3338.548 -3484.4137 3338.968 -3484.2037 3339.4482 C -3483.9936 3339.9283 -3483.8886 3340.4534 -3483.8886 3341.0235 C -3483.8886 3341.5786 -3483.9936 3342.1187 -3484.2037 3342.599 C -3484.4137 3343.094 -3484.6988 3343.514 -3485.074 3343.874 C -3485.449 3344.234 -3485.869 3344.519 -3486.379 3344.7292 C -3486.874 3344.9393 -3487.4143 3345.0443 -3487.9844 3345.0443 C -3488.5545 3345.0443 -3489.0946 3344.9393 -3489.5897 3344.7292 C -3490.085 3344.519 -3490.52 3344.234 -3490.895 3343.874 C -3491.27 3343.514 -3491.555 3343.079 -3491.765 3342.599 C -3491.975 3342.1037 -3492.08 3341.5786 -3492.08 3341.0235 Z M -3490.535 3341.0235 C -3490.535 3341.4136 -3490.475 3341.7737 -3490.355 3342.1037 C -3490.235 3342.4338 -3490.07 3342.719 -3489.8448 3342.944 C -3489.6347 3343.184 -3489.3647 3343.364 -3489.0496 3343.499 C -3488.7345 3343.634 -3488.3895 3343.709 -3487.9994 3343.709 C -3487.6093 3343.709 -3487.2643 3343.649 -3486.949 3343.499 C -3486.634 3343.364 -3486.364 3343.184 -3486.154 3342.944 C -3485.944 3342.719 -3485.764 3342.4338 -3485.644 3342.1037 C -3485.524 3341.7737 -3485.464 3341.4136 -3485.464 3341.0235 C -3485.464 3340.6334 -3485.524 3340.2734 -3485.644 3339.9433 C -3485.764 3339.6132 -3485.929 3339.328 -3486.154 3339.103 C -3486.364 3338.878 -3486.634 3338.683 -3486.949 3338.548 C -3487.2643 3338.413 -3487.6093 3338.338 -3487.9994 3338.338 C -3488.3895 3338.338 -3488.7345 3338.413 -3489.0496 3338.548 C -3489.3647 3338.683 -3489.6347 3338.863 -3489.8448 3339.103 C -3490.055 3339.343 -3490.235 3339.6132 -3490.355 3339.9433 C -3490.475 3340.2734 -3490.535 3340.6334 -3490.535 3341.0235 Z M -3483.7986 3337.1678 L -3482.1183 3337.1678 L -3479.838 3343.169 L -3479.808 3343.169 L -3477.6174 3337.1678 L -3476.057 3337.1678 L -3479.703 3346.5146 L -3480.108 3347.4297 C -3480.243 3347.6998 -3480.408 3347.94 -3480.603 3348.135 C -3480.798 3348.33 -3481.038 3348.48 -3481.308 3348.585 C -3481.578 3348.69 -3481.9232 3348.75 -3482.3133 3348.75 C -3482.5233 3348.75 -3482.7484 3348.735 -3482.9734 3348.705 C -3483.1985 3348.675 -3483.4085 3348.615 -3483.6186 3348.54 L -3483.4385 3347.2047 C -3483.1535 3347.3247 -3482.8534 3347.3847 -3482.5684 3347.3847 C -3482.3433 3347.3847 -3482.1483 3347.3547 -3481.9982 3347.2947 C -3481.8482 3347.2347 -3481.713 3347.1447 -3481.593 3347.0397 C -3481.473 3346.9196 -3481.383 3346.7996 -3481.308 3346.6496 C -3481.233 3346.4996 -3481.158 3346.3195 -3481.083 3346.1245 L -3480.603 3344.9093 Z" fill="#0a55a8"/>
          </g>
          <g id="Group_7">
            <g id="Graphic_10">
              <path d="M -3502.4246 3324.8236 L -3502.4696 3322.783 L -3504.615 3321.448 L -3504.57 3323.4883 Z M -3499.379 3329.9246 L -3499.424 3327.929 L -3501.2994 3326.759 C -3501.3294 3326.744 -3501.3594 3326.714 -3501.3744 3326.699 L -3501.3294 3328.7093 Z M -3506.0853 3332.61 L -3510.9912 3329.5645 L -3511.1112 3324.4635 L -3508.7108 3323.4283 L -3508.756 3321.388 L -3512.5965 3323.0382 C -3512.8966 3323.1732 -3513.0766 3323.4433 -3513.0616 3323.7584 L -3512.9116 3329.8795 C -3512.9116 3330.1946 -3512.7166 3330.5097 -3512.4165 3330.6897 L -3506.5354 3334.3354 C -3506.2653 3334.5004 -3505.9353 3334.5454 -3505.65 3334.4704 C -3505.62 3334.4554 -3505.59 3334.4554 -3505.56 3334.4404 L -3501.9445 3332.88 L -3503.91 3331.665 Z" fill="#0a55a8"/>
            </g>
            <g id="Graphic_9">
              <path d="M -3490.2272 3321.328 C -3490.2422 3320.968 -3490.4523 3320.5928 -3490.8123 3320.3827 L -3497.9537 3315.957 L -3498.1788 3316.047 L -3498.1337 3318.1923 L -3492.4777 3321.703 L -3492.3426 3327.434 L -3490.1822 3328.7693 L -3490.062 3328.7243 Z M -3498.779 3331.395 L -3505.425 3327.284 L -3505.59 3320.3827 L -3502.5596 3319.0775 L -3502.6196 3316.692 L -3507.3155 3318.7174 C -3507.6606 3318.8674 -3507.8706 3319.1825 -3507.8556 3319.5576 L -3507.6606 3327.659 C -3507.6606 3328.034 -3507.4355 3328.3943 -3507.0755 3328.6043 L -3499.289 3333.4352 C -3498.974 3333.6303 -3498.584 3333.6903 -3498.2538 3333.5853 C -3498.2238 3333.5703 -3498.1938 3333.5552 -3498.1638 3333.5552 L -3493.573 3331.575 L -3495.8533 3330.1646 Z" fill="#0a55a8"/>
            </g>
            <g id="Graphic_8">
              <path d="M -3480.1003 3315.6568 L -3490.077 3309.4756 C -3490.4523 3309.2506 -3490.8874 3309.1906 -3491.2624 3309.3106 C -3491.2924 3309.3256 -3491.3374 3309.3406 -3491.3674 3309.3556 L -3501.1043 3313.5564 C -3501.4944 3313.7214 -3501.7344 3314.0815 -3501.7194 3314.5166 L -3501.4794 3324.8986 C -3501.4644 3325.3187 -3501.2093 3325.7387 -3500.8043 3325.9788 L -3490.8273 3332.16 C -3490.4673 3332.385 -3490.017 3332.445 -3489.642 3332.325 C -3489.612 3332.31 -3489.567 3332.295 -3489.537 3332.28 L -3479.8002 3328.079 C -3479.41 3327.914 -3479.17 3327.539 -3479.185 3327.119 L -3479.425 3316.737 C -3479.44 3316.317 -3479.695 3315.912 -3480.1003 3315.6568 Z M -3490.2422 3329.8345 L -3498.914 3324.4635 L -3499.124 3315.4468 L -3490.6623 3311.801 L -3481.9906 3317.172 L -3481.7806 3326.189 Z" fill="#0a55a8"/>
            </g>
          </g>
        </g>
      </g>
      <g id="Graphic_4">
        <path d="M -3584 3272 L -3466 3272 C -3461.5817 3272 -3458 3275.5817 -3458 3280 L -3458 3359.25 C -3458 3363.6683 -3461.5817 3367.25 -3466 3367.25 L -3584 3367.25 C -3588.4183 3367.25 -3592 3363.6683 -3592 3359.25 L -3592 3280 C -3592 3275.5817 -3588.4183 3272 -3584 3272 Z" stroke="gray" stroke-linecap="round" stroke-linejoin="round" stroke-width="1"/>
        <text transform="translate(-3587 3277)" fill="black">
          <tspan font-family="Helvetica Neue" font-weight="bold" font-size="16" fill="black" x="46.888" y="16">Pod</tspan>
        </text>
      </g>
      <g id="Graphic_3"/>
    </g>
  </g>
</svg>
