<svg xmlns="http://www.w3.org/2000/svg" xmlns:xlink="http://www.w3.org/1999/xlink" width="909" height="309" preserveAspectRatio="xMidYMid meet" version="1.0" viewBox="0 0 681.75 231.75" zoomAndPan="magnify"><g fill="#fff" fill-opacity="1"><g><g><path d="M 35.4375 -52.0625 L 19.875 -52.0625 L 19.875 -22.390625 L 19.671875 -17.546875 C 19.671875 -15.960938 19.050781 -14.738281 17.8125 -13.875 C 16.582031 -13.007812 14.992188 -12.578125 13.046875 -12.578125 L 0 -12.578125 L 0 0.203125 C 6.3125 0.203125 11.210938 0.15625 14.703125 0.0625 C 18.191406 -0.0195312 21.015625 -0.21875 23.171875 -0.53125 C 25.335938 -0.84375 27.0625 -1.296875 28.34375 -1.890625 C 29.625 -2.484375 30.75 -3.3125 31.71875 -4.375 C 33.09375 -5.695312 34.054688 -7.128906 34.609375 -8.671875 C 35.160156 -10.222656 35.4375 -12.054688 35.4375 -14.171875 Z M 35.4375 -52.0625" transform="translate(23.446642, 90.266016)"/></g></g></g><g fill="#fff" fill-opacity="1"><g><g><path d="M 3.046875 -52.0625 L 3.046875 0 L 19.28125 0 L 19.28125 -52.0625 Z M 3.046875 -52.0625" transform="translate(61.729997, 90.266016)"/></g></g></g><g fill="#fff" fill-opacity="1"><g><g><path d="M 67.234375 -37.890625 L 67.5 -37.890625 L 67.5 0 L 82.53125 0 L 82.53125 -52.0625 L 57.21875 -52.0625 L 42.78125 -21.453125 L 42.59375 -21.71875 L 28.21875 -52.0625 L 2.84375 -52.0625 L 2.84375 0 L 17.953125 0 L 17.953125 -37.890625 L 18.140625 -37.890625 L 37.359375 0 L 48.28125 0 Z M 67.234375 -37.890625" transform="translate(84.117152, 90.266016)"/></g></g></g><g fill="#fff" fill-opacity="1"><g><g><path d="M 67.234375 -37.890625 L 67.5 -37.890625 L 67.5 0 L 82.53125 0 L 82.53125 -52.0625 L 57.21875 -52.0625 L 42.78125 -21.453125 L 42.59375 -21.71875 L 28.21875 -52.0625 L 2.84375 -52.0625 L 2.84375 0 L 17.953125 0 L 17.953125 -37.890625 L 18.140625 -37.890625 L 37.359375 0 L 48.28125 0 Z M 67.234375 -37.890625" transform="translate(169.559235, 90.266016)"/></g></g></g><g fill="#fff" fill-opacity="1"><g><g><path d="M 74.71875 -52.0625 L 55.234375 -52.0625 L 38.28125 -30.9375 L 21.328125 -52.0625 L 1.859375 -52.0625 L 30.078125 -18.078125 L 30.078125 0 L 46.359375 0 L 46.359375 -18.078125 Z M 74.71875 -52.0625" transform="translate(255.001319, 90.266016)"/></g></g></g><g fill="#fff" fill-opacity="1"><g><g><path d="M 64.90625 -26.03125 C 62.96875 -29.300781 59.566406 -31.066406 54.703125 -31.328125 C 53.773438 -31.421875 52.601562 -31.5 51.1875 -31.5625 C 49.78125 -31.625 48.050781 -31.695312 46 -31.78125 C 43.945312 -31.875 40.269531 -32.007812 34.96875 -32.1875 C 31.125 -32.320312 28.804688 -32.410156 28.015625 -32.453125 C 27.753906 -32.453125 27.3125 -32.453125 26.6875 -32.453125 C 25.757812 -32.453125 25.296875 -32.453125 25.296875 -32.453125 C 23.179688 -32.453125 21.523438 -32.71875 20.328125 -33.25 C 19.140625 -33.78125 18.546875 -34.882812 18.546875 -36.5625 C 18.546875 -37.488281 18.734375 -38.238281 19.109375 -38.8125 C 19.484375 -39.382812 19.976562 -39.8125 20.59375 -40.09375 C 21.21875 -40.382812 21.878906 -40.570312 22.578125 -40.65625 C 23.285156 -40.75 24.082031 -40.796875 24.96875 -40.796875 C 25.894531 -40.796875 39.273438 -40.796875 65.109375 -40.796875 L 65.109375 -52.0625 C 38.960938 -52.0625 22.691406 -52.0625 16.296875 -52.0625 C 11.484375 -52.0625 8.035156 -50.710938 5.953125 -48.015625 C 3.878906 -45.328125 2.84375 -41.289062 2.84375 -35.90625 C 2.84375 -31.53125 3.59375 -28.238281 5.09375 -26.03125 C 7.21875 -23.070312 10.726562 -21.457031 15.625 -21.1875 C 16.601562 -21.101562 17.773438 -21.023438 19.140625 -20.953125 C 20.503906 -20.890625 21.957031 -20.828125 23.5 -20.765625 C 25.050781 -20.703125 28.875 -20.554688 34.96875 -20.328125 C 38.851562 -20.203125 41.21875 -20.113281 42.0625 -20.0625 C 43.425781 -20.0625 44.582031 -20.03125 45.53125 -19.96875 C 46.476562 -19.90625 47.394531 -19.726562 48.28125 -19.4375 C 49.164062 -19.15625 49.882812 -18.691406 50.4375 -18.046875 C 50.988281 -17.410156 51.265625 -16.5625 51.265625 -15.5 C 51.265625 -14.570312 51.066406 -13.820312 50.671875 -13.25 C 50.273438 -12.675781 49.742188 -12.242188 49.078125 -11.953125 C 48.421875 -11.671875 47.703125 -11.484375 46.921875 -11.390625 C 46.148438 -11.304688 45.300781 -11.265625 44.375 -11.265625 C 43.445312 -11.265625 30.066406 -11.265625 4.234375 -11.265625 L 4.234375 0 C 29.140625 0 44.816406 0 51.265625 0 C 56.785156 0 60.789062 -1.253906 63.28125 -3.765625 C 65.78125 -6.285156 67.03125 -10.351562 67.03125 -15.96875 C 67.03125 -19.976562 66.320312 -23.332031 64.90625 -26.03125 Z M 64.90625 -26.03125" transform="translate(364.420176, 90.266016)"/></g></g></g><g fill="#fff" fill-opacity="1"><g><g><path d="M 2.84375 -13.453125 C 2.84375 -11.328125 3.085938 -9.535156 3.578125 -8.078125 C 4.066406 -6.617188 4.972656 -5.296875 6.296875 -4.109375 C 7.484375 -3.003906 8.757812 -2.148438 10.125 -1.546875 C 11.5 -0.953125 13.265625 -0.507812 15.421875 -0.21875 C 17.585938 0.0625 20.21875 0.242188 23.3125 0.328125 C 26.40625 0.421875 30.929688 0.46875 36.890625 0.46875 C 42.847656 0.46875 47.394531 0.421875 50.53125 0.328125 C 53.664062 0.242188 56.304688 0.0625 58.453125 -0.21875 C 60.597656 -0.507812 62.382812 -0.953125 63.8125 -1.546875 C 65.25 -2.148438 66.539062 -3.003906 67.6875 -4.109375 C 69.007812 -5.296875 69.914062 -6.617188 70.40625 -8.078125 C 70.894531 -9.535156 71.140625 -11.328125 71.140625 -13.453125 C 71.140625 -18.484375 71.140625 -24.421875 71.140625 -31.265625 L 71.140625 -38.8125 C 71.140625 -40.9375 70.894531 -42.691406 70.40625 -44.078125 C 69.914062 -45.472656 69.007812 -46.765625 67.6875 -47.953125 C 66.539062 -49.097656 65.269531 -49.976562 63.875 -50.59375 C 62.488281 -51.21875 60.742188 -51.660156 58.640625 -51.921875 C 56.546875 -52.191406 54 -52.359375 51 -52.421875 C 48 -52.492188 43.363281 -52.53125 37.09375 -52.53125 C 30.820312 -52.53125 26.179688 -52.492188 23.171875 -52.421875 C 20.171875 -52.359375 17.597656 -52.191406 15.453125 -51.921875 C 13.316406 -51.660156 11.539062 -51.21875 10.125 -50.59375 C 8.71875 -49.976562 7.441406 -49.097656 6.296875 -47.953125 C 4.972656 -46.765625 4.066406 -45.472656 3.578125 -44.078125 C 3.085938 -42.691406 2.84375 -40.9375 2.84375 -38.8125 Z M 17.484375 -36.5625 C 17.484375 -37.53125 17.847656 -38.300781 18.578125 -38.875 C 19.304688 -39.445312 20.53125 -39.734375 22.25 -39.734375 C 39.601562 -39.734375 49.492188 -39.734375 51.921875 -39.734375 C 53.773438 -39.734375 55.046875 -39.515625 55.734375 -39.078125 C 56.421875 -38.640625 56.765625 -37.800781 56.765625 -36.5625 L 56.765625 -15.5 C 56.765625 -14.65625 56.351562 -13.957031 55.53125 -13.40625 C 54.71875 -12.851562 53.453125 -12.578125 51.734375 -12.578125 C 34.503906 -12.578125 24.675781 -12.578125 22.25 -12.578125 C 20.394531 -12.578125 19.132812 -12.785156 18.46875 -13.203125 C 17.8125 -13.628906 17.484375 -14.394531 17.484375 -15.5 Z M 17.484375 -36.5625" transform="translate(433.634896, 90.266016)"/></g></g></g><g fill="#fff" fill-opacity="1"><g><g><path d="M 18.140625 -39.546875 L 18.34375 -39.078125 L 49.875 -0.203125 L 76.171875 -0.203125 L 76.171875 -52.0625 L 60.875 -52.0625 L 60.875 -12.78125 L 60.609375 -13.453125 L 29.34375 -52.0625 L 2.84375 -52.0625 L 2.84375 -0.203125 L 18.140625 -0.203125 Z M 18.140625 -39.546875" transform="translate(507.618454, 90.266016)"/></g></g></g><g fill="#fff" fill-opacity="1"><g><g><path d="M 68.625 -52.0625 C 45.039062 -52.0625 28.832031 -52.0625 20 -52.0625 C 14.21875 -52.0625 9.910156 -50.847656 7.078125 -48.421875 C 4.253906 -45.992188 2.84375 -42.414062 2.84375 -37.6875 C 2.84375 -26.5625 2.84375 -18.566406 2.84375 -13.703125 C 2.84375 -11.503906 3.085938 -9.6875 3.578125 -8.25 C 4.066406 -6.8125 4.972656 -5.519531 6.296875 -4.375 C 7.398438 -3.269531 8.613281 -2.414062 9.9375 -1.8125 C 11.257812 -1.21875 12.957031 -0.773438 15.03125 -0.484375 C 17.101562 -0.203125 19.640625 -0.0195312 22.640625 0.0625 C 25.648438 0.15625 30.023438 0.203125 35.765625 0.203125 C 41.503906 0.203125 45.882812 0.15625 48.90625 0.0625 C 51.9375 -0.0195312 54.5 -0.203125 56.59375 -0.484375 C 58.695312 -0.773438 60.441406 -1.21875 61.828125 -1.8125 C 63.222656 -2.414062 64.492188 -3.269531 65.640625 -4.375 C 66.828125 -5.5625 67.648438 -6.875 68.109375 -8.3125 C 68.578125 -9.75 68.8125 -11.546875 68.8125 -13.703125 C 68.8125 -18.566406 68.8125 -24.507812 68.8125 -31.53125 L 35.03125 -31.53125 L 35.03125 -21.71875 L 54.703125 -21.71875 L 54.703125 -15.765625 C 54.703125 -14.878906 54.328125 -14.160156 53.578125 -13.609375 C 52.828125 -13.054688 51.59375 -12.78125 49.875 -12.78125 C 33.445312 -12.78125 24.085938 -12.78125 21.796875 -12.78125 C 19.890625 -12.78125 18.613281 -12.96875 17.96875 -13.34375 C 17.332031 -13.71875 17.015625 -14.523438 17.015625 -15.765625 L 17.015625 -36.5625 C 17.015625 -37.3125 17.390625 -37.953125 18.140625 -38.484375 C 18.898438 -39.015625 20.117188 -39.28125 21.796875 -39.28125 C 24.085938 -39.28125 39.695312 -39.28125 68.625 -39.28125 Z M 68.625 -52.0625" transform="translate(586.635843, 90.266016)"/></g></g></g><g fill="#fff" fill-opacity="1"><g><g><path d="M 3.644531 -19.804688 L 3.644531 -15.898438 L 27.222656 -15.898438 L 27.222656 -19.804688 Z M 3.644531 -19.804688" transform="translate(90.371656, 183.199859)"/></g></g></g><g fill="#fff" fill-opacity="1"><g><g><path d="M 15.367188 -36.164062 C 7.683594 -36.164062 3.644531 -32.257812 3.644531 -25.898438 C 3.644531 -19.539062 7.949219 -15.632812 13.910156 -15.632812 L 17.023438 -15.632812 C 20.996094 -15.632812 23.25 -13.3125 23.25 -9.671875 C 23.25 -5.894531 20.796875 -3.578125 16.359375 -3.578125 C 11.855469 -3.578125 9.472656 -5.960938 9.472656 -9.804688 L 4.636719 -9.804688 C 4.636719 -3.710938 8.675781 0.53125 16.359375 0.53125 C 24.042969 0.53125 28.085938 -3.445312 28.085938 -9.804688 C 28.085938 -16.160156 24.042969 -20.070312 17.75 -20.070312 L 14.703125 -20.070312 C 10.664062 -20.070312 8.476562 -22.386719 8.476562 -26.03125 C 8.476562 -29.808594 10.929688 -32.125 15.367188 -32.125 C 19.871094 -32.125 22.257812 -29.742188 22.257812 -25.898438 L 27.089844 -25.898438 C 27.089844 -31.992188 23.050781 -36.164062 15.367188 -36.164062 Z M 15.367188 -36.164062" transform="translate(158.463515, 183.199859)"/></g></g></g><g fill="#fff" fill-opacity="1"><g><g><path d="M 4.636719 -35.636719 L 4.636719 0 L 9.472656 0 L 9.472656 -35.636719 Z M 4.636719 -50.9375 L 4.636719 -43.914062 L 9.472656 -43.914062 L 9.472656 -50.9375 Z M 4.636719 -50.9375" transform="translate(200.854949, 183.199859)"/></g></g></g><g fill="#fff" fill-opacity="1"><g><g><path d="M 19.804688 -36.164062 C 14.636719 -36.164062 11.261719 -33.382812 9.140625 -30.535156 L 8.542969 -35.636719 L 4.636719 -35.636719 L 4.636719 0 L 9.472656 0 L 9.472656 -25.632812 C 10.664062 -28.152344 13.246094 -32.125 17.621094 -32.125 C 20.863281 -32.125 22.191406 -30.003906 22.191406 -26.761719 L 22.257812 0 L 27.089844 0 L 27.089844 -28.546875 C 27.089844 -33.316406 24.441406 -36.164062 19.804688 -36.164062 Z M 19.804688 -36.164062" transform="translate(225.6281, 183.199859)"/></g></g></g><g fill="#fff" fill-opacity="1"><g><g><path d="M 15.765625 -36.164062 C 7.816406 -36.164062 3.644531 -29.542969 3.644531 -17.816406 C 3.644531 -6.09375 7.816406 0.53125 15.765625 0.53125 C 22.125 0.53125 26.164062 -3.710938 27.421875 -11.460938 L 22.652344 -11.460938 C 21.726562 -6.691406 19.472656 -3.578125 15.765625 -3.578125 C 11.0625 -3.578125 8.476562 -8.347656 8.476562 -17.816406 C 8.476562 -27.289062 11.0625 -32.125 15.765625 -32.125 C 19.472656 -32.125 21.726562 -29.011719 22.652344 -24.242188 L 27.421875 -24.242188 C 26.164062 -31.992188 22.125 -36.164062 15.765625 -36.164062 Z M 15.765625 -36.164062" transform="translate(268.019546, 183.199859)"/></g></g></g><g fill="#fff" fill-opacity="1"><g><g><path d="M 15.765625 -36.164062 C 7.882812 -36.164062 3.511719 -29.609375 3.511719 -17.816406 C 3.511719 -6.292969 7.683594 0.53125 16.03125 0.53125 C 22.652344 0.53125 26.890625 -3.644531 28.085938 -11.328125 L 23.316406 -11.328125 C 22.585938 -7.75 20.402344 -3.578125 16.03125 -3.578125 C 11.394531 -3.578125 8.742188 -8.015625 8.414062 -16.03125 L 27.953125 -16.03125 C 27.953125 -16.03125 28.085938 -16.890625 28.085938 -17.816406 C 28.085938 -29.941406 23.714844 -36.164062 15.765625 -36.164062 Z M 23.25 -20.003906 L 8.414062 -20.003906 C 8.808594 -27.753906 11.328125 -32.125 15.832031 -32.125 C 20.269531 -32.125 22.851562 -27.753906 23.25 -20.003906 Z M 23.25 -20.003906" transform="translate(309.748645, 183.199859)"/></g></g></g><g fill="#fff" fill-opacity="1"><g><g><path d="M 18.347656 -46.367188 C 9.871094 -46.367188 4.636719 -40.867188 4.636719 -32.191406 L 9.871094 -32.191406 C 9.871094 -38.484375 13.050781 -41.929688 18.347656 -41.929688 C 23.648438 -41.929688 26.828125 -38.417969 26.828125 -33.183594 C 26.828125 -28.945312 23.316406 -24.707031 19.871094 -20.863281 L 3.644531 -4.039062 L 3.644531 0 L 33.117188 0 L 33.117188 -4.4375 L 11.789062 -4.4375 L 23.910156 -17.554688 C 28.417969 -22.320312 32.058594 -27.820312 32.058594 -33.183594 C 32.058594 -40.800781 26.761719 -46.367188 18.347656 -46.367188 Z M 18.347656 -46.367188" transform="translate(378.767787, 183.199859)"/></g></g></g><g fill="#fff" fill-opacity="1"><g><g><path d="M 20.136719 -41.929688 C 27.089844 -41.929688 31.398438 -34.511719 31.398438 -22.917969 C 31.398438 -11.328125 27.089844 -3.972656 20.136719 -3.972656 C 13.179688 -3.972656 8.875 -11.328125 8.875 -22.917969 C 8.875 -34.511719 13.179688 -41.929688 20.136719 -41.929688 Z M 20.136719 -46.367188 C 10.132812 -46.367188 3.644531 -36.960938 3.644531 -22.917969 C 3.644531 -8.875 10.132812 0.53125 20.136719 0.53125 C 30.136719 0.53125 36.5625 -8.875 36.5625 -22.917969 C 36.5625 -36.960938 30.136719 -46.367188 20.136719 -46.367188 Z M 20.136719 -46.367188" transform="translate(426.126781, 183.199859)"/></g></g></g><g fill="#fff" fill-opacity="1"><g><g><path d="M 0.792969 -45.835938 L 0.792969 -41.398438 L 4.96875 -41.398438 L 4.96875 0 L 10.199219 0 L 10.199219 -45.835938 Z M 0.792969 -45.835938" transform="translate(477.062415, 183.199859)"/></g></g></g><g fill="#fff" fill-opacity="1"><g><g><path d="M 18.347656 -41.929688 C 24.441406 -41.929688 27.820312 -37.6875 27.820312 -30.601562 C 27.820312 -23.515625 24.441406 -19.207031 18.347656 -19.207031 C 12.253906 -19.207031 8.875 -23.515625 8.875 -30.601562 C 8.875 -37.6875 12.253906 -41.929688 18.347656 -41.929688 Z M 18.347656 -46.367188 C 8.941406 -46.367188 3.644531 -40.007812 3.644531 -30.601562 C 3.644531 -21.195312 8.476562 -14.769531 17.488281 -14.769531 C 22.191406 -14.769531 25.105469 -16.492188 26.890625 -18.480469 C 23.25 -6.890625 14.574219 -3.972656 14.574219 -3.972656 L 14.574219 0.53125 C 14.574219 0.53125 33.117188 -4.238281 33.117188 -30.203125 C 33.117188 -40.140625 27.753906 -46.367188 18.347656 -46.367188 Z M 18.347656 -46.367188" transform="translate(502.564127, 183.199859)"/></g></g></g><g fill="#fff" fill-opacity="1"><g><g><path d="M 3.644531 -19.804688 L 3.644531 -15.898438 L 27.222656 -15.898438 L 27.222656 -19.804688 Z M 3.644531 -19.804688" transform="translate(549.923145, 183.199859)"/></g></g></g></svg>