<svg xmlns="http://www.w3.org/2000/svg" xmlns:xlink="http://www.w3.org/1999/xlink" width="909" height="309" preserveAspectRatio="xMidYMid meet" version="1.0" viewBox="0 0 681.75 231.75" zoomAndPan="magnify"><g fill="#fff" fill-opacity="1"><g><g><path d="M 35.4375 -52.078125 L 19.875 -52.078125 L 19.875 -22.390625 L 19.671875 -17.5625 C 19.671875 -15.96875 19.050781 -14.738281 17.8125 -13.875 C 16.582031 -13.019531 14.992188 -12.59375 13.046875 -12.59375 L 0 -12.59375 L 0 0.203125 C 6.3125 0.203125 11.210938 0.15625 14.703125 0.0625 C 18.191406 -0.0195312 21.019531 -0.21875 23.1875 -0.53125 C 25.351562 -0.84375 27.078125 -1.296875 28.359375 -1.890625 C 29.640625 -2.484375 30.765625 -3.3125 31.734375 -4.375 C 33.097656 -5.695312 34.054688 -7.128906 34.609375 -8.671875 C 35.160156 -10.222656 35.4375 -12.054688 35.4375 -14.171875 Z M 35.4375 -52.078125" transform="translate(23.400972, 140.793435)"/></g></g></g><g fill="#fff" fill-opacity="1"><g><g><path d="M 3.046875 -52.078125 L 3.046875 0 L 19.28125 0 L 19.28125 -52.078125 Z M 3.046875 -52.078125" transform="translate(61.689981, 140.793435)"/></g></g></g><g fill="#fff" fill-opacity="1"><g><g><path d="M 67.25 -37.890625 L 67.515625 -37.890625 L 67.515625 0 L 82.546875 0 L 82.546875 -52.078125 L 57.234375 -52.078125 L 42.796875 -21.46875 L 42.59375 -21.734375 L 28.21875 -52.078125 L 2.84375 -52.078125 L 2.84375 0 L 17.953125 0 L 17.953125 -37.890625 L 18.15625 -37.890625 L 37.359375 0 L 48.296875 0 Z M 67.25 -37.890625" transform="translate(84.080434, 140.793435)"/></g></g></g><g fill="#fff" fill-opacity="1"><g><g><path d="M 67.25 -37.890625 L 67.515625 -37.890625 L 67.515625 0 L 82.546875 0 L 82.546875 -52.078125 L 57.234375 -52.078125 L 42.796875 -21.46875 L 42.59375 -21.734375 L 28.21875 -52.078125 L 2.84375 -52.078125 L 2.84375 0 L 17.953125 0 L 17.953125 -37.890625 L 18.15625 -37.890625 L 37.359375 0 L 48.296875 0 Z M 67.25 -37.890625" transform="translate(169.535142, 140.793435)"/></g></g></g><g fill="#fff" fill-opacity="1"><g><g><path d="M 74.734375 -52.078125 L 55.25 -52.078125 L 38.296875 -30.9375 L 21.328125 -52.078125 L 1.859375 -52.078125 L 30.078125 -18.09375 L 30.078125 0 L 46.375 0 L 46.375 -18.09375 Z M 74.734375 -52.078125" transform="translate(254.989851, 140.793435)"/></g></g></g><g fill="#fff" fill-opacity="1"><g><g><path d="M 64.921875 -26.03125 C 62.984375 -29.300781 59.582031 -31.070312 54.71875 -31.34375 C 53.789062 -31.425781 52.617188 -31.5 51.203125 -31.5625 C 49.796875 -31.632812 48.066406 -31.710938 46.015625 -31.796875 C 43.960938 -31.890625 40.285156 -32.023438 34.984375 -32.203125 C 31.140625 -32.328125 28.820312 -32.414062 28.03125 -32.46875 C 27.757812 -32.46875 27.316406 -32.46875 26.703125 -32.46875 C 25.773438 -32.46875 25.3125 -32.46875 25.3125 -32.46875 C 23.1875 -32.46875 21.523438 -32.726562 20.328125 -33.25 C 19.140625 -33.78125 18.546875 -34.882812 18.546875 -36.5625 C 18.546875 -37.5 18.734375 -38.253906 19.109375 -38.828125 C 19.484375 -39.398438 19.976562 -39.828125 20.59375 -40.109375 C 21.21875 -40.398438 21.882812 -40.585938 22.59375 -40.671875 C 23.300781 -40.765625 24.09375 -40.8125 24.96875 -40.8125 C 25.90625 -40.8125 39.289062 -40.8125 65.125 -40.8125 L 65.125 -52.078125 C 38.976562 -52.078125 22.703125 -52.078125 16.296875 -52.078125 C 11.484375 -52.078125 8.035156 -50.726562 5.953125 -48.03125 C 3.878906 -45.332031 2.84375 -41.289062 2.84375 -35.90625 C 2.84375 -31.53125 3.59375 -28.238281 5.09375 -26.03125 C 7.21875 -23.070312 10.734375 -21.460938 15.640625 -21.203125 C 16.609375 -21.109375 17.773438 -21.03125 19.140625 -20.96875 C 20.515625 -20.90625 21.972656 -20.835938 23.515625 -20.765625 C 25.066406 -20.703125 28.890625 -20.5625 34.984375 -20.34375 C 38.867188 -20.207031 41.226562 -20.117188 42.0625 -20.078125 C 43.4375 -20.078125 44.597656 -20.039062 45.546875 -19.96875 C 46.492188 -19.90625 47.410156 -19.726562 48.296875 -19.4375 C 49.179688 -19.15625 49.898438 -18.691406 50.453125 -18.046875 C 51.003906 -17.410156 51.28125 -16.5625 51.28125 -15.5 C 51.28125 -14.570312 51.078125 -13.820312 50.671875 -13.25 C 50.273438 -12.675781 49.742188 -12.242188 49.078125 -11.953125 C 48.421875 -11.671875 47.707031 -11.484375 46.9375 -11.390625 C 46.164062 -11.304688 45.316406 -11.265625 44.390625 -11.265625 C 43.460938 -11.265625 30.078125 -11.265625 4.234375 -11.265625 L 4.234375 0 C 29.148438 0 44.832031 0 51.28125 0 C 56.800781 0 60.804688 -1.253906 63.296875 -3.765625 C 65.796875 -6.285156 67.046875 -10.351562 67.046875 -15.96875 C 67.046875 -19.988281 66.335938 -23.34375 64.921875 -26.03125 Z M 64.921875 -26.03125" transform="translate(364.424884, 140.793435)"/></g></g></g><g fill="#fff" fill-opacity="1"><g><g><path d="M 2.84375 -13.453125 C 2.84375 -11.328125 3.085938 -9.535156 3.578125 -8.078125 C 4.066406 -6.617188 4.972656 -5.296875 6.296875 -4.109375 C 7.484375 -3.003906 8.757812 -2.148438 10.125 -1.546875 C 11.5 -0.953125 13.269531 -0.507812 15.4375 -0.21875 C 17.601562 0.0625 20.226562 0.242188 23.3125 0.328125 C 26.40625 0.421875 30.9375 0.46875 36.90625 0.46875 C 42.863281 0.46875 47.410156 0.421875 50.546875 0.328125 C 53.679688 0.242188 56.316406 0.0625 58.453125 -0.21875 C 60.597656 -0.507812 62.390625 -0.953125 63.828125 -1.546875 C 65.265625 -2.148438 66.554688 -3.003906 67.703125 -4.109375 C 69.023438 -5.296875 69.929688 -6.617188 70.421875 -8.078125 C 70.910156 -9.535156 71.15625 -11.328125 71.15625 -13.453125 C 71.15625 -18.484375 71.15625 -24.421875 71.15625 -31.265625 L 71.15625 -38.828125 C 71.15625 -40.941406 70.910156 -42.691406 70.421875 -44.078125 C 69.929688 -45.472656 69.023438 -46.769531 67.703125 -47.96875 C 66.554688 -49.113281 65.285156 -49.992188 63.890625 -50.609375 C 62.503906 -51.234375 60.757812 -51.675781 58.65625 -51.9375 C 56.5625 -52.207031 54.007812 -52.375 51 -52.4375 C 48 -52.5 43.363281 -52.53125 37.09375 -52.53125 C 30.820312 -52.53125 26.1875 -52.5 23.1875 -52.4375 C 20.1875 -52.375 17.613281 -52.207031 15.46875 -51.9375 C 13.320312 -51.675781 11.539062 -51.234375 10.125 -50.609375 C 8.71875 -49.992188 7.441406 -49.113281 6.296875 -47.96875 C 4.972656 -46.769531 4.066406 -45.472656 3.578125 -44.078125 C 3.085938 -42.691406 2.84375 -40.941406 2.84375 -38.828125 Z M 17.484375 -36.5625 C 17.484375 -37.539062 17.847656 -38.316406 18.578125 -38.890625 C 19.304688 -39.460938 20.535156 -39.75 22.265625 -39.75 C 39.617188 -39.75 49.507812 -39.75 51.9375 -39.75 C 53.789062 -39.75 55.0625 -39.523438 55.75 -39.078125 C 56.4375 -38.640625 56.78125 -37.800781 56.78125 -36.5625 L 56.78125 -15.5 C 56.78125 -14.664062 56.367188 -13.972656 55.546875 -13.421875 C 54.734375 -12.867188 53.460938 -12.59375 51.734375 -12.59375 C 34.515625 -12.59375 24.691406 -12.59375 22.265625 -12.59375 C 20.410156 -12.59375 19.148438 -12.800781 18.484375 -13.21875 C 17.816406 -13.632812 17.484375 -14.394531 17.484375 -15.5 Z M 17.484375 -36.5625" transform="translate(433.649806, 140.793435)"/></g></g></g><g fill="#fff" fill-opacity="1"><g><g><path d="M 18.15625 -39.546875 L 18.34375 -39.09375 L 49.890625 -0.203125 L 76.1875 -0.203125 L 76.1875 -52.078125 L 60.890625 -52.078125 L 60.890625 -12.78125 L 60.625 -13.453125 L 29.34375 -52.078125 L 2.84375 -52.078125 L 2.84375 -0.203125 L 18.15625 -0.203125 Z M 18.15625 -39.546875" transform="translate(507.644314, 140.793435)"/></g></g></g><g fill="#fff" fill-opacity="1"><g><g><path d="M 68.640625 -52.078125 C 45.046875 -52.078125 28.832031 -52.078125 20 -52.078125 C 14.21875 -52.078125 9.910156 -50.859375 7.078125 -48.421875 C 4.253906 -45.992188 2.84375 -42.421875 2.84375 -37.703125 C 2.84375 -26.566406 2.84375 -18.570312 2.84375 -13.71875 C 2.84375 -11.507812 3.085938 -9.6875 3.578125 -8.25 C 4.066406 -6.8125 4.972656 -5.519531 6.296875 -4.375 C 7.398438 -3.269531 8.613281 -2.414062 9.9375 -1.8125 C 11.257812 -1.21875 12.957031 -0.773438 15.03125 -0.484375 C 17.113281 -0.203125 19.65625 -0.0195312 22.65625 0.0625 C 25.65625 0.15625 30.03125 0.203125 35.78125 0.203125 C 41.519531 0.203125 45.898438 0.15625 48.921875 0.0625 C 51.953125 -0.0195312 54.515625 -0.203125 56.609375 -0.484375 C 58.703125 -0.773438 60.445312 -1.21875 61.84375 -1.8125 C 63.238281 -2.414062 64.507812 -3.269531 65.65625 -4.375 C 66.84375 -5.5625 67.664062 -6.875 68.125 -8.3125 C 68.59375 -9.75 68.828125 -11.550781 68.828125 -13.71875 C 68.828125 -18.570312 68.828125 -24.507812 68.828125 -31.53125 L 35.046875 -31.53125 L 35.046875 -21.734375 L 54.71875 -21.734375 L 54.71875 -15.765625 C 54.71875 -14.878906 54.34375 -14.160156 53.59375 -13.609375 C 52.84375 -13.054688 51.609375 -12.78125 49.890625 -12.78125 C 33.453125 -12.78125 24.085938 -12.78125 21.796875 -12.78125 C 19.898438 -12.78125 18.628906 -12.96875 17.984375 -13.34375 C 17.347656 -13.71875 17.03125 -14.523438 17.03125 -15.765625 L 17.03125 -36.5625 C 17.03125 -37.320312 17.40625 -37.960938 18.15625 -38.484375 C 18.90625 -39.015625 20.117188 -39.28125 21.796875 -39.28125 C 24.085938 -39.28125 39.703125 -39.28125 68.640625 -39.28125 Z M 68.640625 -52.078125" transform="translate(586.673383, 140.793435)"/></g></g></g></svg>