<svg xmlns="http://www.w3.org/2000/svg" width="909" viewBox="0 0 681.75 231.75" height="309" version="1.0"><path d="M58.838 88.715H43.276v29.688l-.203 4.828c0 1.594-.621 2.824-1.86 3.687-1.23.856-2.82 1.282-4.765 1.282H23.4v12.797c6.312 0 11.21-.047 14.703-.141 3.488-.082 6.317-.281 8.484-.594 2.165-.312 3.891-.765 5.172-1.36a10.508 10.508 0 0 0 3.375-2.484c1.364-1.32 2.32-2.753 2.875-4.296.551-1.551.828-3.383.828-5.5zM64.737 88.715v52.078H80.97V88.715zM151.33 102.903h.266v37.89h15.031V88.715h-25.312l-14.438 30.61-.203-.266L112.3 88.715H86.924v52.078h15.11v-37.89h.203l19.203 37.89h10.937zM236.785 102.903h.266v37.89h15.031V88.715H226.77l-14.438 30.61-.203-.266-14.375-30.344h-25.375v52.078h15.11v-37.89h.202l19.204 37.89h10.937zM329.724 88.715H310.24l-16.953 21.14-16.969-21.14h-19.469l28.219 33.985v18.093h16.297V122.7zM429.347 114.762c-1.938-3.27-5.34-5.039-10.203-5.312a82.557 82.557 0 0 0-3.516-.22c-1.406-.07-3.137-.148-5.187-.233-2.055-.094-5.731-.227-11.032-.407-3.843-.125-6.164-.21-6.953-.265h-2.718c-2.126 0-3.79-.258-4.985-.782-1.187-.53-1.781-1.632-1.781-3.312 0-.938.187-1.691.562-2.266.375-.57.867-1 1.485-1.28a6.616 6.616 0 0 1 2-.563 18.2 18.2 0 0 1 2.375-.141h40.156V88.715h-48.828c-4.813 0-8.262 1.352-10.344 4.047-2.074 2.7-3.11 6.742-3.11 12.125 0 4.375.75 7.668 2.25 9.875 2.126 2.961 5.641 4.57 10.548 4.828.968.094 2.132.172 3.5.235 1.375.062 2.832.132 4.375.203 1.55.062 5.375.203 11.468.422 3.883.136 6.242.226 7.078.265 1.375 0 2.536.04 3.485.11a11.24 11.24 0 0 1 2.75.53c.883.282 1.601.747 2.156 1.392.55.636.828 1.484.828 2.546 0 .93-.203 1.68-.61 2.25a3.692 3.692 0 0 1-1.593 1.297 7.807 7.807 0 0 1-2.14.563c-.774.086-1.622.125-2.547.125h-40.157v11.265h47.047c5.52 0 9.524-1.253 12.016-3.765 2.5-2.52 3.75-6.586 3.75-12.203 0-4.02-.711-7.375-2.125-10.063zM436.494 127.34c0 2.125.242 3.918.734 5.375.488 1.461 1.394 2.782 2.719 3.97 1.187 1.105 2.46 1.96 3.828 2.562 1.375.593 3.144 1.039 5.312 1.328 2.164.28 4.79.46 7.875.547 3.094.093 7.625.14 13.594.14 5.957 0 10.504-.047 13.64-.14 3.133-.086 5.77-.266 7.907-.547 2.144-.29 3.937-.735 5.375-1.328a12.517 12.517 0 0 0 3.875-2.563c1.32-1.187 2.226-2.508 2.719-3.969.488-1.457.734-3.25.734-5.375v-25.375c0-2.113-.246-3.863-.734-5.25-.493-1.394-1.399-2.691-2.72-3.89-1.148-1.145-2.417-2.024-3.812-2.64-1.386-.626-3.132-1.067-5.234-1.33-2.094-.269-4.648-.437-7.656-.5-3-.062-7.637-.093-13.906-.093-6.274 0-10.907.031-13.907.094-3 .062-5.574.23-7.718.5-2.149.262-3.93.703-5.344 1.328a12.48 12.48 0 0 0-3.828 2.64c-1.325 1.2-2.23 2.497-2.72 3.891-.491 1.387-.733 3.137-.733 5.25zm14.64-23.11c0-.976.363-1.753 1.094-2.327.726-.57 1.957-.86 3.687-.86h29.672c1.852 0 3.125.227 3.813.672.687.438 1.031 1.278 1.031 2.516v21.062c0 .836-.414 1.528-1.234 2.079-.813.554-2.086.828-3.813.828h-29.469c-1.855 0-3.117-.207-3.78-.625-.669-.414-1-1.176-1-2.282zM525.8 101.247l.188.453 31.547 38.89h26.297V88.715h-15.297v39.297l-.266-.672-31.28-38.625h-26.5v51.875H525.8zM655.314 88.715h-48.64c-5.782 0-10.09 1.22-12.922 3.657-2.825 2.43-4.235 6-4.235 10.718v23.985c0 2.21.242 4.03.735 5.468.488 1.438 1.394 2.73 2.718 3.875 1.102 1.106 2.317 1.961 3.64 2.563 1.321.594 3.02 1.039 5.095 1.328 2.082.281 4.625.465 7.625.547 3 .094 7.375.14 13.125.14 5.738 0 10.117-.046 13.14-.14 3.032-.082 5.594-.266 7.688-.547 2.094-.289 3.836-.734 5.234-1.328 1.395-.602 2.664-1.457 3.813-2.563 1.187-1.187 2.007-2.5 2.468-3.937.47-1.438.704-3.238.704-5.406v-17.813H621.72v9.797h19.672v5.969c0 .887-.375 1.605-1.125 2.156-.75.555-1.984.828-3.703.828H608.47c-1.898 0-3.168-.187-3.812-.562-.637-.375-.953-1.18-.953-2.422V104.23c0-.758.375-1.399 1.125-1.922.75-.531 1.96-.797 3.64-.797h46.844zm0 0" fill="#fff"/></svg>