<svg xmlns="http://www.w3.org/2000/svg" xmlns:xl="http://www.w3.org/1999/xlink" width="1482" height="1003" version="1.1" viewBox="-474 -276 1482 1003"><defs><marker id="FilledArrow_Marker" stroke-linejoin="miter" stroke-miterlimit="10" color="#000" markerHeight="6" markerUnits="strokeWidth" markerWidth="7" orient="auto" overflow="visible" viewBox="-1 -3 7 6"><g><path fill="currentColor" stroke="currentColor" stroke-width="1" d="M 4.8 0 L 0 -1.8 L 0 1.8 Z"/></g></marker><marker id="FilledArrow_Marker_2" stroke-linejoin="miter" stroke-miterlimit="10" color="#000" markerHeight="8" markerUnits="strokeWidth" markerWidth="10" orient="auto" overflow="visible" viewBox="-1 -4 10 8"><g><path fill="currentColor" stroke="currentColor" stroke-width="1" d="M 8 0 L 0 -3 L 0 3 Z"/></g></marker><marker id="FilledArrow_Marker_3" stroke-linejoin="miter" stroke-miterlimit="10" color="#000" markerHeight="8" markerUnits="strokeWidth" markerWidth="10" orient="auto" overflow="visible" viewBox="-9 -4 10 8"><g><path fill="currentColor" stroke="currentColor" stroke-width="1" d="M -8 0 L 0 3 L 0 -3 Z"/></g></marker></defs><g id="Canvas_14" fill="none" fill-opacity="1" stroke="none" stroke-dasharray="none" stroke-opacity="1"><title>Canvas 14</title><rect width="1482" height="1003" x="-474" y="-276" fill="#fff"/><g id="Canvas_14_Layer_1"><title>Layer 1</title><g id="Graphic_175"><rect width="409.47" height="902.744" x="561.475" y="-260.18" fill="#ffffc0"/><rect width="409.47" height="902.744" x="561.475" y="-260.18" stroke="gray" stroke-linecap="round" stroke-linejoin="round" stroke-width="1"/></g><g id="Graphic_174"><rect width="1481.361" height="934" x="-473.386" y="-275.808" fill="#fff"/></g><g id="Graphic_173"><rect width="1045.019" height="902.744" x="-74.074" y="-260.18" fill="#fff"/><rect width="1045.019" height="902.744" x="-74.074" y="-260.18" stroke="#000" stroke-linecap="round" stroke-linejoin="round" stroke-width="1"/></g><g id="Graphic_172"><path stroke="#a5a5a5" stroke-dasharray="8 8" stroke-linecap="round" stroke-linejoin="round" stroke-width="2" d="M -28.055207 -196.43563 L 536.9448 -196.43563 L 536.9448 612.5644 L -28.055207 612.5644 Z"/></g><g id="Graphic_171"><rect width="540.129" height="775.814" x="-15.62" y="-181.75" fill="#f6f6f6" fill-opacity=".788"/><rect width="540.129" height="775.814" x="-15.62" y="-181.75" stroke="gray" stroke-linecap="round" stroke-linejoin="round" stroke-width="1"/></g><g id="Line_170"><title>编号 8</title><path stroke="#000" stroke-linecap="round" stroke-linejoin="round" stroke-width="2" marker-end="url(#FilledArrow_Marker)" d="M 285.42462 152.56437 L 285.42462 163.56437 L 285.43515 170.45376 L 285.43515 171.08863 L 787.1069 171.08863 L 787.1069 507.35826 L 798.9737 507.35826"/></g><g id="Line_169"><title>编号 9</title><path stroke="#000" stroke-dasharray="8 8" stroke-linecap="round" stroke-linejoin="round" stroke-width="2" marker-end="url(#FilledArrow_Marker)" d="M 811.4613 27.867533 L 805.0613 27.867533 L 475.6256 27.585913 L 410.5746 27.585913"/></g><g id="Graphic_168"><rect width="145.99" height="809" x="590.211" y="-195.936" fill="#0a55a8"/></g><g id="Graphic_167"><rect width="224.5" height="53" x="173.175" y="-167.436" fill="#0a55a8"/><rect width="224.5" height="53" x="173.175" y="-167.436" stroke="gray" stroke-linecap="round" stroke-linejoin="round" stroke-width="1"/><text fill="#fff" transform="translate(178.17462 -150.66768)"><tspan x="54.938" y="16" fill="#fff" font-family="Helvetica Neue" font-size="16">PREROUTING</tspan></text></g><g id="Graphic_166"><rect width="224.5" height="53" x="173.175" y="-78.436" fill="#0a55a8"/><rect width="224.5" height="53" x="173.175" y="-78.436" stroke="gray" stroke-linecap="round" stroke-linejoin="round" stroke-width="1"/><text fill="#fff" transform="translate(178.17462 -61.66768)"><tspan x="83.394" y="16" fill="#fff" font-family="Helvetica Neue" font-size="16">INPUT</tspan></text></g><g id="Graphic_165"><rect width="224.5" height="53" x="173.175" y="10.564" fill="#0a55a8"/><rect width="224.5" height="53" x="173.175" y="10.564" stroke="gray" stroke-linecap="round" stroke-linejoin="round" stroke-width="1"/><text fill="#fff" transform="translate(178.17462 27.332317)"><tspan x="74.794" y="16" fill="#fff" font-family="Helvetica Neue" font-size="16">OUTPUT</tspan></text></g><g id="Graphic_164"><rect width="224.5" height="53" x="173.175" y="99.564" fill="#0a55a8"/><rect width="224.5" height="53" x="173.175" y="99.564" stroke="gray" stroke-linecap="round" stroke-linejoin="round" stroke-width="1"/><text fill="#fff" transform="translate(178.17462 116.33232)"><tspan x="49.602" y="16" fill="#fff" font-family="Helvetica Neue" font-size="16">POSTROUTING</tspan></text></g><g id="Graphic_163"><rect width="224.5" height="53" x="173.175" y="188.564" fill="#0a55a8"/><rect width="224.5" height="53" x="173.175" y="188.564" stroke="gray" stroke-linecap="round" stroke-linejoin="round" stroke-width="1"/><text fill="#fff" transform="translate(178.17462 205.33232)"><tspan x="45.754" y="16" fill="#fff" font-family="Helvetica Neue" font-size="16">ISTIO_INBOUND</tspan></text></g><g id="Graphic_162"><rect width="224.5" height="53" x="173.175" y="277.564" fill="#0a55a8"/><rect width="224.5" height="53" x="173.175" y="277.564" stroke="gray" stroke-linecap="round" stroke-linejoin="round" stroke-width="1"/><text fill="#fff" transform="translate(178.17462 294.3323)"><tspan x="30.93" y="16" fill="#fff" font-family="Helvetica Neue" font-size="16">ISTIO_IN_REDIRECT</tspan></text></g><g id="Graphic_161"><rect width="224.5" height="53" x="173.175" y="372.564" fill="#0a55a8"/><rect width="224.5" height="53" x="173.175" y="372.564" stroke="gray" stroke-linecap="round" stroke-linejoin="round" stroke-width="1"/><text fill="#fff" transform="translate(178.17462 389.3323)"><tspan x="50.338" y="16" fill="#fff" font-family="Helvetica Neue" font-size="16">ISTIO_OUTPUT</tspan></text></g><g id="Graphic_160"><rect width="224.5" height="53" x="173.175" y="467.564" fill="#0a55a8"/><rect width="224.5" height="53" x="173.175" y="467.564" stroke="gray" stroke-linecap="round" stroke-linejoin="round" stroke-width="1"/><text fill="#fff" transform="translate(178.17462 484.3323)"><tspan x="42.93" y="16" fill="#fff" font-family="Helvetica Neue" font-size="16">ISTIO_REDIRECT</tspan></text></g><g id="Line_159"><path stroke="#000" stroke-linecap="round" stroke-linejoin="round" stroke-width="2" marker-end="url(#FilledArrow_Marker)" d="M 397.6746 -140.93563 L 494.2714 -140.93563 L 494.2714 -95.44279 L 494.2714 215.06437 L 410.5746 215.06437"/></g><g id="Line_158"><path stroke="#000" stroke-linecap="round" stroke-linejoin="round" stroke-width="2" marker-end="url(#FilledArrow_Marker)" d="M 173.17462 215.06437 L 108.81282 215.06437 L 108.81282 221.10067 L 108.81282 304.06437 L 160.27462 304.06437"/></g><g id="Line_157"><line x1="397.675" x2="577.311" y1="304.064" y2="304.064" stroke="#000" stroke-linecap="round" stroke-linejoin="round" stroke-width="2" marker-end="url(#FilledArrow_Marker)"/></g><g id="Graphic_156"><path fill="#000" d="M 494.2714 -115.31836 L 494.2714 -115.31836 C 499.4894 -115.31836 503.7194 -111.08834 503.7194 -105.87036 L 503.7194 -96.31836 C 503.7194 -91.10037 499.4894 -86.87036 494.2714 -86.87036 L 494.2714 -86.87036 C 489.0534 -86.87036 484.8234 -91.10037 484.8234 -96.31836 L 484.8234 -105.87036 C 484.8234 -111.08834 489.0534 -115.31836 494.2714 -115.31836 Z"/><text fill="#fff" transform="translate(489.8234 -110.31836)"><tspan x="0" y="15" fill="#fff" font-family="Helvetica Neue" font-size="16">2</tspan></text></g><g id="Graphic_155"><path fill="#000" d="M 108.81282 245.63415 L 108.81282 245.63415 C 114.0308 245.63415 118.26082 249.86417 118.26082 255.08215 L 118.26082 264.63415 C 118.26082 269.85214 114.0308 274.08215 108.81282 274.08215 L 108.81282 274.08215 C 103.59483 274.08215 99.36482 269.85214 99.36482 264.63415 L 99.36482 255.08215 C 99.36482 249.86417 103.59483 245.63415 108.81282 245.63415 Z"/><text fill="#fff" transform="translate(104.36482 250.63415)"><tspan x="0" y="15" fill="#fff" font-family="Helvetica Neue" font-size="16">3</tspan></text></g><g id="Graphic_154"><path fill="#000" d="M 415.90156 289.84037 L 415.90156 289.84037 C 421.11954 289.84037 425.34956 294.0704 425.34956 299.28837 L 425.34956 308.84037 C 425.34956 314.05836 421.11954 318.28837 415.90156 318.28837 L 415.90156 318.28837 C 410.68357 318.28837 406.45356 314.05836 406.45356 308.84037 L 406.45356 299.28837 C 406.45356 294.0704 410.68357 289.84037 415.90156 289.84037 Z"/><text fill="#fff" transform="translate(411.45356 294.84037)"><tspan x="0" y="15" fill="#fff" font-family="Helvetica Neue" font-size="16">4</tspan></text></g><g id="Line_153"><path stroke="#000" stroke-linecap="round" stroke-linejoin="round" stroke-width="2" marker-end="url(#FilledArrow_Marker)" d="M 173.17462 37.06437 L 68.71184 37.06437 L 68.71184 77.10483 L 68.71184 399.06437 L 160.27462 399.06437"/></g><g id="Graphic_152"><path fill="#000" d="M 68.71184 215.5974 L 68.71184 215.5974 C 73.92983 215.5974 78.15984 219.82742 78.15984 225.0454 L 78.15984 234.5974 C 78.15984 239.8154 73.92983 244.0454 68.71184 244.0454 L 68.71184 244.0454 C 63.49386 244.0454 59.26384 239.8154 59.26384 234.5974 L 59.26384 225.0454 C 59.26384 219.82742 63.49386 215.5974 68.71184 215.5974 Z"/><text fill="#fff" transform="translate(64.26384 220.5974)"><tspan x="0" y="15" fill="#fff" font-family="Helvetica Neue" font-size="16">6</tspan></text></g><g id="Line_151"><path stroke="#000" stroke-linecap="round" stroke-linejoin="round" stroke-width="2" marker-end="url(#FilledArrow_Marker)" d="M 590.2111 90.16119 L 285.42462 90.16119 L 285.42462 76.46437"/></g><g id="Graphic_150"><path fill="#000" d="M 427.5484 75.93719 L 427.5484 75.93719 C 432.7664 75.93719 436.9964 80.1672 436.9964 85.38519 L 436.9964 94.93719 C 436.9964 100.15517 432.7664 104.38519 427.5484 104.38519 L 427.5484 104.38519 C 422.3304 104.38519 418.1004 100.15517 418.1004 94.93719 L 418.1004 85.38519 C 418.1004 80.1672 422.3304 75.93719 427.5484 75.93719 Z"/><text fill="#fff" transform="translate(423.1004 80.93719)"><tspan x="0" y="15" fill="#fff" font-family="Helvetica Neue" font-size="16">5</tspan></text></g><g id="Graphic_148"><text fill="#000" transform="translate(452.32 283.84037)"><tspan x="0" y="15" fill="#000" font-family="Helvetica Neue" font-size="16">Inbound</tspan> <tspan x="13.496" y="35.448" fill="#000" font-family="PingFang SC" font-size="16">流量</tspan></text></g><g id="Graphic_147"><text fill="#000" transform="translate(378.6518 525.3891)"><tspan x="0" y="15" fill="#000" font-family="Helvetica Neue" font-size="16">Outbound</tspan> <tspan x="22.248" y="35.448" fill="#000" font-family="PingFang SC" font-size="16">流量</tspan></text></g><g id="Line_146"><title>编号 15</title><path stroke="#000" stroke-dasharray="8 8" stroke-linecap="round" stroke-linejoin="round" stroke-width="2" marker-end="url(#FilledArrow_Marker)" d="M 285.42462 425.56437 L 285.42462 444.26355 L 986.0747 444.26355"/></g><g id="Graphic_145"><rect width="121" height="809" x="811.446" y="-195.936" fill="#0a55a8"/></g><g id="Graphic_144"><text fill="#000" transform="translate(-4.055306 552.1237)"><tspan x="0" y="21" fill="#000" font-family="PingFang SC" font-size="20" font-weight="bold">操作</tspan> <tspan y="21" fill="#000" font-family="Helvetica Neue" font-size="20" font-weight="bold"> iptables</tspan></text></g><g id="Graphic_143"><text fill="#000" transform="translate(-65.50381 118.22437) rotate(-90)"><tspan x="0" y="20" fill="#000" font-family="Helvetica Neue" font-size="20" font-weight="bold">Reviews Pod</tspan></text></g><g id="Graphic_142"><text fill="#000" transform="translate(-63.71374 532.6604) rotate(-90)"><tspan x="0" y="18" fill="#000" font-family="Helvetica Neue" font-size="17" font-weight="bold">Init </tspan> <tspan y="18" fill="#000" font-family="PingFang SC" font-size="17" font-weight="bold">容器</tspan></text></g><g id="Graphic_140"><text fill="#000" transform="translate(28.28688 -161.15963)"><tspan x="4.28" y="15" fill="#000" font-family="Helvetica Neue" font-size="16">Inbound</tspan> <tspan x="0" y="35.448" fill="#000" font-family="Helvetica Neue" font-size="16">TCP </tspan> <tspan y="35.448" fill="#000" font-family="PingFang SC" font-size="16">流量</tspan></text></g><g id="Line_138"><path stroke="#000" stroke-linecap="round" stroke-linejoin="round" stroke-width="2" marker-end="url(#FilledArrow_Marker)" d="M -51.71374 537.6604 L -51.71374 599.71846 L -50.762755 599.71846 L -37.3128 599.80475"/></g><g id="Graphic_135"><text fill="#000" transform="translate(-62.713744 422.66437) rotate(-90)"><tspan x="0" y="17" fill="#000" font-family="PingFang SC" font-size="16">在创建完</tspan> <tspan y="17" fill="#000" font-family="Helvetica Neue" font-size="16"> iptables </tspan> <tspan y="17" fill="#000" font-family="PingFang SC" font-size="16">规则后终止</tspan></text></g><g id="Graphic_134"><text fill="#000" transform="translate(479.4452 512.141) rotate(-90)"><tspan x="8.296" y="17" fill="#000" font-family="PingFang SC" font-size="16">发往非</tspan> <tspan x="0" y="37" fill="#000" font-family="Helvetica Neue" font-size="16">localhost</tspan></text></g><g id="Graphic_131"><rect width="28" height="100" x="811.874" y="457.358" fill="#fff"/><rect width="28" height="100" x="811.874" y="457.358" stroke="#a5a5a5" stroke-linecap="round" stroke-linejoin="round" stroke-width="1"/><text fill="#000" transform="translate(816.6497 542.33426) rotate(-90)"><tspan x="0" y="15" fill="#000" font-family="Helvetica Neue" font-size="16">Port 9080</tspan></text></g><g id="Graphic_129"><path fill="#000" d="M 471.5681 13.361914 L 471.5681 13.361914 C 476.7861 13.361914 481.0161 17.591928 481.0161 22.809914 L 481.0161 32.361912 C 481.0161 37.5799 476.7861 41.80991 471.5681 41.80991 L 471.5681 41.80991 C 466.35014 41.80991 462.12013 37.5799 462.12013 32.361912 L 462.12013 22.809914 C 462.12013 17.591928 466.35014 13.361914 471.5681 13.361914 Z"/><text fill="#fff" transform="translate(467.1201 18.361914)"><tspan x="0" y="15" fill="#fff" font-family="Helvetica Neue" font-size="16">9</tspan></text></g><g id="Graphic_128"><text fill="#000" transform="translate(756.7026 5.8398715)"><tspan x="0" y="17" fill="#000" font-family="PingFang SC" font-size="16">发往</tspan> <tspan x="0" y="39" fill="#000" font-family="PingFang SC" font-size="16">上游</tspan></text></g><g id="Line_125"><path stroke="#000" stroke-dasharray="8 8" stroke-linecap="round" stroke-linejoin="round" stroke-width="2" marker-end="url(#FilledArrow_Marker)" d="M 173.17462 48.56437 L 92.38411 48.56437 L 92.38411 168.23954 L 92.38411 381.56437 L 160.27462 381.56437"/></g><g id="Graphic_124"><path fill="#000" d="M 92.38411 83.54718 L 92.38411 83.54718 C 100.05866 83.54718 106.28011 89.76863 106.28011 97.44318 L 106.28011 98.09918 C 106.28011 105.77373 100.05866 111.99518 92.38411 111.99518 L 92.38411 111.99518 C 84.70956 111.99518 78.48811 105.77373 78.48811 98.09918 L 78.48811 97.44318 C 78.48811 89.76863 84.70956 83.54718 92.38411 83.54718 Z"/><text fill="#fff" transform="translate(83.48811 88.54718)"><tspan x="0" y="15" fill="#fff" font-family="Helvetica Neue" font-size="16">10</tspan></text></g><g id="Line_121"><path stroke="#000" stroke-dasharray="8 8" stroke-linecap="round" stroke-linejoin="round" stroke-width="2" marker-end="url(#FilledArrow_Marker)" d="M 397.6746 410.30424 L 499.2727 410.30424 L 499.72314 453.26604 L 499.6094 509.3144 L 499.6094 513.3144 L 410.36737 513.3144"/></g><g id="Graphic_120"><path fill="#000" d="M 315.0611 156.86464 L 315.0611 156.86464 C 320.2791 156.86464 324.5091 161.09465 324.5091 166.31264 L 324.5091 175.86463 C 324.5091 181.08262 320.2791 185.31263 315.0611 185.31263 L 315.0611 185.31263 C 309.84313 185.31263 305.6131 181.08262 305.6131 175.86463 L 305.6131 166.31264 C 305.6131 161.09465 309.84313 156.86464 315.0611 156.86464 Z"/><text fill="#fff" transform="translate(310.6131 161.86464)"><tspan x="0" y="15" fill="#fff" font-family="Helvetica Neue" font-size="16">8</tspan></text></g><g id="Line_117"><path stroke="#000" stroke-dasharray="8 8" stroke-linecap="round" stroke-linejoin="round" stroke-width="2" marker-end="url(#FilledArrow_Marker)" d="M 285.47546 520.5644 L 285.70186 545.6131 L 577.3111 545.6131"/></g><g id="Graphic_116"><path fill="#000" d="M 331.86256 531.3891 L 331.86256 531.3891 C 339.5371 531.3891 345.75856 537.61054 345.75856 545.2851 L 345.75856 545.9411 C 345.75856 553.61563 339.5371 559.8371 331.86256 559.8371 L 331.86256 559.8371 C 324.188 559.8371 317.96656 553.61563 317.96656 545.9411 L 317.96656 545.2851 C 317.96656 537.61054 324.188 531.3891 331.86256 531.3891 Z"/><text fill="#fff" transform="translate(322.96656 536.3891)"><tspan x="0" y="15" fill="#fff" font-family="Helvetica Neue" font-size="16">12</tspan></text></g><g id="Line_113"><path stroke="#000" stroke-dasharray="8 8" stroke-linecap="round" stroke-linejoin="round" stroke-width="2" marker-end="url(#FilledArrow_Marker)" d="M 589.31836 45.79186 L 577.91836 45.79186 L 410.7453 45.77565"/></g><g id="Graphic_112"><path fill="#000" d="M 438.98574 31.55439 L 438.98574 31.55439 C 446.6603 31.55439 452.88174 37.77584 452.88174 45.45039 L 452.88174 46.106387 C 452.88174 53.780936 446.6603 60.00239 438.98574 60.00239 L 438.98574 60.00239 C 431.3112 60.00239 425.08974 53.780936 425.08974 46.106387 L 425.08974 45.45039 C 425.08974 37.77584 431.3112 31.55439 438.98574 31.55439 Z"/><text fill="#fff" transform="translate(430.08974 36.55439)"><tspan x="0" y="15" fill="#fff" font-family="Helvetica Neue" font-size="16">13</tspan></text></g><g id="Graphic_107"><path fill="#000" d="M 334.14484 430.03955 L 334.14484 430.03955 C 326.41285 430.03955 320.14484 436.30757 320.14484 444.03955 L 320.14484 444.48755 C 320.14484 452.21954 326.41285 458.48755 334.14484 458.48755 L 334.14484 458.48755 C 341.87682 458.48755 348.14484 452.21954 348.14484 444.48755 L 348.14484 444.03955 C 348.14484 436.30757 341.87682 430.03955 334.14484 430.03955 Z"/><text fill="#fff" transform="translate(325.14484 435.03955)"><tspan x=".104" y="15" fill="#fff" font-family="Helvetica Neue" font-size="16">15</tspan></text></g><g id="Line_101"><path stroke="#a5a5a5" stroke-linecap="round" stroke-linejoin="round" stroke-width="2" d="M 562.5825 -260.17963 L 562.83964 129.40285 L 562.58176 646.1924"/></g><g id="Graphic_100"><text fill="#000" transform="translate(147.2948 -248.6279)"><tspan x="0" y="21" fill="#000" font-family="Helvetica Neue" font-size="20" font-weight="bold">Netfilter/Linux Kernel </tspan> <tspan y="21" fill="#000" font-family="PingFang SC" font-size="20" font-weight="bold">空间</tspan></text></g><g id="Graphic_99"><text fill="#000" transform="translate(645.175 -248.6279)"><tspan x="0" y="21" fill="#000" font-family="PingFang SC" font-size="20" font-weight="bold">应用和</tspan> <tspan y="21" fill="#000" font-family="Helvetica Neue" font-size="20" font-weight="bold"> Sidecar/Linux </tspan> <tspan y="21" fill="#000" font-family="PingFang SC" font-size="20" font-weight="bold">用户空间</tspan></text></g><g id="Graphic_92"><text fill="#fff" transform="translate(611.7979 -176.74963)"><tspan x="0" y="17" fill="#fff" font-family="PingFang SC" font-size="16">执行</tspan> <tspan y="17" fill="#fff" font-family="Helvetica Neue" font-size="16"> xDS </tspan> <tspan y="17" fill="#fff" font-family="PingFang SC" font-size="16">配置</tspan> <tspan x="11.408" y="39" fill="#fff" font-family="PingFang SC" font-size="16">的路由选择</tspan></text></g><g id="Graphic_91"><text fill="#000" transform="translate(-443.0675 -30.022908)"><tspan x="0" y="17" fill="#000" font-family="PingFang SC" font-size="16">本图以</tspan> <tspan y="17" fill="#000" font-family="Helvetica Neue" font-size="16"> Review </tspan> <tspan y="17" fill="#000" font-family="PingFang SC" font-size="16">服务的</tspan> <tspan y="17" fill="#000" font-family="Helvetica Neue" font-size="16"> Pod </tspan> <tspan y="17" fill="#000" font-family="PingFang SC" font-size="16">为例，它接受来自</tspan> <tspan y="17" fill="#000" font-family="Helvetica Neue" font-size="16"> </tspan> <tspan x="0" y="39" fill="#000" font-family="Helvetica Neue" font-size="16">Productpage </tspan> <tspan y="39" fill="#000" font-family="PingFang SC" font-size="16">服务的流量，同时向</tspan> <tspan y="39" fill="#000" font-family="Helvetica Neue" font-size="16"> Ratings </tspan> <tspan y="39" fill="#000" font-family="PingFang SC" font-size="16">服务</tspan> <tspan x="0" y="61" fill="#000" font-family="PingFang SC" font-size="16">发送请求。</tspan> <tspan x="0" y="101" fill="#000" font-family="PingFang SC" font-size="16">注：路径</tspan> <tspan y="101" fill="#000" font-family="Helvetica Neue" font-size="16"> 16 </tspan> <tspan y="101" fill="#000" font-family="PingFang SC" font-size="16">仅用于</tspan> <tspan y="101" fill="#000" font-family="Helvetica Neue" font-size="16"> iptables </tspan> <tspan y="101" fill="#000" font-family="PingFang SC" font-size="16">规则说明，并不在</tspan> <tspan x="0" y="123" fill="#000" font-family="PingFang SC" font-size="16">该示例的实际路由路径中。本图仅针对</tspan> <tspan y="123" fill="#000" font-family="Helvetica Neue" font-size="16"> TCP </tspan> <tspan y="123" fill="#000" font-family="PingFang SC" font-size="16">流</tspan> <tspan x="0" y="145" fill="#000" font-family="PingFang SC" font-size="16">量。</tspan></text></g><g id="Line_90"><line x1="-215.103" x2="160.275" y1="-140.936" y2="-140.936" stroke="#000" stroke-linecap="round" stroke-linejoin="round" stroke-width="2" marker-end="url(#FilledArrow_Marker)"/></g><g id="Graphic_89"><rect width="230.904" height="84.607" x="-446.007" y="-156.484" fill="#fff"/><rect width="230.904" height="84.607" x="-446.007" y="-156.484" stroke="#000" stroke-linecap="round" stroke-linejoin="round" stroke-width="1"/></g><g id="Graphic_88"><text fill="#000" transform="translate(-413.71476 -154.3758)"><tspan x="0" y="20" fill="#000" font-family="Helvetica Neue" font-size="20" font-weight="bold">Productpage Pod</tspan></text></g><g id="Graphic_87"><rect width="115.452" height="54.355" x="-446.007" y="-126.232" fill="#0a55a8"/><rect width="115.452" height="54.355" x="-446.007" y="-126.232" stroke="#000" stroke-linecap="round" stroke-linejoin="round" stroke-width="1"/><text fill="#fff" transform="translate(-424.28075 -111.55451)"><tspan x="0" y="19" fill="#fff" font-family="PingFang SC" font-size="18" font-weight="bold">应用容器</tspan></text></g><g id="Graphic_86"><rect width="115.452" height="54.355" x="-330.555" y="-126.232" fill="#0a55a8"/><rect width="115.452" height="54.355" x="-330.555" y="-126.232" stroke="#000" stroke-linecap="round" stroke-linejoin="round" stroke-width="1"/><text fill="#fff" transform="translate(-323.48976 -111.55451)"><tspan x="0" y="19" fill="#fff" font-family="Helvetica Neue" font-size="18" font-weight="bold">Sidecar</tspan> <tspan y="19" fill="#fff" font-family="PingFang SC" font-size="18" font-weight="bold">容器</tspan></text></g><g id="Graphic_85"><path fill="#000" d="M -120.8009 -155.15963 L -120.8009 -155.15963 C -115.58292 -155.15963 -111.3529 -150.92961 -111.3529 -145.71163 L -111.3529 -136.15963 C -111.3529 -130.94164 -115.58292 -126.71163 -120.8009 -126.71163 L -120.8009 -126.71163 C -126.01889 -126.71163 -130.2489 -130.94164 -130.2489 -136.15963 L -130.2489 -145.71163 C -130.2489 -150.92961 -126.01889 -155.15963 -120.8009 -155.15963 Z"/><text fill="#fff" transform="translate(-125.2489 -150.15963)"><tspan x="0" y="15" fill="#fff" font-family="Helvetica Neue" font-size="16">1</tspan></text></g><g id="Graphic_83"><text fill="#fff" transform="translate(626.9159 40.166217)"><tspan x="0" y="20" fill="#fff" font-family="Helvetica Neue" font-size="20" font-weight="bold">Sidecar</tspan> <tspan x="16.29" y="45.58" fill="#fff" font-family="PingFang SC" font-size="20" font-weight="bold">容器</tspan></text></g><g id="Group_80"><g id="Graphic_82"><rect width="20.867" height="182.897" x="611.001" y="191.564" fill="#0a55a8"/><rect width="20.867" height="182.897" x="611.001" y="191.564" stroke="gray" stroke-linecap="round" stroke-linejoin="round" stroke-width="1"/><text fill="#fff" transform="translate(612.21 342.73284) rotate(-90)"><tspan x="0" y="15" fill="#fff" font-family="Helvetica Neue" font-size="16">Inbound Handler</tspan></text></g><g id="Graphic_81"><rect width="20.867" height="182.897" x="611.001" y="374.461" fill="#0a55a8"/><rect width="20.867" height="182.897" x="611.001" y="374.461" stroke="gray" stroke-linecap="round" stroke-linejoin="round" stroke-width="1"/><text fill="#fff" transform="translate(612.21 532.1578) rotate(-90)"><tspan x="0" y="15" fill="#fff" font-family="Helvetica Neue" font-size="16">Outbound Handler</tspan></text></g></g><g id="Graphic_79"><text fill="#fff" transform="translate(851.9613 39.956286)"><tspan x="0" y="21" fill="#fff" font-family="PingFang SC" font-size="20" font-weight="bold">应用</tspan> <tspan x="0" y="49" fill="#fff" font-family="PingFang SC" font-size="20" font-weight="bold">容器</tspan></text></g><g id="Graphic_78"><text fill="#fff" transform="translate(817.5853 -177.07242)"><tspan x="14.376" y="17" fill="#fff" font-family="PingFang SC" font-size="16">发送流量到</tspan> <tspan x="22.376" y="39" fill="#fff" font-family="PingFang SC" font-size="16">上游或者</tspan> <tspan x="0" y="61" fill="#fff" font-family="PingFang SC" font-size="16">消费由</tspan> <tspan y="61" fill="#fff" font-family="Helvetica Neue" font-size="16"> iptables</tspan> <tspan x="6.376" y="83" fill="#fff" font-family="PingFang SC" font-size="16">重定向的流量</tspan></text></g><g id="Graphic_77"><rect width="20.867" height="182.794" x="590.211" y="191.564" fill="#fff"/><rect width="20.867" height="182.794" x="590.211" y="191.564" stroke="gray" stroke-linecap="round" stroke-linejoin="round" stroke-width="1"/><text fill="#000" transform="translate(591.42045 322.3853) rotate(-90)"><tspan x="0" y="15" fill="#000" font-family="Helvetica Neue" font-size="16">Port 15006</tspan></text></g><g id="Line_76"><path stroke="#000" stroke-linecap="round" stroke-linejoin="round" stroke-width="2" marker-end="url(#FilledArrow_Marker)" d="M 397.6746 399.3968 L 425.40156 399.4789 L 437.17086 399.4789 L 437.17086 213.59655 L 437.17086 126.06437 L 410.5746 126.06437"/></g><g id="Graphic_75"><path fill="#000" d="M 437.17086 246.56223 L 437.17086 246.56223 C 442.38884 246.56223 446.61886 250.79225 446.61886 256.01023 L 446.61886 265.56223 C 446.61886 270.78022 442.38884 275.01023 437.17086 275.01023 L 437.17086 275.01023 C 431.95287 275.01023 427.72286 270.78022 427.72286 265.56223 L 427.72286 256.01023 C 427.72286 250.79225 431.95287 246.56223 437.17086 246.56223 Z"/><text fill="#fff" transform="translate(432.72286 251.56223)"><tspan x="0" y="15" fill="#fff" font-family="Helvetica Neue" font-size="16">7</tspan></text></g><g id="Graphic_74"><text fill="#000" transform="translate(-441.4868 -254.6279)"><tspan x="0" y="30" fill="#000" font-family="Helvetica Neue" font-size="28">Istio </tspan> <tspan y="30" fill="#000" font-family="PingFang SC" font-size="28">透明流量劫持示意图</tspan></text></g><g id="Graphic_72"><text fill="#000" transform="translate(-441.4868 590.0388)"><tspan x="0" y="15" fill="#000" font-family="Helvetica Neue" font-size="16">https://jimmysong.io</tspan> <tspan x="0" y="39" fill="#000" font-family="Helvetica Neue" font-size="16">Version: 2022-11-16</tspan></text></g><g id="Graphic_70"><rect width="20.867" height="182.794" x="590.211" y="374.564" fill="#fff"/><rect width="20.867" height="182.794" x="590.211" y="374.564" stroke="gray" stroke-linecap="round" stroke-linejoin="round" stroke-width="1"/><text fill="#000" transform="translate(591.42045 505.3853) rotate(-90)"><tspan x="0" y="15" fill="#000" font-family="Helvetica Neue" font-size="16">Port 15001</tspan></text></g><g id="Graphic_69"><text fill="#000" transform="translate(-441.00675 -206.80075)"><tspan x="0" y="21" fill="#000" font-family="PingFang SC" font-size="20">基于</tspan> <tspan y="21" fill="#000" font-family="Helvetica Neue" font-size="20"> Istio 1.14 </tspan> <tspan y="21" fill="#000" font-family="PingFang SC" font-size="20">绘制</tspan></text></g><g id="Graphic_68"><rect width="26" height="142" x="774.107" y="237.712" fill="#fff"/><text fill="#000" transform="translate(779.1069 242.71218)"><tspan x="0" y="17" fill="#000" font-family="PingFang SC" font-size="16">发</tspan> <tspan x="0" y="39" fill="#000" font-family="PingFang SC" font-size="16">往</tspan> <tspan x="0" y="61" fill="#000" font-family="PingFang SC" font-size="16">应</tspan> <tspan x="0" y="83" fill="#000" font-family="PingFang SC" font-size="16">用</tspan> <tspan x="0" y="105" fill="#000" font-family="PingFang SC" font-size="16">容</tspan> <tspan x="0" y="127" fill="#000" font-family="PingFang SC" font-size="16">器</tspan></text></g><g id="Graphic_67"><path fill="#000" d="M 92.38411 138.68347 L 92.38411 138.68347 C 100.05866 138.68347 106.28011 144.90492 106.28011 152.57947 L 106.28011 153.23546 C 106.28011 160.91001 100.05866 167.13146 92.38411 167.13146 L 92.38411 167.13146 C 84.70956 167.13146 78.48811 160.91001 78.48811 153.23546 L 78.48811 152.57947 C 78.48811 144.90492 84.70956 138.68347 92.38411 138.68347 Z"/><text fill="#fff" transform="translate(83.48811 143.68347)"><tspan x="0" y="15" fill="#fff" font-family="Helvetica Neue" font-size="16">14</tspan></text></g><g id="Line_66"><path stroke="#000" stroke-linecap="round" stroke-linejoin="round" stroke-width="2" marker-end="url(#FilledArrow_Marker)" d="M 397.6746 380.00295 L 427.72286 380.00295 L 427.72286 351.6848 L 285.42462 351.6848 L 285.42462 343.46437"/></g><g id="Graphic_65"><path fill="#000" d="M 336.01518 337.4608 L 336.01518 337.4608 C 343.68973 337.4608 349.91118 343.68225 349.91118 351.3568 L 349.91118 352.0128 C 349.91118 359.68735 343.68973 365.9088 336.01518 365.9088 L 336.01518 365.9088 C 328.34063 365.9088 322.11918 359.68735 322.11918 352.0128 L 322.11918 351.3568 C 322.11918 343.68225 328.34063 337.4608 336.01518 337.4608 Z"/><text fill="#fff" transform="translate(327.11918 342.4608)"><tspan x="0" y="15" fill="#fff" font-family="Helvetica Neue" font-size="16">16</tspan></text></g><g id="Graphic_63"><text fill="#000" transform="translate(-441.4868 475.61063)"><tspan x="0" y="17" fill="#000" font-family="PingFang SC" font-size="16" font-weight="bold">图例</tspan></text></g><g id="Line_61"><line x1="-442.095" x2="-386.175" y1="516.88" y2="516.88" stroke="#000" stroke-dasharray="8 8" stroke-linecap="round" stroke-linejoin="round" stroke-width="2" marker-end="url(#FilledArrow_Marker)"/></g><g id="Graphic_60"><text fill="#000" transform="translate(-333.91503 505.8798)"><tspan x="0" y="17" fill="#000" font-family="Helvetica Neue" font-size="16">Outbound </tspan> <tspan y="17" fill="#000" font-family="PingFang SC" font-size="16">流量路由</tspan></text></g><g id="Graphic_56"><text fill="#000" transform="translate(-333.91503 536.149)"><tspan x="0" y="17" fill="#000" font-family="Helvetica Neue" font-size="16">Inbound TCP </tspan> <tspan y="17" fill="#000" font-family="PingFang SC" font-size="16">流量路由</tspan></text></g><g id="Line_55"><line x1="-442.568" x2="-386.175" y1="547.22" y2="547.169" stroke="#000" stroke-linecap="round" stroke-linejoin="round" stroke-width="2" marker-end="url(#FilledArrow_Marker)"/></g><g id="Graphic_54"><text fill="#000" transform="translate(375.11574 329.6848)"><tspan x="0" y="17" fill="#000" font-family="PingFang SC" font-size="16">内部</tspan> <tspan x="0" y="39" fill="#000" font-family="PingFang SC" font-size="16">流量</tspan></text></g><g id="Group_44"><g id="Graphic_53"><rect width="20.867" height="182.897" x="631.867" y="191.564" fill="#fff"/><rect width="20.867" height="182.897" x="631.867" y="191.564" stroke="gray" stroke-linecap="round" stroke-linejoin="round" stroke-width="1"/><text fill="#000" transform="translate(636.1607 333.87284) rotate(-90)"><tspan x="0" y="10" fill="#000" font-family="Helvetica Neue" font-size="10">Listener 0.0.0.0_15006</tspan></text></g><g id="Graphic_52"><rect width="20.867" height="182.897" x="631.867" y="374.461" fill="#fff"/><rect width="20.867" height="182.897" x="631.867" y="374.461" stroke="gray" stroke-linecap="round" stroke-linejoin="round" stroke-width="1"/><text fill="#000" transform="translate(636.1607 516.7698) rotate(-90)"><tspan x="0" y="10" fill="#000" font-family="Helvetica Neue" font-size="10">Listener 0.0.0.0_15001</tspan></text></g><g id="Graphic_51"><rect width="20.867" height="182.897" x="652.734" y="191.564" fill="#fff"/><rect width="20.867" height="182.897" x="652.734" y="191.564" stroke="gray" stroke-linecap="round" stroke-linejoin="round" stroke-width="1"/><text fill="#000" transform="translate(657.02735 329.41284) rotate(-90)"><tspan x="0" y="10" fill="#000" font-family="Helvetica Neue" font-size="10">Listener PodIP_9080</tspan></text></g><g id="Graphic_50"><rect width="20.867" height="182.897" x="673.601" y="191.564" fill="#fff"/><rect width="20.867" height="182.897" x="673.601" y="191.564" stroke="gray" stroke-linecap="round" stroke-linejoin="round" stroke-width="1"/><text fill="#000" transform="translate(677.894 369.51284) rotate(-90)"><tspan x="0" y="10" fill="#000" font-family="Helvetica Neue" font-size="10">Filter envoy. http_connection_manager</tspan></text></g><g id="Graphic_49"><rect width="41.733" height="182.897" x="694.467" y="191.564" fill="#fff"/><rect width="41.733" height="182.897" x="694.467" y="191.564" stroke="gray" stroke-linecap="round" stroke-linejoin="round" stroke-width="1"/><text fill="#000" transform="translate(705.11 366.22884) rotate(-90)"><tspan x="42.092" y="8" fill="#000" font-family="Helvetica Neue" font-size="8">Cluster: inbound|9080||</tspan> <tspan x="0" y="18.224" fill="#000" font-family="Helvetica Neue" font-size="8">upstreamBindConfig source address 127.0.0.6</tspan></text></g><g id="Graphic_48"><rect width="20.867" height="182.897" x="652.734" y="374.461" fill="#fff"/><rect width="20.867" height="182.897" x="652.734" y="374.461" stroke="gray" stroke-linecap="round" stroke-linejoin="round" stroke-width="1"/><text fill="#000" transform="translate(657.02735 513.9898) rotate(-90)"><tspan x="0" y="10" fill="#000" font-family="Helvetica Neue" font-size="10">Listener 0.0.0.0_9080</tspan></text></g><g id="Graphic_47"><rect width="20.867" height="182.897" x="673.601" y="374.461" fill="#fff"/><rect width="20.867" height="182.897" x="673.601" y="374.461" stroke="gray" stroke-linecap="round" stroke-linejoin="round" stroke-width="1"/><text fill="#000" transform="translate(677.894 491.7548) rotate(-90)"><tspan x="0" y="10" fill="#000" font-family="Helvetica Neue" font-size="10">Route 9080</tspan></text></g><g id="Graphic_46"><title>Cluster</title><rect width="20.867" height="182.897" x="694.467" y="374.461" fill="#fff"/><rect width="20.867" height="182.897" x="694.467" y="374.461" stroke="gray" stroke-linecap="round" stroke-linejoin="round" stroke-width="1"/><text fill="#000" transform="translate(694.6767 549.7058) rotate(-90)"><tspan x="71.056" y="8" fill="#000" font-family="Helvetica Neue" font-size="8">Cluster </tspan> <tspan x="0" y="18.224" fill="#000" font-family="Helvetica Neue" font-size="8">outbound|9080||ratings.default.svc.cluster.local</tspan></text></g><g id="Graphic_45"><rect width="20.867" height="182.897" x="715.334" y="374.461" fill="#fff"/><rect width="20.867" height="182.897" x="715.334" y="374.461" stroke="gray" stroke-linecap="round" stroke-linejoin="round" stroke-width="1"/><text fill="#000" transform="translate(719.6274 513.5198) rotate(-90)"><tspan x="0" y="10" fill="#000" font-family="Helvetica Neue" font-size="10">Endpoint PodIP:9080</tspan></text></g></g><g id="Graphic_43"><rect width="47.622" height="51.431" x="-243.451" y="359.884" stroke="gray" stroke-linecap="round" stroke-linejoin="round" stroke-width="1"/></g><g id="Graphic_42"><rect width="38.551" height="38" x="-395.162" y="299.361" fill="#fff"/><rect width="38.551" height="38" x="-395.162" y="299.361" stroke="gray" stroke-linecap="round" stroke-linejoin="round" stroke-width="1"/><text fill="#000" transform="translate(-390.16234 304.3613)"><tspan x="2.932" y="7" fill="#000" font-family="Helvetica Neue" font-size="7">Ingress</tspan> <tspan x="4.682" y="15.196" fill="#000" font-family="Helvetica Neue" font-size="7">Envoy</tspan></text></g><g id="Graphic_41"><rect width="47.622" height="51.431" x="-243.831" y="292.646" stroke="gray" stroke-linecap="round" stroke-linejoin="round" stroke-width="1"/></g><g id="Line_40"><line x1="-445.447" x2="-400.362" y1="318.361" y2="318.361" stroke="#000" stroke-linecap="round" stroke-linejoin="round" stroke-width=".5" marker-end="url(#FilledArrow_Marker_2)"/></g><g id="Graphic_39"><text fill="#000" transform="translate(-432.14475 305.3753)"><tspan x="0" y="7" fill="#000" font-family="Helvetica Neue" font-size="7">Request</tspan></text></g><g id="Graphic_38"><title>Rectangle</title><rect width="47.622" height="51.431" x="-243.071" y="225.408" fill="#fff"/><rect width="47.622" height="51.431" x="-243.071" y="225.408" stroke="gray" stroke-linecap="round" stroke-linejoin="round" stroke-width="1"/></g><g id="Graphic_37"><rect width="26.221" height="7.72" x="-388.997" y="323.723" fill="#333"/></g><g id="Graphic_36"><rect width="36.061" height="21.918" x="-237.67" y="297.226" fill="#fff"/><rect width="36.061" height="21.918" x="-237.67" y="297.226" stroke="gray" stroke-linecap="round" stroke-linejoin="round" stroke-width=".5"/><text fill="#000" transform="translate(-236.6704 300.60088)"><tspan x="1.479" y="6" fill="#000" font-family="Helvetica Neue" font-size="6">Reviews-v2</tspan> <tspan x="2.031" y="13.168" fill="#000" font-family="PingFang SC" font-size="6">★★★★★</tspan></text></g><g id="Graphic_35"><rect width="26.221" height="7.72" x="-232.75" y="330.687" fill="#333"/></g><g id="Line_34"><line x1="-219.64" x2="-219.64" y1="321.994" y2="327.837" stroke="#000" stroke-linecap="round" stroke-linejoin="round" stroke-width=".25" marker-end="url(#FilledArrow_Marker_2)" marker-start="url(#FilledArrow_Marker_3)"/></g><g id="Graphic_33"><rect width="36.061" height="21.918" x="-237.29" y="364.464" fill="#fff"/><rect width="36.061" height="21.918" x="-237.29" y="364.464" stroke="gray" stroke-linecap="round" stroke-linejoin="round" stroke-width=".5"/><text fill="#000" transform="translate(-236.2904 367.8386)"><tspan x="1.479" y="6" fill="#000" font-family="Helvetica Neue" font-size="6">Reviews-v3</tspan> <tspan x="2.031" y="13.168" fill="#ff2600" font-family="PingFang SC" font-size="6">★★★★★</tspan></text></g><g id="Graphic_32"><rect width="26.221" height="7.72" x="-232.37" y="397.925" fill="#333"/></g><g id="Line_31"><line x1="-219.204" x2="-219.181" y1="389.231" y2="395.075" stroke="#000" stroke-linecap="round" stroke-linejoin="round" stroke-width=".25" marker-end="url(#FilledArrow_Marker_2)" marker-start="url(#FilledArrow_Marker_3)"/></g><g id="Graphic_30"><rect width="36.061" height="21.918" x="-236.91" y="229.988" fill="#fff"/><rect width="36.061" height="21.918" x="-236.91" y="229.988" stroke="gray" stroke-linecap="round" stroke-linejoin="round" stroke-width=".5"/><text fill="#000" transform="translate(-235.9104 237.36315)"><tspan x="1.479" y="6" fill="#000" font-family="Helvetica Neue" font-size="6">Reviews-v1</tspan></text></g><g id="Graphic_29"><rect width="26.221" height="7.72" x="-231.99" y="263.449" fill="#333"/></g><g id="Line_28"><line x1="-218.88" x2="-218.88" y1="254.756" y2="260.599" stroke="#000" stroke-linecap="round" stroke-linejoin="round" stroke-width=".25" marker-end="url(#FilledArrow_Marker_2)" marker-start="url(#FilledArrow_Marker_3)"/></g><g id="Graphic_27"><title>Rectangle</title><rect width="47.622" height="51.431" x="-324.032" y="292.646" fill="#fff"/><rect width="47.622" height="51.431" x="-324.032" y="292.646" stroke="gray" stroke-linecap="round" stroke-linejoin="round" stroke-width="1"/></g><g id="Graphic_26"><rect width="36.061" height="21.918" x="-317.872" y="297.226" fill="#fff"/><rect width="36.061" height="21.918" x="-317.872" y="297.226" stroke="gray" stroke-linecap="round" stroke-linejoin="round" stroke-width=".5"/><text fill="#000" transform="translate(-316.87154 301.01688)"><tspan x="6.417" y="6" fill="#000" font-family="Helvetica Neue" font-size="6">Product</tspan> <tspan x="10.307" y="13.168" fill="#000" font-family="Helvetica Neue" font-size="6">page</tspan></text></g><g id="Graphic_25"><rect width="26.221" height="7.72" x="-312.951" y="330.687" fill="#333"/></g><g id="Line_24"><line x1="-299.841" x2="-299.841" y1="321.994" y2="327.837" stroke="#000" stroke-linecap="round" stroke-linejoin="round" stroke-width=".25" marker-end="url(#FilledArrow_Marker_2)" marker-start="url(#FilledArrow_Marker_3)"/></g><g id="Graphic_23"><title>Rectangle</title><rect width="47.622" height="51.431" x="-163.63" y="292.646" fill="#fff"/><rect width="47.622" height="51.431" x="-163.63" y="292.646" stroke="gray" stroke-linecap="round" stroke-linejoin="round" stroke-width="1"/></g><g id="Graphic_22"><rect width="36.061" height="21.918" x="-157.469" y="297.226" fill="#fff"/><rect width="36.061" height="21.918" x="-157.469" y="297.226" stroke="gray" stroke-linecap="round" stroke-linejoin="round" stroke-width=".5"/><text fill="#000" transform="translate(-156.46925 304.60088)"><tspan x="6.864" y="6" fill="#000" font-family="Helvetica Neue" font-size="6">Ratings</tspan></text></g><g id="Graphic_21"><rect width="26.221" height="7.72" x="-152.549" y="330.687" fill="#333"/></g><g id="Line_20"><line x1="-139.439" x2="-139.439" y1="321.994" y2="327.837" stroke="#000" stroke-linecap="round" stroke-linejoin="round" stroke-width=".25" marker-end="url(#FilledArrow_Marker_2)" marker-start="url(#FilledArrow_Marker_3)"/></g><g id="Line_19"><line x1="-356.611" x2="-329.232" y1="318.361" y2="318.361" stroke="#000" stroke-linecap="round" stroke-linejoin="round" stroke-width=".5" marker-end="url(#FilledArrow_Marker_2)"/></g><g id="Line_18"><line x1="-295.193" x2="-227.528" y1="330.687" y2="274.492" stroke="#000" stroke-linecap="round" stroke-linejoin="round" stroke-width=".5" marker-end="url(#FilledArrow_Marker_2)"/></g><g id="Line_17"><line x1="-286.731" x2="-237.95" y1="334.547" y2="334.547" stroke="#000" stroke-linecap="round" stroke-linejoin="round" stroke-width=".5" marker-end="url(#FilledArrow_Marker_2)"/></g><g id="Line_16"><line x1="-295.894" x2="-236.088" y1="338.407" y2="396.892" stroke="#000" stroke-linecap="round" stroke-linejoin="round" stroke-width=".5" marker-end="url(#FilledArrow_Marker_2)"/></g><g id="Line_15"><line x1="-206.53" x2="-157.749" y1="334.547" y2="334.547" stroke="#000" stroke-linecap="round" stroke-linejoin="round" stroke-width=".5" marker-end="url(#FilledArrow_Marker_2)"/></g><g id="Line_14"><line x1="-214.319" x2="-147.969" y1="271.17" y2="327.327" stroke="#000" stroke-linecap="round" stroke-linejoin="round" stroke-width=".5" marker-end="url(#FilledArrow_Marker_2)"/></g><g id="Graphic_13"><path stroke="gray" stroke-dasharray="4 4" stroke-linecap="round" stroke-linejoin="round" stroke-width="1" d="M -255.54458 216.66581 L -182.21524 216.66581 L -182.21524 420.05676 L -255.54458 420.05676 Z"/></g><g id="Graphic_12"><title>Bookinfo Sample</title><text fill="#000" transform="translate(-441.1908 193.25362)"><tspan x="0" y="17" fill="#000" font-family="Helvetica Neue" font-size="16" font-weight="bold">Bookinfo </tspan> <tspan y="17" fill="#000" font-family="PingFang SC" font-size="16" font-weight="bold">示例</tspan></text></g><g id="Graphic_11"><text fill="#000" transform="translate(-318.73505 273.31)"><tspan x="0" y="11" fill="#000" font-family="Helvetica Neue" font-size="12">Python</tspan></text></g><g id="Graphic_10"><text fill="#000" transform="translate(-231.4379 197.32981)"><tspan x="0" y="11" fill="#000" font-family="Helvetica Neue" font-size="12">Java</tspan></text></g><g id="Graphic_9"><text fill="#000" transform="translate(-160.99675 273.31)"><tspan x="0" y="11" fill="#000" font-family="Helvetica Neue" font-size="12">NodeJS</tspan></text></g><g id="Graphic_8"><path fill="#000" d="M 467.18883 396.08025 L 467.18883 396.08025 C 474.8634 396.08025 481.08483 402.3017 481.08483 409.97625 L 481.08483 410.63224 C 481.08483 418.3068 474.8634 424.52824 467.18883 424.52824 L 467.18883 424.52824 C 459.5143 424.52824 453.29283 418.3068 453.29283 410.63224 L 453.29283 409.97625 C 453.29283 402.3017 459.5143 396.08025 467.18883 396.08025 Z"/><text fill="#fff" transform="translate(458.29283 401.08025)"><tspan x="0" y="15" fill="#fff" font-family="Helvetica Neue" font-size="16">11</tspan></text></g><g id="Graphic_7"><title>Rectangle</title><rect width="47.622" height="51.431" x="-323.272" y="359.884" fill="#fff"/><rect width="47.622" height="51.431" x="-323.272" y="359.884" stroke="gray" stroke-linecap="round" stroke-linejoin="round" stroke-width="1"/></g><g id="Graphic_6"><rect width="36.061" height="21.918" x="-317.872" y="383.727" fill="#fff"/><rect width="36.061" height="21.918" x="-317.872" y="383.727" stroke="gray" stroke-linecap="round" stroke-linejoin="round" stroke-width=".5"/><text fill="#000" transform="translate(-316.87154 391.1022)"><tspan x="7.92" y="6" fill="#000" font-family="Helvetica Neue" font-size="6">Details</tspan></text></g><g id="Graphic_5"><rect width="26.221" height="7.72" x="-312.951" y="369.214" fill="#333"/></g><g id="Graphic_4"><text fill="#000" transform="translate(-313.84504 417.4379)"><tspan x="0" y="11" fill="#000" font-family="Helvetica Neue" font-size="12">Ruby</tspan></text></g><g id="Line_3"><line x1="-299.841" x2="-299.841" y1="338.407" y2="364.014" stroke="#000" stroke-linecap="round" stroke-linejoin="round" stroke-width=".5" marker-end="url(#FilledArrow_Marker_2)"/></g><g id="Graphic_2"><title>底部</title><rect width="349.464" height="260.205" x="-448.067" y="184.256" stroke="gray" stroke-linecap="round" stroke-linejoin="round" stroke-width="1"/></g></g></g></svg>