<svg xmlns="http://www.w3.org/2000/svg" xmlns:xl="http://www.w3.org/1999/xlink" width="937" height="708" version="1.1" viewBox="1006 117 937 708"><defs><marker id="FilledArrow_Marker" stroke-linejoin="miter" stroke-miterlimit="10" color="#000" markerHeight="6" markerUnits="strokeWidth" markerWidth="7" orient="auto" overflow="visible" viewBox="-1 -3 7 6"><g><path fill="currentColor" stroke="currentColor" stroke-width="1" d="M 4.8 0 L 0 -1.8 L 0 1.8 Z"/></g></marker></defs><g id="Docker_daemon" fill="none" fill-opacity="1" stroke="none" stroke-dasharray="none" stroke-opacity="1"><title>Docker daemon</title><rect width="937" height="708" x="1006" y="117" fill="#fff"/><g id="Docker_daemon_Layer_1"><title>Layer 1</title><g id="Graphic_129"><rect width="936.56" height="704.409" x="1006.009" y="120.472" fill="#fff"/></g><g id="Graphic_106"><rect width="376.794" height="535.748" x="1035.589" y="274.961" stroke="gray" stroke-linecap="round" stroke-linejoin="round" stroke-width="1"/><text fill="#000" transform="translate(1040.5887 786.2446)"><tspan x="141.917" y="16" fill="#000" font-family="Helvetica Neue" font-size="16" font-weight="bold">Data Plane</tspan></text></g><g id="Graphic_90"><rect width="327.692" height="352.913" x="1060.139" y="418.11" fill="#ededed"/><rect width="327.692" height="352.913" x="1060.139" y="418.11" stroke="gray" stroke-linecap="round" stroke-linejoin="round" stroke-width="1"/><text fill="#000" transform="translate(1065.1395 744.0236)"><tspan x="28.638" y="17" fill="#000" font-family="Helvetica Neue" font-size="16" font-weight="bold">Docker Daemon</tspan> <tspan y="17" fill="#000" font-family="PingFang SC" font-size="16" font-weight="bold"> (</tspan> <tspan y="17" fill="#000" font-family="Helvetica Neue" font-size="16" font-weight="bold">not support CRI)</tspan></text></g><g id="Graphic_104"><rect width="376.794" height="102.047" x="1035.589" y="141.732" fill="#fff"/><rect width="376.794" height="102.047" x="1035.589" y="141.732" stroke="gray" stroke-linecap="round" stroke-linejoin="round" stroke-width="1"/><text fill="#000" transform="translate(1040.5887 146.73228)"><tspan x="131.549" y="16" fill="#000" font-family="Helvetica Neue" font-size="16" font-weight="bold">Control Plane</tspan></text></g><g id="Graphic_93"><rect width="327.692" height="97.795" x="1060.139" y="293.386" fill="#ededed"/><rect width="327.692" height="97.795" x="1060.139" y="293.386" stroke="gray" stroke-linecap="round" stroke-linejoin="round" stroke-width="1"/><text fill="#000" transform="translate(1065.1395 298.38583)"><tspan x="129.374" y="16" fill="#000" font-family="Helvetica Neue" font-size="16" font-weight="bold">Kubelet</tspan></text></g><g id="Graphic_73"><rect width="190.63" height="48.189" x="1127.631" y="439.332" fill="#0a55a8"/><text fill="#fff" transform="translate(1132.6307 453.69416)"><tspan x="49.427" y="16" fill="#fff" font-family="Helvetica Neue" font-size="16" font-weight="bold">containerd</tspan></text></g><g id="Graphic_62"><rect width="190.63" height="48.189" x="1127.631" y="521.613" fill="#0a55a8"/><text fill="#fff" transform="translate(1132.6307 535.9756)"><tspan x="27.819" y="16" fill="#fff" font-family="Helvetica Neue" font-size="16" font-weight="bold">containerd-shim</tspan></text></g><g id="Graphic_61"><rect width="190.63" height="48.189" x="1127.631" y="680.353" fill="#333"/><rect width="190.63" height="48.189" x="1127.631" y="680.353" stroke="gray" stroke-linecap="round" stroke-linejoin="round" stroke-width="1"/><text fill="#fff" transform="translate(1132.6307 694.71575)"><tspan x="19.643" y="16" fill="#fff" font-family="Helvetica Neue" font-size="16" font-weight="bold">Container Process</tspan></text></g><g id="Graphic_60"><rect width="190.63" height="48.189" x="1127.631" y="600.983" fill="#0a55a8"/><text fill="#fff" transform="translate(1132.6307 615.3457)"><tspan x="73.123" y="16" fill="#fff" font-family="Helvetica Neue" font-size="16" font-weight="bold">runc</tspan></text></g><g id="Line_59"><line x1="1222.946" x2="1222.946" y1="569.802" y2="588.083" stroke="#000" stroke-linecap="round" stroke-linejoin="round" stroke-width="2" marker-end="url(#FilledArrow_Marker)"/></g><g id="Line_58"><path stroke="#000" stroke-linecap="round" stroke-linejoin="round" stroke-width="2" marker-end="url(#FilledArrow_Marker)" d="M 1222.9456 649.1722 L 1222.9456 664.7628 L 1222.9456 667.4533"/></g><g id="Graphic_94"><rect width="190.63" height="48.189" x="1127.631" y="324.567" fill="#0a55a8"/><text fill="#fff" transform="translate(1132.6307 338.92936)"><tspan x="45.299" y="16" fill="#fff" font-family="Helvetica Neue" font-size="16" font-weight="bold">dockershim</tspan></text></g><g id="Line_96"><path stroke="#000" stroke-linecap="round" stroke-linejoin="round" stroke-width="2" marker-end="url(#FilledArrow_Marker)" d="M 1223.9856 391.1811 L 1223.9856 404.64567 L 1223.9856 399.21024 L 1223.9856 405.21024"/></g><g id="Graphic_99"><rect width="190.63" height="48.189" x="1128.671" y="180" fill="#0a55a8"/><text fill="#fff" transform="translate(1137.3056 194.36243)"><tspan x="0" y="16" fill="#fff" font-family="Helvetica Neue" font-size="16" font-weight="bold">Kubernetes API Server</tspan></text></g><g id="Line_103"><line x1="1223.986" x2="1223.986" y1="228.189" y2="280.486" stroke="#000" stroke-linecap="round" stroke-linejoin="round" stroke-width="2" marker-end="url(#FilledArrow_Marker)"/></g><g id="Line_107"><path stroke="#000" stroke-linecap="round" stroke-linejoin="round" stroke-width="2" marker-end="url(#FilledArrow_Marker)" d="M 1222.9456 487.5207 L 1222.9456 504.56693 L 1222.9456 508.71316"/></g><g id="Graphic_124"><rect width="376.794" height="535.748" x="1536.194" y="274.961" stroke="gray" stroke-linecap="round" stroke-linejoin="round" stroke-width="1"/><text fill="#000" transform="translate(1541.1943 786.2446)"><tspan x="141.917" y="16" fill="#000" font-family="Helvetica Neue" font-size="16" font-weight="bold">Data Plane</tspan></text></g><g id="Graphic_123"><rect width="327.692" height="352.913" x="1560.745" y="418.11" fill="#ededed"/><rect width="327.692" height="352.913" x="1560.745" y="418.11" stroke="gray" stroke-linecap="round" stroke-linejoin="round" stroke-width="1"/><text fill="#000" transform="translate(1565.7451 746.5595)"><tspan x="144.782" y="16" fill="#000" font-family="Helvetica Neue" font-size="16" font-weight="bold">CRI</tspan></text></g><g id="Graphic_122"><rect width="376.794" height="102.047" x="1536.194" y="141.732" fill="#fff"/><rect width="376.794" height="102.047" x="1536.194" y="141.732" stroke="gray" stroke-linecap="round" stroke-linejoin="round" stroke-width="1"/><text fill="#000" transform="translate(1541.1943 146.73228)"><tspan x="131.549" y="16" fill="#000" font-family="Helvetica Neue" font-size="16" font-weight="bold">Control Plane</tspan></text></g><g id="Graphic_121"><rect width="327.692" height="97.795" x="1560.745" y="293.386" fill="#ededed"/><rect width="327.692" height="97.795" x="1560.745" y="293.386" stroke="gray" stroke-linecap="round" stroke-linejoin="round" stroke-width="1"/><text fill="#000" transform="translate(1565.7451 332.5514)"><tspan x="129.374" y="16" fill="#000" font-family="Helvetica Neue" font-size="16" font-weight="bold">Kubelet</tspan></text></g><g id="Graphic_120"><rect width="190.63" height="48.189" x="1628.236" y="439.332" fill="#0a55a8"/><text fill="#fff" transform="translate(1633.2363 453.69416)"><tspan x="49.427" y="16" fill="#fff" font-family="Helvetica Neue" font-size="16" font-weight="bold">containerd</tspan></text></g><g id="Graphic_119"><rect width="190.63" height="48.189" x="1628.236" y="521.613" fill="#0a55a8"/><text fill="#fff" transform="translate(1633.2363 535.9756)"><tspan x="27.819" y="16" fill="#fff" font-family="Helvetica Neue" font-size="16" font-weight="bold">containerd-shim</tspan></text></g><g id="Graphic_118"><rect width="190.63" height="48.189" x="1628.236" y="680.353" fill="#333"/><rect width="190.63" height="48.189" x="1628.236" y="680.353" stroke="gray" stroke-linecap="round" stroke-linejoin="round" stroke-width="1"/><text fill="#fff" transform="translate(1633.2363 694.71575)"><tspan x="19.643" y="16" fill="#fff" font-family="Helvetica Neue" font-size="16" font-weight="bold">Container Process</tspan></text></g><g id="Graphic_117"><rect width="190.63" height="48.189" x="1628.236" y="600.983" fill="#0a55a8"/><text fill="#fff" transform="translate(1633.2363 615.3457)"><tspan x="73.123" y="16" fill="#fff" font-family="Helvetica Neue" font-size="16" font-weight="bold">runc</tspan></text></g><g id="Line_116"><line x1="1723.551" x2="1723.551" y1="569.802" y2="588.083" stroke="#000" stroke-linecap="round" stroke-linejoin="round" stroke-width="2" marker-end="url(#FilledArrow_Marker)"/></g><g id="Line_115"><path stroke="#000" stroke-linecap="round" stroke-linejoin="round" stroke-width="2" marker-end="url(#FilledArrow_Marker)" d="M 1723.5513 649.1722 L 1723.5513 664.7628 L 1723.5513 667.4533"/></g><g id="Line_112"><path stroke="#000" stroke-linecap="round" stroke-linejoin="round" stroke-width="2" marker-end="url(#FilledArrow_Marker)" d="M 1724.5913 391.1811 L 1724.5913 404.64567 L 1724.5913 399.21024 L 1724.5913 405.21024"/></g><g id="Graphic_111"><rect width="190.63" height="48.189" x="1629.276" y="180" fill="#0a55a8"/><text fill="#fff" transform="translate(1637.9113 194.36243)"><tspan x="0" y="16" fill="#fff" font-family="Helvetica Neue" font-size="16" font-weight="bold">Kubernetes API Server</tspan></text></g><g id="Line_110"><line x1="1724.591" x2="1724.591" y1="228.189" y2="280.486" stroke="#000" stroke-linecap="round" stroke-linejoin="round" stroke-width="2" marker-end="url(#FilledArrow_Marker)"/></g><g id="Line_109"><path stroke="#000" stroke-linecap="round" stroke-linejoin="round" stroke-width="2" marker-end="url(#FilledArrow_Marker)" d="M 1723.5513 487.5207 L 1723.5513 504.56693 L 1723.5513 508.71316"/></g><g id="Graphic_127"><path fill="#000" d="M 1448.504 436.02756 L 1448.504 425.02756 L 1484.2756 425.02756 L 1484.2756 419.52756 L 1495.2756 430.52756 L 1484.2756 441.52756 L 1484.2756 436.02756 Z"/><path stroke="gray" stroke-linecap="round" stroke-linejoin="round" stroke-width="1" d="M 1448.504 436.02756 L 1448.504 425.02756 L 1484.2756 425.02756 L 1484.2756 419.52756 L 1495.2756 430.52756 L 1484.2756 441.52756 L 1484.2756 436.02756 Z"/></g></g></g></svg>