<svg xmlns="http://www.w3.org/2000/svg" xmlns:xl="http://www.w3.org/1999/xlink" width="704" height="430" version="1.1" viewBox="2779 1116 704 430"><defs><marker id="FilledArrow_Marker" stroke-linejoin="miter" stroke-miterlimit="10" color="#000" markerHeight="6" markerUnits="strokeWidth" markerWidth="7" orient="auto" overflow="visible" viewBox="-1 -3 7 6"><g><path fill="currentColor" stroke="currentColor" stroke-width="1" d="M 4.8 0 L 0 -1.8 L 0 1.8 Z"/></g></marker></defs><g id="Let_s_Encrypt_+_Cert-manager__" fill="none" fill-opacity="1" stroke="none" stroke-dasharray="none" stroke-opacity="1"><title>Let&apos;s Encrypt + Cert-manager 网关</title><rect width="704" height="430" x="2779" y="1116" fill="#fff"/><g id="Let_s_Encrypt_+_Cert-manager___Layer_1"><title>Layer 1</title><g id="Graphic_42"><rect width="703" height="429.125" x="2779.25" y="1116.188" fill="#fff"/></g><g id="Group_27"><g id="Graphic_26"><rect width="207.499" height="47" x="3244" y="1147" fill="#fff"/></g><g id="Graphic_19"><path fill="#2c3c69" d="M 3289.655 1187.5774 L 3289.655 1168.6335 L 3294.257 1168.6335 L 3294.257 1183.5904 L 3301.588 1183.5904 L 3301.588 1187.5768 L 3289.655 1187.5768 Z M 3316.753 1181.0752 L 3316.753 1181.6108 C 3316.753 1181.6108 3316.744 1181.9582 3316.7266 1182.1193 L 3307.068 1182.1193 C 3307.1036 1182.4938 3307.215 1182.8328 3307.4027 1183.1362 C 3307.5903 1183.4396 3307.831 1183.702 3308.1247 1183.9258 C 3308.419 1184.149 3308.749 1184.3227 3309.115 1184.4469 C 3309.481 1184.5723 3309.8653 1184.6357 3310.252 1184.6345 C 3310.9476 1184.6345 3311.537 1184.5054 3312.0182 1184.2467 C 3312.481 1184.0044 3312.8832 1183.6614 3313.1956 1183.243 L 3316.246 1185.1695 C 3315.6216 1186.0791 3314.797 1186.7794 3313.771 1187.2698 C 3312.745 1187.7596 3311.5538 1188.0056 3310.199 1188.0056 C 3309.1996 1188.0056 3308.2544 1187.8488 3307.363 1187.5376 C 3306.471 1187.2251 3305.691 1186.771 3305.0214 1186.1726 C 3304.353 1185.5755 3303.8265 1184.8396 3303.443 1183.9656 C 3303.0593 1183.0916 3302.868 1182.0927 3302.868 1180.9684 C 3302.868 1179.8809 3303.055 1178.8947 3303.4296 1178.0122 C 3303.8042 1177.1298 3304.3127 1176.38 3304.955 1175.7648 C 3305.597 1175.149 3306.3544 1174.6719 3307.2296 1174.3329 C 3308.103 1173.9945 3309.049 1173.8244 3310.065 1173.8244 C 3311.046 1173.8244 3311.947 1173.9897 3312.7674 1174.3196 C 3313.5877 1174.6495 3314.2922 1175.1267 3314.8815 1175.751 C 3315.4702 1176.3752 3315.9286 1177.1334 3316.259 1178.0255 C 3316.5885 1178.917 3316.753 1179.9346 3316.753 1181.0752 Z M 3312.713 1179.3893 C 3312.713 1178.6938 3312.4947 1178.0961 3312.0574 1177.5967 C 3311.62 1177.0978 3310.9645 1176.8475 3310.091 1176.8475 C 3309.663 1176.8475 3309.2708 1176.9145 3308.9137 1177.0484 C 3308.5566 1177.1823 3308.2454 1177.365 3307.977 1177.5967 C 3307.7125 1177.8251 3307.4946 1178.1024 3307.335 1178.4134 C 3307.1774 1178.7158 3307.0863 1179.0486 3307.068 1179.3893 Z M 3323.7627 1177.517 L 3323.7627 1182.6205 C 3323.7627 1183.2472 3323.8833 1183.7165 3324.1246 1184.0307 C 3324.3646 1184.3444 3324.797 1184.5 3325.422 1184.5 C 3325.6355 1184.5 3325.863 1184.4831 3326.104 1184.4463 C 3326.345 1184.4107 3326.545 1184.3576 3326.706 1184.2859 L 3326.76 1187.4966 C 3326.4564 1187.6033 3326.073 1187.6968 3325.6096 1187.7776 C 3325.145 1187.8579 3324.682 1187.8977 3324.218 1187.8977 C 3323.326 1187.8977 3322.5762 1187.7855 3321.97 1187.5623 C 3321.3632 1187.3391 3320.877 1187.017 3320.512 1186.596 C 3320.146 1186.1762 3319.883 1185.6756 3319.7226 1185.0941 C 3319.5615 1184.5133 3319.482 1183.8649 3319.482 1183.1495 L 3319.482 1177.517 L 3317.3413 1177.517 L 3317.3413 1174.2527 L 3319.4548 1174.2527 L 3319.4548 1170.7476 L 3323.7627 1170.7476 L 3323.7627 1174.2527 L 3326.893 1174.2527 L 3326.893 1177.517 Z M 3341.101 1178.1854 C 3340.7287 1177.8364 3340.3044 1177.5477 3339.8433 1177.3294 C 3339.368 1177.099 3338.8466 1176.98 3338.3185 1176.9814 C 3337.9077 1176.9814 3337.529 1177.0622 3337.1815 1177.2221 C 3336.8335 1177.3831 3336.6597 1177.66 3336.6597 1178.0514 C 3336.6597 1178.426 3336.851 1178.6932 3337.2346 1178.8543 C 3337.618 1179.0153 3338.2383 1179.1933 3339.094 1179.3893 C 3339.5936 1179.4967 3340.098 1179.6487 3340.6063 1179.8447 C 3341.1148 1180.0407 3341.574 1180.2995 3341.984 1180.6204 C 3342.3925 1180.9396 3342.73 1181.3406 3342.9744 1181.7978 C 3343.2235 1182.2616 3343.349 1182.8147 3343.349 1183.4565 C 3343.349 1184.2955 3343.1795 1185.0036 3342.8405 1185.5833 C 3342.5015 1186.163 3342.06 1186.631 3341.516 1186.9881 C 3340.972 1187.3452 3340.361 1187.6033 3339.6835 1187.7638 C 3339.0174 1187.9231 3338.335 1188.0039 3337.65 1188.0044 C 3336.5614 1188.0044 3335.4962 1187.8307 3334.452 1187.4827 C 3333.4092 1187.1353 3332.5395 1186.622 3331.844 1185.944 L 3334.3056 1183.3485 C 3334.697 1183.7768 3335.179 1184.1339 3335.75 1184.4186 C 3336.3208 1184.7045 3336.9276 1184.8468 3337.57 1184.8468 C 3337.937 1184.8443 3338.2987 1184.7572 3338.6267 1184.5923 C 3338.9747 1184.4234 3339.1484 1184.1242 3339.1484 1183.6966 C 3339.1484 1183.2858 3338.935 1182.983 3338.5067 1182.7864 C 3338.0784 1182.5903 3337.41 1182.3853 3336.5 1182.1705 C 3336.0266 1182.061 3335.5616 1181.918 3335.1084 1181.7429 C 3334.657 1181.5722 3334.2366 1181.328 3333.8646 1181.0203 C 3333.493 1180.7101 3333.188 1180.3278 3332.9683 1179.8966 C 3332.7367 1179.4514 3332.621 1178.9158 3332.621 1178.2915 C 3332.621 1177.4887 3332.7898 1176.8065 3333.1294 1176.2443 C 3333.4582 1175.693 3333.9063 1175.2223 3334.4407 1174.8667 C 3334.9757 1174.5096 3335.5686 1174.2472 3336.2194 1174.0771 C 3336.8703 1173.907 3337.517 1173.8226 3338.16 1173.8226 C 3339.158 1173.8226 3340.1346 1173.9794 3341.089 1174.2907 C 3342.043 1174.6031 3342.8507 1175.0712 3343.5106 1175.6954 Z M 3351.75 1187.5774 L 3351.75 1168.6335 L 3364.4854 1168.6335 L 3364.4854 1172.4866 L 3356.1646 1172.4866 L 3356.1646 1176.0718 L 3364.0306 1176.0718 L 3364.0306 1179.7373 L 3356.1646 1179.7373 L 3356.1646 1183.6706 L 3364.9674 1183.6706 L 3364.9674 1187.5774 Z M 3376.5447 1187.5774 L 3376.5447 1180.2995 C 3376.5447 1179.9249 3376.5127 1179.5684 3376.451 1179.2295 C 3376.3974 1178.916 3376.2933 1178.6134 3376.143 1178.3331 C 3376.0022 1178.0768 3375.794 1177.8639 3375.541 1177.7173 C 3375.2822 1177.5665 3374.9565 1177.4899 3374.5645 1177.4899 C 3374.1724 1177.4899 3373.8286 1177.5665 3373.5342 1177.7173 C 3373.2405 1177.8693 3372.9944 1178.0792 3372.7984 1178.3464 C 3372.6023 1178.6136 3372.455 1178.9218 3372.3575 1179.2693 C 3372.2586 1179.622 3372.209 1179.9868 3372.2103 1180.3532 L 3372.2103 1187.5774 L 3367.7956 1187.5774 L 3367.7956 1174.2527 L 3372.05 1174.2527 L 3372.05 1176.099 L 3372.1035 1176.099 C 3372.2787 1175.7941 3372.49 1175.5114 3372.7326 1175.257 C 3372.9975 1174.9751 3373.3043 1174.7359 3373.6422 1174.5476 C 3374.0027 1174.346 3374.384 1174.1844 3374.78 1174.0657 C 3375.205 1173.9388 3375.6467 1173.8756 3376.0905 1173.8781 C 3376.9826 1173.8781 3377.74 1174.0391 3378.365 1174.36 C 3378.99 1174.6809 3379.493 1175.0959 3379.8772 1175.6038 C 3380.2676 1176.1268 3380.5496 1176.7225 3380.7066 1177.356 C 3380.8755 1178.0165 3380.9605 1178.6763 3380.9605 1179.3362 L 3380.9605 1187.5768 L 3376.5447 1187.5768 Z M 3392.25 1178.5599 C 3392 1178.239 3391.661 1177.9809 3391.2332 1177.7842 C 3390.8226 1177.5922 3390.375 1177.4917 3389.922 1177.4899 C 3389.4575 1177.4899 3389.039 1177.5834 3388.6643 1177.771 C 3388.2897 1177.9586 3387.969 1178.2089 3387.701 1178.5201 C 3387.4284 1178.8411 3387.2154 1179.2081 3387.072 1179.604 C 3386.9187 1180.0241 3386.8417 1180.4682 3386.8445 1180.9153 C 3386.8445 1181.3792 3386.9157 1181.8159 3387.0586 1182.226 C 3387.201 1182.6368 3387.4103 1182.9981 3387.687 1183.3099 C 3387.9623 1183.6217 3388.2996 1183.8724 3388.6776 1184.0458 C 3389.061 1184.2243 3389.4937 1184.313 3389.975 1184.313 C 3390.42 1184.313 3390.8623 1184.2286 3391.299 1184.0591 C 3391.7357 1183.8896 3392.0885 1183.6441 3392.3557 1183.3232 L 3394.7907 1186.2932 C 3394.2376 1186.8282 3393.5235 1187.2475 3392.65 1187.5509 C 3391.7546 1187.8574 3390.814 1188.0111 3389.8676 1188.0056 C 3388.815 1188.0056 3387.8325 1187.8446 3386.92 1187.5237 C 3386.008 1187.2028 3385.2153 1186.7342 3384.5428 1186.1189 C 3383.8696 1185.5037 3383.3407 1184.7594 3382.9546 1183.8854 C 3382.5686 1183.0114 3382.376 1182.0215 3382.376 1180.9153 C 3382.376 1179.8272 3382.5686 1178.8458 3382.9546 1177.9718 C 3383.3407 1177.0984 3383.8696 1176.3529 3384.5428 1175.7377 C 3385.2153 1175.1218 3386.0085 1174.6495 3386.92 1174.3196 C 3387.8325 1173.9897 3388.806 1173.8244 3389.841 1173.8244 C 3390.3224 1173.8244 3390.7995 1173.869 3391.2724 1173.9589 C 3391.7447 1174.0476 3392.1995 1174.1688 3392.637 1174.3202 C 3393.074 1174.4716 3393.4752 1174.6592 3393.8407 1174.8824 C 3394.2063 1175.1055 3394.5235 1175.3504 3394.7907 1175.6182 Z M 3405.1093 1177.8645 C 3404.9126 1177.8108 3404.721 1177.7758 3404.534 1177.7577 C 3404.347 1177.7396 3404.1635 1177.7306 3403.9855 1177.7306 C 3403.397 1177.7306 3402.9016 1177.8379 3402.5005 1178.0508 C 3402.0994 1178.2644 3401.7785 1178.5219 3401.5372 1178.8247 C 3401.2966 1179.1269 3401.1223 1179.4562 3401.0155 1179.8121 C 3400.9087 1180.168 3400.855 1180.4786 3400.855 1180.7458 L 3400.855 1187.5768 L 3396.467 1187.5768 L 3396.467 1174.2683 L 3400.6946 1174.2683 L 3400.6946 1176.1949 L 3400.7483 1176.1949 C 3401.078 1175.5226 3401.5757 1174.947 3402.1935 1174.5241 C 3402.817 1174.0928 3403.5398 1173.8775 3404.3607 1173.8775 C 3404.5386 1173.8775 3404.713 1173.8871 3404.8825 1173.9046 C 3405.0513 1173.9221 3405.19 1173.9493 3405.2974 1173.9848 Z M 3415.4175 1189.5842 C 3415.1745 1190.2294 3414.8745 1190.8517 3414.521 1191.4437 C 3414.2072 1191.9685 3413.8097 1192.4385 3413.3444 1192.8353 C 3412.8896 1193.2189 3412.354 1193.5078 3411.7387 1193.7044 C 3411.1235 1193.9005 3410.396 1193.9988 3409.5583 1193.9988 C 3409.1336 1193.9978 3408.7094 1193.9708 3408.288 1193.918 C 3407.904 1193.8745 3407.524 1193.8032 3407.1504 1193.7044 L 3407.6323 1190.0124 C 3407.846 1190.083 3408.0823 1190.1415 3408.3417 1190.1861 C 3408.6 1190.2302 3408.8363 1190.2525 3409.0504 1190.2525 C 3409.7284 1190.2525 3410.2187 1190.0963 3410.522 1189.7844 C 3410.825 1189.472 3411.0837 1189.031 3411.298 1188.4604 L 3411.726 1187.3639 L 3406.1606 1174.2533 L 3411.03 1174.2533 L 3414 1182.8153 L 3414.0803 1182.8153 L 3416.7294 1174.2533 L 3421.3847 1174.2533 Z M 3437.3574 1180.8616 C 3437.3574 1181.7893 3437.2144 1182.6814 3436.929 1183.5373 C 3436.6432 1184.3938 3436.229 1185.1472 3435.6854 1185.798 C 3435.137 1186.4528 3434.458 1186.986 3433.692 1187.3639 C 3432.9066 1187.7553 3432.015 1187.9526 3431.0156 1187.9526 C 3430.1953 1187.9526 3429.4196 1187.7879 3428.688 1187.458 C 3427.9563 1187.128 3427.3863 1186.6775 3426.9756 1186.1069 L 3426.9225 1186.1069 L 3426.9225 1194 L 3422.5344 1194 L 3422.5344 1174.2527 L 3426.7083 1174.2527 L 3426.7083 1175.8848 L 3426.7886 1175.8848 C 3427.1993 1175.3498 3427.765 1174.8818 3428.4877 1174.48 C 3429.2097 1174.079 3430.0614 1173.8781 3431.0428 1173.8781 C 3432.006 1173.8781 3432.8794 1174.0657 3433.6648 1174.4402 C 3434.4495 1174.8148 3435.1136 1175.3233 3435.6583 1175.965 C 3436.203 1176.6068 3436.6215 1177.3524 3436.916 1178.1992 C 3437.2117 1179.0556 3437.361 1179.9557 3437.3574 1180.8616 Z M 3433.1032 1180.8616 C 3433.1032 1180.4334 3433.037 1180.0148 3432.903 1179.604 C 3432.777 1179.2086 3432.577 1178.8408 3432.3137 1178.5201 C 3432.055 1178.2083 3431.729 1177.9543 3431.337 1177.7577 C 3430.945 1177.561 3430.4903 1177.4634 3429.9727 1177.4634 C 3429.4733 1177.4634 3429.027 1177.5617 3428.635 1177.7577 C 3428.2517 1177.9464 3427.9104 1178.2102 3427.631 1178.5334 C 3427.353 1178.8573 3427.1356 1179.2288 3426.9894 1179.63 C 3426.6866 1180.441 3426.6866 1181.3341 3426.9894 1182.1452 C 3427.1353 1182.5465 3427.3527 1182.918 3427.631 1183.2418 C 3427.9104 1183.5652 3428.2517 1183.8292 3428.635 1184.018 C 3429.0263 1184.2141 3429.4733 1184.3118 3429.9727 1184.3118 C 3430.4896 1184.3118 3430.9444 1184.2141 3431.337 1184.018 C 3431.7298 1183.822 3432.055 1183.5627 3432.3137 1183.2418 C 3432.5724 1182.9209 3432.769 1182.5505 3432.903 1182.1313 C 3433.035 1181.721 3433.1027 1181.2927 3433.1032 1180.8616 Z M 3444.3675 1177.517 L 3444.3675 1182.6205 C 3444.3675 1183.2472 3444.488 1183.7165 3444.7294 1184.0307 C 3444.9695 1184.3444 3445.402 1184.5 3446.027 1184.5 C 3446.2404 1184.5 3446.4678 1184.4831 3446.709 1184.4463 C 3446.9497 1184.4107 3447.15 1184.3576 3447.311 1184.2859 L 3447.3647 1187.4966 C 3447.0613 1187.6033 3446.6777 1187.6968 3446.2144 1187.7776 C 3445.75 1187.8579 3445.2867 1187.8977 3444.823 1187.8977 C 3443.931 1187.8977 3443.181 1187.7855 3442.575 1187.5623 C 3441.968 1187.3391 3441.482 1187.017 3441.117 1186.596 C 3440.751 1186.1762 3440.488 1185.6756 3440.3274 1185.0941 C 3440.1664 1184.5133 3440.0868 1183.8649 3440.0868 1183.1495 L 3440.0868 1177.517 L 3437.946 1177.517 L 3437.946 1174.2527 L 3440.0596 1174.2527 L 3440.0596 1170.7476 L 3444.3675 1170.7476 L 3444.3675 1174.2527 L 3447.498 1174.2527 L 3447.498 1177.517 Z M 3330.9055 1168.2704 C 3329.5887 1168.2704 3328.558 1169.2192 3328.558 1170.431 C 3328.558 1171.7073 3329.426 1172.5644 3330.7185 1172.5644 C 3330.829 1172.5644 3330.9332 1172.5541 3331.0315 1172.5342 C 3330.8246 1173.4788 3329.9144 1174.1567 3329.0543 1174.2925 L 3328.8794 1174.3202 L 3328.8794 1176.3571 L 3329.106 1176.3354 C 3330.1676 1176.2276 3331.163 1175.7699 3331.9357 1175.0344 C 3332.92 1174.0856 3333.4406 1172.7158 3333.4406 1171.0727 C 3333.4406 1169.449 3332.374 1168.2704 3330.9055 1168.2704 Z"/></g><g id="Graphic_18"><path fill="#f9a11d" d="M 3271.48 1168.6914 L 3266.6305 1168.6914 L 3266.6305 1166.2015 C 3266.6282 1164.2105 3265.0146 1162.5971 3263.0235 1162.5951 C 3261.0328 1162.5974 3259.4195 1164.2107 3259.417 1166.2015 L 3259.417 1168.6914 L 3254.5676 1168.6914 L 3254.5676 1166.2015 C 3254.5676 1161.5389 3258.361 1157.745 3263.024 1157.745 C 3267.6873 1157.745 3271.4807 1161.5383 3271.4807 1166.2015 L 3271.4807 1168.6914 Z"/></g><g id="Graphic_17"><path fill="#2c3c69" d="M 3273.436 1168.6914 L 3252.6115 1168.6914 C 3251.72 1168.694 3250.9977 1169.4162 3250.995 1170.3079 L 3250.995 1185.713 C 3250.9977 1186.6047 3251.72 1187.3268 3252.6115 1187.3295 L 3273.436 1187.3295 C 3274.328 1187.3268 3275.05 1186.6047 3275.0527 1185.713 L 3275.0527 1170.3079 C 3275.05 1169.4162 3274.328 1168.694 3273.436 1168.6914 Z M 3264.079 1178.806 L 3264.079 1180.8936 C 3264.06 1181.4624 3263.5932 1181.9135 3263.024 1181.9135 C 3262.455 1181.9135 3261.9884 1181.4624 3261.969 1180.8936 L 3261.969 1178.8066 C 3261.062 1178.2934 3260.656 1177.202 3261.0067 1176.2206 C 3261.3576 1175.2392 3262.3638 1174.6527 3263.3906 1174.831 C 3264.4175 1175.0093 3265.167 1175.9006 3265.1666 1176.9428 C 3265.1664 1177.7145 3264.751 1178.4264 3264.079 1178.806 Z"/></g><g id="Graphic_16"><path fill="#f9a11d" d="M 3250.5004 1166.3945 L 3245.4754 1166.3945 C 3244.9483 1166.3945 3244.4612 1166.1133 3244.1977 1165.6568 C 3243.934 1165.2003 3243.934 1164.6379 3244.1977 1164.1814 C 3244.4612 1163.725 3244.9483 1163.4438 3245.4754 1163.4438 L 3250.5004 1163.4438 C 3251.3152 1163.4438 3251.9758 1164.1043 3251.9758 1164.9191 C 3251.9758 1165.734 3251.3152 1166.3945 3250.5004 1166.3945 Z M 3254.04 1158.4899 C 3253.6982 1158.4903 3253.367 1158.3715 3253.1037 1158.1539 L 3249.1288 1154.8853 C 3248.7216 1154.5504 3248.524 1154.0238 3248.6105 1153.5037 C 3248.697 1152.9836 3249.054 1152.5492 3249.5478 1152.364 C 3250.0414 1152.1788 3250.5963 1152.271 3251.0035 1152.6059 L 3254.9784 1155.8745 C 3255.46 1156.2703 3255.641 1156.926 3255.4305 1157.5128 C 3255.22 1158.0996 3254.6633 1158.4907 3254.04 1158.4899 Z M 3263.0235 1155.0156 C 3262.6322 1155.0156 3262.257 1154.8602 3261.9803 1154.5835 C 3261.7036 1154.3068 3261.548 1153.9315 3261.548 1153.5402 L 3261.548 1148.4754 C 3261.548 1147.9483 3261.8294 1147.4612 3262.286 1147.1977 C 3262.7423 1146.9341 3263.3047 1146.9341 3263.7612 1147.1977 C 3264.2177 1147.4612 3264.499 1147.9483 3264.499 1148.4754 L 3264.499 1153.5402 C 3264.499 1154.355 3263.8384 1155.0156 3263.0235 1155.0156 Z M 3272.0072 1158.4899 C 3271.384 1158.49 3270.828 1158.0989 3270.6177 1157.5124 C 3270.4072 1156.926 3270.5877 1156.2706 3271.0687 1155.8745 L 3275.0436 1152.6059 C 3275.6744 1152.1091 3276.5867 1152.2077 3277.0968 1152.8279 C 3277.607 1153.4481 3277.5275 1154.3622 3276.9183 1154.8853 L 3272.9434 1158.1539 C 3272.68 1158.3715 3272.349 1158.4904 3272.0072 1158.4899 Z M 3280.5723 1166.3945 L 3275.4996 1166.3945 C 3274.9725 1166.3945 3274.4855 1166.1133 3274.222 1165.6568 C 3273.9584 1165.2003 3273.9584 1164.6379 3274.222 1164.1814 C 3274.4855 1163.725 3274.9725 1163.4438 3275.4996 1163.4438 L 3280.5723 1163.4438 C 3281.387 1163.4438 3282.0477 1164.1043 3282.0477 1164.9191 C 3282.0477 1165.734 3281.387 1166.3945 3280.5723 1166.3945 Z"/></g></g><g id="Graphic_25"><rect width="662.5" height="273.5" x="2799.5" y="1259.5" fill="#fff"/><rect width="662.5" height="273.5" x="2799.5" y="1259.5" stroke="gray" stroke-linecap="round" stroke-linejoin="round" stroke-width="1"/><text fill="#000" transform="translate(2804.5 1508.5359)"><tspan x="618.436" y="16" fill="#000" font-family="Helvetica Neue" font-size="16" font-weight="bold">GKE</tspan></text></g><g id="Graphic_2"><rect width="155.5" height="64.5" x="2829.5" y="1147" fill="#0a55a8"/><text fill="#fff" transform="translate(2834.5 1169.518)"><tspan x="13.926" y="16" fill="#fff" font-family="Helvetica Neue" font-size="16" font-weight="bold">Cloudflare DNS</tspan></text></g><g id="Graphic_3"><rect width="155.5" height="64.5" x="2829.5" y="1298.5" fill="#0a55a8"/><text fill="#fff" transform="translate(2834.5 1321.018)"><tspan x="39.422" y="16" fill="#fff" font-family="Helvetica Neue" font-size="16" font-weight="bold">Gateway</tspan></text></g><g id="Graphic_4"><rect width="155.5" height="64.5" x="3269.999" y="1298.5" fill="#0a55a8"/><text fill="#fff" transform="translate(3274.9995 1321.018)"><tspan x="20.614" y="16" fill="#fff" font-family="Helvetica Neue" font-size="16" font-weight="bold">cert-manager</tspan></text></g><g id="Line_24"><line x1="2907.25" x2="2907.25" y1="1211.5" y2="1285.6" stroke="#000" stroke-linecap="round" stroke-linejoin="round" stroke-width="2" marker-end="url(#FilledArrow_Marker)"/></g><g id="Line_28"><line x1="3347.749" x2="3347.749" y1="1298.5" y2="1206.9" stroke="#000" stroke-linecap="round" stroke-linejoin="round" stroke-width="2" marker-end="url(#FilledArrow_Marker)"/></g><g id="Graphic_29"><rect width="155.5" height="64.5" x="2829.5" y="1424" fill="#0a55a8"/><text fill="#fff" transform="translate(2834.5 1446.518)"><tspan x="28.894" y="16" fill="#fff" font-family="Helvetica Neue" font-size="16" font-weight="bold">HTTPRoute</tspan></text></g><g id="Line_30"><line x1="2907.25" x2="2907.25" y1="1363" y2="1411.1" stroke="#000" stroke-linecap="round" stroke-linejoin="round" stroke-width="2" marker-end="url(#FilledArrow_Marker)"/></g><g id="Graphic_31"><rect width="155.5" height="64.5" x="3269.999" y="1424" fill="#0a55a8"/><text fill="#fff" transform="translate(3274.9995 1446.518)"><tspan x="24.006" y="16" fill="#fff" font-family="Helvetica Neue" font-size="16" font-weight="bold">productpage</tspan></text></g><g id="Line_32"><line x1="2985" x2="3257.099" y1="1456.25" y2="1456.25" stroke="#000" stroke-linecap="round" stroke-linejoin="round" stroke-width="2" marker-end="url(#FilledArrow_Marker)"/></g><g id="Graphic_33"><rect width="155.5" height="64.5" x="3053" y="1298.5" fill="#0a55a8"/><text fill="#fff" transform="translate(3058 1321.018)"><tspan x="23.278" y="16" fill="#fff" font-family="Helvetica Neue" font-size="16" font-weight="bold">ACME Issuer</tspan></text></g><g id="Line_34"><line x1="2985" x2="3040.1" y1="1330.75" y2="1330.75" stroke="#000" stroke-linecap="round" stroke-linejoin="round" stroke-width="2" marker-end="url(#FilledArrow_Marker)"/></g><g id="Line_35"><line x1="3208.5" x2="3257.099" y1="1330.75" y2="1330.75" stroke="#000" stroke-linecap="round" stroke-linejoin="round" stroke-width="2" marker-end="url(#FilledArrow_Marker)"/></g><g id="Graphic_36"><rect width="26" height="32" x="2894.25" y="1220.153" fill="#fff"/><text fill="#000" transform="translate(2899.25 1225.153)"><tspan x="0" y="17" fill="#000" font-family="PingFang SC" font-size="16" font-weight="bold">①</tspan></text></g><g id="Graphic_37"><rect width="26" height="32" x="3002.667" y="1314.75" fill="#fff"/><text fill="#000" transform="translate(3007.667 1319.75)"><tspan x="0" y="17" fill="#000" font-family="PingFang SC" font-size="16" font-weight="bold">②</tspan></text></g><g id="Graphic_38"><rect width="26" height="32" x="3222.308" y="1314.75" fill="#fff"/><text fill="#000" transform="translate(3227.3082 1319.75)"><tspan x="0" y="17" fill="#000" font-family="PingFang SC" font-size="16" font-weight="bold">③</tspan></text></g><g id="Graphic_39"><rect width="26" height="32" x="3334.749" y="1220.463" fill="#fff"/><text fill="#000" transform="translate(3339.7495 1225.4629)"><tspan x="0" y="17" fill="#000" font-family="PingFang SC" font-size="16" font-weight="bold">④</tspan></text></g><g id="Graphic_40"><rect width="26" height="32" x="2894.25" y="1373.136" fill="#fff"/><text fill="#000" transform="translate(2899.25 1378.1355)"><tspan x="0" y="17" fill="#000" font-family="PingFang SC" font-size="16" font-weight="bold">⑤</tspan></text></g><g id="Graphic_41"><rect width="26" height="32" x="3107.248" y="1440.25" fill="#fff"/><text fill="#000" transform="translate(3112.248 1445.25)"><tspan x="0" y="17" fill="#000" font-family="PingFang SC" font-size="16" font-weight="bold">⑥</tspan></text></g></g></g></svg>