<svg xmlns="http://www.w3.org/2000/svg" xmlns:xl="http://www.w3.org/1999/xlink" width="937" height="729" version="1.1" viewBox="-129 -107 937 729"><defs><marker id="FilledArrow_Marker" stroke-linejoin="miter" stroke-miterlimit="10" color="#000" markerHeight="6" markerUnits="strokeWidth" markerWidth="7" orient="auto" overflow="visible" viewBox="-1 -3 7 6"><g><path fill="currentColor" stroke="currentColor" stroke-width="1" d="M 4.8 0 L 0 -1.8 L 0 1.8 Z"/></g></marker><linearGradient id="Gradient" x1="0" x2="1" gradientUnits="userSpaceOnUse"><stop offset="0" stop-color="#4387fd"/><stop offset="1" stop-color="#4683ea"/></linearGradient><linearGradient id="Obj_Gradient" gradientTransform="translate(-59.76417 -35.46189) scale(39.68504)" xl:href="#Gradient"/><linearGradient id="Obj_Gradient_2" gradientTransform="translate(396.31903 -35.46189) scale(39.68504)" xl:href="#Gradient"/><linearGradient id="Obj_Gradient_3" gradientTransform="translate(396.31903 329.2638) scale(39.68504)" xl:href="#Gradient"/></defs><g id="final" fill="none" fill-opacity="1" stroke="none" stroke-dasharray="none" stroke-opacity="1"><title>final</title><rect width="937" height="729" x="-129" y="-107" fill="#fff"/><g id="final_Layer_1"><title>Layer 1</title><g id="Graphic_55"><path stroke="gray" stroke-dasharray="1 4" stroke-linecap="round" stroke-linejoin="round" stroke-width="1" d="M -107.95314 -91 L 315.8264 -91 L 315.8264 247.34778 L -107.95314 247.34778 Z"/><text fill="#a5a5a5" transform="translate(-102.95314 222.88367)"><tspan x="157.122" y="16" fill="#a5a5a5" font-family="Helvetica Neue" font-size="16" font-weight="bold">Tier 1 cluster</tspan></text></g><g id="Graphic_54"><path stroke="gray" stroke-dasharray="1 4" stroke-linecap="round" stroke-linejoin="round" stroke-width="1" d="M 351.79095 -91 L 775.5705 -91 L 775.5705 606.32284 L 351.79095 606.32284 Z"/><text fill="#a5a5a5" transform="translate(356.79095 581.8587)"><tspan x="152.826" y="16" fill="#a5a5a5" font-family="Helvetica Neue" font-size="16" font-weight="bold">Tier 2 clusters</tspan></text></g><g id="Graphic_53"><path fill="#ccc" d="M -60.268104 -58.98934 L 263.88937 -58.98934 C 268.30765 -58.98934 271.88937 -55.40762 271.88937 -50.98934 L 271.88937 196.6327 C 271.88937 201.05099 268.30765 204.6327 263.88937 204.6327 L -60.268104 204.6327 C -64.68638 204.6327 -68.2681 201.05099 -68.2681 196.6327 L -68.2681 -50.98934 C -68.2681 -55.40762 -64.68638 -58.98934 -60.268104 -58.98934 Z"/><text fill="#000" transform="translate(-63.268104 -53.98934)"><tspan x="74.231" y="16" fill="#000" font-family="Helvetica Neue" font-size="16">gke-jimmy-us-central1-1</tspan></text></g><g id="Graphic_52"><path fill="#ccc" d="M 398.9445 -58.98934 L 723.102 -58.98934 C 727.5203 -58.98934 731.102 -55.40762 731.102 -50.98934 L 731.102 196.6327 C 731.102 201.05099 727.5203 204.6327 723.102 204.6327 L 398.9445 204.6327 C 394.5262 204.6327 390.9445 201.05099 390.9445 196.6327 L 390.9445 -50.98934 C 390.9445 -55.40762 394.5262 -58.98934 398.9445 -58.98934 Z"/><text fill="#000" transform="translate(395.9445 -53.98934)"><tspan x="82.087" y="16" fill="#000" font-family="Helvetica Neue" font-size="16">gke-jimmy-us-west1-1</tspan></text></g><g id="Graphic_51"><path fill="#ccc" d="M 398.9445 302.5832 L 723.102 302.5832 C 727.5203 302.5832 731.102 306.16493 731.102 310.5832 L 731.102 558.20526 C 731.102 562.62354 727.5203 566.20526 723.102 566.20526 L 398.9445 566.20526 C 394.5262 566.20526 390.9445 562.62354 390.9445 558.20526 L 390.9445 310.5832 C 390.9445 306.16493 394.5262 302.5832 398.9445 302.5832 Z"/><text fill="#000" transform="translate(395.9445 307.5832)"><tspan x="82.087" y="16" fill="#000" font-family="Helvetica Neue" font-size="16">gke-jimmy-us-west1-2</tspan></text></g><g id="Graphic_50"><path fill="#fff" d="M -9.262746 -5.5144386 L 217.136 -5.5144386 C 221.55427 -5.5144386 225.136 -1.9327166 225.136 2.4855614 L 225.136 166.48556 C 225.136 170.90384 221.55427 174.48556 217.136 174.48556 L -9.262746 174.48556 C -13.681024 174.48556 -17.262746 170.90384 -17.262746 166.48556 L -17.262746 2.4855614 C -17.262746 -1.9327166 -13.681024 -5.5144386 -9.262746 -5.5144386 Z"/><path stroke="gray" stroke-linecap="round" stroke-linejoin="round" stroke-width="1" d="M -9.262746 -5.5144386 L 217.136 -5.5144386 C 221.55427 -5.5144386 225.136 -1.9327166 225.136 2.4855614 L 225.136 166.48556 C 225.136 170.90384 221.55427 174.48556 217.136 174.48556 L -9.262746 174.48556 C -13.681024 174.48556 -17.262746 170.90384 -17.262746 166.48556 L -17.262746 2.4855614 C -17.262746 -1.9327166 -13.681024 -5.5144386 -9.262746 -5.5144386 Z"/><text fill="#000" transform="translate(-12.262746 4.4855614)"><tspan x="53.223" y="15" fill="#000" font-family="Helvetica Neue" font-size="16">Namespace: tier1</tspan></text></g><g id="Graphic_49"><path fill="#fff" d="M 447.82387 -5.5144386 L 674.2226 -5.5144386 C 678.6409 -5.5144386 682.2226 -1.9327166 682.2226 2.4855614 L 682.2226 166.48556 C 682.2226 170.90384 678.6409 174.48556 674.2226 174.48556 L 447.82387 174.48556 C 443.4056 174.48556 439.82387 170.90384 439.82387 166.48556 L 439.82387 2.4855614 C 439.82387 -1.9327166 443.4056 -5.5144386 447.82387 -5.5144386 Z"/><path stroke="gray" stroke-linecap="round" stroke-linejoin="round" stroke-width="1" d="M 447.82387 -5.5144386 L 674.2226 -5.5144386 C 678.6409 -5.5144386 682.2226 -1.9327166 682.2226 2.4855614 L 682.2226 166.48556 C 682.2226 170.90384 678.6409 174.48556 674.2226 174.48556 L 447.82387 174.48556 C 443.4056 174.48556 439.82387 170.90384 439.82387 166.48556 L 439.82387 2.4855614 C 439.82387 -1.9327166 443.4056 -5.5144386 447.82387 -5.5144386 Z"/><text fill="#000" transform="translate(444.82387 4.4855614)"><tspan x="4.615" y="15" fill="#000" font-family="Helvetica Neue" font-size="16">Namespace: bookinfo-frontend</tspan></text></g><g id="Graphic_48"><path fill="#fff" d="M 453.13883 344.39423 L 674.2226 344.39423 C 678.6409 344.39423 682.2226 347.97595 682.2226 352.39423 L 682.2226 516.39423 C 682.2226 520.8125 678.6409 524.39423 674.2226 524.39423 L 453.13883 524.39423 C 448.72056 524.39423 445.13883 520.8125 445.13883 516.39423 L 445.13883 352.39423 C 445.13883 347.97595 448.72056 344.39423 453.13883 344.39423 Z"/><path stroke="gray" stroke-linecap="round" stroke-linejoin="round" stroke-width="1" d="M 453.13883 344.39423 L 674.2226 344.39423 C 678.6409 344.39423 682.2226 347.97595 682.2226 352.39423 L 682.2226 516.39423 C 682.2226 520.8125 678.6409 524.39423 674.2226 524.39423 L 453.13883 524.39423 C 448.72056 524.39423 445.13883 520.8125 445.13883 516.39423 L 445.13883 352.39423 C 445.13883 347.97595 448.72056 344.39423 453.13883 344.39423 Z"/><text fill="#000" transform="translate(450.13883 354.39423)"><tspan x=".918" y="15" fill="#000" font-family="Helvetica Neue" font-size="16">Namespace: bookinfo-backend</tspan></text></g><g id="Graphic_47"><path fill="#333" d="M 564.7713 70.84058 L 646.56655 70.84058 C 650.9848 70.84058 654.56655 74.4223 654.56655 78.84058 L 654.56655 102.52562 C 654.56655 106.9439 650.9848 110.52562 646.56655 110.52562 L 564.7713 110.52562 C 560.353 110.52562 556.7713 106.9439 556.7713 102.52562 L 556.7713 78.84058 C 556.7713 74.4223 560.353 70.84058 564.7713 70.84058 Z"/><text fill="#fff" transform="translate(561.7713 81.98005)"><tspan x="2.402" y="14" fill="#fff" font-family="Helvetica Neue" font-size="14">productpage</tspan></text></g><g id="Graphic_46"><path fill="#333" d="M 559.9215 395.3836 L 617.0095 395.3836 C 621.4278 395.3836 625.0095 398.96533 625.0095 403.3836 L 625.0095 415.03853 C 625.0095 419.4568 621.4278 423.03853 617.0095 423.03853 L 559.9215 423.03853 C 555.5032 423.03853 551.9215 419.4568 551.9215 415.03853 L 551.9215 403.3836 C 551.9215 398.96533 555.5032 395.3836 559.9215 395.3836 Z"/><text fill="#fff" transform="translate(556.9215 403.06603)"><tspan x="1.904" y="10" fill="#fff" font-family="Helvetica Neue" font-size="10">productpage</tspan></text></g><g id="Graphic_45"><path fill="#333" d="M 480.71707 474.06215 L 521.4878 474.06215 C 525.9061 474.06215 529.4878 477.64387 529.4878 482.06215 L 529.4878 493.71707 C 529.4878 498.13535 525.9061 501.71707 521.4878 501.71707 L 480.71707 501.71707 C 476.2988 501.71707 472.71707 498.13535 472.71707 493.71707 L 472.71707 482.06215 C 472.71707 477.64387 476.2988 474.06215 480.71707 474.06215 Z"/><text fill="#fff" transform="translate(477.71707 481.7446)"><tspan x="5.87" y="10" fill="#fff" font-family="Helvetica Neue" font-size="10">reviews</tspan></text></g><g id="Graphic_44"><path fill="#333" d="M 554.4957 474.06215 L 595.2664 474.06215 C 599.6847 474.06215 603.2664 477.64387 603.2664 482.06215 L 603.2664 493.71707 C 603.2664 498.13535 599.6847 501.71707 595.2664 501.71707 L 554.4957 501.71707 C 550.0774 501.71707 546.4957 498.13535 546.4957 493.71707 L 546.4957 482.06215 C 546.4957 477.64387 550.0774 474.06215 554.4957 474.06215 Z"/><text fill="#fff" transform="translate(551.4957 481.7446)"><tspan x="8.1" y="10" fill="#fff" font-family="Helvetica Neue" font-size="10">details</tspan></text></g><g id="Graphic_43"><path fill="#333" d="M 480.71707 395.3836 L 521.4878 395.3836 C 525.9061 395.3836 529.4878 398.96533 529.4878 403.3836 L 529.4878 415.03853 C 529.4878 419.4568 525.9061 423.03853 521.4878 423.03853 L 480.71707 423.03853 C 476.2988 423.03853 472.71707 419.4568 472.71707 415.03853 L 472.71707 403.3836 C 472.71707 398.96533 476.2988 395.3836 480.71707 395.3836 Z"/><text fill="#fff" transform="translate(477.71707 403.06603)"><tspan x="7.545" y="10" fill="#fff" font-family="Helvetica Neue" font-size="10">ratings</tspan></text></g><g id="Group_40"><g id="Graphic_42"><path fill="#f15623" d="M 624.2743 462.03203 L 655.9593 462.03203 C 658.1685 462.03203 659.9593 463.8229 659.9593 466.03203 L 659.9593 497.71707 C 659.9593 499.9262 658.1685 501.71707 655.9593 501.71707 L 624.2743 501.71707 C 622.06516 501.71707 620.2743 499.9262 620.2743 497.71707 L 620.2743 466.03203 C 620.2743 463.8229 622.06516 462.03203 624.2743 462.03203 Z"/></g><g id="Graphic_41"><path fill="#fff" d="M 637.20425 496.8637 C 634.8314 494.48164 634.4815 494.10344 634.44116 493.87675 C 634.3007 493.08775 634.96434 492.4545 635.7728 492.60615 C 635.9926 492.6474 636.2562 492.8767 637.4752 494.0869 L 638.9176 495.5188 L 638.9176 487.21886 L 638.9176 478.9189 L 634.8174 483.0185 L 630.7172 487.11803 L 632.6806 487.15276 C 634.6039 487.1868 634.64956 487.1909 634.91285 487.3546 C 635.1958 487.5305 635.4401 487.9521 635.4401 488.26456 C 635.4401 488.577 635.1958 488.99864 634.91285 489.17454 L 634.6441 489.3416 L 630.8222 489.3416 L 627.0004 489.3416 L 627.0004 485.47274 C 627.0004 481.67356 627.0029 481.6004 627.1437 481.412 C 627.4135 481.0507 627.639 480.9336 628.0652 480.9336 C 628.36196 480.9336 628.51346 480.97196 628.6769 481.0886 C 629.0996 481.3901 629.1198 481.50855 629.1198 483.6887 L 629.1198 485.6584 L 634.0187 480.7599 L 638.9176 475.86135 L 638.9176 473.305 L 638.9176 470.7487 L 638.62224 470.6212 C 638.04984 470.37407 637.4017 469.79476 637.06005 469.2249 C 636.5979 468.4541 636.4869 467.2952 636.7922 466.4301 C 637.48174 464.47647 639.7724 463.5802 641.5867 464.55413 C 642.0494 464.8025 642.7563 465.5124 642.9795 465.9528 C 643.8332 467.6376 643.2087 469.63825 641.5583 470.5055 L 641.0717 470.7612 L 641.0717 473.3113 L 641.0717 475.86135 L 646.0748 480.8641 L 651.07794 485.86687 L 651.07794 483.7919 C 651.07794 481.80714 651.0843 481.7055 651.2251 481.45503 C 651.5178 480.93424 652.2163 480.7433 652.6816 481.05685 C 652.81056 481.14375 652.9874 481.32075 653.07464 481.4502 L 653.2332 481.6855 L 653.21526 485.51356 L 653.1973 489.3416 L 649.6187 489.3619 C 647.6504 489.3731 645.9047 489.36293 645.7393 489.3395 C 645.531 489.3099 645.355 489.22123 645.1667 489.0511 C 644.56366 488.5063 644.6829 487.7751 645.467 487.20987 C 645.4764 487.2031 646.3364 487.1796 647.3781 487.15776 L 649.27205 487.118 L 645.17185 483.01846 L 641.07166 478.9189 L 641.07166 487.1871 L 641.07166 495.45526 L 642.44404 494.08686 C 643.19886 493.33424 643.90445 492.6857 644.01204 492.64564 C 644.48015 492.4714 645.0082 492.6416 645.29305 493.0592 C 645.48545 493.3411 645.5074 493.9134 645.3358 494.17294 C 645.21315 494.3584 640.0196 499.5911 639.9582 499.5911 C 639.9378 499.5911 638.6985 498.36376 637.2042 496.8637 Z"/></g></g><g id="Group_37"><g id="Graphic_39"><path fill="#f15623" d="M 476.71707 70.84058 L 508.4021 70.84058 C 510.61124 70.84058 512.4021 72.63144 512.4021 74.84058 L 512.4021 106.52562 C 512.4021 108.73476 510.61124 110.52562 508.4021 110.52562 L 476.71707 110.52562 C 474.5079 110.52562 472.71707 108.73476 472.71707 106.52562 L 472.71707 74.84058 C 472.71707 72.63144 474.5079 70.84058 476.71707 70.84058 Z"/></g><g id="Graphic_38"><path fill="#fff" d="M 489.647 105.67225 C 487.27414 103.29018 486.9243 102.91199 486.8839 102.6853 C 486.74346 101.8963 487.4071 101.26304 488.21553 101.4147 C 488.43535 101.45596 488.699 101.68523 489.918 102.89543 L 491.36034 104.32736 L 491.36034 96.02741 L 491.36034 87.72746 L 487.26016 91.82702 L 483.16 95.92658 L 485.1234 95.9613 C 487.0467 95.99532 487.09233 95.99947 487.3556 96.16314 C 487.6386 96.33904 487.8829 96.76067 487.8829 97.07311 C 487.8829 97.38555 487.6386 97.80719 487.3556 97.98309 L 487.08684 98.15017 L 483.265 98.15017 L 479.4432 98.15017 L 479.4432 94.28129 C 479.4432 90.48211 479.4457 90.40894 479.58644 90.22054 C 479.85624 89.85924 480.0818 89.74214 480.50796 89.74214 C 480.8047 89.74214 480.9562 89.78051 481.1197 89.89712 C 481.5424 90.19863 481.56255 90.3171 481.56255 92.49723 L 481.56255 94.46695 L 486.46144 89.56842 L 491.36034 84.6699 L 491.36034 82.11357 L 491.36034 79.55724 L 491.065 79.42974 C 490.4926 79.18262 489.84447 78.60331 489.5028 78.03344 C 489.0407 77.26262 488.92964 76.10376 489.235 75.23862 C 489.9245 73.28502 492.2152 72.38875 494.0295 73.36268 C 494.4922 73.61105 495.1991 74.32095 495.42226 74.76137 C 496.276 76.44615 495.65146 78.446795 494.00104 79.314065 L 493.51446 79.569755 L 493.51446 82.11982 L 493.51446 84.66989 L 498.5176 89.67265 L 503.5207 94.67542 L 503.5207 92.60042 C 503.5207 90.61568 503.5271 90.51404 503.6679 90.26358 C 503.9606 89.74279 504.65907 89.55183 505.12437 89.8654 C 505.2533 89.9523 505.4302 90.1293 505.5174 90.25873 L 505.676 90.49405 L 505.658 94.32211 L 505.64006 98.15017 L 502.06143 98.17047 C 500.0932 98.18166 498.3475 98.17148 498.1821 98.14805 C 497.9738 98.11843 497.79775 98.02978 497.60946 97.85967 C 497.0064 97.31486 497.12566 96.58368 497.90974 96.01842 C 497.9192 96.01163 498.7792 95.98815 499.82086 95.96631 L 501.7148 95.92657 L 497.6146 91.827 L 493.51443 87.72744 L 493.51443 95.99562 L 493.51443 104.2638 L 494.8868 102.89541 C 495.6416 102.14279 496.3472 101.49424 496.4548 101.45419 C 496.9229 101.27992 497.45093 101.45014 497.7358 101.86774 C 497.9282 102.14962 497.9502 102.72193 497.77854 102.98149 C 497.6559 103.16694 492.4624 108.39963 492.40094 108.39963 C 492.38054 108.39963 491.14126 107.17231 489.64697 105.67224 Z"/></g></g><g id="Line_36"><line x1="512.402" x2="543.871" y1="90.683" y2="90.683" stroke="#000" stroke-linecap="round" stroke-linejoin="round" stroke-width="2" marker-end="url(#FilledArrow_Marker)"/></g><g id="Line_35"><path stroke="#000" stroke-linecap="round" stroke-linejoin="round" stroke-width="2" marker-end="url(#FilledArrow_Marker)" d="M 642.98026 462.03203 C 642.154 456.677 639.9786 450.56433 635.3955 444.1168 C 631.993 439.3301 627.6355 434.88224 622.95106 430.8744"/></g><g id="Line_34"><path stroke="#000" stroke-linecap="round" stroke-linejoin="round" stroke-width="2" marker-end="url(#FilledArrow_Marker)" d="M 597.821 423.03853 C 601.7846 430.75214 605.11175 440.94335 603.2664 451.63115 C 602.52456 455.9279 601.01394 459.91543 599.0585 463.5533"/></g><g id="Line_33"><path stroke="#000" stroke-linecap="round" stroke-linejoin="round" stroke-width="2" marker-end="url(#FilledArrow_Marker)" d="M 596.3035 423.03853 C 597.4026 429.7989 595.3352 438.60153 584.4032 448.4468 C 573.6514 458.1298 556.52114 466.84336 540.5831 473.60244"/></g><g id="Line_32"><line x1="501.102" x2="501.102" y1="474.062" y2="435.939" stroke="#000" stroke-linecap="round" stroke-linejoin="round" stroke-width="2" marker-end="url(#FilledArrow_Marker)"/></g><g id="Graphic_31"><title>Account Box</title><path fill="#000" d="M -39.93305 303.588 L -39.93305 341.50926 C -39.93305 344.4888 -37.52234 346.92658 -34.515725 346.92658 L 3.405536 346.92658 C 6.385064 346.92658 8.822859 344.4888 8.822859 341.50926 L 8.822859 303.588 C 8.822859 300.60847 6.385064 298.17067 3.405536 298.17067 L -34.515725 298.17067 C -37.52234 298.17067 -39.93305 300.60847 -39.93305 303.588 Z M -7.42911 314.42264 C -7.42911 318.91902 -11.058716 322.54863 -15.555094 322.54863 C -20.051472 322.54863 -23.68108 318.91902 -23.68108 314.42264 C -23.68108 309.92626 -20.051472 306.29666 -15.555094 306.29666 C -11.058716 306.29666 -7.42911 309.92626 -7.42911 314.42264 Z M -31.807063 336.09193 C -31.807063 330.6746 -20.972417 327.6951 -15.555094 327.6951 C -10.137771 327.6951 .6968747 330.6746 .6968747 336.09193 L .6968747 338.8006 L -31.807063 338.8006 L -31.807063 336.09193 Z"/></g><g id="Line_30"><path stroke="#000" stroke-linecap="round" stroke-linejoin="round" stroke-width="2" marker-end="url(#FilledArrow_Marker)" d="M -6.823747 298.17067 C -.4614035 282.25118 10.032813 258.36948 26.692527 226.04244 C 46.45175 187.70102 69.460745 148.00298 85.19412 121.59442"/></g><g id="Group_27"><g id="Graphic_29"><path fill="url(#Obj_Gradient)" d="M -51.14795 -19.581547 L -59.28655 -33.679148 C -59.92337 -34.782277 -59.92337 -36.14119 -59.28655 -37.24432 L -51.14795 -51.34192 C -50.511125 -52.44505 -49.334206 -53.12466 -48.060244 -53.12466 L -31.78305 -53.12466 C -30.5094 -53.12466 -29.33248 -52.44505 -28.695344 -51.34192 L -20.556747 -37.24432 C -19.91992 -36.14119 -19.91992 -34.782277 -20.556747 -33.679148 L -28.695344 -19.581547 C -29.33217 -18.478419 -30.50909 -17.799117 -31.78305 -17.799117 L -48.060244 -17.799117 C -49.333896 -17.799117 -50.510815 -18.478729 -51.14764 -19.581547"/></g><g id="Graphic_28"><path fill="#fff" d="M -32.1613 -40.424727 L -39.50185 -44.663 C -39.760735 -44.81244 -40.07977 -44.81244 -40.338653 -44.663 L -47.6792 -40.424727 C -47.93809 -40.275287 -48.09745 -39.99904 -48.09745 -39.70016 L -48.09745 -31.223927 C -48.09745 -30.925047 -47.93809 -30.6488 -47.6792 -30.49936 L -40.338653 -26.261088 C -40.07977 -26.111648 -39.760735 -26.111648 -39.50185 -26.261088 L -32.1613 -30.49936 C -31.902416 -30.6488 -31.743055 -30.925047 -31.743055 -31.223927 L -31.743055 -39.70016 C -31.743055 -39.99904 -31.902416 -40.275287 -32.1613 -40.424727 M -33.168317 -32.034996 L -35.72926 -33.513586 L -35.72926 -37.40864 L -39.51115 -35.225946 L -39.51115 -30.857457 L -36.138207 -32.80483 L -33.57726 -31.32624 L -39.920407 -27.664027 L -46.26355 -31.32624 L -43.702607 -32.80483 L -40.32935 -30.857457 L -40.32935 -35.225946 L -44.11124 -37.40864 L -44.11124 -33.513586 L -46.672187 -32.034996 L -46.672187 -39.359424 L -40.32904 -43.021637 L -40.32904 -40.06446 L -43.702297 -38.117086 L -39.920407 -35.93439 L -36.138517 -38.117086 L -39.51146 -40.06446 L -39.51146 -43.021637 L -33.168317 -39.359424 L -33.168317 -32.034996"/></g></g><g id="Group_24"><g id="Graphic_26"><path fill="url(#Obj_Gradient_2)" d="M 404.93525 -19.581547 L 396.79665 -33.679148 C 396.15982 -34.782277 396.15982 -36.14119 396.79665 -37.24432 L 404.93525 -51.34192 C 405.57207 -52.44505 406.749 -53.12466 408.02295 -53.12466 L 424.30015 -53.12466 C 425.5738 -53.12466 426.7507 -52.44505 427.38785 -51.34192 L 435.52645 -37.24432 C 436.1633 -36.14119 436.1633 -34.782277 435.52645 -33.679148 L 427.38785 -19.581547 C 426.75103 -18.478419 425.5741 -17.799117 424.30015 -17.799117 L 408.02295 -17.799117 C 406.7493 -17.799117 405.5724 -18.478729 404.93556 -19.581547"/></g><g id="Graphic_25"><path fill="#fff" d="M 423.9219 -40.424727 L 416.58135 -44.663 C 416.32246 -44.81244 416.00343 -44.81244 415.74455 -44.663 L 408.404 -40.424727 C 408.1451 -40.275287 407.98575 -39.99904 407.98575 -39.70016 L 407.98575 -31.223927 C 407.98575 -30.925047 408.1451 -30.6488 408.404 -30.49936 L 415.74455 -26.261088 C 416.00343 -26.111648 416.32246 -26.111648 416.58135 -26.261088 L 423.9219 -30.49936 C 424.1808 -30.6488 424.34014 -30.925047 424.34014 -31.223927 L 424.34014 -39.70016 C 424.34014 -39.99904 424.1808 -40.275287 423.9219 -40.424727 M 422.9149 -32.034996 L 420.35394 -33.513586 L 420.35394 -37.40864 L 416.57205 -35.225946 L 416.57205 -30.857457 L 419.945 -32.80483 L 422.50594 -31.32624 L 416.1628 -27.664027 L 409.81965 -31.32624 L 412.3806 -32.80483 L 415.75385 -30.857457 L 415.75385 -35.225946 L 411.97196 -37.40864 L 411.97196 -33.513586 L 409.411 -32.034996 L 409.411 -39.359424 L 415.75416 -43.021637 L 415.75416 -40.06446 L 412.3809 -38.117086 L 416.1628 -35.93439 L 419.9447 -38.117086 L 416.57174 -40.06446 L 416.57174 -43.021637 L 422.9149 -39.359424 L 422.9149 -32.034996"/></g></g><g id="Group_21"><g id="Graphic_23"><path fill="url(#Obj_Gradient_3)" d="M 404.93525 345.14415 L 396.79665 331.04655 C 396.15982 329.9434 396.15982 328.5845 396.79665 327.48138 L 404.93525 313.38378 C 405.57207 312.28065 406.749 311.60104 408.02295 311.60104 L 424.30015 311.60104 C 425.5738 311.60104 426.7507 312.28065 427.38785 313.38378 L 435.52645 327.48138 C 436.1633 328.5845 436.1633 329.9434 435.52645 331.04655 L 427.38785 345.14415 C 426.75103 346.24728 425.5741 346.92658 424.30015 346.92658 L 408.02295 346.92658 C 406.7493 346.92658 405.5724 346.24697 404.93556 345.14415"/></g><g id="Graphic_22"><path fill="#fff" d="M 423.9219 324.30097 L 416.58135 320.0627 C 416.32246 319.91326 416.00343 319.91326 415.74455 320.0627 L 408.404 324.30097 C 408.1451 324.4504 407.98575 324.72666 407.98575 325.02554 L 407.98575 333.50177 C 407.98575 333.80065 408.1451 334.0769 408.404 334.22634 L 415.74455 338.4646 C 416.00343 338.61405 416.32246 338.61405 416.58135 338.4646 L 423.9219 334.22634 C 424.1808 334.0769 424.34014 333.80065 424.34014 333.50177 L 424.34014 325.02554 C 424.34014 324.72666 424.1808 324.4504 423.9219 324.30097 M 422.9149 332.6907 L 420.35394 331.2121 L 420.35394 327.31706 L 416.57205 329.49975 L 416.57205 333.86824 L 419.945 331.92087 L 422.50594 333.39946 L 416.1628 337.06167 L 409.81965 333.39946 L 412.3806 331.92087 L 415.75385 333.86824 L 415.75385 329.49975 L 411.97196 327.31706 L 411.97196 331.2121 L 409.411 332.6907 L 409.411 325.36627 L 415.75416 321.70406 L 415.75416 324.66124 L 412.3809 326.6086 L 416.1628 328.7913 L 419.9447 326.6086 L 416.57174 324.66124 L 416.57174 321.70406 L 422.9149 325.36627 L 422.9149 332.6907"/></g></g><g id="Line_20"><path stroke="#000" stroke-linecap="round" stroke-linejoin="round" stroke-width="2" marker-end="url(#FilledArrow_Marker)" d="M 118.0019 110.52562 C 125.50401 127.21068 136.73187 157.36914 153.3014 211.5808 C 194.47725 346.2986 111.36045 489.6297 249.2777 566.20526 C 357.71135 626.4107 537.2347 539.8177 609.0352 500.043"/></g><g id="Graphic_19"><rect width="342.528" height="42.784" x="-6.342" y="385.169" fill="#fff"/><text fill="#000" transform="translate(-1.3417524 390.16906)"><tspan x="55.146" y="13" fill="#000" font-family="Helvetica Neue" font-size="14">1.2 bookinfo.tetrate.io/productpage</tspan> <tspan x="0" y="29.392" fill="#000" font-family="Helvetica Neue" font-size="14">and X-CLUSTER-SELECTOR=gke-jimmy-us-west1-2</tspan></text></g><g id="Graphic_18"><rect width="568.656" height="26.392" x="235.039" y="211.581" fill="#fff"/><text fill="#000" transform="translate(240.039 216.5808)"><tspan x="0" y="13" fill="#000" font-family="Helvetica Neue" font-size="14">1.1 bookinfo.tetrate.io/productpage and X-CLUSTER-SELECTOR=gke-jimmy-us-west1-1</tspan></text></g><g id="Graphic_17"><text fill="#000" transform="translate(-37.779093 351.92658)"><tspan x="0" y="16" fill="#000" font-family="Helvetica Neue" font-size="16" font-weight="bold">Users</tspan></text></g><g id="Graphic_16"><rect width="262.574" height="26.392" x="-124" y="252.427" fill="#fff"/><text fill="#000" transform="translate(-119 257.42682)"><tspan x="0" y="13" fill="#000" font-family="Helvetica Neue" font-size="14">1. http://bookinfo.tetrate.io/productpage</tspan></text></g><g id="Graphic_15"><rect width="33.408" height="68.392" x="231.218" y="56.487" stroke="#000" stroke-linecap="round" stroke-linejoin="round" stroke-width="1"/><text fill="#000" transform="translate(236.2179 61.48693)"><tspan x="1.472" y="16" fill="#000" font-family="Helvetica Neue" font-size="16" font-weight="bold">VS</tspan> <tspan x="0" y="35.464" fill="#000" font-family="Helvetica Neue" font-size="16" font-weight="bold">DR</tspan> <tspan x="1.328" y="54.928" fill="#000" font-family="Helvetica Neue" font-size="16" font-weight="bold">SE</tspan></text></g><g id="Graphic_14"><path fill="#466bb0" d="M -56.498625 191.65238 L -23.34467 191.65238 L -44.060626 197.86612 Z M -56.498625 189.57763 L -44.060626 187.50287 L -44.060626 164.71216 Z M -41.9964 187.50287 L -23.34467 189.57763 L -41.9964 148.13519 Z"/></g><g id="Graphic_13"><path fill="#466bb0" d="M 399.58457 191.65238 L 432.73853 191.65238 L 412.02257 197.86612 Z M 399.58457 189.57763 L 412.02257 187.50287 L 412.02257 164.71216 Z M 414.0868 187.50287 L 432.73853 189.57763 L 414.0868 148.13519 Z"/></g><g id="Graphic_12"><path fill="#466bb0" d="M 399.58457 550.23506 L 432.73853 550.23506 L 412.02257 556.4488 Z M 399.58457 548.1603 L 412.02257 546.08555 L 412.02257 523.29484 Z M 414.0868 546.08555 L 432.73853 548.1603 L 414.0868 506.71787 Z"/></g><g id="Graphic_11"><rect width="33.408" height="68.392" x="689.308" y="64.463" stroke="#000" stroke-linecap="round" stroke-linejoin="round" stroke-width="1"/><text fill="#000" transform="translate(694.30795 69.46262)"><tspan x="1.472" y="16" fill="#000" font-family="Helvetica Neue" font-size="16" font-weight="bold">VS</tspan> <tspan x="0" y="35.464" fill="#000" font-family="Helvetica Neue" font-size="16" font-weight="bold">DR</tspan> <tspan x="1.328" y="54.928" fill="#000" font-family="Helvetica Neue" font-size="16" font-weight="bold">SE</tspan></text></g><g id="Graphic_10"><rect width="33.408" height="68.392" x="689.308" y="380.933" stroke="#000" stroke-linecap="round" stroke-linejoin="round" stroke-width="1"/><text fill="#000" transform="translate(694.30795 385.9329)"><tspan x="1.472" y="16" fill="#000" font-family="Helvetica Neue" font-size="16" font-weight="bold">VS</tspan> <tspan x="0" y="35.464" fill="#000" font-family="Helvetica Neue" font-size="16" font-weight="bold">DR</tspan> <tspan x="1.328" y="54.928" fill="#000" font-family="Helvetica Neue" font-size="16" font-weight="bold">SE</tspan></text></g><g id="Group_7"><g id="Graphic_9"><path fill="#f15623" d="M 88.0941 70.84058 L 119.77914 70.84058 C 121.98828 70.84058 123.77914 72.63144 123.77914 74.84058 L 123.77914 106.52562 C 123.77914 108.73476 121.98828 110.52562 119.77914 110.52562 L 88.0941 110.52562 C 85.88496 110.52562 84.0941 108.73476 84.0941 106.52562 L 84.0941 74.84058 C 84.0941 72.63144 85.88496 70.84058 88.0941 70.84058 Z"/></g><g id="Graphic_8"><path fill="#fff" d="M 101.02405 105.67225 C 98.65117 103.29018 98.30132 102.91199 98.26096 102.6853 C 98.12049 101.8963 98.78415 101.26304 99.59257 101.4147 C 99.81239 101.45596 100.07601 101.68523 101.29502 102.89543 L 102.73737 104.32736 L 102.73737 96.02741 L 102.73737 87.72746 L 98.63719 91.82702 L 94.53701 95.92658 L 96.50044 95.9613 C 98.42373 95.99532 98.46937 95.99947 98.73266 96.16314 C 99.01562 96.33904 99.25993 96.76067 99.25993 97.07311 C 99.25993 97.38555 99.01562 97.80719 98.73266 97.98309 L 98.46387 98.15017 L 94.64204 98.15017 L 90.82021 98.15017 L 90.82021 94.28129 C 90.82021 90.48211 90.82274 90.40894 90.96348 90.22054 C 91.23327 89.85924 91.45884 89.74214 91.885 89.74214 C 92.18176 89.74214 92.33326 89.78051 92.49672 89.89712 C 92.91941 90.19863 92.93959 90.3171 92.93959 92.49723 L 92.93959 94.46695 L 97.83848 89.56842 L 102.73737 84.6699 L 102.73737 82.11357 L 102.73737 79.55724 L 102.44205 79.42974 C 101.86964 79.18262 101.2215 78.60331 100.87986 78.03344 C 100.41773 77.26262 100.30668 76.10376 100.61203 75.23862 C 101.30155 73.28502 103.59222 72.38875 105.40653 73.36268 C 105.86923 73.61105 106.57612 74.32095 106.7993 74.76137 C 107.65304 76.44615 107.0285 78.446795 105.37808 79.314065 L 104.8915 79.569755 L 104.8915 82.11982 L 104.8915 84.66989 L 109.89462 89.67265 L 114.89775 94.67542 L 114.89775 92.60042 C 114.89775 90.61568 114.90412 90.51404 115.04491 90.26358 C 115.33762 89.74279 116.0361 89.55183 116.5014 89.8654 C 116.63036 89.9523 116.80723 90.1293 116.89445 90.25873 L 117.05303 90.49405 L 117.03506 94.32211 L 117.0171 98.15017 L 113.43847 98.17047 C 111.47023 98.18166 109.72452 98.17148 109.55911 98.14805 C 109.35084 98.11843 109.17479 98.02978 108.9865 97.85967 C 108.38346 97.31486 108.5027 96.58368 109.28677 96.01842 C 109.29624 96.01163 110.15622 95.98815 111.1979 95.96631 L 113.09185 95.92657 L 108.99166 91.827 L 104.89147 87.72744 L 104.89147 95.99562 L 104.89147 104.2638 L 106.26385 102.89541 C 107.01866 102.14279 107.72426 101.49424 107.83185 101.45419 C 108.29995 101.27992 108.82797 101.45014 109.11285 101.86774 C 109.30526 102.14962 109.32722 102.72193 109.15557 102.98149 C 109.03296 103.16694 103.83941 108.39963 103.77798 108.39963 C 103.75758 108.39963 102.51829 107.17231 101.024 105.67224 Z"/></g></g><g id="Graphic_6"><text fill="#000" transform="translate(69.71262 180.1686)"><tspan x="0" y="16" fill="#000" font-family="Helvetica Neue" font-size="16" font-weight="bold">Cluster 0</tspan></text></g><g id="Graphic_5"><text fill="#000" transform="translate(526.79924 180.1686)"><tspan x="0" y="16" fill="#000" font-family="Helvetica Neue" font-size="16" font-weight="bold">Cluster 1</tspan></text></g><g id="Graphic_4"><text fill="#000" transform="translate(526.79924 541.74115)"><tspan x="0" y="16" fill="#000" font-family="Helvetica Neue" font-size="16" font-weight="bold">Cluster 2</tspan></text></g><g id="Line_3"><path stroke="#000" stroke-linecap="round" stroke-linejoin="round" stroke-width="2" marker-end="url(#FilledArrow_Marker)" d="M 115.97652 110.52562 C 118.36642 112.87675 120.96246 115.41129 123.77914 118.14159 C 183.80857 176.3302 211.34904 303.85434 315.8264 296.0752 C 393.8824 290.26335 453.9533 178.4914 479.344 122.33098"/></g><g id="Graphic_2"><rect width="232.236" height="26.392" x="268.956" y="249.703" fill="#fff"/><text fill="#000" transform="translate(273.95604 254.70258)"><tspan x="0" y="13" fill="#000" font-family="Helvetica Neue" font-size="14">1.3 bookinfo.tetrate.io/productpage</tspan></text></g></g></g></svg>