<svg xmlns="http://www.w3.org/2000/svg" xmlns:xl="http://www.w3.org/1999/xlink" width="937" height="728" version="1.1" viewBox="-312 -225 937 728"><defs><linearGradient id="Gradient" x1="0" x2="1" gradientUnits="userSpaceOnUse"><stop offset="0" stop-color="#4387fd"/><stop offset="1" stop-color="#4683ea"/></linearGradient><linearGradient id="Obj_Gradient" gradientTransform="translate(-242.76417 -154.1233) scale(39.68504)" xl:href="#Gradient"/><linearGradient id="Obj_Gradient_2" gradientTransform="translate(213.31903 -154.1233) scale(39.68504)" xl:href="#Gradient"/><linearGradient id="Obj_Gradient_3" gradientTransform="translate(213.31903 210.60239) scale(39.68504)" xl:href="#Gradient"/></defs><g id="init-infra" fill="none" fill-opacity="1" stroke="none" stroke-dasharray="none" stroke-opacity="1"><title>init-infra</title><rect width="937" height="728" x="-312" y="-225" fill="#fff"/><g id="init-infra_Layer_1"><title>Layer 1</title><g id="Graphic_41"><path stroke="gray" stroke-dasharray="1 4" stroke-linecap="round" stroke-linejoin="round" stroke-width="1" d="M -290.95314 -209.66142 L 132.82639 -209.66142 L 132.82639 128.68636 L -290.95314 128.68636 Z"/><text fill="#a5a5a5" transform="translate(-285.95314 104.22225)"><tspan x="157.122" y="16" fill="#a5a5a5" font-family="Helvetica Neue" font-size="16" font-weight="bold">Tier 1 cluster</tspan></text></g><g id="Graphic_40"><path stroke="gray" stroke-dasharray="1 4" stroke-linecap="round" stroke-linejoin="round" stroke-width="1" d="M 168.79095 -209.66142 L 592.5705 -209.66142 L 592.5705 487.6614 L 168.79095 487.6614 Z"/><text fill="#a5a5a5" transform="translate(173.79095 463.1973)"><tspan x="152.826" y="16" fill="#a5a5a5" font-family="Helvetica Neue" font-size="16" font-weight="bold">Tier 2 clusters</tspan></text></g><g id="Graphic_39"><path fill="#ccc" d="M -243.2681 -177.65076 L 80.88937 -177.65076 C 85.30765 -177.65076 88.88937 -174.06904 88.88937 -169.65076 L 88.88937 77.97129 C 88.88937 82.38957 85.30765 85.97129 80.88937 85.97129 L -243.2681 85.97129 C -247.68638 85.97129 -251.2681 82.38957 -251.2681 77.97129 L -251.2681 -169.65076 C -251.2681 -174.06904 -247.68638 -177.65076 -243.2681 -177.65076 Z"/><text fill="#000" transform="translate(-246.2681 -172.65076)"><tspan x="74.231" y="16" fill="#000" font-family="Helvetica Neue" font-size="16">gke-jimmy-us-central1-1</tspan></text></g><g id="Graphic_38"><path fill="#ccc" d="M 215.9445 -177.65076 L 540.102 -177.65076 C 544.52026 -177.65076 548.102 -174.06904 548.102 -169.65076 L 548.102 77.97129 C 548.102 82.38957 544.52026 85.97129 540.102 85.97129 L 215.9445 85.97129 C 211.52622 85.97129 207.9445 82.38957 207.9445 77.97129 L 207.9445 -169.65076 C 207.9445 -174.06904 211.52622 -177.65076 215.9445 -177.65076 Z"/><text fill="#000" transform="translate(212.9445 -172.65076)"><tspan x="82.087" y="16" fill="#000" font-family="Helvetica Neue" font-size="16">gke-jimmy-us-west1-1</tspan></text></g><g id="Graphic_37"><path fill="#ccc" d="M 215.9445 183.92179 L 540.102 183.92179 C 544.52026 183.92179 548.102 187.5035 548.102 191.92179 L 548.102 439.54384 C 548.102 443.9621 544.52026 447.54384 540.102 447.54384 L 215.9445 447.54384 C 211.52622 447.54384 207.9445 443.9621 207.9445 439.54384 L 207.9445 191.92179 C 207.9445 187.5035 211.52622 183.92179 215.9445 183.92179 Z"/><text fill="#000" transform="translate(212.9445 188.92179)"><tspan x="82.087" y="16" fill="#000" font-family="Helvetica Neue" font-size="16">gke-jimmy-us-west1-2</tspan></text></g><g id="Graphic_36"><path fill="#fff" d="M -192.26275 -124.17586 L 34.13599 -124.17586 C 38.55427 -124.17586 42.13599 -120.59414 42.13599 -116.17586 L 42.13599 47.82414 C 42.13599 52.24242 38.55427 55.82414 34.13599 55.82414 L -192.26275 55.82414 C -196.68102 55.82414 -200.26275 52.24242 -200.26275 47.82414 L -200.26275 -116.17586 C -200.26275 -120.59414 -196.68102 -124.17586 -192.26275 -124.17586 Z"/><path stroke="gray" stroke-linecap="round" stroke-linejoin="round" stroke-width="1" d="M -192.26275 -124.17586 L 34.13599 -124.17586 C 38.55427 -124.17586 42.13599 -120.59414 42.13599 -116.17586 L 42.13599 47.82414 C 42.13599 52.24242 38.55427 55.82414 34.13599 55.82414 L -192.26275 55.82414 C -196.68102 55.82414 -200.26275 52.24242 -200.26275 47.82414 L -200.26275 -116.17586 C -200.26275 -120.59414 -196.68102 -124.17586 -192.26275 -124.17586 Z"/><text fill="#000" transform="translate(-195.26275 -114.17586)"><tspan x="53.223" y="15" fill="#000" font-family="Helvetica Neue" font-size="16">Namespace: tier1</tspan></text></g><g id="Graphic_35"><path fill="#fff" d="M 264.82387 -124.17586 L 491.2226 -124.17586 C 495.6409 -124.17586 499.2226 -120.59414 499.2226 -116.17586 L 499.2226 47.82414 C 499.2226 52.24242 495.6409 55.82414 491.2226 55.82414 L 264.82387 55.82414 C 260.4056 55.82414 256.82387 52.24242 256.82387 47.82414 L 256.82387 -116.17586 C 256.82387 -120.59414 260.4056 -124.17586 264.82387 -124.17586 Z"/><path stroke="gray" stroke-linecap="round" stroke-linejoin="round" stroke-width="1" d="M 264.82387 -124.17586 L 491.2226 -124.17586 C 495.6409 -124.17586 499.2226 -120.59414 499.2226 -116.17586 L 499.2226 47.82414 C 499.2226 52.24242 495.6409 55.82414 491.2226 55.82414 L 264.82387 55.82414 C 260.4056 55.82414 256.82387 52.24242 256.82387 47.82414 L 256.82387 -116.17586 C 256.82387 -120.59414 260.4056 -124.17586 264.82387 -124.17586 Z"/><text fill="#000" transform="translate(261.82387 -114.17586)"><tspan x="4.615" y="15" fill="#000" font-family="Helvetica Neue" font-size="16">Namespace: bookinfo-frontend</tspan></text></g><g id="Graphic_34"><path fill="#fff" d="M 270.13883 225.7328 L 491.2226 225.7328 C 495.6409 225.7328 499.2226 229.31453 499.2226 233.7328 L 499.2226 397.7328 C 499.2226 402.1511 495.6409 405.7328 491.2226 405.7328 L 270.13883 405.7328 C 265.72056 405.7328 262.13883 402.1511 262.13883 397.7328 L 262.13883 233.7328 C 262.13883 229.31453 265.72056 225.7328 270.13883 225.7328 Z"/><path stroke="gray" stroke-linecap="round" stroke-linejoin="round" stroke-width="1" d="M 270.13883 225.7328 L 491.2226 225.7328 C 495.6409 225.7328 499.2226 229.31453 499.2226 233.7328 L 499.2226 397.7328 C 499.2226 402.1511 495.6409 405.7328 491.2226 405.7328 L 270.13883 405.7328 C 265.72056 405.7328 262.13883 402.1511 262.13883 397.7328 L 262.13883 233.7328 C 262.13883 229.31453 265.72056 225.7328 270.13883 225.7328 Z"/><text fill="#000" transform="translate(267.13883 235.7328)"><tspan x=".918" y="15" fill="#000" font-family="Helvetica Neue" font-size="16">Namespace: bookinfo-backend</tspan></text></g><g id="Graphic_33"><path fill="#333" d="M 381.77127 -47.820844 L 463.56655 -47.820844 C 467.9848 -47.820844 471.56655 -44.23912 471.56655 -39.820844 L 471.56655 -16.135804 C 471.56655 -11.717526 467.9848 -8.135804 463.56655 -8.135804 L 381.77127 -8.135804 C 377.353 -8.135804 373.77127 -11.717526 373.77127 -16.135804 L 373.77127 -39.820844 C 373.77127 -44.23912 377.353 -47.820844 381.77127 -47.820844 Z"/><text fill="#fff" transform="translate(378.77127 -36.681373)"><tspan x="2.402" y="14" fill="#fff" font-family="Helvetica Neue" font-size="14">productpage</tspan></text></g><g id="Graphic_32"><path fill="#333" d="M 376.9215 276.7222 L 434.0095 276.7222 C 438.42777 276.7222 442.0095 280.3039 442.0095 284.7222 L 442.0095 296.3771 C 442.0095 300.7954 438.42777 304.3771 434.0095 304.3771 L 376.9215 304.3771 C 372.5032 304.3771 368.9215 300.7954 368.9215 296.3771 L 368.9215 284.7222 C 368.9215 280.3039 372.5032 276.7222 376.9215 276.7222 Z"/><text fill="#fff" transform="translate(373.9215 284.4046)"><tspan x="1.904" y="10" fill="#fff" font-family="Helvetica Neue" font-size="10">productpage</tspan></text></g><g id="Graphic_31"><path fill="#333" d="M 297.71707 355.40073 L 338.4878 355.40073 C 342.9061 355.40073 346.4878 358.98245 346.4878 363.40073 L 346.4878 375.05565 C 346.4878 379.47393 342.9061 383.05565 338.4878 383.05565 L 297.71707 383.05565 C 293.2988 383.05565 289.71707 379.47393 289.71707 375.05565 L 289.71707 363.40073 C 289.71707 358.98245 293.2988 355.40073 297.71707 355.40073 Z"/><text fill="#fff" transform="translate(294.71707 363.08315)"><tspan x="5.87" y="10" fill="#fff" font-family="Helvetica Neue" font-size="10">reviews</tspan></text></g><g id="Graphic_30"><path fill="#333" d="M 371.4957 355.40073 L 412.2664 355.40073 C 416.6847 355.40073 420.2664 358.98245 420.2664 363.40073 L 420.2664 375.05565 C 420.2664 379.47393 416.6847 383.05565 412.2664 383.05565 L 371.4957 383.05565 C 367.0774 383.05565 363.4957 379.47393 363.4957 375.05565 L 363.4957 363.40073 C 363.4957 358.98245 367.0774 355.40073 371.4957 355.40073 Z"/><text fill="#fff" transform="translate(368.4957 363.08315)"><tspan x="8.1" y="10" fill="#fff" font-family="Helvetica Neue" font-size="10">details</tspan></text></g><g id="Graphic_29"><path fill="#333" d="M 297.71707 276.7222 L 338.4878 276.7222 C 342.9061 276.7222 346.4878 280.3039 346.4878 284.7222 L 346.4878 296.3771 C 346.4878 300.7954 342.9061 304.3771 338.4878 304.3771 L 297.71707 304.3771 C 293.2988 304.3771 289.71707 300.7954 289.71707 296.3771 L 289.71707 284.7222 C 289.71707 280.3039 293.2988 276.7222 297.71707 276.7222 Z"/><text fill="#fff" transform="translate(294.71707 284.4046)"><tspan x="7.545" y="10" fill="#fff" font-family="Helvetica Neue" font-size="10">ratings</tspan></text></g><g id="Group_20"><g id="Graphic_22"><path fill="url(#Obj_Gradient)" d="M -234.14795 -138.24297 L -242.28655 -152.34057 C -242.92337 -153.4437 -242.92337 -154.80261 -242.28655 -155.90574 L -234.14795 -170.00334 C -233.51112 -171.10647 -232.3342 -171.78608 -231.06024 -171.78608 L -214.78305 -171.78608 C -213.5094 -171.78608 -212.33248 -171.10647 -211.69534 -170.00334 L -203.55675 -155.90574 C -202.91992 -154.80261 -202.91992 -153.4437 -203.55675 -152.34057 L -211.69534 -138.24297 C -212.33217 -137.13984 -213.5091 -136.46054 -214.78305 -136.46054 L -231.06024 -136.46054 C -232.3339 -136.46054 -233.51081 -137.14015 -234.14764 -138.24297"/></g><g id="Graphic_21"><path fill="#fff" d="M -215.1613 -159.08615 L -222.50185 -163.32442 C -222.76074 -163.47386 -223.07977 -163.47386 -223.33865 -163.32442 L -230.6792 -159.08615 C -230.9381 -158.9367 -231.09745 -158.66046 -231.09745 -158.36158 L -231.09745 -149.88535 C -231.09745 -149.58647 -230.9381 -149.31022 -230.6792 -149.16078 L -223.33865 -144.9225 C -223.07977 -144.77307 -222.76074 -144.77307 -222.50185 -144.9225 L -215.1613 -149.16078 C -214.90242 -149.31022 -214.74305 -149.58647 -214.74305 -149.88535 L -214.74305 -158.36158 C -214.74305 -158.66046 -214.90242 -158.9367 -215.1613 -159.08615 M -216.16832 -150.69642 L -218.72926 -152.175 L -218.72926 -156.07006 L -222.51115 -153.88737 L -222.51115 -149.51888 L -219.1382 -151.46625 L -216.57726 -149.98766 L -222.9204 -146.32545 L -229.26355 -149.98766 L -226.7026 -151.46625 L -223.32935 -149.51888 L -223.32935 -153.88737 L -227.11124 -156.07006 L -227.11124 -152.175 L -229.6722 -150.69642 L -229.6722 -158.02084 L -223.32904 -161.68306 L -223.32904 -158.72588 L -226.7023 -156.7785 L -222.9204 -154.59581 L -219.13852 -156.7785 L -222.51146 -158.72588 L -222.51146 -161.68306 L -216.16832 -158.02084 L -216.16832 -150.69642"/></g></g><g id="Group_17"><g id="Graphic_19"><path fill="url(#Obj_Gradient_2)" d="M 221.93525 -138.24297 L 213.79665 -152.34057 C 213.15982 -153.4437 213.15982 -154.80261 213.79665 -155.90574 L 221.93525 -170.00334 C 222.57207 -171.10647 223.749 -171.78608 225.02295 -171.78608 L 241.30015 -171.78608 C 242.5738 -171.78608 243.75072 -171.10647 244.38785 -170.00334 L 252.52645 -155.90574 C 253.16328 -154.80261 253.16328 -153.4437 252.52645 -152.34057 L 244.38785 -138.24297 C 243.75103 -137.13984 242.5741 -136.46054 241.30015 -136.46054 L 225.02295 -136.46054 C 223.7493 -136.46054 222.57238 -137.14015 221.93556 -138.24297"/></g><g id="Graphic_18"><path fill="#fff" d="M 240.9219 -159.08615 L 233.58135 -163.32442 C 233.32246 -163.47386 233.00343 -163.47386 232.74455 -163.32442 L 225.404 -159.08615 C 225.1451 -158.9367 224.98575 -158.66046 224.98575 -158.36158 L 224.98575 -149.88535 C 224.98575 -149.58647 225.1451 -149.31022 225.404 -149.16078 L 232.74455 -144.9225 C 233.00343 -144.77307 233.32246 -144.77307 233.58135 -144.9225 L 240.9219 -149.16078 C 241.18078 -149.31022 241.34014 -149.58647 241.34014 -149.88535 L 241.34014 -158.36158 C 241.34014 -158.66046 241.18078 -158.9367 240.9219 -159.08615 M 239.91488 -150.69642 L 237.35394 -152.175 L 237.35394 -156.07006 L 233.57205 -153.88737 L 233.57205 -149.51888 L 236.945 -151.46625 L 239.50594 -149.98766 L 233.1628 -146.32545 L 226.81965 -149.98766 L 229.3806 -151.46625 L 232.75385 -149.51888 L 232.75385 -153.88737 L 228.97196 -156.07006 L 228.97196 -152.175 L 226.411 -150.69642 L 226.411 -158.02084 L 232.75416 -161.68306 L 232.75416 -158.72588 L 229.3809 -156.7785 L 233.1628 -154.59581 L 236.94468 -156.7785 L 233.57174 -158.72588 L 233.57174 -161.68306 L 239.91488 -158.02084 L 239.91488 -150.69642"/></g></g><g id="Group_14"><g id="Graphic_16"><path fill="url(#Obj_Gradient_3)" d="M 221.93525 226.48273 L 213.79665 212.38513 C 213.15982 211.282 213.15982 209.92309 213.79665 208.81996 L 221.93525 194.72236 C 222.57207 193.61923 223.749 192.93962 225.02295 192.93962 L 241.30015 192.93962 C 242.5738 192.93962 243.75072 193.61923 244.38785 194.72236 L 252.52645 208.81996 C 253.16328 209.92309 253.16328 211.282 252.52645 212.38513 L 244.38785 226.48273 C 243.75103 227.58586 242.5741 228.26516 241.30015 228.26516 L 225.02295 228.26516 C 223.7493 228.26516 222.57238 227.58555 221.93556 226.48273"/></g><g id="Graphic_15"><path fill="#fff" d="M 240.9219 205.63955 L 233.58135 201.40128 C 233.32246 201.25184 233.00343 201.25184 232.74455 201.40128 L 225.404 205.63955 C 225.1451 205.789 224.98575 206.06524 224.98575 206.36412 L 224.98575 214.84035 C 224.98575 215.13923 225.1451 215.41548 225.404 215.56492 L 232.74455 219.8032 C 233.00343 219.95263 233.32246 219.95263 233.58135 219.8032 L 240.9219 215.56492 C 241.18078 215.41548 241.34014 215.13923 241.34014 214.84035 L 241.34014 206.36412 C 241.34014 206.06524 241.18078 205.789 240.9219 205.63955 M 239.91488 214.02928 L 237.35394 212.5507 L 237.35394 208.65563 L 233.57205 210.83833 L 233.57205 215.20682 L 236.945 213.25945 L 239.50594 214.73803 L 233.1628 218.40025 L 226.81965 214.73803 L 229.3806 213.25945 L 232.75385 215.20682 L 232.75385 210.83833 L 228.97196 208.65563 L 228.97196 212.5507 L 226.411 214.02928 L 226.411 206.70485 L 232.75416 203.04264 L 232.75416 205.99982 L 229.3809 207.9472 L 233.1628 210.12988 L 236.94468 207.9472 L 233.57174 205.99982 L 233.57174 203.04264 L 239.91488 206.70485 L 239.91488 214.02928"/></g></g><g id="Graphic_12"><path fill="#466bb0" d="M -239.49862 72.99096 L -206.34467 72.99096 L -227.06063 79.2047 Z M -239.49862 70.91621 L -227.06063 68.84145 L -227.06063 46.05074 Z M -224.9964 68.84145 L -206.34467 70.91621 L -224.9964 29.473765 Z"/></g><g id="Graphic_11"><path fill="#466bb0" d="M 216.58457 72.99096 L 249.73853 72.99096 L 229.02257 79.2047 Z M 216.58457 70.91621 L 229.02257 68.84145 L 229.02257 46.05074 Z M 231.0868 68.84145 L 249.73853 70.91621 L 231.0868 29.473765 Z"/></g><g id="Graphic_10"><path fill="#466bb0" d="M 216.58457 431.57364 L 249.73853 431.57364 L 229.02257 437.7874 Z M 216.58457 429.4989 L 229.02257 427.42413 L 229.02257 404.6334 Z M 231.0868 427.42413 L 249.73853 429.4989 L 231.0868 388.05645 Z"/></g><g id="Graphic_4"><text fill="#000" transform="translate(-113.28738 61.50718)"><tspan x="0" y="16" fill="#000" font-family="Helvetica Neue" font-size="16" font-weight="bold">Cluster 0</tspan></text></g><g id="Graphic_3"><text fill="#000" transform="translate(343.79924 61.50718)"><tspan x="0" y="16" fill="#000" font-family="Helvetica Neue" font-size="16" font-weight="bold">Cluster 1</tspan></text></g><g id="Graphic_2"><text fill="#000" transform="translate(343.79924 423.07973)"><tspan x="0" y="16" fill="#000" font-family="Helvetica Neue" font-size="16" font-weight="bold">Cluster 2</tspan></text></g></g></g></svg>