<?xml version="1.0" encoding="UTF-8" standalone="no"?>
<!DOCTYPE svg PUBLIC "-//W3C//DTD SVG 1.1//EN" "http://www.w3.org/Graphics/SVG/1.1/DTD/svg11.dtd">
<svg xmlns="http://www.w3.org/2000/svg" xmlns:dc="http://purl.org/dc/elements/1.1/" xmlns:xl="http://www.w3.org/1999/xlink" version="1.1" viewBox="322 457 519 333" width="519" height="333">
  <defs>
    <marker orient="auto" overflow="visible" markerUnits="strokeWidth" id="FilledArrow_Marker" stroke-linejoin="miter" stroke-miterlimit="10" viewBox="-1 -3 7 6" markerWidth="7" markerHeight="6" color="black">
      <g>
        <path d="M 4.8 0 L 0 -1.8 L 0 1.8 Z" fill="currentColor" stroke="currentColor" stroke-width="1"/>
      </g>
    </marker>
  </defs>
  <g id="istio-load-balancing" stroke-opacity="1" fill="none" stroke-dasharray="none" stroke="none" fill-opacity="1">
    <title>istio-load-balancing</title>
    <rect fill="white" x="322" y="457" width="519" height="333"/>
    <g id="istio-load-balancing_Layer_1">
      <title>Layer 1</title>
      <g id="Graphic_45">
        <rect x="488.85965" y="718.5" width="146.288" height="29.46411" fill="white"/>
        <text transform="translate(493.85965 723.5)" fill="black">
          <tspan font-family="Helvetica Neue" font-weight="bold" font-size="16" fill="black" x="22737368e-20" y="16">2. Load Balancing</tspan>
        </text>
      </g>
      <g id="Graphic_26">
        <path d="M 330.5 600.2751 L 478.916 600.2751 C 483.3343 600.2751 486.916 603.8568 486.916 608.2751 L 486.916 767.0502 C 486.916 771.4685 483.3343 775.0502 478.916 775.0502 L 330.5 775.0502 C 326.08172 775.0502 322.5 771.4685 322.5 767.0502 L 322.5 608.2751 C 322.5 603.8568 326.08172 600.2751 330.5 600.2751 Z" fill="white"/>
        <path d="M 330.5 600.2751 L 478.916 600.2751 C 483.3343 600.2751 486.916 603.8568 486.916 608.2751 L 486.916 767.0502 C 486.916 771.4685 483.3343 775.0502 478.916 775.0502 L 330.5 775.0502 C 326.08172 775.0502 322.5 771.4685 322.5 767.0502 L 322.5 608.2751 C 322.5 603.8568 326.08172 600.2751 330.5 600.2751 Z" stroke="gray" stroke-linecap="round" stroke-linejoin="round" stroke-dasharray="4.0,4.0" stroke-width="1"/>
        <text transform="translate(327.5 750.5861)" fill="black">
          <tspan font-family="Helvetica Neue" font-weight="bold" font-size="16" fill="black" x="62.096" y="16">Pod</tspan>
        </text>
      </g>
      <g id="Graphic_14">
        <path d="M 351.208 614.0502 L 458.208 614.0502 C 462.6263 614.0502 466.208 617.6319 466.208 622.0502 L 466.208 660.0502 C 466.208 664.4685 462.6263 668.0502 458.208 668.0502 L 351.208 668.0502 C 346.78972 668.0502 343.208 664.4685 343.208 660.0502 L 343.208 622.0502 C 343.208 617.6319 346.78972 614.0502 351.208 614.0502 Z" fill="#0a55a8"/>
        <text transform="translate(348.208 631.3181)" fill="white">
          <tspan font-family="Helvetica Neue" font-weight="bold" font-size="16" fill="white" x="34.292" y="16">Client</tspan>
        </text>
      </g>
      <g id="Graphic_10">
        <path d="M 514 457 L 621 457 C 625.4183 457 629 460.5817 629 465 L 629 503 C 629 507.4183 625.4183 511 621 511 L 514 511 C 509.5817 511 506 507.4183 506 503 L 506 465 C 506 460.5817 509.5817 457 514 457 Z" fill="#0a55a8"/>
        <text transform="translate(511 474.26794)" fill="white">
          <tspan font-family="Helvetica Neue" font-weight="bold" font-size="16" fill="white" x="35.188" y="16">Istiod</tspan>
        </text>
      </g>
      <g id="Line_9">
        <path d="M 452.16275 688.0502 C 479.3893 670.149 512.68487 643.8662 536 610.7751 C 558.72203 578.5258 566.7009 547.2814 568.94843 523.8796" marker-end="url(#FilledArrow_Marker)" stroke="black" stroke-linecap="round" stroke-linejoin="round" stroke-width="2"/>
      </g>
      <g id="Graphic_8">
        <rect x="479.79565" y="543.6292" width="164.416" height="29.46411" fill="white"/>
        <text transform="translate(484.79565 548.6292)" fill="black">
          <tspan font-family="Helvetica Neue" font-weight="bold" font-size="16" fill="black" x="5400125e-19" y="16">1. Service Discovery</tspan>
        </text>
      </g>
      <g id="Graphic_24">
        <path d="M 351.208 688.0502 L 458.208 688.0502 C 462.6263 688.0502 466.208 691.6319 466.208 696.0502 L 466.208 734.0502 C 466.208 738.4685 462.6263 742.0502 458.208 742.0502 L 351.208 742.0502 C 346.78972 742.0502 343.208 738.4685 343.208 734.0502 L 343.208 696.0502 C 343.208 691.6319 346.78972 688.0502 351.208 688.0502 Z" fill="#0a55a8"/>
        <text transform="translate(348.208 705.3181)" fill="white">
          <tspan font-family="Helvetica Neue" font-weight="bold" font-size="16" fill="white" x="9.508" y="16">Envoy Proxy</tspan>
        </text>
      </g>
      <g id="Group_34">
        <g id="Graphic_15">
          <path d="M 654 586.5 L 802.416 586.5 C 806.8343 586.5 810.416 590.0817 810.416 594.5 L 810.416 753.2751 C 810.416 757.6934 806.8343 761.2751 802.416 761.2751 L 654 761.2751 C 649.5817 761.2751 646 757.6934 646 753.2751 L 646 594.5 C 646 590.0817 649.5817 586.5 654 586.5 Z" fill="white"/>
          <path d="M 654 586.5 L 802.416 586.5 C 806.8343 586.5 810.416 590.0817 810.416 594.5 L 810.416 753.2751 C 810.416 757.6934 806.8343 761.2751 802.416 761.2751 L 654 761.2751 C 649.5817 761.2751 646 757.6934 646 753.2751 L 646 594.5 C 646 590.0817 649.5817 586.5 654 586.5 Z" stroke="gray" stroke-linecap="round" stroke-linejoin="round" stroke-dasharray="4.0,4.0" stroke-width="1"/>
          <text transform="translate(651 736.811)" fill="black">
            <tspan font-family="Helvetica Neue" font-weight="bold" font-size="16" fill="black" x="62.096" y="16">Pod</tspan>
          </text>
        </g>
        <g id="Graphic_13">
          <path d="M 669.9987 610.7751 L 776.9987 610.7751 C 781.417 610.7751 784.9987 614.3568 784.9987 618.7751 L 784.9987 656.7751 C 784.9987 661.1934 781.417 664.7751 776.9987 664.7751 L 669.9987 664.7751 C 665.5804 664.7751 661.9987 661.1934 661.9987 656.7751 L 661.9987 618.7751 C 661.9987 614.3568 665.5804 610.7751 669.9987 610.7751 Z" fill="#0a55a8"/>
          <text transform="translate(666.9987 628.043)" fill="white">
            <tspan font-family="Helvetica Neue" font-weight="bold" font-size="16" fill="white" x="16.06" y="16">Instance A</tspan>
          </text>
        </g>
        <g id="Graphic_25">
          <path d="M 669.9987 678.5 L 776.9987 678.5 C 781.417 678.5 784.9987 682.0817 784.9987 686.5 L 784.9987 724.5 C 784.9987 728.9183 781.417 732.5 776.9987 732.5 L 669.9987 732.5 C 665.5804 732.5 661.9987 728.9183 661.9987 724.5 L 661.9987 686.5 C 661.9987 682.0817 665.5804 678.5 669.9987 678.5 Z" fill="#0a55a8"/>
          <text transform="translate(666.9987 695.76794)" fill="white">
            <tspan font-family="Helvetica Neue" font-weight="bold" font-size="16" fill="white" x="9.508" y="16">Envoy Proxy</tspan>
          </text>
        </g>
      </g>
      <g id="Line_27">
        <line x1="466.208" y1="713.2078" x2="649.1045" y2="707.7287" marker-end="url(#FilledArrow_Marker)" stroke="black" stroke-linecap="round" stroke-linejoin="round" stroke-width="2"/>
      </g>
      <g id="Group_35">
        <g id="Graphic_38">
          <path d="M 670 600.2751 L 818.416 600.2751 C 822.8343 600.2751 826.416 603.8568 826.416 608.2751 L 826.416 767.0502 C 826.416 771.4685 822.8343 775.0502 818.416 775.0502 L 670 775.0502 C 665.5817 775.0502 662 771.4685 662 767.0502 L 662 608.2751 C 662 603.8568 665.5817 600.2751 670 600.2751 Z" fill="white"/>
          <path d="M 670 600.2751 L 818.416 600.2751 C 822.8343 600.2751 826.416 603.8568 826.416 608.2751 L 826.416 767.0502 C 826.416 771.4685 822.8343 775.0502 818.416 775.0502 L 670 775.0502 C 665.5817 775.0502 662 771.4685 662 767.0502 L 662 608.2751 C 662 603.8568 665.5817 600.2751 670 600.2751 Z" stroke="gray" stroke-linecap="round" stroke-linejoin="round" stroke-dasharray="4.0,4.0" stroke-width="1"/>
          <text transform="translate(667 750.5861)" fill="black">
            <tspan font-family="Helvetica Neue" font-weight="bold" font-size="16" fill="black" x="62.096" y="16">Pod</tspan>
          </text>
        </g>
        <g id="Graphic_37">
          <path d="M 685.9987 624.5502 L 792.9987 624.5502 C 797.417 624.5502 800.9987 628.1319 800.9987 632.5502 L 800.9987 670.5502 C 800.9987 674.9685 797.417 678.5502 792.9987 678.5502 L 685.9987 678.5502 C 681.5804 678.5502 677.9987 674.9685 677.9987 670.5502 L 677.9987 632.5502 C 677.9987 628.1319 681.5804 624.5502 685.9987 624.5502 Z" fill="#0a55a8"/>
          <text transform="translate(682.9987 641.8181)" fill="white">
            <tspan font-family="Helvetica Neue" font-weight="bold" font-size="16" fill="white" x="16.06" y="16">Instance A</tspan>
          </text>
        </g>
        <g id="Graphic_36">
          <path d="M 685.9987 692.2751 L 792.9987 692.2751 C 797.417 692.2751 800.9987 695.8568 800.9987 700.2751 L 800.9987 738.2751 C 800.9987 742.6934 797.417 746.2751 792.9987 746.2751 L 685.9987 746.2751 C 681.5804 746.2751 677.9987 742.6934 677.9987 738.2751 L 677.9987 700.2751 C 677.9987 695.8568 681.5804 692.2751 685.9987 692.2751 Z" fill="#0a55a8"/>
          <text transform="translate(682.9987 709.543)" fill="white">
            <tspan font-family="Helvetica Neue" font-weight="bold" font-size="16" fill="white" x="9.508" y="16">Envoy Proxy</tspan>
          </text>
        </g>
      </g>
      <g id="Group_39">
        <g id="Graphic_42">
          <path d="M 684 613.88755 L 832.416 613.88755 C 836.8343 613.88755 840.416 617.4693 840.416 621.88755 L 840.416 780.6626 C 840.416 785.0809 836.8343 788.6626 832.416 788.6626 L 684 788.6626 C 679.5817 788.6626 676 785.0809 676 780.6626 L 676 621.88755 C 676 617.4693 679.5817 613.88755 684 613.88755 Z" fill="white"/>
          <path d="M 684 613.88755 L 832.416 613.88755 C 836.8343 613.88755 840.416 617.4693 840.416 621.88755 L 840.416 780.6626 C 840.416 785.0809 836.8343 788.6626 832.416 788.6626 L 684 788.6626 C 679.5817 788.6626 676 785.0809 676 780.6626 L 676 621.88755 C 676 617.4693 679.5817 613.88755 684 613.88755 Z" stroke="gray" stroke-linecap="round" stroke-linejoin="round" stroke-dasharray="4.0,4.0" stroke-width="1"/>
          <text transform="translate(681 764.1985)" fill="black">
            <tspan font-family="Helvetica Neue" font-weight="bold" font-size="16" fill="black" x="62.096" y="16">Pod</tspan>
          </text>
        </g>
        <g id="Graphic_41">
          <path d="M 699.9987 638.16264 L 806.9987 638.16264 C 811.417 638.16264 814.9987 641.74436 814.9987 646.16264 L 814.9987 684.1626 C 814.9987 688.5809 811.417 692.1626 806.9987 692.1626 L 699.9987 692.1626 C 695.5804 692.1626 691.9987 688.5809 691.9987 684.1626 L 691.9987 646.16264 C 691.9987 641.74436 695.5804 638.16264 699.9987 638.16264 Z" fill="#0a55a8"/>
          <text transform="translate(696.9987 655.4306)" fill="white">
            <tspan font-family="Helvetica Neue" font-weight="bold" font-size="16" fill="white" x="16.06" y="16">Instance A</tspan>
          </text>
        </g>
        <g id="Graphic_40">
          <path d="M 699.9987 705.88755 L 806.9987 705.88755 C 811.417 705.88755 814.9987 709.4693 814.9987 713.88755 L 814.9987 751.88755 C 814.9987 756.3058 811.417 759.88755 806.9987 759.88755 L 699.9987 759.88755 C 695.5804 759.88755 691.9987 756.3058 691.9987 751.88755 L 691.9987 713.88755 C 691.9987 709.4693 695.5804 705.88755 699.9987 705.88755 Z" fill="#0a55a8"/>
          <text transform="translate(696.9987 723.1555)" fill="white">
            <tspan font-family="Helvetica Neue" font-weight="bold" font-size="16" fill="white" x="9.508" y="16">Envoy Proxy</tspan>
          </text>
        </g>
      </g>
      <g id="Line_43">
        <path d="M 466.208 714.1339 C 498.3366 714.10984 540.42253 714.7154 585.98485 717.04545 C 621.5435 718.86394 653.20246 721.4251 679.1637 723.959" marker-end="url(#FilledArrow_Marker)" stroke="black" stroke-linecap="round" stroke-linejoin="round" stroke-width="2"/>
      </g>
      <g id="Line_44">
        <path d="M 466.208 713.1803 C 486.0603 711.7797 510.7968 709.46516 540.5303 705.6818 C 572.3198 701.6369 604.6362 696.57275 633.2893 691.6831" marker-end="url(#FilledArrow_Marker)" stroke="black" stroke-linecap="round" stroke-linejoin="round" stroke-width="2"/>
      </g>
    </g>
  </g>
</svg>
