<?xml version="1.0" encoding="UTF-8" standalone="no"?>
<!DOCTYPE svg PUBLIC "-//W3C//DTD SVG 1.1//EN" "http://www.w3.org/Graphics/SVG/1.1/DTD/svg11.dtd">
<svg xmlns="http://www.w3.org/2000/svg" xmlns:dc="http://purl.org/dc/elements/1.1/" xmlns:xl="http://www.w3.org/1999/xlink" version="1.1" viewBox="-69 198 457 366" width="457" height="366">
  <defs>
    <linearGradient x1="0" x2="1" id="Gradient" gradientUnits="userSpaceOnUse">
      <stop offset="0" stop-color="#4387fd"/>
      <stop offset="1" stop-color="#4683ea"/>
    </linearGradient>
    <linearGradient id="Obj_Gradient" xl:href="#Gradient" gradientTransform="translate(-3.811023 267.5381) scale(39.68504)"/>
    <marker orient="auto" overflow="visible" markerUnits="strokeWidth" id="FilledArrow_Marker" stroke-linejoin="miter" stroke-miterlimit="10" viewBox="-1 -3 7 6" markerWidth="7" markerHeight="6" color="black">
      <g>
        <path d="M 4.8 0 L 0 -1.8 L 0 1.8 Z" fill="currentColor" stroke="currentColor" stroke-width="1"/>
      </g>
    </marker>
  </defs>
  <g id="istio-resources" stroke-opacity="1" fill="none" stroke-dasharray="none" stroke="none" fill-opacity="1">
    <title>istio-resources</title>
    <rect fill="white" x="-69" y="198" width="457" height="366"/>
    <g id="istio-resources_Layer_1">
      <title>Layer 1</title>
      <g id="Graphic_16"/>
      <g id="Graphic_9">
        <path d="M -52 212 L 371.77953 212 L 371.77953 550.3478 L -52 550.3478 Z" stroke="gray" stroke-linecap="round" stroke-linejoin="round" stroke-dasharray="1.0,4.0" stroke-width="1"/>
        <text transform="translate(-47 525.8837)" fill="#a5a5a5">
          <tspan font-family="Helvetica Neue" font-weight="bold" font-size="16" fill="#a5a5a5" x="157.12177" y="16">Tier 1 cluster</tspan>
        </text>
      </g>
      <g id="Graphic_8">
        <path d="M -4.3149603 244.01066 L 319.8425 244.01066 C 324.2608 244.01066 327.8425 247.59238 327.8425 252.01066 L 327.8425 499.6327 C 327.8425 504.051 324.2608 507.6327 319.8425 507.6327 L -4.3149603 507.6327 C -8.733238 507.6327 -12.31496 504.051 -12.31496 499.6327 L -12.31496 252.01066 C -12.31496 247.59238 -8.733238 244.01066 -4.3149603 244.01066 Z" fill="#ccc"/>
        <text transform="translate(-7.31496 249.01066)" fill="black">
          <tspan font-family="Helvetica Neue" font-size="16" fill="black" x="74.230735" y="16">gke-jimmy-us-central1-1</tspan>
        </text>
      </g>
      <g id="Graphic_7">
        <path d="M 46.6904 298.1686 L 141 298.1686 C 145.41828 298.1686 149 301.75032 149 306.1686 L 149 333.5 C 149 337.91828 145.41828 341.5 141 341.5 L 46.6904 341.5 C 42.27212 341.5 38.6904 337.91828 38.6904 333.5 L 38.6904 306.1686 C 38.6904 301.75032 42.27212 298.1686 46.6904 298.1686 Z" fill="white"/>
        <path d="M 46.6904 298.1686 L 141 298.1686 C 145.41828 298.1686 149 301.75032 149 306.1686 L 149 333.5 C 149 337.91828 145.41828 341.5 141 341.5 L 46.6904 341.5 C 42.27212 341.5 38.6904 337.91828 38.6904 333.5 L 38.6904 306.1686 C 38.6904 301.75032 42.27212 298.1686 46.6904 298.1686 Z" stroke="gray" stroke-linecap="round" stroke-linejoin="round" stroke-width="1"/>
        <text transform="translate(43.6904 310.6103)" fill="black">
          <tspan font-family="Helvetica Neue" font-size="16" fill="black" x="18.6108" y="15">Gateway</tspan>
        </text>
      </g>
      <g id="Group_4">
        <g id="Graphic_6">
          <path d="M 4.8051933 283.41845 L -3.3334038 269.32085 C -3.9702296 268.21772 -3.9702296 266.8588 -3.3334038 265.75568 L 4.8051933 251.65808 C 5.442019 250.55495 6.618938 249.87534 7.8929 249.87534 L 24.170094 249.87534 C 25.443745 249.87534 26.620664 250.55495 27.2578 251.65808 L 35.396397 265.75568 C 36.033223 266.8588 36.033223 268.21772 35.396397 269.32085 L 27.2578 283.41845 C 26.620974 284.52158 25.444056 285.20088 24.170094 285.20088 L 7.8929 285.20088 C 6.619248 285.20088 5.442329 284.52127 4.8055034 283.41845" fill="url(#Obj_Gradient)"/>
        </g>
        <g id="Graphic_5">
          <path d="M 23.791843 262.57527 L 16.451293 258.337 C 16.192408 258.18756 15.873375 258.18756 15.61449 258.337 L 8.273941 262.57527 C 8.015056 262.7247 7.855695 263.00096 7.855695 263.29984 L 7.855695 271.77607 C 7.855695 272.07495 8.015056 272.3512 8.273941 272.50064 L 15.61449 276.7389 C 15.873375 276.88835 16.192408 276.88835 16.451293 276.7389 L 23.791843 272.50064 C 24.050728 272.3512 24.21009 272.07495 24.21009 271.77607 L 24.21009 263.29984 C 24.21009 263.00096 24.050728 262.7247 23.791843 262.57527 M 22.784827 270.965 L 20.223882 269.4864 L 20.223882 265.59136 L 16.441992 267.77405 L 16.441992 272.14254 L 19.814937 270.19517 L 22.375882 271.67376 L 16.032737 275.33597 L 9.689592 271.67376 L 12.250537 270.19517 L 15.623792 272.14254 L 15.623792 267.77405 L 11.841902 265.59136 L 11.841902 269.4864 L 9.280957 270.965 L 9.280957 263.64058 L 15.624102 259.97836 L 15.624102 262.93554 L 12.250847 264.8829 L 16.032737 267.0656 L 19.814627 264.8829 L 16.441682 262.93554 L 16.441682 259.97836 L 22.784827 263.64058 L 22.784827 270.965" fill="white"/>
        </g>
      </g>
      <g id="Graphic_3">
        <path d="M -.5454808 494.6524 L 32.608474 494.6524 L 11.892518 500.8661 Z M -.5454808 492.5776 L 11.892518 490.5029 L 11.892518 467.71216 Z M 13.956742 490.5029 L 32.608474 492.5776 L 13.956742 451.1352 Z" fill="#466bb0"/>
      </g>
      <g id="Graphic_2">
        <text transform="translate(125.66576 483.1686)" fill="black">
          <tspan font-family="Helvetica Neue" font-weight="bold" font-size="16" fill="black" x="1563194e-19" y="16">Cluster 0</tspan>
        </text>
      </g>
      <g id="Graphic_10">
        <path d="M 46.6904 379 L 141 379 C 145.41828 379 149 382.5817 149 387 L 149 414.3314 C 149 418.7497 145.41828 422.3314 141 422.3314 L 46.6904 422.3314 C 42.27212 422.3314 38.6904 418.7497 38.6904 414.3314 L 38.6904 387 C 38.6904 382.5817 42.27212 379 46.6904 379 Z" fill="white"/>
        <path d="M 46.6904 379 L 141 379 C 145.41828 379 149 382.5817 149 387 L 149 414.3314 C 149 418.7497 145.41828 422.3314 141 422.3314 L 46.6904 422.3314 C 42.27212 422.3314 38.6904 418.7497 38.6904 414.3314 L 38.6904 387 C 38.6904 382.5817 42.27212 379 46.6904 379 Z" stroke="gray" stroke-linecap="round" stroke-linejoin="round" stroke-width="1"/>
        <text transform="translate(43.6904 391.4417)" fill="black">
          <tspan font-family="Helvetica Neue" font-size="16" fill="black" x="1.4188004" y="15">VirtualService</tspan>
        </text>
      </g>
      <g id="Graphic_11">
        <path d="M 197.5 298.1686 L 306 298.1686 C 310.41828 298.1686 314 301.75032 314 306.1686 L 314 333.5 C 314 337.91828 310.41828 341.5 306 341.5 L 197.5 341.5 C 193.08172 341.5 189.5 337.91828 189.5 333.5 L 189.5 306.1686 C 189.5 301.75032 193.08172 298.1686 197.5 298.1686 Z" fill="white"/>
        <path d="M 197.5 298.1686 L 306 298.1686 C 310.41828 298.1686 314 301.75032 314 306.1686 L 314 333.5 C 314 337.91828 310.41828 341.5 306 341.5 L 197.5 341.5 C 193.08172 341.5 189.5 337.91828 189.5 333.5 L 189.5 306.1686 C 189.5 301.75032 193.08172 298.1686 197.5 298.1686 Z" stroke="gray" stroke-linecap="round" stroke-linejoin="round" stroke-width="1"/>
        <text transform="translate(194.5 310.6103)" fill="black">
          <tspan font-family="Helvetica Neue" font-size="16" fill="black" x=".946" y="15">DestinationRule</tspan>
        </text>
      </g>
      <g id="Graphic_12">
        <path d="M 197.5 379 L 306 379 C 310.41828 379 314 382.5817 314 387 L 314 414.3314 C 314 418.7497 310.41828 422.3314 306 422.3314 L 197.5 422.3314 C 193.08172 422.3314 189.5 418.7497 189.5 414.3314 L 189.5 387 C 189.5 382.5817 193.08172 379 197.5 379 Z" fill="white"/>
        <path d="M 197.5 379 L 306 379 C 310.41828 379 314 382.5817 314 387 L 314 414.3314 C 314 418.7497 310.41828 422.3314 306 422.3314 L 197.5 422.3314 C 193.08172 422.3314 189.5 418.7497 189.5 414.3314 L 189.5 387 C 189.5 382.5817 193.08172 379 197.5 379 Z" stroke="gray" stroke-linecap="round" stroke-linejoin="round" stroke-width="1"/>
        <text transform="translate(194.5 391.4417)" fill="black">
          <tspan font-family="Helvetica Neue" font-size="16" fill="black" x="12.218" y="15">ServiceEntry</tspan>
        </text>
      </g>
      <g id="Line_13">
        <line x1="93.8452" y1="341.5" x2="93.8452" y2="366.1" marker-end="url(#FilledArrow_Marker)" stroke="black" stroke-linecap="round" stroke-linejoin="round" stroke-width="2"/>
      </g>
      <g id="Line_14">
        <line x1="136.16932" y1="379" x2="197.94294" y2="347.3781" marker-end="url(#FilledArrow_Marker)" stroke="black" stroke-linecap="round" stroke-linejoin="round" stroke-width="2"/>
      </g>
      <g id="Line_15">
        <line x1="251.75" y1="341.5" x2="251.75" y2="366.1" marker-end="url(#FilledArrow_Marker)" stroke="black" stroke-linecap="round" stroke-linejoin="round" stroke-width="2"/>
      </g>
    </g>
  </g>
</svg>
