<svg xmlns="http://www.w3.org/2000/svg" xmlns:xl="http://www.w3.org/1999/xlink" width="616" height="323" version="1.1" viewBox="190 25 616 323"><defs><marker id="FilledArrow_Marker" stroke-linejoin="miter" stroke-miterlimit="10" color="#000" markerHeight="6" markerUnits="strokeWidth" markerWidth="7" orient="auto" overflow="visible" viewBox="-1 -3 7 6"><g><path fill="currentColor" stroke="currentColor" stroke-width="1" d="M 4.8 0 L 0 -1.8 L 0 1.8 Z"/></g></marker></defs><g id="server-side-load-balancing" fill="none" fill-opacity="1" stroke="none" stroke-dasharray="none" stroke-opacity="1"><title>server-side-load-balancing</title><rect width="616" height="323" x="190" y="25" fill="#fff"/><g id="server-side-load-balancing_Layer_1"><title>Layer 1</title><g id="Graphic_11"><path stroke="gray" stroke-dasharray="4 4" stroke-linecap="round" stroke-linejoin="round" stroke-width="1" d="M 431.6729 33.375 L 785.1729 33.375 C 789.5912 33.375 793.1729 36.95672 793.1729 41.375 L 793.1729 331.625 C 793.1729 336.04328 789.5912 339.625 785.1729 339.625 L 431.6729 339.625 C 427.2546 339.625 423.6729 336.04328 423.6729 331.625 L 423.6729 41.375 C 423.6729 36.95672 427.2546 33.375 431.6729 33.375 Z"/><text fill="#000" transform="translate(428.6729 315.1609)"><tspan x="151.446" y="16" fill="#000" font-family="Helvetica Neue" font-size="16" font-weight="bold">Service</tspan></text></g><g id="Graphic_2"><path fill="#0a55a8" d="M 210.5 159.5 L 317.5 159.5 C 321.91828 159.5 325.5 163.08172 325.5 167.5 L 325.5 205.5 C 325.5 209.91828 321.91828 213.5 317.5 213.5 L 210.5 213.5 C 206.08172 213.5 202.5 209.91828 202.5 205.5 L 202.5 167.5 C 202.5 163.08172 206.08172 159.5 210.5 159.5 Z"/><text fill="#fff" transform="translate(207.5 176.76794)"><tspan x="34.292" y="16" fill="#fff" font-family="Helvetica Neue" font-size="16" font-weight="bold">Client</tspan></text></g><g id="Graphic_3"><path fill="#0a55a8" d="M 629 248.5 L 736 248.5 C 740.4183 248.5 744 252.08172 744 256.5 L 744 294.5 C 744 298.91828 740.4183 302.5 736 302.5 L 629 302.5 C 624.5817 302.5 621 298.91828 621 294.5 L 621 256.5 C 621 252.08172 624.5817 248.5 629 248.5 Z"/><text fill="#fff" transform="translate(626 265.76794)"><tspan x="15.612" y="16" fill="#fff" font-family="Helvetica Neue" font-size="16" font-weight="bold">Instance C</tspan></text></g><g id="Group_8"><g id="Graphic_7"><path fill="#333" d="M 467.5 143.15748 L 546.18504 143.15748 C 548.3942 143.15748 550.18504 144.94834 550.18504 147.15748 L 550.18504 225.84252 C 550.18504 228.05166 548.3942 229.84252 546.18504 229.84252 L 467.5 229.84252 C 465.29086 229.84252 463.5 228.05166 463.5 225.84252 L 463.5 147.15748 C 463.5 144.94834 465.29086 143.15748 467.5 143.15748 Z"/></g><g id="Graphic_6"><path fill="#fff" d="M 500.4805 219.24118 C 495.2974 214.03798 494.5332 213.21188 494.44503 212.71672 C 494.1382 210.99328 495.58784 209.61005 497.3537 209.94132 C 497.83386 210.03143 498.4097 210.53224 501.0724 213.1757 L 504.223 216.3035 L 504.223 198.17371 L 504.223 180.04393 L 495.26684 188.9987 L 486.3107 197.95347 L 490.5995 198.02932 C 494.80056 198.10363 494.90025 198.1127 495.47537 198.4702 C 496.09345 198.85441 496.6271 199.7754 496.6271 200.45787 C 496.6271 201.14034 496.09345 202.06133 495.47537 202.44555 L 494.88826 202.81052 L 486.54013 202.81052 L 478.192 202.81052 L 478.192 194.35962 C 478.192 186.06099 478.19754 185.90116 478.50495 185.48963 C 479.0943 184.70044 479.587 184.44465 480.51785 184.44465 C 481.1661 184.44465 481.497 184.52846 481.85406 184.78318 C 482.77734 185.44176 482.8214 185.70055 482.8214 190.46266 L 482.8214 194.76516 L 493.5222 184.0652 L 504.223 173.36522 L 504.223 167.78137 L 504.223 162.1975 L 503.5779 161.919 C 502.32757 161.37921 500.9118 160.11381 500.16555 158.86904 C 499.1561 157.18532 498.91354 154.65398 499.5805 152.76425 C 501.08667 148.49693 506.0902 146.53919 510.0533 148.66657 C 511.06396 149.20909 512.60805 150.75974 513.0955 151.72176 C 514.9604 155.40187 513.5962 159.77194 509.99113 161.66634 L 508.9283 162.22485 L 508.9283 167.79502 L 508.9283 173.3652 L 519.8567 184.29286 L 530.7852 195.22053 L 530.7852 190.68806 C 530.7852 186.35275 530.7991 186.13073 531.10664 185.58364 C 531.746 184.44607 533.2717 184.02895 534.2881 184.71388 C 534.5698 184.9037 534.9561 185.29033 535.1466 185.57304 L 535.493 186.08706 L 535.4538 194.4488 L 535.4145 202.81052 L 527.59765 202.85486 C 523.29837 202.8793 519.48517 202.85707 519.12386 202.80588 C 518.6689 202.7412 518.2844 202.54755 517.8731 202.17598 C 516.55587 200.98593 516.8163 199.38879 518.529 198.15408 C 518.54967 198.13926 520.42815 198.08796 522.7035 198.04025 L 526.8405 197.95345 L 517.88437 188.99867 L 508.9282 180.0439 L 508.9282 198.1043 L 508.9282 216.16468 L 511.92594 213.17566 C 513.5747 211.5317 515.11595 210.11506 515.35097 210.02757 C 516.37345 209.6469 517.5268 210.01873 518.1491 210.9309 C 518.56937 211.54662 518.61734 212.79674 518.2424 213.3637 C 517.9746 213.76877 506.6302 225.19868 506.496 225.19868 C 506.45143 225.19868 503.7444 222.5178 500.4804 219.24116 Z"/></g></g><g id="Graphic_9"><path fill="#0a55a8" d="M 629 159.5 L 736 159.5 C 740.4183 159.5 744 163.08172 744 167.5 L 744 205.5 C 744 209.91828 740.4183 213.5 736 213.5 L 629 213.5 C 624.5817 213.5 621 209.91828 621 205.5 L 621 167.5 C 621 163.08172 624.5817 159.5 629 159.5 Z"/><text fill="#fff" transform="translate(626 176.76794)"><tspan x="15.908" y="16" fill="#fff" font-family="Helvetica Neue" font-size="16" font-weight="bold">Instance B</tspan></text></g><g id="Graphic_10"><path fill="#0a55a8" d="M 629 70.5 L 736 70.5 C 740.4183 70.5 744 74.08172 744 78.5 L 744 116.5 C 744 120.91828 740.4183 124.5 736 124.5 L 629 124.5 C 624.5817 124.5 621 120.91828 621 116.5 L 621 78.5 C 621 74.08172 624.5817 70.5 629 70.5 Z"/><text fill="#fff" transform="translate(626 87.76794)"><tspan x="16.06" y="16" fill="#fff" font-family="Helvetica Neue" font-size="16" font-weight="bold">Instance A</tspan></text></g><g id="Line_12"><line x1="325.5" x2="450.6" y1="186.5" y2="186.5" stroke="#000" stroke-linecap="round" stroke-linejoin="round" stroke-width="2" marker-end="url(#FilledArrow_Marker)"/></g><g id="Line_13"><line x1="550.185" x2="608.1" y1="186.5" y2="186.5" stroke="#000" stroke-linecap="round" stroke-linejoin="round" stroke-width="2" marker-end="url(#FilledArrow_Marker)"/></g><g id="Line_15"><line x1="550.185" x2="617.703" y1="164.54" y2="130.33" stroke="#000" stroke-linecap="round" stroke-linejoin="round" stroke-width="2" marker-end="url(#FilledArrow_Marker)"/></g><g id="Line_16"><line x1="550.185" x2="617.703" y1="208.46" y2="242.67" stroke="#000" stroke-linecap="round" stroke-linejoin="round" stroke-width="2" marker-end="url(#FilledArrow_Marker)"/></g><g id="Graphic_17"><text fill="#000" transform="translate(451.5865 234.84252)"><tspan x="0" y="16" fill="#000" font-family="Helvetica Neue" font-size="16" font-weight="bold">Load Balancer</tspan></text></g></g></g></svg>