<?xml version="1.0" encoding="UTF-8" standalone="no"?>
<!DOCTYPE svg PUBLIC "-//W3C//DTD SVG 1.1//EN" "http://www.w3.org/Graphics/SVG/1.1/DTD/svg11.dtd">
<svg xmlns="http://www.w3.org/2000/svg" version="1.1" xmlns:xl="http://www.w3.org/1999/xlink" xmlns:dc="http://purl.org/dc/elements/1.1/" viewBox="-4176 -1229 1382 1065" width="1382" height="1065">
  <defs>
    <marker orient="auto" overflow="visible" markerUnits="strokeWidth" id="FilledArrow_Marker" stroke-linejoin="miter" stroke-miterlimit="10" viewBox="-1 -3 7 6" markerWidth="7" markerHeight="6" color="black">
      <g>
        <path d="M 4.8 0 L 0 -1.8 L 0 1.8 Z" fill="currentColor" stroke="currentColor" stroke-width="1"/>
      </g>
    </marker>
    <marker orient="auto" overflow="visible" markerUnits="strokeWidth" id="FilledArrow_Marker_2" stroke-linejoin="miter" stroke-miterlimit="10" viewBox="-1 -3 7 6" markerWidth="7" markerHeight="6" color="#0a55a8">
      <g>
        <path d="M 4.8 0 L 0 -1.8 L 0 1.8 Z" fill="currentColor" stroke="currentColor" stroke-width="1"/>
      </g>
    </marker>
    <marker orient="auto" overflow="visible" markerUnits="strokeWidth" id="FilledArrow_Marker_3" stroke-linejoin="miter" stroke-miterlimit="10" viewBox="-1 -3 7 6" markerWidth="7" markerHeight="6" color="#75428c">
      <g>
        <path d="M 4.8 0 L 0 -1.8 L 0 1.8 Z" fill="currentColor" stroke="currentColor" stroke-width="1"/>
      </g>
    </marker>
  </defs>
  <g id="Control_Plane__" fill-opacity="1" stroke="none" fill="none" stroke-dasharray="none" stroke-opacity="1">
    <title>Control Plane示意图</title>
    <rect fill="white" x="-4176" y="-1229" width="1382" height="1065"/>
    <g id="Control_Plane___Layer_1">
      <title>Layer 1</title>
      <g id="Graphic_188">
        <rect x="-4175.433" y="-1228.8189" width="1380.4725" height="1064.4095" fill="white"/>
      </g>
      <g id="Graphic_177">
        <rect x="-4095.3544" y="-975.1181" width="955.2756" height="795.1181" fill="white"/>
        <path d="M -4095.3544 -975.1181 L -3140.0788 -975.1181 L -3140.0788 -180 L -4095.3544 -180 Z" stroke="gray" stroke-linecap="round" stroke-linejoin="round" stroke-dasharray="8.0,8.0" stroke-width="2"/>
      </g>
      <g id="Graphic_176">
        <rect x="-4122.638" y="-1006.2992" width="955.2756" height="795.1181" fill="white"/>
        <path d="M -4122.638 -1006.2992 L -3167.3622 -1006.2992 L -3167.3622 -211.1811 L -4122.638 -211.1811 Z" stroke="gray" stroke-linecap="round" stroke-linejoin="round" stroke-dasharray="8.0,8.0" stroke-width="2"/>
      </g>
      <g id="Graphic_114">
        <rect x="-4149.9213" y="-1037.4803" width="955.2756" height="795.1181" fill="white"/>
        <path d="M -4149.9213 -1037.4803 L -3194.6457 -1037.4803 L -3194.6457 -242.3622 L -4149.9213 -242.3622 Z" stroke="gray" stroke-linecap="round" stroke-linejoin="round" stroke-dasharray="8.0,8.0" stroke-width="2"/>
        <text transform="translate(-4144.9213 -1032.4803)" fill="black">
          <tspan font-family="Helvetica Neue" font-weight="bold" font-size="16" fill="black" x="787.9476" y="16">TSB Enabled Cluster</tspan>
          <tspan font-family="Helvetica Neue" font-weight="bold" font-size="16" fill="black" x="832.1076" y="35.46411">(Control Plane)</tspan>
        </text>
      </g>
      <g id="Graphic_113">
        <rect x="-3941.575" y="-666.1925" width="170.07874" height="56.69291" fill="#f15623"/>
        <text transform="translate(-3936.575 -657.3102)" fill="white">
          <tspan font-family="Helvetica Neue" font-weight="bold" font-size="16" fill="white" x="28.191368" y="16">Control Plane </tspan>
          <tspan font-family="Helvetica Neue" font-weight="bold" font-size="16" fill="white" x="45.81537" y="35.46411">Operator</tspan>
        </text>
      </g>
      <g id="Graphic_112">
        <rect x="-3941.575" y="-573.35786" width="170.07874" height="56.69291" fill="#f15623"/>
        <text transform="translate(-3936.575 -554.74346)" fill="white">
          <tspan font-family="Helvetica Neue" font-weight="bold" font-size="16" fill="white" x="26.991368" y="16">XCP Operator</tspan>
        </text>
      </g>
      <g id="Graphic_111">
        <rect x="-4128.6615" y="-1003.4646" width="170.07874" height="56.69291" fill="#f15623"/>
        <text transform="translate(-4123.6615 -984.8502)" fill="white">
          <tspan font-family="Helvetica Neue" font-weight="bold" font-size="16" fill="white" x="41.66337" y="16">XCP Edge</tspan>
        </text>
      </g>
      <g id="Graphic_108">
        <rect x="-3754.488" y="-1003.4646" width="170.07874" height="56.69291" fill="#333"/>
        <text transform="translate(-3749.488 -984.8502)" fill="white">
          <tspan font-family="Helvetica Neue" font-weight="bold" font-size="16" fill="white" x="56.50337" y="16">Zipkin</tspan>
        </text>
      </g>
      <g id="Group_79">
        <g id="Graphic_83"/>
        <g id="Group_80">
          <title>Skywalking</title>
          <g id="Graphic_82">
            <path d="M -3499.0518 -974.6456 L -3499.0518 -974.555 L -3501.8346 -960.6633 C -3502.2014 -958.8513 -3502.6907 -958.1265 -3504.556 -958.1265 L -3505.3817 -958.1265 C -3507.033 -958.1265 -3507.8892 -958.9117 -3508.287 -960.482 L -3510.7026 -969.7231 C -3510.733 -969.8439 -3510.733 -969.8741 -3510.7943 -969.8741 C -3510.8555 -969.8741 -3510.8555 -969.8439 -3510.886 -969.7231 L -3513.302 -960.482 C -3513.6993 -958.9117 -3514.5556 -958.1265 -3516.207 -958.1265 L -3517.0325 -958.1265 C -3518.898 -958.1265 -3519.387 -958.8513 -3519.754 -960.6633 L -3520.548 -964.8145 C -3520.595 -964.6186 -3520.5166 -964.8819 -3520.3128 -965.6044 L -3520.007 -966.6881 L -3518.5956 -971.6907 L -3517.9134 -971.6907 L -3516.482 -961.9316 C -3516.4515 -961.6598 -3516.3903 -961.5088 -3516.329 -961.5088 C -3516.268 -961.5088 -3516.1763 -961.6296 -3516.115 -961.9316 L -3513.577 -972.0786 C -3513.2713 -973.2564 -3512.9043 -973.3772 -3511.8645 -973.3772 L -3509.724 -973.3772 C -3508.6843 -973.3772 -3508.3174 -973.2564 -3508.0116 -972.0786 L -3505.4735 -961.9317 C -3505.4123 -961.6296 -3505.3206 -961.5089 -3505.2594 -961.5089 C -3505.1982 -961.5089 -3505.137 -961.6598 -3505.1065 -961.9317 L -3503.18 -974.706 C -3503.1494 -974.9778 -3502.9354 -975.2496 -3502.6296 -975.2496 L -3499.6634 -975.2496 C -3499.327 -975.2496 -3499.052 -974.9778 -3499.052 -974.6456 Z M -3484.1337 -958.8211 C -3484.1337 -958.4889 -3484.409 -958.2171 -3484.7453 -958.2171 L -3487.3446 -958.2171 C -3487.681 -958.2171 -3487.956 -958.4889 -3487.956 -958.8211 L -3487.956 -959.3043 C -3489.363 -958.4587 -3490.8 -957.9755 -3492.268 -957.9755 C -3494.806 -957.9755 -3497.558 -958.9419 -3497.558 -963.0188 L -3497.558 -963.1396 C -3497.558 -966.5824 -3495.4175 -968.3641 -3490.0967 -968.3641 L -3488.17 -968.3641 L -3488.17 -969.6929 C -3488.17 -971.6559 -3489.057 -972.1391 -3490.861 -972.1391 C -3492.8183 -972.1391 -3494.8365 -972.0183 -3495.8457 -971.8975 L -3495.9985 -971.8975 C -3496.3043 -971.8975 -3496.549 -971.9881 -3496.549 -972.4108 L -3496.549 -974.3436 C -3496.549 -974.6758 -3496.3655 -974.8872 -3495.968 -974.9778 C -3494.745 -975.2194 -3492.971 -975.461 -3490.861 -975.461 C -3486.519 -975.461 -3484.1337 -973.5584 -3484.1337 -969.6929 L -3484.1337 -958.8211 Z M -3488.17 -961.9921 L -3488.17 -965.7065 L -3490.0967 -965.7065 C -3492.8794 -965.7065 -3493.491 -964.8307 -3493.491 -963.1396 L -3493.491 -963.0187 C -3493.491 -961.539 -3492.8183 -961.1464 -3491.2893 -961.1464 C -3490.1884 -961.1464 -3489.057 -961.5088 -3488.17 -961.992 Z M -3476.157 -958.8513 C -3476.157 -958.5191 -3476.402 -958.2171 -3476.738 -958.2171 L -3479.582 -958.2171 C -3479.9185 -958.2171 -3480.1937 -958.5191 -3480.1937 -958.8513 L -3480.1937 -980.5949 C -3480.1937 -980.9271 -3479.9185 -981.1989 -3479.582 -981.1989 L -3476.738 -981.1989 C -3476.402 -981.1989 -3476.1572 -980.9271 -3476.1572 -980.5949 L -3476.1572 -958.8513 Z M -3458.334 -958.5795 C -3458.334 -958.3983 -3458.5175 -958.2171 -3458.762 -958.2171 L -3462.493 -958.2171 C -3462.8292 -958.2171 -3463.196 -958.5493 -3463.3797 -958.8211 L -3468.1806 -965.7066 L -3468.1806 -958.8513 C -3468.1806 -958.5191 -3468.456 -958.2171 -3468.7922 -958.2171 L -3471.6056 -958.2171 C -3471.942 -958.2171 -3472.217 -958.5191 -3472.217 -958.8513 L -3472.217 -980.5949 C -3472.217 -980.9271 -3471.942 -981.1989 -3471.6056 -981.1989 L -3468.7922 -981.1989 C -3468.456 -981.1989 -3468.1806 -980.9271 -3468.1806 -980.5949 L -3468.1806 -968.0018 L -3462.9516 -974.8872 C -3462.7375 -975.159 -3462.4317 -975.2496 -3462.2482 -975.2496 L -3458.8233 -975.2496 C -3458.5175 -975.2496 -3458.3646 -975.1288 -3458.3646 -974.9174 C -3458.3646 -974.8268 -3458.3952 -974.7362 -3458.487 -974.6154 L -3464.6335 -967.1562 L -3458.426 -958.8211 C -3458.3646 -958.7305 -3458.334 -958.6701 -3458.334 -958.5795 Z M -3451.3973 -978.1186 C -3451.3973 -977.7864 -3451.6724 -977.5146 -3452.009 -977.5146 L -3454.975 -977.5146 C -3455.3114 -977.5146 -3455.617 -977.7864 -3455.617 -978.1186 L -3455.617 -980.7761 C -3455.617 -981.1083 -3455.3114 -981.3801 -3454.975 -981.3801 L -3452.009 -981.3801 C -3451.6724 -981.3801 -3451.3972 -981.1083 -3451.3972 -980.7761 L -3451.3972 -978.1186 Z M -3451.489 -958.8513 C -3451.489 -958.5191 -3451.764 -958.2171 -3452.1005 -958.2171 L -3454.914 -958.2171 C -3455.2502 -958.2171 -3455.5254 -958.5191 -3455.5254 -958.8513 L -3455.5254 -974.6456 C -3455.5254 -974.9778 -3455.2502 -975.2496 -3454.914 -975.2496 L -3452.1005 -975.2496 C -3451.764 -975.2496 -3451.489 -974.9778 -3451.489 -974.6456 L -3451.489 -958.8513 Z M -3433.4823 -958.8513 C -3433.4823 -958.5191 -3433.7576 -958.2171 -3434.094 -958.2171 L -3436.9073 -958.2171 C -3437.2436 -958.2171 -3437.519 -958.5191 -3437.519 -958.8513 L -3437.519 -968.6963 C -3437.519 -971.3237 -3437.7635 -972.0786 -3440.118 -972.0786 C -3441.158 -972.0786 -3442.2892 -971.6558 -3443.5736 -970.9915 L -3443.5736 -958.8513 C -3443.5736 -958.5191 -3443.849 -958.217 -3444.185 -958.217 L -3446.9985 -958.217 C -3447.335 -958.217 -3447.61 -958.5191 -3447.61 -958.8513 L -3447.61 -974.6456 C -3447.61 -974.9778 -3447.335 -975.2496 -3446.9985 -975.2496 L -3444.338 -975.2496 C -3444.0017 -975.2496 -3443.7265 -974.9778 -3443.7265 -974.6456 L -3443.7265 -974.0114 C -3441.953 -975.1288 -3440.791 -975.461 -3438.7726 -975.461 C -3434.369 -975.461 -3433.4823 -972.5316 -3433.4823 -968.6963 L -3433.4823 -958.8513 Z M -3414.6807 -973.1658 C -3414.6807 -972.7128 -3414.803 -972.6525 -3415.17 -972.5014 L -3416.179 -972.1089 C -3415.6898 -971.4143 -3415.4146 -970.7499 -3415.4146 -969.6929 L -3415.4146 -969.4815 C -3415.4146 -965.7066 -3418.0444 -963.9852 -3422.662 -963.9852 C -3424.2826 -963.9852 -3425.3835 -964.257 -3425.995 -964.4986 C -3426.362 -964.257 -3426.515 -963.9852 -3426.515 -963.7134 C -3426.515 -963.1094 -3426.1786 -962.8678 -3425.4752 -962.7168 L -3421.867 -961.8712 C -3417.708 -960.9048 -3415.017 -960.2707 -3415.017 -957.0393 L -3415.017 -956.8279 C -3415.017 -953.7476 -3417.3105 -952.0866 -3422.509 -952.0866 C -3427.463 -952.0866 -3430.0927 -953.9288 -3430.0927 -957.0997 L -3430.0927 -957.3715 C -3430.0927 -958.6097 -3429.5117 -959.8176 -3428.533 -960.6934 C -3429.3894 -961.3276 -3429.9092 -962.3846 -3429.9092 -963.4718 L -3429.9092 -963.502 C -3429.9092 -964.4382 -3429.5117 -965.3744 -3428.686 -965.9482 C -3429.6035 -966.8843 -3429.94 -967.9715 -3429.94 -969.4815 L -3429.94 -969.6929 C -3429.94 -972.7128 -3427.952 -975.2496 -3422.662 -975.2496 L -3415.5063 -975.2496 C -3415.287 -975.2505 -3415.0765 -975.1649 -3414.9215 -975.0118 C -3414.7664 -974.8587 -3414.6798 -974.6508 -3414.6807 -974.4342 L -3414.6807 -973.1658 Z M -3419.39 -969.3909 L -3419.39 -969.6325 C -3419.39 -971.0821 -3420.032 -972.1994 -3422.662 -972.1994 C -3425.2612 -972.1994 -3425.9645 -971.0519 -3425.9645 -969.6325 L -3425.9645 -969.3909 C -3425.9645 -968.2735 -3425.506 -967.0051 -3422.662 -967.0051 C -3420.124 -967.0051 -3419.39 -967.8809 -3419.39 -969.3909 Z M -3419.0536 -956.8279 L -3419.0536 -957.0393 C -3419.0536 -957.7037 -3419.451 -958.0963 -3422.662 -958.8513 L -3425.3835 -959.4855 C -3425.8422 -958.8513 -3426.148 -958.4587 -3426.148 -957.3715 L -3426.148 -957.0997 C -3426.148 -955.8616 -3425.3835 -955.1066 -3422.509 -955.1066 C -3419.5734 -955.1066 -3419.0536 -955.7408 -3419.0536 -956.8279 Z M -3552.7235 -968.2364 C -3552.7235 -965.1862 -3554.65 -961.9247 -3560.766 -961.9247 C -3563.0593 -961.9247 -3564.7106 -962.1361 -3566.1784 -962.4683 C -3566.4842 -962.5286 -3566.7594 -962.74 -3566.7594 -963.0722 L -3566.7594 -965.2466 C -3566.7594 -965.5788 -3566.4842 -965.8204 -3566.1785 -965.8204 L -3566.1172 -965.8204 C -3564.894 -965.6694 -3561.836 -965.5184 -3560.7047 -965.5184 C -3557.983 -965.5184 -3557.1575 -966.4848 -3557.1575 -968.2364 C -3557.1575 -969.4142 -3557.7385 -970.0181 -3559.7568 -971.1959 L -3563.7932 -973.5817 C -3566.637 -975.2426 -3567.4016 -976.9942 -3567.4016 -979.1082 C -3567.4016 -982.4301 -3565.4445 -984.8461 -3559.7568 -984.8461 C -3557.7385 -984.8461 -3554.925 -984.5442 -3553.8855 -984.3025 C -3553.5797 -984.2421 -3553.335 -984.0307 -3553.335 -983.7288 L -3553.335 -981.494 C -3553.335 -981.192 -3553.549 -980.9504 -3553.855 -980.9504 L -3553.916 -980.9504 C -3555.9343 -981.1316 -3557.9526 -981.2524 -3559.94 -981.2524 C -3562.203 -981.2524 -3563.151 -980.4672 -3563.151 -979.1082 C -3563.151 -978.1117 -3562.631 -977.5077 -3560.6436 -976.4205 L -3556.974 -974.3971 C -3553.6103 -972.555 -3552.7235 -970.6222 -3552.7235 -968.2364 Z M -3535.665 -962.5286 C -3535.665 -962.3475 -3535.8483 -962.1663 -3536.093 -962.1663 L -3539.8236 -962.1663 C -3540.16 -962.1663 -3540.527 -962.4985 -3540.7105 -962.7703 L -3545.5114 -969.6557 L -3545.5114 -962.8005 C -3545.5114 -962.4683 -3545.7867 -962.1663 -3546.123 -962.1663 L -3548.9363 -962.1663 C -3549.2727 -962.1663 -3549.548 -962.4683 -3549.548 -962.8005 L -3549.548 -984.5441 C -3549.548 -984.8763 -3549.2727 -985.1481 -3548.9363 -985.1481 L -3546.123 -985.1481 C -3545.7866 -985.1481 -3545.5114 -984.8763 -3545.5114 -984.5441 L -3545.5114 -971.9509 L -3540.2823 -978.8363 C -3540.0683 -979.1081 -3539.7625 -979.1987 -3539.579 -979.1987 L -3536.154 -979.1987 C -3535.8483 -979.1987 -3535.6954 -979.0779 -3535.6954 -978.8665 C -3535.6954 -978.7759 -3535.726 -978.6854 -3535.8177 -978.5645 L -3541.964 -971.1053 L -3535.7565 -962.7702 C -3535.6954 -962.6797 -3535.665 -962.6193 -3535.665 -962.5286 Z M -3518.5756 -978.6854 C -3518.5756 -978.625 -3518.5756 -978.5646 -3518.606 -978.5042 L -3523.713 -960.8677 C -3524.661 -957.576 -3525.7923 -956.1264 -3529.951 -956.1264 C -3530.9603 -956.1264 -3532.4892 -956.3076 -3533.1926 -956.519 C -3533.529 -956.6096 -3533.835 -956.7304 -3533.835 -957.0324 L -3533.835 -958.9651 C -3533.835 -959.2973 -3533.5595 -959.5087 -3533.223 -959.5087 L -3533.162 -959.5087 C -3532.3058 -959.4785 -3530.5627 -959.3275 -3529.7066 -959.3275 C -3528.3916 -959.3275 -3527.719 -959.6899 -3527.2908 -961.2603 L -3527.046 -962.1663 L -3527.505 -962.1663 C -3528.3916 -962.1663 -3529.4925 -962.3777 -3530.1652 -964.6728 L -3534.171 -978.5042 C -3534.2017 -978.5948 -3534.2017 -978.6552 -3534.2017 -978.7156 C -3534.2017 -979.0176 -3534.0182 -979.1988 -3533.6207 -979.1988 L -3530.532 -979.1988 C -3530.257 -979.1988 -3530.0123 -978.927 -3529.951 -978.6552 L -3526.8626 -966.364 C -3526.7403 -965.8506 -3526.618 -965.6996 -3526.4345 -965.6996 L -3526.1593 -965.6996 L -3522.8567 -978.6854 C -3522.7956 -978.9572 -3522.551 -979.1988 -3522.245 -979.1988 L -3519.126 -979.1988 C -3518.8202 -979.1988 -3518.5756 -978.9572 -3518.5756 -978.6854 Z" fill="#0068af"/>
          </g>
          <g id="Graphic_81">
            <path d="M -3424.206 -985.777 C -3423.377 -985.9592 -3422.5194 -986.0733 -3421.6594 -986.1178 C -3413.0343 -986.5641 -3405.6682 -979.9772 -3405.2137 -971.4116 C -3405.058 -968.48 -3405.766 -965.5719 -3407.194 -963.0444 C -3401.1073 -965.1878 -3396.989 -971.0505 -3397.344 -977.7454 C -3397.7767 -985.8959 -3404.7998 -992.1761 -3413.0067 -991.7513 C -3417.494 -991.5191 -3421.594 -989.2696 -3424.206 -985.777 Z" fill="#d8d8d8"/>
          </g>
        </g>
      </g>
      <g id="Group_71">
        <g id="Graphic_77"/>
        <g id="Group_72">
          <g id="Group_74">
            <g id="Graphic_76">
              <path d="M -4043.855 -860.3112 C -4044.504 -860.2745 -4045.139 -860.113 -4045.722 -859.8361 L -4071 -848.2526 C -4072.32 -847.649 -4073.2796 -846.5007 -4073.6085 -845.1322 L -4079.796 -819.1346 C -4080.091 -817.9143 -4079.8526 -816.6352 -4079.1155 -815.5893 C -4079.0293 -815.4629 -4078.9386 -815.3409 -4078.8433 -815.2233 L -4061.3787 -794.3615 C -4060.4556 -793.272 -4059.0698 -792.6466 -4057.609 -792.6531 L -4029.5977 -792.6531 C -4028.1325 -792.651 -4026.7444 -793.30685 -4025.8235 -794.3811 L -4008.368 -815.2472 C -4007.4517 -816.3367 -4007.109 -817.7749 -4007.461 -819.1389 L -4013.689 -845.1584 C -4014.018 -846.5268 -4014.982 -847.6751 -4016.2974 -848.2787 L -4041.535 -859.834 C -4042.262 -860.1786 -4043.0676 -860.3426 -4043.878 -860.3112 Z" fill="#326ce5"/>
            </g>
            <g id="Graphic_75">
              <path d="M -4043.624 -851.4513 C -4044.495 -851.3925 -4045.155 -850.6756 -4045.1094 -849.8389 L -4045.1094 -849.4292 C -4045.0686 -848.9651 -4044.996 -848.5053 -4044.901 -848.0499 C -4044.7617 -847.1778 -4044.7115 -846.2948 -4044.751 -845.4133 C -4044.8373 -845.1235 -4045.0096 -844.862 -4045.2455 -844.6616 L -4045.2795 -844.0471 C -4046.198 -843.973 -4047.11 -843.8379 -4048.008 -843.6418 C -4051.787 -842.8225 -4055.2275 -840.9398 -4057.8835 -838.227 L -4058.428 -838.5974 C -4058.7273 -838.5102 -4059.0493 -838.5429 -4059.324 -838.6846 C -4060.06 -839.2081 -4060.7414 -839.7992 -4061.3583 -840.4496 C -4061.668 -840.8053 -4061.999 -841.1436 -4062.3495 -841.4628 L -4062.685 -841.7199 C -4062.9845 -841.9509 -4063.352 -842.0838 -4063.7353 -842.1012 C -4064.1993 -842.1249 -4064.647 -841.9337 -4064.9397 -841.587 C -4065.4523 -840.8963 -4065.2844 -839.9397 -4064.5677 -839.445 L -4064.2547 -839.2054 C -4063.852 -838.9478 -4063.434 -838.7128 -4063.0027 -838.5015 C -4062.2 -838.0723 -4061.442 -837.5689 -4060.739 -836.9762 C -4060.559 -836.7298 -4060.4547 -836.44 -4060.4374 -836.1395 L -4059.943 -835.7037 C -4062.6126 -831.8556 -4063.708 -827.1947 -4063.023 -822.6166 L -4063.658 -822.4423 C -4063.8237 -822.1895 -4064.044 -821.9738 -4064.307 -821.8147 C -4065.193 -821.5874 -4066.1 -821.4437 -4067.015 -821.3855 C -4067.5007 -821.376 -4067.9853 -821.3396 -4068.4666 -821.2765 L -4068.868 -821.1894 L -4068.9134 -821.1894 C -4069.4816 -821.1136 -4069.957 -820.737 -4070.1425 -820.2156 C -4070.328 -819.6941 -4070.192 -819.1168 -4069.791 -818.7227 C -4069.3864 -818.3307 -4068.786 -818.1915 -4068.24 -818.3632 L -4068.2103 -818.3632 L -4067.802 -818.4068 C -4067.3416 -818.5375 -4066.888 -818.6988 -4066.4457 -818.8818 C -4065.595 -819.2086 -4064.713 -819.4592 -4063.81 -819.6227 C -4063.497 -819.6052 -4063.1977 -819.5028 -4062.9437 -819.3285 L -4062.2633 -819.4374 C -4060.789 -815.0424 -4057.6907 -811.3185 -4053.5537 -808.9717 L -4053.8304 -808.41605 C -4053.7034 -808.1611 -4053.6557 -807.8778 -4053.6943 -807.5967 C -4054.0685 -806.7644 -4054.5267 -805.96685 -4055.062 -805.2173 C -4055.3556 -804.8454 -4055.6267 -804.4577 -4055.874 -804.0559 L -4056.0668 -803.6636 C -4056.352 -803.1883 -4056.3357 -802.59955 -4056.0247 -802.1394 C -4055.7137 -801.6793 -4055.1605 -801.4255 -4054.5925 -801.4825 C -4054.023 -801.544 -4053.538 -801.9079 -4053.338 -802.4238 L -4053.15 -802.7942 C -4052.9776 -803.23 -4052.8324 -803.6745 -4052.7145 -804.1234 C -4052.313 -805.0756 -4052.0953 -806.0976 -4051.5464 -806.7295 C -4051.367 -806.8915 -4051.141 -806.9978 -4050.8977 -807.0346 L -4050.5575 -807.6294 C -4046.073 -805.9734 -4041.1105 -805.9618 -4036.6176 -807.5967 L -4036.316 -807.0411 C -4036.0074 -806.9975 -4035.7307 -806.8341 -4035.5447 -806.5944 C -4035.1183 -805.8143 -4034.7736 -804.9972 -4034.5105 -804.1539 C -4034.3905 -803.7024 -4034.2436 -803.2579 -4034.0705 -802.82255 L -4033.882 -802.4521 C -4033.6803 -801.9383 -4033.1954 -801.5768 -4032.627 -801.5165 C -4032.059 -801.4563 -4031.5036 -801.7075 -4031.19 -802.1667 C -4030.8793 -802.6286 -4030.8653 -803.2191 -4031.1536 -803.69415 L -4031.351 -804.0864 C -4031.598 -804.48675 -4031.8693 -804.8731 -4032.163 -805.2434 C -4032.6846 -805.96685 -4033.1337 -806.7382 -4033.524 -807.5466 C -4033.5974 -807.8452 -4033.5417 -808.1597 -4033.3696 -808.4182 C -4033.4664 -808.6083 -4033.5505 -808.8041 -4033.6214 -809.0044 C -4029.4934 -811.3686 -4026.4087 -815.1056 -4024.9503 -819.5072 L -4024.306 -819.3982 C -4024.075 -819.6009 -4023.771 -819.7076 -4023.46 -819.6989 C -4022.5597 -819.5333 -4021.6774 -819.2631 -4020.8246 -818.9581 C -4020.3823 -818.762 -4019.9287 -818.5963 -4019.4682 -818.4569 C -4019.3594 -818.4286 -4019.2006 -818.4046 -4019.078 -818.3763 L -4019.0486 -818.3763 C -4018.5027 -818.2069 -4017.904 -818.3473 -4017.5008 -818.7393 C -4017.0975 -819.1314 -4016.9584 -819.7082 -4017.141 -820.2306 C -4017.328 -820.7526 -4017.8055 -821.1287 -4018.375 -821.2024 L -4018.815 -821.3027 C -4019.2963 -821.3658 -4019.781 -821.4021 -4020.2666 -821.4116 C -4021.183 -821.4683 -4022.09 -821.6121 -4022.975 -821.8409 C -4023.247 -821.9869 -4023.474 -822.2048 -4023.628 -822.4684 L -4024.2404 -822.6428 C -4023.5874 -827.2187 -4024.706 -831.8657 -4027.384 -835.7015 L -4026.8487 -836.1765 C -4026.8714 -836.4751 -4026.7694 -836.7714 -4026.5675 -837.0002 C -4025.871 -837.5755 -4025.116 -838.0832 -4024.322 -838.5168 C -4023.891 -838.7282 -4023.473 -838.9632 -4023.07 -839.2206 L -4022.739 -839.4777 C -4022.2413 -839.7744 -4021.9654 -840.3195 -4022.03 -840.8787 C -4022.0943 -841.438 -4022.4875 -841.9119 -4023.0405 -842.0969 C -4023.593 -842.2817 -4024.207 -842.1452 -4024.619 -841.7461 L -4024.955 -841.4889 C -4025.305 -841.1697 -4025.636 -840.8314 -4025.946 -840.4757 C -4026.545 -839.8177 -4027.207 -839.2184 -4027.926 -838.6824 C -4028.216 -838.5689 -4028.5336 -838.5357 -4028.8424 -838.5865 L -4029.4163 -838.1943 C -4032.7277 -841.5282 -4037.189 -843.5982 -4041.9703 -844.0122 C -4041.9703 -844.2301 -4042 -844.557 -4042.0044 -844.6594 C -4042.2607 -844.8294 -4042.44 -845.0887 -4042.499 -845.3828 C -4042.5303 -846.2628 -4042.4725 -847.1436 -4042.3264 -848.0129 C -4042.229 -848.4705 -4042.161 -848.9281 -4042.118 -849.3922 L -4042.118 -849.828 C -4042.0724 -850.6647 -4042.73 -851.3816 -4043.6034 -851.4404 Z M -4045.5154 -840.1946 L -4045.969 -832.5834 L -4046.003 -832.5834 C -4046.0258 -832.1127 -4046.314 -831.7118 -4046.756 -831.4851 C -4047.1984 -831.2585 -4047.7223 -831.3261 -4048.117 -831.6028 L -4054.615 -836.0262 C -4052.547 -837.9779 -4049.952 -839.3356 -4047.1235 -839.9462 C -4046.593 -840.0552 -4046.0575 -840.138 -4045.52 -840.1946 Z M -4041.732 -840.1946 C -4038.3187 -839.7871 -4035.141 -838.3141 -4032.6824 -836.0022 L -4039.1193 -831.6072 C -4039.516 -831.3021 -4040.0606 -831.2411 -4040.521 -831.4503 C -4040.9814 -831.6595 -4041.2763 -832.104 -4041.283 -832.5921 Z M -4056.974 -833.163 L -4051.0315 -828.0685 L -4051.0315 -828.0358 C -4050.662 -827.7264 -4050.501 -827.2448 -4050.6096 -826.785 C -4050.7185 -826.3253 -4051.086 -825.9614 -4051.5554 -825.8372 L -4051.5554 -825.8154 L -4059.181 -823.7083 C -4059.558 -827.0088 -4058.781 -830.3361 -4056.9717 -833.1652 Z M -4030.3167 -833.163 C -4028.5113 -830.3412 -4027.713 -827.0313 -4028.044 -823.7344 L -4035.681 -825.8481 L -4035.681 -825.8764 C -4036.157 -826.0006 -4036.52 -826.3645 -4036.6266 -826.8243 C -4036.733 -827.284 -4036.5745 -827.7612 -4036.205 -828.075 L -4030.3076 -833.1455 Z M -4044.842 -827.6719 L -4042.4104 -827.6719 L -4040.9247 -825.859 L -4041.4645 -823.5928 L -4043.6488 -822.5839 L -4045.8375 -823.5928 L -4046.3524 -825.859 Z M -4037.053 -821.4879 C -4036.951 -821.4988 -4036.826 -821.4988 -4036.747 -821.4879 L -4028.8832 -820.2132 C -4030.0173 -817.0754 -4032.256 -814.3952 -4035.1773 -812.6019 L -4038.2166 -819.6706 C -4038.386 -820.0554 -4038.3505 -820.4954 -4038.121 -820.8504 C -4037.891 -821.2053 -4037.4964 -821.4309 -4037.062 -821.4552 Z M -4050.2603 -821.4552 C -4049.816 -821.4487 -4049.4053 -821.2286 -4049.1626 -820.8712 C -4048.92 -820.5139 -4048.8813 -820.065 -4049.056 -819.6728 L -4049.056 -819.6444 L -4052.077 -812.6324 C -4054.969 -814.4127 -4057.1645 -817.06015 -4058.3326 -820.1652 L -4050.537 -821.4356 C -4050.451 -821.4443 -4050.3624 -821.4443 -4050.274 -821.4356 Z M -4043.6737 -818.4046 C -4043.1683 -818.4199 -4042.697 -818.1603 -4042.4557 -817.7335 L -4042.426 -817.7335 L -4038.584 -811.0723 L -4040.1195 -810.6365 C -4042.9456 -810.0154 -4045.8965 -810.1614 -4048.643 -811.0592 L -4044.7874 -817.7204 C -4044.5537 -818.1126 -4044.123 -818.3523 -4043.6533 -818.3632 Z" fill="white"/>
            </g>
          </g>
          <g id="Graphic_73">
            <text transform="translate(-4087.918 -787.6531)" fill="black">
              <tspan font-family="Helvetica Neue" font-weight="bold" font-size="16" fill="black" x="2842171e-19" y="16">Kubernetes</tspan>
              <tspan font-family="Helvetica Neue" font-weight="bold" font-size="16" fill="black" x="4.136" y="35.46411">API Server</tspan>
            </text>
          </g>
        </g>
      </g>
      <g id="Graphic_70">
        <rect x="-3754.488" y="-573.35786" width="170.07874" height="56.69291" fill="#333"/>
        <text transform="translate(-3749.488 -554.74346)" fill="white">
          <tspan font-family="Helvetica Neue" font-weight="bold" font-size="16" fill="white" x="19.023368" y="16">Ratelimit Server</tspan>
        </text>
      </g>
      <g id="Graphic_44">
        <rect x="-4149.9213" y="-1210.3937" width="668.9764" height="76.53543" fill="#f15623"/>
        <text transform="translate(-4144.9213 -1181.858)" fill="white">
          <tspan font-family="Helvetica Neue" font-weight="bold" font-size="16" fill="white" x="255.8722" y="16">Management Plane</tspan>
        </text>
      </g>
      <g id="Graphic_35">
        <rect x="-4128.6615" y="-1190.5512" width="170.07874" height="56.69291" fill="#333"/>
        <text transform="translate(-4123.6615 -1181.6688)" fill="white">
          <tspan font-family="Helvetica Neue" font-weight="bold" font-size="16" fill="white" x="34.527368" y="16">Front Envoy</tspan>
          <tspan font-family="Helvetica Neue" font-weight="bold" font-size="16" fill="white" x="16.623368" y="35.46411">(Envoy Gateway)</tspan>
        </text>
      </g>
      <g id="Line_116">
        <line x1="-4043.622" y1="-1003.4646" x2="-4043.622" y2="-1120.9583" marker-end="url(#FilledArrow_Marker)" stroke="black" stroke-linecap="round" stroke-linejoin="round" stroke-dasharray="8.0,8.0" stroke-width="2"/>
      </g>
      <g id="Graphic_117">
        <rect x="-3941.575" y="-480.5232" width="170.07874" height="56.69291" fill="#f15623"/>
        <text transform="translate(-3936.575 -471.64087)" fill="white">
          <tspan font-family="Helvetica Neue" font-weight="bold" font-size="16" fill="white" x="35.151368" y="16">Onboarding </tspan>
          <tspan font-family="Helvetica Neue" font-weight="bold" font-size="16" fill="white" x="45.81537" y="35.46411">Operator</tspan>
        </text>
      </g>
      <g id="Line_118">
        <line x1="-4043.622" y1="-946.7717" x2="-4043.622" y2="-878.8843" marker-end="url(#FilledArrow_Marker)" stroke="black" stroke-linecap="round" stroke-linejoin="round" stroke-dasharray="8.0,8.0" stroke-width="2"/>
      </g>
      <g id="Line_119">
        <path d="M -3856.5355 -946.7717 L -3856.5355 -909.1716 L -3998.225 -909.1716 L -3998.225 -933.8717" marker-end="url(#FilledArrow_Marker_2)" stroke="#0a55a8" stroke-linecap="round" stroke-linejoin="round" stroke-dasharray="8.0,8.0" stroke-width="2"/>
      </g>
      <g id="Line_121">
        <path d="M -3814.793 -946.7717 L -3814.793 -925.7396 L -3693.491 -925.7396 L -3693.491 -933.8717" marker-end="url(#FilledArrow_Marker_2)" stroke="#0a55a8" stroke-linecap="round" stroke-linejoin="round" stroke-dasharray="8.0,8.0" stroke-width="2"/>
      </g>
      <g id="Graphic_30">
        <rect x="-3941.575" y="-1003.4646" width="170.07874" height="56.69291" fill="#333"/>
        <text transform="translate(-3936.575 -984.8502)" fill="white">
          <tspan font-family="Helvetica Neue" font-weight="bold" font-size="16" fill="white" x="21.831368" y="16">OTEL Collector</tspan>
        </text>
      </g>
      <g id="Line_123">
        <path d="M -3839.6996 -946.7717 L -3839.6996 -908.1545 L -3680.043 -908.5837 L -3491.041 -908.5837 L -3491.041 -945.1867" marker-end="url(#FilledArrow_Marker_2)" stroke="#0a55a8" stroke-linecap="round" stroke-linejoin="round" stroke-dasharray="8.0,8.0" stroke-width="2"/>
      </g>
      <g id="Graphic_124">
        <rect x="-4078.094" y="-939.7298" width="68.944" height="46.895996" fill="white"/>
        <text transform="translate(-4073.094 -934.7298)" fill="black">
          <tspan font-family="Helvetica Neue" font-size="16" fill="black" x="16.128" y="15">443</tspan>
          <tspan font-family="Helvetica Neue" font-size="16" fill="black" x="0" y="33.448">(HTTPS)</tspan>
        </text>
      </g>
      <g id="Graphic_125">
        <rect x="-3754.488" y="-865.9843" width="170.07874" height="56.69291" fill="#333"/>
        <text transform="translate(-3710.4882 -847.3699)" fill="white">
          <tspan font-family="Helvetica Neue" font-weight="bold" font-size="16" fill="white" x="39.454735" y="16">Istiod</tspan>
        </text>
      </g>
      <g id="Graphic_126">
        <rect x="-3754.488" y="-780.9449" width="170.07874" height="56.69291" fill="#333"/>
        <text transform="translate(-3749.488 -762.3305)" fill="white">
          <tspan font-family="Helvetica Neue" font-weight="bold" font-size="16" fill="white" x="27.903368" y="16">cert-manager</tspan>
        </text>
      </g>
      <g id="Line_127">
        <path d="M -3991.89 -804.8546 L -3873.189 -804.8546 L -3873.189 -837.6378 L -3767.388 -837.6378" marker-end="url(#FilledArrow_Marker)" stroke="black" stroke-linecap="round" stroke-linejoin="round" stroke-dasharray="8.0,8.0" stroke-width="2"/>
      </g>
      <g id="Line_128">
        <path d="M -3991.89 -804.8546 L -3873.189 -804.8546 L -3873.189 -752.5984 L -3767.388 -752.5984" marker-end="url(#FilledArrow_Marker)" stroke="black" stroke-linecap="round" stroke-linejoin="round" stroke-dasharray="8.0,8.0" stroke-width="2"/>
      </g>
      <g id="Group_140">
        <g id="Graphic_139">
          <rect x="-3960" y="-387.68857" width="394.01575" height="109.83671" fill="white"/>
          <path d="M -3960 -387.68857 L -3565.9843 -387.68857 L -3565.9843 -277.85186 L -3960 -277.85186 Z" stroke="#f15623" stroke-linecap="round" stroke-linejoin="round" stroke-dasharray="8.0,8.0" stroke-width="2"/>
          <text transform="translate(-3955 -382.68857)" fill="black">
            <tspan font-family="Helvetica Neue" font-weight="bold" font-size="16" fill="black" x="0" y="16">Data Plane Namespace</tspan>
          </text>
        </g>
        <g id="Graphic_129">
          <rect x="-3940.1575" y="-353.77436" width="170.07874" height="56.69291" fill="#f15623"/>
          <rect x="-3940.1575" y="-353.77436" width="170.07874" height="56.69291" stroke="gray" stroke-linecap="round" stroke-linejoin="round" stroke-width="1"/>
          <text transform="translate(-3935.1575 -335.15996)" fill="white">
            <tspan font-family="Helvetica Neue" font-weight="bold" font-size="16" fill="white" x="2.1113677" y="16">Data Plane Operator</tspan>
          </text>
        </g>
        <g id="Graphic_130">
          <rect x="-3753.071" y="-353.77436" width="170.07874" height="56.69291" fill="#333"/>
          <rect x="-3753.071" y="-353.77436" width="170.07874" height="56.69291" stroke="gray" stroke-linecap="round" stroke-linejoin="round" stroke-width="1"/>
          <text transform="translate(-3748.071 -344.892)" fill="white">
            <tspan font-family="Helvetica Neue" font-weight="bold" font-size="16" fill="white" x="27.167368" y="16">Istio Operator</tspan>
            <tspan font-family="Helvetica Neue" font-weight="bold" font-size="16" fill="white" x="20.935368" y="35.46411">(for Data Plane)</tspan>
          </text>
        </g>
      </g>
      <g id="Graphic_131">
        <rect x="-3754.488" y="-665.1295" width="170.07874" height="56.69291" fill="#333"/>
        <text transform="translate(-3749.488 -646.5151)" fill="white">
          <tspan font-family="Helvetica Neue" font-weight="bold" font-size="16" fill="white" x="54.334735" y="16">Istio Operator</tspan>
        </text>
      </g>
      <g id="Line_132">
        <path d="M -4043.622 -743.7249 L -4043.622 -637.3075 L -4026.792 -637.3075 L -4026.792 -637.84605 L -3954.475 -637.84605" marker-end="url(#FilledArrow_Marker)" stroke="black" stroke-linecap="round" stroke-linejoin="round" stroke-dasharray="8.0,8.0" stroke-width="2"/>
      </g>
      <g id="Line_135">
        <path d="M -4043.622 -643.4646 L -4043.622 -632.4646 L -4043.74 -558.09776 L -4043.74 -545.0114 L -3954.475 -545.0114" marker-end="url(#FilledArrow_Marker)" stroke="black" stroke-linecap="round" stroke-linejoin="round" stroke-dasharray="8.0,8.0" stroke-width="2"/>
      </g>
      <g id="Line_136">
        <path d="M -4043.74 -545.6693 L -4043.74 -534.6693 L -4044.1026 -452.6378 L -3960.475 -452.17676 L -3954.475 -452.17676" marker-end="url(#FilledArrow_Marker)" stroke="black" stroke-linecap="round" stroke-linejoin="round" stroke-dasharray="8.0,8.0" stroke-width="2"/>
      </g>
      <g id="Line_141">
        <path d="M -4044.0923 -454.9627 L -4044.0923 -326.10175 L -4006.531 -326.10175 L -4006.531 -325.4279 L -3953.0575 -325.4279" marker-end="url(#FilledArrow_Marker)" stroke="black" stroke-linecap="round" stroke-linejoin="round" stroke-dasharray="8.0,8.0" stroke-width="2"/>
      </g>
      <g id="Line_142">
        <path d="M -4044.0923 -330.23622 L -4044.0923 -259.89583 L -3668.75 -259.89583 L -3668.75 -284.20147" marker-end="url(#FilledArrow_Marker)" stroke="black" stroke-linecap="round" stroke-linejoin="round" stroke-dasharray="8.0,8.0" stroke-width="2"/>
      </g>
      <g id="Line_144">
        <path d="M -3873.189 -755.4331 L -3873.189 -694.6602 L -3669.449 -694.6602 L -3669.449 -678.0295" marker-end="url(#FilledArrow_Marker)" stroke="black" stroke-linecap="round" stroke-linejoin="round" stroke-dasharray="8.0,8.0" stroke-width="2"/>
      </g>
      <g id="Graphic_145">
        <rect x="-4092.934" y="-704.8713" width="98.624" height="29.46411" fill="white"/>
        <text transform="translate(-4087.934 -699.8713)" fill="black">
          <tspan font-family="Helvetica Neue" font-weight="bold" font-size="16" fill="black" x="0" y="16">443(HTTPS)</tspan>
        </text>
      </g>
      <g id="Line_149">
        <path d="M -3856.5355 -1003.4646 L -3856.5355 -1094.4079 L -4009.15 -1094.4079 L -4009.15 -1120.9583" marker-end="url(#FilledArrow_Marker_3)" stroke="#75428c" stroke-linecap="round" stroke-linejoin="round" stroke-dasharray="8.0,8.0" stroke-width="2"/>
      </g>
      <g id="Line_150">
        <path d="M -3669.449 -1003.4646 L -3669.449 -1094.4079 L -3865.1417 -1094.4079" stroke="#75428c" stroke-linecap="round" stroke-linejoin="round" stroke-dasharray="8.0,8.0" stroke-width="2"/>
      </g>
      <g id="Line_151">
        <path d="M -3482.3622 -998.1496 L -3482.3622 -1094.0776 L -3669.449 -1094.0776" stroke="#75428c" stroke-linecap="round" stroke-linejoin="round" stroke-dasharray="8.0,8.0" stroke-width="2"/>
      </g>
      <g id="Graphic_152">
        <rect x="-4109.502" y="-1092.6469" width="131.76" height="46.895996" fill="white"/>
        <text transform="translate(-4104.502 -1087.6469)" fill="black">
          <tspan font-family="Helvetica Neue" font-size="16" fill="black" x="43.088" y="15">9443</tspan>
          <tspan font-family="Helvetica Neue" font-size="16" fill="black" x="0" y="33.448">(gRPC/TLS/JWT)</tspan>
        </text>
      </g>
      <g id="Graphic_153">
        <rect x="-3992.5645" y="-1117.8559" width="107.776" height="46.895996" fill="white"/>
        <text transform="translate(-3987.5645 -1112.8559)" fill="black">
          <tspan font-family="Helvetica Neue" font-size="16" fill="black" x="31.096" y="15">8443</tspan>
          <tspan font-family="Helvetica Neue" font-size="16" fill="black" x="831335e-18" y="33.448">(gRPC/mTLS)</tspan>
        </text>
      </g>
      <g id="Group_174">
        <g id="Graphic_160">
          <rect x="-3442.677" y="-859.2272" width="221.10236" height="206.49717" fill="#e3e3e3"/>
          <rect x="-3442.677" y="-859.2272" width="221.10236" height="206.49717" stroke="gray" stroke-linecap="round" stroke-linejoin="round" stroke-width="1"/>
        </g>
        <g id="Graphic_159">
          <rect x="-3459.685" y="-873.2357" width="221.10236" height="206.49717" fill="#e3e3e3"/>
          <rect x="-3459.685" y="-873.2357" width="221.10236" height="206.49717" stroke="gray" stroke-linecap="round" stroke-linejoin="round" stroke-width="1"/>
        </g>
        <g id="Group_173">
          <g id="Graphic_158">
            <rect x="-3476.693" y="-887.2441" width="221.10236" height="206.49717" fill="#e3e3e3"/>
            <rect x="-3476.693" y="-887.2441" width="221.10236" height="206.49717" stroke="gray" stroke-linecap="round" stroke-linejoin="round" stroke-width="1"/>
            <text transform="translate(-3471.693 -882.2441)" fill="black">
              <tspan font-family="Helvetica Neue" font-weight="bold" font-size="16" fill="black" x="14.927186" y="16">Application Namespace</tspan>
            </text>
          </g>
          <g id="Group_171">
            <g id="Graphic_78">
              <rect x="-3451.181" y="-751.7514" width="170.07874" height="56.69291" fill="#333"/>
              <rect x="-3451.181" y="-751.7514" width="170.07874" height="56.69291" stroke="gray" stroke-linecap="round" stroke-linejoin="round" stroke-width="1"/>
              <text transform="translate(-3446.181 -752.6011)" fill="white">
                <tspan font-family="Helvetica Neue" font-weight="bold" font-size="16" fill="white" x="39.73537" y="16">Services &amp;</tspan>
                <tspan font-family="Helvetica Neue" font-weight="bold" font-size="16" fill="white" x="11.023368" y="35.46411">WorkloadEntry for </tspan>
                <tspan font-family="Helvetica Neue" font-weight="bold" font-size="16" fill="white" x="25.103368" y="54.92822">VM Workloads</tspan>
              </text>
            </g>
            <g id="Graphic_155">
              <rect x="-3451.181" y="-844.5861" width="170.07874" height="56.69291" fill="#333"/>
              <rect x="-3451.181" y="-844.5861" width="170.07874" height="56.69291" stroke="gray" stroke-linecap="round" stroke-linejoin="round" stroke-width="1"/>
              <text transform="translate(-3446.181 -835.7037)" fill="white">
                <tspan font-family="Helvetica Neue" font-weight="bold" font-size="16" fill="white" x="14.711368" y="16">Sidecar/Gateway</tspan>
                <tspan font-family="Helvetica Neue" font-weight="bold" font-size="16" fill="white" x="33.823368" y="35.46411">(Data Plane)</tspan>
              </text>
            </g>
          </g>
        </g>
      </g>
      <g id="Line_156">
        <path d="M -3991.89 -804.8546 L -3927.7174 -804.8546 L -3927.7174 -877.1739 L -3506.3063 -877.1739 L -3506.3063 -816.2396 L -3464.081 -816.2396" marker-end="url(#FilledArrow_Marker)" stroke="black" stroke-linecap="round" stroke-linejoin="round" stroke-dasharray="8.0,8.0" stroke-width="2"/>
      </g>
      <g id="Line_157">
        <path d="M -3366.1418 -787.8932 L -3366.1418 -767.5676 L -3521.6216 -767.5676 L -3521.6216 -545.0114 L -3571.5095 -545.0114" marker-end="url(#FilledArrow_Marker)" stroke="black" stroke-linecap="round" stroke-linejoin="round" stroke-dasharray="8.0,8.0" stroke-width="2"/>
      </g>
      <g id="Graphic_162">
        <rect x="-3451.181" y="-573.35786" width="170.07874" height="56.69291" fill="#f15623"/>
        <text transform="translate(-3446.181 -564.4755)" fill="white">
          <tspan font-family="Helvetica Neue" font-weight="bold" font-size="16" fill="white" x="67.74337" y="16">VM</tspan>
          <tspan font-family="Helvetica Neue" font-weight="bold" font-size="16" fill="white" x="46.71137" y="35.46411">Gateway</tspan>
        </text>
      </g>
      <g id="Graphic_163">
        <rect x="-3513.5433" y="-471.9685" width="170.07874" height="56.69291" fill="#f15623"/>
        <text transform="translate(-3508.5433 -463.08616)" fill="white">
          <tspan font-family="Helvetica Neue" font-weight="bold" font-size="16" fill="white" x="35.151368" y="16">Onboarding</tspan>
          <tspan font-family="Helvetica Neue" font-weight="bold" font-size="16" fill="white" x="58.71137" y="35.46411">Plane</tspan>
        </text>
      </g>
      <g id="Graphic_164">
        <rect x="-3513.5433" y="-392.59843" width="170.07874" height="56.69291" fill="#f15623"/>
        <text transform="translate(-3508.5433 -383.7161)" fill="white">
          <tspan font-family="Helvetica Neue" font-weight="bold" font-size="16" fill="white" x="35.151368" y="16">Onboarding</tspan>
          <tspan font-family="Helvetica Neue" font-weight="bold" font-size="16" fill="white" x="38.567368" y="35.46411">Repository</tspan>
        </text>
      </g>
      <g id="Line_165">
        <path d="M -3300.9615 -516.66495 L -3300.9615 -443.62205 L -3330.5646 -443.62205" marker-end="url(#FilledArrow_Marker)" stroke="black" stroke-linecap="round" stroke-linejoin="round" stroke-dasharray="8.0,8.0" stroke-width="2"/>
      </g>
      <g id="Line_166">
        <path d="M -3300.9615 -443.62205 L -3300.9615 -363.90663 L -3320.8092 -363.90663 L -3324.5646 -364.25197 L -3330.5646 -364.25197" marker-end="url(#FilledArrow_Marker)" stroke="black" stroke-linecap="round" stroke-linejoin="round" stroke-dasharray="8.0,8.0" stroke-width="2"/>
      </g>
      <g id="Line_167">
        <path d="M -3366.1418 -573.35786 L -3366.1418 -642.5926 L -3545.8333 -642.5926 L -3545.8333 -939.1866" marker-end="url(#FilledArrow_Marker)" stroke="black" stroke-linecap="round" stroke-linejoin="round" stroke-dasharray="8.0,8.0" stroke-width="2"/>
      </g>
      <g id="Line_168">
        <path d="M -3545.8333 -888.4375 L -3669.701 -888.4375 L -3669.701 -913.1098 L -3669.449 -927.8717 L -3669.449 -933.8717" marker-end="url(#FilledArrow_Marker)" stroke="black" stroke-linecap="round" stroke-linejoin="round" stroke-dasharray="8.0,8.0" stroke-width="2"/>
      </g>
      <g id="Graphic_154">
        <rect x="-3654.6903" y="-922.8077" width="94.16" height="28.447998" fill="white"/>
        <text transform="translate(-3649.6903 -917.8077)" fill="black">
          <tspan font-family="Helvetica Neue" font-size="16" fill="black" x="0" y="15">9411(HTTP)</tspan>
        </text>
      </g>
      <g id="Graphic_175">
        <rect x="-3534.7782" y="-939.7298" width="104.832" height="28.447998" fill="white"/>
        <text transform="translate(-3529.7782 -934.7298)" fill="black">
          <tspan font-family="Helvetica Neue" font-size="16" fill="black" x="0" y="15">11800(gRPC)</tspan>
        </text>
      </g>
      <g id="Graphic_185">
        <rect x="-3038.7402" y="-587.1012" width="221.10236" height="206.49717" fill="#e3e3e3"/>
        <rect x="-3038.7402" y="-587.1012" width="221.10236" height="206.49717" stroke="gray" stroke-linecap="round" stroke-linejoin="round" stroke-width="1"/>
      </g>
      <g id="Graphic_184">
        <rect x="-3055.748" y="-601.1097" width="221.10236" height="206.49717" fill="#e3e3e3"/>
        <rect x="-3055.748" y="-601.1097" width="221.10236" height="206.49717" stroke="gray" stroke-linecap="round" stroke-linejoin="round" stroke-width="1"/>
      </g>
      <g id="Graphic_183">
        <rect x="-3072.756" y="-615.1181" width="221.10236" height="206.49717" fill="#e3e3e3"/>
        <rect x="-3072.756" y="-615.1181" width="221.10236" height="206.49717" stroke="gray" stroke-linecap="round" stroke-linejoin="round" stroke-width="1"/>
        <text transform="translate(-3067.756 -610.1181)" fill="black">
          <tspan font-family="Helvetica Neue" font-weight="bold" font-size="16" fill="black" x="0" y="16">VM</tspan>
        </text>
      </g>
      <g id="Graphic_181">
        <rect x="-3047.244" y="-572.4601" width="170.07874" height="56.69291" fill="#333"/>
        <text transform="translate(-3042.244 -563.57774)" fill="white">
          <tspan font-family="Helvetica Neue" font-weight="bold" font-size="16" fill="white" x="10.415368" y="16">Sidecar/Gateways</tspan>
          <tspan font-family="Helvetica Neue" font-weight="bold" font-size="16" fill="white" x="33.823368" y="35.46411">(Data Plane)</tspan>
        </text>
      </g>
      <g id="Line_186">
        <path d="M -3047.244 -544.1136 L -3058.244 -544.1136 L -3164.1733 -544.5625 L -3262.2024 -545.0114 L -3268.2024 -545.0114" marker-end="url(#FilledArrow_Marker)" stroke="black" stroke-linecap="round" stroke-linejoin="round" stroke-dasharray="8.0,8.0" stroke-width="2"/>
      </g>
      <g id="Line_187">
        <path d="M -3281.1024 -723.405 L -3270.1024 -723.405 L -3194.6457 -723.2759 L -2962.2048 -723.2759 L -2962.2048 -585.3601" marker-end="url(#FilledArrow_Marker)" stroke="black" stroke-linecap="round" stroke-linejoin="round" stroke-dasharray="8.0,8.0" stroke-width="2"/>
      </g>
      <g id="Group_190">
        <title>Page-1</title>
        <g id="Group_191">
          <title>istio</title>
          <g id="Graphic_192">
            <title>Shape</title>
            <path d="M -3734.6457 -820.3617 L -3704.882 -820.3617 L -3723.4796 -814.6063 Z M -3734.6457 -822.2835 L -3723.4796 -824.2052 L -3723.4796 -845.315 Z M -3721.6264 -824.2052 L -3704.882 -822.2835 L -3721.6264 -860.6693 Z" fill="white"/>
          </g>
        </g>
      </g>
      <g id="Group_193">
        <title>Page-1</title>
        <g id="Group_194">
          <title>istio</title>
          <g id="Graphic_195">
            <title>Shape</title>
            <path d="M -3734.6457 -620.57 L -3704.882 -620.57 L -3723.4796 -614.81456 Z M -3734.6457 -622.4917 L -3723.4796 -624.41345 L -3723.4796 -645.5232 Z M -3721.6264 -624.41345 L -3704.882 -622.4917 L -3721.6264 -660.87755 Z" fill="white"/>
          </g>
        </g>
      </g>
    </g>
  </g>
</svg>
