<svg xmlns="http://www.w3.org/2000/svg" xmlns:xl="http://www.w3.org/1999/xlink" width="1044" height="717" version="1.1" viewBox="-867 -60 1044 717"><defs><marker id="FilledArrow_Marker" stroke-linejoin="miter" stroke-miterlimit="10" color="#0a55a8" markerHeight="6" markerUnits="strokeWidth" markerWidth="7" orient="auto" overflow="visible" viewBox="-1 -3 7 6"><g><path fill="currentColor" stroke="currentColor" stroke-width="1" d="M 4.8 0 L 0 -1.8 L 0 1.8 Z"/></g></marker><marker id="FilledArrow_Marker_2" stroke-linejoin="miter" stroke-miterlimit="10" color="#000" markerHeight="6" markerUnits="strokeWidth" markerWidth="7" orient="auto" overflow="visible" viewBox="-1 -3 7 6"><g><path fill="currentColor" stroke="currentColor" stroke-width="1" d="M 4.8 0 L 0 -1.8 L 0 1.8 Z"/></g></marker></defs><g id="TSB_____" fill="none" fill-opacity="1" stroke="none" stroke-dasharray="none" stroke-opacity="1"><title>TSB 及应用组件</title><rect width="1044" height="717" x="-867" y="-60" fill="#fff"/><g id="TSB______Layer_1"><title>Layer 1</title><g id="Graphic_302"><rect width="1042" height="700" x="-866" y="-44" fill="#fff"/><rect width="1042" height="700" x="-866" y="-44" stroke="#f15623" stroke-linecap="round" stroke-linejoin="round" stroke-width="1"/></g><g id="Graphic_301"><rect width="1042" height="362" x="-866" y="-59" fill="#f15623"/><rect width="1042" height="362" x="-866" y="-59" stroke="#f05a26" stroke-linecap="round" stroke-linejoin="round" stroke-width="1"/><text fill="#fff" transform="translate(-861 -54)"><tspan x="0" y="18" fill="#fff" font-family="Helvetica Neue" font-size="18" font-weight="bold">Management Plane</tspan></text></g><g id="Graphic_300"><rect width="286.5" height="271" x="-488.25" y="355.5" fill="#fff"/><rect width="286.5" height="271" x="-488.25" y="355.5" stroke="gray" stroke-linecap="round" stroke-linejoin="round" stroke-width="1"/><text fill="#000" transform="translate(-483.25 602.0359)"><tspan x="48.778" y="16" fill="#000" font-family="Helvetica Neue" font-size="16" font-weight="bold">Kubernetes on Premise</tspan></text></g><g id="Graphic_299"><rect width="966" height="190.5" x="-828" y="93.5" fill="#f15623"/><rect width="966" height="190.5" x="-828" y="93.5" stroke="#fff" stroke-linecap="round" stroke-linejoin="round" stroke-width="1"/><text fill="#fff" transform="translate(-823 98.5)"><tspan x="0" y="16" fill="#fff" font-family="Helvetica Neue" font-size="16" font-weight="bold">Global Control Plane</tspan></text></g><g id="Graphic_298"><rect width="146" height="64" x="-828" y="-11" fill="#fff"/><text fill="#000" transform="translate(-823 1.5358887)"><tspan x="49.776" y="16" fill="#000" font-family="Helvetica Neue" font-size="16">Multi</tspan> <tspan x="37.464" y="35.464" fill="#000" font-family="Helvetica Neue" font-size="16">Tenancy</tspan></text></g><g id="Graphic_297"><rect width="146" height="64" x="-664" y="-11" fill="#fff"/><text fill="#000" transform="translate(-659 1.5358887)"><tspan x="40.576" y="16" fill="#000" font-family="Helvetica Neue" font-size="16">Service</tspan> <tspan x="33.616" y="35.464" fill="#000" font-family="Helvetica Neue" font-size="16">Inventory</tspan></text></g><g id="Graphic_296"><rect width="146" height="64" x="-500" y="-11" fill="#fff"/><text fill="#000" transform="translate(-495 11.267944)"><tspan x="19.528" y="16" fill="#000" font-family="Helvetica Neue" font-size="16">Observability</tspan></text></g><g id="Graphic_295"><rect width="146" height="64" x="-336" y="-11" fill="#fff"/><text fill="#000" transform="translate(-331 1.5358887)"><tspan x="21.448" y="16" fill="#000" font-family="Helvetica Neue" font-size="16">Role/Access</tspan> <tspan x="19.544" y="35.464" fill="#000" font-family="Helvetica Neue" font-size="16">Management</tspan></text></g><g id="Graphic_294"><rect width="146" height="64" x="-172" y="-11" fill="#fff"/><text fill="#000" transform="translate(-167 11.267944)"><tspan x="48.592" y="16" fill="#000" font-family="Helvetica Neue" font-size="16">Audit</tspan></text></g><g id="Graphic_293"><rect width="146" height="64" x="-8" y="-11" fill="#fff"/><text fill="#000" transform="translate(-3 1.5358887)"><tspan x="17.912" y="16" fill="#000" font-family="Helvetica Neue" font-size="16">Configuration</tspan> <tspan x="19.544" y="35.464" fill="#000" font-family="Helvetica Neue" font-size="16">Management</tspan></text></g><g id="Graphic_291"><rect width="146" height="64" x="-787.5" y="137" fill="#fff"/><text fill="#000" transform="translate(-782.5 149.53589)"><tspan x="40.576" y="16" fill="#000" font-family="Helvetica Neue" font-size="16">Service</tspan> <tspan x="31.384" y="35.464" fill="#000" font-family="Helvetica Neue" font-size="16">Discovery</tspan></text></g><g id="Graphic_290"><rect width="146" height="64" x="-602.75" y="137" fill="#fff"/><text fill="#000" transform="translate(-597.75 159.26794)"><tspan x="32.28" y="16" fill="#000" font-family="Helvetica Neue" font-size="16">Telemetry</tspan></text></g><g id="Graphic_289"><rect width="146" height="64" x="-418" y="137" fill="#fff"/><text fill="#000" transform="translate(-413 149.53589)"><tspan x="37.616" y="16" fill="#000" font-family="Helvetica Neue" font-size="16">Disaster</tspan> <tspan x="1.136" y="35.464" fill="#000" font-family="Helvetica Neue" font-size="16">Recovery/Failover</tspan></text></g><g id="Graphic_288"><rect width="146" height="64" x="-233.25" y="137" fill="#fff"/><text fill="#000" transform="translate(-228.25 149.53589)"><tspan x="11.544" y="16" fill="#000" font-family="Helvetica Neue" font-size="16">Authentication/</tspan> <tspan x="18.952" y="35.464" fill="#000" font-family="Helvetica Neue" font-size="16">Authorization</tspan></text></g><g id="Graphic_287"><rect width="146" height="64" x="-48.5" y="137" fill="#fff"/><text fill="#000" transform="translate(-43.5 149.53589)"><tspan x="42.792" y="16" fill="#000" font-family="Helvetica Neue" font-size="16">Egress</tspan> <tspan x="36.728" y="35.464" fill="#000" font-family="Helvetica Neue" font-size="16">Controls</tspan></text></g><g id="Graphic_286"><rect width="286.5" height="271" x="-148.5" y="354.5" fill="#fff"/><rect width="286.5" height="271" x="-148.5" y="354.5" stroke="gray" stroke-linecap="round" stroke-linejoin="round" stroke-width="1"/><text fill="#000" transform="translate(-143.5 601.0359)"><tspan x="57.362" y="16" fill="#000" font-family="Helvetica Neue" font-size="16" font-weight="bold">Kubernetes on Cloud</tspan></text></g><g id="Graphic_285"><rect width="286.5" height="271" x="-828" y="354.5" fill="#fff"/><rect width="286.5" height="271" x="-828" y="354.5" stroke="gray" stroke-linecap="round" stroke-linejoin="round" stroke-width="1"/><text fill="#000" transform="translate(-823 601.0359)"><tspan x="74.858" y="16" fill="#000" font-family="Helvetica Neue" font-size="16" font-weight="bold">Virtual Machines</tspan></text></g><g id="Graphic_284"><rect width="885" height="48" x="-787.5" y="217" fill="#456cb0"/><text fill="#fff" transform="translate(-782.5 231.26794)"><tspan x="392.308" y="16" fill="#fff" font-family="Helvetica Neue" font-size="16">XCP Central</tspan></text></g><g id="Graphic_283"><rect width="263.156" height="48" x="-815.844" y="373.25" fill="#333"/><text fill="#fff" transform="translate(-810.84375 387.51794)"><tspan x="73.514" y="16" fill="#fff" font-family="Helvetica Neue" font-size="16">Tier1 Gateway</tspan></text></g><g id="Graphic_282"><rect width="117.313" height="48" x="-476.578" y="374.25" fill="#456cb0"/><text fill="#fff" transform="translate(-471.5781 388.51794)"><tspan x="16.016" y="16" fill="#fff" font-family="Helvetica Neue" font-size="16">XCP Edge</tspan></text></g><g id="Graphic_281"><rect width="117.313" height="48" x="-330.734" y="374.25" fill="#333"/><text fill="#fff" transform="translate(-325.73438 381.8729)"><tspan x="10.542" y="13" fill="#fff" font-family="Helvetica Neue" font-size="13">Tier2 Gateway</tspan> <tspan x="1.747" y="29.377" fill="#fff" font-family="Helvetica Neue" font-size="13">(IngressGateway)</tspan></text></g><g id="Graphic_280"><rect width="117.313" height="48" x="-476.578" y="445.5" fill="#456cb0"/><text fill="#fff" transform="translate(-471.5781 450.0359)"><tspan x="4.152" y="16" fill="#fff" font-family="Helvetica Neue" font-size="16">Local Control </tspan> <tspan x="7.856" y="35.464" fill="#fff" font-family="Helvetica Neue" font-size="16">Plane(Istiod)</tspan></text></g><g id="Graphic_279"><rect width="117.313" height="48" x="-136.828" y="373.25" fill="#456cb0"/><text fill="#fff" transform="translate(-131.82813 387.51794)"><tspan x="16.016" y="16" fill="#fff" font-family="Helvetica Neue" font-size="16">XCP Edge</tspan></text></g><g id="Graphic_278"><rect width="117.313" height="48" x="9.016" y="373.25" fill="#333"/><text fill="#fff" transform="translate(14.015625 380.8729)"><tspan x="10.542" y="13" fill="#fff" font-family="Helvetica Neue" font-size="13">Tier2 Gateway</tspan> <tspan x="1.747" y="29.377" fill="#fff" font-family="Helvetica Neue" font-size="13">(IngressGateway)</tspan></text></g><g id="Graphic_277"><rect width="117.313" height="48" x="-136.828" y="444.5" fill="#456cb0"/><text fill="#fff" transform="translate(-131.82813 449.0359)"><tspan x="4.152" y="16" fill="#fff" font-family="Helvetica Neue" font-size="16">Local Control </tspan> <tspan x="7.856" y="35.464" fill="#fff" font-family="Helvetica Neue" font-size="16">Plane(Istiod)</tspan></text></g><g id="Line_276"><path stroke="#0a55a8" stroke-linecap="round" stroke-linejoin="round" stroke-width="2" marker-end="url(#FilledArrow_Marker)" d="M -345 265 L -345 318.81453 L -417.92188 318.81453 L -417.92188 361.35"/></g><g id="Line_275"><title>Line</title><path stroke="#0a55a8" stroke-linecap="round" stroke-linejoin="round" stroke-width="2" marker-end="url(#FilledArrow_Marker)" d="M -345 265 L -345 318.92982 L -78.171875 318.92982 L -78.171875 360.35"/></g><g id="Line_274"><line x1="-417.922" x2="-417.922" y1="422.25" y2="432.6" stroke="#0a55a8" stroke-linecap="round" stroke-linejoin="round" stroke-width="2" marker-end="url(#FilledArrow_Marker)"/></g><g id="Line_273"><line x1="-78.172" x2="-78.172" y1="421.25" y2="431.6" stroke="#0a55a8" stroke-linecap="round" stroke-linejoin="round" stroke-width="2" marker-end="url(#FilledArrow_Marker)"/></g><g id="Graphic_272"><rect width="117.313" height="48" x="-136.828" y="541.8" fill="#fff"/><rect width="117.313" height="48" x="-136.828" y="541.8" stroke="gray" stroke-linecap="round" stroke-linejoin="round" stroke-width="1"/></g><g id="Graphic_271"><rect width="47.941" height="25.7" x="-128.8" y="554.9" fill="#456cb0"/><text fill="#fff" transform="translate(-123.8 561.60497)"><tspan x="1.37" y="10" fill="#fff" font-family="Helvetica Neue" font-size="10">Sidecar</tspan></text></g><g id="Graphic_270"><rect width="47.941" height="25.7" x="-75.656" y="554.9" fill="#333"/><text fill="#fff" transform="translate(-70.65625 561.60497)"><tspan x="9.525" y="10" fill="#fff" font-family="Helvetica Neue" font-size="10">App</tspan></text></g><g id="Line_269"><line x1="-104.83" x2="-104.83" y1="492.5" y2="542" stroke="#0a55a8" stroke-linecap="round" stroke-linejoin="round" stroke-width="2" marker-end="url(#FilledArrow_Marker)"/></g><g id="Graphic_268"><rect width="117.313" height="48" x="9.016" y="541.8" fill="#fff"/><rect width="117.313" height="48" x="9.016" y="541.8" stroke="gray" stroke-linecap="round" stroke-linejoin="round" stroke-width="1"/></g><g id="Graphic_267"><rect width="47.941" height="25.7" x="17.044" y="554.9" fill="#456cb0"/><text fill="#fff" transform="translate(22.043756 561.60497)"><tspan x="1.37" y="10" fill="#fff" font-family="Helvetica Neue" font-size="10">Sidecar</tspan></text></g><g id="Graphic_266"><rect width="47.941" height="25.7" x="70.188" y="554.9" fill="#333"/><text fill="#fff" transform="translate(75.1875 561.60497)"><tspan x="9.525" y="10" fill="#fff" font-family="Helvetica Neue" font-size="10">App</tspan></text></g><g id="Line_265"><path stroke="#000" stroke-linecap="round" stroke-linejoin="round" stroke-width="2" marker-end="url(#FilledArrow_Marker_2)" d="M 67.671875 421.25 L 67.671875 432.25 L 67.823246 488.51123 L 67.671875 522.9 L 67.671875 528.9"/></g><g id="Line_264"><path stroke="#000" stroke-linecap="round" stroke-linejoin="round" stroke-width="2" marker-end="url(#FilledArrow_Marker_2)" d="M 67.671875 421.25 L 67.671875 505.5714 L -78.171875 505.5714 L -78.171875 528.9"/></g><g id="Graphic_263"><rect width="117.313" height="48" x="-330.734" y="541.8" fill="#fff"/><rect width="117.313" height="48" x="-330.734" y="541.8" stroke="gray" stroke-linecap="round" stroke-linejoin="round" stroke-width="1"/></g><g id="Graphic_262"><rect width="47.941" height="25.7" x="-322.706" y="554.9" fill="#456cb0"/><text fill="#fff" transform="translate(-317.70624 561.60497)"><tspan x="1.37" y="10" fill="#fff" font-family="Helvetica Neue" font-size="10">Sidecar</tspan></text></g><g id="Graphic_261"><rect width="47.941" height="25.7" x="-269.563" y="554.9" fill="#333"/><text fill="#fff" transform="translate(-264.5625 561.60497)"><tspan x="9.525" y="10" fill="#fff" font-family="Helvetica Neue" font-size="10">App</tspan></text></g><g id="Graphic_260"><rect width="117.313" height="48" x="-476.578" y="541.8" fill="#fff"/><rect width="117.313" height="48" x="-476.578" y="541.8" stroke="gray" stroke-linecap="round" stroke-linejoin="round" stroke-width="1"/></g><g id="Graphic_259"><rect width="47.941" height="25.7" x="-468.55" y="554.9" fill="#456cb0"/><text fill="#fff" transform="translate(-463.55 561.60497)"><tspan x="1.37" y="10" fill="#fff" font-family="Helvetica Neue" font-size="10">Sidecar</tspan></text></g><g id="Graphic_258"><rect width="47.941" height="25.7" x="-415.406" y="554.9" fill="#333"/><text fill="#fff" transform="translate(-410.40625 561.60497)"><tspan x="9.525" y="10" fill="#fff" font-family="Helvetica Neue" font-size="10">App</tspan></text></g><g id="Graphic_257"><rect width="117.313" height="48" x="-815.844" y="541.8" fill="#fff"/><rect width="117.313" height="48" x="-815.844" y="541.8" stroke="gray" stroke-linecap="round" stroke-linejoin="round" stroke-width="1"/></g><g id="Graphic_256"><rect width="47.941" height="25.7" x="-807.816" y="554.9" fill="#456cb0"/><text fill="#fff" transform="translate(-802.8156 561.60497)"><tspan x="1.37" y="10" fill="#fff" font-family="Helvetica Neue" font-size="10">Sidecar</tspan></text></g><g id="Graphic_255"><rect width="47.941" height="25.7" x="-754.672" y="554.9" fill="#333"/><text fill="#fff" transform="translate(-749.6719 561.60497)"><tspan x="9.525" y="10" fill="#fff" font-family="Helvetica Neue" font-size="10">App</tspan></text></g><g id="Graphic_254"><rect width="117.313" height="48" x="-670" y="541.8" fill="#fff"/><rect width="117.313" height="48" x="-670" y="541.8" stroke="gray" stroke-linecap="round" stroke-linejoin="round" stroke-width="1"/></g><g id="Graphic_253"><rect width="47.941" height="25.7" x="-661.972" y="554.9" fill="#456cb0"/><text fill="#fff" transform="translate(-656.9719 561.60497)"><tspan x="1.37" y="10" fill="#fff" font-family="Helvetica Neue" font-size="10">Sidecar</tspan></text></g><g id="Graphic_252"><rect width="47.941" height="25.7" x="-608.828" y="554.9" fill="#333"/><text fill="#fff" transform="translate(-603.8281 561.60497)"><tspan x="9.525" y="10" fill="#fff" font-family="Helvetica Neue" font-size="10">App</tspan></text></g><g id="Line_251"><line x1="-444.58" x2="-444.58" y1="493.5" y2="542" stroke="#0a55a8" stroke-linecap="round" stroke-linejoin="round" stroke-width="2" marker-end="url(#FilledArrow_Marker)"/></g><g id="Line_250"><path stroke="#000" stroke-linecap="round" stroke-linejoin="round" stroke-width="2" marker-end="url(#FilledArrow_Marker_2)" d="M -272.07813 422.25 L -272.07813 433.25 L -272.04755 499.45825 L -272.07813 522.9 L -272.07813 528.9"/></g><g id="Line_249"><path stroke="#000" stroke-linecap="round" stroke-linejoin="round" stroke-width="2" marker-end="url(#FilledArrow_Marker_2)" d="M -272.07813 422.25 L -272.07813 504.44275 L -417.92188 504.44275 L -417.92188 528.9"/></g><g id="Line_248"><line x1="-359.266" x2="-343.634" y1="398.25" y2="398.25" stroke="#0a55a8" stroke-linecap="round" stroke-linejoin="round" stroke-width="2" marker-end="url(#FilledArrow_Marker)"/></g><g id="Line_247"><line x1="-19.516" x2="-3.884" y1="397.25" y2="397.25" stroke="#0a55a8" stroke-linecap="round" stroke-linejoin="round" stroke-width="2" marker-end="url(#FilledArrow_Marker)"/></g><g id="Line_246"><path stroke="#000" stroke-linecap="round" stroke-linejoin="round" stroke-width="2" marker-end="url(#FilledArrow_Marker_2)" d="M -344.8143 504.44275 L -355.8143 504.44275 L -608.8281 504.3835 L -611.34375 504.3835 L -611.34375 528.9"/></g><g id="Line_245"><path stroke="#0a55a8" stroke-linecap="round" stroke-linejoin="round" stroke-width="2" marker-end="url(#FilledArrow_Marker)" d="M -476.5781 398.25 L -487.5781 398.25 L -514.6328 397.75 L -539.7884 397.40503"/></g><g id="Line_244"><path stroke="#000" stroke-linecap="round" stroke-linejoin="round" stroke-width="2" marker-end="url(#FilledArrow_Marker_2)" d="M -684.2656 373.25 L -684.2656 337.25055 L -269.5625 337.25055 L -269.5625 361.35"/></g><g id="Line_243"><path stroke="#000" stroke-linecap="round" stroke-linejoin="round" stroke-width="2" marker-end="url(#FilledArrow_Marker_2)" d="M -274.97636 337.25055 L 67.69166 337.25055 L 67.69166 360.35"/></g><g id="Line_242"><path stroke="#000" stroke-linecap="round" stroke-linejoin="round" stroke-width="2" marker-end="url(#FilledArrow_Marker_2)" d="M -583.0407 504.38954 L -756.49755 504.38954 L -756.49755 528.9185"/></g><g id="Line_241"><path stroke="#0a55a8" stroke-linecap="round" stroke-linejoin="round" stroke-width="2" marker-end="url(#FilledArrow_Marker)" d="M -104.82968 513.3149 L 41.257036 513.3149 L 41.257036 542.0023"/></g><g id="Line_240"><path stroke="#0a55a8" stroke-linecap="round" stroke-linejoin="round" stroke-width="2" marker-end="url(#FilledArrow_Marker)" d="M -444.5797 517.8504 L -298.80322 517.8504 L -298.80322 520.6081 L -298.73593 536 L -298.73593 542"/></g></g></g></svg>