<svg xmlns="http://www.w3.org/2000/svg" xmlns:xl="http://www.w3.org/1999/xlink" width="1358" height="969" version="1.1" viewBox="-4644 -1323 1358 969"><defs><marker id="FilledArrow_Marker" stroke-linejoin="miter" stroke-miterlimit="10" color="#000" markerHeight="6" markerUnits="strokeWidth" markerWidth="7" orient="auto" overflow="visible" viewBox="-1 -3 7 6"><g><path fill="currentColor" stroke="currentColor" stroke-width="1" d="M 4.8 0 L 0 -1.8 L 0 1.8 Z"/></g></marker><marker id="FilledArrow_Marker_2" stroke-linejoin="miter" stroke-miterlimit="10" color="#75428c" markerHeight="6" markerUnits="strokeWidth" markerWidth="7" orient="auto" overflow="visible" viewBox="-1 -3 7 6"><g><path fill="currentColor" stroke="currentColor" stroke-width="1" d="M 4.8 0 L 0 -1.8 L 0 1.8 Z"/></g></marker><marker id="FilledArrow_Marker_3" stroke-linejoin="miter" stroke-miterlimit="10" color="#f05a26" markerHeight="6" markerUnits="strokeWidth" markerWidth="7" orient="auto" overflow="visible" viewBox="-1 -3 7 6"><g><path fill="currentColor" stroke="currentColor" stroke-width="1" d="M 4.8 0 L 0 -1.8 L 0 1.8 Z"/></g></marker><marker id="FilledArrow_Marker_4" stroke-linejoin="miter" stroke-miterlimit="10" color="#f05a26" markerHeight="6" markerUnits="strokeWidth" markerWidth="7" orient="auto" overflow="visible" viewBox="-1 -3 7 6"><g><path fill="currentColor" stroke="currentColor" stroke-width="1" d="M 4.8 0 L 0 -1.8 L 0 1.8 Z"/></g></marker></defs><g id="Management_Plana___" fill="none" fill-opacity="1" stroke="none" stroke-dasharray="none" stroke-opacity="1"><title>Management Plana 架构图</title><rect width="1358" height="969" x="-4644" y="-1323" fill="#fff"/><g id="Management_Plana____Layer_1"><title>Layer 1</title><g id="Graphic_264"><rect width="1356.378" height="968.032" x="-4643.15" y="-1322.362" fill="#fff"/></g><g id="Graphic_224"><rect width="1003.465" height="729.921" x="-4327.087" y="-1186.299" fill="#ccc" fill-opacity=".252"/><rect width="1003.465" height="729.921" x="-4327.087" y="-1186.299" stroke="gray" stroke-linecap="round" stroke-linejoin="round" stroke-width="1"/><text fill="#000" transform="translate(-4322.0867 -1181.2992)"><tspan x="902.489" y="16" fill="#000" font-family="Helvetica Neue" font-size="16" font-weight="bold">TSB Cluster</tspan> <tspan x="836.761" y="35.464" fill="#000" font-family="Helvetica Neue" font-size="16" font-weight="bold">(Management Plane)</tspan></text></g><g id="Graphic_4"><rect width="170.079" height="56.693" x="-4083.307" y="-1058.74" fill="#f15623"/><text fill="#fff" transform="translate(-4078.307 -1040.1258)"><tspan x="21.943" y="16" fill="#fff" font-family="Helvetica Neue" font-size="16" font-weight="bold">TSB API Server</tspan></text></g><g id="Graphic_5"><rect width="170.079" height="56.693" x="-4083.307" y="-943.937" fill="#f15623"/><text fill="#fff" transform="translate(-4078.307 -935.0547)"><tspan x="6.423" y="16" fill="#fff" font-family="Helvetica Neue" font-size="16" font-weight="bold">Management Plane</tspan> <tspan x="41.975" y="35.464" fill="#fff" font-family="Helvetica Neue" font-size="16" font-weight="bold">Controller</tspan></text></g><g id="Graphic_6"><rect width="170.079" height="56.693" x="-4083.307" y="-829.134" fill="#f15623"/><text fill="#fff" transform="translate(-4078.307 -810.5195)"><tspan x="33.367" y="16" fill="#fff" font-family="Helvetica Neue" font-size="16" font-weight="bold">XCP Central</tspan></text></g><g id="Line_7"><line x1="-3998.268" x2="-3998.268" y1="-943.937" y2="-989.147" stroke="#000" stroke-dasharray="8 8" stroke-linecap="round" stroke-linejoin="round" stroke-width="2" marker-end="url(#FilledArrow_Marker)"/></g><g id="Graphic_138"><rect width="170.079" height="41.102" x="-3750.547" y="-519.792" fill="#333"/><text fill="#fff" transform="translate(-3745.5466 -508.97286)"><tspan x="56.503" y="16" fill="#fff" font-family="Helvetica Neue" font-size="16" font-weight="bold">Zipkin</tspan></text></g><g id="Group_220"><g id="Graphic_219"><rect width="170.079" height="41.102" x="-3551.811" y="-420.945" fill="#fff"/></g><g id="Group_160"><title>elasticsearch</title><g id="Group_140"><g id="Graphic_153"><path fill="#000" d="M -3506.998 -391.79055 C -3508.6812 -391.79055 -3510.0277 -392.3008 -3510.9955 -393.27874 C -3511.9633 -394.2567 -3512.426 -395.65985 -3512.426 -397.40315 C -3512.426 -399.189 -3511.9633 -400.63465 -3511.0797 -401.6551 C -3510.196 -402.6756 -3508.9758 -403.18583 -3507.419 -403.18583 C -3505.9883 -403.18583 -3504.852 -402.76063 -3504.0106 -401.8677 C -3503.169 -400.9748 -3502.7483 -399.78426 -3502.7483 -398.21103 L -3502.7483 -396.93544 L -3510.0277 -396.93544 C -3509.9857 -395.87244 -3509.691 -395.06457 -3509.186 -394.4693 C -3508.6812 -393.874 -3507.8818 -393.6189 -3506.914 -393.6189 C -3506.283 -393.6189 -3505.6516 -393.6614 -3505.1046 -393.789 C -3504.5576 -393.91654 -3503.9685 -394.12914 -3503.2953 -394.38426 L -3503.2953 -392.47087 C -3503.8423 -392.21575 -3504.4314 -392.00315 -3505.0205 -391.8756 C -3505.6096 -391.74804 -3506.283 -391.79055 -3506.998 -391.79055 Z M -3507.461 -401.4 C -3508.2184 -401.4 -3508.8075 -401.1449 -3509.2283 -400.67717 C -3509.649 -400.20945 -3509.9436 -399.52914 -3510.0277 -398.5937 L -3505.0625 -398.5937 C -3505.0625 -399.4866 -3505.273 -400.20945 -3505.6937 -400.67717 C -3506.1145 -401.1449 -3506.7036 -401.4 -3507.461 -401.4 Z"/></g><g id="Graphic_152"><rect width="2.314" height="15.52" x="-3500.139" y="-407.48" fill="#000"/></g><g id="Graphic_151"><path fill="#000" d="M -3487.6844 -391.96063 L -3488.1472 -393.49134 L -3488.2314 -393.49134 C -3488.7363 -392.81103 -3489.2833 -392.3433 -3489.8304 -392.1307 C -3490.3774 -391.9181 -3491.0506 -391.74804 -3491.892 -391.74804 C -3492.944 -391.74804 -3493.7857 -392.04567 -3494.417 -392.64095 C -3495.048 -393.23622 -3495.3005 -394.0441 -3495.3005 -395.1071 C -3495.3005 -396.2551 -3494.8797 -397.1055 -3494.038 -397.65827 C -3493.1966 -398.21103 -3491.9343 -398.5512 -3490.209 -398.5937 L -3488.3156 -398.63622 L -3488.3156 -399.2315 C -3488.3156 -399.95433 -3488.484 -400.46457 -3488.8205 -400.80473 C -3489.157 -401.1449 -3489.662 -401.31496 -3490.3353 -401.31496 C -3490.8823 -401.31496 -3491.4293 -401.22992 -3491.9343 -401.05985 C -3492.439 -400.88977 -3492.944 -400.67717 -3493.407 -400.46457 L -3494.1644 -402.12284 C -3493.5753 -402.4205 -3492.944 -402.6756 -3492.229 -402.84567 C -3491.5135 -403.01575 -3490.8823 -403.1008 -3490.251 -403.1008 C -3488.8626 -403.1008 -3487.8106 -402.80315 -3487.0953 -402.16536 C -3486.38 -401.52756 -3486.0433 -400.59213 -3486.0433 -399.274 L -3486.0433 -391.96063 Z M -3491.1348 -393.5764 C -3490.2932 -393.5764 -3489.62 -393.8315 -3489.115 -394.2992 C -3488.61 -394.76693 -3488.3576 -395.44725 -3488.3576 -396.29764 L -3488.3576 -397.23307 L -3489.746 -397.19055 C -3490.8402 -397.14804 -3491.6397 -396.97796 -3492.1446 -396.6378 C -3492.6496 -396.29764 -3492.902 -395.7874 -3492.902 -395.1071 C -3492.902 -394.59685 -3492.776 -394.2142 -3492.4813 -393.95906 C -3492.1867 -393.70394 -3491.724 -393.5764 -3491.1348 -393.5764 Z"/></g><g id="Graphic_150"><path fill="#000" d="M -3475.482 -395.1071 C -3475.482 -394.0441 -3475.8605 -393.1937 -3476.66 -392.64095 C -3477.4595 -392.0882 -3478.5535 -391.79055 -3479.984 -391.79055 C -3481.457 -391.79055 -3482.593 -392.00315 -3483.4766 -392.47087 L -3483.4766 -394.5118 C -3482.2143 -393.91654 -3480.994 -393.6189 -3479.9 -393.6189 C -3478.4693 -393.6189 -3477.754 -394.0441 -3477.754 -394.937 C -3477.754 -395.23465 -3477.838 -395.44725 -3478.0065 -395.61733 C -3478.1748 -395.7874 -3478.4273 -396 -3478.806 -396.2126 C -3479.1847 -396.4252 -3479.6896 -396.6378 -3480.3208 -396.8929 C -3481.583 -397.40315 -3482.4247 -397.87087 -3482.8875 -398.3811 C -3483.3504 -398.89134 -3483.5608 -399.52914 -3483.5608 -400.2945 C -3483.5608 -401.22992 -3483.182 -401.95276 -3482.4247 -402.5055 C -3481.6673 -403.05827 -3480.6574 -403.27087 -3479.353 -403.27087 C -3478.0906 -403.27087 -3476.8704 -403.01575 -3475.7343 -402.463 L -3476.4917 -400.7197 C -3477.67 -401.22992 -3478.6376 -401.4425 -3479.479 -401.4425 C -3480.6995 -401.4425 -3481.3306 -401.10237 -3481.3306 -400.37953 C -3481.3306 -400.03937 -3481.1623 -399.74174 -3480.8678 -399.4866 C -3480.5732 -399.2315 -3479.858 -398.93386 -3478.764 -398.50867 C -3477.8802 -398.1685 -3477.207 -397.82835 -3476.7862 -397.5307 C -3476.3654 -397.23307 -3476.071 -396.8929 -3475.8605 -396.51024 C -3475.566 -396.08504 -3475.482 -395.65985 -3475.482 -395.1071 Z"/></g><g id="Graphic_149"><path fill="#000" d="M -3468.9177 -393.6614 C -3468.3706 -393.6614 -3467.7816 -393.74646 -3467.2345 -393.91654 L -3467.2345 -392.17323 C -3467.487 -392.04567 -3467.8236 -391.96063 -3468.2444 -391.8756 C -3468.665 -391.79055 -3469.086 -391.74804 -3469.5067 -391.74804 C -3471.695 -391.74804 -3472.789 -392.9386 -3472.789 -395.23465 L -3472.789 -401.1874 L -3474.2615 -401.1874 L -3474.2615 -402.2079 L -3472.6626 -403.05827 L -3471.863 -405.39685 L -3470.4325 -405.39685 L -3470.4325 -402.9307 L -3467.3187 -402.9307 L -3467.3187 -401.1449 L -3470.4325 -401.1449 L -3470.4325 -395.23465 C -3470.4325 -394.6819 -3470.3062 -394.2567 -3470.0117 -394.0016 C -3469.717 -393.74646 -3469.3384 -393.6614 -3468.9177 -393.6614 Z"/></g><g id="Graphic_148"><path fill="#000" d="M -3465.1727 -405.9071 C -3465.1727 -406.3323 -3465.0465 -406.62992 -3464.836 -406.88504 C -3464.6257 -407.14016 -3464.289 -407.2252 -3463.8683 -407.2252 C -3463.4475 -407.2252 -3463.153 -407.09764 -3462.9005 -406.88504 C -3462.648 -406.67244 -3462.564 -406.3323 -3462.564 -405.9071 C -3462.564 -405.5244 -3462.69 -405.18426 -3462.9005 -404.97166 C -3463.111 -404.75906 -3463.4475 -404.6315 -3463.8683 -404.6315 C -3464.289 -404.6315 -3464.6257 -404.75906 -3464.836 -404.97166 C -3465.0465 -405.18426 -3465.1727 -405.5244 -3465.1727 -405.9071 Z M -3462.69 -391.96063 L -3465.0044 -391.96063 L -3465.0044 -402.97323 L -3462.69 -402.97323 Z"/></g><g id="Graphic_147"><path fill="#000" d="M -3454.99 -391.79055 C -3456.631 -391.79055 -3457.8933 -392.25827 -3458.735 -393.23622 C -3459.5764 -394.2142 -3460.0392 -395.61733 -3460.0392 -397.44567 C -3460.0392 -399.31654 -3459.5764 -400.7197 -3458.6927 -401.74016 C -3457.809 -402.76063 -3456.5047 -403.22835 -3454.8216 -403.22835 C -3453.6855 -403.22835 -3452.6335 -403.01575 -3451.708 -402.59055 L -3452.423 -400.7197 C -3453.391 -401.10237 -3454.1904 -401.31496 -3454.8636 -401.31496 C -3456.757 -401.31496 -3457.683 -400.03937 -3457.683 -397.5307 C -3457.683 -396.29764 -3457.4304 -395.3622 -3456.9675 -394.7244 C -3456.5047 -394.0866 -3455.7894 -393.789 -3454.9057 -393.789 C -3453.8538 -393.789 -3452.886 -394.0441 -3451.9603 -394.55433 L -3451.9603 -392.5134 C -3452.381 -392.25827 -3452.802 -392.0882 -3453.3068 -392.00315 C -3453.8117 -391.9181 -3454.3166 -391.79055 -3454.99 -391.79055 Z"/></g><g id="Graphic_146"><path fill="#000" d="M -3442.072 -395.1071 C -3442.072 -394.0441 -3442.4507 -393.1937 -3443.25 -392.64095 C -3444.0496 -392.0882 -3445.1437 -391.79055 -3446.5743 -391.79055 C -3448.047 -391.79055 -3449.183 -392.00315 -3450.0668 -392.47087 L -3450.0668 -394.5118 C -3448.8044 -393.91654 -3447.584 -393.6189 -3446.49 -393.6189 C -3445.0595 -393.6189 -3444.344 -394.0441 -3444.344 -394.937 C -3444.344 -395.23465 -3444.4283 -395.44725 -3444.5967 -395.61733 C -3444.765 -395.7874 -3445.0174 -396 -3445.396 -396.2126 C -3445.775 -396.4252 -3446.2798 -396.6378 -3446.911 -396.8929 C -3448.1733 -397.40315 -3449.015 -397.87087 -3449.4777 -398.3811 C -3449.9405 -398.89134 -3450.151 -399.52914 -3450.151 -400.2945 C -3450.151 -401.22992 -3449.7722 -401.95276 -3449.015 -402.5055 C -3448.2574 -403.05827 -3447.2476 -403.27087 -3445.943 -403.27087 C -3444.681 -403.27087 -3443.4605 -403.01575 -3442.3244 -402.463 L -3443.082 -400.7197 C -3444.26 -401.22992 -3445.228 -401.4425 -3446.0694 -401.4425 C -3447.2896 -401.4425 -3447.921 -401.10237 -3447.921 -400.37953 C -3447.921 -400.03937 -3447.7525 -399.74174 -3447.458 -399.4866 C -3447.1634 -399.2315 -3446.448 -398.93386 -3445.354 -398.50867 C -3444.4704 -398.1685 -3443.797 -397.82835 -3443.3764 -397.5307 C -3442.9556 -397.23307 -3442.661 -396.8929 -3442.4507 -396.51024 C -3442.156 -396.08504 -3442.072 -395.65985 -3442.072 -395.1071 Z"/></g><g id="Graphic_145"><path fill="#000" d="M -3434.7925 -391.79055 C -3436.4756 -391.79055 -3437.822 -392.3008 -3438.79 -393.27874 C -3439.7577 -394.2567 -3440.2206 -395.65985 -3440.2206 -397.40315 C -3440.2206 -399.189 -3439.7577 -400.63465 -3438.874 -401.6551 C -3437.9904 -402.6756 -3436.77 -403.18583 -3435.2133 -403.18583 C -3433.7826 -403.18583 -3432.6465 -402.76063 -3431.805 -401.8677 C -3430.9634 -400.9748 -3430.5426 -399.78426 -3430.5426 -398.21103 L -3430.5426 -396.93544 L -3437.822 -396.93544 C -3437.78 -395.87244 -3437.4855 -395.06457 -3436.9806 -394.4693 C -3436.4756 -393.874 -3435.676 -393.6189 -3434.7084 -393.6189 C -3434.077 -393.6189 -3433.446 -393.6614 -3432.899 -393.789 C -3432.352 -393.91654 -3431.763 -394.12914 -3431.0897 -394.38426 L -3431.0897 -392.47087 C -3431.6367 -392.21575 -3432.2258 -392.00315 -3432.815 -391.8756 C -3433.404 -391.74804 -3434.035 -391.79055 -3434.7925 -391.79055 Z M -3435.2133 -401.4 C -3435.9707 -401.4 -3436.5598 -401.1449 -3436.9806 -400.67717 C -3437.4013 -400.20945 -3437.696 -399.52914 -3437.78 -398.5937 L -3432.815 -398.5937 C -3432.815 -399.4866 -3433.0252 -400.20945 -3433.446 -400.67717 C -3433.8668 -401.1449 -3434.498 -401.4 -3435.2133 -401.4 Z"/></g><g id="Graphic_144"><path fill="#000" d="M -3421.117 -391.96063 L -3421.58 -393.49134 L -3421.6642 -393.49134 C -3422.169 -392.81103 -3422.716 -392.3433 -3423.263 -392.1307 C -3423.81 -391.9181 -3424.4834 -391.74804 -3425.325 -391.74804 C -3426.377 -391.74804 -3427.2185 -392.04567 -3427.8497 -392.64095 C -3428.481 -393.23622 -3428.7333 -394.0441 -3428.7333 -395.1071 C -3428.7333 -396.2551 -3428.3125 -397.1055 -3427.471 -397.65827 C -3426.6294 -398.21103 -3425.367 -398.5512 -3423.642 -398.5937 L -3421.7484 -398.63622 L -3421.7484 -399.2315 C -3421.7484 -399.95433 -3421.9167 -400.46457 -3422.2533 -400.80473 C -3422.59 -401.1449 -3423.095 -401.31496 -3423.768 -401.31496 C -3424.315 -401.31496 -3424.862 -401.22992 -3425.367 -401.05985 C -3425.872 -400.88977 -3426.377 -400.67717 -3426.8398 -400.46457 L -3427.597 -402.12284 C -3427.008 -402.4205 -3426.377 -402.6756 -3425.6616 -402.84567 C -3424.9463 -403.01575 -3424.315 -403.1008 -3423.684 -403.1008 C -3422.2954 -403.1008 -3421.2434 -402.80315 -3420.528 -402.16536 C -3419.8128 -401.52756 -3419.476 -400.59213 -3419.476 -399.274 L -3419.476 -391.96063 Z M -3424.5676 -393.5764 C -3423.726 -393.5764 -3423.0528 -393.8315 -3422.548 -394.2992 C -3422.043 -394.76693 -3421.7904 -395.44725 -3421.7904 -396.29764 L -3421.7904 -397.23307 L -3423.179 -397.19055 C -3424.273 -397.14804 -3425.0725 -396.97796 -3425.5775 -396.6378 C -3426.0824 -396.29764 -3426.335 -395.7874 -3426.335 -395.1071 C -3426.335 -394.59685 -3426.2086 -394.2142 -3425.914 -393.95906 C -3425.6195 -393.70394 -3425.1146 -393.5764 -3424.5676 -393.5764 Z"/></g><g id="Graphic_143"><path fill="#000" d="M -3410.682 -403.18583 C -3410.219 -403.18583 -3409.8403 -403.1433 -3409.5458 -403.1008 L -3409.756 -400.9323 C -3410.093 -401.01733 -3410.4294 -401.05985 -3410.766 -401.05985 C -3411.6918 -401.05985 -3412.449 -400.7622 -3413.0382 -400.1244 C -3413.6273 -399.4866 -3413.922 -398.72126 -3413.922 -397.7433 L -3413.922 -391.96063 L -3416.236 -391.96063 L -3416.236 -402.97323 L -3414.427 -402.97323 L -3414.1323 -401.01733 L -3414.006 -401.01733 C -3413.6273 -401.6551 -3413.1645 -402.2079 -3412.5754 -402.59055 C -3411.9863 -402.97323 -3411.355 -403.18583 -3410.682 -403.18583 Z"/></g><g id="Graphic_142"><path fill="#000" d="M -3403.108 -391.79055 C -3404.749 -391.79055 -3406.0112 -392.25827 -3406.853 -393.23622 C -3407.6944 -394.2142 -3408.1572 -395.61733 -3408.1572 -397.44567 C -3408.1572 -399.31654 -3407.6944 -400.7197 -3406.8107 -401.74016 C -3405.927 -402.76063 -3404.6227 -403.22835 -3402.9396 -403.22835 C -3401.8035 -403.22835 -3400.7515 -403.01575 -3399.826 -402.59055 L -3400.541 -400.7197 C -3401.509 -401.10237 -3402.3084 -401.31496 -3402.9816 -401.31496 C -3404.875 -401.31496 -3405.801 -400.03937 -3405.801 -397.5307 C -3405.801 -396.29764 -3405.5484 -395.3622 -3405.0855 -394.7244 C -3404.6227 -394.0866 -3403.9074 -393.789 -3403.0237 -393.789 C -3401.9718 -393.789 -3401.004 -394.0441 -3400.0783 -394.55433 L -3400.0783 -392.5134 C -3400.499 -392.25827 -3400.92 -392.0882 -3401.4248 -392.00315 C -3401.9297 -391.9181 -3402.4346 -391.79055 -3403.108 -391.79055 Z"/></g><g id="Graphic_141"><path fill="#000" d="M -3387.9178 -391.96063 L -3390.232 -391.96063 L -3390.232 -398.7638 C -3390.232 -399.6142 -3390.4004 -400.25197 -3390.737 -400.67717 C -3391.0736 -401.10237 -3391.6206 -401.31496 -3392.336 -401.31496 C -3393.3037 -401.31496 -3394.019 -401.01733 -3394.482 -400.42205 C -3394.9448 -399.82678 -3395.155 -398.8488 -3395.155 -397.4882 L -3395.155 -391.96063 L -3397.4694 -391.96063 L -3397.4694 -407.4803 L -3395.155 -407.4803 L -3395.155 -403.526 C -3395.155 -402.8882 -3395.1972 -402.2079 -3395.2814 -401.48504 L -3395.113 -401.48504 C -3394.7765 -401.9953 -3394.3557 -402.4205 -3393.8087 -402.7181 C -3393.2617 -403.01575 -3392.5884 -403.1433 -3391.831 -403.1433 C -3389.18 -403.1433 -3387.8757 -401.7827 -3387.8757 -399.10394 L -3387.8757 -391.96063 Z"/></g></g><g id="Graphic_154"><path fill="#00a9e5" d="M -3528.6682 -401.95276 L -3537.4625 -401.95276 C -3537.4204 -401.74016 -3537.3363 -401.52756 -3537.294 -401.3575 C -3536.9996 -400.337 -3536.8313 -399.274 -3536.747 -398.1685 C -3536.705 -397.7433 -3536.705 -397.2756 -3536.705 -396.8504 C -3536.705 -396.4252 -3536.705 -395.9575 -3536.747 -395.5323 C -3536.8313 -394.42678 -3536.9996 -393.3638 -3537.294 -392.3433 C -3537.3363 -392.1307 -3537.4204 -391.9181 -3537.4625 -391.74804 L -3528.6682 -391.74804 C -3525.891 -391.74804 -3523.661 -394.0441 -3523.661 -396.8504 C -3523.661 -399.6567 -3525.891 -401.95276 -3528.6682 -401.95276 Z"/></g><g id="Graphic_155"><path fill="#353535" d="M -3536.747 -395.5323 C -3536.705 -395.9575 -3536.705 -396.4252 -3536.705 -396.8504 C -3536.705 -397.2756 -3536.705 -397.7433 -3536.747 -398.1685 C -3536.8313 -399.274 -3536.9996 -400.337 -3537.294 -401.3575 C -3537.3363 -401.5701 -3537.4204 -401.7827 -3537.4625 -401.95276 L -3551.0537 -401.95276 C -3551.5586 -400.337 -3551.811 -398.63622 -3551.811 -396.8504 C -3551.811 -395.06457 -3551.5586 -393.3638 -3551.0537 -391.74804 L -3537.4625 -391.74804 C -3537.4204 -391.96063 -3537.3363 -392.17323 -3537.294 -392.3433 C -3536.9996 -393.3638 -3536.8313 -394.42678 -3536.747 -395.5323 Z"/></g><g id="Graphic_156"><path fill="#00bfb3" d="M -3527.1534 -390.04725 L -3538.0937 -390.04725 C -3538.4303 -389.2819 -3538.809 -388.55906 -3539.2298 -387.87874 C -3539.861 -386.81575 -3540.6183 -385.8803 -3541.46 -384.9874 C -3541.7544 -384.68977 -3542.049 -384.43465 -3542.3435 -384.137 C -3542.9326 -383.58426 -3543.606 -383.11654 -3544.279 -382.6488 C -3541.6282 -380.863 -3538.4303 -379.84252 -3535.022 -379.84252 C -3529.173 -379.84252 -3524.0397 -382.8614 -3521.01 -387.41103 C -3522.567 -389.02678 -3524.755 -390.04725 -3527.1534 -390.04725 Z"/></g><g id="Graphic_157"><path fill="#019b8f" d="M -3539.2298 -387.87874 C -3538.809 -388.55906 -3538.4303 -389.2819 -3538.0937 -390.04725 L -3550.4225 -390.04725 C -3549.118 -387.02835 -3546.972 -384.43465 -3544.237 -382.6488 C -3543.564 -383.11654 -3542.9326 -383.58426 -3542.3015 -384.137 C -3542.007 -384.39213 -3541.7124 -384.68977 -3541.418 -384.9874 C -3540.6183 -385.8378 -3539.861 -386.81575 -3539.2298 -387.87874 Z"/></g><g id="Graphic_158"><path fill="#f9b110" d="M -3541.46 -408.7134 C -3541.7544 -409.01103 -3542.049 -409.26615 -3542.3435 -409.5638 C -3542.9326 -410.11654 -3543.606 -410.58426 -3544.279 -411.05197 C -3546.972 -409.26615 -3549.118 -406.67244 -3550.4646 -403.65355 L -3538.1357 -403.65355 C -3538.4724 -404.4189 -3538.851 -405.14174 -3539.272 -405.82205 C -3539.861 -406.88504 -3540.6183 -407.863 -3541.46 -408.7134 Z"/></g><g id="Graphic_159"><path fill="#fed10a" d="M -3535.022 -413.85827 C -3538.4303 -413.85827 -3541.6282 -412.8378 -3544.279 -411.05197 C -3543.606 -410.58426 -3542.9747 -410.11654 -3542.3435 -409.5638 C -3542.049 -409.30867 -3541.7544 -409.01103 -3541.46 -408.7134 C -3540.6183 -407.8205 -3539.861 -406.88504 -3539.2298 -405.82205 C -3538.809 -405.14174 -3538.4303 -404.4189 -3538.0937 -403.65355 L -3527.1534 -403.65355 C -3524.755 -403.65355 -3522.567 -404.674 -3521.01 -406.28977 C -3524.0397 -410.83937 -3529.173 -413.85827 -3535.022 -413.85827 Z"/></g></g></g><g id="Group_217"><g id="Group_163"><title>Skywalking</title><g id="Graphic_161"><path fill="#0068af" d="M -3483.4612 -690.8267 L -3483.4612 -690.7361 L -3486.244 -676.84435 C -3486.611 -675.0324 -3487.1 -674.3076 -3488.9656 -674.3076 L -3489.791 -674.3076 C -3491.4424 -674.3076 -3492.2987 -675.0928 -3492.6962 -676.6631 L -3495.112 -685.9042 C -3495.1426 -686.025 -3495.1426 -686.0552 -3495.2037 -686.0552 C -3495.265 -686.0552 -3495.265 -686.025 -3495.2955 -685.90424 L -3497.7113 -676.6631 C -3498.1088 -675.0928 -3498.965 -674.3076 -3500.6163 -674.3076 L -3501.442 -674.3076 C -3503.3073 -674.3076 -3503.7966 -675.0324 -3504.1635 -676.8444 L -3504.9574 -680.9956 C -3505.0044 -680.7997 -3504.926 -681.063 -3504.7222 -681.78545 L -3504.4164 -682.8692 L -3503.005 -687.8718 L -3502.323 -687.8718 L -3500.8915 -678.1127 C -3500.861 -677.8409 -3500.7998 -677.6899 -3500.7386 -677.6899 C -3500.6775 -677.6899 -3500.5857 -677.81074 -3500.5246 -678.1127 L -3497.9865 -688.25974 C -3497.6807 -689.4375 -3497.3137 -689.5583 -3496.274 -689.5583 L -3494.1335 -689.5583 C -3493.094 -689.5583 -3492.727 -689.4375 -3492.421 -688.25974 L -3489.883 -678.11275 C -3489.8218 -677.81074 -3489.73 -677.68995 -3489.669 -677.68995 C -3489.6077 -677.68995 -3489.5466 -677.8409 -3489.516 -678.11275 L -3487.5895 -690.8871 C -3487.559 -691.1589 -3487.345 -691.4307 -3487.039 -691.4307 L -3484.073 -691.4307 C -3483.7365 -691.4307 -3483.4613 -691.1589 -3483.4613 -690.8267 Z M -3468.543 -675.0022 C -3468.543 -674.67 -3468.8184 -674.3982 -3469.1548 -674.3982 L -3471.754 -674.3982 C -3472.0904 -674.3982 -3472.3656 -674.67 -3472.3656 -675.0022 L -3472.3656 -675.4854 C -3473.7723 -674.6398 -3475.2095 -674.1566 -3476.6773 -674.1566 C -3479.2154 -674.1566 -3481.9676 -675.123 -3481.9676 -679.1999 L -3481.9676 -679.3207 C -3481.9676 -682.7635 -3479.827 -684.5452 -3474.506 -684.5452 L -3472.5796 -684.5452 L -3472.5796 -685.874 C -3472.5796 -687.837 -3473.4664 -688.3202 -3475.2706 -688.3202 C -3477.2277 -688.3202 -3479.246 -688.1994 -3480.255 -688.0786 L -3480.408 -688.0786 C -3480.7138 -688.0786 -3480.9584 -688.1692 -3480.9584 -688.5919 L -3480.9584 -690.5247 C -3480.9584 -690.8569 -3480.775 -691.0683 -3480.3774 -691.1589 C -3479.1543 -691.4005 -3477.3806 -691.6421 -3475.2706 -691.6421 C -3470.9284 -691.6421 -3468.543 -689.7395 -3468.543 -685.874 L -3468.543 -675.0022 Z M -3472.5796 -678.1732 L -3472.5796 -681.8876 L -3474.506 -681.8876 C -3477.289 -681.8876 -3477.9005 -681.01185 -3477.9005 -679.3207 L -3477.9005 -679.19985 C -3477.9005 -677.7201 -3477.2277 -677.3275 -3475.6987 -677.3275 C -3474.598 -677.3275 -3473.4664 -677.68986 -3472.5796 -678.1731 Z M -3460.5666 -675.0324 C -3460.5666 -674.7002 -3460.8112 -674.3982 -3461.1476 -674.3982 L -3463.9915 -674.3982 C -3464.328 -674.3982 -3464.603 -674.7002 -3464.603 -675.0324 L -3464.603 -696.776 C -3464.603 -697.1082 -3464.328 -697.38 -3463.9915 -697.38 L -3461.1476 -697.38 C -3460.8112 -697.38 -3460.5667 -697.1082 -3460.5667 -696.776 L -3460.5667 -675.0324 Z M -3442.7435 -674.7606 C -3442.7435 -674.5794 -3442.927 -674.3982 -3443.1716 -674.3982 L -3446.9023 -674.3982 C -3447.2387 -674.3982 -3447.6056 -674.7304 -3447.789 -675.0022 L -3452.59 -681.8877 L -3452.59 -675.0324 C -3452.59 -674.7002 -3452.8653 -674.3982 -3453.2017 -674.3982 L -3456.015 -674.3982 C -3456.3514 -674.3982 -3456.6266 -674.7002 -3456.6266 -675.0324 L -3456.6266 -696.776 C -3456.6266 -697.1082 -3456.3514 -697.38 -3456.015 -697.38 L -3453.2017 -697.38 C -3452.8653 -697.38 -3452.59 -697.1082 -3452.59 -696.776 L -3452.59 -684.18285 L -3447.361 -691.0683 C -3447.147 -691.3401 -3446.841 -691.4307 -3446.6577 -691.4307 L -3443.2328 -691.4307 C -3442.927 -691.4307 -3442.774 -691.3099 -3442.774 -691.0985 C -3442.774 -691.0079 -3442.8047 -690.9173 -3442.8964 -690.7965 L -3449.043 -683.33725 L -3442.8352 -675.0022 C -3442.774 -674.9116 -3442.7435 -674.8512 -3442.7435 -674.7606 Z M -3435.8067 -694.2997 C -3435.8067 -693.9675 -3436.082 -693.6957 -3436.4183 -693.6957 L -3439.3845 -693.6957 C -3439.721 -693.6957 -3440.0266 -693.9675 -3440.0266 -694.2997 L -3440.0266 -696.9572 C -3440.0266 -697.2894 -3439.721 -697.5612 -3439.3845 -697.5612 L -3436.4183 -697.5612 C -3436.082 -697.5612 -3435.8067 -697.2894 -3435.8067 -696.9572 L -3435.8067 -694.2997 Z M -3435.8984 -675.0324 C -3435.8984 -674.7002 -3436.1736 -674.3982 -3436.51 -674.3982 L -3439.3233 -674.3982 C -3439.6597 -674.3982 -3439.935 -674.7002 -3439.935 -675.0324 L -3439.935 -690.8267 C -3439.935 -691.1589 -3439.6597 -691.4307 -3439.3233 -691.4307 L -3436.51 -691.4307 C -3436.1736 -691.4307 -3435.8984 -691.1589 -3435.8984 -690.8267 L -3435.8984 -675.03235 Z M -3417.8918 -675.0324 C -3417.8918 -674.7002 -3418.167 -674.3982 -3418.5034 -674.3982 L -3421.3167 -674.3982 C -3421.653 -674.3982 -3421.9283 -674.7002 -3421.9283 -675.0324 L -3421.9283 -684.8774 C -3421.9283 -687.5048 -3422.173 -688.25974 -3424.5276 -688.25974 C -3425.5673 -688.25974 -3426.6987 -687.83694 -3427.983 -687.1726 L -3427.983 -675.03235 C -3427.983 -674.70016 -3428.2582 -674.39815 -3428.5946 -674.39815 L -3431.408 -674.39815 C -3431.7443 -674.39815 -3432.0195 -674.70016 -3432.0195 -675.03235 L -3432.0195 -690.8267 C -3432.0195 -691.1589 -3431.7443 -691.4307 -3431.408 -691.4307 L -3428.7475 -691.4307 C -3428.411 -691.4307 -3428.136 -691.1589 -3428.136 -690.8267 L -3428.136 -690.1925 C -3426.3623 -691.3099 -3425.2003 -691.6421 -3423.182 -691.6421 C -3418.7786 -691.6421 -3417.8918 -688.7127 -3417.8918 -684.8774 L -3417.8918 -675.03235 Z M -3399.09 -689.3469 C -3399.09 -688.89395 -3399.2124 -688.8336 -3399.5794 -688.68255 L -3400.5885 -688.29 C -3400.0992 -687.59536 -3399.824 -686.931 -3399.824 -685.874 L -3399.824 -685.6626 C -3399.824 -681.8877 -3402.454 -680.1663 -3407.0714 -680.1663 C -3408.692 -680.1663 -3409.793 -680.4381 -3410.4045 -680.6797 C -3410.7715 -680.4381 -3410.9244 -680.1663 -3410.9244 -679.8945 C -3410.9244 -679.2905 -3410.588 -679.0489 -3409.8847 -678.8979 L -3406.2763 -678.0523 C -3402.1175 -677.0859 -3399.4265 -676.4518 -3399.4265 -673.2204 L -3399.4265 -673.009 C -3399.4265 -669.9287 -3401.72 -668.2677 -3406.9185 -668.2677 C -3411.8724 -668.2677 -3414.502 -670.10986 -3414.502 -673.2808 L -3414.502 -673.5526 C -3414.502 -674.7908 -3413.921 -675.99875 -3412.9426 -676.8745 C -3413.799 -677.5087 -3414.3187 -678.5657 -3414.3187 -679.6529 L -3414.3187 -679.6831 C -3414.3187 -680.6193 -3413.921 -681.5555 -3413.0956 -682.1293 C -3414.013 -683.0654 -3414.3493 -684.1526 -3414.3493 -685.6626 L -3414.3493 -685.874 C -3414.3493 -688.89395 -3412.3616 -691.4307 -3407.0714 -691.4307 L -3399.9158 -691.4307 C -3399.6965 -691.4316 -3399.486 -691.346 -3399.331 -691.1929 C -3399.176 -691.0398 -3399.089 -690.8319 -3399.09 -690.6153 L -3399.09 -689.3469 Z M -3403.7994 -685.572 L -3403.7994 -685.8136 C -3403.7994 -687.2632 -3404.4416 -688.3805 -3407.0714 -688.3805 C -3409.6707 -688.3805 -3410.374 -687.233 -3410.374 -685.8136 L -3410.374 -685.572 C -3410.374 -684.4546 -3409.9153 -683.1862 -3407.0714 -683.1862 C -3404.5333 -683.1862 -3403.7994 -684.062 -3403.7994 -685.572 Z M -3403.463 -673.009 L -3403.463 -673.2204 C -3403.463 -673.8848 -3403.8606 -674.2774 -3407.0714 -675.0324 L -3409.793 -675.6666 C -3410.2517 -675.0324 -3410.5575 -674.6398 -3410.5575 -673.5526 L -3410.5575 -673.2808 C -3410.5575 -672.04265 -3409.793 -671.28765 -3406.9185 -671.28765 C -3403.983 -671.28765 -3403.463 -671.92186 -3403.463 -673.009 Z M -3537.133 -684.41746 C -3537.133 -681.3673 -3539.0595 -678.1058 -3545.1753 -678.1058 C -3547.4688 -678.1058 -3549.12 -678.3172 -3550.588 -678.6494 C -3550.8937 -678.7097 -3551.169 -678.9211 -3551.169 -679.2533 L -3551.169 -681.4277 C -3551.169 -681.7599 -3550.8937 -682.0015 -3550.588 -682.0015 L -3550.5267 -682.0015 C -3549.3036 -681.8505 -3546.2456 -681.6995 -3545.114 -681.6995 C -3542.3926 -681.6995 -3541.567 -682.6659 -3541.567 -684.41746 C -3541.567 -685.59525 -3542.148 -686.1992 -3544.166 -687.377 L -3548.2027 -689.76275 C -3551.0466 -691.4237 -3551.811 -693.1753 -3551.811 -695.2893 C -3551.811 -698.61125 -3549.854 -701.0272 -3544.166 -701.0272 C -3542.148 -701.0272 -3539.3347 -700.72525 -3538.295 -700.4836 C -3537.989 -700.42324 -3537.7445 -700.21184 -3537.7445 -699.9099 L -3537.7445 -697.6751 C -3537.7445 -697.3731 -3537.9585 -697.1315 -3538.2644 -697.1315 L -3538.3255 -697.1315 C -3540.3438 -697.3127 -3542.362 -697.4335 -3544.3496 -697.4335 C -3546.6126 -697.4335 -3547.5606 -696.6483 -3547.5606 -695.2893 C -3547.5606 -694.2928 -3547.0406 -693.68875 -3545.053 -692.6016 L -3541.3835 -690.5782 C -3538.0197 -688.7361 -3537.133 -686.8033 -3537.133 -684.4175 Z M -3520.0743 -678.7097 C -3520.0743 -678.5286 -3520.2577 -678.3474 -3520.5024 -678.3474 L -3524.233 -678.3474 C -3524.5695 -678.3474 -3524.9365 -678.67955 -3525.12 -678.9514 L -3529.921 -685.8368 L -3529.921 -678.98156 C -3529.921 -678.6494 -3530.196 -678.34736 -3530.5324 -678.34736 L -3533.3458 -678.34736 C -3533.682 -678.34736 -3533.9574 -678.6494 -3533.9574 -678.98156 L -3533.9574 -700.7252 C -3533.9574 -701.0574 -3533.682 -701.3292 -3533.3458 -701.3292 L -3530.5324 -701.3292 C -3530.196 -701.3292 -3529.921 -701.0574 -3529.921 -700.7252 L -3529.921 -688.132 L -3524.6918 -695.0174 C -3524.4777 -695.2892 -3524.172 -695.3798 -3523.9885 -695.3798 L -3520.5635 -695.3798 C -3520.2577 -695.3798 -3520.105 -695.259 -3520.105 -695.0476 C -3520.105 -694.957 -3520.1354 -694.86646 -3520.227 -694.7456 L -3526.3736 -687.2864 L -3520.166 -678.9513 C -3520.105 -678.8608 -3520.0743 -678.8004 -3520.0743 -678.7097 Z M -3502.985 -694.8665 C -3502.985 -694.8061 -3502.985 -694.7457 -3503.0156 -694.6853 L -3508.1224 -677.0488 C -3509.0703 -673.75706 -3510.2018 -672.3075 -3514.3606 -672.3075 C -3515.3697 -672.3075 -3516.8987 -672.48865 -3517.602 -672.70005 C -3517.9384 -672.7907 -3518.2442 -672.91145 -3518.2442 -673.2135 L -3518.2442 -675.1462 C -3518.2442 -675.4784 -3517.969 -675.6898 -3517.6326 -675.6898 L -3517.5714 -675.6898 C -3516.715 -675.6596 -3514.972 -675.5086 -3514.116 -675.5086 C -3512.801 -675.5086 -3512.1283 -675.871 -3511.7 -677.4414 L -3511.4556 -678.34736 L -3511.9143 -678.34736 C -3512.801 -678.34736 -3513.902 -678.55876 -3514.5747 -680.8539 L -3518.5806 -694.6853 C -3518.611 -694.7759 -3518.611 -694.8363 -3518.611 -694.8967 C -3518.611 -695.1987 -3518.4277 -695.3799 -3518.03 -695.3799 L -3514.9416 -695.3799 C -3514.6664 -695.3799 -3514.4218 -695.1081 -3514.3606 -694.8363 L -3511.272 -682.5451 C -3511.1498 -682.0317 -3511.0275 -681.8807 -3510.844 -681.8807 L -3510.5688 -681.8807 L -3507.266 -694.8665 C -3507.205 -695.1383 -3506.9604 -695.3799 -3506.6546 -695.3799 L -3503.5355 -695.3799 C -3503.2297 -695.3799 -3502.985 -695.1383 -3502.985 -694.8665 Z"/></g><g id="Graphic_162"><path fill="#d8d8d8" d="M -3408.6154 -701.9581 C -3407.7866 -702.1403 -3406.929 -702.2544 -3406.069 -702.29885 C -3397.4437 -702.7452 -3390.0777 -696.15825 -3389.623 -687.5927 C -3389.4675 -684.6611 -3390.1756 -681.753 -3391.6035 -679.2255 C -3385.5168 -681.3689 -3381.3984 -687.2316 -3381.7536 -693.92654 C -3382.186 -702.07695 -3389.2092 -708.3572 -3397.416 -707.9324 C -3401.9035 -707.7002 -3406.0033 -705.4507 -3408.6154 -701.9581 Z"/></g></g></g><g id="Graphic_164"><rect width="170.079" height="56.693" x="-3551.811" y="-914.74" fill="#f15623"/><text fill="#fff" transform="translate(-3546.811 -905.8578)"><tspan x="6.423" y="16" fill="#fff" font-family="Helvetica Neue" font-size="16" font-weight="bold">Management Plane</tspan> <tspan x="45.815" y="35.464" fill="#fff" font-family="Helvetica Neue" font-size="16" font-weight="bold">Operator</tspan></text></g><g id="Group_244"><g id="Group_169"><g id="Group_166"><g id="Graphic_168"><path fill="#326ce5" d="M -3665.7403 -1050.4122 C -3666.3893 -1050.3756 -3667.024 -1050.2141 -3667.607 -1049.9372 L -3692.885 -1038.3536 C -3694.2053 -1037.75 -3695.1647 -1036.6017 -3695.4936 -1035.2333 L -3701.681 -1009.2356 C -3701.976 -1008.0154 -3701.7377 -1006.7363 -3701.0006 -1005.6904 C -3700.9144 -1005.564 -3700.8236 -1005.442 -3700.7284 -1005.3243 L -3683.264 -984.4626 C -3682.3407 -983.373 -3680.955 -982.7477 -3679.494 -982.7542 L -3651.483 -982.7542 C -3650.0176 -982.752 -3648.6295 -983.4079 -3647.7086 -984.4822 L -3630.253 -1005.3483 C -3629.337 -1006.4378 -3628.9943 -1007.8759 -3629.346 -1009.24 L -3635.574 -1035.2595 C -3635.903 -1036.6279 -3636.867 -1037.7762 -3638.1825 -1038.3798 L -3663.42 -1049.935 C -3664.147 -1050.2796 -3664.9527 -1050.4437 -3665.763 -1050.4122 Z"/></g><g id="Graphic_167"><path fill="#fff" d="M -3665.509 -1041.5524 C -3666.38 -1041.4936 -3667.04 -1040.7767 -3666.9945 -1039.94 L -3666.9945 -1039.5303 C -3666.9537 -1039.0662 -3666.881 -1038.6064 -3666.786 -1038.151 C -3666.6468 -1037.2789 -3666.5966 -1036.3959 -3666.636 -1035.5144 C -3666.7224 -1035.2246 -3666.8947 -1034.9631 -3667.1306 -1034.7626 L -3667.1646 -1034.1482 C -3668.0832 -1034.0741 -3668.995 -1033.939 -3669.893 -1033.7429 C -3673.672 -1032.9236 -3677.1126 -1031.0409 -3679.7686 -1028.328 L -3680.313 -1028.6985 C -3680.6124 -1028.6113 -3680.9344 -1028.644 -3681.209 -1028.7856 C -3681.945 -1029.3091 -3682.6265 -1029.9003 -3683.2434 -1030.5506 C -3683.5533 -1030.9064 -3683.8842 -1031.2447 -3684.2346 -1031.5639 L -3684.5702 -1031.821 C -3684.8696 -1032.052 -3685.237 -1032.1849 -3685.6204 -1032.2023 C -3686.0844 -1032.226 -3686.532 -1032.0348 -3686.8248 -1031.6881 C -3687.3374 -1030.9973 -3687.1695 -1030.0407 -3686.453 -1029.5461 L -3686.14 -1029.3064 C -3685.737 -1029.0489 -3685.319 -1028.8139 -3684.888 -1028.6026 C -3684.085 -1028.1733 -3683.3273 -1027.67 -3682.624 -1027.0773 C -3682.4443 -1026.8309 -3682.34 -1026.5411 -3682.3225 -1026.2406 L -3681.828 -1025.8048 C -3684.4977 -1021.9567 -3685.593 -1017.2958 -3684.908 -1012.7177 L -3685.5433 -1012.5434 C -3685.709 -1012.2906 -3685.929 -1012.0749 -3686.192 -1011.9158 C -3687.078 -1011.6885 -3687.985 -1011.5447 -3688.9 -1011.4865 C -3689.3857 -1011.4771 -3689.8704 -1011.4407 -3690.3517 -1011.3776 L -3690.753 -1011.2904 L -3690.7985 -1011.2904 C -3691.3667 -1011.2147 -3691.842 -1010.838 -3692.0276 -1010.3166 C -3692.213 -1009.7952 -3692.0773 -1009.2178 -3691.6763 -1008.8238 C -3691.2715 -1008.4317 -3690.671 -1008.2926 -3690.125 -1008.4643 L -3690.0954 -1008.4643 L -3689.687 -1008.5078 C -3689.2267 -1008.6386 -3688.773 -1008.7998 -3688.331 -1008.9829 C -3687.4803 -1009.3097 -3686.598 -1009.5603 -3685.6952 -1009.7237 C -3685.3822 -1009.7063 -3685.083 -1009.6039 -3684.829 -1009.4296 L -3684.1484 -1009.5385 C -3682.674 -1005.1435 -3679.576 -1001.4196 -3675.4388 -999.0728 L -3675.7155 -998.5171 C -3675.5885 -998.2622 -3675.541 -997.9789 -3675.5794 -997.6978 C -3675.9536 -996.8654 -3676.412 -996.0679 -3676.947 -995.3183 C -3677.2407 -994.9465 -3677.512 -994.5587 -3677.759 -994.1569 L -3677.952 -993.7647 C -3678.237 -993.2894 -3678.221 -992.7006 -3677.91 -992.2405 C -3677.599 -991.7804 -3677.0455 -991.5266 -3676.4776 -991.5835 C -3675.908 -991.6451 -3675.4232 -992.009 -3675.2233 -992.5249 L -3675.035 -992.8953 C -3674.8627 -993.3311 -3674.7175 -993.7756 -3674.5996 -994.2245 C -3674.198 -995.1767 -3673.9804 -996.1987 -3673.4315 -996.8306 C -3673.252 -996.9926 -3673.026 -997.0989 -3672.783 -997.1356 L -3672.4426 -997.7305 C -3667.958 -996.0745 -3662.9956 -996.0629 -3658.5027 -997.6978 L -3658.201 -997.1422 C -3657.8925 -997.0986 -3657.616 -996.9352 -3657.43 -996.6955 C -3657.0034 -995.9154 -3656.6587 -995.0983 -3656.3956 -994.255 C -3656.2756 -993.8035 -3656.1287 -993.3589 -3655.9556 -992.9236 L -3655.7673 -992.5532 C -3655.5654 -992.0394 -3655.0805 -991.6778 -3654.5122 -991.6176 C -3653.944 -991.5573 -3653.3887 -991.8086 -3653.075 -992.2677 C -3652.7644 -992.7297 -3652.7504 -993.3201 -3653.0387 -993.7952 L -3653.236 -994.1874 C -3653.4833 -994.5878 -3653.7544 -994.9741 -3654.048 -995.3445 C -3654.5697 -996.0679 -3655.019 -996.8393 -3655.409 -997.6477 C -3655.4825 -997.9463 -3655.427 -998.2608 -3655.2547 -998.5193 C -3655.3515 -998.7094 -3655.4356 -998.9051 -3655.5065 -999.1055 C -3651.3785 -1001.4697 -3648.294 -1005.2067 -3646.8354 -1009.6082 L -3646.1913 -1009.4993 C -3645.96 -1009.702 -3645.656 -1009.8087 -3645.3453 -1009.8 C -3644.445 -1009.6344 -3643.5625 -1009.3642 -3642.7097 -1009.0591 C -3642.2674 -1008.863 -3641.8138 -1008.6974 -3641.3533 -1008.558 C -3641.2445 -1008.5296 -3641.0857 -1008.5057 -3640.9632 -1008.4773 L -3640.9337 -1008.4773 C -3640.388 -1008.308 -3639.789 -1008.4484 -3639.386 -1008.8404 C -3638.9826 -1009.2324 -3638.8435 -1009.8092 -3639.0262 -1010.3317 C -3639.213 -1010.8537 -3639.6906 -1011.2297 -3640.26 -1011.3035 L -3640.7 -1011.4037 C -3641.1814 -1011.4668 -3641.666 -1011.5032 -3642.1517 -1011.5127 C -3643.068 -1011.5693 -3643.9753 -1011.7132 -3644.86 -1011.942 C -3645.132 -1012.088 -3645.359 -1012.3059 -3645.513 -1012.5695 L -3646.1255 -1012.7438 C -3645.4725 -1017.3198 -3646.591 -1021.9667 -3649.269 -1025.8026 L -3648.734 -1026.2776 C -3648.7565 -1026.5761 -3648.6544 -1026.8725 -3648.4526 -1027.1013 C -3647.7563 -1027.6765 -3647.001 -1028.1842 -3646.207 -1028.6179 C -3645.776 -1028.8292 -3645.358 -1029.0642 -3644.955 -1029.3217 L -3644.624 -1029.5788 C -3644.1264 -1029.8755 -3643.8505 -1030.4205 -3643.915 -1030.9798 C -3643.9794 -1031.539 -3644.3726 -1032.0129 -3644.9256 -1032.198 C -3645.4783 -1032.3828 -3646.0922 -1032.2463 -3646.5043 -1031.8471 L -3646.84 -1031.59 C -3647.1902 -1031.2707 -3647.521 -1030.9324 -3647.831 -1030.5768 C -3648.43 -1029.9187 -3649.092 -1029.3195 -3649.811 -1028.7835 C -3650.1013 -1028.67 -3650.4187 -1028.6368 -3650.7275 -1028.6876 L -3651.3014 -1028.2954 C -3654.613 -1031.6292 -3659.0742 -1033.6993 -3663.8554 -1034.1133 C -3663.8554 -1034.3312 -3663.885 -1034.658 -3663.8895 -1034.7605 C -3664.1458 -1034.9304 -3664.325 -1035.1897 -3664.384 -1035.4839 C -3664.4154 -1036.3639 -3664.3576 -1037.2447 -3664.2115 -1038.114 C -3664.114 -1038.5715 -3664.046 -1039.0291 -3664.003 -1039.4933 L -3664.003 -1039.929 C -3663.9575 -1040.7658 -3664.6153 -1041.4827 -3665.4885 -1041.5415 Z M -3667.4005 -1030.2957 L -3667.854 -1022.6844 L -3667.888 -1022.6844 C -3667.911 -1022.2138 -3668.199 -1021.8128 -3668.641 -1021.5862 C -3669.0835 -1021.3596 -3669.6074 -1021.4272 -3670.002 -1021.7039 L -3676.5003 -1026.1273 C -3674.432 -1028.0789 -3671.837 -1029.4366 -3669.0086 -1030.0473 C -3668.478 -1030.1562 -3667.9426 -1030.239 -3667.405 -1030.2957 Z M -3663.6173 -1030.2957 C -3660.2038 -1029.8882 -3657.026 -1028.4152 -3654.5675 -1026.1033 L -3661.0044 -1021.7082 C -3661.4013 -1021.4032 -3661.9457 -1021.3422 -3662.406 -1021.5514 C -3662.8665 -1021.7605 -3663.1614 -1022.205 -3663.168 -1022.6932 Z M -3678.859 -1023.264 L -3672.9166 -1018.1695 L -3672.9166 -1018.1369 C -3672.547 -1017.8274 -3672.386 -1017.3459 -3672.4947 -1016.8861 C -3672.6036 -1016.4263 -3672.971 -1016.0624 -3673.4405 -1015.9382 L -3673.4405 -1015.9165 L -3681.066 -1013.8094 C -3681.4433 -1017.1099 -3680.666 -1020.4371 -3678.857 -1023.2662 Z M -3652.202 -1023.264 C -3650.3964 -1020.4422 -3649.598 -1017.1323 -3649.929 -1013.8355 L -3657.566 -1015.9491 L -3657.566 -1015.9775 C -3658.0422 -1016.1017 -3658.405 -1016.4656 -3658.5117 -1016.9253 C -3658.6183 -1017.3851 -3658.4596 -1017.8623 -3658.09 -1018.1761 L -3652.1927 -1023.2466 Z M -3666.727 -1017.773 L -3664.2955 -1017.773 L -3662.81 -1015.96 L -3663.3496 -1013.6939 L -3665.534 -1012.685 L -3667.7226 -1013.6939 L -3668.2375 -1015.96 Z M -3658.938 -1011.589 C -3658.836 -1011.5999 -3658.7113 -1011.5999 -3658.632 -1011.589 L -3650.7683 -1010.3142 C -3651.9024 -1007.1765 -3654.141 -1004.4963 -3657.0624 -1002.703 L -3660.1017 -1009.7717 C -3660.2713 -1010.1565 -3660.2356 -1010.5965 -3660.006 -1010.9515 C -3659.7763 -1011.3064 -3659.3815 -1011.532 -3658.947 -1011.5563 Z M -3672.1454 -1011.5563 C -3671.701 -1011.5497 -3671.2904 -1011.3297 -3671.0477 -1010.9723 C -3670.805 -1010.615 -3670.7664 -1010.1661 -3670.941 -1009.7738 L -3670.941 -1009.7455 L -3673.962 -1002.7335 C -3676.854 -1004.5137 -3679.0496 -1007.1612 -3680.2177 -1010.2663 L -3672.422 -1011.5367 C -3672.336 -1011.5454 -3672.2475 -1011.5454 -3672.159 -1011.5367 Z M -3665.559 -1008.5057 C -3665.0534 -1008.521 -3664.5822 -1008.2613 -3664.341 -1007.8345 L -3664.3113 -1007.8345 L -3660.469 -1001.1733 L -3662.0046 -1000.7375 C -3664.8307 -1000.1165 -3667.7816 -1000.2625 -3670.5283 -1001.1603 L -3666.6725 -1007.8215 C -3666.439 -1008.2137 -3666.008 -1008.4534 -3665.5384 -1008.4643 Z"/></g></g><g id="Graphic_165"><text fill="#000" transform="translate(-3709.803 -977.7542)"><tspan x="0" y="16" fill="#000" font-family="Helvetica Neue" font-size="16" font-weight="bold">Kubernetes</tspan> <tspan x="4.136" y="35.464" fill="#000" font-family="Helvetica Neue" font-size="16" font-weight="bold">API Server</tspan></text></g></g></g><g id="Graphic_170"><rect width="170.079" height="56.693" x="-3551.811" y="-829.134" fill="#f15623"/><text fill="#fff" transform="translate(-3546.811 -820.2515)"><tspan x="33.367" y="16" fill="#fff" font-family="Helvetica Neue" font-size="16" font-weight="bold">XCP Central</tspan> <tspan x="45.815" y="35.464" fill="#fff" font-family="Helvetica Neue" font-size="16" font-weight="bold">Operator</tspan></text></g><g id="Line_171"><path stroke="#000" stroke-dasharray="8 8" stroke-linecap="round" stroke-linejoin="round" stroke-width="2" marker-end="url(#FilledArrow_Marker)" d="M -3665.507 -933.826 L -3665.507 -922.826 L -3665.062 -887.2441 L -3665.062 -886.3937 L -3564.711 -886.3937"/></g><g id="Line_173"><path stroke="#000" stroke-dasharray="8 8" stroke-linecap="round" stroke-linejoin="round" stroke-width="2" marker-end="url(#FilledArrow_Marker)" d="M -3665.507 -933.826 L -3665.507 -801.2185 L -3593.7 -801.2185 L -3570.711 -800.7874 L -3564.711 -800.7874"/></g><g id="Line_174"><path stroke="#000" stroke-dasharray="8 8" stroke-linecap="round" stroke-linejoin="round" stroke-width="2" marker-end="url(#FilledArrow_Marker)" d="M -3717.2395 -975 L -3793.458 -975 L -3793.458 -800.7874 L -3900.3284 -800.7874"/></g><g id="Line_176"><path stroke="#000" stroke-dasharray="8 8" stroke-linecap="round" stroke-linejoin="round" stroke-width="2" marker-end="url(#FilledArrow_Marker)" d="M -3913.2284 -915.5906 L -3852.6316 -915.5906 L -3852.6316 -994.9556 L -3730.1395 -994.9556"/></g><g id="Graphic_177"><rect width="124.656" height="28.448" x="-3727.835" y="-924.611" fill="#f2f2f2"/><text fill="#000" transform="translate(-3722.835 -919.6111)"><tspan x="0" y="15" fill="#000" font-family="Helvetica Neue" font-size="16">CRD/Webhooks</tspan></text></g><g id="Graphic_178"><rect width="170.079" height="39.685" x="-4083.307" y="-1156.535" fill="#f15623"/><text fill="#fff" transform="translate(-4078.307 -1146.425)"><tspan x="43.007" y="16" fill="#fff" font-family="Helvetica Neue" font-size="16" font-weight="bold">teamsync</tspan></text></g><g id="Graphic_179"><rect width="170.079" height="39.685" x="-3750.547" y="-1156.535" fill="#333"/><text fill="#fff" transform="translate(-3745.5466 -1146.425)"><tspan x="27.903" y="16" fill="#fff" font-family="Helvetica Neue" font-size="16" font-weight="bold">cert-manager</tspan></text></g><g id="Group_207"><g id="Graphic_206"><rect width="170.079" height="46.063" x="-3901.669" y="-1298.622" fill="#fff"/></g><g id="Group_197"><g id="Graphic_196"><path fill="#231f20" d="M -3858.2053 -1275.7202 L -3864.627 -1275.7202 L -3864.627 -1283.221 L -3857.8567 -1283.221 C -3855.3787 -1283.221 -3854.1397 -1281.9516 -3854.1397 -1279.4122 C -3854.1397 -1276.9504 -3855.4954 -1275.719 -3858.2053 -1275.7202 Z M -3853.59 -1283.3085 C -3854.4756 -1284.2237 -3855.7013 -1284.6814 -3857.2834 -1284.6814 L -3866.4795 -1284.6223 L -3866.4795 -1266.6768 L -3864.627 -1266.6768 L -3864.6434 -1274.3165 L -3857.8003 -1274.3165 C -3856.085 -1274.3165 -3854.7334 -1274.7741 -3853.748 -1275.6894 C -3852.7623 -1276.6046 -3852.269 -1277.8747 -3852.269 -1279.4989 C -3852.269 -1281.1231 -3852.709 -1282.3926 -3853.589 -1283.3085 Z M -3841.5972 -1270.4452 C -3841.7744 -1269.8582 -3842.077 -1269.3329 -3842.4766 -1268.9187 C -3843.3066 -1267.9777 -3844.573 -1267.5079 -3846.276 -1267.5079 C -3847.8145 -1267.5079 -3848.9943 -1267.9578 -3849.8177 -1268.8795 C -3850.641 -1269.8012 -3851.0534 -1271.0179 -3851.0534 -1272.5515 C -3851.0534 -1273.3498 -3850.9455 -1274.0587 -3850.7303 -1274.677 C -3850.515 -1275.2954 -3850.2023 -1275.8173 -3849.793 -1276.2428 C -3848.9406 -1277.1445 -3847.7686 -1277.5958 -3846.2755 -1277.5958 C -3842.9685 -1277.5958 -3841.3145 -1275.9143 -3841.3145 -1272.5515 C -3841.3145 -1271.7525 -3841.4085 -1271.0507 -3841.5972 -1270.4452 Z M -3841.2553 -1277.0655 C -3842.384 -1278.261 -3844.0554 -1278.8652 -3846.27 -1278.8652 C -3848.362 -1278.8652 -3849.979 -1278.2546 -3851.1187 -1277.0333 C -3852.148 -1275.9278 -3852.668 -1274.4367 -3852.668 -1272.5586 C -3852.668 -1270.6946 -3852.137 -1269.1906 -3851.0745 -1268.0465 C -3850.488 -1267.4294 -3849.8045 -1266.9821 -3849.0236 -1266.7057 C -3848.243 -1266.4293 -3847.327 -1266.2911 -3846.2755 -1266.2911 C -3844.073 -1266.2911 -3842.402 -1266.8825 -3841.244 -1268.0651 C -3840.215 -1269.145 -3839.6947 -1270.6361 -3839.6947 -1272.5592 C -3839.6947 -1274.4874 -3840.215 -1275.9915 -3841.2553 -1277.0726 Z M -3827.2447 -1269.9265 C -3827.2447 -1267.511 -3829.108 -1266.3033 -3832.834 -1266.3033 C -3833.9728 -1266.3033 -3834.9323 -1266.3869 -3835.7115 -1266.5553 C -3836.4906 -1266.7237 -3837.1243 -1267.002 -3837.6107 -1267.3896 C -3837.986 -1267.6846 -3838.2937 -1268.0818 -3838.5066 -1268.5465 C -3838.728 -1269.0222 -3838.872 -1269.6199 -3838.9382 -1270.3462 L -3837.2045 -1270.3655 C -3837.2045 -1269.4142 -3836.9012 -1268.715 -3836.294 -1268.265 C -3835.643 -1267.7251 -3834.49 -1267.4552 -3832.834 -1267.4552 C -3830.2297 -1267.4552 -3828.927 -1268.2136 -3828.927 -1269.7292 C -3828.927 -1270.6162 -3829.3697 -1271.2255 -3830.2374 -1271.561 C -3830.4145 -1271.6253 -3831.4676 -1271.7956 -3833.3917 -1272.0714 C -3835.316 -1272.3471 -3836.524 -1272.5952 -3836.9986 -1272.8137 C -3838.027 -1273.2894 -3838.541 -1274.1442 -3838.541 -1275.377 C -3838.541 -1276.5854 -3838.0816 -1277.4852 -3837.1575 -1278.0752 C -3836.7037 -1278.3195 -3836.1365 -1278.5085 -3835.4553 -1278.644 C -3834.774 -1278.7797 -3833.9855 -1278.8465 -3833.089 -1278.8465 C -3829.502 -1278.8465 -3827.7085 -1277.5392 -3827.7085 -1274.9258 L -3829.3575 -1274.9258 C -3829.3575 -1276.764 -3830.6193 -1277.6896 -3833.14 -1277.6896 C -3834.4227 -1277.6896 -3835.3794 -1277.4968 -3836.0098 -1277.1304 C -3836.64 -1276.764 -3836.955 -1276.1856 -3836.955 -1275.4143 C -3836.955 -1274.6944 -3836.529 -1274.1738 -3835.6777 -1273.8524 C -3835.1797 -1273.6853 -3834.0353 -1273.4925 -3832.2434 -1273.274 C -3830.6397 -1273.1068 -3829.539 -1272.869 -3828.942 -1272.5669 C -3827.802 -1272.0527 -3827.233 -1271.1786 -3827.233 -1269.9464 Z M -3820.435 -1266.653 L -3821.1404 -1266.5373 L -3821.5803 -1266.4987 C -3822.709 -1266.4987 -3823.517 -1266.6884 -3824.0224 -1267.0689 C -3824.5276 -1267.4494 -3824.771 -1268.1146 -3824.771 -1269.0614 L -3824.771 -1277.2596 L -3826.822 -1277.2596 L -3826.822 -1278.4641 L -3824.7816 -1278.4641 L -3824.765 -1282.3334 L -3823.1846 -1282.3334 L -3823.1846 -1278.4641 L -3820.432 -1278.4641 L -3820.432 -1277.2403 L -3823.1846 -1277.2596 L -3823.1846 -1269.2915 C -3823.1846 -1268.6982 -3823.049 -1268.2888 -3822.778 -1268.0703 C -3822.5067 -1267.8517 -3822.023 -1267.7322 -3821.3258 -1267.7322 C -3821.226 -1267.7193 -3821.1155 -1267.7232 -3820.9937 -1267.745 C -3820.809 -1267.7832 -3820.6264 -1267.8317 -3820.446 -1267.8903 L -3820.4293 -1266.669 Z M -3809.5028 -1269.3718 C -3809.9344 -1268.9605 -3810.426 -1268.6468 -3810.9786 -1268.427 C -3811.5315 -1268.2072 -3812.1673 -1268.1056 -3812.8856 -1268.1056 C -3816.1915 -1268.1056 -3817.844 -1269.6913 -3817.844 -1272.862 C -3817.844 -1274.3383 -3817.421 -1275.494 -3816.575 -1276.3289 C -3815.729 -1277.1638 -3814.5385 -1277.581 -3813.0012 -1277.581 C -3811.4534 -1277.581 -3810.2786 -1277.16 -3809.4773 -1276.3193 C -3808.676 -1275.4785 -3808.275 -1274.3512 -3808.275 -1272.9384 C -3808.275 -1271.3978 -3808.6843 -1270.21 -3809.5028 -1269.3718 Z M -3806.694 -1278.4609 L -3808.2742 -1278.4609 L -3808.291 -1276.4362 C -3808.988 -1277.259 -3809.486 -1277.7776 -3809.785 -1277.9962 C -3810.6704 -1278.5618 -3811.815 -1278.8433 -3813.22 -1278.8433 C -3815.2773 -1278.8433 -3816.849 -1278.297 -3817.9324 -1277.2056 C -3818.9617 -1276.2029 -3819.4752 -1274.7522 -3819.4752 -1272.8516 C -3819.4752 -1271.9132 -3819.345 -1271.0764 -3819.085 -1270.345 C -3818.825 -1269.6135 -3818.4454 -1268.9804 -3817.947 -1268.4668 C -3816.861 -1267.414 -3815.3265 -1266.887 -3813.3427 -1266.887 C -3810.961 -1266.887 -3809.2714 -1267.6435 -3808.2737 -1269.1571 L -3808.2737 -1267.0618 C -3808.2737 -1265.7249 -3808.636 -1264.6913 -3809.3605 -1263.9586 C -3810.085 -1263.2259 -3811.277 -1262.866 -3812.9365 -1262.866 C -3814.497 -1262.866 -3815.608 -1263.123 -3816.2717 -1263.6141 C -3816.7698 -1263.9978 -3817.113 -1264.663 -3817.301 -1265.6098 L -3818.928 -1265.6098 C -3818.751 -1264.2877 -3818.264 -1263.3313 -3817.489 -1262.7413 C -3816.5816 -1262.0612 -3815.0543 -1261.7212 -3812.896 -1261.7212 C -3808.768 -1261.7212 -3806.698 -1263.5035 -3806.698 -1267.0689 L -3806.698 -1278.4557 Z M -3798.144 -1277.2699 C -3798.62 -1277.3599 -3799.0615 -1277.3984 -3799.47 -1277.3984 C -3802.068 -1277.3984 -3803.367 -1275.7434 -3803.367 -1272.4345 L -3803.367 -1266.6794 L -3804.9307 -1266.6794 L -3804.9473 -1278.4557 L -3803.3663 -1278.4377 L -3803.3663 -1276.336 L -3803.2833 -1276.336 C -3803.0177 -1277.1638 -3802.597 -1277.7918 -3802.0227 -1278.2192 C -3801.393 -1278.6331 -3800.4533 -1278.8401 -3799.2038 -1278.8401 L -3798.143 -1278.8401 L -3798.143 -1277.259 Z M -3796.6737 -1273.3119 C -3796.4745 -1274.65 -3796.0262 -1275.6862 -3795.3306 -1276.4202 C -3794.877 -1276.8444 -3794.362 -1277.1638 -3793.788 -1277.376 C -3793.2134 -1277.588 -3792.5704 -1277.6947 -3791.8465 -1277.6947 C -3790.442 -1277.6947 -3789.301 -1277.2474 -3788.4045 -1276.3527 C -3787.508 -1275.458 -3787.0698 -1274.4437 -3787.0698 -1273.3125 C -3787.0698 -1273.3125 -3796.6737 -1273.3125 -3796.6737 -1273.3119 Z M -3786.916 -1276.9453 C -3787.4693 -1277.59 -3788.1555 -1278.0662 -3788.9745 -1278.376 C -3789.7935 -1278.6858 -3790.7453 -1278.8401 -3791.852 -1278.8401 C -3793.8996 -1278.8401 -3795.488 -1278.2873 -3796.618 -1277.1818 C -3797.748 -1276.0763 -3798.311 -1274.5723 -3798.311 -1272.6685 C -3798.311 -1270.7646 -3797.769 -1269.2619 -3796.684 -1268.1371 C -3795.511 -1266.903 -3793.862 -1266.286 -3791.7215 -1266.286 C -3790.8693 -1266.286 -3790.082 -1266.3985 -3789.357 -1266.6222 C -3788.632 -1266.8458 -3787.9983 -1267.1633 -3787.4566 -1267.5734 C -3786.5048 -1268.3672 -3785.9027 -1269.3474 -3785.647 -1270.5108 L -3787.356 -1270.5108 C -3787.9424 -1268.497 -3789.4017 -1267.4899 -3791.7353 -1267.4899 C -3793.3833 -1267.4899 -3794.65 -1267.9822 -3795.5343 -1268.9669 C -3796.298 -1269.8108 -3796.6787 -1270.9041 -3796.6787 -1272.2475 L -3785.41 -1272.2475 C -3785.41 -1274.2451 -3785.908 -1275.8115 -3786.921 -1276.9395 Z"/></g><g id="Graphic_195"><path fill="#367faf" d="M -3768.7058 -1271.489 C -3768.7058 -1267.9925 -3771.1335 -1266.2442 -3775.9894 -1266.2442 C -3778.8985 -1266.2442 -3781.0224 -1266.8465 -3782.3605 -1268.0439 C -3783.456 -1269.0337 -3784.003 -1270.5429 -3784.003 -1272.574 L -3782.0484 -1272.574 C -3782.0484 -1269.3101 -3780.0285 -1267.6782 -3775.99 -1267.6782 C -3774.053 -1267.6782 -3772.653 -1268.0124 -3771.7842 -1268.6796 C -3771.0538 -1269.2696 -3770.6885 -1270.1945 -3770.6885 -1271.4524 C -3770.6885 -1272.698 -3771.1866 -1273.5709 -3772.1827 -1274.0722 C -3772.747 -1274.3422 -3774.1195 -1274.6828 -3776.3164 -1275.0929 C -3779.0723 -1275.5814 -3780.8586 -1276.0686 -3781.6776 -1276.5564 C -3782.862 -1277.2763 -3783.4484 -1278.4956 -3783.4484 -1280.2162 C -3783.4484 -1281.8212 -3782.9504 -1283.0154 -3781.9377 -1283.7989 C -3780.853 -1284.6589 -3778.9937 -1285.0895 -3776.3607 -1285.0895 C -3771.6016 -1285.0895 -3769.222 -1283.2538 -3769.222 -1279.5825 L -3771.194 -1279.5825 C -3771.194 -1282.3334 -3772.9607 -1283.7076 -3776.494 -1283.7076 C -3778.2666 -1283.7076 -3779.5626 -1283.4312 -3780.382 -1282.872 C -3781.158 -1282.2807 -3781.5442 -1281.413 -3781.5442 -1280.269 C -3781.5442 -1279.0734 -3781.046 -1278.2314 -3780.05 -1277.743 C -3779.519 -1277.4601 -3777.9583 -1277.068 -3775.3685 -1276.5667 C -3772.9336 -1276.1425 -3771.29 -1275.6476 -3770.4434 -1275.0884 C -3769.2813 -1274.3942 -3768.7002 -1273.1923 -3768.7002 -1271.489 Z M -3752.8237 -1269.7048 C -3753.554 -1269.0254 -3754.38 -1268.5157 -3755.299 -1268.175 C -3756.218 -1267.8344 -3757.2486 -1267.6653 -3758.389 -1267.6653 C -3760.7155 -1267.6653 -3762.5948 -1268.3936 -3764.0302 -1269.8494 C -3765.4657 -1271.3052 -3766.1812 -1273.2456 -3766.1812 -1275.6707 C -3766.1812 -1278.198 -3765.47 -1280.1674 -3764.047 -1281.5788 C -3762.6236 -1282.9903 -3760.7376 -1283.6954 -3758.3896 -1283.6954 C -3756.0084 -1283.6954 -3754.1363 -1282.9575 -3752.774 -1281.4824 C -3752.0545 -1280.7626 -3751.5233 -1279.9231 -3751.179 -1278.961 C -3750.835 -1277.9988 -3750.6644 -1276.9016 -3750.6644 -1275.6701 C -3750.6644 -1273.1557 -3751.385 -1271.167 -3752.8237 -1269.7048 Z M -3751.7856 -1268.515 C -3750.7673 -1269.3493 -3750.0136 -1270.3597 -3749.526 -1271.5475 C -3749.0386 -1272.7353 -3748.7945 -1274.1056 -3748.7945 -1275.6598 C -3748.7945 -1278.4461 -3749.5914 -1280.6732 -3751.185 -1282.3624 C -3752.0374 -1283.2866 -3753.0666 -1283.9737 -3754.273 -1284.423 C -3755.4794 -1284.8723 -3756.8573 -1285.0979 -3758.407 -1285.0979 C -3761.417 -1285.0979 -3763.7746 -1284.2495 -3765.49 -1282.5558 C -3767.2056 -1280.8622 -3768.0633 -1278.5631 -3768.0633 -1275.6611 C -3768.0633 -1272.8369 -3767.198 -1270.5577 -3765.4663 -1268.8248 C -3763.7347 -1267.092 -3761.3696 -1266.225 -3758.372 -1266.225 C -3757.1987 -1266.225 -3756.176 -1266.3168 -3755.3023 -1266.5013 C -3754.4285 -1266.6858 -3753.6864 -1266.9686 -3753.0777 -1267.3497 L -3750.19 -1265.025 L -3748.984 -1266.3117 L -3751.78 -1268.5144 Z M -3734.1603 -1266.6787 L -3747.5223 -1266.6787 L -3747.5223 -1284.6499 L -3745.686 -1284.6885 L -3745.686 -1268.1847 L -3734.1493 -1268.1847 L -3734.166 -1266.6845 Z"/></g><g id="Graphic_194"><path fill="#231f20" d="M -3879.1514 -1269.6951 C -3878.9655 -1271.2184 -3879.0214 -1271.4421 -3877.8687 -1271.1953 L -3877.5754 -1271.1696 C -3876.689 -1271.1297 -3875.5295 -1271.3097 -3874.8483 -1271.6214 C -3873.382 -1272.2912 -3872.513 -1273.4095 -3873.9585 -1273.1158 C -3877.2566 -1272.446 -3877.4835 -1273.5465 -3877.4835 -1273.5465 C -3874.001 -1278.6338 -3872.545 -1285.0921 -3873.8013 -1286.6733 C -3877.235 -1290.9841 -3883.162 -1288.9454 -3883.267 -1288.892 L -3883.2985 -1288.8856 C -3883.9503 -1289.0186 -3884.6797 -1289.0977 -3885.4987 -1289.1105 C -3886.991 -1289.135 -3888.1234 -1288.7249 -3888.983 -1288.0841 C -3888.983 -1288.0841 -3899.567 -1292.3776 -3899.0743 -1282.685 C -3898.969 -1280.6231 -3896.072 -1267.0836 -3892.6174 -1271.1734 C -3891.3546 -1272.6691 -3890.134 -1273.9334 -3890.134 -1273.9334 C -3889.4973 -1273.5193 -3888.7685 -1273.3362 -3888.0415 -1273.4076 L -3887.983 -1273.4571 C -3888.001 -1273.2707 -3887.994 -1273.0907 -3887.959 -1272.8748 C -3888.849 -1271.8959 -3888.5877 -1271.7243 -3890.3674 -1271.363 C -3892.1675 -1270.998 -3891.11 -1270.3475 -3890.4194 -1270.1772 C -3889.582 -1269.9715 -3887.6453 -1269.679 -3886.3365 -1271.482 L -3886.3885 -1271.2763 C -3886.04 -1271.0012 -3886.063 -1269.2998 -3886.0133 -1268.0838 C -3885.9635 -1266.8677 -3885.8805 -1265.7332 -3885.6293 -1265.0641 C -3885.378 -1264.395 -3885.0803 -1262.6731 -3882.7418 -1263.1655 C -3880.787 -1263.5781 -3879.2925 -1264.1714 -3879.156 -1269.6925"/><path stroke="#231f20" stroke-linecap="butt" stroke-linejoin="round" stroke-width="4.108" d="M -3879.1514 -1269.6951 C -3878.9655 -1271.2184 -3879.0214 -1271.4421 -3877.8687 -1271.1953 L -3877.5754 -1271.1696 C -3876.689 -1271.1297 -3875.5295 -1271.3097 -3874.8483 -1271.6214 C -3873.382 -1272.2912 -3872.513 -1273.4095 -3873.9585 -1273.1158 C -3877.2566 -1272.446 -3877.4835 -1273.5465 -3877.4835 -1273.5465 C -3874.001 -1278.6338 -3872.545 -1285.0921 -3873.8013 -1286.6733 C -3877.235 -1290.9841 -3883.162 -1288.9454 -3883.267 -1288.892 L -3883.2985 -1288.8856 C -3883.9503 -1289.0186 -3884.6797 -1289.0977 -3885.4987 -1289.1105 C -3886.991 -1289.135 -3888.1234 -1288.7249 -3888.983 -1288.0841 C -3888.983 -1288.0841 -3899.567 -1292.3776 -3899.0743 -1282.685 C -3898.969 -1280.6231 -3896.072 -1267.0836 -3892.6174 -1271.1734 C -3891.3546 -1272.6691 -3890.134 -1273.9334 -3890.134 -1273.9334 C -3889.4973 -1273.5193 -3888.7685 -1273.3362 -3888.0415 -1273.4076 L -3887.983 -1273.4571 C -3888.001 -1273.2707 -3887.994 -1273.0907 -3887.959 -1272.8748 C -3888.849 -1271.8959 -3888.5877 -1271.7243 -3890.3674 -1271.363 C -3892.1675 -1270.998 -3891.11 -1270.3475 -3890.4194 -1270.1772 C -3889.582 -1269.9715 -3887.6453 -1269.679 -3886.3365 -1271.482 L -3886.3885 -1271.2763 C -3886.04 -1271.0012 -3886.063 -1269.2998 -3886.0133 -1268.0838 C -3885.9635 -1266.8677 -3885.8805 -1265.7332 -3885.6293 -1265.0641 C -3885.378 -1264.395 -3885.0803 -1262.6731 -3882.7418 -1263.1655 C -3880.787 -1263.5781 -3879.2925 -1264.1714 -3879.156 -1269.6925"/></g><g id="Graphic_193"><path fill="#417ba2" d="M -3873.959 -1273.1165 C -3877.257 -1272.4467 -3877.484 -1273.5471 -3877.484 -1273.5471 C -3874.0016 -1278.635 -3872.5457 -1285.0934 -3873.802 -1286.6739 C -3877.2295 -1290.9848 -3883.162 -1288.9454 -3883.267 -1288.892 L -3883.299 -1288.8856 C -3883.951 -1289.0186 -3884.6803 -1289.0977 -3885.5 -1289.1105 C -3886.9923 -1289.1343 -3888.1245 -1288.7249 -3888.9833 -1288.0841 C -3888.9833 -1288.0841 -3899.568 -1292.3776 -3899.0754 -1282.685 C -3898.9702 -1280.6231 -3896.074 -1267.083 -3892.6185 -1271.1734 C -3891.3557 -1272.6691 -3890.1355 -1273.9334 -3890.1355 -1273.9334 C -3889.499 -1273.5193 -3888.77 -1273.3362 -3888.043 -1273.4076 L -3887.984 -1273.4571 C -3888.002 -1273.2707 -3887.994 -1273.0907 -3887.96 -1272.8748 C -3888.85 -1271.8959 -3888.589 -1271.7243 -3890.3674 -1271.363 C -3892.168 -1270.998 -3891.11 -1270.3475 -3890.4194 -1270.1772 C -3889.582 -1269.9715 -3887.6453 -1269.679 -3886.3365 -1271.482 L -3886.3885 -1271.2763 C -3886.04 -1271.0012 -3885.7948 -1269.4875 -3885.835 -1268.114 C -3885.8756 -1266.7404 -3885.904 -1265.8001 -3885.6287 -1265.0635 C -3885.3537 -1264.3269 -3885.08 -1262.6725 -3882.74 -1263.1648 C -3880.7855 -1263.5775 -3879.7723 -1264.6457 -3879.6317 -1266.4287 C -3879.532 -1267.6962 -3879.3053 -1267.5085 -3879.2914 -1268.6417 L -3879.11 -1269.1777 C -3878.9007 -1270.8958 -3879.0767 -1271.4498 -3877.8725 -1271.192 L -3877.5793 -1271.1664 C -3876.6927 -1271.1265 -3875.533 -1271.3065 -3874.852 -1271.6182 C -3873.3857 -1272.288 -3872.517 -1273.4063 -3873.9623 -1273.1126 Z"/></g><g id="Group_186"><g id="Group_190"><g id="Graphic_192"><path stroke="#fff" stroke-linecap="round" stroke-linejoin="round" stroke-width="1.369" d="M -3886.19 -1272.1311 C -3886.2806 -1268.9348 -3886.1677 -1265.7152 -3885.8495 -1264.9324 C -3885.5314 -1264.1495 -3884.8512 -1262.6281 -3882.5115 -1263.1218 C -3880.557 -1263.5344 -3879.846 -1264.3327 -3879.5377 -1266.0951 C -3879.3163 -1267.3915 -3878.872 -1270.9928 -3878.816 -1271.73 M -3888.9944 -1288.1574 C -3888.9944 -1288.1574 -3899.5917 -1292.4188 -3899.0936 -1282.7217 C -3898.983 -1280.6597 -3896.092 -1267.1196 -3892.6357 -1271.2165 C -3891.373 -1272.7122 -3890.231 -1273.8852 -3890.231 -1273.8852 M -3883.267 -1288.935 C -3883.634 -1288.822 -3877.375 -1291.1873 -3873.8185 -1286.7131 C -3872.5623 -1285.132 -3874.0177 -1278.6736 -3877.5007 -1273.5857"/></g><g id="Graphic_191"><path stroke="#fff" stroke-linecap="round" stroke-linejoin="round" stroke-width="1.369" d="M -3877.506 -1273.5863 C -3877.506 -1273.5863 -3877.285 -1272.4872 -3873.981 -1273.157 C -3872.5357 -1273.4507 -3873.4056 -1272.3323 -3874.872 -1271.6619 C -3876.075 -1271.1124 -3878.7723 -1270.9716 -3878.816 -1271.7307 C -3878.9295 -1273.691 -3877.3966 -1273.0952 -3877.5073 -1273.5863 C -3877.607 -1274.0285 -3878.293 -1274.4624 -3878.747 -1275.5448 C -3879.1426 -1276.4896 -3884.1756 -1283.7346 -3877.3513 -1282.6587 C -3877.101 -1282.7101 -3879.1315 -1289.0501 -3885.519 -1289.153 C -3891.907 -1289.2558 -3891.695 -1281.4207 -3891.695 -1281.4207"/></g></g><g id="Group_187"><g id="Graphic_189"><path stroke="#fff" stroke-linecap="butt" stroke-linejoin="round" stroke-width="1.369" d="M -3887.9773 -1272.9159 C -3888.8682 -1271.937 -3888.606 -1271.7654 -3890.3856 -1271.4042 C -3892.1863 -1271.0378 -3891.1283 -1270.3886 -3890.4376 -1270.2183 C -3889.6004 -1270.0126 -3887.6635 -1269.7202 -3886.355 -1271.5244 C -3885.9563 -1272.0739 -3886.357 -1272.9513 -3886.9043 -1273.1737 C -3887.169 -1273.2816 -3887.5224 -1273.4166 -3887.978 -1272.9166 Z"/></g><g id="Graphic_188"><path stroke="#fff" stroke-linecap="round" stroke-linejoin="round" stroke-width="1.369" d="M -3888.0354 -1272.9326 C -3888.125 -1273.5085 -3887.8434 -1274.1924 -3887.5412 -1274.9946 C -3887.0875 -1276.1965 -3886.0405 -1277.3997 -3886.877 -1281.2144 C -3887.5014 -1284.0573 -3891.69 -1281.8057 -3891.6916 -1281.4201 C -3891.6933 -1281.0344 -3891.5023 -1279.4661 -3891.762 -1277.6407 C -3892.1005 -1275.2574 -3890.222 -1273.2424 -3888.0586 -1273.4481"/></g></g></g><g id="Group_183"><g id="Graphic_185"><path fill="#fff" d="M -3889.032 -1281.4792 C -3889.051 -1281.3475 -3888.787 -1280.9972 -3888.4432 -1280.9496 C -3888.0996 -1280.902 -3887.807 -1281.1771 -3887.7875 -1281.3083 C -3887.768 -1281.4394 -3888.032 -1281.5846 -3888.3763 -1281.6322 C -3888.7205 -1281.6798 -3889.014 -1281.6103 -3889.032 -1281.4792 Z"/><path stroke="#fff" stroke-linecap="butt" stroke-linejoin="round" stroke-width=".456" d="M -3889.032 -1281.4792 C -3889.051 -1281.3475 -3888.787 -1280.9972 -3888.4432 -1280.9496 C -3888.0996 -1280.902 -3887.807 -1281.1771 -3887.7875 -1281.3083 C -3887.768 -1281.4394 -3888.032 -1281.5846 -3888.3763 -1281.6322 C -3888.7205 -1281.6798 -3889.014 -1281.6103 -3889.032 -1281.4792 Z"/></g><g id="Graphic_184"><path fill="#fff" d="M -3878.578 -1281.7472 C -3878.5593 -1281.6155 -3878.8227 -1281.2652 -3879.167 -1281.2176 C -3879.511 -1281.17 -3879.8044 -1281.4452 -3879.823 -1281.5776 C -3879.842 -1281.71 -3879.578 -1281.854 -3879.2344 -1281.9015 C -3878.8908 -1281.949 -3878.598 -1281.8803 -3878.5787 -1281.7485 Z"/><path stroke="#fff" stroke-linecap="butt" stroke-linejoin="round" stroke-width=".228" d="M -3878.578 -1281.7472 C -3878.5593 -1281.6155 -3878.8227 -1281.2652 -3879.167 -1281.2176 C -3879.511 -1281.17 -3879.8044 -1281.4452 -3879.823 -1281.5776 C -3879.842 -1281.71 -3879.578 -1281.854 -3879.2344 -1281.9015 C -3878.8908 -1281.949 -3878.598 -1281.8803 -3878.5787 -1281.7485 Z"/></g></g><g id="Graphic_182"><path stroke="#fff" stroke-linecap="round" stroke-linejoin="round" stroke-width="1.369" d="M -3877.3496 -1282.6587 C -3877.293 -1281.6258 -3877.5754 -1280.9232 -3877.6113 -1279.8229 C -3877.664 -1278.225 -3876.8377 -1276.397 -3878.083 -1274.5652"/></g></g></g><g id="Graphic_198"><rect width="170.079" height="56.693" x="-4293.071" y="-1058.74" fill="#f15623"/><text fill="#fff" transform="translate(-4288.071 -1040.1258)"><tspan x="64.943" y="16" fill="#fff" font-family="Helvetica Neue" font-size="16" font-weight="bold">IAM</tspan></text></g><g id="Group_210"><g id="Graphic_200"><rect width="110.992" height="56.693" x="-4053.764" y="-1303.937" fill="#fff"/></g><g id="Graphic_181"><path fill="#000" d="M -4018.1385 -1288.4463 C -4018.8606 -1291.5417 -4024.2356 -1294.5866 -4033.638 -1294.5866 C -4043.0403 -1294.5866 -4048.416 -1291.5417 -4049.1375 -1288.4463 C -4049.19 -1288.3402 -4049.2285 -1288.224 -4049.2285 -1288.0927 L -4049.2285 -1287.732 L -4049.2285 -1279.4342 L -4049.2285 -1279.0734 L -4049.2285 -1278.7126 L -4049.2285 -1270.7756 L -4049.2285 -1270.4148 L -4049.2285 -1270.054 L -4049.2285 -1261.3955 C -4049.2285 -1261.2786 -4049.2017 -1261.1682 -4049.1556 -1261.0701 C -4048.419 -1257.5381 -4041.83 -1254.9016 -4033.638 -1254.9016 C -4025.465 -1254.9016 -4018.886 -1257.5273 -4018.1254 -1261.0463 C -4018.0755 -1261.1495 -4018.0474 -1261.2685 -4018.0474 -1261.3955 L -4018.0474 -1270.054 L -4018.0474 -1270.4148 L -4018.0474 -1270.7756 L -4018.0474 -1278.7126 L -4018.0474 -1279.0734 L -4018.0474 -1279.4342 L -4018.0474 -1287.732 L -4018.0474 -1288.0927 C -4018.0474 -1288.224 -4018.086 -1288.3402 -4018.1385 -1288.4463 Z M -4019.344 -1270.0649 C -4019.3614 -1269.9776 -4019.3857 -1269.891 -4019.4163 -1269.803 C -4019.441 -1269.7315 -4019.472 -1269.6601 -4019.5054 -1269.5887 C -4019.547 -1269.4999 -4019.594 -1269.4112 -4019.6495 -1269.3224 C -4019.6907 -1269.2553 -4019.7374 -1269.1889 -4019.786 -1269.1225 C -4019.8553 -1269.028 -4019.929 -1268.9335 -4020.0125 -1268.8397 C -4020.063 -1268.7827 -4020.1185 -1268.7264 -4020.1746 -1268.6694 C -4020.277 -1268.5662 -4020.3835 -1268.4638 -4020.5026 -1268.362 C -4020.5538 -1268.318 -4020.6086 -1268.2754 -4020.663 -1268.2322 C -4020.804 -1268.1196 -4020.951 -1268.0078 -4021.1125 -1267.8981 C -4021.155 -1267.8685 -4021.2005 -1267.8404 -4021.2447 -1267.8115 C -4021.4306 -1267.6903 -4021.6245 -1267.5698 -4021.834 -1267.4529 C -4021.861 -1267.4377 -4021.889 -1267.4233 -4021.9164 -1267.4089 C -4022.15 -1267.2812 -4022.3947 -1267.1556 -4022.656 -1267.0344 C -4022.6635 -1267.0308 -4022.671 -1267.0279 -4022.6784 -1267.0243 C -4024.0947 -1266.3698 -4025.9063 -1265.8193 -4028.0173 -1265.4585 C -4028.028 -1265.4571 -4028.0385 -1265.4556 -4028.049 -1265.4535 C -4028.4594 -1265.3835 -4028.8804 -1265.3214 -4029.3125 -1265.2666 C -4029.383 -1265.258 -4029.457 -1265.2522 -4029.5283 -1265.2435 C -4029.9056 -1265.198 -4030.2872 -1265.1562 -4030.68 -1265.123 C -4030.8597 -1265.1079 -4031.048 -1265.1006 -4031.231 -1265.0877 C -4031.5264 -1265.0675 -4031.819 -1265.0451 -4032.122 -1265.0328 C -4032.617 -1265.0148 -4033.122 -1265.0032 -4033.638 -1265.0032 C -4034.1537 -1265.0032 -4034.659 -1265.0148 -4035.1546 -1265.035 C -4035.4577 -1265.0472 -4035.75 -1265.0703 -4036.046 -1265.0898 C -4036.2285 -1265.1021 -4036.417 -1265.11 -4036.5964 -1265.1252 C -4036.9893 -1265.1584 -4037.371 -1265.2002 -4037.7483 -1265.2457 C -4037.8194 -1265.2543 -4037.8936 -1265.2601 -4037.964 -1265.2688 C -4038.396 -1265.3236 -4038.817 -1265.3864 -4039.2275 -1265.4556 C -4039.238 -1265.4571 -4039.2487 -1265.4585 -4039.2593 -1265.4607 C -4041.3703 -1265.8215 -4043.182 -1266.372 -4044.598 -1267.0264 C -4044.6056 -1267.0293 -4044.613 -1267.033 -4044.6206 -1267.0366 C -4044.882 -1267.1578 -4045.127 -1267.2833 -4045.36 -1267.411 C -4045.387 -1267.4262 -4045.4157 -1267.4406 -4045.4425 -1267.455 C -4045.652 -1267.572 -4045.846 -1267.6917 -4046.032 -1267.8137 C -4046.0755 -1267.8425 -4046.1216 -1267.8707 -4046.164 -1267.9002 C -4046.3256 -1268.0099 -4046.4727 -1268.1218 -4046.6137 -1268.2343 C -4046.6673 -1268.2776 -4046.723 -1268.3202 -4046.774 -1268.3642 C -4046.893 -1268.466 -4046.9997 -1268.5684 -4047.102 -1268.6716 C -4047.1575 -1268.7279 -4047.2136 -1268.7841 -4047.264 -1268.8419 C -4047.3477 -1268.9357 -4047.4213 -1269.0295 -4047.4905 -1269.1247 C -4047.539 -1269.1911 -4047.586 -1269.2575 -4047.627 -1269.3246 C -4047.682 -1269.4133 -4047.7287 -1269.502 -4047.771 -1269.5908 C -4047.805 -1269.6623 -4047.8347 -1269.7337 -4047.8603 -1269.8051 C -4047.891 -1269.8924 -4047.915 -1269.9797 -4047.9326 -1270.067 C -4047.9557 -1270.1818 -4047.9813 -1270.2987 -4047.9813 -1270.4148 C -4047.9813 -1270.4964 -4047.973 -1270.5779 -4047.962 -1270.6587 C -4047.9464 -1270.7677 -4047.955 -1270.8766 -4047.9813 -1270.9798 L -4047.9813 -1276.3366 C -4047.964 -1276.3178 -4047.942 -1276.2998 -4047.924 -1276.281 C -4047.788 -1276.1425 -4047.6495 -1276.0046 -4047.4936 -1275.8719 C -4045.1444 -1273.8162 -4040.4467 -1272.2187 -4033.638 -1272.2187 C -4026.858 -1272.2187 -4022.172 -1273.8032 -4019.813 -1275.8466 C -4019.6246 -1276.0054 -4019.455 -1276.1692 -4019.2953 -1276.3358 L -4019.2947 -1276.3366 L -4019.2947 -1270.9798 C -4019.321 -1270.8766 -4019.3296 -1270.7677 -4019.314 -1270.6587 C -4019.302 -1270.5779 -4019.2947 -1270.4964 -4019.2947 -1270.4148 C -4019.2947 -1270.2987 -4019.32 -1270.1818 -4019.344 -1270.0649 Z M -4019.2947 -1284.9951 L -4019.2947 -1279.6384 C -4019.321 -1279.5352 -4019.3296 -1279.4262 -4019.314 -1279.3173 C -4019.302 -1279.2365 -4019.2947 -1279.1549 -4019.2947 -1279.0734 C -4019.2947 -1278.9572 -4019.32 -1278.8403 -4019.344 -1278.7234 C -4019.3614 -1278.6361 -4019.3857 -1278.5495 -4019.4163 -1278.4615 C -4019.441 -1278.3901 -4019.472 -1278.3186 -4019.5054 -1278.2472 C -4019.547 -1278.1585 -4019.594 -1278.0697 -4019.6495 -1277.981 C -4019.6907 -1277.9139 -4019.7374 -1277.8475 -4019.786 -1277.7811 C -4019.8553 -1277.6866 -4019.929 -1277.592 -4020.0125 -1277.4982 C -4020.063 -1277.4412 -4020.1185 -1277.385 -4020.1746 -1277.328 C -4020.277 -1277.2248 -4020.3835 -1277.1223 -4020.5026 -1277.0206 C -4020.5538 -1276.9766 -4020.6086 -1276.934 -4020.663 -1276.8907 C -4020.804 -1276.7781 -4020.951 -1276.6663 -4021.1125 -1276.5566 C -4021.155 -1276.527 -4021.2005 -1276.4989 -4021.2447 -1276.47 C -4021.4306 -1276.3488 -4021.6245 -1276.2283 -4021.834 -1276.1114 C -4021.861 -1276.0963 -4021.889 -1276.0819 -4021.9164 -1276.0674 C -4022.15 -1275.9397 -4022.3947 -1275.8142 -4022.656 -1275.693 C -4022.6635 -1275.6893 -4022.671 -1275.6864 -4022.6784 -1275.6828 C -4024.0947 -1275.0284 -4025.9063 -1274.4779 -4028.0173 -1274.1171 C -4028.028 -1274.1156 -4028.0385 -1274.1142 -4028.049 -1274.112 C -4028.4594 -1274.042 -4028.8804 -1273.98 -4029.3125 -1273.9252 C -4029.383 -1273.9165 -4029.457 -1273.9107 -4029.5283 -1273.902 C -4029.9056 -1273.8566 -4030.2872 -1273.8148 -4030.68 -1273.7816 C -4030.8597 -1273.7664 -4031.048 -1273.7592 -4031.231 -1273.7462 C -4031.5264 -1273.726 -4031.819 -1273.7036 -4032.122 -1273.6914 C -4032.617 -1273.6733 -4033.122 -1273.6618 -4033.638 -1273.6618 C -4034.1537 -1273.6618 -4034.659 -1273.6733 -4035.1546 -1273.6935 C -4035.4577 -1273.7058 -4035.75 -1273.7289 -4036.046 -1273.7484 C -4036.2285 -1273.7606 -4036.417 -1273.7686 -4036.5964 -1273.7837 C -4036.9893 -1273.8169 -4037.371 -1273.8588 -4037.7483 -1273.9042 C -4037.8194 -1273.9129 -4037.8936 -1273.9187 -4037.964 -1273.9273 C -4038.396 -1273.9822 -4038.817 -1274.045 -4039.2275 -1274.1142 C -4039.238 -1274.1156 -4039.2487 -1274.1171 -4039.2593 -1274.1192 C -4041.3703 -1274.48 -4043.182 -1275.0306 -4044.598 -1275.685 C -4044.6056 -1275.6879 -4044.613 -1275.6915 -4044.6206 -1275.6951 C -4044.882 -1275.8163 -4045.127 -1275.9419 -4045.36 -1276.0696 C -4045.387 -1276.0847 -4045.4157 -1276.0992 -4045.4425 -1276.1136 C -4045.652 -1276.2305 -4045.846 -1276.3503 -4046.032 -1276.4722 C -4046.0755 -1276.501 -4046.1216 -1276.5292 -4046.164 -1276.5588 C -4046.3256 -1276.6685 -4046.4727 -1276.7803 -4046.6137 -1276.8929 C -4046.6673 -1276.9362 -4046.723 -1276.9787 -4046.774 -1277.0227 C -4046.893 -1277.1245 -4046.9997 -1277.227 -4047.102 -1277.3301 C -4047.1575 -1277.3864 -4047.2136 -1277.4427 -4047.264 -1277.5004 C -4047.3477 -1277.5942 -4047.4213 -1277.688 -4047.4905 -1277.7833 C -4047.539 -1277.8496 -4047.586 -1277.916 -4047.627 -1277.9831 C -4047.682 -1278.0719 -4047.7287 -1278.1606 -4047.771 -1278.2494 C -4047.805 -1278.3208 -4047.8347 -1278.3922 -4047.8603 -1278.4637 C -4047.891 -1278.551 -4047.915 -1278.6383 -4047.9326 -1278.7256 C -4047.9557 -1278.8403 -4047.9813 -1278.9572 -4047.9813 -1279.0734 C -4047.9813 -1279.1549 -4047.973 -1279.2365 -4047.962 -1279.3173 C -4047.9464 -1279.4262 -4047.955 -1279.5352 -4047.9813 -1279.6384 L -4047.9813 -1284.9951 C -4047.9064 -1284.9165 -4047.821 -1284.8393 -4047.74 -1284.7613 C -4047.695 -1284.718 -4047.6533 -1284.6747 -4047.606 -1284.6315 C -4047.419 -1284.4612 -4047.2167 -1284.293 -4046.998 -1284.1293 C -4046.9523 -1284.0953 -4046.901 -1284.0622 -4046.854 -1284.0282 C -4046.6704 -1283.8962 -4046.4765 -1283.767 -4046.2726 -1283.64 C -4046.197 -1283.5931 -4046.1216 -1283.547 -4046.0437 -1283.5008 C -4045.816 -1283.3666 -4045.577 -1283.236 -4045.326 -1283.1097 C -4045.2847 -1283.0888 -4045.2473 -1283.0671 -4045.2055 -1283.047 C -4044.913 -1282.9034 -4044.6025 -1282.7663 -4044.2795 -1282.6335 C -4044.1903 -1282.5967 -4044.0967 -1282.562 -4044.005 -1282.526 C -4043.748 -1282.4257 -4043.4825 -1282.3297 -4043.2075 -1282.2366 C -4043.1083 -1282.2035 -4043.011 -1282.1688 -4042.9094 -1282.137 C -4042.5445 -1282.0202 -4042.168 -1281.909 -4041.7725 -1281.8066 C -4041.7182 -1281.7922 -4041.6596 -1281.7806 -4041.6047 -1281.7669 C -4041.256 -1281.6789 -4040.8944 -1281.5974 -4040.5228 -1281.5209 C -4040.397 -1281.4949 -4040.269 -1281.4704 -4040.1405 -1281.4458 C -4039.787 -1281.3787 -4039.4227 -1281.3174 -4039.049 -1281.2611 C -4038.953 -1281.2467 -4038.8614 -1281.2301 -4038.764 -1281.2164 C -4038.3 -1281.1514 -4037.82 -1281.0959 -4037.3267 -1281.0483 C -4037.205 -1281.0367 -4037.0785 -1281.028 -4036.955 -1281.018 C -4036.5603 -1280.9848 -4036.157 -1280.9573 -4035.744 -1280.9357 C -4035.5936 -1280.9278 -4035.444 -1280.9198 -4035.2906 -1280.9133 C -4034.753 -1280.8924 -4034.2055 -1280.8772 -4033.638 -1280.8772 C -4033.0705 -1280.8772 -4032.523 -1280.8924 -4031.9854 -1280.9133 C -4031.8326 -1280.9198 -4031.683 -1280.9278 -4031.532 -1280.9357 C -4031.119 -1280.9573 -4030.7157 -1280.9848 -4030.321 -1281.018 C -4030.1974 -1281.0288 -4030.0715 -1281.0367 -4029.9492 -1281.0483 C -4029.456 -1281.0952 -4028.976 -1281.1514 -4028.512 -1281.2164 C -4028.4145 -1281.2301 -4028.323 -1281.2467 -4028.227 -1281.2611 C -4027.8533 -1281.3174 -4027.4897 -1281.3787 -4027.1355 -1281.4458 C -4027.007 -1281.4704 -4026.879 -1281.4949 -4026.753 -1281.5209 C -4026.3815 -1281.5974 -4026.02 -1281.6789 -4025.671 -1281.7669 C -4025.6163 -1281.7806 -4025.5577 -1281.7929 -4025.5034 -1281.8066 C -4025.108 -1281.909 -4024.7314 -1282.0209 -4024.3666 -1282.137 C -4024.265 -1282.1695 -4024.1676 -1282.2035 -4024.0685 -1282.2366 C -4023.7935 -1282.3297 -4023.528 -1282.4257 -4023.271 -1282.526 C -4023.179 -1282.562 -4023.0857 -1282.5967 -4022.9965 -1282.6335 C -4022.6734 -1282.7663 -4022.3623 -1282.9034 -4022.0704 -1283.047 C -4022.0286 -1283.0671 -4021.991 -1283.0888 -4021.95 -1283.1097 C -4021.6987 -1283.2367 -4021.46 -1283.3666 -4021.2323 -1283.5008 C -4021.1543 -1283.547 -4021.078 -1283.5931 -4021.0034 -1283.64 C -4020.7995 -1283.7663 -4020.6055 -1283.8955 -4020.422 -1284.0282 C -4020.375 -1284.0622 -4020.3236 -1284.0953 -4020.278 -1284.1293 C -4020.059 -1284.293 -4019.857 -1284.4604 -4019.67 -1284.6315 C -4019.6233 -1284.6747 -4019.5815 -1284.718 -4019.536 -1284.7613 C -4019.455 -1284.8393 -4019.3695 -1284.9165 -4019.2947 -1284.9951 Z M -4033.638 -1293.1435 C -4025.185 -1293.1435 -4019.2947 -1290.292 -4019.2947 -1287.732 C -4019.2947 -1285.1719 -4025.185 -1282.3203 -4033.638 -1282.3203 C -4042.091 -1282.3203 -4047.9813 -1285.1719 -4047.9813 -1287.732 C -4047.9813 -1290.292 -4042.091 -1293.1435 -4033.638 -1293.1435 Z M -4019.2947 -1261.6098 C -4019.3034 -1261.578 -4019.3096 -1261.5456 -4019.3146 -1261.5124 C -4019.668 -1259.0166 -4025.5084 -1256.3447 -4033.638 -1256.3447 C -4041.7675 -1256.3447 -4047.6077 -1259.0166 -4047.9613 -1261.5124 C -4047.9663 -1261.5449 -4047.973 -1261.5766 -4047.9813 -1261.6069 L -4047.9813 -1267.678 C -4047.964 -1267.6592 -4047.942 -1267.6412 -4047.924 -1267.6224 C -4047.788 -1267.4839 -4047.6495 -1267.3461 -4047.4936 -1267.2133 C -4045.1444 -1265.1576 -4040.4467 -1263.5601 -4033.638 -1263.5601 C -4026.858 -1263.5601 -4022.172 -1265.1447 -4019.813 -1267.188 C -4019.6246 -1267.3468 -4019.455 -1267.5106 -4019.2953 -1267.6773 L -4019.2947 -1267.678 L -4019.2947 -1261.6098 Z"/></g><g id="Graphic_199"><text fill="#000" transform="translate(-4013.0474 -1294.2082)"><tspan x="0" y="16" fill="#000" font-family="Helvetica Neue" font-size="16" font-weight="bold">Identity</tspan> <tspan x="0" y="35.464" fill="#000" font-family="Helvetica Neue" font-size="16" font-weight="bold">Provider</tspan></text></g></g><g id="Line_201"><line x1="-3998.268" x2="-3998.268" y1="-1156.535" y2="-1234.344" stroke="#000" stroke-dasharray="8 8" stroke-linecap="round" stroke-linejoin="round" stroke-width="2" marker-end="url(#FilledArrow_Marker)"/></g><g id="Line_202"><path stroke="#000" stroke-dasharray="8 8" stroke-linecap="round" stroke-linejoin="round" stroke-width="2" marker-end="url(#FilledArrow_Marker)" d="M -4208.0315 -1058.7402 L -4208.0315 -1275.2212 L -4066.664 -1275.2212"/></g><g id="Line_204"><line x1="-3998.268" x2="-3998.268" y1="-1116.85" y2="-1071.64" stroke="#000" stroke-dasharray="8 8" stroke-linecap="round" stroke-linejoin="round" stroke-width="2" marker-end="url(#FilledArrow_Marker)"/></g><g id="Line_208"><path stroke="#000" stroke-dasharray="8 8" stroke-linecap="round" stroke-linejoin="round" stroke-width="2" marker-end="url(#FilledArrow_Marker)" d="M -3913.2284 -1030.3937 L -3902.2284 -1030.3937 L -3896.748 -1030.0813 L -3816.63 -1030.0813 L -3816.63 -1239.659"/></g><g id="Graphic_211"><rect width="56.693" height="170.079" x="-4327.087" y="-838.346" fill="#333"/><text fill="#fff" transform="translate(-4318.2043 -673.2677) rotate(-90)"><tspan x="34.527" y="16" fill="#fff" font-family="Helvetica Neue" font-size="16" font-weight="bold">Front Envoy</tspan> <tspan x="16.623" y="35.464" fill="#fff" font-family="Helvetica Neue" font-size="16" font-weight="bold">(Envoy Gateway)</tspan></text></g><g id="Line_214"><line x1="-3665.507" x2="-3665.507" y1="-1056.085" y2="-1103.95" stroke="#000" stroke-dasharray="8 8" stroke-linecap="round" stroke-linejoin="round" stroke-width="2" marker-end="url(#FilledArrow_Marker)"/></g><g id="Line_221"><path stroke="#75428c" stroke-dasharray="8 8" stroke-linecap="round" stroke-linejoin="round" stroke-width="2" marker-end="url(#FilledArrow_Marker_2)" d="M -4270.3937 -753.3071 L -3851.9536 -753.3071 L -3851.9536 -691.2992 L -3564.711 -691.2992"/></g><g id="Line_222"><path stroke="#75428c" stroke-dasharray="8 8" stroke-linecap="round" stroke-linejoin="round" stroke-width="2" marker-end="url(#FilledArrow_Marker_2)" d="M -4270.3937 -753.3071 L -3851.2427 -753.3071 L -3851.2427 -639.9997 L -3665.507 -639.9997 L -3665.507 -532.692"/></g><g id="Line_223"><path stroke="#75428c" stroke-dasharray="8 8" stroke-linecap="round" stroke-linejoin="round" stroke-width="2" marker-end="url(#FilledArrow_Marker_2)" d="M -4270.3937 -753.3071 L -3851.3514 -753.3071 L -3851.3514 -594.02985 L -3466.791 -594.02985 L -3466.791 -433.8449"/></g><g id="Graphic_225"><rect width="170.079" height="41.102" x="-4083.307" y="-517.323" fill="#333"/><text fill="#fff" transform="translate(-4078.307 -506.5037)"><tspan x="21.831" y="16" fill="#fff" font-family="Helvetica Neue" font-size="16" font-weight="bold">OTEL Collector</tspan></text></g><g id="Line_226"><path stroke="#75428c" stroke-dasharray="8 8" stroke-linecap="round" stroke-linejoin="round" stroke-width="2" marker-end="url(#FilledArrow_Marker_2)" d="M -4270.3937 -753.3071 L -4259.3937 -753.3071 L -4165.476 -752.9762 L -3998.2678 -752.9762 L -3998.2678 -530.22284"/></g><g id="Graphic_227"><rect width="103.056" height="28.448" x="-3788.088" y="-705.523" fill="#f2f2f2"/><text fill="#000" transform="translate(-3783.0876 -700.5232)"><tspan x="0" y="15" fill="#000" font-family="Helvetica Neue" font-size="16">12800(HTTP)</tspan></text></g><g id="Graphic_228"><rect width="94.16" height="28.448" x="-3780.81" y="-654.224" fill="#f2f2f2"/><text fill="#000" transform="translate(-3775.8096 -649.2237)"><tspan x="0" y="15" fill="#000" font-family="Helvetica Neue" font-size="16">9411(HTTP)</tspan></text></g><g id="Graphic_233"><rect width="95.936" height="28.448" x="-4039.326" y="-636.378" fill="#f2f2f2"/><text fill="#000" transform="translate(-4034.326 -631.37796)"><tspan x="0" y="15" fill="#000" font-family="Helvetica Neue" font-size="16">9091(gRPC)</tspan></text></g><g id="Line_234"><line x1="-4270.394" x2="-4096.207" y1="-800.787" y2="-800.787" stroke="#f05a26" stroke-dasharray="8 8" stroke-linecap="round" stroke-linejoin="round" stroke-width="2" marker-end="url(#FilledArrow_Marker_3)"/></g><g id="Graphic_235"><rect width="95.936" height="28.448" x="-4229.782" y="-815.011" fill="#f2f2f2"/><text fill="#000" transform="translate(-4224.782 -810.0114)"><tspan x="0" y="15" fill="#000" font-family="Helvetica Neue" font-size="16">9080(gRPC)</tspan></text></g><g id="Line_236"><path stroke="#000" stroke-linecap="round" stroke-linejoin="round" stroke-width="2" marker-end="url(#FilledArrow_Marker)" d="M -4270.3937 -819.6 L -4118 -819.6 L -4118 -967.6 L -4020.4 -967.6 L -4020.4 -989.1473"/></g><g id="Graphic_237"><rect width="95.936" height="28.448" x="-4172.599" y="-872.413" fill="#f2f2f2"/><text fill="#000" transform="translate(-4167.5985 -867.413)"><tspan x="0" y="15" fill="#000" font-family="Helvetica Neue" font-size="16">9080(gRPC)</tspan></text></g><g id="Line_238"><path stroke="#000" stroke-dasharray="8 8" stroke-linecap="round" stroke-linejoin="round" stroke-width="2" marker-end="url(#FilledArrow_Marker)" d="M -4298.74 -838.3465 L -4298.74 -891.8504 L -4208.0315 -891.8504 L -4208.0315 -989.1473"/></g><g id="Graphic_239"><rect width="95.936" height="28.448" x="-4255.999" y="-951.87" fill="#f2f2f2"/><text fill="#000" transform="translate(-4250.9995 -946.8701)"><tspan x="0" y="15" fill="#000" font-family="Helvetica Neue" font-size="16">9080(gRPC)</tspan></text></g><g id="Graphic_242"><rect width="129.744" height="28.448" x="-3881.502" y="-1226.724" fill="#fff"/><text fill="#000" transform="translate(-3876.502 -1221.7238)"><tspan x="0" y="15" fill="#000" font-family="Helvetica Neue" font-size="16">5432(TLS/mTLS)</tspan></text></g><g id="Graphic_243"><rect width="103.632" height="46.896" x="-4259.847" y="-1247.268" fill="#fff"/><text fill="#000" transform="translate(-4254.8475 -1242.2679)"><tspan x="1.896" y="15" fill="#000" font-family="Helvetica Neue" font-size="16">389 636/443</tspan> <tspan x="0" y="33.448" fill="#000" font-family="Helvetica Neue" font-size="16">(LDAP/OIDC)</tspan></text></g><g id="Graphic_245"><title>Account Box</title><path fill="#000" d="M -4600.63 -809.5941 L -4600.63 -771.6728 C -4600.63 -768.6933 -4598.219 -766.2555 -4595.2126 -766.2555 L -4557.2914 -766.2555 C -4554.312 -766.2555 -4551.874 -768.6933 -4551.874 -771.6728 L -4551.874 -809.5941 C -4551.874 -812.5736 -4554.312 -815.0114 -4557.2914 -815.0114 L -4595.2126 -815.0114 C -4598.219 -815.0114 -4600.63 -812.5736 -4600.63 -809.5941 Z M -4568.126 -798.7594 C -4568.126 -794.2631 -4571.7556 -790.6335 -4576.252 -790.6335 C -4580.7484 -790.6335 -4584.378 -794.2631 -4584.378 -798.7594 C -4584.378 -803.2558 -4580.7484 -806.8854 -4576.252 -806.8854 C -4571.7556 -806.8854 -4568.126 -803.2558 -4568.126 -798.7594 Z M -4592.504 -777.09015 C -4592.504 -782.5075 -4581.6693 -785.487 -4576.252 -785.487 C -4570.8347 -785.487 -4560 -782.5075 -4560 -777.09015 L -4560 -774.3815 L -4592.504 -774.3815 L -4592.504 -777.09015 Z"/></g><g id="Line_246"><line x1="-4551.874" x2="-4339.987" y1="-790.634" y2="-790.634" stroke="#000" stroke-linecap="round" stroke-linejoin="round" stroke-width="2" marker-end="url(#FilledArrow_Marker)"/></g><g id="Line_247"><path stroke="#000" stroke-linecap="round" stroke-linejoin="round" stroke-width="2" marker-end="url(#FilledArrow_Marker)" d="M -4551.874 -790.6335 L -4487.629 -790.6335 L -4487.629 -744.3299 L -4339.9867 -744.3299"/></g><g id="Graphic_248"><rect width="68.944" height="46.896" x="-4445.511" y="-814.082" fill="#fff"/><text fill="#000" transform="translate(-4440.5106 -809.0815)"><tspan x="1.608" y="15" fill="#000" font-family="Helvetica Neue" font-size="16">UI:8443</tspan> <tspan x="0" y="33.448" fill="#000" font-family="Helvetica Neue" font-size="16">(HTTPS)</tspan></text></g><g id="Graphic_249"><rect width="74.624" height="46.896" x="-4446.815" y="-767.778" fill="#fff"/><text fill="#000" transform="translate(-4441.8153 -762.7779)"><tspan x="0" y="15" fill="#000" font-family="Helvetica Neue" font-size="16">CLI:8443</tspan> <tspan x="7.136" y="33.448" fill="#000" font-family="Helvetica Neue" font-size="16">(gRPC)</tspan></text></g><g id="Line_253"><path stroke="#75428c" stroke-dasharray="8 8" stroke-linecap="round" stroke-linejoin="round" stroke-width="2" marker-end="url(#FilledArrow_Marker_2)" d="M -3580.468 -499.2408 L -3483.3333 -499.2408 L -3483.3333 -433.8449"/></g><g id="Line_254"><line x1="-3454.255" x2="-3454.255" y1="-668.268" y2="-433.845" stroke="#75428c" stroke-dasharray="8 8" stroke-linecap="round" stroke-linejoin="round" stroke-width="2" marker-end="url(#FilledArrow_Marker_2)"/></g><g id="Graphic_250"><rect width="104.528" height="28.448" x="-3519.055" y="-491.54" fill="#f2f2f2"/><text fill="#000" transform="translate(-3514.055 -486.5397)"><tspan x="0" y="15" fill="#000" font-family="Helvetica Neue" font-size="16">9200(HTTPS)</tspan></text></g><g id="Group_258"><g id="Graphic_257"><rect width="170.079" height="87.874" x="-4569.732" y="-467.717" fill="#fff"/><rect width="170.079" height="87.874" x="-4569.732" y="-467.717" stroke="gray" stroke-linecap="round" stroke-linejoin="round" stroke-width="1"/></g><g id="Graphic_256"><rect width="170.079" height="87.874" x="-4585.181" y="-485.433" fill="#fff"/><rect width="170.079" height="87.874" x="-4585.181" y="-485.433" stroke="gray" stroke-linecap="round" stroke-linejoin="round" stroke-width="1"/></g><g id="Graphic_255"><rect width="170.079" height="87.874" x="-4600.63" y="-503.15" fill="#fff"/><rect width="170.079" height="87.874" x="-4600.63" y="-503.15" stroke="gray" stroke-linecap="round" stroke-linejoin="round" stroke-width="1"/><text fill="#000" transform="translate(-4595.63 -488.40877)"><tspan x="31.151" y="16" fill="#000" font-family="Helvetica Neue" font-size="16" font-weight="bold">TSB Enabled </tspan> <tspan x="48.191" y="35.464" fill="#000" font-family="Helvetica Neue" font-size="16" font-weight="bold">Clusters</tspan> <tspan x="19.159" y="54.928" fill="#000" font-family="Helvetica Neue" font-size="16" font-weight="bold">(Control Planes)</tspan></text></g></g><g id="Line_259"><path stroke="#f05a26" stroke-dasharray="8 8" stroke-linecap="round" stroke-linejoin="round" stroke-width="2" marker-end="url(#FilledArrow_Marker_4)" d="M -4551.874 -503.1496 L -4551.874 -705.55556 L -4339.9867 -705.55556"/></g><g id="Line_260"><path stroke="#75428c" stroke-dasharray="8 8" stroke-linecap="round" stroke-linejoin="round" stroke-width="2" marker-end="url(#FilledArrow_Marker_2)" d="M -4445.5107 -503.1496 L -4445.5107 -681.25 L -4339.9867 -681.25"/></g><g id="Graphic_261"><rect width="145.408" height="46.896" x="-4624.578" y="-664.53" fill="#fff"/><text fill="#000" transform="translate(-4619.578 -659.53034)"><tspan x="49.912" y="15" fill="#000" font-family="Helvetica Neue" font-size="16">9443</tspan> <tspan x="0" y="33.448" fill="#000" font-family="Helvetica Neue" font-size="16">(gRPC/mTLS/JWT)</tspan></text></g><g id="Graphic_262"><rect width="145.408" height="46.896" x="-4518.215" y="-600.549" fill="#fff"/><text fill="#000" transform="translate(-4513.2147 -595.54945)"><tspan x="49.912" y="15" fill="#000" font-family="Helvetica Neue" font-size="16">8443</tspan> <tspan x="0" y="33.448" fill="#000" font-family="Helvetica Neue" font-size="16">(gRPC/mTLS/JWT)</tspan></text></g><g id="Graphic_267"><rect width="113.424" height="28.448" x="-3722.219" y="-1089.268" fill="#f2f2f2"/><text fill="#000" transform="translate(-3717.219 -1084.2677)"><tspan x="0" y="15" fill="#000" font-family="Helvetica Neue" font-size="16">10250(HTTPS)</tspan></text></g><g id="Graphic_269"><rect width="95.632" height="28.448" x="-3841.274" y="-878.965" fill="#f2f2f2"/><text fill="#000" transform="translate(-3836.274 -873.9648)"><tspan x="0" y="15" fill="#000" font-family="Helvetica Neue" font-size="16">443(HTTPS)</tspan></text></g><g id="Graphic_270"><rect width="95.632" height="28.448" x="-3900.448" y="-980.071" fill="#f2f2f2"/><text fill="#000" transform="translate(-3895.4476 -975.0712)"><tspan x="0" y="15" fill="#000" font-family="Helvetica Neue" font-size="16">443(HTTPS)</tspan></text></g></g></g></svg>