<svg xmlns="http://www.w3.org/2000/svg" xmlns:xl="http://www.w3.org/1999/xlink" width="1092" height="483" version="1.1" viewBox="1142 752 1092 483"><g id="Resource_Hierarchy" fill="none" fill-opacity="1" stroke="none" stroke-dasharray="none" stroke-opacity="1"><title>Resource Hierarchy</title><rect width="1092" height="483" x="1142" y="752" fill="#fff"/><g id="Resource_Hierarchy_Layer_1"><title>Layer 1</title><g id="Graphic_93"><rect width="1091.339" height="481.89" x="1142.362" y="752.598" fill="#fff"/></g><g id="Graphic_2"><rect width="150.236" height="43" x="1176.378" y="841.89" fill="#f15623"/><text fill="#fff" transform="translate(1181.378 853.6577)"><tspan x="23.134" y="16" fill="#fff" font-family="Helvetica Neue" font-size="16">Organization</tspan></text></g><g id="Group_5"><g id="Graphic_3"><rect width="150.236" height="43" x="1165.039" y="935.433" fill="#333"/><rect width="150.236" height="43" x="1165.039" y="935.433" stroke="#fff" stroke-linecap="round" stroke-linejoin="round" stroke-width="1"/></g><g id="Graphic_4"><rect width="150.236" height="43" x="1176.378" y="951.024" fill="#333"/><rect width="150.236" height="43" x="1176.378" y="951.024" stroke="#fff" stroke-linecap="round" stroke-linejoin="round" stroke-width="1"/><text fill="#fff" transform="translate(1181.378 962.7916)"><tspan x="45.518" y="16" fill="#fff" font-family="Helvetica Neue" font-size="16">Tenant</tspan></text></g></g><g id="Group_6"><g id="Graphic_8"><rect width="150.236" height="43" x="1165.039" y="1041.732" fill="#ccc"/><rect width="150.236" height="43" x="1165.039" y="1041.732" stroke="#fff" stroke-linecap="round" stroke-linejoin="round" stroke-width="1"/></g><g id="Graphic_7"><rect width="150.236" height="43" x="1176.378" y="1057.323" fill="#ccc"/><rect width="150.236" height="43" x="1176.378" y="1057.323" stroke="#fff" stroke-linecap="round" stroke-linejoin="round" stroke-width="1"/><text fill="#000" transform="translate(1181.378 1069.0908)"><tspan x="50.406" y="16" fill="#000" font-family="Helvetica Neue" font-size="16">Team</tspan></text></g></g><g id="Group_9"><g id="Graphic_11"><rect width="150.236" height="43" x="1165.039" y="1148.032" fill="#ccc"/><rect width="150.236" height="43" x="1165.039" y="1148.032" stroke="#fff" stroke-linecap="round" stroke-linejoin="round" stroke-width="1"/></g><g id="Graphic_10"><rect width="150.236" height="43" x="1176.378" y="1163.622" fill="#ccc"/><rect width="150.236" height="43" x="1176.378" y="1163.622" stroke="#fff" stroke-linecap="round" stroke-linejoin="round" stroke-width="1"/><text fill="#000" transform="translate(1181.378 1175.39)"><tspan x="52.926" y="16" fill="#000" font-family="Helvetica Neue" font-size="16">User</tspan></text></g></g><g id="Line_16"><path stroke="#000" stroke-linecap="round" stroke-linejoin="round" stroke-width="2" d="M 1251.496 994.0236 L 1251.496 1017.878 L 1240.1575 1017.878 L 1240.1575 1041.7323"/></g><g id="Line_17"><path stroke="#000" stroke-linecap="round" stroke-linejoin="round" stroke-width="2" d="M 1251.496 1100.3228 L 1251.496 1124.1772 L 1240.1575 1124.1772 L 1240.1575 1148.0315"/></g><g id="Line_21"><path stroke="#000" stroke-linecap="round" stroke-linejoin="round" stroke-width="2" d="M 1251.496 884.8898 L 1251.496 910.1614 L 1240.1575 910.1614 L 1240.1575 935.4331"/></g><g id="Group_75"><g id="Graphic_77"><rect width="150.236" height="43" x="1434.331" y="1041.732" fill="#ccc"/><rect width="150.236" height="43" x="1434.331" y="1041.732" stroke="#fff" stroke-linecap="round" stroke-linejoin="round" stroke-width="1"/></g><g id="Graphic_76"><rect width="150.236" height="43" x="1445.669" y="1057.323" fill="#ccc"/><rect width="150.236" height="43" x="1445.669" y="1057.323" stroke="#fff" stroke-linecap="round" stroke-linejoin="round" stroke-width="1"/><text fill="#000" transform="translate(1450.6693 1069.0908)"><tspan x="43.742" y="16" fill="#000" font-family="Helvetica Neue" font-size="16">Cluster</tspan></text></g></g><g id="Group_72"><g id="Graphic_74"><rect width="150.236" height="43" x="1434.331" y="1148.032" fill="#ccc"/><rect width="150.236" height="43" x="1434.331" y="1148.032" stroke="#fff" stroke-linecap="round" stroke-linejoin="round" stroke-width="1"/></g><g id="Graphic_73"><rect width="150.236" height="43" x="1445.669" y="1163.622" fill="#ccc"/><rect width="150.236" height="43" x="1445.669" y="1163.622" stroke="#fff" stroke-linecap="round" stroke-linejoin="round" stroke-width="1"/><text fill="#000" transform="translate(1450.6693 1175.39)"><tspan x="26.102" y="16" fill="#000" font-family="Helvetica Neue" font-size="16">Namespace</tspan></text></g></g><g id="Line_71"><path stroke="#000" stroke-linecap="round" stroke-linejoin="round" stroke-width="2" d="M 1520.7874 1100.3228 L 1520.7874 1124.1772 L 1509.4488 1124.1772 L 1509.4488 1148.0315"/></g><g id="Group_68"><g id="Graphic_70"><rect width="150.236" height="43" x="1434.331" y="935.433" fill="#0a55a8"/><rect width="150.236" height="43" x="1434.331" y="935.433" stroke="#fff" stroke-linecap="round" stroke-linejoin="round" stroke-width="1"/></g><g id="Graphic_69"><rect width="150.236" height="43" x="1445.669" y="951.024" fill="#0a55a8"/><rect width="150.236" height="43" x="1445.669" y="951.024" stroke="#fff" stroke-linecap="round" stroke-linejoin="round" stroke-width="1"/><text fill="#fff" transform="translate(1450.6693 962.7916)"><tspan x="28.47" y="16" fill="#fff" font-family="Helvetica Neue" font-size="16">Workspace</tspan></text></g></g><g id="Line_67"><path stroke="#000" stroke-linecap="round" stroke-linejoin="round" stroke-width="2" d="M 1520.7874 994.0236 L 1520.7874 1017.878 L 1509.4488 1017.878 L 1509.4488 1041.7323"/></g><g id="Group_64"><g id="Graphic_66"><rect width="150.236" height="43" x="1862.362" y="1036.772" fill="#ccc"/><rect width="150.236" height="43" x="1862.362" y="1036.772" stroke="#fff" stroke-linecap="round" stroke-linejoin="round" stroke-width="1"/></g><g id="Graphic_65"><rect width="150.236" height="43" x="1873.701" y="1052.362" fill="#ccc"/><rect width="150.236" height="43" x="1873.701" y="1052.362" stroke="#fff" stroke-linecap="round" stroke-linejoin="round" stroke-width="1"/><text fill="#000" transform="translate(1878.7008 1064.1302)"><tspan x="28.326" y="16" fill="#000" font-family="Helvetica Neue" font-size="16">Application</tspan></text></g></g><g id="Group_60"><g id="Graphic_62"><rect width="150.236" height="43" x="1669.606" y="1148.032" fill="#ccc"/><rect width="150.236" height="43" x="1669.606" y="1148.032" stroke="#fff" stroke-linecap="round" stroke-linejoin="round" stroke-width="1"/></g><g id="Graphic_61"><rect width="150.236" height="43" x="1680.945" y="1163.622" fill="#ccc"/><rect width="150.236" height="43" x="1680.945" y="1163.622" stroke="#fff" stroke-linecap="round" stroke-linejoin="round" stroke-width="1"/><text fill="#000" transform="translate(1685.9449 1175.39)"><tspan x="12.47" y="16" fill="#000" font-family="Helvetica Neue" font-size="16">Gateway Group</tspan></text></g></g><g id="Group_57"><g id="Graphic_59"><rect width="150.236" height="43" x="1862.362" y="1148.032" fill="#ccc"/><rect width="150.236" height="43" x="1862.362" y="1148.032" stroke="#fff" stroke-linecap="round" stroke-linejoin="round" stroke-width="1"/></g><g id="Graphic_58"><rect width="150.236" height="43" x="1873.701" y="1163.622" fill="#ccc"/><rect width="150.236" height="43" x="1873.701" y="1163.622" stroke="#fff" stroke-linecap="round" stroke-linejoin="round" stroke-width="1"/><text fill="#000" transform="translate(1878.7008 1165.658)"><tspan x="47.43" y="16" fill="#000" font-family="Helvetica Neue" font-size="16">Traffic</tspan> <tspan x="47.15" y="35.464" fill="#000" font-family="Helvetica Neue" font-size="16">Group</tspan></text></g></g><g id="Group_54"><g id="Graphic_56"><rect width="150.236" height="43" x="2055.118" y="1148.032" fill="#ccc"/><rect width="150.236" height="43" x="2055.118" y="1148.032" stroke="#fff" stroke-linecap="round" stroke-linejoin="round" stroke-width="1"/></g><g id="Graphic_55"><rect width="150.236" height="43" x="2066.457" y="1163.622" fill="#ccc"/><rect width="150.236" height="43" x="2066.457" y="1163.622" stroke="#fff" stroke-linecap="round" stroke-linejoin="round" stroke-width="1"/><text fill="#000" transform="translate(2071.4567 1165.658)"><tspan x="39.886" y="16" fill="#000" font-family="Helvetica Neue" font-size="16">Security</tspan> <tspan x="47.15" y="35.464" fill="#000" font-family="Helvetica Neue" font-size="16">Group</tspan></text></g></g><g id="Group_78"><g id="Graphic_80"><rect width="150.236" height="43" x="1434.331" y="829.134" fill="#333"/><rect width="150.236" height="43" x="1434.331" y="829.134" stroke="#fff" stroke-linecap="round" stroke-linejoin="round" stroke-width="1"/></g><g id="Graphic_79"><rect width="150.236" height="43" x="1445.669" y="844.724" fill="#333"/><rect width="150.236" height="43" x="1445.669" y="844.724" stroke="#fff" stroke-linecap="round" stroke-linejoin="round" stroke-width="1"/><text fill="#fff" transform="translate(1450.6693 856.4924)"><tspan x="45.518" y="16" fill="#fff" font-family="Helvetica Neue" font-size="16">Tenant</tspan></text></g></g><g id="Line_81"><path stroke="#000" stroke-linecap="round" stroke-linejoin="round" stroke-width="2" d="M 1520.7874 887.7244 L 1520.7874 911.5787 L 1509.4488 911.5787 L 1509.4488 935.4331"/></g><g id="Group_82"><g id="Graphic_84"><rect width="150.236" height="43" x="1862.362" y="935.433" fill="#0a55a8"/><rect width="150.236" height="43" x="1862.362" y="935.433" stroke="#fff" stroke-linecap="round" stroke-linejoin="round" stroke-width="1"/></g><g id="Graphic_83"><rect width="150.236" height="43" x="1873.701" y="951.024" fill="#0a55a8"/><rect width="150.236" height="43" x="1873.701" y="951.024" stroke="#fff" stroke-linecap="round" stroke-linejoin="round" stroke-width="1"/><text fill="#fff" transform="translate(1878.7008 962.7916)"><tspan x="28.47" y="16" fill="#fff" font-family="Helvetica Neue" font-size="16">Workspace</tspan></text></g></g><g id="Line_85"><path stroke="#000" stroke-linecap="round" stroke-linejoin="round" stroke-width="2" d="M 1948.819 994.0236 L 1948.819 1015.3976 L 1937.4803 1015.3976 L 1937.4803 1036.7717"/></g><g id="Line_87"><path stroke="#000" stroke-linecap="round" stroke-linejoin="round" stroke-width="2" d="M 1948.819 1095.3622 L 1948.819 1121.6969 L 1937.4803 1121.6969 L 1937.4803 1148.0315"/></g><g id="Line_88"><path stroke="#000" stroke-linecap="round" stroke-linejoin="round" stroke-width="2" d="M 1948.819 1095.3622 L 1948.819 1121.6969 L 1744.7244 1121.6969 L 1744.7244 1148.0315"/></g><g id="Line_89"><path stroke="#000" stroke-linecap="round" stroke-linejoin="round" stroke-width="2" d="M 1948.819 1095.3622 L 1948.819 1121.6969 L 2130.2362 1121.6969 L 2130.2362 1148.0315"/></g><g id="Graphic_90"><text fill="#000" transform="translate(1173.1871 775.9119)"><tspan x="0" y="18" fill="#000" font-family="Helvetica Neue" font-size="18" font-weight="bold">Role Management</tspan></text></g><g id="Graphic_91"><text fill="#000" transform="translate(1430.2751 775.9119)"><tspan x="0" y="18" fill="#000" font-family="Helvetica Neue" font-size="18" font-weight="bold">Resource Hierarchy</tspan></text></g><g id="Graphic_92"><text fill="#000" transform="translate(1868.3596 775.9119)"><tspan x="0" y="18" fill="#000" font-family="Helvetica Neue" font-size="18" font-weight="bold">Application Logic</tspan></text></g></g></g></svg>