<?xml version="1.0" encoding="UTF-8" standalone="no"?>
<!DOCTYPE svg PUBLIC "-//W3C//DTD SVG 1.1//EN" "http://www.w3.org/Graphics/SVG/1.1/DTD/svg11.dtd">
<svg xmlns="http://www.w3.org/2000/svg" version="1.1" xmlns:xl="http://www.w3.org/1999/xlink" xmlns:dc="http://purl.org/dc/elements/1.1/" viewBox="-867 -60 1044 717" width="1044" height="717">
  <defs>
    <marker orient="auto" overflow="visible" markerUnits="strokeWidth" id="FilledArrow_Marker" stroke-linejoin="miter" stroke-miterlimit="10" viewBox="-1 -3 7 6" markerWidth="7" markerHeight="6" color="#0a55a8">
      <g>
        <path d="M 4.8 0 L 0 -1.8 L 0 1.8 Z" fill="currentColor" stroke="currentColor" stroke-width="1"/>
      </g>
    </marker>
    <marker orient="auto" overflow="visible" markerUnits="strokeWidth" id="FilledArrow_Marker_2" stroke-linejoin="miter" stroke-miterlimit="10" viewBox="-1 -3 7 6" markerWidth="7" markerHeight="6" color="black">
      <g>
        <path d="M 4.8 0 L 0 -1.8 L 0 1.8 Z" fill="currentColor" stroke="currentColor" stroke-width="1"/>
      </g>
    </marker>
  </defs>
  <g id="TSB_____" fill-opacity="1" stroke="none" fill="none" stroke-dasharray="none" stroke-opacity="1">
    <title>TSB 及应用组件</title>
    <rect fill="white" x="-867" y="-60" width="1044" height="717"/>
    <g id="TSB______Layer_1">
      <title>Layer 1</title>
      <g id="Graphic_302">
        <rect x="-866" y="-44" width="1042" height="700" fill="white"/>
        <rect x="-866" y="-44" width="1042" height="700" stroke="#f15623" stroke-linecap="round" stroke-linejoin="round" stroke-width="1"/>
      </g>
      <g id="Graphic_301">
        <rect x="-866" y="-59" width="1042" height="362" fill="#f15623"/>
        <rect x="-866" y="-59" width="1042" height="362" stroke="#f05a26" stroke-linecap="round" stroke-linejoin="round" stroke-width="1"/>
        <text transform="translate(-861 -54)" fill="white">
          <tspan font-family="Helvetica Neue" font-weight="bold" font-size="18" fill="white" x="0" y="18">Management Plane</tspan>
        </text>
      </g>
      <g id="Graphic_300">
        <rect x="-488.25" y="355.5" width="286.5" height="271" fill="white"/>
        <rect x="-488.25" y="355.5" width="286.5" height="271" stroke="gray" stroke-linecap="round" stroke-linejoin="round" stroke-width="1"/>
        <text transform="translate(-483.25 602.0359)" fill="black">
          <tspan font-family="Helvetica Neue" font-weight="bold" font-size="16" fill="black" x="48.778" y="16">Kubernetes on Premise</tspan>
        </text>
      </g>
      <g id="Graphic_299">
        <rect x="-828" y="93.5" width="966" height="190.5" fill="#f15623"/>
        <rect x="-828" y="93.5" width="966" height="190.5" stroke="white" stroke-linecap="round" stroke-linejoin="round" stroke-width="1"/>
        <text transform="translate(-823 98.5)" fill="white">
          <tspan font-family="Helvetica Neue" font-weight="bold" font-size="16" fill="white" x="0" y="16">Global Control Plane</tspan>
        </text>
      </g>
      <g id="Group_292">
        <g id="Graphic_298">
          <rect x="-828" y="-11" width="146" height="64" fill="white"/>
          <rect x="-828" y="-11" width="146" height="64" stroke="gray" stroke-linecap="round" stroke-linejoin="round" stroke-width="1"/>
          <text transform="translate(-823 1.5358887)" fill="black">
            <tspan font-family="Helvetica Neue" font-size="16" fill="black" x="49.776" y="16">Multi</tspan>
            <tspan font-family="Helvetica Neue" font-size="16" fill="black" x="37.464" y="35.46411">Tenancy</tspan>
          </text>
        </g>
        <g id="Graphic_297">
          <rect x="-664" y="-11" width="146" height="64" fill="white"/>
          <rect x="-664" y="-11" width="146" height="64" stroke="gray" stroke-linecap="round" stroke-linejoin="round" stroke-width="1"/>
          <text transform="translate(-659 1.5358887)" fill="black">
            <tspan font-family="Helvetica Neue" font-size="16" fill="black" x="40.576" y="16">Service</tspan>
            <tspan font-family="Helvetica Neue" font-size="16" fill="black" x="33.616" y="35.46411">Inventory</tspan>
          </text>
        </g>
        <g id="Graphic_296">
          <rect x="-500" y="-11" width="146" height="64" fill="white"/>
          <rect x="-500" y="-11" width="146" height="64" stroke="gray" stroke-linecap="round" stroke-linejoin="round" stroke-width="1"/>
          <text transform="translate(-495 11.267944)" fill="black">
            <tspan font-family="Helvetica Neue" font-size="16" fill="black" x="19.528" y="16">Observability</tspan>
          </text>
        </g>
        <g id="Graphic_295">
          <rect x="-336" y="-11" width="146" height="64" fill="white"/>
          <rect x="-336" y="-11" width="146" height="64" stroke="gray" stroke-linecap="round" stroke-linejoin="round" stroke-width="1"/>
          <text transform="translate(-331 1.5358887)" fill="black">
            <tspan font-family="Helvetica Neue" font-size="16" fill="black" x="21.448" y="16">Role/Access</tspan>
            <tspan font-family="Helvetica Neue" font-size="16" fill="black" x="19.544" y="35.46411">Management</tspan>
          </text>
        </g>
        <g id="Graphic_294">
          <rect x="-172" y="-11" width="146" height="64" fill="white"/>
          <rect x="-172" y="-11" width="146" height="64" stroke="gray" stroke-linecap="round" stroke-linejoin="round" stroke-width="1"/>
          <text transform="translate(-167 11.267944)" fill="black">
            <tspan font-family="Helvetica Neue" font-size="16" fill="black" x="48.592" y="16">Audit</tspan>
          </text>
        </g>
        <g id="Graphic_293">
          <rect x="-8" y="-11" width="146" height="64" fill="white"/>
          <rect x="-8" y="-11" width="146" height="64" stroke="gray" stroke-linecap="round" stroke-linejoin="round" stroke-width="1"/>
          <text transform="translate(-3 1.5358887)" fill="black">
            <tspan font-family="Helvetica Neue" font-size="16" fill="black" x="17.912" y="16">Configuration</tspan>
            <tspan font-family="Helvetica Neue" font-size="16" fill="black" x="19.544" y="35.46411">Management</tspan>
          </text>
        </g>
      </g>
      <g id="Graphic_291">
        <rect x="-787.5" y="137" width="146" height="64" fill="white"/>
        <rect x="-787.5" y="137" width="146" height="64" stroke="gray" stroke-linecap="round" stroke-linejoin="round" stroke-width="1"/>
        <text transform="translate(-782.5 149.53589)" fill="black">
          <tspan font-family="Helvetica Neue" font-size="16" fill="black" x="40.576" y="16">Service</tspan>
          <tspan font-family="Helvetica Neue" font-size="16" fill="black" x="31.384" y="35.46411">Discovery</tspan>
        </text>
      </g>
      <g id="Graphic_290">
        <rect x="-602.75" y="137" width="146" height="64" fill="white"/>
        <rect x="-602.75" y="137" width="146" height="64" stroke="gray" stroke-linecap="round" stroke-linejoin="round" stroke-width="1"/>
        <text transform="translate(-597.75 159.26794)" fill="black">
          <tspan font-family="Helvetica Neue" font-size="16" fill="black" x="32.28" y="16">Telemetry</tspan>
        </text>
      </g>
      <g id="Graphic_289">
        <rect x="-418" y="137" width="146" height="64" fill="white"/>
        <rect x="-418" y="137" width="146" height="64" stroke="gray" stroke-linecap="round" stroke-linejoin="round" stroke-width="1"/>
        <text transform="translate(-413 149.53589)" fill="black">
          <tspan font-family="Helvetica Neue" font-size="16" fill="black" x="37.616" y="16">Disaster</tspan>
          <tspan font-family="Helvetica Neue" font-size="16" fill="black" x="1.136" y="35.46411">Recovery/Failover</tspan>
        </text>
      </g>
      <g id="Graphic_288">
        <rect x="-233.25" y="137" width="146" height="64" fill="white"/>
        <rect x="-233.25" y="137" width="146" height="64" stroke="gray" stroke-linecap="round" stroke-linejoin="round" stroke-width="1"/>
        <text transform="translate(-228.25 149.53589)" fill="black">
          <tspan font-family="Helvetica Neue" font-size="16" fill="black" x="11.544" y="16">Authentication/</tspan>
          <tspan font-family="Helvetica Neue" font-size="16" fill="black" x="18.952" y="35.46411">Authorization</tspan>
        </text>
      </g>
      <g id="Graphic_287">
        <rect x="-48.5" y="137" width="146" height="64" fill="white"/>
        <rect x="-48.5" y="137" width="146" height="64" stroke="gray" stroke-linecap="round" stroke-linejoin="round" stroke-width="1"/>
        <text transform="translate(-43.5 149.53589)" fill="black">
          <tspan font-family="Helvetica Neue" font-size="16" fill="black" x="42.792" y="16">Egress</tspan>
          <tspan font-family="Helvetica Neue" font-size="16" fill="black" x="36.728" y="35.46411">Controls</tspan>
        </text>
      </g>
      <g id="Graphic_286">
        <rect x="-148.5" y="354.5" width="286.5" height="271" fill="white"/>
        <rect x="-148.5" y="354.5" width="286.5" height="271" stroke="gray" stroke-linecap="round" stroke-linejoin="round" stroke-width="1"/>
        <text transform="translate(-143.5 601.0359)" fill="black">
          <tspan font-family="Helvetica Neue" font-weight="bold" font-size="16" fill="black" x="57.362" y="16">Kubernetes on Cloud</tspan>
        </text>
      </g>
      <g id="Graphic_285">
        <rect x="-828" y="354.5" width="286.5" height="271" fill="white"/>
        <rect x="-828" y="354.5" width="286.5" height="271" stroke="gray" stroke-linecap="round" stroke-linejoin="round" stroke-width="1"/>
        <text transform="translate(-823 601.0359)" fill="black">
          <tspan font-family="Helvetica Neue" font-weight="bold" font-size="16" fill="black" x="74.858" y="16">Virtual Machines</tspan>
        </text>
      </g>
      <g id="Graphic_284">
        <rect x="-787.5" y="217" width="885" height="48" fill="#456cb0"/>
        <rect x="-787.5" y="217" width="885" height="48" stroke="gray" stroke-linecap="round" stroke-linejoin="round" stroke-width="1"/>
        <text transform="translate(-782.5 231.26794)" fill="white">
          <tspan font-family="Helvetica Neue" font-size="16" fill="white" x="392.308" y="16">XCP Central</tspan>
        </text>
      </g>
      <g id="Graphic_283">
        <rect x="-815.84375" y="373.25" width="263.15625" height="48" fill="#333"/>
        <rect x="-815.84375" y="373.25" width="263.15625" height="48" stroke="gray" stroke-linecap="round" stroke-linejoin="round" stroke-width="1"/>
        <text transform="translate(-810.84375 387.51794)" fill="white">
          <tspan font-family="Helvetica Neue" font-size="16" fill="white" x="73.514125" y="16">Tier1 Gateway</tspan>
        </text>
      </g>
      <g id="Graphic_282">
        <rect x="-476.5781" y="374.25" width="117.3125" height="48" fill="#456cb0"/>
        <rect x="-476.5781" y="374.25" width="117.3125" height="48" stroke="gray" stroke-linecap="round" stroke-linejoin="round" stroke-width="1"/>
        <text transform="translate(-471.5781 388.51794)" fill="white">
          <tspan font-family="Helvetica Neue" font-size="16" fill="white" x="16.01625" y="16">XCP Edge</tspan>
        </text>
      </g>
      <g id="Graphic_281">
        <rect x="-330.73438" y="374.25" width="117.3125" height="48" fill="#333"/>
        <rect x="-330.73438" y="374.25" width="117.3125" height="48" stroke="gray" stroke-linecap="round" stroke-linejoin="round" stroke-width="1"/>
        <text transform="translate(-325.73438 381.8729)" fill="white">
          <tspan font-family="Helvetica Neue" font-size="13" fill="white" x="10.54175" y="13">Tier2 Gateway</tspan>
          <tspan font-family="Helvetica Neue" font-size="13" fill="white" x="1.74725" y="29.37709">(IngressGateway)</tspan>
        </text>
      </g>
      <g id="Graphic_280">
        <rect x="-476.5781" y="445.5" width="117.3125" height="48" fill="#456cb0"/>
        <rect x="-476.5781" y="445.5" width="117.3125" height="48" stroke="gray" stroke-linecap="round" stroke-linejoin="round" stroke-width="1"/>
        <text transform="translate(-471.5781 450.0359)" fill="white">
          <tspan font-family="Helvetica Neue" font-size="16" fill="white" x="4.15225" y="16">Local Control </tspan>
          <tspan font-family="Helvetica Neue" font-size="16" fill="white" x="7.85625" y="35.46411">Plane(Istiod)</tspan>
        </text>
      </g>
      <g id="Graphic_279">
        <rect x="-136.82813" y="373.25" width="117.3125" height="48" fill="#456cb0"/>
        <rect x="-136.82813" y="373.25" width="117.3125" height="48" stroke="gray" stroke-linecap="round" stroke-linejoin="round" stroke-width="1"/>
        <text transform="translate(-131.82813 387.51794)" fill="white">
          <tspan font-family="Helvetica Neue" font-size="16" fill="white" x="16.01625" y="16">XCP Edge</tspan>
        </text>
      </g>
      <g id="Graphic_278">
        <rect x="9.015625" y="373.25" width="117.3125" height="48" fill="#333"/>
        <rect x="9.015625" y="373.25" width="117.3125" height="48" stroke="gray" stroke-linecap="round" stroke-linejoin="round" stroke-width="1"/>
        <text transform="translate(14.015625 380.8729)" fill="white">
          <tspan font-family="Helvetica Neue" font-size="13" fill="white" x="10.54175" y="13">Tier2 Gateway</tspan>
          <tspan font-family="Helvetica Neue" font-size="13" fill="white" x="1.74725" y="29.37709">(IngressGateway)</tspan>
        </text>
      </g>
      <g id="Graphic_277">
        <rect x="-136.82813" y="444.5" width="117.3125" height="48" fill="#456cb0"/>
        <rect x="-136.82813" y="444.5" width="117.3125" height="48" stroke="gray" stroke-linecap="round" stroke-linejoin="round" stroke-width="1"/>
        <text transform="translate(-131.82813 449.0359)" fill="white">
          <tspan font-family="Helvetica Neue" font-size="16" fill="white" x="4.15225" y="16">Local Control </tspan>
          <tspan font-family="Helvetica Neue" font-size="16" fill="white" x="7.85625" y="35.46411">Plane(Istiod)</tspan>
        </text>
      </g>
      <g id="Line_276">
        <path d="M -345 265 L -345 318.81453 L -417.92188 318.81453 L -417.92188 361.35" marker-end="url(#FilledArrow_Marker)" stroke="#0a55a8" stroke-linecap="round" stroke-linejoin="round" stroke-width="2"/>
      </g>
      <g id="Line_275">
        <title>Line</title>
        <path d="M -345 265 L -345 318.92982 L -78.171875 318.92982 L -78.171875 360.35" marker-end="url(#FilledArrow_Marker)" stroke="#0a55a8" stroke-linecap="round" stroke-linejoin="round" stroke-width="2"/>
      </g>
      <g id="Line_274">
        <line x1="-417.92188" y1="422.25" x2="-417.92188" y2="432.6" marker-end="url(#FilledArrow_Marker)" stroke="#0a55a8" stroke-linecap="round" stroke-linejoin="round" stroke-width="2"/>
      </g>
      <g id="Line_273">
        <line x1="-78.171875" y1="421.25" x2="-78.171875" y2="431.6" marker-end="url(#FilledArrow_Marker)" stroke="#0a55a8" stroke-linecap="round" stroke-linejoin="round" stroke-width="2"/>
      </g>
      <g id="Graphic_272">
        <rect x="-136.82813" y="541.8" width="117.3125" height="48" fill="white"/>
        <rect x="-136.82813" y="541.8" width="117.3125" height="48" stroke="gray" stroke-linecap="round" stroke-linejoin="round" stroke-width="1"/>
      </g>
      <g id="Graphic_271">
        <rect x="-128.8" y="554.9" width="47.94063" height="25.70001" fill="#456cb0"/>
        <rect x="-128.8" y="554.9" width="47.94063" height="25.70001" stroke="gray" stroke-linecap="round" stroke-linejoin="round" stroke-width="1"/>
        <text transform="translate(-123.8 561.60497)" fill="white">
          <tspan font-family="Helvetica Neue" font-size="10" fill="white" x="1.370316" y="10">Sidecar</tspan>
        </text>
      </g>
      <g id="Graphic_270">
        <rect x="-75.65625" y="554.9" width="47.94063" height="25.70001" fill="#333"/>
        <rect x="-75.65625" y="554.9" width="47.94063" height="25.70001" stroke="gray" stroke-linecap="round" stroke-linejoin="round" stroke-width="1"/>
        <text transform="translate(-70.65625 561.60497)" fill="white">
          <tspan font-family="Helvetica Neue" font-size="10" fill="white" x="9.525316" y="10">App</tspan>
        </text>
      </g>
      <g id="Line_269">
        <line x1="-104.82968" y1="492.5" x2="-104.82968" y2="542" marker-end="url(#FilledArrow_Marker)" stroke="#0a55a8" stroke-linecap="round" stroke-linejoin="round" stroke-width="2"/>
      </g>
      <g id="Graphic_268">
        <rect x="9.015625" y="541.8" width="117.3125" height="48" fill="white"/>
        <rect x="9.015625" y="541.8" width="117.3125" height="48" stroke="gray" stroke-linecap="round" stroke-linejoin="round" stroke-width="1"/>
      </g>
      <g id="Graphic_267">
        <rect x="17.043756" y="554.9" width="47.94063" height="25.70001" fill="#456cb0"/>
        <rect x="17.043756" y="554.9" width="47.94063" height="25.70001" stroke="gray" stroke-linecap="round" stroke-linejoin="round" stroke-width="1"/>
        <text transform="translate(22.043756 561.60497)" fill="white">
          <tspan font-family="Helvetica Neue" font-size="10" fill="white" x="1.370316" y="10">Sidecar</tspan>
        </text>
      </g>
      <g id="Graphic_266">
        <rect x="70.1875" y="554.9" width="47.94063" height="25.70001" fill="#333"/>
        <rect x="70.1875" y="554.9" width="47.94063" height="25.70001" stroke="gray" stroke-linecap="round" stroke-linejoin="round" stroke-width="1"/>
        <text transform="translate(75.1875 561.60497)" fill="white">
          <tspan font-family="Helvetica Neue" font-size="10" fill="white" x="9.525316" y="10">App</tspan>
        </text>
      </g>
      <g id="Line_265">
        <path d="M 67.671875 421.25 L 67.671875 432.25 L 67.823246 488.51123 L 67.671875 522.9 L 67.671875 528.9" marker-end="url(#FilledArrow_Marker_2)" stroke="black" stroke-linecap="round" stroke-linejoin="round" stroke-width="2"/>
      </g>
      <g id="Line_264">
        <path d="M 67.671875 421.25 L 67.671875 505.5714 L -78.171875 505.5714 L -78.171875 528.9" marker-end="url(#FilledArrow_Marker_2)" stroke="black" stroke-linecap="round" stroke-linejoin="round" stroke-width="2"/>
      </g>
      <g id="Graphic_263">
        <rect x="-330.73438" y="541.8" width="117.3125" height="48" fill="white"/>
        <rect x="-330.73438" y="541.8" width="117.3125" height="48" stroke="gray" stroke-linecap="round" stroke-linejoin="round" stroke-width="1"/>
      </g>
      <g id="Graphic_262">
        <rect x="-322.70624" y="554.9" width="47.94063" height="25.70001" fill="#456cb0"/>
        <rect x="-322.70624" y="554.9" width="47.94063" height="25.70001" stroke="gray" stroke-linecap="round" stroke-linejoin="round" stroke-width="1"/>
        <text transform="translate(-317.70624 561.60497)" fill="white">
          <tspan font-family="Helvetica Neue" font-size="10" fill="white" x="1.370316" y="10">Sidecar</tspan>
        </text>
      </g>
      <g id="Graphic_261">
        <rect x="-269.5625" y="554.9" width="47.94063" height="25.70001" fill="#333"/>
        <rect x="-269.5625" y="554.9" width="47.94063" height="25.70001" stroke="gray" stroke-linecap="round" stroke-linejoin="round" stroke-width="1"/>
        <text transform="translate(-264.5625 561.60497)" fill="white">
          <tspan font-family="Helvetica Neue" font-size="10" fill="white" x="9.525316" y="10">App</tspan>
        </text>
      </g>
      <g id="Graphic_260">
        <rect x="-476.5781" y="541.8" width="117.3125" height="48" fill="white"/>
        <rect x="-476.5781" y="541.8" width="117.3125" height="48" stroke="gray" stroke-linecap="round" stroke-linejoin="round" stroke-width="1"/>
      </g>
      <g id="Graphic_259">
        <rect x="-468.55" y="554.9" width="47.94063" height="25.70001" fill="#456cb0"/>
        <rect x="-468.55" y="554.9" width="47.94063" height="25.70001" stroke="gray" stroke-linecap="round" stroke-linejoin="round" stroke-width="1"/>
        <text transform="translate(-463.55 561.60497)" fill="white">
          <tspan font-family="Helvetica Neue" font-size="10" fill="white" x="1.370316" y="10">Sidecar</tspan>
        </text>
      </g>
      <g id="Graphic_258">
        <rect x="-415.40625" y="554.9" width="47.94063" height="25.70001" fill="#333"/>
        <rect x="-415.40625" y="554.9" width="47.94063" height="25.70001" stroke="gray" stroke-linecap="round" stroke-linejoin="round" stroke-width="1"/>
        <text transform="translate(-410.40625 561.60497)" fill="white">
          <tspan font-family="Helvetica Neue" font-size="10" fill="white" x="9.525316" y="10">App</tspan>
        </text>
      </g>
      <g id="Graphic_257">
        <rect x="-815.84375" y="541.8" width="117.3125" height="48" fill="white"/>
        <rect x="-815.84375" y="541.8" width="117.3125" height="48" stroke="gray" stroke-linecap="round" stroke-linejoin="round" stroke-width="1"/>
      </g>
      <g id="Graphic_256">
        <rect x="-807.8156" y="554.9" width="47.94063" height="25.70001" fill="#456cb0"/>
        <rect x="-807.8156" y="554.9" width="47.94063" height="25.70001" stroke="gray" stroke-linecap="round" stroke-linejoin="round" stroke-width="1"/>
        <text transform="translate(-802.8156 561.60497)" fill="white">
          <tspan font-family="Helvetica Neue" font-size="10" fill="white" x="1.370316" y="10">Sidecar</tspan>
        </text>
      </g>
      <g id="Graphic_255">
        <rect x="-754.6719" y="554.9" width="47.94063" height="25.70001" fill="#333"/>
        <rect x="-754.6719" y="554.9" width="47.94063" height="25.70001" stroke="gray" stroke-linecap="round" stroke-linejoin="round" stroke-width="1"/>
        <text transform="translate(-749.6719 561.60497)" fill="white">
          <tspan font-family="Helvetica Neue" font-size="10" fill="white" x="9.525316" y="10">App</tspan>
        </text>
      </g>
      <g id="Graphic_254">
        <rect x="-670" y="541.8" width="117.3125" height="48" fill="white"/>
        <rect x="-670" y="541.8" width="117.3125" height="48" stroke="gray" stroke-linecap="round" stroke-linejoin="round" stroke-width="1"/>
      </g>
      <g id="Graphic_253">
        <rect x="-661.9719" y="554.9" width="47.94063" height="25.70001" fill="#456cb0"/>
        <rect x="-661.9719" y="554.9" width="47.94063" height="25.70001" stroke="gray" stroke-linecap="round" stroke-linejoin="round" stroke-width="1"/>
        <text transform="translate(-656.9719 561.60497)" fill="white">
          <tspan font-family="Helvetica Neue" font-size="10" fill="white" x="1.370316" y="10">Sidecar</tspan>
        </text>
      </g>
      <g id="Graphic_252">
        <rect x="-608.8281" y="554.9" width="47.94063" height="25.70001" fill="#333"/>
        <rect x="-608.8281" y="554.9" width="47.94063" height="25.70001" stroke="gray" stroke-linecap="round" stroke-linejoin="round" stroke-width="1"/>
        <text transform="translate(-603.8281 561.60497)" fill="white">
          <tspan font-family="Helvetica Neue" font-size="10" fill="white" x="9.525316" y="10">App</tspan>
        </text>
      </g>
      <g id="Line_251">
        <line x1="-444.5797" y1="493.5" x2="-444.5797" y2="542" marker-end="url(#FilledArrow_Marker)" stroke="#0a55a8" stroke-linecap="round" stroke-linejoin="round" stroke-width="2"/>
      </g>
      <g id="Line_250">
        <path d="M -272.07813 422.25 L -272.07813 433.25 L -272.04755 499.45825 L -272.07813 522.9 L -272.07813 528.9" marker-end="url(#FilledArrow_Marker_2)" stroke="black" stroke-linecap="round" stroke-linejoin="round" stroke-width="2"/>
      </g>
      <g id="Line_249">
        <path d="M -272.07813 422.25 L -272.07813 504.44275 L -417.92188 504.44275 L -417.92188 528.9" marker-end="url(#FilledArrow_Marker_2)" stroke="black" stroke-linecap="round" stroke-linejoin="round" stroke-width="2"/>
      </g>
      <g id="Line_248">
        <line x1="-359.26563" y1="398.25" x2="-343.63438" y2="398.25" marker-end="url(#FilledArrow_Marker)" stroke="#0a55a8" stroke-linecap="round" stroke-linejoin="round" stroke-width="2"/>
      </g>
      <g id="Line_247">
        <line x1="-19.515625" y1="397.25" x2="-3.884375" y2="397.25" marker-end="url(#FilledArrow_Marker)" stroke="#0a55a8" stroke-linecap="round" stroke-linejoin="round" stroke-width="2"/>
      </g>
      <g id="Line_246">
        <path d="M -344.8143 504.44275 L -355.8143 504.44275 L -608.8281 504.3835 L -611.34375 504.3835 L -611.34375 528.9" marker-end="url(#FilledArrow_Marker_2)" stroke="black" stroke-linecap="round" stroke-linejoin="round" stroke-width="2"/>
      </g>
      <g id="Line_245">
        <path d="M -476.5781 398.25 L -487.5781 398.25 L -514.6328 397.75 L -539.7884 397.40503" marker-end="url(#FilledArrow_Marker)" stroke="#0a55a8" stroke-linecap="round" stroke-linejoin="round" stroke-width="2"/>
      </g>
      <g id="Line_244">
        <path d="M -684.2656 373.25 L -684.2656 337.25055 L -269.5625 337.25055 L -269.5625 361.35" marker-end="url(#FilledArrow_Marker_2)" stroke="black" stroke-linecap="round" stroke-linejoin="round" stroke-width="2"/>
      </g>
      <g id="Line_243">
        <path d="M -274.97636 337.25055 L 67.69166 337.25055 L 67.69166 360.35" marker-end="url(#FilledArrow_Marker_2)" stroke="black" stroke-linecap="round" stroke-linejoin="round" stroke-width="2"/>
      </g>
      <g id="Line_242">
        <path d="M -583.0407 504.38954 L -756.49755 504.38954 L -756.49755 528.9185" marker-end="url(#FilledArrow_Marker_2)" stroke="black" stroke-linecap="round" stroke-linejoin="round" stroke-width="2"/>
      </g>
      <g id="Line_241">
        <path d="M -104.82968 513.3149 L 41.257036 513.3149 L 41.257036 542.0023" marker-end="url(#FilledArrow_Marker)" stroke="#0a55a8" stroke-linecap="round" stroke-linejoin="round" stroke-width="2"/>
      </g>
      <g id="Line_240">
        <path d="M -444.5797 517.8504 L -298.80322 517.8504 L -298.80322 520.6081 L -298.73593 536 L -298.73593 542" marker-end="url(#FilledArrow_Marker)" stroke="#0a55a8" stroke-linecap="round" stroke-linejoin="round" stroke-width="2"/>
      </g>
    </g>
  </g>
</svg>
