<svg xmlns="http://www.w3.org/2000/svg" xmlns:xl="http://www.w3.org/1999/xlink" width="1889" height="791" version="1.1" viewBox="1180 1977 1889 791"><g id="TSB_CRD" fill="none" fill-opacity="1" stroke="none" stroke-dasharray="none" stroke-opacity="1"><title>TSB CRD</title><rect width="1889" height="791" x="1180" y="1977" fill="#fff"/><g id="TSB_CRD_Layer_1"><title>Layer 1</title><g id="Graphic_54"><rect width="1887.874" height="789.288" x="1180.63" y="1977.955" fill="#fff"/></g><g id="Graphic_3"><rect width="191.339" height="56.693" x="1679.528" y="2002.677" fill="#0a55a8"/><rect width="191.339" height="56.693" x="1679.528" y="2002.677" stroke="gray" stroke-linecap="round" stroke-linejoin="round" stroke-width="1"/><text fill="#fff" transform="translate(1684.5276 2021.2916)"><tspan x="62.813" y="16" fill="#fff" font-family="Helvetica Neue" font-size="16" font-weight="bold">Groups</tspan></text></g><g id="Graphic_4"><rect width="191.339" height="56.693" x="1445.669" y="2117.48" fill="#0a55a8"/><rect width="191.339" height="56.693" x="1445.669" y="2117.48" stroke="gray" stroke-linecap="round" stroke-linejoin="round" stroke-width="1"/><text fill="#fff" transform="translate(1450.6693 2136.0947)"><tspan x="57.341" y="16" fill="#fff" font-family="Helvetica Neue" font-size="16" font-weight="bold">Gateway</tspan></text></g><g id="Graphic_5"><rect width="191.339" height="56.693" x="1679.528" y="2117.48" fill="#0a55a8"/><rect width="191.339" height="56.693" x="1679.528" y="2117.48" stroke="gray" stroke-linecap="round" stroke-linejoin="round" stroke-width="1"/><text fill="#fff" transform="translate(1684.5276 2136.0947)"><tspan x="67.069" y="16" fill="#fff" font-family="Helvetica Neue" font-size="16" font-weight="bold">Traffic</tspan></text></g><g id="Graphic_6"><rect width="191.339" height="56.693" x="1913.386" y="2117.48" fill="#0a55a8"/><rect width="191.339" height="56.693" x="1913.386" y="2117.48" stroke="gray" stroke-linecap="round" stroke-linejoin="round" stroke-width="1"/><text fill="#fff" transform="translate(1918.3858 2136.0947)"><tspan x="59.405" y="16" fill="#fff" font-family="Helvetica Neue" font-size="16" font-weight="bold">Security</tspan></text></g><g id="Graphic_7"><rect width="191.339" height="56.693" x="1445.669" y="2230.866" fill="#fff"/><rect width="191.339" height="56.693" x="1445.669" y="2230.866" stroke="gray" stroke-linecap="round" stroke-linejoin="round" stroke-width="1"/><text fill="#000" transform="translate(1450.6693 2249.4806)"><tspan x="31.229" y="16" fill="#000" font-family="Helvetica Neue" font-size="16">IngressGateway</tspan></text></g><g id="Graphic_8"><rect width="191.339" height="56.693" x="1679.528" y="2230.866" fill="#fff"/><rect width="191.339" height="56.693" x="1679.528" y="2230.866" stroke="gray" stroke-linecap="round" stroke-linejoin="round" stroke-width="1"/><text fill="#000" transform="translate(1684.5276 2249.4806)"><tspan x="41.165" y="16" fill="#000" font-family="Helvetica Neue" font-size="16">ServiceRoute</tspan></text></g><g id="Graphic_9"><rect width="191.339" height="56.693" x="1913.386" y="2174.173" fill="#fff"/><rect width="191.339" height="56.693" x="1913.386" y="2174.173" stroke="gray" stroke-linecap="round" stroke-linejoin="round" stroke-width="1"/><text fill="#000" transform="translate(1918.3858 2192.7876)"><tspan x="34.213" y="16" fill="#000" font-family="Helvetica Neue" font-size="16">SecuritySetting</tspan></text></g><g id="Graphic_10"><rect width="191.339" height="56.693" x="2147.244" y="2230.866" fill="#fff"/><rect width="191.339" height="56.693" x="2147.244" y="2230.866" stroke="gray" stroke-linecap="round" stroke-linejoin="round" stroke-width="1"/><text fill="#000" transform="translate(2152.244 2249.4806)"><tspan x="39.845" y="16" fill="#000" font-family="Helvetica Neue" font-size="16">TenantSetting</tspan></text></g><g id="Graphic_11"><rect width="191.339" height="56.693" x="2147.244" y="2344.252" fill="#fff"/><rect width="191.339" height="56.693" x="2147.244" y="2344.252" stroke="gray" stroke-linecap="round" stroke-linejoin="round" stroke-width="1"/><text fill="#000" transform="translate(2152.244 2362.8664)"><tspan x="22.797" y="16" fill="#000" font-family="Helvetica Neue" font-size="16">WorkspaceSetting</tspan></text></g><g id="Graphic_12"><rect width="191.339" height="56.693" x="1679.528" y="2174.173" fill="#fff"/><rect width="191.339" height="56.693" x="1679.528" y="2174.173" stroke="gray" stroke-linecap="round" stroke-linejoin="round" stroke-width="1"/><text fill="#000" transform="translate(1684.5276 2192.7876)"><tspan x="41.757" y="16" fill="#000" font-family="Helvetica Neue" font-size="16">TrafficSetting</tspan></text></g><g id="Graphic_13"><rect width="191.339" height="56.693" x="2147.244" y="2117.48" fill="#0a55a8"/><rect width="191.339" height="56.693" x="2147.244" y="2117.48" stroke="gray" stroke-linecap="round" stroke-linejoin="round" stroke-width="1"/><text fill="#fff" transform="translate(2152.244 2136.0947)"><tspan x="43.733" y="16" fill="#fff" font-family="Helvetica Neue" font-size="16" font-weight="bold">Permissions</tspan></text></g><g id="Graphic_14"><rect width="191.339" height="56.693" x="2147.244" y="2174.173" fill="#fff"/><rect width="191.339" height="56.693" x="2147.244" y="2174.173" stroke="gray" stroke-linecap="round" stroke-linejoin="round" stroke-width="1"/><text fill="#000" transform="translate(2152.244 2192.7876)"><tspan x="31.229" y="16" fill="#000" font-family="Helvetica Neue" font-size="16">AccessBindings</tspan></text></g><g id="Graphic_17"><rect width="191.339" height="56.693" x="2147.244" y="2287.559" fill="#fff"/><rect width="191.339" height="56.693" x="2147.244" y="2287.559" stroke="gray" stroke-linecap="round" stroke-linejoin="round" stroke-width="1"/><text fill="#000" transform="translate(2152.244 2296.4414)"><tspan x="16.701" y="16" fill="#000" font-family="Helvetica Neue" font-size="16">OrganizationAccess</tspan> <tspan x="58.213" y="35.464" fill="#000" font-family="Helvetica Neue" font-size="16">Bindings</tspan></text></g><g id="Graphic_18"><rect width="191.339" height="56.693" x="1445.669" y="2174.173" fill="#fff"/><rect width="191.339" height="56.693" x="1445.669" y="2174.173" stroke="gray" stroke-linecap="round" stroke-linejoin="round" stroke-width="1"/><text fill="#000" transform="translate(1450.6693 2192.7876)"><tspan x="39.829" y="16" fill="#000" font-family="Helvetica Neue" font-size="16">Tier1Gateway</tspan></text></g><g id="Graphic_19"><rect width="191.339" height="56.693" x="2381.102" y="2117.48" fill="#0a55a8"/><rect width="191.339" height="56.693" x="2381.102" y="2117.48" stroke="gray" stroke-linecap="round" stroke-linejoin="round" stroke-width="1"/><text fill="#fff" transform="translate(2386.1024 2136.0947)"><tspan x="50.093" y="16" fill="#fff" font-family="Helvetica Neue" font-size="16" font-weight="bold">Istio CRDs</tspan></text></g><g id="Graphic_23"><rect width="191.339" height="56.693" x="2381.102" y="2230.866" fill="#fff"/><rect width="191.339" height="56.693" x="2381.102" y="2230.866" stroke="gray" stroke-linecap="round" stroke-linejoin="round" stroke-width="1"/><text fill="#000" transform="translate(2386.1024 2249.4806)"><tspan x="32.133" y="16" fill="#000" font-family="Helvetica Neue" font-size="16">DestinationRule</tspan></text></g><g id="Graphic_22"><rect width="191.339" height="56.693" x="2381.102" y="2344.252" fill="#fff"/><rect width="191.339" height="56.693" x="2381.102" y="2344.252" stroke="gray" stroke-linecap="round" stroke-linejoin="round" stroke-width="1"/><text fill="#000" transform="translate(2386.1024 2362.8664)"><tspan x="44.733" y="16" fill="#000" font-family="Helvetica Neue" font-size="16">WasmPlugin</tspan></text></g><g id="Graphic_21"><rect width="191.339" height="56.693" x="2381.102" y="2174.173" fill="#fff"/><rect width="191.339" height="56.693" x="2381.102" y="2174.173" stroke="gray" stroke-linecap="round" stroke-linejoin="round" stroke-width="1"/><text fill="#000" transform="translate(2386.1024 2192.7876)"><tspan x="39.901" y="16" fill="#000" font-family="Helvetica Neue" font-size="16">VirtualService</tspan></text></g><g id="Graphic_20"><rect width="191.339" height="56.693" x="2381.102" y="2287.559" fill="#fff"/><rect width="191.339" height="56.693" x="2381.102" y="2287.559" stroke="gray" stroke-linecap="round" stroke-linejoin="round" stroke-width="1"/><text fill="#000" transform="translate(2386.1024 2306.1735)"><tspan x="43.981" y="16" fill="#000" font-family="Helvetica Neue" font-size="16">ServiceEntry</tspan></text></g><g id="Graphic_24"><rect width="191.339" height="56.693" x="2614.961" y="2117.48" fill="#0a55a8"/><rect width="191.339" height="56.693" x="2614.961" y="2117.48" stroke="gray" stroke-linecap="round" stroke-linejoin="round" stroke-width="1"/><text fill="#fff" transform="translate(2619.9607 2134.8268)"><tspan x="38.573" y="17" fill="#fff" font-family="PingFang SC" font-size="16" font-weight="bold">Multi Tenants</tspan></text></g><g id="Graphic_25"><rect width="191.339" height="56.693" x="2614.961" y="2174.173" fill="#fff"/><rect width="191.339" height="56.693" x="2614.961" y="2174.173" stroke="gray" stroke-linecap="round" stroke-linejoin="round" stroke-width="1"/><text fill="#000" transform="translate(2619.9607 2192.7876)"><tspan x="66.069" y="16" fill="#000" font-family="Helvetica Neue" font-size="16">Tenant</tspan></text></g><g id="Graphic_26"><rect width="191.339" height="56.693" x="2381.102" y="2400.945" fill="#fff"/><rect width="191.339" height="56.693" x="2381.102" y="2400.945" stroke="gray" stroke-linecap="round" stroke-linejoin="round" stroke-width="1"/><text fill="#000" transform="translate(2386.1024 2419.5593)"><tspan x="49.461" y="16" fill="#000" font-family="Helvetica Neue" font-size="16">EnvoyFilter</tspan></text></g><g id="Graphic_27"><rect width="191.339" height="56.693" x="2147.244" y="2627.717" fill="#fff"/><rect width="191.339" height="56.693" x="2147.244" y="2627.717" stroke="gray" stroke-linecap="round" stroke-linejoin="round" stroke-width="1"/><text fill="#000" transform="translate(2152.244 2636.599)"><tspan x="20.261" y="16" fill="#000" font-family="Helvetica Neue" font-size="16">IstioInternalAccess</tspan> <tspan x="58.213" y="35.464" fill="#000" font-family="Helvetica Neue" font-size="16">Bindings</tspan></text></g><g id="Graphic_28"><rect width="191.339" height="56.693" x="2381.102" y="2457.638" fill="#fff"/><rect width="191.339" height="56.693" x="2381.102" y="2457.638" stroke="gray" stroke-linecap="round" stroke-linejoin="round" stroke-width="1"/><text fill="#000" transform="translate(2386.1024 2476.2522)"><tspan x="19.981" y="16" fill="#000" font-family="Helvetica Neue" font-size="16">PeerAuthentication</tspan></text></g><g id="Graphic_29"><rect width="191.339" height="56.693" x="2381.102" y="2514.331" fill="#fff"/><rect width="191.339" height="56.693" x="2381.102" y="2514.331" stroke="gray" stroke-linecap="round" stroke-linejoin="round" stroke-width="1"/><text fill="#000" transform="translate(2386.1024 2532.945)"><tspan x="6.205" y="16" fill="#000" font-family="Helvetica Neue" font-size="16">RequestAuthentication</tspan></text></g><g id="Graphic_30"><rect width="191.339" height="56.693" x="2147.244" y="2400.945" fill="#fff"/><rect width="191.339" height="56.693" x="2147.244" y="2400.945" stroke="gray" stroke-linecap="round" stroke-linejoin="round" stroke-width="1"/><text fill="#000" transform="translate(2152.244 2409.8272)"><tspan x="33.453" y="16" fill="#000" font-family="Helvetica Neue" font-size="16">SecurityAccess</tspan> <tspan x="58.213" y="35.464" fill="#000" font-family="Helvetica Neue" font-size="16">Bindings</tspan></text></g><g id="Graphic_31"><rect width="191.339" height="56.693" x="2147.244" y="2457.638" fill="#fff"/><rect width="191.339" height="56.693" x="2147.244" y="2457.638" stroke="gray" stroke-linecap="round" stroke-linejoin="round" stroke-width="1"/><text fill="#000" transform="translate(2152.244 2466.5202)"><tspan x="40.261" y="16" fill="#000" font-family="Helvetica Neue" font-size="16">TrafficAccess</tspan> <tspan x="58.213" y="35.464" fill="#000" font-family="Helvetica Neue" font-size="16">Bindings</tspan></text></g><g id="Graphic_32"><rect width="191.339" height="56.693" x="2147.244" y="2514.331" fill="#fff"/><rect width="191.339" height="56.693" x="2147.244" y="2514.331" stroke="gray" stroke-linecap="round" stroke-linejoin="round" stroke-width="1"/><text fill="#000" transform="translate(2152.244 2523.213)"><tspan x="31.229" y="16" fill="#000" font-family="Helvetica Neue" font-size="16">GatewayAccess</tspan> <tspan x="58.213" y="35.464" fill="#000" font-family="Helvetica Neue" font-size="16">Bindings</tspan></text></g><g id="Graphic_33"><rect width="191.339" height="56.693" x="2147.244" y="2571.024" fill="#fff"/><rect width="191.339" height="56.693" x="2147.244" y="2571.024" stroke="gray" stroke-linecap="round" stroke-linejoin="round" stroke-width="1"/><text fill="#000" transform="translate(2152.244 2579.906)"><tspan x="50.789" y="16" fill="#000" font-family="Helvetica Neue" font-size="16">APIAccess</tspan> <tspan x="58.213" y="35.464" fill="#000" font-family="Helvetica Neue" font-size="16">Bindings</tspan></text></g><g id="Graphic_35"><rect width="191.339" height="56.693" x="2848.819" y="2117.48" fill="#0a55a8"/><rect width="191.339" height="56.693" x="2848.819" y="2117.48" stroke="gray" stroke-linecap="round" stroke-linejoin="round" stroke-width="1"/><text fill="#fff" transform="translate(2853.819 2136.0947)"><tspan x="64.885" y="16" fill="#fff" font-family="Helvetica Neue" font-size="16" font-weight="bold">Others</tspan></text></g><g id="Graphic_34"><rect width="191.339" height="56.693" x="2848.819" y="2174.173" fill="#fff"/><rect width="191.339" height="56.693" x="2848.819" y="2174.173" stroke="gray" stroke-linecap="round" stroke-linejoin="round" stroke-width="1"/><text fill="#000" transform="translate(2853.819 2192.7876)"><tspan x="31.397" y="16" fill="#000" font-family="Helvetica Neue" font-size="16">WasmExtension</tspan></text></g><g id="Graphic_37"><rect width="191.339" height="56.693" x="2614.961" y="2230.866" fill="#fff"/><rect width="191.339" height="56.693" x="2614.961" y="2230.866" stroke="gray" stroke-linecap="round" stroke-linejoin="round" stroke-width="1"/><text fill="#000" transform="translate(2619.9607 2249.4806)"><tspan x="43.685" y="16" fill="#000" font-family="Helvetica Neue" font-size="16">Organization</tspan></text></g><g id="Graphic_38"><rect width="191.339" height="56.693" x="2614.961" y="2287.559" fill="#fff"/><rect width="191.339" height="56.693" x="2614.961" y="2287.559" stroke="gray" stroke-linecap="round" stroke-linejoin="round" stroke-width="1"/><text fill="#000" transform="translate(2619.9607 2306.1735)"><tspan x="49.021" y="16" fill="#000" font-family="Helvetica Neue" font-size="16">Workspace</tspan></text></g><g id="Graphic_39"><rect width="191.339" height="56.693" x="2381.102" y="2627.717" fill="#fff"/><rect width="191.339" height="56.693" x="2381.102" y="2627.717" stroke="gray" stroke-linecap="round" stroke-linejoin="round" stroke-width="1"/><text fill="#000" transform="translate(2386.1024 2646.331)"><tspan x="62.509" y="16" fill="#000" font-family="Helvetica Neue" font-size="16">Sidecar</tspan></text></g><g id="Graphic_40"><rect width="191.339" height="56.693" x="2147.244" y="2684.41" fill="#fff"/><rect width="191.339" height="56.693" x="2147.244" y="2684.41" stroke="gray" stroke-linecap="round" stroke-linejoin="round" stroke-width="1"/><text fill="#000" transform="translate(2152.244 2703.024)"><tspan x="32.421" y="16" fill="#000" font-family="Helvetica Neue" font-size="16">ServiceAccount</tspan></text></g><g id="Graphic_41"><rect width="191.339" height="56.693" x="2614.961" y="2344.252" fill="#fff"/><rect width="191.339" height="56.693" x="2614.961" y="2344.252" stroke="gray" stroke-linecap="round" stroke-linejoin="round" stroke-width="1"/><text fill="#000" transform="translate(2619.9607 2362.8664)"><tspan x="64.293" y="16" fill="#000" font-family="Helvetica Neue" font-size="16">Cluster</tspan></text></g><g id="Graphic_42"><rect width="191.339" height="56.693" x="2614.961" y="2400.945" fill="#fff"/><rect width="191.339" height="56.693" x="2614.961" y="2400.945" stroke="gray" stroke-linecap="round" stroke-linejoin="round" stroke-width="1"/><text fill="#000" transform="translate(2619.9607 2419.5593)"><tspan x="53.325" y="16" fill="#000" font-family="Helvetica Neue" font-size="16">Appliction</tspan></text></g><g id="Graphic_43"><rect width="191.339" height="56.693" x="2614.961" y="2457.638" fill="#fff"/><rect width="191.339" height="56.693" x="2614.961" y="2457.638" stroke="gray" stroke-linecap="round" stroke-linejoin="round" stroke-width="1"/><text fill="#000" transform="translate(2619.9607 2476.2522)"><tspan x="63.245" y="16" fill="#000" font-family="Helvetica Neue" font-size="16">Service</tspan></text></g><g id="Graphic_44"><rect width="191.339" height="56.693" x="2381.102" y="2571.024" fill="#fff"/><rect width="191.339" height="56.693" x="2381.102" y="2571.024" stroke="gray" stroke-linecap="round" stroke-linejoin="round" stroke-width="1"/><text fill="#000" transform="translate(2386.1024 2589.638)"><tspan x="19.085" y="16" fill="#000" font-family="Helvetica Neue" font-size="16">AuthorizationPolicy</tspan></text></g><g id="Graphic_48"><rect width="191.339" height="56.693" x="1211.811" y="2117.48" fill="#0a55a8"/><rect width="191.339" height="56.693" x="1211.811" y="2117.48" stroke="gray" stroke-linecap="round" stroke-linejoin="round" stroke-width="1"/><text fill="#fff" transform="translate(1216.811 2136.0947)"><tspan x="40.757" y="16" fill="#fff" font-family="Helvetica Neue" font-size="16" font-weight="bold">Observability</tspan></text></g><g id="Graphic_47"><rect width="191.339" height="56.693" x="1211.811" y="2174.173" fill="#fff"/><rect width="191.339" height="56.693" x="1211.811" y="2174.173" stroke="gray" stroke-linecap="round" stroke-linejoin="round" stroke-width="1"/><text fill="#000" transform="translate(1216.811 2192.7876)"><tspan x="67.253" y="16" fill="#000" font-family="Helvetica Neue" font-size="16">Metric</tspan></text></g><g id="Graphic_46"><rect width="191.339" height="56.693" x="1211.811" y="2230.866" fill="#fff"/><rect width="191.339" height="56.693" x="1211.811" y="2230.866" stroke="gray" stroke-linecap="round" stroke-linejoin="round" stroke-width="1"/><text fill="#000" transform="translate(1216.811 2249.4806)"><tspan x="64.437" y="16" fill="#000" font-family="Helvetica Neue" font-size="16">Source</tspan></text></g><g id="Line_49"><path stroke="#000" stroke-linecap="round" stroke-linejoin="round" stroke-width="2" d="M 1775.1969 2059.37 L 1775.1969 2088.4252 L 1541.3386 2088.4252 L 1541.3386 2117.4803"/></g><g id="Line_50"><line x1="1775.197" x2="1775.197" y1="2059.37" y2="2117.48" stroke="#000" stroke-linecap="round" stroke-linejoin="round" stroke-width="2"/></g><g id="Line_51"><path stroke="#000" stroke-linecap="round" stroke-linejoin="round" stroke-width="2" d="M 1775.1969 2059.37 L 1775.1969 2088.4252 L 2009.0551 2088.4252 L 2009.0551 2117.4803"/></g><g id="Graphic_52"><rect width="191.339" height="56.693" x="1445.669" y="2286.689" fill="#fff"/><rect width="191.339" height="56.693" x="1445.669" y="2286.689" stroke="gray" stroke-linecap="round" stroke-linejoin="round" stroke-width="1"/><text fill="#000" transform="translate(1450.6693 2305.304)"><tspan x="23.237" y="16" fill="#000" font-family="Helvetica Neue" font-size="16">EastWestGateway</tspan></text></g><g id="Graphic_53"><rect width="191.339" height="56.693" x="1445.669" y="2343.382" fill="#fff"/><rect width="191.339" height="56.693" x="1445.669" y="2343.382" stroke="gray" stroke-linecap="round" stroke-linejoin="round" stroke-width="1"/><text fill="#000" transform="translate(1450.6693 2361.9968)"><tspan x="33.005" y="16" fill="#000" font-family="Helvetica Neue" font-size="16">EgressGateway</tspan></text></g></g></g></svg>