<svg xmlns="http://www.w3.org/2000/svg" xmlns:xl="http://www.w3.org/1999/xlink" width="1333" height="1192" version="1.1" viewBox="833 446 1333 1192"><defs><marker id="FilledArrow_Marker" stroke-linejoin="miter" stroke-miterlimit="10" color="#000" markerHeight="8" markerUnits="strokeWidth" markerWidth="10" orient="auto" overflow="visible" viewBox="-1 -4 10 8"><g><path fill="currentColor" stroke="currentColor" stroke-width="1" d="M 8 0 L 0 -3 L 0 3 Z"/></g></marker></defs><g id="Ambient_Mesh_Ztunnel_L4" fill="none" fill-opacity="1" stroke="none" stroke-dasharray="none" stroke-opacity="1"><title>Ambient Mesh Ztunnel L4</title><rect width="1333" height="1192" x="833" y="446" fill="#fff"/><g id="Ambient_Mesh_Ztunnel_L4_Layer_2"><title>Layer 2</title><g id="Graphic_326"><rect width="1332.284" height="1190.551" x="833.386" y="446.457" fill="#fff"/></g><g id="Graphic_325"><rect width="566.929" height="1105.512" x="1576.063" y="488.976" stroke="#a5a5a5" stroke-linecap="round" stroke-linejoin="round" stroke-width="1"/><text fill="#000" transform="translate(1581.063 1570.024)"><tspan x="0" y="16" fill="#000" font-family="Helvetica Neue" font-size="16" font-weight="bold">Node B</tspan></text></g><g id="Graphic_324"><rect width="566.929" height="1105.512" x="860.315" y="488.976" stroke="#a5a5a5" stroke-linecap="round" stroke-linejoin="round" stroke-width="1"/><text fill="#000" transform="translate(865.315 1570.024)"><tspan x="0" y="16" fill="#000" font-family="Helvetica Neue" font-size="16" font-weight="bold">Node A</tspan></text></g><g id="Graphic_323"><title>ztunnel a pod</title><rect width="501.732" height="588.431" x="892.913" y="807.633" fill="#f4f9ff"/><rect width="501.732" height="588.431" x="892.913" y="807.633" stroke="#a5a5a5" stroke-linecap="round" stroke-linejoin="round" stroke-width="1"/><text fill="#000" transform="translate(897.9134 1371.5989)"><tspan x="0" y="16" fill="#000" font-family="Helvetica Neue" font-size="16" font-weight="bold">Ztunnel A Pod</tspan></text></g><g id="Graphic_322"><rect width="501.732" height="529.769" x="1610.787" y="711.496" fill="#f4f9ff"/><rect width="501.732" height="529.769" x="1610.787" y="711.496" stroke="#a5a5a5" stroke-linecap="round" stroke-linejoin="round" stroke-width="1"/><text fill="#000" transform="translate(1615.7874 1216.8007)"><tspan x="0" y="16" fill="#000" font-family="Helvetica Neue" font-size="16" font-weight="bold">Ztunnel B Pod</tspan></text></g><g id="Graphic_321"><rect width="391.181" height="68.031" x="946.74" y="525.827" fill="#333"/><rect width="391.181" height="68.031" x="946.74" y="525.827" stroke="gray" stroke-linecap="round" stroke-linejoin="round" stroke-width="1"/><text fill="#fff" transform="translate(951.7397 530.82677)"><tspan x="137.247" y="16" fill="#fff" font-family="Helvetica Neue" font-size="16" font-weight="bold">Service A Pod</tspan></text></g><g id="Graphic_320"><rect width="391.181" height="46.772" x="946.74" y="711.496" fill="#dadada"/><rect width="391.181" height="46.772" x="946.74" y="711.496" stroke="gray" stroke-linecap="round" stroke-linejoin="round" stroke-width="1"/><text fill="#000" transform="translate(951.7397 715.9258)"><tspan x="162.015" y="16" fill="#000" font-family="Helvetica Neue" font-size="16" font-weight="bold">istioout</tspan> <tspan x="139.439" y="34.464" fill="#000" font-family="Helvetica Neue" font-size="16">192.168.127.1</tspan></text></g><g id="Graphic_319"><rect width="245.969" height="46.772" x="1019.346" y="807.633" fill="#dadada"/><rect width="245.969" height="46.772" x="1019.346" y="807.633" stroke="gray" stroke-linecap="round" stroke-linejoin="round" stroke-width="1"/><text fill="#000" transform="translate(1024.3456 812.0623)"><tspan x="84.521" y="16" fill="#000" font-family="Helvetica Neue" font-size="16" font-weight="bold">pistioout</tspan> <tspan x="66.833" y="34.464" fill="#000" font-family="Helvetica Neue" font-size="16">192.168.127.2</tspan></text></g><g id="Graphic_318"><rect width="391.181" height="365.669" x="948.189" y="919.842" fill="#fff"/><rect width="391.181" height="365.669" x="948.189" y="919.842" stroke="gray" stroke-linecap="round" stroke-linejoin="round" stroke-width="1"/><text fill="#000" transform="translate(953.189 1261.0477)"><tspan x="0" y="16" fill="#000" font-family="Helvetica Neue" font-size="16" font-weight="bold">Envoy Proxy</tspan></text></g><g id="Line_317"><line x1="1142.33" x2="1142.33" y1="593.858" y2="611.164" stroke="#000" stroke-linecap="round" stroke-linejoin="round" stroke-width="1" marker-end="url(#FilledArrow_Marker)"/></g><g id="Line_316"><line x1="1142.33" x2="1142.33" y1="758.268" y2="797.732" stroke="#000" stroke-linecap="round" stroke-linejoin="round" stroke-width="1" marker-end="url(#FilledArrow_Marker)"/></g><g id="Line_315"><line x1="1142.455" x2="1142.751" y1="854.404" y2="909.943" stroke="#000" stroke-linecap="round" stroke-linejoin="round" stroke-width="1" marker-end="url(#FilledArrow_Marker)"/></g><g id="Graphic_314"><rect width="391.181" height="68.031" x="1663.937" y="525.827" fill="#333"/><rect width="391.181" height="68.031" x="1663.937" y="525.827" stroke="gray" stroke-linecap="round" stroke-linejoin="round" stroke-width="1"/><text fill="#fff" transform="translate(1668.937 530.82677)"><tspan x="137.095" y="16" fill="#fff" font-family="Helvetica Neue" font-size="16" font-weight="bold">Service B Pod</tspan></text></g><g id="Graphic_313"><rect width="391.181" height="57.734" x="1663.937" y="1313.858" fill="#dadada"/><rect width="391.181" height="57.734" x="1663.937" y="1313.858" stroke="gray" stroke-linecap="round" stroke-linejoin="round" stroke-width="1"/><text fill="#000" transform="translate(1668.937 1323.7691)"><tspan x="167.655" y="16" fill="#000" font-family="Helvetica Neue" font-size="16" font-weight="bold">istioin</tspan> <tspan x="139.439" y="34.464" fill="#000" font-family="Helvetica Neue" font-size="16">192.168.126.1</tspan></text></g><g id="Graphic_312"><rect width="391.181" height="199.755" x="1663.937" y="751.709" fill="#fff"/><rect width="391.181" height="199.755" x="1663.937" y="751.709" stroke="gray" stroke-linecap="round" stroke-linejoin="round" stroke-width="1"/><text fill="#000" transform="translate(1668.937 927.0005)"><tspan x="0" y="16" fill="#000" font-family="Helvetica Neue" font-size="16" font-weight="bold">Envoy Proxy</tspan></text></g><g id="Graphic_311"><rect width="232.441" height="34.99" x="1743.307" y="843.644" fill="#0a55a8"/><text fill="#fff" transform="translate(1748.307 851.4065)"><tspan x="14.188" y="16" fill="#fff" font-family="Helvetica Neue" font-size="16" font-weight="bold">Ztunnel_inbound Listener</tspan></text></g><g id="Graphic_310"><rect width="232.441" height="34.99" x="1743.307" y="783.15" fill="#0a55a8"/><text fill="#fff" transform="translate(1748.307 790.9134)"><tspan x="22.196" y="16" fill="#fff" font-family="Helvetica Neue" font-size="16" font-weight="bold">Virtual_inbound Cluster</tspan></text></g><g id="Line_309"><line x1="1859.528" x2="1859.528" y1="1539.045" y2="1381.492" stroke="#000" stroke-linecap="round" stroke-linejoin="round" stroke-width="1" marker-end="url(#FilledArrow_Marker)"/></g><g id="Line_308"><line x1="1859.528" x2="1859.528" y1="1313.858" y2="1125.439" stroke="#000" stroke-linecap="round" stroke-linejoin="round" stroke-width="1" marker-end="url(#FilledArrow_Marker)"/></g><g id="Line_307"><line x1="1859.528" x2="1859.528" y1="1057.805" y2="1040.111" stroke="#000" stroke-linecap="round" stroke-linejoin="round" stroke-width="1"/></g><g id="Line_306"><line x1="1859.528" x2="1859.528" y1="843.644" y2="828.041" stroke="#000" stroke-linecap="round" stroke-linejoin="round" stroke-width="1" marker-end="url(#FilledArrow_Marker)"/></g><g id="Line_305"><line x1="1859.528" x2="1859.528" y1="711.496" y2="697.299" stroke="#000" stroke-linecap="round" stroke-linejoin="round" stroke-width="1" marker-end="url(#FilledArrow_Marker)"/></g><g id="Graphic_304"><rect width="122.336" height="46.896" x="1431.806" y="1529.897" fill="#fff"/><text fill="#000" transform="translate(1436.8063 1534.8969)"><tspan x="2.672" y="15" fill="#000" font-family="Helvetica Neue" font-size="16">HBONE Tunnel</tspan> <tspan x="0" y="33.448" fill="#000" font-family="Helvetica Neue" font-size="16">Pod B IP:15008</tspan></text></g><g id="Graphic_303"><rect width="232.441" height="28.346" x="1027.559" y="977.665" fill="#0a55a8"/><text fill="#fff" transform="translate(1032.5591 982.1067)"><tspan x="8.548" y="16" fill="#fff" font-family="Helvetica Neue" font-size="16" font-weight="bold">Ztunnel_outbound Listener</tspan></text></g><g id="Graphic_302"><rect width="232.441" height="28.346" x="1027.559" y="1057.805" fill="#0a55a8"/><text fill="#fff" transform="translate(1032.5591 1062.2462)"><tspan x="45.436" y="16" fill="#fff" font-family="Helvetica Neue" font-size="16" font-weight="bold">Service A Cluster</tspan></text></g><g id="Graphic_301"><rect width="232.441" height="28.346" x="1027.559" y="1137.945" fill="#0a55a8"/><text fill="#fff" transform="translate(1032.5591 1142.3858)"><tspan x="9.316" y="16" fill="#fff" font-family="Helvetica Neue" font-size="16" font-weight="bold">Internal Upstream Listener</tspan></text></g><g id="Line_300"><line x1="1143.78" x2="1143.78" y1="1006.012" y2="1047.905" stroke="#000" stroke-linecap="round" stroke-linejoin="round" stroke-width="1" marker-end="url(#FilledArrow_Marker)"/></g><g id="Graphic_299"><rect width="243.071" height="24.336" x="1019.346" y="1016.7" fill="#fff"/><text fill="#000" transform="translate(1024.3456 1021.7)"><tspan x="7.173" y="11" fill="#000" font-family="Helvetica Neue" font-size="12">Match the destination port and cluster IP</tspan></text></g><g id="Graphic_298"><rect width="232.441" height="28.346" x="1027.559" y="1218.084" fill="#0a55a8"/><text fill="#fff" transform="translate(1032.5591 1222.5253)"><tspan x="16.244" y="16" fill="#fff" font-family="Helvetica Neue" font-size="16" font-weight="bold">Outbound Tunnel Cluster</tspan></text></g><g id="Line_297"><line x1="1143.78" x2="1143.78" y1="1086.151" y2="1128.045" stroke="#000" stroke-linecap="round" stroke-linejoin="round" stroke-width="1" marker-end="url(#FilledArrow_Marker)"/></g><g id="Line_296"><line x1="1143.78" x2="1143.78" y1="1166.291" y2="1208.184" stroke="#000" stroke-linecap="round" stroke-linejoin="round" stroke-width="1" marker-end="url(#FilledArrow_Marker)"/></g><g id="Graphic_295"><rect width="243.071" height="24.336" x="1022.244" y="766.582" fill="#fff"/><text fill="#000" transform="translate(1027.2441 771.5818)"><tspan x="77.859" y="11" fill="#000" font-family="Helvetica Neue" font-size="12">Geneve tunnel</tspan></text></g><g id="Graphic_294"><rect width="42.608" height="24.336" x="1122.476" y="1094.89" fill="#fff"/><text fill="#000" transform="translate(1127.4755 1099.8896)"><tspan x="4.526" y="11" fill="#000" font-family="Helvetica Neue" font-size="12">EDS</tspan></text></g><g id="Graphic_293"><rect width="391.181" height="28.346" x="948.189" y="1539.213" fill="#dadada"/><rect width="391.181" height="28.346" x="948.189" y="1539.213" stroke="gray" stroke-linecap="round" stroke-linejoin="round" stroke-width="1"/><text fill="#000" transform="translate(953.189 1543.6538)"><tspan x="173.991" y="16" fill="#000" font-family="Helvetica Neue" font-size="16" font-weight="bold">eth0</tspan></text></g><g id="Graphic_292"><rect width="391.181" height="25.348" x="948.189" y="871.119" fill="#f4f9ff"/><text fill="#000" transform="translate(953.189 874.0609)"><tspan x="166.583" y="16" fill="#000" font-family="Helvetica Neue" font-size="16" font-weight="bold">tproxy</tspan></text></g><g id="Graphic_291"><rect width="98.922" height="28.346" x="1092.869" y="565.512" fill="#dadada"/><text fill="#000" transform="translate(1097.8692 569.953)"><tspan x="27.861" y="16" fill="#000" font-family="Helvetica Neue" font-size="16" font-weight="bold">eth0</tspan></text></g><g id="Graphic_290"><rect width="391.181" height="28.346" x="946.74" y="621.064" fill="#dadada"/><rect width="391.181" height="28.346" x="946.74" y="621.064" stroke="gray" stroke-linecap="round" stroke-linejoin="round" stroke-width="1"/><text fill="#000" transform="translate(951.7397 625.5054)"><tspan x="161.391" y="16" fill="#000" font-family="Helvetica Neue" font-size="16" font-weight="bold">vethxxx</tspan></text></g><g id="Line_289"><line x1="1142.33" x2="1142.33" y1="649.411" y2="701.596" stroke="#000" stroke-linecap="round" stroke-linejoin="round" stroke-width="1" marker-end="url(#FilledArrow_Marker)"/></g><g id="Graphic_288"><rect width="289.936" height="39.684" x="997.362" y="655.763" fill="#fff"/><text fill="#000" transform="translate(1002.3623 660.7633)"><tspan x="34.992" y="12" fill="#000" font-family="Helvetica Neue" font-size="12" font-weight="bold">iptables chain ztunnel-PREROUTING</tspan> <tspan x="89.946" y="26.348" fill="#000" font-family="Helvetica Neue" font-size="12">mark 0x100/0x100</tspan></text></g><g id="Graphic_287"><rect width="70.752" height="28.346" x="1108.403" y="919.842" fill="#0a55a8"/><text fill="#fff" transform="translate(1113.4035 924.2837)"><tspan x="8.136" y="16" fill="#fff" font-family="Helvetica Neue" font-size="16" font-weight="bold">15001</tspan></text></g><g id="Graphic_286"><rect width="136.772" height="24.336" x="1075.394" y="1175.676" fill="#fff"/><text fill="#000" transform="translate(1080.3937 1180.676)"><tspan x="10.934" y="11" fill="#000" font-family="Helvetica Neue" font-size="12">HTTP Tunnel config</tspan></text></g><g id="Graphic_285"><rect width="219.685" height="28.346" x="1033.937" y="1367.716" fill="#dadada"/><rect width="219.685" height="28.346" x="1033.937" y="1367.716" stroke="gray" stroke-linecap="round" stroke-linejoin="round" stroke-width="1"/><text fill="#000" transform="translate(1038.937 1372.1577)"><tspan x="88.243" y="16" fill="#000" font-family="Helvetica Neue" font-size="16" font-weight="bold">eth0</tspan></text></g><g id="Graphic_284"><rect width="391.181" height="28.346" x="948.189" y="1421.575" fill="#dadada"/><rect width="391.181" height="28.346" x="948.189" y="1421.575" stroke="gray" stroke-linecap="round" stroke-linejoin="round" stroke-width="1"/><text fill="#000" transform="translate(953.189 1426.016)"><tspan x="161.391" y="16" fill="#000" font-family="Helvetica Neue" font-size="16" font-weight="bold">vethxxx</tspan></text></g><g id="Line_283"><line x1="1143.78" x2="1143.78" y1="948.189" y2="967.765" stroke="#000" stroke-linecap="round" stroke-linejoin="round" stroke-width="1" marker-end="url(#FilledArrow_Marker)"/></g><g id="Line_282"><line x1="1143.78" x2="1143.78" y1="1246.431" y2="1357.816" stroke="#000" stroke-linecap="round" stroke-linejoin="round" stroke-width="1" marker-end="url(#FilledArrow_Marker)"/></g><g id="Graphic_281"><rect width="391.181" height="46.772" x="948.189" y="1297.454" fill="#f4f9ff"/><path stroke="gray" stroke-dasharray="4 4" stroke-linecap="round" stroke-linejoin="round" stroke-width="1" d="M 948.189 1297.4542 L 1339.3701 1297.4542 L 1339.3701 1344.2259 L 948.189 1344.2259 Z"/><text fill="#000" transform="translate(953.189 1301.884)"><tspan x="140.535" y="16" fill="#000" font-family="Helvetica Neue" font-size="16" font-weight="bold">init container</tspan> <tspan x="79.767" y="34.464" fill="#000" font-family="Helvetica Neue" font-size="16">Setup iptables rules for ztunnel</tspan></text></g><g id="Line_280"><line x1="1143.78" x2="1143.78" y1="1396.063" y2="1411.675" stroke="#000" stroke-linecap="round" stroke-linejoin="round" stroke-width="1" marker-end="url(#FilledArrow_Marker)"/></g><g id="Line_279"><line x1="1143.78" x2="1143.78" y1="1449.921" y2="1529.313" stroke="#000" stroke-linecap="round" stroke-linejoin="round" stroke-width="1" marker-end="url(#FilledArrow_Marker)"/></g><g id="Graphic_278"><rect width="391.181" height="50.616" x="948.189" y="1469.145" fill="#fff"/><path stroke="gray" stroke-dasharray="4 4" stroke-linecap="round" stroke-linejoin="round" stroke-width="1" d="M 948.189 1469.1453 L 1339.3701 1469.1453 L 1339.3701 1519.7612 L 948.189 1519.7612 Z"/><text fill="#000" transform="translate(953.189 1475.4972)"><tspan x="157.727" y="16" fill="#000" font-family="Helvetica Neue" font-size="16" font-weight="bold">Istio CNI</tspan> <tspan x="38.559" y="34.464" fill="#000" font-family="Helvetica Neue" font-size="16">Setup iptables rules and veth pair for node</tspan></text></g><g id="Graphic_277"><rect width="391.181" height="28.514" x="1663.937" y="1539.045" fill="#dadada"/><rect width="391.181" height="28.514" x="1663.937" y="1539.045" stroke="gray" stroke-linecap="round" stroke-linejoin="round" stroke-width="1"/><text fill="#000" transform="translate(1668.937 1543.5698)"><tspan x="173.991" y="16" fill="#000" font-family="Helvetica Neue" font-size="16" font-weight="bold">eth0</tspan></text></g><g id="Graphic_276"><rect width="391.181" height="57.734" x="1663.937" y="1462.027" fill="#fff"/><rect width="391.181" height="57.734" x="1663.937" y="1462.027" stroke="gray" stroke-linecap="round" stroke-linejoin="round" stroke-width="1"/><text fill="#000" transform="translate(1668.937 1471.9382)"><tspan x="157.727" y="16" fill="#000" font-family="Helvetica Neue" font-size="16" font-weight="bold">Istio CNI</tspan> <tspan x="38.559" y="34.464" fill="#000" font-family="Helvetica Neue" font-size="16">Setup iptables rules and veth pair for node</tspan></text></g><g id="Graphic_275"><rect width="391.181" height="57.734" x="1663.937" y="1057.805" fill="#dadada"/><rect width="391.181" height="57.734" x="1663.937" y="1057.805" stroke="gray" stroke-linecap="round" stroke-linejoin="round" stroke-width="1"/><text fill="#000" transform="translate(1668.937 1067.7159)"><tspan x="162.767" y="16" fill="#000" font-family="Helvetica Neue" font-size="16" font-weight="bold">pistioin</tspan> <tspan x="139.439" y="34.464" fill="#000" font-family="Helvetica Neue" font-size="16">192.168.126.2</tspan></text></g><g id="Graphic_274"><rect width="391.181" height="57.734" x="1663.937" y="1138.919" fill="#f4f9ff"/><path stroke="gray" stroke-dasharray="4 4" stroke-linecap="round" stroke-linejoin="round" stroke-width="1" d="M 1663.937 1138.9186 L 2055.1181 1138.9186 L 2055.1181 1196.6523 L 1663.937 1196.6523 Z"/><text fill="#000" transform="translate(1668.937 1148.8294)"><tspan x="140.535" y="16" fill="#000" font-family="Helvetica Neue" font-size="16" font-weight="bold">init container</tspan> <tspan x="79.767" y="34.464" fill="#000" font-family="Helvetica Neue" font-size="16">Setup iptables rules for ztunnel</tspan></text></g><g id="Graphic_273"><rect width="70.752" height="28.346" x="1787.472" y="923.118" fill="#0a55a8"/><text fill="#fff" transform="translate(1792.4724 927.5593)"><tspan x="8.136" y="16" fill="#fff" font-family="Helvetica Neue" font-size="16" font-weight="bold">15006</tspan></text></g><g id="Graphic_272"><rect width="391.181" height="24.336" x="1663.937" y="1015.775" fill="#f4f9ff"/><text fill="#000" transform="translate(1668.937 1018.2108)"><tspan x="166.583" y="16" fill="#000" font-family="Helvetica Neue" font-size="16" font-weight="bold">tproxy</tspan></text></g><g id="Graphic_271"><rect width="289.936" height="39.684" x="1716.686" y="1403.06" fill="#fff"/><text fill="#000" transform="translate(1721.6856 1408.0598)"><tspan x="34.992" y="12" fill="#000" font-family="Helvetica Neue" font-size="12" font-weight="bold">iptables chain ztunnel-PREROUTING</tspan> <tspan x="89.946" y="26.348" fill="#000" font-family="Helvetica Neue" font-size="12">mark 0x200/0x200</tspan></text></g><g id="Graphic_270"><rect width="243.071" height="24.336" x="1737.992" y="1261.176" fill="#fff"/><text fill="#000" transform="translate(1742.9921 1266.1758)"><tspan x="77.859" y="11" fill="#000" font-family="Helvetica Neue" font-size="12">Geneve tunnel</tspan></text></g><g id="Graphic_269"><rect width="136.772" height="21.258" x="1791.142" y="711.496" fill="#dadada"/><rect width="136.772" height="21.258" x="1791.142" y="711.496" stroke="gray" stroke-linecap="round" stroke-linejoin="round" stroke-width="1"/><text fill="#000" transform="translate(1796.1417 712.3928)"><tspan x="46.786" y="16" fill="#000" font-family="Helvetica Neue" font-size="16" font-weight="bold">eth0</tspan></text></g><g id="Graphic_268"><rect width="98.922" height="28.346" x="1810.066" y="565.512" fill="#dadada"/><text fill="#000" transform="translate(1815.0665 569.953)"><tspan x="27.861" y="16" fill="#000" font-family="Helvetica Neue" font-size="16" font-weight="bold">eth0</tspan></text></g><g id="Graphic_267"><rect width="391.181" height="21.258" x="1663.937" y="666.142" fill="#dadada"/><rect width="391.181" height="21.258" x="1663.937" y="666.142" stroke="gray" stroke-linecap="round" stroke-linejoin="round" stroke-width="1"/><text fill="#000" transform="translate(1668.937 667.0384)"><tspan x="161.391" y="16" fill="#000" font-family="Helvetica Neue" font-size="16" font-weight="bold">vethxxx</tspan></text></g><g id="Graphic_266"><rect width="391.181" height="21.258" x="1663.937" y="619.371" fill="#dadada"/><rect width="391.181" height="21.258" x="1663.937" y="619.371" stroke="gray" stroke-linecap="round" stroke-linejoin="round" stroke-width="1"/><text fill="#000" transform="translate(1668.937 620.26794)"><tspan x="161.391" y="16" fill="#000" font-family="Helvetica Neue" font-size="16" font-weight="bold">vethxxx</tspan></text></g><g id="Line_265"><line x1="1859.528" x2="1859.528" y1="666.142" y2="650.529" stroke="#000" stroke-linecap="round" stroke-linejoin="round" stroke-width="1" marker-end="url(#FilledArrow_Marker)"/></g><g id="Line_264"><line x1="1859.528" x2="1859.528" y1="619.371" y2="603.758" stroke="#000" stroke-linecap="round" stroke-linejoin="round" stroke-width="1" marker-end="url(#FilledArrow_Marker)"/></g><g id="Line_263"><line x1="1339.37" x2="1654.037" y1="1553.363" y2="1553.326" stroke="#000" stroke-linecap="round" stroke-linejoin="round" stroke-width="1" marker-end="url(#FilledArrow_Marker)"/></g><g id="Graphic_262"><rect width="70.752" height="28.346" x="1858.224" y="923.118" fill="#0a55a8"/><text fill="#fff" transform="translate(1863.2244 927.5593)"><tspan x="8.136" y="16" fill="#fff" font-family="Helvetica Neue" font-size="16" font-weight="bold">15008</tspan></text></g><g id="Line_261"><path stroke="#000" stroke-linecap="round" stroke-linejoin="round" stroke-width="1" marker-end="url(#FilledArrow_Marker)" d="M 1859.5276 1015.7748 L 1859.5276 1002.9542 L 1822.8484 1002.9542 L 1822.8484 961.3646"/></g><g id="Line_260"><path stroke="#000" stroke-linecap="round" stroke-linejoin="round" stroke-width="1" marker-end="url(#FilledArrow_Marker)" d="M 1859.5276 1015.7748 L 1859.5276 1002.8293 L 1893.6004 1002.8293 L 1893.6004 961.3646"/></g><g id="Graphic_259"><rect width="58.11" height="24.336" x="1864.545" y="970.101" fill="#f4f9ff"/><text fill="#000" transform="translate(1869.5453 975.1013)"><tspan x="13.387" y="11" fill="#000" font-family="Helvetica Neue" font-size="12">TLS</tspan></text></g><g id="Graphic_258"><rect width="58.11" height="24.336" x="1793.793" y="972.918" fill="#f4f9ff"/><text fill="#000" transform="translate(1798.7933 977.9185)"><tspan x="10.945" y="11" fill="#000" font-family="Helvetica Neue" font-size="12">Plain</tspan></text></g><g id="Line_257"><path stroke="#000" stroke-linecap="round" stroke-linejoin="round" stroke-width="1" marker-end="url(#FilledArrow_Marker)" d="M 1822.8484 923.1182 L 1822.8484 900.8759 L 1859.5276 900.8759 L 1859.5276 888.5337"/></g><g id="Line_256"><path stroke="#000" stroke-linecap="round" stroke-linejoin="round" stroke-width="1" marker-end="url(#FilledArrow_Marker)" d="M 1893.6004 923.1182 L 1893.6004 900.8759 L 1859.5276 900.8759 L 1859.5276 888.5337"/></g><g id="Line_255"><line x1="1859.528" x2="1859.528" y1="783.15" y2="742.654" stroke="#000" stroke-linecap="round" stroke-linejoin="round" stroke-width="1" marker-end="url(#FilledArrow_Marker)"/></g></g></g></svg>