<?xml version="1.0" encoding="UTF-8" standalone="no"?>
<!DOCTYPE svg PUBLIC "-//W3C//DTD SVG 1.1//EN" "http://www.w3.org/Graphics/SVG/1.1/DTD/svg11.dtd">
<svg version="1.1" xmlns:dc="http://purl.org/dc/elements/1.1/" xmlns="http://www.w3.org/2000/svg" xmlns:xl="http://www.w3.org/1999/xlink" viewBox="1491 858 726 426" width="726" height="426">
  <defs>
    <marker orient="auto" overflow="visible" markerUnits="strokeWidth" id="FilledArrow_Marker" stroke-linejoin="miter" stroke-miterlimit="10" viewBox="-1 -3 7 6" markerWidth="7" markerHeight="6" color="black">
      <g>
        <path d="M 4.8 0 L 0 -1.8 L 0 1.8 Z" fill="currentColor" stroke="currentColor" stroke-width="1"/>
      </g>
    </marker>
  </defs>
  <g id="Certificate_Trust_Chain" stroke="none" stroke-dasharray="none" stroke-opacity="1" fill-opacity="1" fill="none">
    <title>Certificate Trust Chain</title>
    <rect fill="white" x="1491" y="858" width="726" height="426"/>
    <g id="Certificate_Trust_Chain_Layer_1">
      <title>Layer 1</title>
      <g id="Graphic_64">
        <rect x="1491.5" y="858" width="725" height="426" fill="white"/>
      </g>
      <g id="Graphic_10">
        <rect x="1606.802" y="990" width="120" height="60" fill="#666"/>
        <text transform="translate(1611.802 1000.5359)" fill="white">
          <tspan font-family="Helvetica Neue" font-weight="bold" font-size="16" fill="white" x="6.584" y="16">Intermediate</tspan>
          <tspan font-family="Helvetica Neue" font-weight="bold" font-size="16" fill="white" x="43.592" y="35.46411">CA</tspan>
        </text>
      </g>
      <g id="Graphic_8">
        <rect x="1697.75" y="1101" width="120" height="60" fill="#666"/>
        <text transform="translate(1702.75 1111.5359)" fill="white">
          <tspan font-family="Helvetica Neue" font-weight="bold" font-size="16" fill="white" x="6.584" y="16">Intermediate</tspan>
          <tspan font-family="Helvetica Neue" font-weight="bold" font-size="16" fill="white" x="43.592" y="35.46411">CA</tspan>
        </text>
      </g>
      <g id="Line_6">
        <line x1="1640.7885" y1="1050" x2="1605.0166" y2="1091.2538" marker-end="url(#FilledArrow_Marker)" stroke="black" stroke-linecap="round" stroke-linejoin="round" stroke-width="2"/>
      </g>
      <g id="Line_5">
        <line x1="1691.3825" y1="1050" x2="1724.9937" y2="1091.0217" marker-end="url(#FilledArrow_Marker)" stroke="black" stroke-linecap="round" stroke-linejoin="round" stroke-width="2"/>
      </g>
      <g id="Graphic_17">
        <rect x="1697.75" y="876" width="120" height="60" fill="#333"/>
        <text transform="translate(1702.75 896.2679)" fill="white">
          <tspan font-family="Helvetica Neue" font-weight="bold" font-size="16" fill="white" x="23" y="16">Root CA</tspan>
        </text>
      </g>
      <g id="Graphic_18">
        <rect x="1794" y="990" width="120" height="60" fill="#666"/>
        <text transform="translate(1799 1000.5359)" fill="white">
          <tspan font-family="Helvetica Neue" font-weight="bold" font-size="16" fill="white" x="6.584" y="16">Intermediate</tspan>
          <tspan font-family="Helvetica Neue" font-weight="bold" font-size="16" fill="white" x="43.592" y="35.46411">CA</tspan>
        </text>
      </g>
      <g id="Graphic_19">
        <rect x="1890.25" y="876" width="120" height="60" fill="#333"/>
        <text transform="translate(1895.25 896.2679)" fill="white">
          <tspan font-family="Helvetica Neue" font-weight="bold" font-size="16" fill="white" x="23" y="16">Root CA</tspan>
        </text>
      </g>
      <g id="Graphic_20">
        <rect x="1981.198" y="990" width="120" height="60" fill="#666"/>
        <text transform="translate(1986.198 1000.5359)" fill="white">
          <tspan font-family="Helvetica Neue" font-weight="bold" font-size="16" fill="white" x="6.584" y="16">Intermediate</tspan>
          <tspan font-family="Helvetica Neue" font-weight="bold" font-size="16" fill="white" x="43.592" y="35.46411">CA</tspan>
        </text>
      </g>
      <g id="Line_21">
        <line x1="1733.8163" y1="936" x2="1698.7807" y2="979.9159" marker-end="url(#FilledArrow_Marker)" stroke="black" stroke-linecap="round" stroke-linejoin="round" stroke-width="2"/>
      </g>
      <g id="Line_22">
        <line x1="1783.079" y1="936" x2="1820.349" y2="980.1433" marker-end="url(#FilledArrow_Marker)" stroke="black" stroke-linecap="round" stroke-linejoin="round" stroke-width="2"/>
      </g>
      <g id="Line_23">
        <line x1="1974.1837" y1="936" x2="2009.2193" y2="979.9159" marker-end="url(#FilledArrow_Marker)" stroke="black" stroke-linecap="round" stroke-linejoin="round" stroke-width="2"/>
      </g>
      <g id="Graphic_9">
        <rect x="1510.552" y="1101" width="120" height="60" fill="#0a55a8"/>
        <text transform="translate(1515.552 1106)" fill="white">
          <tspan font-family="Helvetica Neue" font-weight="bold" font-size="16" fill="white" x="16.184" y="16">End Entity</tspan>
        </text>
      </g>
      <g id="Group_25">
        <g id="Group_26">
          <g id="Graphic_28">
            <path d="M 1578.8867 1150.9642 L 1575.6663 1150.9642 L 1575.6663 1147.8171 C 1576.2826 1147.1191 1576.654 1146.2129 1576.654 1145.221 C 1576.654 1143.0331 1574.8418 1141.2575 1572.6132 1141.2575 C 1570.3847 1141.2575 1568.5724 1143.0372 1568.5724 1145.221 C 1568.5724 1146.2129 1568.9438 1147.1191 1569.5602 1147.8171 L 1569.5602 1150.9642 L 1562.2173 1150.9642 L 1562.2173 1136.6654 L 1578.8826 1136.6654 L 1578.8826 1150.9642 Z M 1572.6132 1151.3765 L 1571.2377 1152.4337 L 1571.2377 1148.9518 C 1571.6663 1149.1029 1572.1316 1149.1886 1572.6132 1149.1886 C 1573.0949 1149.1886 1573.5602 1149.107 1573.9887 1148.9518 L 1573.9887 1152.4337 Z M 1572.6132 1147.5232 C 1571.303 1147.5232 1570.2377 1146.4905 1570.2377 1145.221 C 1570.2377 1143.9516 1571.303 1142.9188 1572.6132 1142.9188 C 1573.9234 1142.9188 1574.9887 1143.9516 1574.9887 1145.221 C 1574.9887 1146.4905 1573.9234 1147.5232 1572.6132 1147.5232 Z M 1579.7193 1135 L 1561.3847 1135 C 1560.9234 1135 1560.552 1135.3715 1560.552 1135.8327 L 1560.552 1151.7969 C 1560.552 1152.2582 1560.9234 1152.6296 1561.3847 1152.6296 L 1569.5602 1152.6296 L 1569.5602 1154.1848 C 1569.5602 1154.8583 1570.3357 1155.242 1570.8704 1154.8297 L 1572.6132 1153.4909 L 1574.356 1154.8297 C 1574.8908 1155.242 1575.6663 1154.8583 1575.6663 1154.1848 L 1575.6663 1152.6296 L 1579.7193 1152.6296 C 1580.1806 1152.6296 1580.552 1152.2582 1580.552 1151.7969 L 1580.552 1135.8327 C 1580.552 1135.3715 1580.1806 1135 1579.7193 1135 Z" fill="white"/>
          </g>
          <g id="Graphic_27">
            <path d="M 1566.2704 1140.4656 L 1574.8296 1140.4656 C 1575.2908 1140.4656 1575.6622 1140.0942 1575.6622 1139.6329 C 1575.6622 1139.1717 1575.2908 1138.8002 1574.8296 1138.8002 L 1566.2704 1138.8002 C 1565.8091 1138.8002 1565.4377 1139.1717 1565.4377 1139.6329 C 1565.4377 1140.0901 1565.8132 1140.4656 1566.2704 1140.4656 Z" fill="white"/>
          </g>
        </g>
      </g>
      <g id="Graphic_38">
        <rect x="1884.948" y="1101" width="120" height="60" fill="#0a55a8"/>
        <text transform="translate(1889.948 1106)" fill="white">
          <tspan font-family="Helvetica Neue" font-weight="bold" font-size="16" fill="white" x="16.184" y="16">End Entity</tspan>
        </text>
      </g>
      <g id="Group_33">
        <g id="Group_34">
          <g id="Graphic_36">
            <path d="M 1953.2827 1150.9642 L 1950.0623 1150.9642 L 1950.0623 1147.8171 C 1950.6786 1147.1191 1951.05 1146.2129 1951.05 1145.221 C 1951.05 1143.0331 1949.2378 1141.2575 1947.0092 1141.2575 C 1944.7807 1141.2575 1942.9684 1143.0372 1942.9684 1145.221 C 1942.9684 1146.2129 1943.3398 1147.1191 1943.9562 1147.8171 L 1943.9562 1150.9642 L 1936.6133 1150.9642 L 1936.6133 1136.6654 L 1953.2786 1136.6654 L 1953.2786 1150.9642 Z M 1947.0092 1151.3765 L 1945.6337 1152.4337 L 1945.6337 1148.9518 C 1946.0623 1149.1029 1946.5276 1149.1886 1947.0092 1149.1886 C 1947.4909 1149.1886 1947.9562 1149.107 1948.3847 1148.9518 L 1948.3847 1152.4337 Z M 1947.0092 1147.5232 C 1945.699 1147.5232 1944.6337 1146.4905 1944.6337 1145.221 C 1944.6337 1143.9516 1945.699 1142.9188 1947.0092 1142.9188 C 1948.3194 1142.9188 1949.3847 1143.9516 1949.3847 1145.221 C 1949.3847 1146.4905 1948.3194 1147.5232 1947.0092 1147.5232 Z M 1954.1153 1135 L 1935.7807 1135 C 1935.3194 1135 1934.948 1135.3715 1934.948 1135.8327 L 1934.948 1151.7969 C 1934.948 1152.2582 1935.3194 1152.6296 1935.7807 1152.6296 L 1943.9562 1152.6296 L 1943.9562 1154.1848 C 1943.9562 1154.8583 1944.7317 1155.242 1945.2664 1154.8297 L 1947.0092 1153.4909 L 1948.752 1154.8297 C 1949.2868 1155.242 1950.0623 1154.8583 1950.0623 1154.1848 L 1950.0623 1152.6296 L 1954.1153 1152.6296 C 1954.5766 1152.6296 1954.948 1152.2582 1954.948 1151.7969 L 1954.948 1135.8327 C 1954.948 1135.3715 1954.5766 1135 1954.1153 1135 Z" fill="white"/>
          </g>
          <g id="Graphic_35">
            <path d="M 1940.6664 1140.4656 L 1949.2256 1140.4656 C 1949.6868 1140.4656 1950.0582 1140.0942 1950.0582 1139.6329 C 1950.0582 1139.1717 1949.6868 1138.8002 1949.2256 1138.8002 L 1940.6664 1138.8002 C 1940.2051 1138.8002 1939.8337 1139.1717 1939.8337 1139.6329 C 1939.8337 1140.0901 1940.2092 1140.4656 1940.6664 1140.4656 Z" fill="white"/>
          </g>
        </g>
      </g>
      <g id="Line_39">
        <line x1="1878.5805" y1="1050" x2="1912.1917" y2="1091.0217" marker-end="url(#FilledArrow_Marker)" stroke="black" stroke-linecap="round" stroke-linejoin="round" stroke-width="2"/>
      </g>
      <g id="Graphic_47">
        <rect x="2072.146" y="1101" width="120" height="60" fill="#0a55a8"/>
        <text transform="translate(2077.146 1106)" fill="white">
          <tspan font-family="Helvetica Neue" font-weight="bold" font-size="16" fill="white" x="16.184" y="16">End Entity</tspan>
        </text>
      </g>
      <g id="Group_42">
        <g id="Group_43">
          <g id="Graphic_45">
            <path d="M 2140.4807 1150.9642 L 2137.2603 1150.9642 L 2137.2603 1147.8171 C 2137.8766 1147.1191 2138.248 1146.2129 2138.248 1145.221 C 2138.248 1143.0331 2136.4358 1141.2575 2134.2072 1141.2575 C 2131.9787 1141.2575 2130.1664 1143.0372 2130.1664 1145.221 C 2130.1664 1146.2129 2130.5378 1147.1191 2131.1542 1147.8171 L 2131.1542 1150.9642 L 2123.8113 1150.9642 L 2123.8113 1136.6654 L 2140.4766 1136.6654 L 2140.4766 1150.9642 Z M 2134.2072 1151.3765 L 2132.8317 1152.4337 L 2132.8317 1148.9518 C 2133.2603 1149.1029 2133.7256 1149.1886 2134.2072 1149.1886 C 2134.6889 1149.1886 2135.1542 1149.107 2135.5827 1148.9518 L 2135.5827 1152.4337 Z M 2134.2072 1147.5232 C 2132.897 1147.5232 2131.8317 1146.4905 2131.8317 1145.221 C 2131.8317 1143.9516 2132.897 1142.9188 2134.2072 1142.9188 C 2135.5174 1142.9188 2136.5827 1143.9516 2136.5827 1145.221 C 2136.5827 1146.4905 2135.5174 1147.5232 2134.2072 1147.5232 Z M 2141.3133 1135 L 2122.9787 1135 C 2122.5174 1135 2122.146 1135.3715 2122.146 1135.8327 L 2122.146 1151.7969 C 2122.146 1152.2582 2122.5174 1152.6296 2122.9787 1152.6296 L 2131.1542 1152.6296 L 2131.1542 1154.1848 C 2131.1542 1154.8583 2131.9297 1155.242 2132.4644 1154.8297 L 2134.2072 1153.4909 L 2135.95 1154.8297 C 2136.4848 1155.242 2137.2603 1154.8583 2137.2603 1154.1848 L 2137.2603 1152.6296 L 2141.3133 1152.6296 C 2141.7746 1152.6296 2142.146 1152.2582 2142.146 1151.7969 L 2142.146 1135.8327 C 2142.146 1135.3715 2141.7746 1135 2141.3133 1135 Z" fill="white"/>
          </g>
          <g id="Graphic_44">
            <path d="M 2127.8644 1140.4656 L 2136.4236 1140.4656 C 2136.8848 1140.4656 2137.2562 1140.0942 2137.2562 1139.6329 C 2137.2562 1139.1717 2136.8848 1138.8002 2136.4236 1138.8002 L 2127.8644 1138.8002 C 2127.4031 1138.8002 2127.0317 1139.1717 2127.0317 1139.6329 C 2127.0317 1140.0901 2127.4072 1140.4656 2127.8644 1140.4656 Z" fill="white"/>
          </g>
        </g>
      </g>
      <g id="Line_48">
        <line x1="2065.7785" y1="1050" x2="2099.3897" y2="1091.0217" marker-end="url(#FilledArrow_Marker)" stroke="black" stroke-linecap="round" stroke-linejoin="round" stroke-width="2"/>
      </g>
      <g id="Graphic_56">
        <rect x="1697.75" y="1212" width="120" height="60" fill="#0a55a8"/>
        <text transform="translate(1702.75 1217)" fill="white">
          <tspan font-family="Helvetica Neue" font-weight="bold" font-size="16" fill="white" x="16.184" y="16">End Entity</tspan>
        </text>
      </g>
      <g id="Group_51">
        <g id="Group_52">
          <g id="Graphic_54">
            <path d="M 1766.0847 1261.9642 L 1762.8643 1261.9642 L 1762.8643 1258.8171 C 1763.4806 1258.1191 1763.852 1257.2129 1763.852 1256.221 C 1763.852 1254.0331 1762.0398 1252.2575 1759.8112 1252.2575 C 1757.5827 1252.2575 1755.7704 1254.0372 1755.7704 1256.221 C 1755.7704 1257.2129 1756.1418 1258.1191 1756.7582 1258.8171 L 1756.7582 1261.9642 L 1749.4153 1261.9642 L 1749.4153 1247.6654 L 1766.0806 1247.6654 L 1766.0806 1261.9642 Z M 1759.8112 1262.3765 L 1758.4357 1263.4337 L 1758.4357 1259.9518 C 1758.8643 1260.1029 1759.3296 1260.1886 1759.8112 1260.1886 C 1760.2929 1260.1886 1760.7582 1260.107 1761.1867 1259.9518 L 1761.1867 1263.4337 Z M 1759.8112 1258.5232 C 1758.501 1258.5232 1757.4357 1257.4905 1757.4357 1256.221 C 1757.4357 1254.9516 1758.501 1253.9188 1759.8112 1253.9188 C 1761.1214 1253.9188 1762.1867 1254.9516 1762.1867 1256.221 C 1762.1867 1257.4905 1761.1214 1258.5232 1759.8112 1258.5232 Z M 1766.9173 1246 L 1748.5827 1246 C 1748.1214 1246 1747.75 1246.3715 1747.75 1246.8327 L 1747.75 1262.7969 C 1747.75 1263.2582 1748.1214 1263.6296 1748.5827 1263.6296 L 1756.7582 1263.6296 L 1756.7582 1265.1848 C 1756.7582 1265.8583 1757.5337 1266.242 1758.0684 1265.8297 L 1759.8112 1264.4909 L 1761.554 1265.8297 C 1762.0888 1266.242 1762.8643 1265.8583 1762.8643 1265.1848 L 1762.8643 1263.6296 L 1766.9173 1263.6296 C 1767.3786 1263.6296 1767.75 1263.2582 1767.75 1262.7969 L 1767.75 1246.8327 C 1767.75 1246.3715 1767.3786 1246 1766.9173 1246 Z" fill="white"/>
          </g>
          <g id="Graphic_53">
            <path d="M 1753.4684 1251.4656 L 1762.0276 1251.4656 C 1762.4888 1251.4656 1762.8602 1251.0942 1762.8602 1250.633 C 1762.8602 1250.1717 1762.4888 1249.8002 1762.0276 1249.8002 L 1753.4684 1249.8002 C 1753.0071 1249.8002 1752.6357 1250.1717 1752.6357 1250.633 C 1752.6357 1251.0901 1753.0112 1251.4656 1753.4684 1251.4656 Z" fill="white"/>
          </g>
        </g>
      </g>
      <g id="Line_57">
        <line x1="1757.75" y1="1161" x2="1757.75" y2="1199.1" marker-end="url(#FilledArrow_Marker)" stroke="black" stroke-linecap="round" stroke-linejoin="round" stroke-width="2"/>
      </g>
    </g>
  </g>
</svg>
