<svg xmlns="http://www.w3.org/2000/svg" xmlns:xl="http://www.w3.org/1999/xlink" width="626" height="351" version="1.1" viewBox="1360 975 626 351"><defs><marker id="FilledArrow_Marker" stroke-linejoin="miter" stroke-miterlimit="10" color="#000" markerHeight="6" markerUnits="strokeWidth" markerWidth="7" orient="auto" overflow="visible" viewBox="-1 -3 7 6"><g><path fill="currentColor" stroke="currentColor" stroke-width="1" d="M 4.8 0 L 0 -1.8 L 0 1.8 Z"/></g></marker></defs><g id="Cert_Generation" fill="none" fill-opacity="1" stroke="none" stroke-dasharray="none" stroke-opacity="1"><title>Cert Generation</title><rect width="626" height="351" x="1360" y="975" fill="#fff"/><g id="Cert_Generation_Layer_1"><title>Layer 1</title><g id="Graphic_55"><rect width="625.786" height="350.5" x="1360.188" y="975" fill="#fff"/></g><g id="Graphic_10"><path fill="#0a55a8" d="M 1613.081 1041.5 L 1613.081 993.5 C 1613.081 990.188 1639.961 987.5 1673.081 987.5 C 1706.201 987.5 1733.081 990.188 1733.081 993.5 L 1733.081 1041.5 C 1733.081 1044.812 1706.201 1047.5 1673.081 1047.5 C 1639.961 1047.5 1613.081 1044.812 1613.081 1041.5"/><path stroke="#fff" stroke-linecap="round" stroke-linejoin="round" stroke-width="1" d="M 1613.081 1041.5 L 1613.081 993.5 C 1613.081 990.188 1639.961 987.5 1673.081 987.5 C 1706.201 987.5 1733.081 990.188 1733.081 993.5 L 1733.081 1041.5 C 1733.081 1044.812 1706.201 1047.5 1673.081 1047.5 C 1639.961 1047.5 1613.081 1044.812 1613.081 1041.5 M 1613.081 993.5 C 1613.081 996.812 1639.961 999.5 1673.081 999.5 C 1706.201 999.5 1733.081 996.812 1733.081 993.5"/><text fill="#fff" transform="translate(1618.081 1010.768)"><tspan x="12.768" y="16" fill="#fff" font-family="Helvetica Neue" font-size="16" font-weight="bold">Trusted CA</tspan></text></g><g id="Graphic_9"><rect width="120" height="80" x="1433.552" y="1207.5" fill="#0a55a8"/><text fill="#fff" transform="translate(1438.552 1237.768)"><tspan x="30.24" y="16" fill="#fff" font-family="Helvetica Neue" font-size="16" font-weight="bold">Server</tspan></text></g><g id="Graphic_8"><rect width="120" height="80" x="1780.052" y="1207.5" fill="#0a55a8"/><text fill="#fff" transform="translate(1785.052 1237.768)"><tspan x="32.792" y="16" fill="#fff" font-family="Helvetica Neue" font-size="16" font-weight="bold">Client</tspan></text></g><g id="Line_6"><line x1="1524.774" x2="1642.085" y1="1207.5" y2="1057.209" stroke="#000" stroke-linecap="round" stroke-linejoin="round" stroke-width="2" marker-end="url(#FilledArrow_Marker)"/></g><g id="Graphic_3"><rect width="278.056" height="24.336" x="1701.024" y="1301.164" fill="#fff"/><text fill="#000" transform="translate(1706.024 1306.164)"><tspan x="0" y="11" fill="#000" font-family="Helvetica Neue" font-size="12">10. Decrypt messages with the client’s private key</tspan></text></g><g id="Line_12"><path stroke="#000" stroke-linecap="round" stroke-linejoin="round" stroke-width="2" marker-end="url(#FilledArrow_Marker)" d="M 1780.052 1251.2385 L 1769.1007 1251.1111 L 1566.452 1251.1111"/></g><g id="Graphic_16"><rect width="98.236" height="38.672" x="1550.794" y="1091.903" fill="#fff"/><text fill="#000" transform="translate(1555.7938 1096.9032)"><tspan x="10.008" y="11" fill="#000" font-family="Helvetica Neue" font-size="12">1. Certificate</tspan> <tspan x="0" y="25.336" fill="#000" font-family="Helvetica Neue" font-size="12">Signing Reqeust</tspan></text></g><g id="Line_5"><line x1="1613.081" x2="1465.534" y1="1013.245" y2="1197.432" stroke="#000" stroke-linecap="round" stroke-linejoin="round" stroke-width="2" marker-end="url(#FilledArrow_Marker)"/></g><g id="Line_19"><line x1="1811.014" x2="1702.15" y1="1207.5" y2="1057.542" stroke="#000" stroke-linecap="round" stroke-linejoin="round" stroke-width="2" marker-end="url(#FilledArrow_Marker)"/></g><g id="Graphic_20"><rect width="107.32" height="38.672" x="1695.832" y="1103.418" fill="#fff"/><text fill="#000" transform="translate(1700.8316 1108.4184)"><tspan x="10.758" y="11" fill="#000" font-family="Helvetica Neue" font-size="12">5. Validata the</tspan> <tspan x="0" y="25.336" fill="#000" font-family="Helvetica Neue" font-size="12">server’s certificate</tspan></text></g><g id="Graphic_25"><rect width="78.22" height="24.336" x="1464.935" y="1147.6" fill="#fff"/><text fill="#000" transform="translate(1469.9354 1152.6)"><tspan x="0" y="11" fill="#000" font-family="Helvetica Neue" font-size="12">2. Certificate</tspan></text></g><g id="Graphic_28"><rect width="266.728" height="24.336" x="1360.188" y="1286.828" fill="#fff"/><text fill="#000" transform="translate(1365.188 1291.828)"><tspan x="0" y="11" fill="#000" font-family="Helvetica Neue" font-size="12">8. Encrypt messages with the client’s public key</tspan></text></g><g id="Line_57"><line x1="1780.052" x2="1566.452" y1="1216.085" y2="1216.085" stroke="#000" stroke-linecap="round" stroke-linejoin="round" stroke-width="2" marker-end="url(#FilledArrow_Marker)"/></g><g id="Graphic_58"><rect width="131.14" height="27" x="1592.426" y="1202.585" fill="#fff"/><text fill="#000" transform="translate(1597.4257 1207.5853)"><tspan x="0" y="13" fill="#000" font-family="Helvetica Neue" font-size="12">3. Request </tspan> <tspan y="13" fill="#000" font-family="PingFang SC" font-size="12">to connect</tspan></text></g><g id="Graphic_2"><rect width="120.7" height="24.336" x="1591.289" y="1238.943" fill="#fff"/><text fill="#000" transform="translate(1596.2894 1243.9431)"><tspan x="0" y="11" fill="#000" font-family="Helvetica Neue" font-size="12">7. Client’s public key</tspan></text></g><g id="Line_62"><line x1="1553.552" x2="1767.152" y1="1234.247" y2="1234.247" stroke="#000" stroke-linecap="round" stroke-linejoin="round" stroke-width="2" marker-end="url(#FilledArrow_Marker)"/></g><g id="Graphic_63"><rect width="122.44" height="24.336" x="1591.852" y="1222.079" fill="#fff"/><text fill="#000" transform="translate(1596.8525 1227.0786)"><tspan x="0" y="11" fill="#000" font-family="Helvetica Neue" font-size="12">4. Server’s certificate</tspan></text></g><g id="Group_61"><g id="Graphic_33"><rect width="16.67" height="16.67" x="1565.8" y="1226.825" fill="#fff"/></g><g id="Graphic_32"><path fill="#0a55a8" d="M 1581.0817 1240.1309 L 1578.3975 1240.1309 L 1578.3975 1237.5078 C 1578.9112 1236.926 1579.2208 1236.1708 1579.2208 1235.344 C 1579.2208 1233.5205 1577.7103 1232.0405 1575.8529 1232.0405 C 1573.9954 1232.0405 1572.4849 1233.5239 1572.4849 1235.344 C 1572.4849 1236.1708 1572.7945 1236.926 1573.3082 1237.5078 L 1573.3082 1240.1309 L 1567.188 1240.1309 L 1567.188 1228.213 L 1581.0783 1228.213 L 1581.0783 1240.1309 Z M 1575.8529 1240.4745 L 1574.7064 1241.3557 L 1574.7064 1238.4536 C 1575.0636 1238.5795 1575.4514 1238.651 1575.8529 1238.651 C 1576.2543 1238.651 1576.6421 1238.5829 1576.9993 1238.4536 L 1576.9993 1241.3557 Z M 1575.8529 1237.2629 C 1574.7608 1237.2629 1573.873 1236.4021 1573.873 1235.344 C 1573.873 1234.286 1574.7608 1233.4252 1575.8529 1233.4252 C 1576.9449 1233.4252 1577.8328 1234.286 1577.8328 1235.344 C 1577.8328 1236.4021 1576.9449 1237.2629 1575.8529 1237.2629 Z M 1581.7757 1226.825 L 1566.494 1226.825 C 1566.1096 1226.825 1565.8 1227.1346 1565.8 1227.519 L 1565.8 1240.825 C 1565.8 1241.2094 1566.1096 1241.519 1566.494 1241.519 L 1573.3082 1241.519 L 1573.3082 1242.8152 C 1573.3082 1243.3766 1573.9546 1243.6964 1574.4002 1243.3528 L 1575.8529 1242.2368 L 1577.3055 1243.3528 C 1577.7512 1243.6964 1578.3975 1243.3766 1578.3975 1242.8152 L 1578.3975 1241.519 L 1581.7757 1241.519 C 1582.1601 1241.519 1582.4697 1241.2094 1582.4697 1240.825 L 1582.4697 1227.519 C 1582.4697 1227.1346 1582.1601 1226.825 1581.7757 1226.825 Z"/></g><g id="Graphic_31"><path fill="#0a55a8" d="M 1570.5662 1231.3805 L 1577.7001 1231.3805 C 1578.0846 1231.3805 1578.3941 1231.0709 1578.3941 1230.6864 C 1578.3941 1230.302 1578.0846 1229.9924 1577.7001 1229.9924 L 1570.5662 1229.9924 C 1570.1818 1229.9924 1569.8722 1230.302 1569.8722 1230.6864 C 1569.8722 1231.0675 1570.1852 1231.3805 1570.5662 1231.3805 Z"/></g></g><g id="Group_66"><g id="Graphic_69"><rect width="16.67" height="16.67" x="1501.2" y="1130.93" fill="#fff"/></g><g id="Graphic_68"><path fill="#0a55a8" d="M 1516.4817 1144.2363 L 1513.7975 1144.2363 L 1513.7975 1141.6132 C 1514.3112 1141.0314 1514.6208 1140.2761 1514.6208 1139.4494 C 1514.6208 1137.6258 1513.1103 1136.1459 1511.2529 1136.1459 C 1509.3954 1136.1459 1507.8849 1137.6292 1507.8849 1139.4494 C 1507.8849 1140.2761 1508.1945 1141.0314 1508.7082 1141.6132 L 1508.7082 1144.2363 L 1502.588 1144.2363 L 1502.588 1132.3184 L 1516.4783 1132.3184 L 1516.4783 1144.2363 Z M 1511.2529 1144.5799 L 1510.1064 1145.461 L 1510.1064 1142.559 C 1510.4636 1142.6849 1510.8514 1142.7563 1511.2529 1142.7563 C 1511.6543 1142.7563 1512.0421 1142.6883 1512.3993 1142.559 L 1512.3993 1145.461 Z M 1511.2529 1141.3682 C 1510.1608 1141.3682 1509.2729 1140.5075 1509.2729 1139.4494 C 1509.2729 1138.3913 1510.1608 1137.5306 1511.2529 1137.5306 C 1512.3449 1137.5306 1513.2328 1138.3913 1513.2328 1139.4494 C 1513.2328 1140.5075 1512.3449 1141.3682 1511.2529 1141.3682 Z M 1517.1757 1130.9303 L 1501.894 1130.9303 C 1501.5096 1130.9303 1501.2 1131.24 1501.2 1131.6244 L 1501.2 1144.9303 C 1501.2 1145.3147 1501.5096 1145.6243 1501.894 1145.6243 L 1508.7082 1145.6243 L 1508.7082 1146.9206 C 1508.7082 1147.4819 1509.3546 1147.8017 1509.8002 1147.4581 L 1511.2529 1146.3422 L 1512.7055 1147.4581 C 1513.1512 1147.8017 1513.7975 1147.4819 1513.7975 1146.9206 L 1513.7975 1145.6243 L 1517.1757 1145.6243 C 1517.5601 1145.6243 1517.8697 1145.3147 1517.8697 1144.9303 L 1517.8697 1131.6244 C 1517.8697 1131.24 1517.5601 1130.9303 1517.1757 1130.9303 Z"/></g><g id="Graphic_67"><path fill="#0a55a8" d="M 1505.9662 1135.4859 L 1513.1001 1135.4859 C 1513.4846 1135.4859 1513.7941 1135.1763 1513.7941 1134.7918 C 1513.7941 1134.4074 1513.4846 1134.0978 1513.1001 1134.0978 L 1505.9662 1134.0978 C 1505.5818 1134.0978 1505.2722 1134.4074 1505.2722 1134.7918 C 1505.2722 1135.1729 1505.5852 1135.4859 1505.9662 1135.4859 Z"/></g></g><g id="Graphic_70"><rect width="291.844" height="24.336" x="1694.13" y="1283.539" fill="#fff"/><text fill="#000" transform="translate(1699.13 1288.5393)"><tspan x="0" y="11" fill="#000" font-family="Helvetica Neue" font-size="12">6. Generate a random pair of public and private keys</tspan></text></g><g id="Group_71"><g id="Graphic_74"><rect width="16.67" height="16.67" x="1728" y="1242.776" fill="#fff"/></g><g id="Graphic_73"><path fill="#0a55a8" d="M 1743.2817 1256.0822 L 1740.5975 1256.0822 L 1740.5975 1253.4591 C 1741.1112 1252.8773 1741.4208 1252.122 1741.4208 1251.2953 C 1741.4208 1249.4718 1739.9103 1247.9918 1738.0529 1247.9918 C 1736.1954 1247.9918 1734.685 1249.4752 1734.685 1251.2953 C 1734.685 1252.122 1734.9945 1252.8773 1735.5082 1253.4591 L 1735.5082 1256.0822 L 1729.388 1256.0822 L 1729.388 1244.1644 L 1743.2783 1244.1644 L 1743.2783 1256.0822 Z M 1738.0529 1256.4258 L 1736.9064 1257.307 L 1736.9064 1254.4049 C 1737.2636 1254.5308 1737.6514 1254.6022 1738.0529 1254.6022 C 1738.4543 1254.6022 1738.8421 1254.5342 1739.1993 1254.4049 L 1739.1993 1257.307 Z M 1738.0529 1253.2142 C 1736.9608 1253.2142 1736.073 1252.3534 1736.073 1251.2953 C 1736.073 1250.2373 1736.9608 1249.3765 1738.0529 1249.3765 C 1739.145 1249.3765 1740.0328 1250.2373 1740.0328 1251.2953 C 1740.0328 1252.3534 1739.145 1253.2142 1738.0529 1253.2142 Z M 1743.9757 1242.7763 L 1728.694 1242.7763 C 1728.3096 1242.7763 1728 1243.0859 1728 1243.4703 L 1728 1256.7762 C 1728 1257.1607 1728.3096 1257.4703 1728.694 1257.4703 L 1735.5082 1257.4703 L 1735.5082 1258.7665 C 1735.5082 1259.3279 1736.1546 1259.6477 1736.6002 1259.304 L 1738.0529 1258.1881 L 1739.5055 1259.304 C 1739.9512 1259.6477 1740.5975 1259.3279 1740.5975 1258.7665 L 1740.5975 1257.4703 L 1743.9757 1257.4703 C 1744.3601 1257.4703 1744.6697 1257.1607 1744.6697 1256.7762 L 1744.6697 1243.4703 C 1744.6697 1243.0859 1744.3601 1242.7763 1743.9757 1242.7763 Z"/></g><g id="Graphic_72"><path fill="#0a55a8" d="M 1732.7662 1247.3318 L 1739.9001 1247.3318 C 1740.2846 1247.3318 1740.5941 1247.0222 1740.5941 1246.6378 C 1740.5941 1246.2533 1740.2846 1245.9437 1739.9001 1245.9437 L 1732.7662 1245.9437 C 1732.3818 1245.9437 1732.0722 1246.2533 1732.0722 1246.6378 C 1732.0722 1247.0188 1732.3852 1247.3318 1732.7662 1247.3318 Z"/></g></g><g id="Line_75"><line x1="1553.552" x2="1767.152" y1="1273.059" y2="1273.059" stroke="#000" stroke-linecap="round" stroke-linejoin="round" stroke-width="2" marker-end="url(#FilledArrow_Marker)"/></g><g id="Group_77"><title>Message</title><g id="Graphic_51"><rect width="16.67" height="11.968" x="1565.8" y="1267.075" fill="#fff"/></g><g id="Group_44"><g id="Group_48"><g id="Group_49"><g id="Graphic_50"><path fill="#0a55a8" d="M 1565.8 1267.0754 L 1565.8 1279.0434 L 1582.4697 1279.0434 L 1582.4697 1267.0754 Z M 1581.0835 1268.3577 L 1574.1349 1274.1482 L 1567.1862 1268.3577 Z M 1581.1874 1277.761 L 1567.0823 1277.761 L 1567.0823 1269.9402 L 1574.1349 1275.8173 L 1581.1874 1269.9402 Z"/></g></g></g><g id="Group_45"><g id="Group_46"><g id="Graphic_47"><rect width="2.137" height="1.282" x="1577.768" y="1275.197" fill="#0a55a8"/></g></g></g></g></g><g id="Graphic_76"><rect width="136.036" height="24.336" x="1591.329" y="1260.891" fill="#fff"/><text fill="#000" transform="translate(1596.3292 1265.8914)"><tspan x="0" y="11" fill="#000" font-family="Helvetica Neue" font-size="12">9. Encrypted messages</tspan></text></g></g></g></svg>