<svg xmlns="http://www.w3.org/2000/svg" xmlns:xl="http://www.w3.org/1999/xlink" width="512" height="279" version="1.1" viewBox="159.5 -11 512 279"><g id="Canvas_1" fill="none" fill-opacity="1" stroke="none" stroke-dasharray="none" stroke-opacity="1"><title>Canvas 1</title><rect width="512" height="279" x="159.5" y="-11" fill="#fff"/><g id="Canvas_1_Layer_1"><title>Layer 1</title><g id="Graphic_3"><circle cx="274.5" cy="128.5" r="90" fill="#c0ffff"/><text fill="#000" transform="translate(207.5 117.5)"><tspan x="27" y="17" fill="#000" font-family="PingFang SC" font-size="16">应用开发者</tspan></text></g><g id="Graphic_4"><circle cx="560" cy="128.5" r="90" fill="#c0c0ff"/><text fill="#000" transform="translate(493 117.5)"><tspan x="19" y="17" fill="#000" font-family="PingFang SC" font-size="16">基础设施运维</tspan></text></g><g id="Graphic_6"><text fill="#000" transform="translate(260.5 6)"><tspan x="0" y="15" fill="#000" font-family="PingFang SC" font-size="14">代码</tspan></text></g><g id="Graphic_5"><circle cx="415.5" cy="128.5" r="90" fill="#ffc0ff"/><text fill="#000" transform="translate(348.5 117.5)"><tspan x="35" y="17" fill="#000" font-family="PingFang SC" font-size="16">应用运维</tspan></text></g><g id="Graphic_7"><text fill="#000" transform="translate(387.5 6)"><tspan x="0" y="15" fill="#000" font-family="PingFang SC" font-size="14">应用平台</tspan></text></g><g id="Graphic_8"><text fill="#000" transform="translate(504 6)"><tspan x="0" y="15" fill="#000" font-family="PingFang SC" font-size="14">计算、存储、网络</tspan></text></g><g id="Graphic_9"><text fill="#000" transform="translate(387.5 231)"><tspan x="0" y="15" fill="#000" font-family="PingFang SC" font-size="14">领域知识</tspan></text></g><g id="Graphic_10"><text fill="#000" transform="translate(246.5 231)"><tspan x="0" y="15" fill="#000" font-family="PingFang SC" font-size="14">业务逻辑</tspan></text></g><g id="Graphic_12"><text fill="#000" transform="translate(532 231)"><tspan x="0" y="15" fill="#000" font-family="PingFang SC" font-size="14">底层系统</tspan></text></g><g id="Graphic_17"><path fill="#ffffc0" d="M 345 72.542605 C 318.99994 105.2162 318.99994 151.7838 345 184.4574 C 371.00006 151.7838 371.00006 105.2162 345 72.5426 Z"/></g><g id="Graphic_20"><path fill="#c0ffc0" d="M 487.75 182.18489 C 511.4167 150.41705 511.4167 106.58294 487.75 74.81511 C 464.0833 106.58295 464.0833 150.41706 487.75 182.18489 Z"/></g></g></g></svg>