<svg xmlns="http://www.w3.org/2000/svg" xmlns:xl="http://www.w3.org/1999/xlink" width="378" height="208" version="1.1" viewBox="711 492 378 208"><g id="HTTP_vs_HTTPS" fill="none" fill-opacity="1" stroke="none" stroke-dasharray="none" stroke-opacity="1"><title>HTTP vs HTTPS</title><rect width="378" height="208" x="711" y="492" fill="#fff"/><g id="HTTP_vs_HTTPS_Layer_1"><title>Layer 1</title><g id="Graphic_11"><rect width="377" height="208" x="711.5" y="492" fill="#fff"/></g><g id="Graphic_2"><rect width="140" height="40" x="722.5" y="531.464" fill="#0a55a8"/><rect width="140" height="40" x="722.5" y="531.464" stroke="#fff" stroke-linecap="round" stroke-linejoin="round" stroke-width="1"/><text fill="#fff" transform="translate(727.5 541.73206)"><tspan x="43.96" y="16" fill="#fff" font-family="Helvetica Neue" font-size="16" font-weight="bold">HTTP</tspan></text></g><g id="Graphic_3"><rect width="140" height="80" x="722.5" y="571.464" fill="#0a55a8"/><rect width="140" height="80" x="722.5" y="571.464" stroke="#fff" stroke-linecap="round" stroke-linejoin="round" stroke-width="1"/><text fill="#fff" transform="translate(727.5 601.73206)"><tspan x="48.848" y="16" fill="#fff" font-family="Helvetica Neue" font-size="16" font-weight="bold">TCP</tspan></text></g><g id="Graphic_4"><rect width="140" height="40" x="722.5" y="651.464" fill="#0a55a8"/><rect width="140" height="40" x="722.5" y="651.464" stroke="#fff" stroke-linecap="round" stroke-linejoin="round" stroke-width="1"/><text fill="#fff" transform="translate(727.5 661.73206)"><tspan x="57.304" y="16" fill="#fff" font-family="Helvetica Neue" font-size="16" font-weight="bold">IP</tspan></text></g><g id="Graphic_7"><rect width="140" height="40" x="938" y="531.464" fill="#0a55a8"/><rect width="140" height="40" x="938" y="531.464" stroke="#fff" stroke-linecap="round" stroke-linejoin="round" stroke-width="1"/><text fill="#fff" transform="translate(943 541.73206)"><tspan x="43.96" y="16" fill="#fff" font-family="Helvetica Neue" font-size="16" font-weight="bold">HTTP</tspan></text></g><g id="Graphic_6"><rect width="140" height="40" x="938" y="571.464" fill="#0a55a8"/><rect width="140" height="40" x="938" y="571.464" stroke="#fff" stroke-linecap="round" stroke-linejoin="round" stroke-width="1"/><text fill="#fff" transform="translate(943 581.73206)"><tspan x="50.176" y="16" fill="#fff" font-family="Helvetica Neue" font-size="16" font-weight="bold">TLS</tspan></text></g><g id="Graphic_5"><rect width="140" height="40" x="938" y="651.464" fill="#0a55a8"/><rect width="140" height="40" x="938" y="651.464" stroke="#fff" stroke-linecap="round" stroke-linejoin="round" stroke-width="1"/><text fill="#fff" transform="translate(943 661.73206)"><tspan x="57.304" y="16" fill="#fff" font-family="Helvetica Neue" font-size="16" font-weight="bold">IP</tspan></text></g><g id="Graphic_8"><rect width="140" height="40" x="938" y="611.464" fill="#0a55a8"/><rect width="140" height="40" x="938" y="611.464" stroke="#fff" stroke-linecap="round" stroke-linejoin="round" stroke-width="1"/><text fill="#fff" transform="translate(943 621.73206)"><tspan x="48.848" y="16" fill="#fff" font-family="Helvetica Neue" font-size="16" font-weight="bold">TCP</tspan></text></g><g id="Graphic_9"><text fill="#000" transform="translate(771.46 507)"><tspan x="0" y="16" fill="#000" font-family="Helvetica Neue" font-size="16" font-weight="bold">HTTP</tspan></text></g><g id="Graphic_10"><text fill="#000" transform="translate(981.768 507)"><tspan x="0" y="16" fill="#000" font-family="Helvetica Neue" font-size="16" font-weight="bold">HTTPS</tspan></text></g></g></g></svg>