<svg xmlns="http://www.w3.org/2000/svg" xmlns:xl="http://www.w3.org/1999/xlink" width="1030" height="514" version="1.1" viewBox="891 464 1030 514"><defs><marker id="FilledArrow_Marker" stroke-linejoin="miter" stroke-miterlimit="10" color="#000" markerHeight="8" markerUnits="strokeWidth" markerWidth="10" orient="auto" overflow="visible" viewBox="-1 -4 10 8"><g><path fill="currentColor" stroke="currentColor" stroke-width="1" d="M 8 0 L 0 -3 L 0 3 Z"/></g></marker></defs><g id="eBPF_Tunnel" fill="none" fill-opacity="1" stroke="none" stroke-dasharray="none" stroke-opacity="1"><title>eBPF Tunnel</title><rect width="1030" height="514" x="891" y="464" fill="#fff"/><g id="eBPF_Tunnel_Layer_2"><title>Layer 2</title><g id="Graphic_344"><rect width="1028.976" height="513.071" x="891.496" y="464.882" fill="#fff"/></g><g id="Graphic_324"><rect width="454.961" height="460.63" x="913.755" y="488.976" stroke="#a5a5a5" stroke-linecap="round" stroke-linejoin="round" stroke-width="1"/><text fill="#000" transform="translate(918.755 493.9764)"><tspan x="0" y="16" fill="#000" font-family="Helvetica Neue" font-size="16" font-weight="bold">Node A</tspan></text></g><g id="Graphic_352"><rect width="391.181" height="180.968" x="945.645" y="666.142" fill="#fafafa"/><rect width="391.181" height="180.968" x="945.645" y="666.142" stroke="#000" stroke-linecap="round" stroke-linejoin="round" stroke-width="1"/><text fill="#000" transform="translate(950.6448 671.1417)"><tspan x="0" y="16" fill="#000" font-family="Helvetica Neue" font-size="16" font-weight="bold">Ztunnel A Pod</tspan></text></g><g id="Graphic_340"><rect width="454.961" height="460.63" x="1445.669" y="488.976" stroke="#a5a5a5" stroke-linecap="round" stroke-linejoin="round" stroke-width="1"/><text fill="#000" transform="translate(1450.6693 493.9764)"><tspan x="0" y="16" fill="#000" font-family="Helvetica Neue" font-size="16" font-weight="bold">Node B</tspan></text></g><g id="Graphic_322"><rect width="391.181" height="198.425" x="1483.937" y="637.795" fill="#fafafa"/><rect width="391.181" height="198.425" x="1483.937" y="637.795" stroke="#000" stroke-linecap="round" stroke-linejoin="round" stroke-width="1"/><text fill="#000" transform="translate(1488.937 642.7953)"><tspan x="0" y="16" fill="#000" font-family="Helvetica Neue" font-size="16" font-weight="bold">Ztunnel B Pod</tspan></text></g><g id="Graphic_321"><rect width="391.181" height="68.031" x="946.74" y="525.827" fill="#fafafa"/><rect width="391.181" height="68.031" x="946.74" y="525.827" stroke="#000" stroke-linecap="round" stroke-linejoin="round" stroke-width="1"/><text fill="#000" transform="translate(951.7397 530.82677)"><tspan x="0" y="16" fill="#000" font-family="Helvetica Neue" font-size="16" font-weight="bold">Service A Pod</tspan></text></g><g id="Graphic_314"><rect width="391.181" height="68.031" x="1483.937" y="531.496" fill="#fafafa"/><rect width="391.181" height="68.031" x="1483.937" y="531.496" stroke="#000" stroke-linecap="round" stroke-linejoin="round" stroke-width="1"/><text fill="#000" transform="translate(1488.937 536.49605)"><tspan x="0" y="16" fill="#000" font-family="Helvetica Neue" font-size="16" font-weight="bold">Service B Pod</tspan></text></g><g id="Graphic_291"><rect width="243.78" height="28.346" x="1020.441" y="565.512" fill="#0a55a8"/><text fill="#fff" transform="translate(1025.4405 569.953)"><tspan x="100.29" y="16" fill="#fff" font-family="Helvetica Neue" font-size="16" font-weight="bold">eth0</tspan></text></g><g id="Graphic_285"><rect width="243.78" height="28.346" x="1020.795" y="787.338" fill="#0a55a8"/><text fill="#fff" transform="translate(1025.7948 791.7792)"><tspan x="100.29" y="16" fill="#fff" font-family="Helvetica Neue" font-size="16" font-weight="bold">eth0</tspan></text></g><g id="Graphic_331"><rect width="243.78" height="28.346" x="1020.441" y="898.583" fill="#0a55a8"/><text fill="#fff" transform="translate(1025.4405 903.0239)"><tspan x="100.29" y="16" fill="#fff" font-family="Helvetica Neue" font-size="16" font-weight="bold">eth0</tspan></text></g><g id="Line_332"><path stroke="#000" stroke-linecap="round" stroke-linejoin="round" stroke-width="1" marker-end="url(#FilledArrow_Marker)" d="M 1142.6846 815.6845 L 1142.6846 825.6845 L 1142.5074 857.1336 L 1142.3303 883.6827 L 1142.3303 888.6827"/></g><g id="Graphic_333"><rect width="243.78" height="28.346" x="1556.543" y="571.181" fill="#0a55a8"/><text fill="#fff" transform="translate(1561.5429 575.62226)"><tspan x="100.29" y="16" fill="#fff" font-family="Helvetica Neue" font-size="16" font-weight="bold">eth0</tspan></text></g><g id="Graphic_335"><rect width="243.78" height="28.346" x="1556.543" y="698.756" fill="#0a55a8"/><text fill="#fff" transform="translate(1561.5429 703.1977)"><tspan x="100.29" y="16" fill="#fff" font-family="Helvetica Neue" font-size="16" font-weight="bold">eth0</tspan></text></g><g id="Graphic_336"><rect width="243.78" height="28.346" x="1556.543" y="898.583" fill="#0a55a8"/><text fill="#fff" transform="translate(1561.5429 903.0239)"><tspan x="100.29" y="16" fill="#fff" font-family="Helvetica Neue" font-size="16" font-weight="bold">eth0</tspan></text></g><g id="Line_338"><line x1="1678.433" x2="1678.433" y1="698.756" y2="609.428" stroke="#000" stroke-linecap="round" stroke-linejoin="round" stroke-width="1" marker-end="url(#FilledArrow_Marker)"/></g><g id="Line_341"><line x1="1264.22" x2="1546.643" y1="912.756" y2="912.756" stroke="#000" stroke-linecap="round" stroke-linejoin="round" stroke-width="1" marker-end="url(#FilledArrow_Marker)"/></g><g id="Graphic_348"><rect width="243.78" height="40.881" x="1020.441" y="746.457" fill="#333"/><text fill="#fff" transform="translate(1025.4405 757.16545)"><tspan x="89.034" y="16" fill="#fff" font-family="Helvetica Neue" font-size="16" font-weight="bold">ztunnel</tspan></text></g><g id="Graphic_350"><rect width="243.78" height="43.904" x="1556.543" y="727.103" fill="#333"/><text fill="#fff" transform="translate(1561.5429 739.3231)"><tspan x="89.034" y="16" fill="#fff" font-family="Helvetica Neue" font-size="16" font-weight="bold">ztunnel</tspan></text></g><g id="Graphic_353"><rect width="243.78" height="28.346" x="1020.441" y="718.111" fill="#0a55a8"/><text fill="#fff" transform="translate(1025.4405 722.5517)"><tspan x="109.938" y="16" fill="#fff" font-family="Helvetica Neue" font-size="16" font-weight="bold">lo</tspan></text></g><g id="Graphic_354"><rect width="243.78" height="28.346" x="1556.543" y="771.007" fill="#0a55a8"/><text fill="#fff" transform="translate(1561.5429 775.4484)"><tspan x="109.938" y="16" fill="#fff" font-family="Helvetica Neue" font-size="16" font-weight="bold">lo</tspan></text></g><g id="Line_355"><line x1="1142.33" x2="1142.33" y1="593.858" y2="708.211" stroke="#000" stroke-linecap="round" stroke-linejoin="round" stroke-width="1" marker-end="url(#FilledArrow_Marker)"/></g><g id="Line_356"><line x1="1678.433" x2="1678.433" y1="898.583" y2="809.254" stroke="#000" stroke-linecap="round" stroke-linejoin="round" stroke-width="1" marker-end="url(#FilledArrow_Marker)"/></g><g id="Graphic_357"><rect width="49.104" height="28.448" x="1117.778" y="623.281" fill="#fff"/><text fill="#000" transform="translate(1122.7783 628.28124)"><tspan x="0" y="15" fill="#000" font-family="Helvetica Neue" font-size="16" font-style="italic">eBPF</tspan></text></g><g id="Graphic_358"><rect width="49.104" height="28.448" x="1653.881" y="854.762" fill="#fff"/><text fill="#000" transform="translate(1658.8806 859.7624)"><tspan x="0" y="15" fill="#000" font-family="Helvetica Neue" font-size="16" font-style="italic">eBPF</tspan></text></g></g></g></svg>