<?xml version="1.0" encoding="UTF-8" standalone="no"?>
<!DOCTYPE svg PUBLIC "-//W3C//DTD SVG 1.1//EN" "http://www.w3.org/Graphics/SVG/1.1/DTD/svg11.dtd">
<svg xmlns="http://www.w3.org/2000/svg" xmlns:xl="http://www.w3.org/1999/xlink" version="1.1" xmlns:dc="http://purl.org/dc/elements/1.1/" viewBox="408 643 1423 485" width="1423" height="485">
  <defs>
    <filter id="Shadow" filterUnits="userSpaceOnUse" x="265.7" y="594.5">
      <feGaussianBlur in="SourceAlpha" result="blur" stdDeviation="1.308"/>
      <feOffset in="blur" result="offset" dx="2" dy="2"/>
      <feFlood flood-color="black" flood-opacity=".5" result="flood"/>
      <feComposite in="flood" in2="offset" operator="in" result="color"/>
      <feMerge>
        <feMergeNode in="color"/>
        <feMergeNode in="SourceGraphic"/>
      </feMerge>
    </filter>
    <marker orient="auto" overflow="visible" markerUnits="strokeWidth" id="FilledArrow_Marker" stroke-linejoin="miter" stroke-miterlimit="10" viewBox="-1 -4 10 8" markerWidth="10" markerHeight="8" color="black">
      <g>
        <path d="M 8 0 L 0 -3 L 0 3 Z" fill="currentColor" stroke="currentColor" stroke-width="1"/>
      </g>
    </marker>
    <marker orient="auto" overflow="visible" markerUnits="strokeWidth" id="FilledArrow_Marker_2" stroke-linejoin="miter" stroke-miterlimit="10" viewBox="-9 -4 10 8" markerWidth="10" markerHeight="8" color="black">
      <g>
        <path d="M -8 0 L 0 3 L 0 -3 Z" fill="currentColor" stroke="currentColor" stroke-width="1"/>
      </g>
    </marker>
    <marker orient="auto" overflow="visible" markerUnits="strokeWidth" id="FilledArrow_Marker_3" stroke-linejoin="miter" stroke-miterlimit="10" viewBox="-1 -3 7 6" markerWidth="7" markerHeight="6" color="black">
      <g>
        <path d="M 4.8 0 L 0 -1.8 L 0 1.8 Z" fill="currentColor" stroke="currentColor" stroke-width="1"/>
      </g>
    </marker>
    <marker orient="auto" overflow="visible" markerUnits="strokeWidth" id="FilledArrow_Marker_4" stroke-linejoin="miter" stroke-miterlimit="10" viewBox="-6 -3 7 6" markerWidth="7" markerHeight="6" color="black">
      <g>
        <path d="M -4.8 0 L 0 1.8 L 0 -1.8 Z" fill="currentColor" stroke="currentColor" stroke-width="1"/>
      </g>
    </marker>
  </defs>
  <g id="Istio_mTLS" fill-opacity="1" stroke-opacity="1" stroke="none" stroke-dasharray="none" fill="none">
    <title>Istio mTLS</title>
    <rect fill="white" x="408" y="643" width="1423" height="485"/>
    <g id="Istio_mTLS_Layer_1">
      <title>Layer 1</title>
      <g id="Graphic_290">
        <rect x="408.951" y="643" width="1422" height="485" fill="white"/>
      </g>
      <g id="Group_187">
        <g id="Graphic_186">
          <rect x="430.072" y="784.2" width="62" height="52" fill="white"/>
        </g>
        <g id="Group_19">
          <g id="Graphic_21">
            <path d="M 486.0851 824.19 L 476.53224 819.8482 C 475.63125 819.4382 475.07126 818.6145 475.07126 817.6982 L 475.07126 814.6245 C 475.30026 814.37 475.54125 814.08 475.79025 813.76 C 477.02923 812.1691 478.0222 810.3982 478.7442 808.4882 C 480.1552 807.9 481.07116 806.6318 481.07116 805.2 L 481.07116 801.5636 C 481.07116 800.6882 480.71117 799.84 480.0712 799.1773 L 480.0712 794.3418 C 480.1272 793.8418 480.3472 790.8655 477.9792 788.41 C 475.92525 786.28 472.5923 785.2 468.0714 785.2 C 463.55045 785.2 460.2175 786.28 458.16354 788.4091 C 455.7956 790.86455 456.0156 793.8418 456.0716 794.3409 L 456.0716 799.1764 C 455.4316 799.8391 455.0716 800.6873 455.0716 801.5627 L 455.0716 805.1991 C 455.0716 806.3055 455.6246 807.3373 456.56857 808.0255 C 457.48456 811.3227 459.4015 813.8073 460.0715 814.6045 L 460.0715 817.6127 C 460.0715 818.4927 459.5435 819.3 458.69454 819.7218 L 449.7737 824.1455 C 446.87373 825.5836 445.07276 828.3418 445.07276 831.3455 L 445.07276 835.2 L 491.072 835.2 L 491.072 831.5245 C 491.071 828.3991 489.16 825.5882 486.0851 824.19 Z" fill="black"/>
          </g>
          <g id="Graphic_20">
            <path d="M 449.0547 822.95 L 457.97555 818.5264 C 458.34254 818.3436 458.57154 817.9936 458.57154 817.6136 L 458.57154 815.0555 C 457.68655 813.9355 456.1256 811.6809 455.2346 808.7736 C 454.1716 807.8355 453.5716 806.5582 453.5716 805.2 L 453.5716 801.5636 C 453.5716 800.5418 453.9236 799.5464 454.5716 798.7082 L 454.5716 794.4055 C 454.5376 794.0573 454.4976 793.2518 454.6676 792.2282 C 453.2906 791.7918 451.75865 791.5636 450.0717 791.5636 C 439.68285 791.5636 439.07786 799.6136 439.07186 799.7455 L 439.07186 803.9082 C 438.42387 804.55 438.0719 805.2909 438.0719 806.0264 L 438.0719 809.1664 C 438.0719 810.1473 438.55487 811.0618 439.38286 811.68 C 440.20784 814.5073 442.2368 816.6436 443.0268 817.3936 L 443.0268 819.8873 C 443.0268 820.6027 442.5988 821.2591 441.8558 821.6282 L 435.20293 825.4218 C 432.65497 826.6855 431.072 829.11 431.072 831.7482 L 431.072 835.2 L 443.5718 835.2 L 443.5718 831.3473 C 443.5718 827.8445 445.67275 824.6273 449.0547 822.95 Z" fill="black"/>
          </g>
        </g>
      </g>
      <g id="Graphic_9"/>
      <g id="Graphic_2">
        <text transform="translate(507.698 789.7179)" fill="black">
          <tspan font-family="Helvetica Neue" font-size="16" fill="black" x="0" y="15">JWT + TLS</tspan>
        </text>
      </g>
      <g id="Group_257">
        <g id="Graphic_26">
          <rect x="1062.5" y="1041.2581" width="147" height="40" fill="#0a55a8"/>
        </g>
        <g id="Group_47">
          <g id="Group_27">
            <title>Page-1</title>
            <g id="Group_28">
              <title>istio</title>
              <g id="Graphic_29">
                <title>Shape</title>
                <path d="M 1103.0213 1068.7592 L 1116.3547 1068.7592 L 1108.0235 1071.2581 Z M 1103.0213 1067.9248 L 1108.0235 1067.0904 L 1108.0235 1057.9248 Z M 1108.8536 1067.0904 L 1116.3547 1067.9248 L 1108.8536 1051.2581 Z" fill="white"/>
              </g>
            </g>
          </g>
          <g id="Graphic_46">
            <text transform="translate(1121.3547 1051.526)" fill="white">
              <tspan font-family="Helvetica Neue" font-weight="bold" font-size="16" fill="white" x="0" y="16">Istiod</tspan>
            </text>
          </g>
        </g>
      </g>
      <g id="Graphic_61" filter="url(#Shadow)">
        <rect x="602.572" y="679" width="180" height="170" fill="white"/>
        <rect x="602.572" y="679" width="180" height="170" stroke="gray" stroke-linecap="round" stroke-linejoin="round" stroke-width="1"/>
        <text transform="translate(607.572 684)" fill="black">
          <tspan font-family="Helvetica Neue" font-weight="bold" font-size="16" fill="black" x="21.304" y="16">Ingress Gateway</tspan>
        </text>
      </g>
      <g id="Graphic_59">
        <rect x="619.072" y="714.46794" width="147" height="115.73206" fill="#0a55a8"/>
      </g>
      <g id="Group_289">
        <g id="Group_51">
          <g id="Graphic_54">
            <path d="M 664.0963 730.1995 L 664.0695 728.9824 L 662.7898 728.186 L 662.8166 729.403 Z M 665.913 733.2421 L 665.8861 732.0519 L 664.7675 731.3539 C 664.7496 731.34494 664.7317 731.32705 664.7228 731.3181 L 664.7496 732.5173 Z M 661.9128 734.844 L 658.9865 733.02735 L 658.9149 729.9847 L 660.3467 729.3672 L 660.3199 728.1502 L 658.02894 729.13455 C 657.85 729.2151 657.7426 729.3762 657.7515 729.5641 L 657.841 733.2153 C 657.841 733.4032 657.95735 733.5911 658.1363 733.6985 L 661.6443 735.8731 C 661.8054 735.97155 662.0023 735.9984 662.1723 735.95365 C 662.1902 735.9447 662.2081 735.9447 662.226 735.9358 L 664.3827 735.0051 L 663.2104 734.2802 Z" fill="white"/>
          </g>
          <g id="Graphic_53">
            <path d="M 671.3718 728.1144 C 671.3629 727.8996 671.2376 727.6759 671.0228 727.5506 L 666.7631 724.91065 L 666.6289 724.9643 L 666.6557 726.244 L 670.0295 728.3381 L 670.11 731.7566 L 671.3987 732.55305 L 671.4703 732.5262 Z M 666.2709 734.1191 L 662.30654 731.6671 L 662.2081 727.5506 L 664.0158 726.772 L 663.98 725.34915 L 661.179 726.55725 C 660.97315 726.64674 660.8479 726.8347 660.8568 727.0584 L 660.97315 731.8908 C 660.97315 732.11455 661.1074 732.3293 661.32216 732.4546 L 665.9667 735.3362 C 666.1546 735.4525 666.3873 735.4883 666.58414 735.4257 C 666.60204 735.4167 666.6199 735.4078 666.6378 735.4078 L 669.3762 734.2265 L 668.016 733.3853 Z" fill="white"/>
          </g>
          <g id="Graphic_52">
            <path d="M 677.4124 724.7317 L 671.4613 721.0447 C 671.2376 720.9105 670.9781 720.8747 670.75436 720.9463 C 670.73646 720.9552 670.7096 720.9642 670.6917 720.9731 L 664.88384 723.4788 C 664.6512 723.57725 664.508 723.792 664.5169 724.05155 L 664.6601 730.2442 C 664.6691 730.4948 664.8212 730.7454 665.0628 730.88855 L 671.0139 734.5755 C 671.22865 734.70975 671.4971 734.74555 671.72084 734.67395 C 671.7387 734.665 671.7656 734.6561 671.7835 734.6471 L 677.59135 732.1414 C 677.824 732.043 677.9672 731.8192 677.9583 731.5687 L 677.8151 725.376 C 677.8061 725.1254 677.654 724.8838 677.4124 724.7317 Z M 671.3629 733.1884 L 666.1904 729.9847 L 666.0651 724.6064 L 671.1123 722.4318 L 676.2848 725.6355 L 676.4101 731.0138 Z" fill="white"/>
          </g>
        </g>
        <g id="Graphic_50">
          <text transform="translate(681.8452 718.7103)" fill="white">
            <tspan font-family="Helvetica Neue" font-weight="bold" font-size="16" fill="white" x="61106675e-20" y="16">Envoy</tspan>
          </text>
        </g>
      </g>
      <g id="Graphic_113" filter="url(#Shadow)">
        <rect x="897" y="679" width="180" height="155" fill="white"/>
        <rect x="897" y="679" width="180" height="155" stroke="gray" stroke-linecap="round" stroke-linejoin="round" stroke-width="1"/>
        <text transform="translate(902 684)" fill="black">
          <tspan font-family="Helvetica Neue" font-weight="bold" font-size="16" fill="black" x="69.888" y="16">Pod</tspan>
        </text>
      </g>
      <g id="Graphic_112">
        <rect x="913.5" y="709.2" width="147" height="40" fill="black"/>
      </g>
      <g id="Graphic_111">
        <rect x="913.5" y="775.2" width="147" height="40" fill="#0a55a8"/>
      </g>
      <g id="Line_110">
        <line x1="987" y1="759.1" x2="987" y2="765.3" marker-end="url(#FilledArrow_Marker)" marker-start="url(#FilledArrow_Marker_2)" stroke="black" stroke-linecap="round" stroke-linejoin="round" stroke-width="1"/>
      </g>
      <g id="Group_107">
        <g id="Graphic_109">
          <title>Settings</title>
          <path d="M 953.6327 730.18 C 953.6738 729.86 953.7047 729.54 953.7047 729.2 C 953.7047 728.86 953.6738 728.54 953.6327 728.22 L 955.8019 726.57 C 955.9972 726.42 956.0486 726.15 955.9253 725.93 L 953.8692 722.47 C 953.7458 722.25 953.4682 722.17 953.242 722.25 L 950.6822 723.25 C 950.1476 722.85 949.5719 722.52 948.9448 722.27 L 948.5541 719.62 C 948.5233 719.38 948.3074 719.2 948.0504 719.2 L 943.9382 719.2 C 943.6812 719.2 943.4653 719.38 943.4344 719.62 L 943.0438 722.27 C 942.4166 722.52 941.8409 722.86 941.3063 723.25 L 938.7465 722.25 C 938.51 722.16 938.2427 722.25 938.1194 722.47 L 936.0633 725.93 C 935.9296 726.15 935.9913 726.42 936.1866 726.57 L 938.3558 728.22 C 938.3147 728.54 938.2839 728.87 938.2839 729.2 C 938.2839 729.53 938.3147 729.86 938.3558 730.18 L 936.1866 731.83 C 935.9913 731.98 935.9399 732.25 936.0633 732.47 L 938.1194 735.93 C 938.2427 736.15 938.5203 736.23 938.7465 736.15 L 941.3063 735.15 C 941.8409 735.55 942.4166 735.88 943.0438 736.13 L 943.4344 738.78 C 943.4653 739.02 943.6812 739.2 943.9382 739.2 L 948.0504 739.2 C 948.3074 739.2 948.5233 739.02 948.5541 738.78 L 948.9448 736.13 C 949.5719 735.88 950.1476 735.54 950.6822 735.15 L 953.242 736.15 C 953.4785 736.24 953.7458 736.15 953.8692 735.93 L 955.9253 732.47 C 956.0486 732.25 955.9972 731.98 955.8019 731.83 L 953.6327 730.18 Z M 945.9943 732.7 C 944.0101 732.7 942.3961 731.13 942.3961 729.2 C 942.3961 727.27 944.0101 725.7 945.9943 725.7 C 947.9784 725.7 949.5925 727.27 949.5925 729.2 C 949.5925 731.13 947.9784 732.7 945.9943 732.7 Z" fill="white"/>
        </g>
        <g id="Graphic_108">
          <text transform="translate(960.992 719.46794)" fill="white">
            <tspan font-family="Helvetica Neue" font-weight="bold" font-size="16" fill="white" x="0" y="16">Service A</tspan>
          </text>
        </g>
      </g>
      <g id="Group_101">
        <g id="Group_103">
          <g id="Graphic_106">
            <path d="M 953.5589 797.4045 L 953.5252 795.8775 L 951.9197 794.8783 L 951.9534 796.4052 Z M 955.838 801.2218 L 955.8044 799.7285 L 954.401 798.8528 C 954.3785 798.8416 954.356 798.8191 954.3448 798.8079 L 954.3785 800.3124 Z M 950.8194 803.2315 L 947.148 800.9523 L 947.0582 797.135 L 948.8546 796.3603 L 948.8209 794.8334 L 945.9467 796.0684 C 945.7222 796.1695 945.5874 796.37155 945.5987 796.6073 L 945.7109 801.1881 C 945.7109 801.4239 945.8569 801.6597 946.0814 801.7944 L 950.4826 804.5226 C 950.6847 804.64615 950.9317 804.6798 951.145 804.6237 C 951.1675 804.6125 951.1899 804.6125 951.2124 804.6012 L 953.9182 803.4336 L 952.4474 802.5242 Z" fill="white"/>
          </g>
          <g id="Graphic_105">
            <path d="M 962.6868 794.7885 C 962.6755 794.519 962.5184 794.2383 962.2489 794.0812 L 956.9047 790.7691 L 956.7362 790.8364 L 956.7699 792.442 L 961.0027 795.0692 L 961.1037 799.358 L 962.7205 800.3573 L 962.8103 800.3236 Z M 956.2872 802.3221 L 951.3134 799.2458 L 951.1899 794.0812 L 953.4578 793.1044 L 953.4129 791.3192 L 949.8988 792.8349 C 949.6405 792.9472 949.4833 793.183 949.4946 793.46365 L 949.6405 799.52645 C 949.6405 799.8071 949.8089 800.0766 950.0784 800.2338 L 955.9054 803.849 C 956.1412 803.995 956.4331 804.0399 956.6801 803.9613 C 956.7026 803.95005 956.725 803.9388 956.7475 803.9388 L 960.1831 802.4568 L 958.4765 801.4014 Z" fill="white"/>
          </g>
          <g id="Graphic_104">
            <path d="M 970.2653 790.5445 L 962.799 785.9188 C 962.5184 785.7504 962.1928 785.7055 961.9121 785.7953 C 961.8896 785.8066 961.856 785.8178 961.8335 785.829 L 954.5469 788.9727 C 954.255 789.0962 954.0754 789.3656 954.0866 789.6912 L 954.2662 797.4606 C 954.2774 797.775 954.4683 798.0893 954.7715 798.269 L 962.2377 802.8947 C 962.5071 803.0631 962.844 803.108 963.1246 803.0182 C 963.1471 803.0069 963.1808 802.9957 963.2032 802.9845 L 970.4898 799.8408 C 970.7817 799.7173 970.9614 799.4366 970.9501 799.1223 L 970.7705 791.3529 C 970.7593 791.0385 970.5684 790.7354 970.2653 790.5445 Z M 962.6755 801.1544 L 956.1861 797.135 L 956.0289 790.3873 L 962.3612 787.6591 L 968.8506 791.6785 L 969.0078 798.4262 Z" fill="white"/>
          </g>
        </g>
        <g id="Graphic_102">
          <text transform="translate(977.146 785.4679)" fill="white">
            <tspan font-family="Helvetica Neue" font-weight="bold" font-size="16" fill="white" x="61106675e-20" y="16">Envoy</tspan>
          </text>
        </g>
      </g>
      <g id="Graphic_128" filter="url(#Shadow)">
        <rect x="885" y="686.5" width="180" height="155" fill="white"/>
        <rect x="885" y="686.5" width="180" height="155" stroke="gray" stroke-linecap="round" stroke-linejoin="round" stroke-width="1"/>
        <text transform="translate(890 691.5)" fill="black">
          <tspan font-family="Helvetica Neue" font-weight="bold" font-size="16" fill="black" x="69.888" y="16">Pod</tspan>
        </text>
      </g>
      <g id="Graphic_127">
        <rect x="901.5" y="716.7" width="147" height="40" fill="black"/>
      </g>
      <g id="Graphic_126">
        <rect x="901.5" y="782.7" width="147" height="40" fill="#0a55a8"/>
      </g>
      <g id="Line_125">
        <line x1="975" y1="766.6" x2="975" y2="772.8" marker-end="url(#FilledArrow_Marker)" marker-start="url(#FilledArrow_Marker_2)" stroke="black" stroke-linecap="round" stroke-linejoin="round" stroke-width="1"/>
      </g>
      <g id="Group_122">
        <g id="Graphic_124">
          <title>Settings</title>
          <path d="M 941.6327 737.68 C 941.6738 737.36 941.7047 737.04 941.7047 736.7 C 941.7047 736.36 941.6738 736.04 941.6327 735.72 L 943.8019 734.07 C 943.9972 733.92 944.0486 733.65 943.9253 733.43 L 941.8692 729.97 C 941.7458 729.75 941.4682 729.67 941.242 729.75 L 938.6822 730.75 C 938.1476 730.35 937.5719 730.02 936.9448 729.77 L 936.5541 727.12 C 936.5233 726.88 936.3074 726.7 936.0504 726.7 L 931.9382 726.7 C 931.6812 726.7 931.4653 726.88 931.4344 727.12 L 931.0438 729.77 C 930.4166 730.02 929.8409 730.36 929.3063 730.75 L 926.7465 729.75 C 926.51 729.66 926.2427 729.75 926.1194 729.97 L 924.0633 733.43 C 923.9296 733.65 923.9913 733.92 924.1866 734.07 L 926.3558 735.72 C 926.3147 736.04 926.2839 736.37 926.2839 736.7 C 926.2839 737.03 926.3147 737.36 926.3558 737.68 L 924.1866 739.33 C 923.9913 739.48 923.9399 739.75 924.0633 739.97 L 926.1194 743.43 C 926.2427 743.65 926.5203 743.73 926.7465 743.65 L 929.3063 742.65 C 929.8409 743.05 930.4166 743.38 931.0438 743.63 L 931.4344 746.28 C 931.4653 746.52 931.6812 746.7 931.9382 746.7 L 936.0504 746.7 C 936.3074 746.7 936.5233 746.52 936.5541 746.28 L 936.9448 743.63 C 937.5719 743.38 938.1476 743.04 938.6822 742.65 L 941.242 743.65 C 941.4785 743.74 941.7458 743.65 941.8692 743.43 L 943.9253 739.97 C 944.0486 739.75 943.9972 739.48 943.8019 739.33 L 941.6327 737.68 Z M 933.9943 740.2 C 932.0101 740.2 930.3961 738.63 930.3961 736.7 C 930.3961 734.77 932.0101 733.2 933.9943 733.2 C 935.9784 733.2 937.5925 734.77 937.5925 736.7 C 937.5925 738.63 935.9784 740.2 933.9943 740.2 Z" fill="white"/>
        </g>
        <g id="Graphic_123">
          <text transform="translate(948.992 726.96794)" fill="white">
            <tspan font-family="Helvetica Neue" font-weight="bold" font-size="16" fill="white" x="0" y="16">Service A</tspan>
          </text>
        </g>
      </g>
      <g id="Group_116">
        <g id="Group_118">
          <g id="Graphic_121">
            <path d="M 941.5589 804.9045 L 941.5252 803.3775 L 939.9197 802.3783 L 939.9534 803.9052 Z M 943.838 808.7218 L 943.8044 807.2285 L 942.401 806.3528 C 942.3785 806.3416 942.356 806.3191 942.3448 806.3079 L 942.3785 807.8124 Z M 938.8194 810.7315 L 935.148 808.4523 L 935.0582 804.635 L 936.8546 803.8603 L 936.8209 802.3334 L 933.9467 803.5684 C 933.7222 803.6695 933.5874 803.87155 933.5987 804.1073 L 933.7109 808.6881 C 933.7109 808.9239 933.8569 809.1597 934.0814 809.2944 L 938.4826 812.0226 C 938.6847 812.1461 938.9317 812.1798 939.145 812.1237 C 939.1675 812.1125 939.1899 812.1125 939.2124 812.1012 L 941.9182 810.9336 L 940.4474 810.0242 Z" fill="white"/>
          </g>
          <g id="Graphic_120">
            <path d="M 950.6868 802.2885 C 950.6755 802.019 950.5184 801.7383 950.2489 801.5812 L 944.9047 798.2691 L 944.7362 798.3364 L 944.7699 799.942 L 949.0027 802.5692 L 949.1037 806.858 L 950.7205 807.8573 L 950.8103 807.8236 Z M 944.2872 809.8221 L 939.3134 806.7458 L 939.1899 801.5812 L 941.4578 800.6044 L 941.4129 798.8192 L 937.8988 800.3349 C 937.6405 800.4472 937.4833 800.683 937.4946 800.96365 L 937.6405 807.02645 C 937.6405 807.3071 937.8089 807.5766 938.0784 807.7338 L 943.9054 811.349 C 944.1412 811.495 944.4331 811.5399 944.6801 811.4613 C 944.7026 811.45005 944.725 811.4388 944.7475 811.4388 L 948.1831 809.9568 L 946.4765 808.9014 Z" fill="white"/>
          </g>
          <g id="Graphic_119">
            <path d="M 958.2653 798.0445 L 950.799 793.4188 C 950.5184 793.2504 950.1928 793.2055 949.9121 793.2953 C 949.8896 793.3066 949.856 793.3178 949.8335 793.329 L 942.5469 796.4727 C 942.255 796.5962 942.0754 796.8656 942.0866 797.1912 L 942.2662 804.9606 C 942.2774 805.275 942.4683 805.5893 942.7715 805.769 L 950.2377 810.3947 C 950.5071 810.5631 950.844 810.608 951.1246 810.5182 C 951.1471 810.5069 951.1808 810.4957 951.2032 810.4845 L 958.4898 807.3408 C 958.7817 807.2173 958.9614 806.9366 958.9501 806.6223 L 958.7705 798.8529 C 958.7593 798.5385 958.5684 798.2354 958.2653 798.0445 Z M 950.6755 808.6544 L 944.1861 804.635 L 944.0289 797.8873 L 950.3612 795.1591 L 956.8506 799.1785 L 957.0078 805.9262 Z" fill="white"/>
          </g>
        </g>
        <g id="Graphic_117">
          <text transform="translate(965.146 792.9679)" fill="white">
            <tspan font-family="Helvetica Neue" font-weight="bold" font-size="16" fill="white" x="61106675e-20" y="16">Envoy</tspan>
          </text>
        </g>
      </g>
      <g id="Graphic_142" filter="url(#Shadow)">
        <rect x="873" y="694" width="180" height="155" fill="white"/>
        <rect x="873" y="694" width="180" height="155" stroke="gray" stroke-linecap="round" stroke-linejoin="round" stroke-width="1"/>
        <text transform="translate(878 699)" fill="black">
          <tspan font-family="Helvetica Neue" font-weight="bold" font-size="16" fill="black" x="69.888" y="16">Pod</tspan>
        </text>
      </g>
      <g id="Graphic_141">
        <rect x="889.5" y="724.2" width="147" height="40" fill="black"/>
      </g>
      <g id="Graphic_140">
        <rect x="889.5" y="790.2" width="147" height="40" fill="#0a55a8"/>
      </g>
      <g id="Line_139">
        <line x1="963" y1="774.1" x2="963" y2="780.3" marker-end="url(#FilledArrow_Marker)" marker-start="url(#FilledArrow_Marker_2)" stroke="black" stroke-linecap="round" stroke-linejoin="round" stroke-width="1"/>
      </g>
      <g id="Group_136">
        <g id="Graphic_138">
          <title>Settings</title>
          <path d="M 929.6327 745.18 C 929.6738 744.86 929.7047 744.54 929.7047 744.2 C 929.7047 743.86 929.6738 743.54 929.6327 743.22 L 931.8019 741.57 C 931.9972 741.42 932.0486 741.15 931.9253 740.93 L 929.8692 737.47 C 929.7458 737.25 929.4682 737.17 929.242 737.25 L 926.6822 738.25 C 926.1476 737.85 925.5719 737.52 924.9448 737.27 L 924.5541 734.62 C 924.5233 734.38 924.3074 734.2 924.0504 734.2 L 919.9382 734.2 C 919.6812 734.2 919.4653 734.38 919.4344 734.62 L 919.0438 737.27 C 918.4166 737.52 917.8409 737.86 917.3063 738.25 L 914.7465 737.25 C 914.51 737.16 914.2427 737.25 914.1194 737.47 L 912.0633 740.93 C 911.9296 741.15 911.9913 741.42 912.1866 741.57 L 914.3558 743.22 C 914.3147 743.54 914.2839 743.87 914.2839 744.2 C 914.2839 744.53 914.3147 744.86 914.3558 745.18 L 912.1866 746.83 C 911.9913 746.98 911.9399 747.25 912.0633 747.47 L 914.1194 750.93 C 914.2427 751.15 914.5203 751.23 914.7465 751.15 L 917.3063 750.15 C 917.8409 750.55 918.4166 750.88 919.0438 751.13 L 919.4344 753.78 C 919.4653 754.02 919.6812 754.2 919.9382 754.2 L 924.0504 754.2 C 924.3074 754.2 924.5233 754.02 924.5541 753.78 L 924.9448 751.13 C 925.5719 750.88 926.1476 750.54 926.6822 750.15 L 929.242 751.15 C 929.4785 751.24 929.7458 751.15 929.8692 750.93 L 931.9253 747.47 C 932.0486 747.25 931.9972 746.98 931.8019 746.83 L 929.6327 745.18 Z M 921.9943 747.7 C 920.0101 747.7 918.3961 746.13 918.3961 744.2 C 918.3961 742.27 920.0101 740.7 921.9943 740.7 C 923.9784 740.7 925.5925 742.27 925.5925 744.2 C 925.5925 746.13 923.9784 747.7 921.9943 747.7 Z" fill="white"/>
        </g>
        <g id="Graphic_137">
          <text transform="translate(936.992 734.46794)" fill="white">
            <tspan font-family="Helvetica Neue" font-weight="bold" font-size="16" fill="white" x="0" y="16">Service A</tspan>
          </text>
        </g>
      </g>
      <g id="Group_130">
        <g id="Group_132">
          <g id="Graphic_135">
            <path d="M 929.5589 812.4045 L 929.5252 810.8775 L 927.9197 809.8783 L 927.9534 811.4052 Z M 931.838 816.2218 L 931.8044 814.7285 L 930.401 813.8528 C 930.3785 813.8416 930.356 813.8191 930.3448 813.8079 L 930.3785 815.3124 Z M 926.8194 818.2315 L 923.148 815.9523 L 923.0582 812.135 L 924.8546 811.3603 L 924.8209 809.8334 L 921.9467 811.0684 C 921.7222 811.1695 921.5874 811.3715 921.5987 811.6073 L 921.7109 816.1881 C 921.7109 816.4239 921.8569 816.6597 922.0814 816.7944 L 926.4826 819.5226 C 926.6847 819.6461 926.9317 819.6798 927.145 819.6237 C 927.1675 819.6125 927.1899 819.6125 927.2124 819.6012 L 929.9182 818.4336 L 928.4474 817.5242 Z" fill="white"/>
          </g>
          <g id="Graphic_134">
            <path d="M 938.6868 809.7885 C 938.6755 809.519 938.5184 809.2383 938.2489 809.0812 L 932.9047 805.7691 L 932.7362 805.8364 L 932.7699 807.442 L 937.0027 810.0692 L 937.1037 814.358 L 938.7205 815.3573 L 938.8103 815.3236 Z M 932.2872 817.3221 L 927.3134 814.2458 L 927.1899 809.0812 L 929.4578 808.1044 L 929.4129 806.3192 L 925.8988 807.8349 C 925.6405 807.9472 925.4833 808.183 925.4946 808.46365 L 925.6405 814.52645 C 925.6405 814.8071 925.8089 815.0766 926.0784 815.2338 L 931.9054 818.849 C 932.1412 818.995 932.4331 819.0399 932.6801 818.9613 C 932.7026 818.95 932.725 818.9388 932.7475 818.9388 L 936.1831 817.4568 L 934.4765 816.4014 Z" fill="white"/>
          </g>
          <g id="Graphic_133">
            <path d="M 946.2653 805.5445 L 938.799 800.9188 C 938.5184 800.7504 938.1928 800.7055 937.9121 800.7953 C 937.8896 800.8066 937.856 800.8178 937.8335 800.829 L 930.5469 803.9727 C 930.255 804.0962 930.0754 804.3656 930.0866 804.6912 L 930.2662 812.4606 C 930.2774 812.775 930.4683 813.0893 930.7715 813.269 L 938.2377 817.8947 C 938.5071 818.0631 938.844 818.108 939.1246 818.0182 C 939.1471 818.0069 939.1808 817.9957 939.2032 817.9845 L 946.4898 814.8408 C 946.7817 814.7173 946.9614 814.4366 946.9501 814.1223 L 946.7705 806.3529 C 946.7593 806.0385 946.5684 805.7354 946.2653 805.5445 Z M 938.6755 816.1544 L 932.1861 812.135 L 932.0289 805.3873 L 938.3612 802.6591 L 944.8506 806.6785 L 945.0078 813.4262 Z" fill="white"/>
          </g>
        </g>
        <g id="Graphic_131">
          <text transform="translate(953.146 800.4679)" fill="white">
            <tspan font-family="Helvetica Neue" font-weight="bold" font-size="16" fill="white" x="61106675e-20" y="16">Envoy</tspan>
          </text>
        </g>
      </g>
      <g id="Graphic_184" filter="url(#Shadow)">
        <rect x="1186.902" y="679" width="180" height="155" fill="white"/>
        <rect x="1186.902" y="679" width="180" height="155" stroke="gray" stroke-linecap="round" stroke-linejoin="round" stroke-width="1"/>
        <text transform="translate(1191.902 684)" fill="black">
          <tspan font-family="Helvetica Neue" font-weight="bold" font-size="16" fill="black" x="69.888" y="16">Pod</tspan>
        </text>
      </g>
      <g id="Graphic_183">
        <rect x="1203.402" y="709.2" width="147" height="40" fill="black"/>
      </g>
      <g id="Graphic_182">
        <rect x="1203.402" y="775.2" width="147" height="40" fill="#0a55a8"/>
      </g>
      <g id="Line_181">
        <line x1="1276.902" y1="759.1" x2="1276.902" y2="765.3" marker-end="url(#FilledArrow_Marker)" marker-start="url(#FilledArrow_Marker_2)" stroke="black" stroke-linecap="round" stroke-linejoin="round" stroke-width="1"/>
      </g>
      <g id="Group_178">
        <g id="Graphic_180">
          <title>Settings</title>
          <path d="M 1243.5347 730.18 C 1243.5758 729.86 1243.6067 729.54 1243.6067 729.2 C 1243.6067 728.86 1243.5758 728.54 1243.5347 728.22 L 1245.7039 726.57 C 1245.8992 726.42 1245.9506 726.15 1245.8273 725.93 L 1243.7712 722.47 C 1243.6478 722.25 1243.3702 722.17 1243.144 722.25 L 1240.5842 723.25 C 1240.0496 722.85 1239.4739 722.52 1238.8468 722.27 L 1238.4561 719.62 C 1238.4253 719.38 1238.2094 719.2 1237.9524 719.2 L 1233.8402 719.2 C 1233.5831 719.2 1233.3673 719.38 1233.3364 719.62 L 1232.9458 722.27 C 1232.3186 722.52 1231.743 722.86 1231.2083 723.25 L 1228.6485 722.25 C 1228.412 722.16 1228.1447 722.25 1228.0214 722.47 L 1225.9653 725.93 C 1225.8316 726.15 1225.8933 726.42 1226.0886 726.57 L 1228.2578 728.22 C 1228.2167 728.54 1228.1859 728.87 1228.1859 729.2 C 1228.1859 729.53 1228.2167 729.86 1228.2578 730.18 L 1226.0886 731.83 C 1225.8933 731.98 1225.8419 732.25 1225.9653 732.47 L 1228.0214 735.93 C 1228.1447 736.15 1228.4223 736.23 1228.6485 736.15 L 1231.2083 735.15 C 1231.743 735.55 1232.3186 735.88 1232.9458 736.13 L 1233.3364 738.78 C 1233.3673 739.02 1233.5831 739.2 1233.8402 739.2 L 1237.9524 739.2 C 1238.2094 739.2 1238.4253 739.02 1238.4561 738.78 L 1238.8468 736.13 C 1239.4739 735.88 1240.0496 735.54 1240.5842 735.15 L 1243.144 736.15 C 1243.3805 736.24 1243.6478 736.15 1243.7712 735.93 L 1245.8273 732.47 C 1245.9506 732.25 1245.8992 731.98 1245.7039 731.83 L 1243.5347 730.18 Z M 1235.8963 732.7 C 1233.9121 732.7 1232.2981 731.13 1232.2981 729.2 C 1232.2981 727.27 1233.9121 725.7 1235.8963 725.7 C 1237.8804 725.7 1239.4945 727.27 1239.4945 729.2 C 1239.4945 731.13 1237.8804 732.7 1235.8963 732.7 Z" fill="white"/>
        </g>
        <g id="Graphic_179">
          <text transform="translate(1250.894 719.46794)" fill="white">
            <tspan font-family="Helvetica Neue" font-weight="bold" font-size="16" fill="white" x="0" y="16">Service A</tspan>
          </text>
        </g>
      </g>
      <g id="Group_172">
        <g id="Group_174">
          <g id="Graphic_177">
            <path d="M 1243.4609 797.4045 L 1243.4272 795.8775 L 1241.8217 794.8783 L 1241.8554 796.4052 Z M 1245.74 801.2218 L 1245.7064 799.7285 L 1244.303 798.8528 C 1244.2805 798.8416 1244.258 798.8191 1244.2468 798.8079 L 1244.2805 800.3124 Z M 1240.7214 803.2315 L 1237.05 800.9523 L 1236.9602 797.135 L 1238.7566 796.3603 L 1238.7229 794.8334 L 1235.8487 796.0684 C 1235.6242 796.1695 1235.4894 796.37155 1235.5007 796.6073 L 1235.6129 801.1881 C 1235.6129 801.4239 1235.7589 801.6597 1235.9834 801.7944 L 1240.3846 804.5226 C 1240.5867 804.64615 1240.8337 804.6798 1241.047 804.6237 C 1241.0694 804.6125 1241.0919 804.6125 1241.1144 804.6012 L 1243.8202 803.4336 L 1242.3494 802.5242 Z" fill="white"/>
          </g>
          <g id="Graphic_176">
            <path d="M 1252.5888 794.7885 C 1252.5775 794.519 1252.4204 794.2383 1252.1509 794.0812 L 1246.8067 790.7691 L 1246.6382 790.8364 L 1246.6719 792.442 L 1250.9047 795.0692 L 1251.0057 799.358 L 1252.6224 800.3573 L 1252.7123 800.3236 Z M 1246.1891 802.3221 L 1241.2154 799.2458 L 1241.0919 794.0812 L 1243.3598 793.1044 L 1243.315 791.3192 L 1239.8007 792.8349 C 1239.5425 792.9472 1239.3853 793.183 1239.3966 793.46365 L 1239.5425 799.52645 C 1239.5425 799.8071 1239.711 800.0766 1239.9804 800.2338 L 1245.8074 803.849 C 1246.0432 803.995 1246.3351 804.0399 1246.5821 803.9613 C 1246.6046 803.95005 1246.627 803.9388 1246.6495 803.9388 L 1250.085 802.4568 L 1248.3785 801.4014 Z" fill="white"/>
          </g>
          <g id="Graphic_175">
            <path d="M 1260.1673 790.5445 L 1252.701 785.9188 C 1252.4204 785.7504 1252.0948 785.7055 1251.8141 785.7953 C 1251.7916 785.8066 1251.758 785.8178 1251.7355 785.829 L 1244.4489 788.9727 C 1244.157 789.0962 1243.9773 789.3656 1243.9886 789.6912 L 1244.1682 797.4606 C 1244.1794 797.775 1244.3703 798.0893 1244.6734 798.269 L 1252.1397 802.8947 C 1252.4091 803.0631 1252.746 803.108 1253.0266 803.0182 C 1253.0491 803.0069 1253.0828 802.9957 1253.1052 802.9845 L 1260.3918 799.8408 C 1260.6837 799.7173 1260.8634 799.4366 1260.8521 799.1223 L 1260.6725 791.3529 C 1260.6613 791.0385 1260.4704 790.7354 1260.1673 790.5445 Z M 1252.5775 801.1544 L 1246.0881 797.135 L 1245.9309 790.3873 L 1252.2632 787.6591 L 1258.7526 791.6785 L 1258.9098 798.4262 Z" fill="white"/>
          </g>
        </g>
        <g id="Graphic_173">
          <text transform="translate(1267.048 785.4679)" fill="white">
            <tspan font-family="Helvetica Neue" font-weight="bold" font-size="16" fill="white" x="61106675e-20" y="16">Envoy</tspan>
          </text>
        </g>
      </g>
      <g id="Graphic_170" filter="url(#Shadow)">
        <rect x="1174.902" y="686.5" width="180" height="155" fill="white"/>
        <rect x="1174.902" y="686.5" width="180" height="155" stroke="gray" stroke-linecap="round" stroke-linejoin="round" stroke-width="1"/>
        <text transform="translate(1179.902 691.5)" fill="black">
          <tspan font-family="Helvetica Neue" font-weight="bold" font-size="16" fill="black" x="69.888" y="16">Pod</tspan>
        </text>
      </g>
      <g id="Graphic_169">
        <rect x="1191.402" y="716.7" width="147" height="40" fill="black"/>
      </g>
      <g id="Graphic_168">
        <rect x="1191.402" y="782.7" width="147" height="40" fill="#0a55a8"/>
      </g>
      <g id="Line_167">
        <line x1="1264.902" y1="766.6" x2="1264.902" y2="772.8" marker-end="url(#FilledArrow_Marker)" marker-start="url(#FilledArrow_Marker_2)" stroke="black" stroke-linecap="round" stroke-linejoin="round" stroke-width="1"/>
      </g>
      <g id="Group_164">
        <g id="Graphic_166">
          <title>Settings</title>
          <path d="M 1231.5347 737.68 C 1231.5758 737.36 1231.6067 737.04 1231.6067 736.7 C 1231.6067 736.36 1231.5758 736.04 1231.5347 735.72 L 1233.7039 734.07 C 1233.8992 733.92 1233.9506 733.65 1233.8273 733.43 L 1231.7712 729.97 C 1231.6478 729.75 1231.3702 729.67 1231.144 729.75 L 1228.5842 730.75 C 1228.0496 730.35 1227.4739 730.02 1226.8468 729.77 L 1226.4561 727.12 C 1226.4253 726.88 1226.2094 726.7 1225.9524 726.7 L 1221.8402 726.7 C 1221.5831 726.7 1221.3673 726.88 1221.3364 727.12 L 1220.9458 729.77 C 1220.3186 730.02 1219.743 730.36 1219.2083 730.75 L 1216.6485 729.75 C 1216.412 729.66 1216.1447 729.75 1216.0214 729.97 L 1213.9653 733.43 C 1213.8316 733.65 1213.8933 733.92 1214.0886 734.07 L 1216.2578 735.72 C 1216.2167 736.04 1216.1859 736.37 1216.1859 736.7 C 1216.1859 737.03 1216.2167 737.36 1216.2578 737.68 L 1214.0886 739.33 C 1213.8933 739.48 1213.8419 739.75 1213.9653 739.97 L 1216.0214 743.43 C 1216.1447 743.65 1216.4223 743.73 1216.6485 743.65 L 1219.2083 742.65 C 1219.743 743.05 1220.3186 743.38 1220.9458 743.63 L 1221.3364 746.28 C 1221.3673 746.52 1221.5831 746.7 1221.8402 746.7 L 1225.9524 746.7 C 1226.2094 746.7 1226.4253 746.52 1226.4561 746.28 L 1226.8468 743.63 C 1227.4739 743.38 1228.0496 743.04 1228.5842 742.65 L 1231.144 743.65 C 1231.3805 743.74 1231.6478 743.65 1231.7712 743.43 L 1233.8273 739.97 C 1233.9506 739.75 1233.8992 739.48 1233.7039 739.33 L 1231.5347 737.68 Z M 1223.8963 740.2 C 1221.9121 740.2 1220.2981 738.63 1220.2981 736.7 C 1220.2981 734.77 1221.9121 733.2 1223.8963 733.2 C 1225.8804 733.2 1227.4945 734.77 1227.4945 736.7 C 1227.4945 738.63 1225.8804 740.2 1223.8963 740.2 Z" fill="white"/>
        </g>
        <g id="Graphic_165">
          <text transform="translate(1238.894 726.96794)" fill="white">
            <tspan font-family="Helvetica Neue" font-weight="bold" font-size="16" fill="white" x="0" y="16">Service A</tspan>
          </text>
        </g>
      </g>
      <g id="Group_158">
        <g id="Group_160">
          <g id="Graphic_163">
            <path d="M 1231.4609 804.9045 L 1231.4272 803.3775 L 1229.8217 802.3783 L 1229.8554 803.9052 Z M 1233.74 808.7218 L 1233.7064 807.2285 L 1232.303 806.3528 C 1232.2805 806.3416 1232.258 806.3191 1232.2468 806.3079 L 1232.2805 807.8124 Z M 1228.7214 810.7315 L 1225.05 808.4523 L 1224.9602 804.635 L 1226.7566 803.8603 L 1226.7229 802.3334 L 1223.8487 803.5684 C 1223.6242 803.6695 1223.4894 803.87155 1223.5007 804.1073 L 1223.6129 808.6881 C 1223.6129 808.9239 1223.7589 809.1597 1223.9834 809.2944 L 1228.3846 812.0226 C 1228.5867 812.1461 1228.8337 812.1798 1229.047 812.1237 C 1229.0694 812.1125 1229.0919 812.1125 1229.1144 812.1012 L 1231.8202 810.9336 L 1230.3494 810.0242 Z" fill="white"/>
          </g>
          <g id="Graphic_162">
            <path d="M 1240.5888 802.2885 C 1240.5775 802.019 1240.4204 801.7383 1240.1509 801.5812 L 1234.8067 798.2691 L 1234.6382 798.3364 L 1234.6719 799.942 L 1238.9047 802.5692 L 1239.0057 806.858 L 1240.6224 807.8573 L 1240.7123 807.8236 Z M 1234.1891 809.8221 L 1229.2154 806.7458 L 1229.0919 801.5812 L 1231.3598 800.6044 L 1231.315 798.8192 L 1227.8007 800.3349 C 1227.5425 800.4472 1227.3853 800.683 1227.3966 800.96365 L 1227.5425 807.02645 C 1227.5425 807.3071 1227.711 807.5766 1227.9804 807.7338 L 1233.8074 811.349 C 1234.0432 811.495 1234.3351 811.5399 1234.5821 811.4613 C 1234.6046 811.45005 1234.627 811.4388 1234.6495 811.4388 L 1238.085 809.9568 L 1236.3785 808.9014 Z" fill="white"/>
          </g>
          <g id="Graphic_161">
            <path d="M 1248.1673 798.0445 L 1240.701 793.4188 C 1240.4204 793.2504 1240.0948 793.2055 1239.8141 793.2953 C 1239.7916 793.3066 1239.758 793.3178 1239.7355 793.329 L 1232.4489 796.4727 C 1232.157 796.5962 1231.9773 796.8656 1231.9886 797.1912 L 1232.1682 804.9606 C 1232.1794 805.275 1232.3703 805.5893 1232.6734 805.769 L 1240.1397 810.3947 C 1240.4091 810.5631 1240.746 810.608 1241.0266 810.5182 C 1241.0491 810.5069 1241.0828 810.4957 1241.1052 810.4845 L 1248.3918 807.3408 C 1248.6837 807.2173 1248.8634 806.9366 1248.8521 806.6223 L 1248.6725 798.8529 C 1248.6613 798.5385 1248.4704 798.2354 1248.1673 798.0445 Z M 1240.5775 808.6544 L 1234.0881 804.635 L 1233.9309 797.8873 L 1240.2632 795.1591 L 1246.7526 799.1785 L 1246.9098 805.9262 Z" fill="white"/>
          </g>
        </g>
        <g id="Graphic_159">
          <text transform="translate(1255.048 792.9679)" fill="white">
            <tspan font-family="Helvetica Neue" font-weight="bold" font-size="16" fill="white" x="61106675e-20" y="16">Envoy</tspan>
          </text>
        </g>
      </g>
      <g id="Graphic_156" filter="url(#Shadow)">
        <rect x="1162.902" y="694" width="180" height="155" fill="white"/>
        <rect x="1162.902" y="694" width="180" height="155" stroke="gray" stroke-linecap="round" stroke-linejoin="round" stroke-width="1"/>
        <text transform="translate(1167.902 699)" fill="black">
          <tspan font-family="Helvetica Neue" font-weight="bold" font-size="16" fill="black" x="69.888" y="16">Pod</tspan>
        </text>
      </g>
      <g id="Graphic_155">
        <rect x="1179.402" y="724.2" width="147" height="40" fill="black"/>
      </g>
      <g id="Graphic_154">
        <rect x="1179.402" y="790.2" width="147" height="40" fill="#0a55a8"/>
      </g>
      <g id="Line_153">
        <line x1="1252.902" y1="774.1" x2="1252.902" y2="780.3" marker-end="url(#FilledArrow_Marker)" marker-start="url(#FilledArrow_Marker_2)" stroke="black" stroke-linecap="round" stroke-linejoin="round" stroke-width="1"/>
      </g>
      <g id="Group_150">
        <g id="Graphic_152">
          <title>Settings</title>
          <path d="M 1219.5347 745.18 C 1219.5758 744.86 1219.6067 744.54 1219.6067 744.2 C 1219.6067 743.86 1219.5758 743.54 1219.5347 743.22 L 1221.7039 741.57 C 1221.8992 741.42 1221.9506 741.15 1221.8273 740.93 L 1219.7712 737.47 C 1219.6478 737.25 1219.3702 737.17 1219.144 737.25 L 1216.5842 738.25 C 1216.0496 737.85 1215.4739 737.52 1214.8468 737.27 L 1214.4561 734.62 C 1214.4253 734.38 1214.2094 734.2 1213.9524 734.2 L 1209.8402 734.2 C 1209.5831 734.2 1209.3673 734.38 1209.3364 734.62 L 1208.9458 737.27 C 1208.3186 737.52 1207.743 737.86 1207.2083 738.25 L 1204.6485 737.25 C 1204.412 737.16 1204.1447 737.25 1204.0214 737.47 L 1201.9653 740.93 C 1201.8316 741.15 1201.8933 741.42 1202.0886 741.57 L 1204.2578 743.22 C 1204.2167 743.54 1204.1859 743.87 1204.1859 744.2 C 1204.1859 744.53 1204.2167 744.86 1204.2578 745.18 L 1202.0886 746.83 C 1201.8933 746.98 1201.8419 747.25 1201.9653 747.47 L 1204.0214 750.93 C 1204.1447 751.15 1204.4223 751.23 1204.6485 751.15 L 1207.2083 750.15 C 1207.743 750.55 1208.3186 750.88 1208.9458 751.13 L 1209.3364 753.78 C 1209.3673 754.02 1209.5831 754.2 1209.8402 754.2 L 1213.9524 754.2 C 1214.2094 754.2 1214.4253 754.02 1214.4561 753.78 L 1214.8468 751.13 C 1215.4739 750.88 1216.0496 750.54 1216.5842 750.15 L 1219.144 751.15 C 1219.3805 751.24 1219.6478 751.15 1219.7712 750.93 L 1221.8273 747.47 C 1221.9506 747.25 1221.8992 746.98 1221.7039 746.83 L 1219.5347 745.18 Z M 1211.8963 747.7 C 1209.9121 747.7 1208.2981 746.13 1208.2981 744.2 C 1208.2981 742.27 1209.9121 740.7 1211.8963 740.7 C 1213.8804 740.7 1215.4945 742.27 1215.4945 744.2 C 1215.4945 746.13 1213.8804 747.7 1211.8963 747.7 Z" fill="white"/>
        </g>
        <g id="Graphic_151">
          <text transform="translate(1226.742 734.46794)" fill="white">
            <tspan font-family="Helvetica Neue" font-weight="bold" font-size="16" fill="white" x="0" y="16">Service B</tspan>
          </text>
        </g>
      </g>
      <g id="Group_144">
        <g id="Group_146">
          <g id="Graphic_149">
            <path d="M 1219.4609 812.4045 L 1219.4272 810.8775 L 1217.8217 809.8783 L 1217.8554 811.4052 Z M 1221.74 816.2218 L 1221.7064 814.7285 L 1220.303 813.8528 C 1220.2805 813.8416 1220.258 813.8191 1220.2468 813.8079 L 1220.2805 815.3124 Z M 1216.7214 818.2315 L 1213.05 815.9523 L 1212.9602 812.135 L 1214.7566 811.3603 L 1214.7229 809.8334 L 1211.8487 811.0684 C 1211.6242 811.1695 1211.4894 811.3715 1211.5007 811.6073 L 1211.6129 816.1881 C 1211.6129 816.4239 1211.7589 816.6597 1211.9834 816.7944 L 1216.3846 819.5226 C 1216.5867 819.6461 1216.8337 819.6798 1217.047 819.6237 C 1217.0694 819.6125 1217.0919 819.6125 1217.1144 819.6012 L 1219.8202 818.4336 L 1218.3494 817.5242 Z" fill="white"/>
          </g>
          <g id="Graphic_148">
            <path d="M 1228.5888 809.7885 C 1228.5775 809.519 1228.4204 809.2383 1228.1509 809.0812 L 1222.8067 805.7691 L 1222.6382 805.8364 L 1222.6719 807.442 L 1226.9047 810.0692 L 1227.0057 814.358 L 1228.6224 815.3573 L 1228.7123 815.3236 Z M 1222.1891 817.3221 L 1217.2154 814.2458 L 1217.0919 809.0812 L 1219.3598 808.1044 L 1219.3149 806.3192 L 1215.8007 807.8349 C 1215.5425 807.9472 1215.3853 808.183 1215.3966 808.46365 L 1215.5425 814.52645 C 1215.5425 814.8071 1215.711 815.0766 1215.9804 815.2338 L 1221.8074 818.849 C 1222.0432 818.995 1222.3351 819.0399 1222.5821 818.9613 C 1222.6046 818.95 1222.627 818.9388 1222.6495 818.9388 L 1226.085 817.4568 L 1224.3785 816.4014 Z" fill="white"/>
          </g>
          <g id="Graphic_147">
            <path d="M 1236.1673 805.5445 L 1228.701 800.9188 C 1228.4204 800.7504 1228.0948 800.7055 1227.8141 800.7953 C 1227.7916 800.8066 1227.758 800.8178 1227.7355 800.829 L 1220.4489 803.9727 C 1220.157 804.0962 1219.9773 804.3656 1219.9886 804.6912 L 1220.1682 812.4606 C 1220.1794 812.775 1220.3703 813.0893 1220.6734 813.269 L 1228.1397 817.8947 C 1228.4091 818.0631 1228.746 818.108 1229.0266 818.0182 C 1229.0491 818.0069 1229.0828 817.9957 1229.1052 817.9845 L 1236.3918 814.8408 C 1236.6837 814.7173 1236.8634 814.4366 1236.8521 814.1223 L 1236.6725 806.3529 C 1236.6613 806.0385 1236.4704 805.7354 1236.1673 805.5445 Z M 1228.5775 816.1544 L 1222.0881 812.135 L 1221.9309 805.3873 L 1228.2632 802.6591 L 1234.7526 806.6785 L 1234.9098 813.4262 Z" fill="white"/>
          </g>
        </g>
        <g id="Graphic_145">
          <text transform="translate(1243.048 800.4679)" fill="white">
            <tspan font-family="Helvetica Neue" font-weight="bold" font-size="16" fill="white" x="61106675e-20" y="16">Envoy</tspan>
          </text>
        </g>
      </g>
      <g id="Line_7">
        <line x1="492.072" y1="810.1417" x2="606.172" y2="809.9271" marker-end="url(#FilledArrow_Marker_3)" stroke="black" stroke-linecap="round" stroke-linejoin="round" stroke-width="2"/>
      </g>
      <g id="Graphic_195" filter="url(#Shadow)">
        <rect x="1452.804" y="751.0975" width="180" height="100" fill="white"/>
        <rect x="1452.804" y="751.0975" width="180" height="100" stroke="gray" stroke-linecap="round" stroke-linejoin="round" stroke-width="1"/>
        <text transform="translate(1457.804 756.0975)" fill="black">
          <tspan font-family="Helvetica Neue" font-weight="bold" font-size="16" fill="black" x="23.224" y="16">Egress Gateway</tspan>
        </text>
      </g>
      <g id="Graphic_194">
        <rect x="1469.304" y="792.2975" width="147" height="40" fill="#0a55a8"/>
      </g>
      <g id="Group_188">
        <g id="Group_190">
          <g id="Graphic_193">
            <path d="M 1509.3629 814.5019 L 1509.3292 812.975 L 1507.7237 811.9758 L 1507.7574 813.5027 Z M 1511.642 818.3193 L 1511.6084 816.826 L 1510.205 815.9503 C 1510.1825 815.9391 1510.16 815.9166 1510.1488 815.9054 L 1510.1825 817.4098 Z M 1506.6234 820.329 L 1502.952 818.0498 L 1502.8622 814.2325 L 1504.6586 813.4578 L 1504.625 811.9309 L 1501.7507 813.1659 C 1501.5261 813.2669 1501.3914 813.469 1501.4026 813.7048 L 1501.515 818.2856 C 1501.515 818.5214 1501.6609 818.7571 1501.8854 818.8919 L 1506.2866 821.6201 C 1506.4887 821.7436 1506.7357 821.7773 1506.949 821.7212 C 1506.9714 821.7099 1506.9939 821.7099 1507.0163 821.6987 L 1509.7222 820.5311 L 1508.2514 819.6216 Z" fill="white"/>
          </g>
          <g id="Graphic_192">
            <path d="M 1518.4908 811.886 C 1518.4795 811.6165 1518.3223 811.3358 1518.0529 811.1786 L 1512.7086 807.8665 L 1512.5402 807.9339 L 1512.574 809.5394 L 1516.8066 812.1666 L 1516.9077 816.4555 L 1518.5244 817.4548 L 1518.6143 817.4211 Z M 1512.0911 819.4195 L 1507.1174 816.3432 L 1506.9939 811.1786 L 1509.2618 810.2018 L 1509.217 808.4167 L 1505.7027 809.9324 C 1505.4445 810.0447 1505.2873 810.2804 1505.2986 810.5611 L 1505.4445 816.6239 C 1505.4445 816.9046 1505.613 817.1741 1505.8824 817.33125 L 1511.7094 820.9465 C 1511.9452 821.0924 1512.2371 821.1373 1512.4841 821.05875 C 1512.5066 821.0475 1512.529 821.0363 1512.5515 821.0363 L 1515.987 819.5543 L 1514.2805 818.4989 Z" fill="white"/>
          </g>
          <g id="Graphic_191">
            <path d="M 1526.0693 807.642 L 1518.603 803.0163 C 1518.3223 802.8479 1517.9968 802.803 1517.716 802.8928 C 1517.6936 802.904 1517.66 802.9153 1517.6375 802.9265 L 1510.3509 806.0702 C 1510.059 806.1937 1509.8793 806.4631 1509.8906 806.7887 L 1510.0702 814.5581 C 1510.0814 814.8724 1510.2723 815.1868 1510.5754 815.3665 L 1518.0417 819.9921 C 1518.3111 820.1606 1518.648 820.2055 1518.9286 820.1156 C 1518.951 820.1044 1518.9848 820.0932 1519.0072 820.082 L 1526.2938 816.9383 C 1526.5857 816.8148 1526.7654 816.5341 1526.7541 816.2197 L 1526.5745 808.4504 C 1526.5633 808.136 1526.3724 807.8329 1526.0693 807.642 Z M 1518.4795 818.2519 L 1511.99 814.2325 L 1511.8329 807.4848 L 1518.1652 804.7566 L 1524.6546 808.776 L 1524.8118 815.5236 Z" fill="white"/>
          </g>
        </g>
        <g id="Graphic_189">
          <text transform="translate(1532.95 802.5654)" fill="white">
            <tspan font-family="Helvetica Neue" font-weight="bold" font-size="16" fill="white" x="61106675e-20" y="16">Envoy</tspan>
          </text>
        </g>
      </g>
      <g id="Line_196">
        <path d="M 1136 1041.2581 L 1136 935.7291 L 963 935.7291 L 963 843.1" marker-end="url(#FilledArrow_Marker_3)" stroke="black" stroke-linecap="round" stroke-linejoin="round" stroke-dasharray="8.0,8.0" stroke-width="2"/>
      </g>
      <g id="Line_197">
        <path d="M 1136 1041.2581 L 1136 936.2963 L 692.572 936.2963 L 692.572 843.1" marker-end="url(#FilledArrow_Marker_3)" stroke="black" stroke-linecap="round" stroke-linejoin="round" stroke-dasharray="8.0,8.0" stroke-width="2"/>
      </g>
      <g id="Line_198">
        <path d="M 1136 1041.2581 L 1136 935.7291 L 1252.902 935.7291 L 1252.902 843.1" marker-end="url(#FilledArrow_Marker_3)" stroke="black" stroke-linecap="round" stroke-linejoin="round" stroke-dasharray="8.0,8.0" stroke-width="2"/>
      </g>
      <g id="Line_199">
        <path d="M 1136 1041.2581 L 1136 935.7291 L 1542.804 935.7291 L 1542.804 845.1975" marker-end="url(#FilledArrow_Marker_3)" stroke="black" stroke-linecap="round" stroke-linejoin="round" stroke-dasharray="8.0,8.0" stroke-width="2"/>
      </g>
      <g id="Line_200">
        <line x1="766.072" y1="810.2" x2="876.6" y2="810.2" marker-end="url(#FilledArrow_Marker_3)" stroke="black" stroke-linecap="round" stroke-linejoin="round" stroke-width="2"/>
      </g>
      <g id="Line_201">
        <line x1="1049.4" y1="810.2" x2="1166.502" y2="810.2" marker-end="url(#FilledArrow_Marker_3)" marker-start="url(#FilledArrow_Marker_4)" stroke="black" stroke-linecap="round" stroke-linejoin="round" stroke-width="2"/>
      </g>
      <g id="Line_202">
        <path d="M 1326.402 810.2 L 1397.853 810.2 L 1397.853 812.2975 L 1456.404 812.2975" marker-end="url(#FilledArrow_Marker_3)" stroke="black" stroke-linecap="round" stroke-linejoin="round" stroke-width="2"/>
      </g>
      <g id="Group_207">
        <g id="Group_206">
          <g id="Graphic_203">
            <rect x="1100.203" y="797.7259" width="52.096" height="28.447998" fill="white"/>
            <text transform="translate(1105.203 802.7259)" fill="black">
              <tspan font-family="Helvetica Neue" font-size="16" fill="black" x="682121e-18" y="15">mTLS</tspan>
            </text>
          </g>
          <g id="Graphic_205">
            <rect x="1087.603" y="795.4679" width="12.600008" height="28.447998" fill="white"/>
          </g>
        </g>
        <g id="Group_3">
          <title>XMLID_504_</title>
          <g id="Graphic_4">
            <title>XMLID_505_</title>
            <path d="M 1088.4247 818.8579 L 1099.3813 818.8579 C 1099.8351 818.8579 1100.203 818.4849 1100.203 818.0247 L 1100.203 808.5809 C 1100.203 808.1207 1099.8351 807.7476 1099.3813 807.7476 L 1098.5595 807.7476 L 1098.5595 805.2478 C 1098.5595 802.6442 1096.4706 800.5259 1093.903 800.5259 C 1091.3354 800.5259 1089.2465 802.6442 1089.2465 805.2478 L 1089.2465 807.7476 L 1088.4247 807.7476 C 1087.9709 807.7476 1087.603 808.1207 1087.603 808.5809 L 1087.603 818.0247 C 1087.603 818.4849 1087.9709 818.8579 1088.4247 818.8579 Z M 1096.2302 812.7115 L 1093.902 815.0724 C 1093.7415 815.2352 1093.5312 815.3165 1093.3209 815.3165 C 1093.1107 815.3165 1092.9003 815.2352 1092.7399 815.0724 L 1091.5758 813.892 C 1091.2549 813.5666 1091.2549 813.039 1091.5758 812.7136 C 1091.8966 812.3881 1092.417 812.3881 1092.7379 812.7136 L 1093.321 813.3048 L 1095.0682 811.5331 C 1095.3891 811.2077 1095.9094 811.2077 1096.2303 811.5331 C 1096.5512 811.8586 1096.5512 812.3861 1096.2302 812.7115 Z M 1090.89 805.2478 C 1090.89 803.5631 1092.2416 802.1925 1093.903 802.1925 C 1095.5644 802.1925 1096.916 803.5631 1096.916 805.2478 L 1096.916 807.7476 L 1090.89 807.7476 Z" fill="#408040"/>
          </g>
        </g>
      </g>
      <g id="Group_208">
        <g id="Group_211">
          <g id="Graphic_213">
            <rect x="808.038" y="797.4041" width="52.096" height="28.447998" fill="white"/>
            <text transform="translate(813.038 802.4041)" fill="black">
              <tspan font-family="Helvetica Neue" font-size="16" fill="black" x="682121e-18" y="15">mTLS</tspan>
            </text>
          </g>
          <g id="Graphic_212">
            <rect x="795.438" y="795.1461" width="12.600008" height="28.447998" fill="white"/>
          </g>
        </g>
        <g id="Group_209">
          <title>XMLID_504_</title>
          <g id="Graphic_210">
            <title>XMLID_505_</title>
            <path d="M 796.2597 818.5361 L 807.2163 818.5361 C 807.6701 818.5361 808.038 818.163 808.038 817.7028 L 808.038 808.259 C 808.038 807.7988 807.6701 807.4258 807.2163 807.4258 L 806.3945 807.4258 L 806.3945 804.9259 C 806.3945 802.3223 804.3056 800.2041 801.738 800.2041 C 799.1704 800.2041 797.0815 802.3223 797.0815 804.9259 L 797.0815 807.4258 L 796.2597 807.4258 C 795.8059 807.4258 795.438 807.7988 795.438 808.259 L 795.438 817.7028 C 795.438 818.163 795.8059 818.5361 796.2597 818.5361 Z M 804.0652 812.3896 L 801.737 814.7506 C 801.5765 814.9133 801.3662 814.99465 801.1559 814.99465 C 800.9457 814.99465 800.7353 814.9133 800.5749 814.7506 L 799.4108 813.5701 C 799.0899 813.2447 799.0899 812.71715 799.4108 812.3917 C 799.7316 812.0663 800.252 812.0663 800.5729 812.3917 L 801.156 812.9829 L 802.9032 811.2112 C 803.2241 810.8858 803.7444 810.8858 804.0653 811.2112 C 804.3862 811.5367 804.3862 812.0642 804.0652 812.3896 Z M 798.725 804.9259 C 798.725 803.2412 800.0766 801.8706 801.738 801.8706 C 803.3994 801.8706 804.751 803.2412 804.751 804.9259 L 804.751 807.4258 L 798.725 807.4258 Z" fill="#408040"/>
          </g>
        </g>
      </g>
      <g id="Group_214">
        <g id="Group_217">
          <g id="Graphic_219">
            <rect x="1394.154" y="797.4041" width="52.096" height="28.447998" fill="white"/>
            <text transform="translate(1399.154 802.4041)" fill="black">
              <tspan font-family="Helvetica Neue" font-size="16" fill="black" x="682121e-18" y="15">mTLS</tspan>
            </text>
          </g>
          <g id="Graphic_218">
            <rect x="1381.554" y="795.1461" width="12.600008" height="28.447998" fill="white"/>
          </g>
        </g>
        <g id="Group_215">
          <title>XMLID_504_</title>
          <g id="Graphic_216">
            <title>XMLID_505_</title>
            <path d="M 1382.3757 818.5361 L 1393.3323 818.5361 C 1393.786 818.5361 1394.154 818.163 1394.154 817.7028 L 1394.154 808.259 C 1394.154 807.7988 1393.786 807.4258 1393.3323 807.4258 L 1392.5105 807.4258 L 1392.5105 804.9259 C 1392.5105 802.3223 1390.4216 800.2041 1387.854 800.2041 C 1385.2864 800.2041 1383.1975 802.3223 1383.1975 804.9259 L 1383.1975 807.4258 L 1382.3757 807.4258 C 1381.9219 807.4258 1381.554 807.7988 1381.554 808.259 L 1381.554 817.7028 C 1381.554 818.163 1381.9219 818.5361 1382.3757 818.5361 Z M 1390.1812 812.3896 L 1387.853 814.7506 C 1387.6925 814.9133 1387.4822 814.99465 1387.272 814.99465 C 1387.0617 814.99465 1386.8513 814.9133 1386.6909 814.7506 L 1385.5268 813.5701 C 1385.2059 813.2447 1385.2059 812.71715 1385.5268 812.3917 C 1385.8476 812.0663 1386.368 812.0663 1386.6889 812.3917 L 1387.272 812.9829 L 1389.0192 811.2112 C 1389.34 810.8858 1389.8604 810.8858 1390.1813 811.2112 C 1390.5022 811.5367 1390.5022 812.0642 1390.1812 812.3896 Z M 1384.841 804.9259 C 1384.841 803.2412 1386.1926 801.8706 1387.854 801.8706 C 1389.5154 801.8706 1390.867 803.2412 1390.867 804.9259 L 1390.867 807.4258 L 1384.841 807.4258 Z" fill="#408040"/>
          </g>
        </g>
      </g>
      <g id="Group_220">
        <g id="Group_223">
          <g id="Graphic_225">
            <rect x="527.574" y="813.752" width="52.096" height="28.447998" fill="white"/>
            <text transform="translate(532.574 818.752)" fill="black">
              <tspan font-family="Helvetica Neue" font-size="16" fill="black" x="682121e-18" y="15">mTLS</tspan>
            </text>
          </g>
          <g id="Graphic_224">
            <rect x="514.974" y="811.494" width="12.600008" height="28.447998" fill="white"/>
          </g>
        </g>
        <g id="Group_221">
          <title>XMLID_504_</title>
          <g id="Graphic_222">
            <title>XMLID_505_</title>
            <path d="M 515.79573 834.884 L 526.75226 834.884 C 527.2061 834.884 527.574 834.5109 527.574 834.0507 L 527.574 824.607 C 527.574 824.1468 527.2061 823.7737 526.75226 823.7737 L 525.9305 823.7737 L 525.9305 821.2739 C 525.9305 818.6702 523.8416 816.552 521.274 816.552 C 518.7064 816.552 516.6175 818.6702 516.6175 821.2739 L 516.6175 823.7737 L 515.79573 823.7737 C 515.3419 823.7737 514.974 824.1468 514.974 824.607 L 514.974 834.0507 C 514.974 834.5109 515.3419 834.884 515.79573 834.884 Z M 523.6012 828.7376 L 521.27296 831.0985 C 521.1125 831.2612 520.9022 831.3426 520.6919 831.3426 C 520.4817 831.3426 520.2713 831.2612 520.1109 831.0985 L 518.9468 829.918 C 518.62586 829.5926 518.62586 829.0651 518.9468 828.7396 C 519.26764 828.4142 519.78796 828.4142 520.1089 828.7396 L 520.692 829.3309 L 522.4392 827.5591 C 522.7601 827.2337 523.2804 827.2337 523.6013 827.5591 C 523.9222 827.8846 523.9222 828.4121 523.6012 828.7376 Z M 518.26095 821.2739 C 518.26095 819.5892 519.6126 818.21855 521.274 818.21855 C 522.9354 818.21855 524.28704 819.5892 524.28704 821.2739 L 524.28704 823.7737 L 518.26095 823.7737 Z" fill="#408040"/>
          </g>
        </g>
      </g>
      <g id="Group_226">
        <g id="Graphic_230">
          <rect x="1726.804" y="786.5965" width="62" height="52" fill="white"/>
        </g>
        <g id="Group_227">
          <g id="Graphic_229">
            <path d="M 1782.817 826.5865 L 1773.2642 822.2447 C 1772.3632 821.8347 1771.8033 821.0111 1771.8033 820.0947 L 1771.8033 817.0211 C 1772.0322 816.7665 1772.2732 816.4765 1772.5222 816.1565 C 1773.7612 814.5656 1774.7542 812.7947 1775.4762 810.8847 C 1776.8872 810.2965 1777.8032 809.02835 1777.8032 807.5965 L 1777.8032 803.9602 C 1777.8032 803.0847 1777.4432 802.2365 1776.8032 801.5738 L 1776.8032 796.73835 C 1776.8592 796.23835 1777.0792 793.262 1774.7112 790.8065 C 1772.6572 788.6765 1769.3243 787.5965 1764.8034 787.5965 C 1760.2824 787.5965 1756.9495 788.6765 1754.8955 790.8056 C 1752.5276 793.2611 1752.7476 796.23835 1752.8036 796.7374 L 1752.8036 801.5729 C 1752.1636 802.2356 1751.8036 803.0838 1751.8036 803.9593 L 1751.8036 807.5956 C 1751.8036 808.702 1752.3566 809.7338 1753.3006 810.422 C 1754.2165 813.7193 1756.1335 816.2038 1756.8035 817.0011 L 1756.8035 820.0093 C 1756.8035 820.8893 1756.2755 821.6965 1755.4265 822.11835 L 1746.5057 826.542 C 1743.6057 827.9802 1741.8048 830.7384 1741.8048 833.742 L 1741.8048 837.5965 L 1787.804 837.5965 L 1787.804 833.9211 C 1787.803 830.7956 1785.892 827.9847 1782.817 826.5865 Z" fill="black"/>
          </g>
          <g id="Graphic_228">
            <path d="M 1745.7867 825.3465 L 1754.7075 820.9229 C 1755.0745 820.7402 1755.3035 820.3902 1755.3035 820.0102 L 1755.3035 817.452 C 1754.4185 816.332 1752.8576 814.0774 1751.9666 811.1702 C 1750.9036 810.232 1750.3036 808.9547 1750.3036 807.5965 L 1750.3036 803.9602 C 1750.3036 802.93835 1750.6556 801.9429 1751.3036 801.1047 L 1751.3036 796.802 C 1751.2696 796.4538 1751.2296 795.64835 1751.3996 794.6247 C 1750.0226 794.18835 1748.4906 793.9602 1746.8037 793.9602 C 1736.4148 793.9602 1735.8099 802.0102 1735.8039 802.142 L 1735.8039 806.3047 C 1735.1559 806.9465 1734.8039 807.6874 1734.8039 808.4229 L 1734.8039 811.5629 C 1734.8039 812.5438 1735.2869 813.45835 1736.1148 814.0765 C 1736.9398 816.9038 1738.9688 819.0402 1739.7588 819.7902 L 1739.7588 822.2838 C 1739.7588 822.9993 1739.3308 823.6556 1738.5878 824.0247 L 1731.935 827.8184 C 1729.387 829.082 1727.804 831.5065 1727.804 834.1447 L 1727.804 837.5965 L 1740.3038 837.5965 L 1740.3038 833.7438 C 1740.3038 830.2411 1742.4047 827.0238 1745.7867 825.3465 Z" fill="black"/>
          </g>
        </g>
      </g>
      <g id="Line_232">
        <path d="M 1616.304 812.2975 L 1627.304 812.2975 L 1671.554 812.447 L 1707.904 812.5965 L 1713.904 812.5965" marker-end="url(#FilledArrow_Marker_3)" stroke="black" stroke-linecap="round" stroke-linejoin="round" stroke-width="2"/>
      </g>
      <g id="Graphic_239">
        <text transform="translate(1640.18 791.8154)" fill="black">
          <tspan font-family="Helvetica Neue" font-size="16" fill="black" x="0" y="15">JWT + TLS</tspan>
        </text>
      </g>
      <g id="Group_233">
        <g id="Group_236">
          <g id="Graphic_238">
            <rect x="1660.056" y="815.8495" width="52.096" height="28.447998" fill="white"/>
            <text transform="translate(1665.056 820.8495)" fill="black">
              <tspan font-family="Helvetica Neue" font-size="16" fill="black" x="682121e-18" y="15">mTLS</tspan>
            </text>
          </g>
          <g id="Graphic_237">
            <rect x="1647.456" y="813.5915" width="12.600008" height="28.447998" fill="white"/>
          </g>
        </g>
        <g id="Group_234">
          <title>XMLID_504_</title>
          <g id="Graphic_235">
            <title>XMLID_505_</title>
            <path d="M 1648.2777 836.9815 L 1659.2343 836.9815 C 1659.688 836.9815 1660.056 836.6084 1660.056 836.1482 L 1660.056 826.7044 C 1660.056 826.2443 1659.688 825.8712 1659.2343 825.8712 L 1658.4125 825.8712 L 1658.4125 823.3714 C 1658.4125 820.7677 1656.3236 818.6495 1653.756 818.6495 C 1651.1884 818.6495 1649.0995 820.7677 1649.0995 823.3714 L 1649.0995 825.8712 L 1648.2777 825.8712 C 1647.824 825.8712 1647.456 826.2443 1647.456 826.7044 L 1647.456 836.1482 C 1647.456 836.6084 1647.824 836.9815 1648.2777 836.9815 Z M 1656.0832 830.835 L 1653.755 833.196 C 1653.5945 833.3587 1653.3842 833.4401 1653.174 833.4401 C 1652.9637 833.4401 1652.7533 833.3587 1652.5929 833.196 L 1651.4288 832.0155 C 1651.1078 831.6901 1651.1078 831.1626 1651.4288 830.8371 C 1651.7496 830.5117 1652.27 830.5117 1652.5909 830.8371 L 1653.174 831.4283 L 1654.9212 829.6566 C 1655.242 829.3312 1655.7624 829.3312 1656.0833 829.6566 C 1656.4042 829.9821 1656.4042 830.5096 1656.0832 830.835 Z M 1650.743 823.3714 C 1650.743 821.6866 1652.0946 820.316 1653.756 820.316 C 1655.4174 820.316 1656.769 821.6866 1656.769 823.3714 L 1656.769 825.8712 L 1650.743 825.8712 Z" fill="#408040"/>
          </g>
        </g>
      </g>
      <g id="Graphic_240">
        <text transform="translate(438.864 841.2)" fill="black">
          <tspan font-family="Helvetica Neue" font-weight="bold" font-size="16" fill="black" x="5400125e-19" y="16">Client</tspan>
        </text>
      </g>
      <g id="Graphic_241">
        <text transform="translate(1710.86 843.5965)" fill="black">
          <tspan font-family="Helvetica Neue" font-weight="bold" font-size="16" fill="black" x="0" y="16">External API</tspan>
        </text>
      </g>
      <g id="Group_243">
        <g id="Group_244">
          <g id="Graphic_246">
            <path d="M 725.21715 820.1571 L 724.09 820.1571 L 724.09 819.0556 C 724.3057 818.8113 724.4357 818.4941 724.4357 818.1469 C 724.4357 817.3812 723.8014 816.7597 723.0214 816.7597 C 722.2414 816.7597 721.60715 817.3826 721.60715 818.1469 C 721.60715 818.4941 721.73715 818.8113 721.9529 819.0556 L 721.9529 820.1571 L 719.3829 820.1571 L 719.3829 815.1525 L 725.2157 815.1525 L 725.2157 820.1571 Z M 723.0214 820.3014 L 722.54 820.6714 L 722.54 819.4527 C 722.69 819.5056 722.8529 819.5356 723.0214 819.5356 C 723.19 819.5356 723.3529 819.507 723.5029 819.4527 L 723.5029 820.6714 Z M 723.0214 818.9527 C 722.5629 818.9527 722.19 818.5913 722.19 818.1469 C 722.19 817.7026 722.5629 817.3412 723.0214 817.3412 C 723.48 817.3412 723.8529 817.7026 723.8529 818.1469 C 723.8529 818.5913 723.48 818.9527 723.0214 818.9527 Z M 725.5086 814.5696 L 719.0914 814.5696 C 718.93 814.5696 718.8 814.6996 718.8 814.861 L 718.8 820.4485 C 718.8 820.6099 718.93 820.74 719.0914 820.74 L 721.9529 820.74 L 721.9529 821.2843 C 721.9529 821.52 722.2243 821.6543 722.4114 821.51 L 723.0214 821.0414 L 723.6314 821.51 C 723.8186 821.6543 724.09 821.52 724.09 821.2843 L 724.09 820.74 L 725.5086 820.74 C 725.67 820.74 725.8 820.6099 725.8 820.4485 L 725.8 814.861 C 725.8 814.6996 725.67 814.5696 725.5086 814.5696 Z" fill="white"/>
          </g>
          <g id="Graphic_245">
            <path d="M 720.8014 816.4826 L 723.79715 816.4826 C 723.9586 816.4826 724.0886 816.35255 724.0886 816.1911 C 724.0886 816.0297 723.9586 815.8997 723.79715 815.8997 L 720.8014 815.8997 C 720.64 815.8997 720.51 816.0297 720.51 816.1911 C 720.51 816.3511 720.6414 816.4826 720.8014 816.4826 Z" fill="white"/>
          </g>
        </g>
      </g>
      <g id="Graphic_252">
        <path d="M 1004.402 961.5648 C 1004.402 959.5904 1002.8503 959.3461 991.5154 957.3921 L 991.3957 957.3718 C 980.0009 955.3974 979.8824 955.3974 968.1883 955.3974 C 952.6174 955.3974 882.2195 955.3974 882.2195 955.3974 L 882.2195 976.2404 L 1004.402 976.2404 L 1004.402 961.5648 Z" fill="white"/>
        <path d="M 1004.402 961.5648 C 1004.402 959.5904 1002.8503 959.3461 991.5154 957.3921 L 991.3957 957.3718 C 980.0009 955.3974 979.8824 955.3974 968.1883 955.3974 C 952.6174 955.3974 882.2195 955.3974 882.2195 955.3974 L 882.2195 976.2404 L 1004.402 976.2404 L 1004.402 961.5648 Z M 1004.402 961.4631 C 1004.402 959.5904 1004.2823 959.5904 979.8824 959.5904 L 979.8824 959.5904 C 979.8824 955.4178 979.8824 955.3974 968.9043 955.3974" stroke="gray" stroke-linecap="round" stroke-linejoin="round" stroke-width=".6787919"/>
        <text transform="translate(885.6134 959.6668)" fill="black">
          <tspan font-family="Helvetica Neue" font-size="10.8606703401417" fill="black" x="2.476233" y="10">RequestAuthentication</tspan>
        </text>
      </g>
      <g id="Graphic_254">
        <path d="M 1004.402 990.6925 C 1004.402 988.7979 1002.8503 988.5635 991.5154 986.6885 L 991.3957 986.6691 C 980.0009 984.7745 979.8824 984.7745 968.1883 984.7745 C 952.6174 984.7745 882.2195 984.7745 882.2195 984.7745 L 882.2195 1004.7745 L 1004.402 1004.7745 L 1004.402 990.6925 Z" fill="white"/>
        <path d="M 1004.402 990.6925 C 1004.402 988.7979 1002.8503 988.5635 991.5154 986.6885 L 991.3957 986.6691 C 980.0009 984.7745 979.8824 984.7745 968.1883 984.7745 C 952.6174 984.7745 882.2195 984.7745 882.2195 984.7745 L 882.2195 1004.7745 L 1004.402 1004.7745 L 1004.402 990.6925 Z M 1004.402 990.5949 C 1004.402 988.7979 1004.2823 988.7979 979.8824 988.7979 L 979.8824 988.7979 C 979.8824 984.7941 979.8824 984.7745 968.9043 984.7745" stroke="gray" stroke-linecap="round" stroke-linejoin="round" stroke-width=".6787919"/>
        <text transform="translate(885.6134 988.6224)" fill="black">
          <tspan font-family="Helvetica Neue" font-size="10.8606703401417" fill="black" x="11.534032" y="10">PeerAuthentication</tspan>
        </text>
      </g>
      <g id="Graphic_258">
        <path d="M 1004.2372 1019.2266 C 1004.2372 1017.332 1002.6855 1017.0976 991.3506 1015.2226 L 991.2309 1015.2032 C 979.8361 1013.3086 979.7176 1013.3086 968.0235 1013.3086 C 952.4526 1013.3086 882.0547 1013.3086 882.0547 1013.3086 L 882.0547 1033.3086 L 1004.2372 1033.3086 L 1004.2372 1019.2266 Z" fill="white"/>
        <path d="M 1004.2372 1019.2266 C 1004.2372 1017.332 1002.6855 1017.0976 991.3506 1015.2226 L 991.2309 1015.2032 C 979.8361 1013.3086 979.7176 1013.3086 968.0235 1013.3086 C 952.4526 1013.3086 882.0547 1013.3086 882.0547 1013.3086 L 882.0547 1033.3086 L 1004.2372 1033.3086 L 1004.2372 1019.2266 Z M 1004.2372 1019.129 C 1004.2372 1017.332 1004.1175 1017.332 979.7176 1017.332 L 979.7176 1017.332 C 979.7176 1013.3282 979.7176 1013.3086 968.7395 1013.3086" stroke="gray" stroke-linecap="round" stroke-linejoin="round" stroke-width=".6787919"/>
        <text transform="translate(885.4486 1017.1566)" fill="black">
          <tspan font-family="Helvetica Neue" font-size="10.8606703401417" fill="black" x="11.045302" y="10">AuthorizationPolicy</tspan>
        </text>
      </g>
      <g id="Group_259">
        <g id="Graphic_264">
          <rect x="1120" y="918.9705" width="32" height="32" fill="white"/>
        </g>
        <g id="Group_260">
          <g id="Group_261">
            <g id="Graphic_263">
              <path d="M 1148.1232 943.6457 L 1143.439 943.6457 L 1143.439 939.0681 C 1144.3354 938.0528 1144.8757 936.7348 1144.8757 935.292 C 1144.8757 932.1096 1142.2397 929.5269 1138.9981 929.5269 C 1135.7566 929.5269 1133.1206 932.1156 1133.1206 935.292 C 1133.1206 936.7348 1133.6609 938.0528 1134.5573 939.0681 L 1134.5573 943.6457 L 1123.8768 943.6457 L 1123.8768 922.8475 L 1148.1173 922.8475 L 1148.1173 943.6457 Z M 1138.9981 944.2454 L 1136.9974 945.7832 L 1136.9974 940.7187 C 1137.6208 940.9383 1138.2976 941.063 1138.9981 941.063 C 1139.6987 941.063 1140.3755 940.9443 1140.9989 940.7187 L 1140.9989 945.7832 Z M 1138.9981 938.6406 C 1137.0924 938.6406 1135.5429 937.1385 1135.5429 935.292 C 1135.5429 933.4455 1137.0924 931.9434 1138.9981 931.9434 C 1140.9039 931.9434 1142.4534 933.4455 1142.4534 935.292 C 1142.4534 937.1385 1140.9039 938.6406 1138.9981 938.6406 Z M 1149.3343 920.4251 L 1122.6657 920.4251 C 1121.9948 920.4251 1121.4545 920.9654 1121.4545 921.6363 L 1121.4545 944.857 C 1121.4545 945.5279 1121.9948 946.0681 1122.6657 946.0681 L 1134.5573 946.0681 L 1134.5573 948.3302 C 1134.5573 949.3099 1135.6853 949.868 1136.4631 949.2683 L 1138.9981 947.3209 L 1141.5332 949.2683 C 1142.311 949.868 1143.439 949.3099 1143.439 948.3302 L 1143.439 946.0681 L 1149.3343 946.0681 C 1150.0052 946.0681 1150.5455 945.5279 1150.5455 944.857 L 1150.5455 921.6363 C 1150.5455 920.9654 1150.0052 920.4251 1149.3343 920.4251 Z" fill="black"/>
            </g>
            <g id="Graphic_262">
              <path d="M 1129.7722 928.3751 L 1142.2219 928.3751 C 1142.8928 928.3751 1143.433 927.8348 1143.433 927.1639 C 1143.433 926.493 1142.8928 925.9527 1142.2219 925.9527 L 1129.7722 925.9527 C 1129.1013 925.9527 1128.561 926.493 1128.561 927.1639 C 1128.561 927.8288 1129.1072 928.3751 1129.7722 928.3751 Z" fill="black"/>
            </g>
          </g>
        </g>
      </g>
      <g id="Graphic_265">
        <text transform="translate(1097.48 1086.2581)" fill="black">
          <tspan font-family="Helvetica Neue" font-size="16" fill="black" x="4405365e-19" y="15">Built-in CA</tspan>
        </text>
      </g>
      <g id="Graphic_266">
        <rect x="1042.696" y="966.3437" width="186.608" height="65.343994" fill="white"/>
        <text transform="translate(1047.696 971.3437)" fill="black">
          <tspan font-family="Helvetica Neue" font-size="16" fill="black" x="30.52" y="15">Distribute/rotate</tspan>
          <tspan font-family="Helvetica Neue" font-size="16" fill="black" x="8526513e-20" y="33.448">the SVID certificates and</tspan>
          <tspan font-family="Helvetica Neue" font-size="16" fill="black" x="9.784" y="51.895996">config Envoy sidecars</tspan>
        </text>
      </g>
      <g id="Group_267">
        <g id="Graphic_268">
          <path d="M 724.585 805.5986 C 724.90535 805.2782 725.0823 804.85115 725.0823 804.3979 C 725.0823 803.9447 724.9054 803.5176 724.585 803.1973 C 724.264 802.877 723.8376 802.7 723.3844 802.7 C 722.9312 802.7 722.5048 802.877 722.1838 803.1973 C 721.8634 803.5176 721.6865 803.9447 721.6865 804.3979 C 721.6865 804.85115 721.8634 805.2775 722.1838 805.5986 C 722.3913 805.8061 722.643 805.9532 722.9177 806.0309 L 722.9177 807.4533 L 722.9177 808.6606 L 722.9177 809.2333 C 722.9177 809.4909 723.1268 809.7 723.3844 809.7 C 723.642 809.7 723.8511 809.4909 723.8511 809.2333 L 723.8511 809.1273 L 724.1184 809.1273 C 724.376 809.1273 724.585 808.9182 724.585 808.6606 C 724.585 808.403 724.376 808.194 724.1184 808.194 L 723.8511 808.194 L 723.8511 807.9199 L 724.1184 807.9199 C 724.376 807.9199 724.585 807.7109 724.585 807.4533 C 724.585 807.1957 724.376 806.9866 724.1184 806.9866 L 723.8511 806.9866 L 723.8511 806.0309 C 724.1258 805.9532 724.3775 805.8061 724.585 805.5986 Z M 722.6198 804.3979 C 722.6198 803.9761 722.9625 803.6333 723.3844 803.6333 C 723.8063 803.6333 724.149 803.9761 724.149 804.3979 C 724.149 804.8198 723.8063 805.1625 723.3844 805.1625 C 722.9625 805.1625 722.6198 804.819 722.6198 804.3979 Z" fill="white"/>
        </g>
      </g>
      <g id="Group_274">
        <g id="Graphic_273"/>
        <g id="Graphic_269">
          <path d="M 820.2363 1065.466 L 811.9294 1061.3129 C 811.1459 1060.9207 810.659 1060.1329 810.659 1059.2564 L 810.659 1056.3164 C 810.8581 1056.0729 811.0676 1055.7955 811.2842 1055.4894 C 812.3616 1053.9677 813.225 1052.2738 813.8529 1050.4468 C 815.0798 1049.8842 815.8763 1048.6712 815.8763 1047.3016 L 815.8763 1043.8233 C 815.8763 1042.986 815.5633 1042.1746 815.0068 1041.5407 L 815.0068 1036.9155 C 815.0555 1036.4372 815.2468 1033.5903 813.1876 1031.2416 C 811.4016 1029.2042 808.5033 1028.1712 804.572 1028.1712 C 800.6407 1028.1712 797.7424 1029.2042 795.9563 1031.2407 C 793.8972 1033.5894 794.0885 1036.4372 794.1372 1036.9155 L 794.1372 1041.5407 C 793.5807 1042.1746 793.26765 1042.986 793.26765 1043.8233 L 793.26765 1047.3016 C 793.26765 1048.3599 793.7485 1049.3468 794.5694 1050.0051 C 795.3659 1053.159 797.0329 1055.5355 797.6155 1056.2981 L 797.6155 1059.1755 C 797.6155 1060.0172 797.1563 1060.7894 796.4181 1061.1929 L 788.6607 1065.4242 C 786.1381 1066.8007 784.572 1069.439 784.572 1072.312 L 784.572 1075.1277 C 784.572 1079.2546 797.6546 1080.3451 804.572 1080.3451 C 811.4894 1080.3451 824.572 1079.2546 824.572 1075.1277 L 824.572 1072.4816 C 824.572 1069.492 822.9103 1066.8033 820.2363 1065.466 Z" fill="black"/>
        </g>
      </g>
      <g id="Line_275">
        <path d="M 824.572 1061.4041 L 1047.6 1061.2581 L 1052.6 1061.2581" marker-end="url(#FilledArrow_Marker)" stroke="black" stroke-linecap="round" stroke-linejoin="round" stroke-width="1"/>
      </g>
      <g id="Graphic_276">
        <text transform="translate(769.348 1086.2581)" fill="black">
          <tspan font-family="Helvetica Neue" font-weight="bold" font-size="16" fill="black" x="1563194e-19" y="16">Operator</tspan>
        </text>
      </g>
      <g id="Graphic_277">
        <text transform="translate(836.3863 1042.8808)" fill="black">
          <tspan font-family="Helvetica Neue" font-size="16" fill="black" x="0" y="15">Config the service-to-service</tspan>
          <tspan font-family="Helvetica Neue" font-size="16" fill="black" x="43.832" y="33.448">Authn and Authz</tspan>
        </text>
      </g>
      <g id="Graphic_278">
        <rect x="637.6525" y="742.07895" width="32" height="43.84209" fill="white"/>
        <text transform="translate(640.2778 743.5126)" fill="black">
          <tspan font-family="Helvetica Neue" font-weight="bold" font-size="8.40088001918358" fill="black" x="4.5075965" y="8">JWT </tspan>
          <tspan font-family="Helvetica Neue" font-weight="bold" font-size="8.40088001918358" fill="black" x="5.906343" y="18.243684">and </tspan>
          <tspan font-family="Helvetica Neue" font-weight="bold" font-size="8.40088001918358" fill="black" x=".9246212" y="28.487368">AuthN</tspan>
          <tspan font-family="Helvetica Neue" font-weight="bold" font-size="8.40088001918358" fill="black" x="1.945328" y="38.73105">filters</tspan>
        </text>
      </g>
      <g id="Graphic_279">
        <rect x="715.4915" y="742.07895" width="32" height="43.84209" fill="white"/>
        <text transform="translate(718.1168 753.7563)" fill="black">
          <tspan font-family="Helvetica Neue" font-weight="bold" font-size="8.401" fill="black" x="1.3150898" y="8">AuthZ</tspan>
          <tspan font-family="Helvetica Neue" font-weight="bold" font-size="8.401" fill="black" x="1.9451648" y="18.243687">filters</tspan>
        </text>
      </g>
      <g id="Graphic_280">
        <path d="M 672.692 821.5818 L 672.692 800.0601 C 672.692 798.5751 682.1 797.3699 693.692 797.3699 C 705.284 797.3699 714.692 798.5751 714.692 800.0601 L 714.692 821.5818 C 714.692 823.0668 705.284 824.272 693.692 824.272 C 682.1 824.272 672.692 823.0668 672.692 821.5818" fill="white"/>
        <path d="M 672.692 821.5818 L 672.692 800.0601 C 672.692 798.5751 682.1 797.3699 693.692 797.3699 C 705.284 797.3699 714.692 798.5751 714.692 800.0601 L 714.692 821.5818 C 714.692 823.0668 705.284 824.272 693.692 824.272 C 682.1 824.272 672.692 823.0668 672.692 821.5818 M 672.692 800.0601 C 672.692 801.5451 682.1 802.7503 693.692 802.7503 C 705.284 802.7503 714.692 801.5451 714.692 800.0601" stroke="black" stroke-linecap="round" stroke-linejoin="round" stroke-width=".41170013"/>
        <text transform="translate(674.7505 804.975)" fill="black">
          <tspan font-family="Helvetica Neue" font-weight="bold" font-size="6.58720200752825" fill="black" x="10.957811" y="6">Filter</tspan>
          <tspan font-family="Helvetica Neue" font-weight="bold" font-size="6.58720200752825" fill="black" x="4.064304" y="13.191075">metadata</tspan>
        </text>
      </g>
      <g id="Line_281">
        <line x1="669.6525" y1="782.7099" x2="676.1061" y2="790.2565" marker-end="url(#FilledArrow_Marker)" stroke="black" stroke-linecap="round" stroke-linejoin="round" stroke-width="1"/>
      </g>
      <g id="Line_282">
        <line x1="704.2566" y1="797.735" x2="709.2727" y2="791.5217" marker-end="url(#FilledArrow_Marker)" stroke="black" stroke-linecap="round" stroke-linejoin="round" stroke-width="1"/>
      </g>
      <g id="Line_283">
        <line x1="669.6525" y1="764" x2="705.5915" y2="764" marker-end="url(#FilledArrow_Marker)" stroke="black" stroke-linecap="round" stroke-linejoin="round" stroke-width="1"/>
      </g>
      <g id="Line_284">
        <line x1="747.4915" y1="785.1989" x2="760.3973" y2="802.2981" marker-end="url(#FilledArrow_Marker)" stroke="black" stroke-linecap="round" stroke-linejoin="round" stroke-width="1"/>
      </g>
      <g id="Line_285">
        <line x1="619.63246" y1="809.6" x2="631.73256" y2="793.3812" marker-end="url(#FilledArrow_Marker)" stroke="black" stroke-linecap="round" stroke-linejoin="round" stroke-width="1"/>
      </g>
      <g id="Graphic_286"/>
      <g id="Graphic_287">
        <text transform="translate(730.0823 802.102)" fill="white">
          <tspan font-family="Helvetica Neue" font-size="7" fill="white" x="8153478e-19" y="7">JWT</tspan>
        </text>
      </g>
      <g id="Graphic_288">
        <text transform="translate(729.3718 813.9716)" fill="white">
          <tspan font-family="Helvetica Neue" font-size="7" fill="white" x="4352074e-20" y="7">SVID</tspan>
        </text>
      </g>
    </g>
  </g>
</svg>
