<?xml version="1.0" encoding="UTF-8" standalone="no"?>
<!DOCTYPE svg PUBLIC "-//W3C//DTD SVG 1.1//EN" "http://www.w3.org/Graphics/SVG/1.1/DTD/svg11.dtd">
<svg xmlns="http://www.w3.org/2000/svg" xmlns:xl="http://www.w3.org/1999/xlink" version="1.1" xmlns:dc="http://purl.org/dc/elements/1.1/" viewBox="2353 592 612 325" width="612" height="325">
  <defs>
    <marker orient="auto" overflow="visible" markerUnits="strokeWidth" id="FilledArrow_Marker" stroke-linejoin="miter" stroke-miterlimit="10" viewBox="-1 -4 10 8" markerWidth="10" markerHeight="8" color="black">
      <g>
        <path d="M 8 0 L 0 -3 L 0 3 Z" fill="currentColor" stroke="currentColor" stroke-width="1"/>
      </g>
    </marker>
  </defs>
  <g id="Canvas________" fill-opacity="1" stroke-opacity="1" stroke="none" stroke-dasharray="none" fill="none">
    <title>代理类别（正反向）</title>
    <rect fill="white" x="2353" y="592" width="612" height="325"/>
    <g id="Canvas_________Layer_1">
      <title>Layer 1</title>
      <g id="Graphic_125">
        <rect x="2353.5884" y="592.5984" width="610.61846" height="323.9685" fill="white"/>
      </g>
      <g id="Group_82">
        <g id="Graphic_81"/>
        <g id="Group_2">
          <g id="Group_3">
            <g id="Graphic_7">
              <rect x="2380.9804" y="673.9899" width="32.757453" height="4.051152" fill="#0a55a8"/>
            </g>
            <g id="Graphic_6">
              <rect x="2385.612" y="664.0071" width="23.44793" height="7.696028" fill="#0a55a8"/>
            </g>
            <g id="Graphic_5">
              <path d="M 2369.0127 621.34814 L 2369.0127 661.7552 L 2425.7056 661.7552 L 2425.7056 621.34814 Z M 2422.6063 657.4835 C 2422.6063 658.1103 2422.1072 658.60945 2421.4803 658.60945 L 2373.238 658.60945 C 2372.611 658.60945 2372.112 658.1103 2372.112 657.4835 L 2372.112 625.61984 C 2372.112 624.993 2372.611 624.4939 2373.238 624.4939 L 2421.4803 624.4939 C 2422.1072 624.4939 2422.6063 624.993 2422.6063 625.61984 Z" fill="#0a55a8"/>
            </g>
            <g id="Graphic_4">
              <path d="M 2374.364 656.3575 L 2420.3544 656.3575 L 2420.3544 626.7458 L 2374.364 626.7458 Z M 2404.9623 643.89065 C 2404.9623 643.6701 2405.1016 643.4844 2405.2757 643.3915 L 2411.6252 640.4663 L 2405.2757 637.5876 C 2405.09 637.4947 2404.9623 637.3206 2404.9623 637.0884 L 2404.9623 634.8133 C 2404.9623 634.4302 2405.357 634.1865 2405.6936 634.349 L 2415.2585 638.7948 C 2415.4442 638.88766 2415.572 639.0618 2415.572 639.2939 L 2415.572 641.81284 C 2415.572 642.0334 2415.4326 642.2191 2415.2585 642.312 L 2405.6936 646.7114 C 2405.3454 646.8739 2404.9507 646.6185 2404.9507 646.23545 L 2404.9507 643.89065 L 2404.9623 643.89065 Z M 2390.8935 650.7393 L 2399.6923 631.8765 C 2399.7852 631.6908 2399.9593 631.5631 2400.1915 631.5631 L 2402.188 631.5631 C 2402.5943 631.5631 2402.873 631.9926 2402.6988 632.364 L 2393.8884 651.2268 C 2393.7955 651.4126 2393.6214 651.54025 2393.3892 651.54025 L 2391.3927 651.54025 C 2390.998 651.54025 2390.7194 651.11076 2390.8935 650.7393 Z M 2379.1812 639.30554 C 2379.1812 639.085 2379.3205 638.8993 2379.4946 638.8064 L 2389.071 634.3606 C 2389.4077 634.1981 2389.8024 634.45344 2389.8024 634.8249 L 2389.8024 637.1465 C 2389.8024 637.367 2389.663 637.55275 2389.489 637.6456 L 2383.1395 640.5244 L 2389.489 643.44955 C 2389.6747 643.5424 2389.8024 643.7165 2389.8024 643.9487 L 2389.8024 646.3167 C 2389.8024 646.68815 2389.4193 646.9435 2389.071 646.781 L 2379.4946 642.3816 C 2379.309 642.2888 2379.1812 642.11465 2379.1812 641.8825 Z" fill="#0a55a8"/>
            </g>
          </g>
        </g>
      </g>
      <g id="Group_91">
        <g id="Graphic_90">
          <rect x="2369.0127" y="824.0473" width="56.69291" height="56.69291" fill="white"/>
        </g>
        <g id="Group_8">
          <g id="Group_9">
            <g id="Graphic_13">
              <rect x="2380.9804" y="876.689" width="32.757453" height="4.051152" fill="#0a55a8"/>
            </g>
            <g id="Graphic_12">
              <rect x="2385.612" y="866.7062" width="23.44793" height="7.696028" fill="#0a55a8"/>
            </g>
            <g id="Graphic_11">
              <path d="M 2369.0127 824.0473 L 2369.0127 864.4543 L 2425.7056 864.4543 L 2425.7056 824.0473 Z M 2422.6063 860.1826 C 2422.6063 860.8094 2422.1072 861.3086 2421.4803 861.3086 L 2373.238 861.3086 C 2372.611 861.3086 2372.112 860.8094 2372.112 860.1826 L 2372.112 828.319 C 2372.112 827.6921 2372.611 827.193 2373.238 827.193 L 2421.4803 827.193 C 2422.1072 827.193 2422.6063 827.6921 2422.6063 828.319 Z" fill="#0a55a8"/>
            </g>
            <g id="Graphic_10">
              <path d="M 2374.364 859.0566 L 2420.3544 859.0566 L 2420.3544 829.4449 L 2374.364 829.4449 Z M 2404.9623 846.5898 C 2404.9623 846.3692 2405.1016 846.1835 2405.2757 846.0906 L 2411.6252 843.1654 L 2405.2757 840.2867 C 2405.09 840.1938 2404.9623 840.0197 2404.9623 839.7875 L 2404.9623 837.5124 C 2404.9623 837.1293 2405.357 836.8856 2405.6936 837.0481 L 2415.2585 841.4939 C 2415.4442 841.5868 2415.572 841.7609 2415.572 841.993 L 2415.572 844.512 C 2415.572 844.7325 2415.4326 844.9182 2415.2585 845.0111 L 2405.6936 849.4105 C 2405.3454 849.573 2404.9507 849.3176 2404.9507 848.9346 L 2404.9507 846.5898 L 2404.9623 846.5898 Z M 2390.8935 853.4384 L 2399.6923 834.5756 C 2399.7852 834.3899 2399.9593 834.2622 2400.1915 834.2622 L 2402.188 834.2622 C 2402.5943 834.2622 2402.873 834.6917 2402.6988 835.0631 L 2393.8884 853.9259 C 2393.7955 854.1117 2393.6214 854.2394 2393.3892 854.2394 L 2391.3927 854.2394 C 2390.998 854.2394 2390.7194 853.8099 2390.8935 853.4384 Z M 2379.1812 842.0047 C 2379.1812 841.7841 2379.3205 841.5984 2379.4946 841.5055 L 2389.071 837.0597 C 2389.4077 836.8972 2389.8024 837.1526 2389.8024 837.524 L 2389.8024 839.8456 C 2389.8024 840.0661 2389.663 840.2519 2389.489 840.3447 L 2383.1395 843.2235 L 2389.489 846.1487 C 2389.6747 846.2415 2389.8024 846.4156 2389.8024 846.6478 L 2389.8024 849.0158 C 2389.8024 849.3873 2389.4193 849.6426 2389.071 849.4801 L 2379.4946 845.0807 C 2379.309 844.9879 2379.1812 844.8138 2379.1812 844.5816 Z" fill="#0a55a8"/>
            </g>
          </g>
        </g>
      </g>
      <g id="Group_92">
        <g id="Graphic_88">
          <rect x="2369.0127" y="723.1277" width="56.69291" height="56.69291" fill="white"/>
        </g>
        <g id="Group_14">
          <g id="Group_15">
            <g id="Graphic_19">
              <rect x="2380.98" y="774.9095" width="32.757453" height="4.051152" fill="#0a55a8"/>
            </g>
            <g id="Graphic_18">
              <rect x="2385.6114" y="764.9267" width="23.44793" height="7.696028" fill="#0a55a8"/>
            </g>
            <g id="Graphic_17">
              <path d="M 2369.012 722.2677 L 2369.012 762.67475 L 2425.705 762.67475 L 2425.705 722.2677 Z M 2422.6057 758.403 C 2422.6057 759.0299 2422.1066 759.529 2421.4798 759.529 L 2373.2374 759.529 C 2372.6106 759.529 2372.1114 759.0299 2372.1114 758.403 L 2372.1114 726.5394 C 2372.1114 725.9126 2372.6106 725.4134 2373.2374 725.4134 L 2421.4798 725.4134 C 2422.1066 725.4134 2422.6057 725.9126 2422.6057 726.5394 Z" fill="#0a55a8"/>
            </g>
            <g id="Graphic_16">
              <path d="M 2374.3634 757.2771 L 2420.3538 757.2771 L 2420.3538 727.6654 L 2374.3634 727.6654 Z M 2404.9618 744.8102 C 2404.9618 744.5897 2405.101 744.4039 2405.2752 744.3111 L 2411.6247 741.3859 L 2405.2752 738.5071 C 2405.0894 738.4143 2404.9618 738.24015 2404.9618 738.008 L 2404.9618 735.7328 C 2404.9618 735.3498 2405.3564 735.106 2405.693 735.2685 L 2415.258 739.71435 C 2415.4437 739.8072 2415.5714 739.9813 2415.5714 740.2135 L 2415.5714 742.7324 C 2415.5714 742.95295 2415.432 743.1387 2415.258 743.2315 L 2405.693 747.6309 C 2405.3448 747.7934 2404.9502 747.5381 2404.9502 747.155 L 2404.9502 744.8102 L 2404.9618 744.8102 Z M 2390.893 751.6589 L 2399.6918 732.79605 C 2399.7846 732.6103 2399.9588 732.4826 2400.191 732.4826 L 2402.1875 732.4826 C 2402.5938 732.4826 2402.8723 732.9121 2402.6982 733.2836 L 2393.8878 752.1464 C 2393.795 752.3321 2393.6209 752.4598 2393.3887 752.4598 L 2391.392 752.4598 C 2390.9975 752.4598 2390.719 752.0303 2390.893 751.6589 Z M 2379.1806 740.2251 C 2379.1806 740.00455 2379.32 739.8188 2379.494 739.726 L 2389.0706 735.2801 C 2389.4072 735.1176 2389.802 735.373 2389.802 735.74445 L 2389.802 738.066 C 2389.802 738.2866 2389.6626 738.4723 2389.4884 738.5652 L 2383.139 741.4439 L 2389.4884 744.3691 C 2389.6742 744.462 2389.802 744.6361 2389.802 744.86825 L 2389.802 747.2363 C 2389.802 747.6077 2389.4188 747.8631 2389.0706 747.7006 L 2379.494 743.3012 C 2379.3083 743.2083 2379.1806 743.0342 2379.1806 742.80205 Z" fill="#0a55a8"/>
            </g>
          </g>
        </g>
      </g>
      <g id="Group_94">
        <g id="Graphic_84">
          <rect x="2630.5512" y="723.1277" width="56.69291" height="56.69291" fill="white"/>
        </g>
        <g id="Graphic_28">
          <path d="M 2634.8375 759.9781 L 2648.0464 759.9781 C 2647.7277 757.2918 2647.559 754.4348 2647.559 751.47415 C 2647.559 748.5135 2647.7277 745.6565 2648.0464 742.9702 L 2634.8375 742.9702 C 2633.8974 745.6301 2633.386 748.4924 2633.386 751.47415 C 2633.386 754.4559 2633.8974 757.3182 2634.8375 759.9781 Z M 2636.0377 762.8127 C 2639.412 769.6027 2645.7224 774.6761 2653.3078 776.3717 C 2651.0993 773.3655 2649.4077 768.5873 2648.4485 762.8127 L 2636.0377 762.8127 Z M 2682.9578 759.9781 C 2683.898 757.3182 2684.4095 754.4559 2684.4095 751.47415 C 2684.4095 748.4924 2683.898 745.6301 2682.9578 742.9702 L 2669.749 742.9702 C 2670.0676 745.6565 2670.2362 748.5135 2670.2362 751.47415 C 2670.2362 754.4348 2670.0676 757.2918 2669.749 759.9781 L 2682.9578 759.9781 Z M 2681.7576 762.8127 L 2669.347 762.8127 C 2668.3876 768.5873 2666.696 773.3655 2664.4876 776.3717 C 2672.073 774.6761 2678.3833 769.6027 2681.7576 762.8127 Z M 2650.9164 759.9781 L 2666.879 759.9781 C 2667.2146 757.3203 2667.4016 754.4585 2667.4016 751.47415 C 2667.4016 748.4898 2667.2146 745.628 2666.879 742.9702 L 2650.9164 742.9702 C 2650.5808 745.628 2650.3937 748.4898 2650.3937 751.47415 C 2650.3937 754.4585 2650.5808 757.3203 2650.9164 759.9781 Z M 2651.3433 762.8127 C 2652.8235 771.2255 2655.8308 776.986 2658.8977 776.986 C 2661.9645 776.986 2664.9718 771.2255 2666.452 762.8127 L 2651.3433 762.8127 Z M 2636.0377 740.1356 L 2648.4485 740.1356 C 2649.4077 734.361 2651.0993 729.5828 2653.3078 726.5766 C 2645.7224 728.27224 2639.412 733.3456 2636.0377 740.1356 Z M 2681.7576 740.1356 C 2678.3833 733.3456 2672.073 728.27224 2664.4876 726.5766 C 2666.696 729.5828 2668.3876 734.361 2669.347 740.1356 L 2681.7576 740.1356 Z M 2651.3433 740.1356 L 2666.452 740.1356 C 2664.9718 731.7228 2661.9645 725.9623 2658.8977 725.9623 C 2655.8308 725.9623 2652.8235 731.7228 2651.3433 740.1356 Z M 2658.8977 779.8206 C 2643.2423 779.8206 2630.5512 767.1295 2630.5512 751.47415 C 2630.5512 735.8188 2643.2423 723.1277 2658.8977 723.1277 C 2674.553 723.1277 2687.244 735.8188 2687.244 751.47415 C 2687.244 767.1295 2674.553 779.8206 2658.8977 779.8206 Z" fill="#0a55a8"/>
        </g>
      </g>
      <g id="Group_118">
        <g id="Graphic_85">
          <rect x="2890.8442" y="726.2362" width="56.69291" height="49.89934" fill="white"/>
        </g>
        <g id="Group_45">
          <g id="Group_46">
            <g id="Group_47">
              <g id="Graphic_59">
                <path d="M 2939.5188 778.6324 C 2941.6983 778.6324 2943.4715 776.7584 2943.4715 774.455 C 2943.4715 772.1516 2941.6983 770.2776 2939.5188 770.2776 C 2937.3393 770.2776 2935.566 772.1516 2935.566 774.455 C 2935.566 776.7584 2937.3393 778.6324 2939.5188 778.6324 Z M 2939.5188 772.6647 C 2940.453 772.6647 2941.2128 773.4678 2941.2128 774.455 C 2941.2128 775.4422 2940.453 776.2453 2939.5188 776.2453 C 2938.5847 776.2453 2937.8248 775.4422 2937.8248 774.455 C 2937.8248 773.4678 2938.5847 772.6647 2939.5188 772.6647 Z" fill="#0a55a8"/>
              </g>
              <g id="Graphic_58">
                <path d="M 2929.5806 777.5582 C 2931.1996 777.5582 2932.517 776.1661 2932.517 774.455 C 2932.517 772.744 2931.1996 771.3518 2929.5806 771.3518 C 2927.9616 771.3518 2926.6443 772.744 2926.6443 774.455 C 2926.6443 776.1661 2927.9616 777.5582 2929.5806 777.5582 Z M 2929.5806 773.7389 C 2929.9543 773.7389 2930.2582 774.0601 2930.2582 774.455 C 2930.2582 774.85 2929.9543 775.1711 2929.5806 775.1711 C 2929.207 775.1711 2928.903 774.85 2928.903 774.455 C 2928.903 774.0601 2929.207 773.7389 2929.5806 773.7389 Z" fill="#0a55a8"/>
              </g>
              <g id="Graphic_57">
                <path d="M 2897.6202 775.64855 L 2922.127 775.64855 C 2922.7507 775.64855 2923.2563 775.1142 2923.2563 774.455 C 2923.2563 773.7958 2922.7507 773.2615 2922.127 773.2615 L 2897.6202 773.2615 C 2896.9965 773.2615 2896.491 773.7958 2896.491 774.455 C 2896.491 775.1142 2896.9965 775.64855 2897.6202 775.64855 Z" fill="#0a55a8"/>
              </g>
              <g id="Graphic_56">
                <path d="M 2946.4078 746.0489 L 2942.2292 746.0489 L 2942.2292 745.613 C 2942.2292 744.9538 2941.7236 744.4195 2941.1 744.4195 C 2940.476 744.4195 2939.9705 744.9538 2939.9705 745.613 L 2939.9705 746.0489 L 2898.185 746.0489 L 2898.185 745.613 C 2898.185 744.9538 2897.6793 744.4195 2897.0556 744.4195 C 2896.4318 744.4195 2895.9262 744.9538 2895.9262 745.613 L 2895.9262 746.0489 L 2891.9735 746.0489 C 2891.3498 746.0489 2890.8442 746.5832 2890.8442 747.2424 L 2890.8442 761.8035 C 2890.8442 762.4627 2891.3498 762.9971 2891.9735 762.9971 L 2895.9262 762.9971 L 2895.9262 765.9809 L 2891.9735 765.9809 C 2891.3498 765.9809 2890.8442 766.5153 2890.8442 767.17445 L 2890.8442 781.7356 C 2890.8442 782.3948 2891.3498 782.9291 2891.9735 782.9291 L 2946.4078 782.9291 C 2947.0315 782.9291 2947.537 782.3948 2947.537 781.7356 L 2947.537 767.17445 C 2947.537 766.5153 2947.0315 765.9809 2946.4078 765.9809 L 2942.2292 765.9809 L 2942.2292 762.9971 L 2946.4078 762.9971 C 2947.0315 762.9971 2947.537 762.4627 2947.537 761.8035 L 2947.537 747.2424 C 2947.537 746.5832 2947.0315 746.0489 2946.4078 746.0489 Z M 2945.2784 768.368 L 2945.2784 780.542 L 2893.103 780.542 L 2893.103 768.368 Z M 2898.185 765.9809 L 2898.185 762.9971 L 2939.9705 762.9971 L 2939.9705 765.9809 Z M 2945.2784 760.61 L 2893.103 760.61 L 2893.103 748.43595 L 2945.2784 748.43595 Z" fill="#0a55a8"/>
              </g>
              <g id="Graphic_55">
                <path d="M 2939.5188 758.70035 C 2941.6983 758.70035 2943.4715 756.8264 2943.4715 754.523 C 2943.4715 752.2196 2941.6983 750.3456 2939.5188 750.3456 C 2937.3393 750.3456 2935.566 752.2196 2935.566 754.523 C 2935.566 756.8264 2937.3393 758.70035 2939.5188 758.70035 Z M 2939.5188 752.7327 C 2940.453 752.7327 2941.2128 753.5358 2941.2128 754.523 C 2941.2128 755.51015 2940.453 756.3133 2939.5188 756.3133 C 2938.5847 756.3133 2937.8248 755.51015 2937.8248 754.523 C 2937.8248 753.5358 2938.5847 752.7327 2939.5188 752.7327 Z" fill="#0a55a8"/>
              </g>
              <g id="Graphic_54">
                <path d="M 2929.5806 757.6262 C 2931.1996 757.6262 2932.517 756.234 2932.517 754.523 C 2932.517 752.8119 2931.1996 751.4198 2929.5806 751.4198 C 2927.9616 751.4198 2926.6443 752.8119 2926.6443 754.523 C 2926.6443 756.234 2927.9616 757.6262 2929.5806 757.6262 Z M 2929.5806 753.8069 C 2929.9543 753.8069 2930.2582 754.128 2930.2582 754.523 C 2930.2582 754.9179 2929.9543 755.2391 2929.5806 755.2391 C 2929.207 755.2391 2928.903 754.9179 2928.903 754.523 C 2928.903 754.128 2929.207 753.8069 2929.5806 753.8069 Z" fill="#0a55a8"/>
              </g>
              <g id="Graphic_53">
                <path d="M 2897.6202 755.7165 L 2922.127 755.7165 C 2922.7507 755.7165 2923.2563 755.1822 2923.2563 754.523 C 2923.2563 753.8638 2922.7507 753.3294 2922.127 753.3294 L 2897.6202 753.3294 C 2896.9965 753.3294 2896.491 753.8638 2896.491 754.523 C 2896.491 755.1822 2896.9965 755.7165 2897.6202 755.7165 Z" fill="#0a55a8"/>
              </g>
              <g id="Graphic_52">
                <path d="M 2946.4078 726.2362 L 2891.9735 726.2362 C 2891.3498 726.2362 2890.8442 726.77055 2890.8442 727.4297 L 2890.8442 741.9909 C 2890.8442 742.65005 2891.3498 743.1844 2891.9735 743.1844 L 2946.4078 743.1844 C 2947.0315 743.1844 2947.537 742.65005 2947.537 741.9909 L 2947.537 727.4297 C 2947.537 726.77055 2947.0315 726.2362 2946.4078 726.2362 Z M 2945.2784 740.7973 L 2893.103 740.7973 L 2893.103 728.6233 L 2945.2784 728.6233 Z" fill="#0a55a8"/>
              </g>
              <g id="Graphic_51">
                <path d="M 2939.5188 738.8877 C 2941.6983 738.8877 2943.4715 737.0137 2943.4715 734.7103 C 2943.4715 732.4069 2941.6983 730.5329 2939.5188 730.5329 C 2937.3393 730.5329 2935.566 732.4069 2935.566 734.7103 C 2935.566 737.0137 2937.3393 738.8877 2939.5188 738.8877 Z M 2939.5188 732.92 C 2940.453 732.92 2941.2128 733.7231 2941.2128 734.7103 C 2941.2128 735.6975 2940.453 736.5006 2939.5188 736.5006 C 2938.5847 736.5006 2937.8248 735.6975 2937.8248 734.7103 C 2937.8248 733.7231 2938.5847 732.92 2939.5188 732.92 Z" fill="#0a55a8"/>
              </g>
              <g id="Graphic_50">
                <path d="M 2929.5806 737.8135 C 2931.1996 737.8135 2932.517 736.42135 2932.517 734.7103 C 2932.517 732.99925 2931.1996 731.6071 2929.5806 731.6071 C 2927.9616 731.6071 2926.6443 732.99925 2926.6443 734.7103 C 2926.6443 736.42135 2927.9616 737.8135 2929.5806 737.8135 Z M 2929.5806 733.9942 C 2929.9543 733.9942 2930.2582 734.3154 2930.2582 734.7103 C 2930.2582 735.1052 2929.9543 735.4264 2929.5806 735.4264 C 2929.207 735.4264 2928.903 735.1052 2928.903 734.7103 C 2928.903 734.3154 2929.207 733.9942 2929.5806 733.9942 Z" fill="#0a55a8"/>
              </g>
              <g id="Graphic_49">
                <path d="M 2897.6202 735.9038 L 2914.5603 735.9038 C 2915.184 735.9038 2915.6897 735.3695 2915.6897 734.7103 C 2915.6897 734.0511 2915.184 733.5168 2914.5603 733.5168 L 2897.6202 733.5168 C 2896.9965 733.5168 2896.491 734.0511 2896.491 734.7103 C 2896.491 735.3695 2896.9965 735.9038 2897.6202 735.9038 Z" fill="#0a55a8"/>
              </g>
              <g id="Graphic_48">
                <path d="M 2918.739 735.9038 L 2922.127 735.9038 C 2922.7507 735.9038 2923.2563 735.3695 2923.2563 734.7103 C 2923.2563 734.0511 2922.7507 733.5168 2922.127 733.5168 L 2918.739 733.5168 C 2918.115 733.5168 2917.6096 734.0511 2917.6096 734.7103 C 2917.6096 735.3695 2918.115 735.9038 2918.739 735.9038 Z" fill="#0a55a8"/>
              </g>
            </g>
          </g>
        </g>
      </g>
      <g id="Group_119">
        <g id="Graphic_86">
          <rect x="2890.8442" y="824.0473" width="56.69291" height="56.69291" fill="white"/>
        </g>
        <g id="Group_60">
          <g id="Group_61">
            <g id="Group_62">
              <g id="Graphic_74">
                <path d="M 2939.5188 876.4434 C 2941.6983 876.4434 2943.4715 874.5695 2943.4715 872.2661 C 2943.4715 869.9627 2941.6983 868.0887 2939.5188 868.0887 C 2937.3393 868.0887 2935.566 869.9627 2935.566 872.2661 C 2935.566 874.5695 2937.3393 876.4434 2939.5188 876.4434 Z M 2939.5188 870.4758 C 2940.453 870.4758 2941.2128 871.2789 2941.2128 872.2661 C 2941.2128 873.2532 2940.453 874.0564 2939.5188 874.0564 C 2938.5847 874.0564 2937.8248 873.2532 2937.8248 872.2661 C 2937.8248 871.2789 2938.5847 870.4758 2939.5188 870.4758 Z" fill="#0a55a8"/>
              </g>
              <g id="Graphic_73">
                <path d="M 2929.5806 875.3693 C 2931.1996 875.3693 2932.517 873.9771 2932.517 872.2661 C 2932.517 870.555 2931.1996 869.1629 2929.5806 869.1629 C 2927.9616 869.1629 2926.6443 870.555 2926.6443 872.2661 C 2926.6443 873.9771 2927.9616 875.3693 2929.5806 875.3693 Z M 2929.5806 871.5499 C 2929.9543 871.5499 2930.2582 871.8711 2930.2582 872.2661 C 2930.2582 872.661 2929.9543 872.9822 2929.5806 872.9822 C 2929.207 872.9822 2928.903 872.661 2928.903 872.2661 C 2928.903 871.8711 2929.207 871.5499 2929.5806 871.5499 Z" fill="#0a55a8"/>
              </g>
              <g id="Graphic_72">
                <path d="M 2897.6202 873.4596 L 2922.127 873.4596 C 2922.7507 873.4596 2923.2563 872.9253 2923.2563 872.2661 C 2923.2563 871.6069 2922.7507 871.0725 2922.127 871.0725 L 2897.6202 871.0725 C 2896.9965 871.0725 2896.491 871.6069 2896.491 872.2661 C 2896.491 872.9253 2896.9965 873.4596 2897.6202 873.4596 Z" fill="#0a55a8"/>
              </g>
              <g id="Graphic_71">
                <path d="M 2946.4078 843.8599 L 2942.2292 843.8599 L 2942.2292 843.4241 C 2942.2292 842.7649 2941.7236 842.2305 2941.1 842.2305 C 2940.476 842.2305 2939.9705 842.7649 2939.9705 843.4241 L 2939.9705 843.8599 L 2898.185 843.8599 L 2898.185 843.4241 C 2898.185 842.7649 2897.6793 842.2305 2897.0556 842.2305 C 2896.4318 842.2305 2895.9262 842.7649 2895.9262 843.4241 L 2895.9262 843.8599 L 2891.9735 843.8599 C 2891.3498 843.8599 2890.8442 844.3943 2890.8442 845.0535 L 2890.8442 859.6146 C 2890.8442 860.2738 2891.3498 860.8081 2891.9735 860.8081 L 2895.9262 860.8081 L 2895.9262 863.792 L 2891.9735 863.792 C 2891.3498 863.792 2890.8442 864.3263 2890.8442 864.9855 L 2890.8442 879.5466 C 2890.8442 880.2058 2891.3498 880.7402 2891.9735 880.7402 L 2946.4078 880.7402 C 2947.0315 880.7402 2947.537 880.2058 2947.537 879.5466 L 2947.537 864.9855 C 2947.537 864.3263 2947.0315 863.792 2946.4078 863.792 L 2942.2292 863.792 L 2942.2292 860.8081 L 2946.4078 860.8081 C 2947.0315 860.8081 2947.537 860.2738 2947.537 859.6146 L 2947.537 845.0535 C 2947.537 844.3943 2947.0315 843.8599 2946.4078 843.8599 Z M 2945.2784 866.179 L 2945.2784 878.3531 L 2893.103 878.3531 L 2893.103 866.179 Z M 2898.185 863.792 L 2898.185 860.8081 L 2939.9705 860.8081 L 2939.9705 863.792 Z M 2945.2784 858.4211 L 2893.103 858.4211 L 2893.103 846.247 L 2945.2784 846.247 Z" fill="#0a55a8"/>
              </g>
              <g id="Graphic_70">
                <path d="M 2939.5188 856.5114 C 2941.6983 856.5114 2943.4715 854.6374 2943.4715 852.334 C 2943.4715 850.0306 2941.6983 848.1567 2939.5188 848.1567 C 2937.3393 848.1567 2935.566 850.0306 2935.566 852.334 C 2935.566 854.6374 2937.3393 856.5114 2939.5188 856.5114 Z M 2939.5188 850.5437 C 2940.453 850.5437 2941.2128 851.3469 2941.2128 852.334 C 2941.2128 853.3212 2940.453 854.1243 2939.5188 854.1243 C 2938.5847 854.1243 2937.8248 853.3212 2937.8248 852.334 C 2937.8248 851.3469 2938.5847 850.5437 2939.5188 850.5437 Z" fill="#0a55a8"/>
              </g>
              <g id="Graphic_69">
                <path d="M 2929.5806 855.4372 C 2931.1996 855.4372 2932.517 854.0451 2932.517 852.334 C 2932.517 850.623 2931.1996 849.2308 2929.5806 849.2308 C 2927.9616 849.2308 2926.6443 850.623 2926.6443 852.334 C 2926.6443 854.0451 2927.9616 855.4372 2929.5806 855.4372 Z M 2929.5806 851.6179 C 2929.9543 851.6179 2930.2582 851.9391 2930.2582 852.334 C 2930.2582 852.729 2929.9543 853.0502 2929.5806 853.0502 C 2929.207 853.0502 2928.903 852.729 2928.903 852.334 C 2928.903 851.9391 2929.207 851.6179 2929.5806 851.6179 Z" fill="#0a55a8"/>
              </g>
              <g id="Graphic_68">
                <path d="M 2897.6202 853.5276 L 2922.127 853.5276 C 2922.7507 853.5276 2923.2563 852.9932 2923.2563 852.334 C 2923.2563 851.6748 2922.7507 851.1405 2922.127 851.1405 L 2897.6202 851.1405 C 2896.9965 851.1405 2896.491 851.6748 2896.491 852.334 C 2896.491 852.9932 2896.9965 853.5276 2897.6202 853.5276 Z" fill="#0a55a8"/>
              </g>
              <g id="Graphic_67">
                <path d="M 2946.4078 824.0473 L 2891.9735 824.0473 C 2891.3498 824.0473 2890.8442 824.5816 2890.8442 825.2408 L 2890.8442 839.8019 C 2890.8442 840.4611 2891.3498 840.9954 2891.9735 840.9954 L 2946.4078 840.9954 C 2947.0315 840.9954 2947.537 840.4611 2947.537 839.8019 L 2947.537 825.2408 C 2947.537 824.5816 2947.0315 824.0473 2946.4078 824.0473 Z M 2945.2784 838.6084 L 2893.103 838.6084 L 2893.103 826.4343 L 2945.2784 826.4343 Z" fill="#0a55a8"/>
              </g>
              <g id="Graphic_66">
                <path d="M 2939.5188 836.6987 C 2941.6983 836.6987 2943.4715 834.8248 2943.4715 832.52135 C 2943.4715 830.2179 2941.6983 828.344 2939.5188 828.344 C 2937.3393 828.344 2935.566 830.2179 2935.566 832.52135 C 2935.566 834.8248 2937.3393 836.6987 2939.5188 836.6987 Z M 2939.5188 830.731 C 2940.453 830.731 2941.2128 831.5342 2941.2128 832.52135 C 2941.2128 833.5085 2940.453 834.3117 2939.5188 834.3117 C 2938.5847 834.3117 2937.8248 833.5085 2937.8248 832.52135 C 2937.8248 831.5342 2938.5847 830.731 2939.5188 830.731 Z" fill="#0a55a8"/>
              </g>
              <g id="Graphic_65">
                <path d="M 2929.5806 835.6245 C 2931.1996 835.6245 2932.517 834.2324 2932.517 832.52135 C 2932.517 830.8103 2931.1996 829.4182 2929.5806 829.4182 C 2927.9616 829.4182 2926.6443 830.8103 2926.6443 832.52135 C 2926.6443 834.2324 2927.9616 835.6245 2929.5806 835.6245 Z M 2929.5806 831.8052 C 2929.9543 831.8052 2930.2582 832.1264 2930.2582 832.52135 C 2930.2582 832.9163 2929.9543 833.2375 2929.5806 833.2375 C 2929.207 833.2375 2928.903 832.9163 2928.903 832.52135 C 2928.903 832.1264 2929.207 831.8052 2929.5806 831.8052 Z" fill="#0a55a8"/>
              </g>
              <g id="Graphic_64">
                <path d="M 2897.6202 833.7149 L 2914.5603 833.7149 C 2915.184 833.7149 2915.6897 833.1805 2915.6897 832.52135 C 2915.6897 831.8622 2915.184 831.3278 2914.5603 831.3278 L 2897.6202 831.3278 C 2896.9965 831.3278 2896.491 831.8622 2896.491 832.52135 C 2896.491 833.1805 2896.9965 833.7149 2897.6202 833.7149 Z" fill="#0a55a8"/>
              </g>
              <g id="Graphic_63">
                <path d="M 2918.739 833.7149 L 2922.127 833.7149 C 2922.7507 833.7149 2923.2563 833.1805 2923.2563 832.52135 C 2923.2563 831.8622 2922.7507 831.3278 2922.127 831.3278 L 2918.739 831.3278 C 2918.115 831.3278 2917.6096 831.8622 2917.6096 832.52135 C 2917.6096 833.1805 2918.115 833.7149 2918.739 833.7149 Z" fill="#0a55a8"/>
              </g>
            </g>
          </g>
        </g>
      </g>
      <g id="Group_105">
        <g id="Graphic_83">
          <rect x="2515.4363" y="720.5159" width="56.69291" height="56.69291" fill="white"/>
        </g>
        <g id="Graphic_44">
          <path d="M 2533.631 724.69465 C 2532.588 724.69465 2531.7483 725.7847 2531.7483 727.1385 L 2531.7483 732.1045 C 2531.7483 733.45835 2532.588 734.5484 2533.631 734.5484 L 2553.9344 734.5484 C 2554.9774 734.5484 2555.8172 733.45835 2555.8172 732.1045 L 2555.8172 727.1385 C 2555.8172 725.7847 2554.9774 724.69465 2553.9344 724.69465 Z M 2535.348 727.6469 C 2535.3892 727.6364 2535.425 727.6469 2535.4686 727.6469 L 2540.0775 727.6469 C 2540.4256 727.6469 2540.71 727.9966 2540.71 728.44846 L 2540.71 730.775 C 2540.71 731.2269 2540.4256 731.5962 2540.0775 731.5962 L 2535.4686 731.5962 C 2535.1205 731.5962 2534.836 731.2269 2534.836 730.775 L 2534.836 728.44846 C 2534.836 728.0531 2535.0604 727.72 2535.348 727.6469 Z M 2533.631 738.9083 C 2532.588 738.9083 2531.7483 739.9983 2531.7483 741.35215 L 2531.7483 746.3181 C 2531.7483 747.672 2532.588 748.762 2533.631 748.762 L 2553.9344 748.762 C 2554.9774 748.762 2555.8172 747.672 2555.8172 746.3181 L 2555.8172 741.35215 C 2555.8172 739.9983 2554.9774 738.9083 2553.9344 738.9083 Z M 2535.348 741.8605 C 2535.3892 741.85 2535.425 741.8605 2535.4686 741.8605 L 2540.0775 741.8605 C 2540.4256 741.8605 2540.71 742.2102 2540.71 742.6621 L 2540.71 744.98865 C 2540.71 745.4405 2540.4256 745.8098 2540.0775 745.8098 L 2535.4686 745.8098 C 2535.1205 745.8098 2534.836 745.4405 2534.836 744.98865 L 2534.836 742.6621 C 2534.836 742.2667 2535.0604 741.9336 2535.348 741.8605 Z M 2525.0156 745.0473 L 2515.4363 750.9517 L 2525.0156 756.8561 L 2525.0156 753.7671 L 2528.7962 753.7671 C 2529.3457 753.7671 2529.7902 753.19 2529.7902 752.4767 L 2529.7902 749.4267 C 2529.7902 748.7135 2529.3457 748.1364 2528.7962 748.1364 L 2525.0156 748.1364 Z M 2562.5498 745.0473 L 2562.5498 748.1364 L 2558.7844 748.1364 C 2558.235 748.1364 2557.7903 748.7135 2557.7903 749.4267 L 2557.7903 752.4767 C 2557.7903 753.19 2558.235 753.7671 2558.7844 753.7671 L 2562.5498 753.7671 L 2562.5498 756.8561 L 2572.1292 750.9517 Z M 2533.631 753.1414 C 2532.588 753.1414 2531.7483 754.2315 2531.7483 755.5853 L 2531.7483 760.5513 C 2531.7483 761.9051 2532.588 762.9952 2533.631 762.9952 L 2553.9344 762.9952 C 2554.9774 762.9952 2555.8172 761.9051 2555.8172 760.5513 L 2555.8172 755.5853 C 2555.8172 754.2315 2554.9774 753.1414 2553.9344 753.1414 Z M 2535.348 756.09365 C 2535.3892 756.0832 2535.425 756.09365 2535.4686 756.09365 L 2540.0775 756.09365 C 2540.4256 756.09365 2540.71 756.4434 2540.71 756.8952 L 2540.71 759.2218 C 2540.71 759.6737 2540.4256 760.043 2540.0775 760.043 L 2535.4686 760.043 C 2535.1205 760.043 2534.836 759.6737 2534.836 759.2218 L 2534.836 756.8952 C 2534.836 756.4999 2535.0604 756.1668 2535.348 756.09365 Z M 2533.631 767.3551 C 2532.588 767.3551 2531.7483 768.4451 2531.7483 769.7989 L 2531.7483 774.7649 C 2531.7483 776.1188 2532.588 777.2088 2533.631 777.2088 L 2553.9344 777.2088 C 2554.9774 777.2088 2555.8172 776.1188 2555.8172 774.7649 L 2555.8172 769.7989 C 2555.8172 768.4451 2554.9774 767.3551 2553.9344 767.3551 Z M 2535.348 770.3073 C 2535.3892 770.2968 2535.425 770.3073 2535.4686 770.3073 L 2540.0775 770.3073 C 2540.4256 770.3073 2540.71 770.657 2540.71 771.1089 L 2540.71 773.4354 C 2540.71 773.8873 2540.4256 774.2566 2540.0775 774.2566 L 2535.4686 774.2566 C 2535.1205 774.2566 2534.836 773.8873 2534.836 773.4354 L 2534.836 771.1089 C 2534.836 770.7135 2535.0604 770.3804 2535.348 770.3073 Z" fill="#0a55a8"/>
        </g>
      </g>
      <g id="Group_95">
        <g id="Graphic_97">
          <rect x="2744.93" y="720.5159" width="56.69291" height="56.69291" fill="white"/>
        </g>
        <g id="Graphic_96">
          <path d="M 2763.125 724.69465 C 2762.082 724.69465 2761.242 725.7847 2761.242 727.1385 L 2761.242 732.1045 C 2761.242 733.45835 2762.082 734.5484 2763.125 734.5484 L 2783.4283 734.5484 C 2784.4713 734.5484 2785.311 733.45835 2785.311 732.1045 L 2785.311 727.1385 C 2785.311 725.7847 2784.4713 724.69465 2783.4283 724.69465 Z M 2764.842 727.6469 C 2764.883 727.6364 2764.919 727.6469 2764.9624 727.6469 L 2769.5714 727.6469 C 2769.9195 727.6469 2770.204 727.9966 2770.204 728.44846 L 2770.204 730.775 C 2770.204 731.2269 2769.9195 731.5962 2769.5714 731.5962 L 2764.9624 731.5962 C 2764.6143 731.5962 2764.3298 731.2269 2764.3298 730.775 L 2764.3298 728.44846 C 2764.3298 728.0531 2764.5543 727.72 2764.842 727.6469 Z M 2763.125 738.9083 C 2762.082 738.9083 2761.242 739.9983 2761.242 741.35215 L 2761.242 746.3181 C 2761.242 747.672 2762.082 748.762 2763.125 748.762 L 2783.4283 748.762 C 2784.4713 748.762 2785.311 747.672 2785.311 746.3181 L 2785.311 741.35215 C 2785.311 739.9983 2784.4713 738.9083 2783.4283 738.9083 Z M 2764.842 741.8605 C 2764.883 741.85 2764.919 741.8605 2764.9624 741.8605 L 2769.5714 741.8605 C 2769.9195 741.8605 2770.204 742.2102 2770.204 742.6621 L 2770.204 744.98865 C 2770.204 745.4405 2769.9195 745.8098 2769.5714 745.8098 L 2764.9624 745.8098 C 2764.6143 745.8098 2764.3298 745.4405 2764.3298 744.98865 L 2764.3298 742.6621 C 2764.3298 742.2667 2764.5543 741.9336 2764.842 741.8605 Z M 2754.5095 745.0473 L 2744.93 750.9517 L 2754.5095 756.8561 L 2754.5095 753.7671 L 2758.29 753.7671 C 2758.8395 753.7671 2759.284 753.19 2759.284 752.4767 L 2759.284 749.4267 C 2759.284 748.7135 2758.8395 748.1364 2758.29 748.1364 L 2754.5095 748.1364 Z M 2792.0437 745.0473 L 2792.0437 748.1364 L 2788.2782 748.1364 C 2787.7287 748.1364 2787.284 748.7135 2787.284 749.4267 L 2787.284 752.4767 C 2787.284 753.19 2787.7287 753.7671 2788.2782 753.7671 L 2792.0437 753.7671 L 2792.0437 756.8561 L 2801.623 750.9517 Z M 2763.125 753.1414 C 2762.082 753.1414 2761.242 754.2315 2761.242 755.5853 L 2761.242 760.5513 C 2761.242 761.9051 2762.082 762.9952 2763.125 762.9952 L 2783.4283 762.9952 C 2784.4713 762.9952 2785.311 761.9051 2785.311 760.5513 L 2785.311 755.5853 C 2785.311 754.2315 2784.4713 753.1414 2783.4283 753.1414 Z M 2764.842 756.09365 C 2764.883 756.0832 2764.919 756.09365 2764.9624 756.09365 L 2769.5714 756.09365 C 2769.9195 756.09365 2770.204 756.4434 2770.204 756.8952 L 2770.204 759.2218 C 2770.204 759.6737 2769.9195 760.043 2769.5714 760.043 L 2764.9624 760.043 C 2764.6143 760.043 2764.3298 759.6737 2764.3298 759.2218 L 2764.3298 756.8952 C 2764.3298 756.4999 2764.5543 756.1668 2764.842 756.09365 Z M 2763.125 767.3551 C 2762.082 767.3551 2761.242 768.4451 2761.242 769.7989 L 2761.242 774.7649 C 2761.242 776.1188 2762.082 777.2088 2763.125 777.2088 L 2783.4283 777.2088 C 2784.4713 777.2088 2785.311 776.1188 2785.311 774.7649 L 2785.311 769.7989 C 2785.311 768.4451 2784.4713 767.3551 2783.4283 767.3551 Z M 2764.842 770.3073 C 2764.883 770.2968 2764.919 770.3073 2764.9624 770.3073 L 2769.5714 770.3073 C 2769.9195 770.3073 2770.204 770.657 2770.204 771.1089 L 2770.204 773.4354 C 2770.204 773.8873 2769.9195 774.2566 2769.5714 774.2566 L 2764.9624 774.2566 C 2764.6143 774.2566 2764.3298 773.8873 2764.3298 773.4354 L 2764.3298 771.1089 C 2764.3298 770.7135 2764.5543 770.3804 2764.842 770.3073 Z" fill="#0a55a8"/>
        </g>
      </g>
      <g id="Line_106">
        <path d="M 2425.7056 751.47415 L 2435.7056 751.47415 L 2470.571 751.2129 L 2500.5363 750.9517 L 2505.5363 750.9517" marker-end="url(#FilledArrow_Marker)" stroke="black" stroke-linecap="round" stroke-linejoin="round" stroke-width="1"/>
      </g>
      <g id="Line_107">
        <path d="M 2425.7056 852.3937 L 2470.571 852.3937 L 2470.571 750.9517 L 2505.5363 750.9517" marker-end="url(#FilledArrow_Marker)" stroke="black" stroke-linecap="round" stroke-linejoin="round" stroke-width="1"/>
      </g>
      <g id="Line_108">
        <path d="M 2425.705 649.6946 L 2470.5707 649.6946 L 2470.5707 750.9517 L 2505.5363 750.9517" marker-end="url(#FilledArrow_Marker)" stroke="black" stroke-linecap="round" stroke-linejoin="round" stroke-width="1"/>
      </g>
      <g id="Line_110">
        <path d="M 2572.1292 750.9517 L 2582.1292 750.9517 L 2601.3402 751.2129 L 2615.6512 751.47415 L 2620.6512 751.47415" marker-end="url(#FilledArrow_Marker)" stroke="black" stroke-linecap="round" stroke-linejoin="round" stroke-width="1"/>
      </g>
      <g id="Line_111">
        <path d="M 2687.244 751.47415 L 2697.244 751.47415 L 2716.087 751.2129 L 2730.03 750.9517 L 2735.03 750.9517" marker-end="url(#FilledArrow_Marker)" stroke="black" stroke-linecap="round" stroke-linejoin="round" stroke-width="1"/>
      </g>
      <g id="Line_113">
        <path d="M 2801.623 750.9517 L 2811.623 750.9517 L 2846.2336 751.0688 L 2846.2336 649.6946 L 2880.9442 649.6946" marker-end="url(#FilledArrow_Marker)" stroke="black" stroke-linecap="round" stroke-linejoin="round" stroke-width="1"/>
      </g>
      <g id="Line_115">
        <path d="M 2801.623 750.9517 L 2811.623 750.9517 L 2846.2336 751.0688 L 2875.9442 751.1859 L 2880.9442 751.1859" marker-end="url(#FilledArrow_Marker)" stroke="black" stroke-linecap="round" stroke-linejoin="round" stroke-width="1"/>
      </g>
      <g id="Line_116">
        <path d="M 2801.623 750.9517 L 2811.623 750.9517 L 2846.2336 751.0688 L 2846.2336 852.3937 L 2880.9442 852.3937" marker-end="url(#FilledArrow_Marker)" stroke="black" stroke-linecap="round" stroke-linejoin="round" stroke-width="1"/>
      </g>
      <g id="Group_117">
        <g id="Graphic_87">
          <rect x="2890.8442" y="621.34814" width="56.69291" height="56.69291" fill="white"/>
        </g>
        <g id="Group_29">
          <g id="Group_30">
            <g id="Group_31">
              <g id="Graphic_43">
                <path d="M 2939.5188 673.7443 C 2941.6983 673.7443 2943.4715 671.87036 2943.4715 669.56696 C 2943.4715 667.26355 2941.6983 665.3896 2939.5188 665.3896 C 2937.3393 665.3896 2935.566 667.26355 2935.566 669.56696 C 2935.566 671.87036 2937.3393 673.7443 2939.5188 673.7443 Z M 2939.5188 667.77665 C 2940.453 667.77665 2941.2128 668.5798 2941.2128 669.56696 C 2941.2128 670.5541 2940.453 671.35726 2939.5188 671.35726 C 2938.5847 671.35726 2937.8248 670.5541 2937.8248 669.56696 C 2937.8248 668.5798 2938.5847 667.77665 2939.5188 667.77665 Z" fill="#0a55a8"/>
              </g>
              <g id="Graphic_42">
                <path d="M 2929.5806 672.67015 C 2931.1996 672.67015 2932.517 671.278 2932.517 669.56696 C 2932.517 667.8559 2931.1996 666.4638 2929.5806 666.4638 C 2927.9616 666.4638 2926.6443 667.8559 2926.6443 669.56696 C 2926.6443 671.278 2927.9616 672.67015 2929.5806 672.67015 Z M 2929.5806 668.8508 C 2929.9543 668.8508 2930.2582 669.172 2930.2582 669.56696 C 2930.2582 669.9619 2929.9543 670.2831 2929.5806 670.2831 C 2929.207 670.2831 2928.903 669.9619 2928.903 669.56696 C 2928.903 669.172 2929.207 668.8508 2929.5806 668.8508 Z" fill="#0a55a8"/>
              </g>
              <g id="Graphic_41">
                <path d="M 2897.6202 670.7605 L 2922.127 670.7605 C 2922.7507 670.7605 2923.2563 670.22614 2923.2563 669.56696 C 2923.2563 668.9078 2922.7507 668.3734 2922.127 668.3734 L 2897.6202 668.3734 C 2896.9965 668.3734 2896.491 668.9078 2896.491 669.56696 C 2896.491 670.22614 2896.9965 670.7605 2897.6202 670.7605 Z" fill="#0a55a8"/>
              </g>
              <g id="Graphic_40">
                <path d="M 2946.4078 641.1608 L 2942.2292 641.1608 L 2942.2292 640.72494 C 2942.2292 640.06575 2941.7236 639.5314 2941.1 639.5314 C 2940.476 639.5314 2939.9705 640.06575 2939.9705 640.72494 L 2939.9705 641.1608 L 2898.185 641.1608 L 2898.185 640.72494 C 2898.185 640.06575 2897.6793 639.5314 2897.0556 639.5314 C 2896.4318 639.5314 2895.9262 640.06575 2895.9262 640.72494 L 2895.9262 641.1608 L 2891.9735 641.1608 C 2891.3498 641.1608 2890.8442 641.6952 2890.8442 642.35436 L 2890.8442 656.9155 C 2890.8442 657.5747 2891.3498 658.109 2891.9735 658.109 L 2895.9262 658.109 L 2895.9262 661.09286 L 2891.9735 661.09286 C 2891.3498 661.09286 2890.8442 661.6272 2890.8442 662.2864 L 2890.8442 676.8475 C 2890.8442 677.5067 2891.3498 678.04105 2891.9735 678.04105 L 2946.4078 678.04105 C 2947.0315 678.04105 2947.537 677.5067 2947.537 676.8475 L 2947.537 662.2864 C 2947.537 661.6272 2947.0315 661.09286 2946.4078 661.09286 L 2942.2292 661.09286 L 2942.2292 658.109 L 2946.4078 658.109 C 2947.0315 658.109 2947.537 657.5747 2947.537 656.9155 L 2947.537 642.35436 C 2947.537 641.6952 2947.0315 641.1608 2946.4078 641.1608 Z M 2945.2784 663.4799 L 2945.2784 675.654 L 2893.103 675.654 L 2893.103 663.4799 Z M 2898.185 661.09286 L 2898.185 658.109 L 2939.9705 658.109 L 2939.9705 661.09286 Z M 2945.2784 655.72195 L 2893.103 655.72195 L 2893.103 643.5479 L 2945.2784 643.5479 Z" fill="#0a55a8"/>
              </g>
              <g id="Graphic_39">
                <path d="M 2939.5188 653.8123 C 2941.6983 653.8123 2943.4715 651.9383 2943.4715 649.6349 C 2943.4715 647.3315 2941.6983 645.45755 2939.5188 645.45755 C 2937.3393 645.45755 2935.566 647.3315 2935.566 649.6349 C 2935.566 651.9383 2937.3393 653.8123 2939.5188 653.8123 Z M 2939.5188 647.8446 C 2940.453 647.8446 2941.2128 648.64775 2941.2128 649.6349 C 2941.2128 650.6221 2940.453 651.4252 2939.5188 651.4252 C 2938.5847 651.4252 2937.8248 650.6221 2937.8248 649.6349 C 2937.8248 648.64775 2938.5847 647.8446 2939.5188 647.8446 Z" fill="#0a55a8"/>
              </g>
              <g id="Graphic_38">
                <path d="M 2929.5806 652.7381 C 2931.1996 652.7381 2932.517 651.346 2932.517 649.6349 C 2932.517 647.9239 2931.1996 646.5317 2929.5806 646.5317 C 2927.9616 646.5317 2926.6443 647.9239 2926.6443 649.6349 C 2926.6443 651.346 2927.9616 652.7381 2929.5806 652.7381 Z M 2929.5806 648.9188 C 2929.9543 648.9188 2930.2582 649.24 2930.2582 649.6349 C 2930.2582 650.0299 2929.9543 650.35104 2929.5806 650.35104 C 2929.207 650.35104 2928.903 650.0299 2928.903 649.6349 C 2928.903 649.24 2929.207 648.9188 2929.5806 648.9188 Z" fill="#0a55a8"/>
              </g>
              <g id="Graphic_37">
                <path d="M 2897.6202 650.82846 L 2922.127 650.82846 C 2922.7507 650.82846 2923.2563 650.2941 2923.2563 649.6349 C 2923.2563 648.9757 2922.7507 648.4414 2922.127 648.4414 L 2897.6202 648.4414 C 2896.9965 648.4414 2896.491 648.9757 2896.491 649.6349 C 2896.491 650.2941 2896.9965 650.82846 2897.6202 650.82846 Z" fill="#0a55a8"/>
              </g>
              <g id="Graphic_36">
                <path d="M 2946.4078 621.34814 L 2891.9735 621.34814 C 2891.3498 621.34814 2890.8442 621.8825 2890.8442 622.5417 L 2890.8442 637.1028 C 2890.8442 637.762 2891.3498 638.2963 2891.9735 638.2963 L 2946.4078 638.2963 C 2947.0315 638.2963 2947.537 637.762 2947.537 637.1028 L 2947.537 622.5417 C 2947.537 621.8825 2947.0315 621.34814 2946.4078 621.34814 Z M 2945.2784 635.9093 L 2893.103 635.9093 L 2893.103 623.7352 L 2945.2784 623.7352 Z" fill="#0a55a8"/>
              </g>
              <g id="Graphic_35">
                <path d="M 2939.5188 633.9996 C 2941.6983 633.9996 2943.4715 632.12564 2943.4715 629.82224 C 2943.4715 627.5188 2941.6983 625.6449 2939.5188 625.6449 C 2937.3393 625.6449 2935.566 627.5188 2935.566 629.82224 C 2935.566 632.12564 2937.3393 633.9996 2939.5188 633.9996 Z M 2939.5188 628.0319 C 2940.453 628.0319 2941.2128 628.8351 2941.2128 629.82224 C 2941.2128 630.8094 2940.453 631.61254 2939.5188 631.61254 C 2938.5847 631.61254 2937.8248 630.8094 2937.8248 629.82224 C 2937.8248 628.8351 2938.5847 628.0319 2939.5188 628.0319 Z" fill="#0a55a8"/>
              </g>
              <g id="Graphic_34">
                <path d="M 2929.5806 632.9254 C 2931.1996 632.9254 2932.517 631.5333 2932.517 629.82224 C 2932.517 628.1112 2931.1996 626.71905 2929.5806 626.71905 C 2927.9616 626.71905 2926.6443 628.1112 2926.6443 629.82224 C 2926.6443 631.5333 2927.9616 632.9254 2929.5806 632.9254 Z M 2929.5806 629.1061 C 2929.9543 629.1061 2930.2582 629.4273 2930.2582 629.82224 C 2930.2582 630.2172 2929.9543 630.53836 2929.5806 630.53836 C 2929.207 630.53836 2928.903 630.2172 2928.903 629.82224 C 2928.903 629.4273 2929.207 629.1061 2929.5806 629.1061 Z" fill="#0a55a8"/>
              </g>
              <g id="Graphic_33">
                <path d="M 2897.6202 631.0158 L 2914.5603 631.0158 C 2915.184 631.0158 2915.6897 630.4814 2915.6897 629.82224 C 2915.6897 629.16305 2915.184 628.6287 2914.5603 628.6287 L 2897.6202 628.6287 C 2896.9965 628.6287 2896.491 629.16305 2896.491 629.82224 C 2896.491 630.4814 2896.9965 631.0158 2897.6202 631.0158 Z" fill="#0a55a8"/>
              </g>
              <g id="Graphic_32">
                <path d="M 2918.739 631.0158 L 2922.127 631.0158 C 2922.7507 631.0158 2923.2563 630.4814 2923.2563 629.82224 C 2923.2563 629.16305 2922.7507 628.6287 2922.127 628.6287 L 2918.739 628.6287 C 2918.115 628.6287 2917.6096 629.16305 2917.6096 629.82224 C 2917.6096 630.4814 2918.115 631.0158 2918.739 631.0158 Z" fill="#0a55a8"/>
              </g>
            </g>
          </g>
        </g>
      </g>
      <g id="Graphic_120">
        <text transform="translate(2491.3507 784.8206)" fill="black">
          <tspan font-family="Helvetica Neue" font-size="16" fill="black" x="68922645e-20" y="15">Forword Proxy</tspan>
        </text>
      </g>
      <g id="Graphic_121">
        <text transform="translate(2721.5806 782.2088)" fill="black">
          <tspan font-family="Helvetica Neue" font-size="16" fill="black" x="0" y="15">Reverse Proxy</tspan>
        </text>
      </g>
      <g id="Graphic_122">
        <text transform="translate(2631.4897 784.8206)" fill="black">
          <tspan font-family="Helvetica Neue" font-size="16" fill="black" x="0" y="15">Internet</tspan>
        </text>
      </g>
      <g id="Graphic_123">
        <text transform="translate(2372.767 892.2441)" fill="black">
          <tspan font-family="Helvetica Neue" font-size="16" fill="black" x="55422333e-20" y="15">Clients</tspan>
        </text>
      </g>
      <g id="Graphic_124">
        <text transform="translate(2892.0866 892.2441)" fill="black">
          <tspan font-family="Helvetica Neue" font-size="16" fill="black" x="0" y="15">Servers</tspan>
        </text>
      </g>
    </g>
  </g>
</svg>
