<?xml version="1.0" encoding="UTF-8" standalone="no"?>
<!DOCTYPE svg PUBLIC "-//W3C//DTD SVG 1.1//EN" "http://www.w3.org/Graphics/SVG/1.1/DTD/svg11.dtd">
<svg version="1.1" xmlns:xl="http://www.w3.org/1999/xlink" xmlns="http://www.w3.org/2000/svg" xmlns:dc="http://purl.org/dc/elements/1.1/" viewBox="2524 889 616 350" width="616" height="350">
  <defs>
    <marker orient="auto" overflow="visible" markerUnits="strokeWidth" id="FilledArrow_Marker" stroke-linejoin="miter" stroke-miterlimit="10" viewBox="-1 -4 10 8" markerWidth="10" markerHeight="8" color="black">
      <g>
        <path d="M 8 0 L 0 -3 L 0 3 Z" fill="currentColor" stroke="currentColor" stroke-width="1"/>
      </g>
    </marker>
  </defs>
  <g id="Canvas__________" fill-opacity="1" fill="none" stroke-opacity="1" stroke="none" stroke-dasharray="none">
    <title>代理类别（透明非透明）</title>
    <rect fill="white" x="2524" y="889" width="616" height="350"/>
    <g id="Canvas___________Layer_1">
      <title>Layer 1</title>
      <g id="Graphic_153">
        <rect x="2524.252" y="889.4339" width="615.1181" height="349.3063" fill="white"/>
      </g>
      <g id="Graphic_110">
        <rect x="2529.9213" y="919.8425" width="609.4488" height="140.31496" fill="white"/>
      </g>
      <g id="Group_75">
        <g id="Graphic_82">
          <rect x="2554.0166" y="939.5384" width="85.03855" height="83.76865" fill="white"/>
        </g>
        <g id="Group_76">
          <g id="Group_77">
            <g id="Graphic_81">
              <rect x="2571.9672" y="1016.0504" width="49.13571" height="5.985925" fill="#0a55a8"/>
            </g>
            <g id="Graphic_80">
              <rect x="2578.9144" y="1001.3" width="35.171556" height="11.371542" fill="#0a55a8"/>
            </g>
            <g id="Graphic_79">
              <path d="M 2554.0158 938.2677 L 2554.0158 997.9726 L 2639.0543 997.9726 L 2639.0543 938.2677 Z M 2634.4054 991.6608 C 2634.4054 992.587 2633.6567 993.3245 2632.7165 993.3245 L 2560.3536 993.3245 C 2559.4134 993.3245 2558.6647 992.587 2558.6647 991.6608 L 2558.6647 944.5795 C 2558.6647 943.6533 2559.4134 942.9158 2560.3536 942.9158 L 2632.7165 942.9158 C 2633.6567 942.9158 2634.4054 943.6533 2634.4054 944.5795 Z" fill="#0a55a8"/>
            </g>
            <g id="Graphic_78">
              <path d="M 2562.0425 989.9971 L 2631.0275 989.9971 L 2631.0275 946.2432 L 2562.0425 946.2432 Z M 2607.9397 971.5762 C 2607.9397 971.2503 2608.1486 970.9759 2608.4098 970.8387 L 2617.934 966.5165 L 2608.4098 962.2629 C 2608.1312 962.1257 2607.9397 961.8684 2607.9397 961.5254 L 2607.9397 958.1636 C 2607.9397 957.5976 2608.5317 957.2374 2609.0366 957.4776 L 2623.3838 964.0467 C 2623.6624 964.1839 2623.854 964.4411 2623.854 964.7842 L 2623.854 968.5061 C 2623.854 968.832 2623.645 969.1064 2623.3838 969.2436 L 2609.0366 975.7441 C 2608.5143 975.9842 2607.9223 975.6069 2607.9223 975.0409 L 2607.9223 971.5762 L 2607.9397 971.5762 Z M 2586.8368 981.6957 L 2600.0348 953.8243 C 2600.174 953.5498 2600.4353 953.3612 2600.7835 953.3612 L 2603.7783 953.3612 C 2604.3877 953.3612 2604.8056 953.9958 2604.5444 954.5446 L 2591.329 982.4161 C 2591.1897 982.6905 2590.9285 982.8792 2590.5803 982.8792 L 2587.5855 982.8792 C 2586.9935 982.8792 2586.5756 982.2445 2586.8368 981.6957 Z M 2569.2684 964.8013 C 2569.2684 964.4754 2569.4773 964.201 2569.7385 964.0638 L 2584.103 957.4947 C 2584.608 957.2546 2585.2 957.6319 2585.2 958.1808 L 2585.2 961.6111 C 2585.2 961.937 2584.991 962.2114 2584.73 962.3486 L 2575.2058 966.6022 L 2584.73 970.9245 C 2585.0085 971.0617 2585.2 971.319 2585.2 971.662 L 2585.2 975.1609 C 2585.2 975.7098 2584.6255 976.0871 2584.103 975.847 L 2569.7385 969.3465 C 2569.46 969.2093 2569.2684 968.952 2569.2684 968.609 Z" fill="#0a55a8"/>
            </g>
          </g>
        </g>
      </g>
      <g id="Group_105">
        <g id="Graphic_71">
          <rect x="3013.465" y="943.684" width="85.03937" height="74.84901" fill="white"/>
        </g>
        <g id="Group_56">
          <g id="Group_57">
            <g id="Group_58">
              <g id="Graphic_70">
                <path d="M 3086.4768 1013.9103 C 3089.746 1013.9103 3092.406 1011.0994 3092.406 1007.6443 C 3092.406 1004.1892 3089.746 1001.3782 3086.4768 1001.3782 C 3083.2075 1001.3782 3080.5478 1004.1892 3080.5478 1007.6443 C 3080.5478 1011.0994 3083.2075 1013.9103 3086.4768 1013.9103 Z M 3086.4768 1004.9588 C 3087.878 1004.9588 3089.0178 1006.1635 3089.0178 1007.6443 C 3089.0178 1009.125 3087.878 1010.3297 3086.4768 1010.3297 C 3085.0757 1010.3297 3083.9358 1009.125 3083.9358 1007.6443 C 3083.9358 1006.1635 3085.0757 1004.9588 3086.4768 1004.9588 Z" fill="#0a55a8"/>
              </g>
              <g id="Graphic_69">
                <path d="M 3071.5695 1012.299 C 3073.998 1012.299 3075.974 1010.2108 3075.974 1007.6443 C 3075.974 1005.0777 3073.998 1002.9895 3071.5695 1002.9895 C 3069.141 1002.9895 3067.165 1005.0777 3067.165 1007.6443 C 3067.165 1010.2108 3069.141 1012.299 3071.5695 1012.299 Z M 3071.5695 1006.5701 C 3072.13 1006.5701 3072.586 1007.0518 3072.586 1007.6443 C 3072.586 1008.2367 3072.13 1008.7184 3071.5695 1008.7184 C 3071.009 1008.7184 3070.553 1008.2367 3070.553 1007.6443 C 3070.553 1007.0518 3071.009 1006.5701 3071.5695 1006.5701 Z" fill="#0a55a8"/>
              </g>
              <g id="Graphic_68">
                <path d="M 3023.629 1009.4346 L 3060.389 1009.4346 C 3061.3246 1009.4346 3062.083 1008.633 3062.083 1007.6443 C 3062.083 1006.6555 3061.3246 1005.854 3060.389 1005.854 L 3023.629 1005.854 C 3022.6934 1005.854 3021.935 1006.6555 3021.935 1007.6443 C 3021.935 1008.633 3022.6934 1009.4346 3023.629 1009.4346 Z" fill="#0a55a8"/>
              </g>
              <g id="Graphic_67">
                <path d="M 3096.8103 965.0351 L 3090.5424 965.0351 L 3090.5424 964.3812 C 3090.5424 963.3925 3089.784 962.5909 3088.8484 962.5909 C 3087.9128 962.5909 3087.1544 963.3925 3087.1544 964.3812 L 3087.1544 965.0351 L 3024.476 965.0351 L 3024.476 964.3812 C 3024.476 963.3925 3023.7176 962.5909 3022.782 962.5909 C 3021.8464 962.5909 3021.088 963.3925 3021.088 964.3812 L 3021.088 965.0351 L 3015.159 965.0351 C 3014.2233 965.0351 3013.465 965.8366 3013.465 966.8254 L 3013.465 988.667 C 3013.465 989.6558 3014.2233 990.4574 3015.159 990.4574 L 3021.088 990.4574 L 3021.088 994.9331 L 3015.159 994.9331 C 3014.2233 994.9331 3013.465 995.7346 3013.465 996.7234 L 3013.465 1018.5651 C 3013.465 1019.5539 3014.2233 1020.3554 3015.159 1020.3554 L 3096.8103 1020.3554 C 3097.746 1020.3554 3098.5043 1019.5539 3098.5043 1018.5651 L 3098.5043 996.7234 C 3098.5043 995.7346 3097.746 994.9331 3096.8103 994.9331 L 3090.5424 994.9331 L 3090.5424 990.4574 L 3096.8103 990.4574 C 3097.746 990.4574 3098.5043 989.6558 3098.5043 988.667 L 3098.5043 966.8254 C 3098.5043 965.8366 3097.746 965.0351 3096.8103 965.0351 Z M 3095.1163 998.5137 L 3095.1163 1016.7748 L 3016.853 1016.7748 L 3016.853 998.5137 Z M 3024.476 994.9331 L 3024.476 990.4574 L 3087.1544 990.4574 L 3087.1544 994.9331 Z M 3095.1163 986.8768 L 3016.853 986.8768 L 3016.853 968.6157 L 3095.1163 968.6157 Z" fill="#0a55a8"/>
              </g>
              <g id="Graphic_66">
                <path d="M 3086.4768 984.0123 C 3089.746 984.0123 3092.406 981.2013 3092.406 977.7462 C 3092.406 974.2911 3089.746 971.4802 3086.4768 971.4802 C 3083.2075 971.4802 3080.5478 974.2911 3080.5478 977.7462 C 3080.5478 981.2013 3083.2075 984.0123 3086.4768 984.0123 Z M 3086.4768 975.0608 C 3087.878 975.0608 3089.0178 976.2654 3089.0178 977.7462 C 3089.0178 979.227 3087.878 980.4317 3086.4768 980.4317 C 3085.0757 980.4317 3083.9358 979.227 3083.9358 977.7462 C 3083.9358 976.2654 3085.0757 975.0608 3086.4768 975.0608 Z" fill="#0a55a8"/>
              </g>
              <g id="Graphic_65">
                <path d="M 3071.5695 982.401 C 3073.998 982.401 3075.974 980.3128 3075.974 977.7462 C 3075.974 975.1796 3073.998 973.0914 3071.5695 973.0914 C 3069.141 973.0914 3067.165 975.1796 3067.165 977.7462 C 3067.165 980.3128 3069.141 982.401 3071.5695 982.401 Z M 3071.5695 976.672 C 3072.13 976.672 3072.586 977.1538 3072.586 977.7462 C 3072.586 978.3386 3072.13 978.8204 3071.5695 978.8204 C 3071.009 978.8204 3070.553 978.3386 3070.553 977.7462 C 3070.553 977.1538 3071.009 976.672 3071.5695 976.672 Z" fill="#0a55a8"/>
              </g>
              <g id="Graphic_64">
                <path d="M 3023.629 979.5365 L 3060.389 979.5365 C 3061.3246 979.5365 3062.083 978.735 3062.083 977.7462 C 3062.083 976.7574 3061.3246 975.9559 3060.389 975.9559 L 3023.629 975.9559 C 3022.6934 975.9559 3021.935 976.7574 3021.935 977.7462 C 3021.935 978.735 3022.6934 979.5365 3023.629 979.5365 Z" fill="#0a55a8"/>
              </g>
              <g id="Graphic_63">
                <path d="M 3096.8103 935.316 L 3015.159 935.316 C 3014.2233 935.316 3013.465 936.1176 3013.465 937.1063 L 3013.465 958.948 C 3013.465 959.9368 3014.2233 960.7383 3015.159 960.7383 L 3096.8103 960.7383 C 3097.746 960.7383 3098.5043 959.9368 3098.5043 958.948 L 3098.5043 937.1063 C 3098.5043 936.1176 3097.746 935.316 3096.8103 935.316 Z M 3095.1163 957.1577 L 3016.853 957.1577 L 3016.853 938.8966 L 3095.1163 938.8966 Z" fill="#0a55a8"/>
              </g>
              <g id="Graphic_62">
                <path d="M 3086.4768 954.2932 C 3089.746 954.2932 3092.406 951.4823 3092.406 948.0272 C 3092.406 944.5721 3089.746 941.7611 3086.4768 941.7611 C 3083.2075 941.7611 3080.5478 944.5721 3080.5478 948.0272 C 3080.5478 951.4823 3083.2075 954.2932 3086.4768 954.2932 Z M 3086.4768 945.3417 C 3087.878 945.3417 3089.0178 946.5464 3089.0178 948.0272 C 3089.0178 949.508 3087.878 950.7126 3086.4768 950.7126 C 3085.0757 950.7126 3083.9358 949.508 3083.9358 948.0272 C 3083.9358 946.5464 3085.0757 945.3417 3086.4768 945.3417 Z" fill="#0a55a8"/>
              </g>
              <g id="Graphic_61">
                <path d="M 3071.5695 952.682 C 3073.998 952.682 3075.974 950.5938 3075.974 948.0272 C 3075.974 945.4606 3073.998 943.3724 3071.5695 943.3724 C 3069.141 943.3724 3067.165 945.4606 3067.165 948.0272 C 3067.165 950.5938 3069.141 952.682 3071.5695 952.682 Z M 3071.5695 946.953 C 3072.13 946.953 3072.586 947.4348 3072.586 948.0272 C 3072.586 948.6196 3072.13 949.1014 3071.5695 949.1014 C 3071.009 949.1014 3070.553 948.6196 3070.553 948.0272 C 3070.553 947.4348 3071.009 946.953 3071.5695 946.953 Z" fill="#0a55a8"/>
              </g>
              <g id="Graphic_60">
                <path d="M 3023.629 949.8175 L 3049.039 949.8175 C 3049.9747 949.8175 3050.733 949.016 3050.733 948.0272 C 3050.733 947.0384 3049.9747 946.2369 3049.039 946.2369 L 3023.629 946.2369 C 3022.6934 946.2369 3021.935 947.0384 3021.935 948.0272 C 3021.935 949.016 3022.6934 949.8175 3023.629 949.8175 Z" fill="#0a55a8"/>
              </g>
              <g id="Graphic_59">
                <path d="M 3055.307 949.8175 L 3060.389 949.8175 C 3061.3246 949.8175 3062.083 949.016 3062.083 948.0272 C 3062.083 947.0384 3061.3246 946.2369 3060.389 946.2369 L 3055.307 946.2369 C 3054.3714 946.2369 3053.613 947.0384 3053.613 948.0272 C 3053.613 949.016 3054.3714 949.8175 3055.307 949.8175 Z" fill="#0a55a8"/>
              </g>
            </g>
          </g>
        </g>
      </g>
      <g id="Group_35">
        <g id="Graphic_37">
          <rect x="2792.126" y="935.316" width="85.03937" height="85.03937" fill="white"/>
        </g>
        <g id="Graphic_36">
          <path d="M 2819.418 941.5842 C 2817.8537 941.5842 2816.594 943.2193 2816.594 945.25 L 2816.594 952.699 C 2816.594 954.7297 2817.8537 956.3648 2819.418 956.3648 L 2849.8733 956.3648 C 2851.4377 956.3648 2852.6974 954.7297 2852.6974 952.699 L 2852.6974 945.25 C 2852.6974 943.2193 2851.4377 941.5842 2849.8733 941.5842 Z M 2821.9937 946.0125 C 2822.0554 945.9968 2822.1092 946.0125 2822.1745 946.0125 L 2829.088 946.0125 C 2829.61 946.0125 2830.0368 946.5371 2830.0368 947.2149 L 2830.0368 950.7048 C 2830.0368 951.3825 2829.61 951.9365 2829.088 951.9365 L 2822.1745 951.9365 C 2821.6523 951.9365 2821.2256 951.3825 2821.2256 950.7048 L 2821.2256 947.2149 C 2821.2256 946.6219 2821.5622 946.1222 2821.9937 946.0125 Z M 2819.418 962.9046 C 2817.8537 962.9046 2816.594 964.5397 2816.594 966.5705 L 2816.594 974.0194 C 2816.594 976.0502 2817.8537 977.6852 2819.418 977.6852 L 2849.8733 977.6852 C 2851.4377 977.6852 2852.6974 976.0502 2852.6974 974.0194 L 2852.6974 966.5705 C 2852.6974 964.5397 2851.4377 962.9046 2849.8733 962.9046 Z M 2821.9937 967.333 C 2822.0554 967.3173 2822.1092 967.333 2822.1745 967.333 L 2829.088 967.333 C 2829.61 967.333 2830.0368 967.8576 2830.0368 968.5353 L 2830.0368 972.0252 C 2830.0368 972.703 2829.61 973.2569 2829.088 973.2569 L 2822.1745 973.2569 C 2821.6523 973.2569 2821.2256 972.703 2821.2256 972.0252 L 2821.2256 968.5353 C 2821.2256 967.9423 2821.5622 967.4426 2821.9937 967.333 Z M 2806.495 972.1132 L 2792.126 980.9698 L 2806.495 989.8264 L 2806.495 985.1928 L 2812.166 985.1928 C 2812.99 985.1928 2813.657 984.3272 2813.657 983.2573 L 2813.657 978.6823 C 2813.657 977.6124 2812.99 976.7468 2812.166 976.7468 L 2806.495 976.7468 Z M 2862.7963 972.1132 L 2862.7963 976.7468 L 2857.148 976.7468 C 2856.324 976.7468 2855.657 977.6124 2855.657 978.6823 L 2855.657 983.2573 C 2855.657 984.3272 2856.324 985.1928 2857.148 985.1928 L 2862.7963 985.1928 L 2862.7963 989.8264 L 2877.1654 980.9698 Z M 2819.418 984.2544 C 2817.8537 984.2544 2816.594 985.8894 2816.594 987.9202 L 2816.594 995.3692 C 2816.594 997.3999 2817.8537 999.035 2819.418 999.035 L 2849.8733 999.035 C 2851.4377 999.035 2852.6974 997.3999 2852.6974 995.3692 L 2852.6974 987.9202 C 2852.6974 985.8894 2851.4377 984.2544 2849.8733 984.2544 Z M 2821.9937 988.6827 C 2822.0554 988.667 2822.1092 988.6827 2822.1745 988.6827 L 2829.088 988.6827 C 2829.61 988.6827 2830.0368 989.2073 2830.0368 989.8851 L 2830.0368 993.375 C 2830.0368 994.0527 2829.61 994.6067 2829.088 994.6067 L 2822.1745 994.6067 C 2821.6523 994.6067 2821.2256 994.0527 2821.2256 993.375 L 2821.2256 989.8851 C 2821.2256 989.292 2821.5622 988.7924 2821.9937 988.6827 Z M 2819.418 1005.5748 C 2817.8537 1005.5748 2816.594 1007.2099 2816.594 1009.2406 L 2816.594 1016.6896 C 2816.594 1018.7204 2817.8537 1020.3554 2819.418 1020.3554 L 2849.8733 1020.3554 C 2851.4377 1020.3554 2852.6974 1018.7204 2852.6974 1016.6896 L 2852.6974 1009.2406 C 2852.6974 1007.2099 2851.4377 1005.5748 2849.8733 1005.5748 Z M 2821.9937 1010.0031 C 2822.0554 1009.9875 2822.1092 1010.0031 2822.1745 1010.0031 L 2829.088 1010.0031 C 2829.61 1010.0031 2830.0368 1010.5277 2830.0368 1011.2055 L 2830.0368 1014.6954 C 2830.0368 1015.3731 2829.61 1015.9271 2829.088 1015.9271 L 2822.1745 1015.9271 C 2821.6523 1015.9271 2821.2256 1015.3731 2821.2256 1014.6954 L 2821.2256 1011.2055 C 2821.2256 1010.6125 2821.5622 1010.1128 2821.9937 1010.0031 Z" fill="#0a55a8"/>
        </g>
      </g>
      <g id="Line_31">
        <path d="M 2639.055 981.4228 L 2649.055 981.4228 L 2715.5906 981.1963 L 2777.226 980.9698 L 2782.226 980.9698" marker-end="url(#FilledArrow_Marker)" stroke="black" stroke-linecap="round" stroke-linejoin="round" stroke-width="1"/>
      </g>
      <g id="Graphic_6">
        <text transform="translate(2898.8372 938.6394)" fill="black">
          <tspan font-family="Helvetica Neue" font-size="16" fill="black" x="0" y="15">SRC IP: B</tspan>
          <tspan font-family="Helvetica Neue" font-size="16" fill="black" x=".736" y="33.448">DST IP: C</tspan>
        </text>
      </g>
      <g id="Graphic_3">
        <text transform="translate(2581.8715 1024.0551)" fill="black">
          <tspan font-family="Helvetica Neue" font-size="16" fill="black" x="6679102e-19" y="15">IP A</tspan>
        </text>
      </g>
      <g id="Graphic_2">
        <text transform="translate(3040.7286 1024.0551)" fill="black">
          <tspan font-family="Helvetica Neue" font-size="16" fill="black" x="0" y="15">IP C</tspan>
        </text>
      </g>
      <g id="Graphic_100">
        <text transform="translate(2685.5896 938.6394)" fill="black">
          <tspan font-family="Helvetica Neue" font-size="16" fill="black" x="0" y="15">SRC IP: A</tspan>
          <tspan font-family="Helvetica Neue" font-size="16" fill="#0a55a8" x=".736" y="33.448">DST IP: B</tspan>
        </text>
      </g>
      <g id="Graphic_101">
        <text transform="translate(2819.6857 1024.0551)" fill="black">
          <tspan font-family="Helvetica Neue" font-size="16" fill="black" x="0" y="15">IP B</tspan>
        </text>
      </g>
      <g id="Line_103">
        <path d="M 2877.1654 980.9698 L 2887.1654 980.9698 L 2945.315 981.0391 L 2998.565 981.1085 L 3003.565 981.1085" marker-end="url(#FilledArrow_Marker)" stroke="black" stroke-linecap="round" stroke-linejoin="round" stroke-width="1"/>
      </g>
      <g id="Line_106">
        <line x1="3011.811" y1="994.9606" x2="2878.4793" y2="994.9606" marker-end="url(#FilledArrow_Marker)" stroke="black" stroke-linecap="round" stroke-linejoin="round" stroke-width="1"/>
      </g>
      <g id="Line_107">
        <line x1="2800.63" y1="994.9606" x2="2651.553" y2="994.9606" marker-end="url(#FilledArrow_Marker)" stroke="black" stroke-linecap="round" stroke-linejoin="round" stroke-width="1"/>
      </g>
      <g id="Graphic_108">
        <text transform="translate(2898.0667 1000.4812)" fill="black">
          <tspan font-family="Helvetica Neue" font-size="16" fill="black" x="22737368e-20" y="15">SRC IP: C</tspan>
          <tspan font-family="Helvetica Neue" font-size="16" fill="black" x="1.328" y="33.448">DST IP: B</tspan>
        </text>
      </g>
      <g id="Graphic_109">
        <text transform="translate(2685.6514 1000.4812)" fill="#0a55a8">
          <tspan font-family="Helvetica Neue" font-size="16" fill="#0a55a8" x="0" y="15">SRC IP: B</tspan>
          <tspan font-family="Helvetica Neue" font-size="16" fill="black" x="1.328" y="33.448">DST IP: A</tspan>
        </text>
      </g>
      <g id="Graphic_150">
        <rect x="2529.9213" y="1098.4252" width="609.4488" height="140.31496" fill="white"/>
      </g>
      <g id="Group_142">
        <g id="Graphic_149">
          <rect x="2554.0166" y="1118.1211" width="85.03855" height="83.76865" fill="white"/>
        </g>
        <g id="Group_143">
          <g id="Group_144">
            <g id="Graphic_148">
              <rect x="2571.9672" y="1194.6331" width="49.13571" height="5.985925" fill="#0a55a8"/>
            </g>
            <g id="Graphic_147">
              <rect x="2578.9144" y="1179.8827" width="35.171556" height="11.371542" fill="#0a55a8"/>
            </g>
            <g id="Graphic_146">
              <path d="M 2554.0158 1116.8504 L 2554.0158 1176.5553 L 2639.0543 1176.5553 L 2639.0543 1116.8504 Z M 2634.4054 1170.2435 C 2634.4054 1171.1697 2633.6567 1171.9072 2632.7165 1171.9072 L 2560.3536 1171.9072 C 2559.4134 1171.9072 2558.6647 1171.1697 2558.6647 1170.2435 L 2558.6647 1123.1622 C 2558.6647 1122.236 2559.4134 1121.4985 2560.3536 1121.4985 L 2632.7165 1121.4985 C 2633.6567 1121.4985 2634.4054 1122.236 2634.4054 1123.1622 Z" fill="#0a55a8"/>
            </g>
            <g id="Graphic_145">
              <path d="M 2562.0425 1168.5798 L 2631.0275 1168.5798 L 2631.0275 1124.8259 L 2562.0425 1124.8259 Z M 2607.9397 1150.1589 C 2607.9397 1149.833 2608.1486 1149.5586 2608.4098 1149.4214 L 2617.934 1145.0992 L 2608.4098 1140.8456 C 2608.1312 1140.7083 2607.9397 1140.4511 2607.9397 1140.108 L 2607.9397 1136.7463 C 2607.9397 1136.1803 2608.5317 1135.8201 2609.0366 1136.0602 L 2623.3838 1142.6293 C 2623.6624 1142.7665 2623.854 1143.0238 2623.854 1143.3669 L 2623.854 1147.0888 C 2623.854 1147.4146 2623.645 1147.689 2623.3838 1147.8263 L 2609.0366 1154.3268 C 2608.5143 1154.5669 2607.9223 1154.1895 2607.9223 1153.6235 L 2607.9223 1150.1589 L 2607.9397 1150.1589 Z M 2586.8368 1160.2784 L 2600.0348 1132.407 C 2600.174 1132.1325 2600.4353 1131.9439 2600.7835 1131.9439 L 2603.7783 1131.9439 C 2604.3877 1131.9439 2604.8056 1132.5785 2604.5444 1133.1273 L 2591.329 1160.9987 C 2591.1897 1161.2732 2590.9285 1161.4618 2590.5803 1161.4618 L 2587.5855 1161.4618 C 2586.9935 1161.4618 2586.5756 1160.8272 2586.8368 1160.2784 Z M 2569.2684 1143.384 C 2569.2684 1143.0581 2569.4773 1142.7837 2569.7385 1142.6465 L 2584.103 1136.0774 C 2584.608 1135.8373 2585.2 1136.2146 2585.2 1136.7635 L 2585.2 1140.1938 C 2585.2 1140.5197 2584.991 1140.7941 2584.73 1140.9313 L 2575.2058 1145.1849 L 2584.73 1149.5071 C 2585.0085 1149.6444 2585.2 1149.9016 2585.2 1150.2447 L 2585.2 1153.7436 C 2585.2 1154.2925 2584.6255 1154.6698 2584.103 1154.4297 L 2569.7385 1147.9292 C 2569.46 1147.792 2569.2684 1147.5347 2569.2684 1147.1917 Z" fill="#0a55a8"/>
            </g>
          </g>
        </g>
      </g>
      <g id="Group_125">
        <g id="Graphic_141">
          <rect x="3013.465" y="1122.2666" width="85.03937" height="74.84901" fill="white"/>
        </g>
        <g id="Group_126">
          <g id="Group_127">
            <g id="Group_128">
              <g id="Graphic_140">
                <path d="M 3086.4768 1192.493 C 3089.746 1192.493 3092.406 1189.682 3092.406 1186.227 C 3092.406 1182.7718 3089.746 1179.9609 3086.4768 1179.9609 C 3083.2075 1179.9609 3080.5478 1182.7718 3080.5478 1186.227 C 3080.5478 1189.682 3083.2075 1192.493 3086.4768 1192.493 Z M 3086.4768 1183.5415 C 3087.878 1183.5415 3089.0178 1184.7462 3089.0178 1186.227 C 3089.0178 1187.7077 3087.878 1188.9124 3086.4768 1188.9124 C 3085.0757 1188.9124 3083.9358 1187.7077 3083.9358 1186.227 C 3083.9358 1184.7462 3085.0757 1183.5415 3086.4768 1183.5415 Z" fill="#0a55a8"/>
              </g>
              <g id="Graphic_139">
                <path d="M 3071.5695 1190.8817 C 3073.998 1190.8817 3075.974 1188.7935 3075.974 1186.227 C 3075.974 1183.6604 3073.998 1181.5722 3071.5695 1181.5722 C 3069.141 1181.5722 3067.165 1183.6604 3067.165 1186.227 C 3067.165 1188.7935 3069.141 1190.8817 3071.5695 1190.8817 Z M 3071.5695 1185.1528 C 3072.13 1185.1528 3072.586 1185.6345 3072.586 1186.227 C 3072.586 1186.8194 3072.13 1187.3011 3071.5695 1187.3011 C 3071.009 1187.3011 3070.553 1186.8194 3070.553 1186.227 C 3070.553 1185.6345 3071.009 1185.1528 3071.5695 1185.1528 Z" fill="#0a55a8"/>
              </g>
              <g id="Graphic_138">
                <path d="M 3023.629 1188.0172 L 3060.389 1188.0172 C 3061.3246 1188.0172 3062.083 1187.2157 3062.083 1186.227 C 3062.083 1185.2382 3061.3246 1184.4366 3060.389 1184.4366 L 3023.629 1184.4366 C 3022.6934 1184.4366 3021.935 1185.2382 3021.935 1186.227 C 3021.935 1187.2157 3022.6934 1188.0172 3023.629 1188.0172 Z" fill="#0a55a8"/>
              </g>
              <g id="Graphic_137">
                <path d="M 3096.8103 1143.6177 L 3090.5424 1143.6177 L 3090.5424 1142.9639 C 3090.5424 1141.9751 3089.784 1141.1736 3088.8484 1141.1736 C 3087.9128 1141.1736 3087.1544 1141.9751 3087.1544 1142.9639 L 3087.1544 1143.6177 L 3024.476 1143.6177 L 3024.476 1142.9639 C 3024.476 1141.9751 3023.7176 1141.1736 3022.782 1141.1736 C 3021.8464 1141.1736 3021.088 1141.9751 3021.088 1142.9639 L 3021.088 1143.6177 L 3015.159 1143.6177 C 3014.2233 1143.6177 3013.465 1144.4193 3013.465 1145.408 L 3013.465 1167.2497 C 3013.465 1168.2385 3014.2233 1169.04 3015.159 1169.04 L 3021.088 1169.04 L 3021.088 1173.5158 L 3015.159 1173.5158 C 3014.2233 1173.5158 3013.465 1174.3173 3013.465 1175.3061 L 3013.465 1197.1478 C 3013.465 1198.1366 3014.2233 1198.9381 3015.159 1198.9381 L 3096.8103 1198.9381 C 3097.746 1198.9381 3098.5043 1198.1366 3098.5043 1197.1478 L 3098.5043 1175.3061 C 3098.5043 1174.3173 3097.746 1173.5158 3096.8103 1173.5158 L 3090.5424 1173.5158 L 3090.5424 1169.04 L 3096.8103 1169.04 C 3097.746 1169.04 3098.5043 1168.2385 3098.5043 1167.2497 L 3098.5043 1145.408 C 3098.5043 1144.4193 3097.746 1143.6177 3096.8103 1143.6177 Z M 3095.1163 1177.0964 L 3095.1163 1195.3575 L 3016.853 1195.3575 L 3016.853 1177.0964 Z M 3024.476 1173.5158 L 3024.476 1169.04 L 3087.1544 1169.04 L 3087.1544 1173.5158 Z M 3095.1163 1165.4594 L 3016.853 1165.4594 L 3016.853 1147.1983 L 3095.1163 1147.1983 Z" fill="#0a55a8"/>
              </g>
              <g id="Graphic_136">
                <path d="M 3086.4768 1162.595 C 3089.746 1162.595 3092.406 1159.784 3092.406 1156.3289 C 3092.406 1152.8738 3089.746 1150.0628 3086.4768 1150.0628 C 3083.2075 1150.0628 3080.5478 1152.8738 3080.5478 1156.3289 C 3080.5478 1159.784 3083.2075 1162.595 3086.4768 1162.595 Z M 3086.4768 1153.6434 C 3087.878 1153.6434 3089.0178 1154.8481 3089.0178 1156.3289 C 3089.0178 1157.8096 3087.878 1159.0143 3086.4768 1159.0143 C 3085.0757 1159.0143 3083.9358 1157.8096 3083.9358 1156.3289 C 3083.9358 1154.8481 3085.0757 1153.6434 3086.4768 1153.6434 Z" fill="#0a55a8"/>
              </g>
              <g id="Graphic_135">
                <path d="M 3071.5695 1160.9837 C 3073.998 1160.9837 3075.974 1158.8955 3075.974 1156.3289 C 3075.974 1153.7623 3073.998 1151.6741 3071.5695 1151.6741 C 3069.141 1151.6741 3067.165 1153.7623 3067.165 1156.3289 C 3067.165 1158.8955 3069.141 1160.9837 3071.5695 1160.9837 Z M 3071.5695 1155.2547 C 3072.13 1155.2547 3072.586 1155.7365 3072.586 1156.3289 C 3072.586 1156.9213 3072.13 1157.4031 3071.5695 1157.4031 C 3071.009 1157.4031 3070.553 1156.9213 3070.553 1156.3289 C 3070.553 1155.7365 3071.009 1155.2547 3071.5695 1155.2547 Z" fill="#0a55a8"/>
              </g>
              <g id="Graphic_134">
                <path d="M 3023.629 1158.1192 L 3060.389 1158.1192 C 3061.3246 1158.1192 3062.083 1157.3177 3062.083 1156.3289 C 3062.083 1155.3401 3061.3246 1154.5386 3060.389 1154.5386 L 3023.629 1154.5386 C 3022.6934 1154.5386 3021.935 1155.3401 3021.935 1156.3289 C 3021.935 1157.3177 3022.6934 1158.1192 3023.629 1158.1192 Z" fill="#0a55a8"/>
              </g>
              <g id="Graphic_133">
                <path d="M 3096.8103 1113.8987 L 3015.159 1113.8987 C 3014.2233 1113.8987 3013.465 1114.7002 3013.465 1115.689 L 3013.465 1137.5307 C 3013.465 1138.5195 3014.2233 1139.321 3015.159 1139.321 L 3096.8103 1139.321 C 3097.746 1139.321 3098.5043 1138.5195 3098.5043 1137.5307 L 3098.5043 1115.689 C 3098.5043 1114.7002 3097.746 1113.8987 3096.8103 1113.8987 Z M 3095.1163 1135.7404 L 3016.853 1135.7404 L 3016.853 1117.4793 L 3095.1163 1117.4793 Z" fill="#0a55a8"/>
              </g>
              <g id="Graphic_132">
                <path d="M 3086.4768 1132.8759 C 3089.746 1132.8759 3092.406 1130.065 3092.406 1126.6099 C 3092.406 1123.1548 3089.746 1120.3438 3086.4768 1120.3438 C 3083.2075 1120.3438 3080.5478 1123.1548 3080.5478 1126.6099 C 3080.5478 1130.065 3083.2075 1132.8759 3086.4768 1132.8759 Z M 3086.4768 1123.9244 C 3087.878 1123.9244 3089.0178 1125.1291 3089.0178 1126.6099 C 3089.0178 1128.0906 3087.878 1129.2953 3086.4768 1129.2953 C 3085.0757 1129.2953 3083.9358 1128.0906 3083.9358 1126.6099 C 3083.9358 1125.1291 3085.0757 1123.9244 3086.4768 1123.9244 Z" fill="#0a55a8"/>
              </g>
              <g id="Graphic_131">
                <path d="M 3071.5695 1131.2647 C 3073.998 1131.2647 3075.974 1129.1764 3075.974 1126.6099 C 3075.974 1124.0433 3073.998 1121.9551 3071.5695 1121.9551 C 3069.141 1121.9551 3067.165 1124.0433 3067.165 1126.6099 C 3067.165 1129.1764 3069.141 1131.2647 3071.5695 1131.2647 Z M 3071.5695 1125.5357 C 3072.13 1125.5357 3072.586 1126.0175 3072.586 1126.6099 C 3072.586 1127.2023 3072.13 1127.684 3071.5695 1127.684 C 3071.009 1127.684 3070.553 1127.2023 3070.553 1126.6099 C 3070.553 1126.0175 3071.009 1125.5357 3071.5695 1125.5357 Z" fill="#0a55a8"/>
              </g>
              <g id="Graphic_130">
                <path d="M 3023.629 1128.4002 L 3049.039 1128.4002 C 3049.9747 1128.4002 3050.733 1127.5986 3050.733 1126.6099 C 3050.733 1125.6211 3049.9747 1124.8196 3049.039 1124.8196 L 3023.629 1124.8196 C 3022.6934 1124.8196 3021.935 1125.6211 3021.935 1126.6099 C 3021.935 1127.5986 3022.6934 1128.4002 3023.629 1128.4002 Z" fill="#0a55a8"/>
              </g>
              <g id="Graphic_129">
                <path d="M 3055.307 1128.4002 L 3060.389 1128.4002 C 3061.3246 1128.4002 3062.083 1127.5986 3062.083 1126.6099 C 3062.083 1125.6211 3061.3246 1124.8196 3060.389 1124.8196 L 3055.307 1124.8196 C 3054.3714 1124.8196 3053.613 1125.6211 3053.613 1126.6099 C 3053.613 1127.5986 3054.3714 1128.4002 3055.307 1128.4002 Z" fill="#0a55a8"/>
              </g>
            </g>
          </g>
        </g>
      </g>
      <g id="Group_122">
        <g id="Graphic_124">
          <rect x="2792.126" y="1113.8987" width="85.03937" height="85.03937" fill="white"/>
        </g>
        <g id="Graphic_123">
          <path d="M 2819.418 1120.1669 C 2817.8537 1120.1669 2816.594 1121.802 2816.594 1123.8327 L 2816.594 1131.2817 C 2816.594 1133.3124 2817.8537 1134.9475 2819.418 1134.9475 L 2849.8733 1134.9475 C 2851.4377 1134.9475 2852.6974 1133.3124 2852.6974 1131.2817 L 2852.6974 1123.8327 C 2852.6974 1121.802 2851.4377 1120.1669 2849.8733 1120.1669 Z M 2821.9937 1124.5952 C 2822.0554 1124.5795 2822.1092 1124.5952 2822.1745 1124.5952 L 2829.088 1124.5952 C 2829.61 1124.5952 2830.0368 1125.1198 2830.0368 1125.7976 L 2830.0368 1129.2874 C 2830.0368 1129.9652 2829.61 1130.5192 2829.088 1130.5192 L 2822.1745 1130.5192 C 2821.6523 1130.5192 2821.2256 1129.9652 2821.2256 1129.2874 L 2821.2256 1125.7976 C 2821.2256 1125.2045 2821.5622 1124.7049 2821.9937 1124.5952 Z M 2819.418 1141.4873 C 2817.8537 1141.4873 2816.594 1143.1224 2816.594 1145.1531 L 2816.594 1152.6021 C 2816.594 1154.6329 2817.8537 1156.2679 2819.418 1156.2679 L 2849.8733 1156.2679 C 2851.4377 1156.2679 2852.6974 1154.6329 2852.6974 1152.6021 L 2852.6974 1145.1531 C 2852.6974 1143.1224 2851.4377 1141.4873 2849.8733 1141.4873 Z M 2821.9937 1145.9156 C 2822.0554 1145.9 2822.1092 1145.9156 2822.1745 1145.9156 L 2829.088 1145.9156 C 2829.61 1145.9156 2830.0368 1146.4402 2830.0368 1147.118 L 2830.0368 1150.6079 C 2830.0368 1151.2856 2829.61 1151.8396 2829.088 1151.8396 L 2822.1745 1151.8396 C 2821.6523 1151.8396 2821.2256 1151.2856 2821.2256 1150.6079 L 2821.2256 1147.118 C 2821.2256 1146.525 2821.5622 1146.0253 2821.9937 1145.9156 Z M 2806.495 1150.6959 L 2792.126 1159.5525 L 2806.495 1168.4091 L 2806.495 1163.7755 L 2812.166 1163.7755 C 2812.99 1163.7755 2813.657 1162.9099 2813.657 1161.84 L 2813.657 1157.265 C 2813.657 1156.1951 2812.99 1155.3295 2812.166 1155.3295 L 2806.495 1155.3295 Z M 2862.7963 1150.6959 L 2862.7963 1155.3295 L 2857.148 1155.3295 C 2856.324 1155.3295 2855.657 1156.1951 2855.657 1157.265 L 2855.657 1161.84 C 2855.657 1162.9099 2856.324 1163.7755 2857.148 1163.7755 L 2862.7963 1163.7755 L 2862.7963 1168.4091 L 2877.1654 1159.5525 Z M 2819.418 1162.837 C 2817.8537 1162.837 2816.594 1164.4721 2816.594 1166.5029 L 2816.594 1173.9518 C 2816.594 1175.9826 2817.8537 1177.6177 2819.418 1177.6177 L 2849.8733 1177.6177 C 2851.4377 1177.6177 2852.6974 1175.9826 2852.6974 1173.9518 L 2852.6974 1166.5029 C 2852.6974 1164.4721 2851.4377 1162.837 2849.8733 1162.837 Z M 2821.9937 1167.2654 C 2822.0554 1167.2497 2822.1092 1167.2654 2822.1745 1167.2654 L 2829.088 1167.2654 C 2829.61 1167.2654 2830.0368 1167.79 2830.0368 1168.4678 L 2830.0368 1171.9576 C 2830.0368 1172.6354 2829.61 1173.1893 2829.088 1173.1893 L 2822.1745 1173.1893 C 2821.6523 1173.1893 2821.2256 1172.6354 2821.2256 1171.9576 L 2821.2256 1168.4678 C 2821.2256 1167.8747 2821.5622 1167.375 2821.9937 1167.2654 Z M 2819.418 1184.1575 C 2817.8537 1184.1575 2816.594 1185.7925 2816.594 1187.8233 L 2816.594 1195.2723 C 2816.594 1197.303 2817.8537 1198.9381 2819.418 1198.9381 L 2849.8733 1198.9381 C 2851.4377 1198.9381 2852.6974 1197.303 2852.6974 1195.2723 L 2852.6974 1187.8233 C 2852.6974 1185.7925 2851.4377 1184.1575 2849.8733 1184.1575 Z M 2821.9937 1188.5858 C 2822.0554 1188.5701 2822.1092 1188.5858 2822.1745 1188.5858 L 2829.088 1188.5858 C 2829.61 1188.5858 2830.0368 1189.1104 2830.0368 1189.7882 L 2830.0368 1193.278 C 2830.0368 1193.9558 2829.61 1194.5098 2829.088 1194.5098 L 2822.1745 1194.5098 C 2821.6523 1194.5098 2821.2256 1193.9558 2821.2256 1193.278 L 2821.2256 1189.7882 C 2821.2256 1189.1951 2821.5622 1188.6955 2821.9937 1188.5858 Z" fill="#0a55a8"/>
        </g>
      </g>
      <g id="Line_121">
        <path d="M 2639.055 1160.0055 L 2649.055 1160.0055 L 2715.5906 1159.779 L 2777.226 1159.5525 L 2782.226 1159.5525" marker-end="url(#FilledArrow_Marker)" stroke="black" stroke-linecap="round" stroke-linejoin="round" stroke-width="1"/>
      </g>
      <g id="Graphic_120">
        <text transform="translate(2898.8372 1117.2221)" fill="black">
          <tspan font-family="Helvetica Neue" font-size="16" fill="black" x="0" y="15">SRC IP: B</tspan>
          <tspan font-family="Helvetica Neue" font-size="16" fill="black" x=".736" y="33.448">DST IP: C</tspan>
        </text>
      </g>
      <g id="Graphic_119">
        <text transform="translate(2581.8715 1202.6378)" fill="black">
          <tspan font-family="Helvetica Neue" font-size="16" fill="black" x="6679102e-19" y="15">IP A</tspan>
        </text>
      </g>
      <g id="Graphic_118">
        <text transform="translate(3040.7286 1202.6378)" fill="black">
          <tspan font-family="Helvetica Neue" font-size="16" fill="black" x="0" y="15">IP C</tspan>
        </text>
      </g>
      <g id="Graphic_117">
        <text transform="translate(2685.5896 1117.2221)" fill="black">
          <tspan font-family="Helvetica Neue" font-size="16" fill="black" x="0" y="15">SRC IP: A</tspan>
          <tspan font-family="Helvetica Neue" font-size="16" fill="#0a55a8" x=".44" y="33.448">DST IP: C</tspan>
        </text>
      </g>
      <g id="Graphic_116">
        <text transform="translate(2819.6857 1202.6378)" fill="black">
          <tspan font-family="Helvetica Neue" font-size="16" fill="black" x="0" y="15">IP B</tspan>
        </text>
      </g>
      <g id="Line_115">
        <path d="M 2877.1654 1159.5525 L 2887.1654 1159.5525 L 2945.315 1159.6218 L 2998.565 1159.6911 L 3003.565 1159.6911" marker-end="url(#FilledArrow_Marker)" stroke="black" stroke-linecap="round" stroke-linejoin="round" stroke-width="1"/>
      </g>
      <g id="Line_114">
        <line x1="3011.811" y1="1173.5433" x2="2878.4793" y2="1173.5433" marker-end="url(#FilledArrow_Marker)" stroke="black" stroke-linecap="round" stroke-linejoin="round" stroke-width="1"/>
      </g>
      <g id="Line_113">
        <line x1="2800.63" y1="1173.5433" x2="2651.553" y2="1173.5433" marker-end="url(#FilledArrow_Marker)" stroke="black" stroke-linecap="round" stroke-linejoin="round" stroke-width="1"/>
      </g>
      <g id="Graphic_112">
        <text transform="translate(2898.0667 1179.0638)" fill="black">
          <tspan font-family="Helvetica Neue" font-size="16" fill="black" x="22737368e-20" y="15">SRC IP: C</tspan>
          <tspan font-family="Helvetica Neue" font-size="16" fill="black" x="1.328" y="33.448">DST IP: B</tspan>
        </text>
      </g>
      <g id="Graphic_111">
        <text transform="translate(2685.3554 1179.0638)" fill="#0a55a8">
          <tspan font-family="Helvetica Neue" font-size="16" fill="#0a55a8" x="22737368e-20" y="15">SRC IP: C</tspan>
          <tspan font-family="Helvetica Neue" font-size="16" fill="black" x="1.624" y="33.448">DST IP: A</tspan>
        </text>
      </g>
      <g id="Graphic_151">
        <text transform="translate(2747.8057 895.3784)" fill="black">
          <tspan font-family="Helvetica Neue" font-weight="bold" font-size="16" fill="black" x="1563194e-19" y="16">Non-transparent Proxy</tspan>
        </text>
      </g>
      <g id="Graphic_152">
        <text transform="translate(2765.2857 1076.4577)" fill="black">
          <tspan font-family="Helvetica Neue" font-weight="bold" font-size="16" fill="black" x="5968559e-19" y="16">Transparent Proxy</tspan>
        </text>
      </g>
    </g>
  </g>
</svg>
