<svg xmlns="http://www.w3.org/2000/svg" xmlns:xl="http://www.w3.org/1999/xlink" width="640" height="516" version="1.1" viewBox="1659 716 640 516"><defs><marker id="FilledArrow_Marker" stroke-linejoin="miter" stroke-miterlimit="10" color="#000" markerHeight="6" markerUnits="strokeWidth" markerWidth="7" orient="auto" overflow="visible" viewBox="-1 -3 7 6"><g><path fill="currentColor" stroke="currentColor" stroke-width="1" d="M 4.8 0 L 0 -1.8 L 0 1.8 Z"/></g></marker></defs><g id="SPIRE_Certs_Process" fill="none" fill-opacity="1" stroke="none" stroke-dasharray="none" stroke-opacity="1"><title>SPIRE Certs Process</title><rect width="640" height="516" x="1659" y="716" fill="#fff"/><g id="SPIRE_Certs_Process_Layer_1"><title>Layer 1</title><g id="Graphic_437"><rect width="241.303" height="380.5" x="2048.235" y="850.221" fill="#fff"/><rect width="241.303" height="380.5" x="2048.235" y="850.221" stroke="gray" stroke-linecap="round" stroke-linejoin="round" stroke-width="1"/><text fill="#000" transform="translate(2053.2352 1206.2565)"><tspan x="95.355" y="16" fill="#000" font-family="Helvetica Neue" font-size="16" font-weight="bold">Node</tspan></text></g><g id="Graphic_426"><rect width="149.953" height="168.979" x="2109.5" y="1005.04" fill="#fff"/><rect width="149.953" height="168.979" x="2109.5" y="1005.04" stroke="gray" stroke-linecap="round" stroke-linejoin="round" stroke-width="1"/><text fill="#000" transform="translate(2114.5 1149.5547)"><tspan x="54.864" y="16" fill="#000" font-family="Helvetica Neue" font-size="16" font-weight="bold">Pod</tspan></text></g><g id="Graphic_425"><rect width="149.953" height="168.979" x="2093.106" y="1014.504" fill="#fff"/><rect width="149.953" height="168.979" x="2093.106" y="1014.504" stroke="gray" stroke-linecap="round" stroke-linejoin="round" stroke-width="1"/><text fill="#000" transform="translate(2098.1058 1159.0188)"><tspan x="54.864" y="16" fill="#000" font-family="Helvetica Neue" font-size="16" font-weight="bold">Pod</tspan></text></g><g id="Graphic_361"><rect width="149.953" height="168.979" x="2076.712" y="1023.968" fill="#fff"/><rect width="149.953" height="168.979" x="2076.712" y="1023.968" stroke="gray" stroke-linecap="round" stroke-linejoin="round" stroke-width="1"/><text fill="#000" transform="translate(2081.7117 1168.4829)"><tspan x="54.864" y="16" fill="#000" font-family="Helvetica Neue" font-size="16" font-weight="bold">Pod</tspan></text></g><g id="Graphic_359"><rect width="120" height="40" x="2091.688" y="1120.082" fill="#333"/><rect width="120" height="40" x="2091.688" y="1120.082" stroke="#a5a5a5" stroke-linecap="round" stroke-linejoin="round" stroke-width=".5"/><text fill="#fff" transform="translate(2096.6882 1130.3498)"><tspan x="39.744" y="16" fill="#fff" font-family="Helvetica Neue" font-size="16" font-weight="bold">App</tspan></text></g><g id="Graphic_325"><rect width="180" height="40" x="1729.062" y="1190.721" fill="#0a55a8"/><rect width="180" height="40" x="1729.062" y="1190.721" stroke="#0a55a8" stroke-linecap="round" stroke-linejoin="round" stroke-width="1"/></g><g id="Graphic_328"><rect width="560.476" height="40" x="1729.062" y="716.5" fill="#0a55a8"/><rect width="560.476" height="40" x="1729.062" y="716.5" stroke="#0a55a8" stroke-linecap="round" stroke-linejoin="round" stroke-width="1"/><text fill="#fff" transform="translate(1734.062 726.76794)"><tspan x="224.406" y="16" fill="#fff" font-family="Helvetica Neue" font-size="16" font-weight="bold">SPIRE Server</tspan></text></g><g id="Graphic_327"><rect width="280.238" height="42" x="2009.3" y="756.5" fill="#fff"/><rect width="280.238" height="42" x="2009.3" y="756.5" stroke="#a5a5a5" stroke-linecap="round" stroke-linejoin="round" stroke-width="1"/><text fill="#000" transform="translate(2014.3 767.7679)"><tspan x="99.559" y="16" fill="#000" font-family="Helvetica Neue" font-size="16" font-style="italic" font-weight="bold">Node API</tspan></text></g><g id="Graphic_326"><rect width="280.238" height="42" x="1729.062" y="756.5" fill="#fff"/><rect width="280.238" height="42" x="1729.062" y="756.5" stroke="#a5a5a5" stroke-linecap="round" stroke-linejoin="round" stroke-width="1"/><text fill="#000" transform="translate(1734.062 767.7679)"><tspan x="15.135" y="16" fill="#000" font-family="Helvetica Neue" font-size="16" font-style="italic" font-weight="bold">Kubernetes Workload Registrar</tspan></text></g><g id="Graphic_329"><rect width="180" height="40" x="2068.735" y="868.5" fill="#0a55a8"/><rect width="180" height="40" x="2068.735" y="868.5" stroke="#0a55a8" stroke-linecap="round" stroke-linejoin="round" stroke-width="1"/><text fill="#fff" transform="translate(2073.7352 878.7679)"><tspan x="36.408" y="16" fill="#fff" font-family="Helvetica Neue" font-size="16" font-weight="bold">SPIRE Agent</tspan></text></g><g id="Graphic_330"><rect width="180" height="40" x="2068.735" y="908.5" fill="#fff"/><rect width="180" height="40" x="2068.735" y="908.5" stroke="#a5a5a5" stroke-linecap="round" stroke-linejoin="round" stroke-width="1"/><text fill="#000" transform="translate(2073.7352 918.7679)"><tspan x="33.896" y="16" fill="#000" font-family="Helvetica Neue" font-size="16" font-style="italic" font-weight="bold">Workload API</tspan></text></g><g id="Line_372"><line x1="2125.092" x2="2125.092" y1="1045" y2="961.4" stroke="#000" stroke-linecap="round" stroke-linejoin="round" stroke-width="2" marker-end="url(#FilledArrow_Marker)"/></g><g id="Graphic_371"><rect width="119.444" height="20" x="2091.966" y="1045" fill="#fff"/><path stroke="#000" stroke-dasharray="4 4" stroke-linecap="round" stroke-linejoin="round" stroke-width="1" d="M 2091.966 1045 L 2211.4102 1045 L 2211.4102 1065 L 2091.966 1065 Z"/><text fill="#000" transform="translate(2096.966 1046.297)"><tspan x="14.143" y="14" fill="#000" font-family="Helvetica Neue" font-size="14" font-style="italic" font-weight="bold">Shared UDS</tspan></text></g><g id="Line_373"><line x1="2103.205" x2="2103.205" y1="868.5" y2="811.4" stroke="#000" stroke-linecap="round" stroke-linejoin="round" stroke-width="2" marker-end="url(#FilledArrow_Marker)"/></g><g id="Graphic_374"><rect width="59.792" height="28.448" x="2095.196" y="970.964" fill="#fff"/><text fill="#000" transform="translate(2100.196 975.9637)"><tspan x="0" y="15" fill="#000" font-family="Helvetica Neue" font-size="16" font-style="italic">3. SDS</tspan></text></g><g id="Graphic_375"><rect width="180" height="60" x="1729.062" y="943.61" fill="#0a55a8"/><rect width="180" height="60" x="1729.062" y="943.61" stroke="#0a55a8" stroke-linecap="round" stroke-linejoin="round" stroke-width="1"/></g><g id="Group_382"><g id="Graphic_380"><path stroke="#fff" stroke-linecap="butt" stroke-linejoin="round" stroke-width="1" d="M 1769.6312 953.2387 C 1769.2557 953.2608 1768.8884 953.3581 1768.5512 953.5248 L 1753.9261 960.5007 C 1753.1624 960.8642 1752.6073 961.5558 1752.417 962.3799 L 1748.8372 978.0364 C 1748.6666 978.7712 1748.8044 979.5415 1749.231 980.1714 C 1749.2808 980.2475 1749.3333 980.321 1749.3884 980.3919 L 1759.4927 992.9554 C 1760.0268 993.6115 1760.8286 993.9881 1761.6737 993.9842 L 1777.88 993.9842 C 1778.7277 993.9855 1779.5308 993.5905 1780.0636 992.9435 L 1790.1627 980.3774 C 1790.6928 979.7213 1790.891 978.8552 1790.6876 978.0337 L 1787.0841 962.3641 C 1786.8939 961.54 1786.3362 960.8485 1785.575 960.485 L 1770.9736 953.5261 C 1770.5529 953.3186 1770.0868 953.2198 1769.618 953.2387 Z"/></g><g id="Graphic_379"><path fill="#fff" d="M 1769.765 958.5743 C 1769.2611 958.6098 1768.8793 959.0415 1768.9055 959.5454 L 1768.9055 959.7921 C 1768.9291 960.0716 1768.9711 960.3485 1769.0262 960.6228 C 1769.1067 961.148 1769.1357 961.6798 1769.1128 962.2106 C 1769.063 962.3851 1768.9632 962.5426 1768.8268 962.6633 L 1768.807 963.0334 C 1768.2756 963.078 1767.748 963.1593 1767.2284 963.2775 C 1765.0422 963.7709 1763.0515 964.9046 1761.5149 966.5384 L 1761.2 966.3153 C 1761.0267 966.3678 1760.8404 966.3481 1760.6816 966.2628 C 1760.2557 965.9476 1759.8615 965.5916 1759.5045 965.1999 C 1759.3252 964.9857 1759.1338 964.7819 1758.931 964.5897 L 1758.7369 964.4349 C 1758.5636 964.2958 1758.351 964.2157 1758.1293 964.2052 C 1757.8608 964.191 1757.6018 964.3061 1757.4325 964.5149 C 1757.136 964.9309 1757.233 965.507 1757.6477 965.8049 L 1757.8288 965.9492 C 1758.0619 966.1043 1758.3037 966.2458 1758.5531 966.373 C 1759.0177 966.6316 1759.456 966.9347 1759.8628 967.2916 C 1759.9668 967.44 1760.0273 967.6146 1760.0373 967.7955 L 1760.3234 968.058 C 1758.7788 970.3754 1758.145 973.1823 1758.5413 975.9394 L 1758.174 976.0444 C 1758.078 976.1966 1757.9508 976.3265 1757.7986 976.4223 C 1757.286 976.5592 1756.7612 976.6458 1756.2318 976.6808 C 1755.9508 976.6865 1755.6704 976.7084 1755.392 976.7464 L 1755.1597 976.7989 L 1755.1334 976.7989 C 1754.8047 976.8445 1754.5297 977.0713 1754.4223 977.3853 C 1754.315 977.6994 1754.3936 978.0471 1754.6256 978.2844 C 1754.8597 978.5205 1755.207 978.6043 1755.5231 978.5009 L 1755.5402 978.5009 L 1755.7764 978.4746 C 1756.0428 978.3959 1756.3053 978.2988 1756.5611 978.1886 C 1757.0532 977.9917 1757.5637 977.8408 1758.086 977.7424 C 1758.267 977.7529 1758.4403 977.8146 1758.5873 977.9196 L 1758.981 977.854 C 1759.834 980.5008 1761.6264 982.7434 1764.02 984.1567 L 1763.8599 984.4913 C 1763.9334 984.6449 1763.961 984.8155 1763.9386 984.9847 C 1763.722 985.486 1763.457 985.9663 1763.1473 986.4177 C 1762.9774 986.6416 1762.8206 986.8752 1762.6775 987.1171 L 1762.566 987.3534 C 1762.401 987.6396 1762.4104 987.9942 1762.5903 988.2713 C 1762.7703 988.5484 1763.0904 988.7012 1763.419 988.6669 C 1763.7484 988.6299 1764.029 988.4107 1764.1446 988.1 L 1764.2536 987.8769 C 1764.3533 987.6145 1764.4373 987.3468 1764.5055 987.0765 C 1764.7378 986.503 1764.8638 985.8876 1765.1813 985.507 C 1765.2851 985.4094 1765.416 985.3454 1765.5566 985.3233 L 1765.7535 984.965 C 1768.348 985.9623 1771.219 985.9693 1773.8186 984.9847 L 1773.993 985.3194 C 1774.1716 985.3456 1774.3317 985.444 1774.4393 985.5884 C 1774.686 986.0582 1774.8854 986.5503 1775.0377 987.0581 C 1775.107 987.33 1775.192 987.5977 1775.2922 987.8599 L 1775.4012 988.083 C 1775.518 988.3924 1775.7985 988.6101 1776.1273 988.6464 C 1776.456 988.6827 1776.7773 988.5314 1776.9588 988.2549 C 1777.1385 987.9767 1777.1466 987.6211 1776.9798 987.335 L 1776.8656 987.0988 C 1776.7226 986.8577 1776.5657 986.625 1776.3958 986.402 C 1776.094 985.9663 1775.8342 985.5018 1775.6085 985.0149 C 1775.566 984.8351 1775.5981 984.6457 1775.6977 984.49 C 1775.6417 984.3756 1775.593 984.2577 1775.552 984.137 C 1777.9404 982.7132 1779.725 980.4627 1780.5688 977.812 L 1780.9415 977.8776 C 1781.0753 977.7555 1781.2512 977.6912 1781.431 977.6965 C 1781.952 977.7962 1782.4624 977.9589 1782.9558 978.1426 C 1783.2117 978.2608 1783.4741 978.3605 1783.7405 978.4445 C 1783.8035 978.4615 1783.8954 978.476 1783.9662 978.493 L 1783.9833 978.493 C 1784.2991 978.595 1784.6455 978.5105 1784.8788 978.2744 C 1785.1121 978.0383 1785.1926 977.6909 1785.0869 977.3763 C 1784.9787 977.0619 1784.7025 976.8355 1784.373 976.791 L 1784.1184 976.7307 C 1783.84 976.6927 1783.5596 976.6708 1783.2786 976.665 C 1782.7485 976.6309 1782.2236 976.5443 1781.7118 976.4065 C 1781.5543 976.3186 1781.423 976.1874 1781.3338 976.0286 L 1780.9795 975.9236 C 1781.3573 973.1679 1780.71 970.3694 1779.1608 968.0593 L 1779.4704 967.7732 C 1779.4573 967.5935 1779.5164 967.415 1779.6332 967.2772 C 1780.036 966.9308 1780.473 966.625 1780.9323 966.3639 C 1781.1817 966.2366 1781.4235 966.095 1781.6567 965.94 L 1781.8482 965.7852 C 1782.1361 965.6065 1782.2957 965.2782 1782.2585 964.9415 C 1782.2212 964.6047 1781.9937 964.3193 1781.6737 964.2078 C 1781.354 964.0965 1780.9988 964.1787 1780.7604 964.4191 L 1780.5662 964.574 C 1780.3635 964.7662 1780.172 964.97 1779.9927 965.1842 C 1779.6463 965.5805 1779.2631 965.9413 1778.8471 966.2641 C 1778.6793 966.3325 1778.4956 966.3525 1778.317 966.3219 L 1777.985 966.5581 C 1776.069 964.5503 1773.4879 963.3037 1770.7217 963.0544 C 1770.7217 962.9231 1770.7046 962.7263 1770.702 962.6646 C 1770.5537 962.5623 1770.45 962.4061 1770.416 962.229 C 1770.3977 961.699 1770.431 961.1686 1770.5156 960.6451 C 1770.572 960.3695 1770.6114 960.0939 1770.6364 959.8144 L 1770.6364 959.552 C 1770.6626 959.0481 1770.282 958.6163 1769.7768 958.5809 Z M 1768.6706 965.3534 L 1768.4082 969.9371 L 1768.3885 969.9371 C 1768.3754 970.2206 1768.2087 970.462 1767.9528 970.5985 C 1767.697 970.735 1767.3938 970.6943 1767.1655 970.5276 L 1763.4058 967.8638 C 1764.6025 966.6884 1766.1037 965.8708 1767.7402 965.503 C 1768.0473 965.4374 1768.357 965.3876 1768.668 965.3534 Z M 1770.8594 965.3534 C 1772.8344 965.5988 1774.6729 966.4859 1776.0953 967.8782 L 1772.3712 970.525 C 1772.1415 970.7087 1771.8266 970.7455 1771.5602 970.6195 C 1771.2938 970.4935 1771.1232 970.2258 1771.1193 969.9319 Z M 1762.0411 969.5881 L 1765.4792 972.6561 L 1765.4792 972.6758 C 1765.6931 972.8621 1765.7863 973.1522 1765.7233 973.429 C 1765.6603 973.7059 1765.4477 973.9251 1765.176 973.9999 L 1765.176 974.013 L 1760.7643 975.2819 C 1760.546 973.2943 1760.9957 971.2905 1762.0424 969.5868 Z M 1777.464 969.5881 C 1778.5086 971.2874 1778.9705 973.2808 1778.7789 975.2662 L 1774.3605 973.9933 L 1774.3605 973.9762 C 1774.085 973.9014 1773.875 973.6823 1773.8133 973.4054 C 1773.7516 973.1285 1773.8435 972.8411 1774.0574 972.6522 L 1777.4693 969.5986 Z M 1769.0603 972.895 L 1770.467 972.895 L 1771.3266 973.9867 L 1771.0143 975.3515 L 1769.7506 975.9591 L 1768.4843 975.3515 L 1768.1864 973.9867 Z M 1773.5666 976.6191 C 1773.6257 976.6126 1773.6978 976.6126 1773.7438 976.6191 L 1778.2934 977.3868 C 1777.6372 979.2764 1776.342 980.8905 1774.6519 981.9705 L 1772.8934 977.7135 C 1772.7953 977.4818 1772.816 977.2168 1772.9488 977.003 C 1773.0817 976.7893 1773.3101 976.6534 1773.5614 976.6388 Z M 1765.9254 976.6388 C 1766.1826 976.6427 1766.42 976.7753 1766.5605 976.9905 C 1766.701 977.2057 1766.7232 977.476 1766.6222 977.7122 L 1766.6222 977.7293 L 1764.8743 981.9521 C 1763.2011 980.88 1761.9309 979.2856 1761.255 977.4157 L 1765.7653 976.6506 C 1765.8151 976.6454 1765.8663 976.6454 1765.9175 976.6506 Z M 1769.7362 978.476 C 1770.0285 978.4667 1770.3012 978.6231 1770.4408 978.8801 L 1770.458 978.8801 L 1772.6809 982.8917 L 1771.7925 983.1541 C 1770.1574 983.5281 1768.4501 983.4402 1766.861 982.8996 L 1769.0918 978.888 C 1769.227 978.6518 1769.4763 978.5075 1769.748 978.5009 Z"/><path stroke="#fff" stroke-linecap="butt" stroke-linejoin="round" stroke-width=".055" d="M 1769.765 958.5743 C 1769.2611 958.6098 1768.8793 959.0415 1768.9055 959.5454 L 1768.9055 959.7921 C 1768.9291 960.0716 1768.9711 960.3485 1769.0262 960.6228 C 1769.1067 961.148 1769.1357 961.6798 1769.1128 962.2106 C 1769.063 962.3851 1768.9632 962.5426 1768.8268 962.6633 L 1768.807 963.0334 C 1768.2756 963.078 1767.748 963.1593 1767.2284 963.2775 C 1765.0422 963.7709 1763.0515 964.9046 1761.5149 966.5384 L 1761.2 966.3153 C 1761.0267 966.3678 1760.8404 966.3481 1760.6816 966.2628 C 1760.2557 965.9476 1759.8615 965.5916 1759.5045 965.1999 C 1759.3252 964.9857 1759.1338 964.7819 1758.931 964.5897 L 1758.7369 964.4349 C 1758.5636 964.2958 1758.351 964.2157 1758.1293 964.2052 C 1757.8608 964.191 1757.6018 964.3061 1757.4325 964.5149 C 1757.136 964.9309 1757.233 965.507 1757.6477 965.8049 L 1757.8288 965.9492 C 1758.0619 966.1043 1758.3037 966.2458 1758.5531 966.373 C 1759.0177 966.6316 1759.456 966.9347 1759.8628 967.2916 C 1759.9668 967.44 1760.0273 967.6146 1760.0373 967.7955 L 1760.3234 968.058 C 1758.7788 970.3754 1758.145 973.1823 1758.5413 975.9394 L 1758.174 976.0444 C 1758.078 976.1966 1757.9508 976.3265 1757.7986 976.4223 C 1757.286 976.5592 1756.7612 976.6458 1756.2318 976.6808 C 1755.9508 976.6865 1755.6704 976.7084 1755.392 976.7464 L 1755.1597 976.7989 L 1755.1334 976.7989 C 1754.8047 976.8445 1754.5297 977.0713 1754.4223 977.3853 C 1754.315 977.6994 1754.3936 978.0471 1754.6256 978.2844 C 1754.8597 978.5205 1755.207 978.6043 1755.5231 978.5009 L 1755.5402 978.5009 L 1755.7764 978.4746 C 1756.0428 978.3959 1756.3053 978.2988 1756.5611 978.1886 C 1757.0532 977.9917 1757.5637 977.8408 1758.086 977.7424 C 1758.267 977.7529 1758.4403 977.8146 1758.5873 977.9196 L 1758.981 977.854 C 1759.834 980.5008 1761.6264 982.7434 1764.02 984.1567 L 1763.8599 984.4913 C 1763.9334 984.6449 1763.961 984.8155 1763.9386 984.9847 C 1763.722 985.486 1763.457 985.9663 1763.1473 986.4177 C 1762.9774 986.6416 1762.8206 986.8752 1762.6775 987.1171 L 1762.566 987.3534 C 1762.401 987.6396 1762.4104 987.9942 1762.5903 988.2713 C 1762.7703 988.5484 1763.0904 988.7012 1763.419 988.6669 C 1763.7484 988.6299 1764.029 988.4107 1764.1446 988.1 L 1764.2536 987.8769 C 1764.3533 987.6145 1764.4373 987.3468 1764.5055 987.0765 C 1764.7378 986.503 1764.8638 985.8876 1765.1813 985.507 C 1765.2851 985.4094 1765.416 985.3454 1765.5566 985.3233 L 1765.7535 984.965 C 1768.348 985.9623 1771.219 985.9693 1773.8186 984.9847 L 1773.993 985.3194 C 1774.1716 985.3456 1774.3317 985.444 1774.4393 985.5884 C 1774.686 986.0582 1774.8854 986.5503 1775.0377 987.0581 C 1775.107 987.33 1775.192 987.5977 1775.2922 987.8599 L 1775.4012 988.083 C 1775.518 988.3924 1775.7985 988.6101 1776.1273 988.6464 C 1776.456 988.6827 1776.7773 988.5314 1776.9588 988.2549 C 1777.1385 987.9767 1777.1466 987.6211 1776.9798 987.335 L 1776.8656 987.0988 C 1776.7226 986.8577 1776.5657 986.625 1776.3958 986.402 C 1776.094 985.9663 1775.8342 985.5018 1775.6085 985.0149 C 1775.566 984.8351 1775.5981 984.6457 1775.6977 984.49 C 1775.6417 984.3756 1775.593 984.2577 1775.552 984.137 C 1777.9404 982.7132 1779.725 980.4627 1780.5688 977.812 L 1780.9415 977.8776 C 1781.0753 977.7555 1781.2512 977.6912 1781.431 977.6965 C 1781.952 977.7962 1782.4624 977.9589 1782.9558 978.1426 C 1783.2117 978.2608 1783.4741 978.3605 1783.7405 978.4445 C 1783.8035 978.4615 1783.8954 978.476 1783.9662 978.493 L 1783.9833 978.493 C 1784.2991 978.595 1784.6455 978.5105 1784.8788 978.2744 C 1785.1121 978.0383 1785.1926 977.6909 1785.0869 977.3763 C 1784.9787 977.0619 1784.7025 976.8355 1784.373 976.791 L 1784.1184 976.7307 C 1783.84 976.6927 1783.5596 976.6708 1783.2786 976.665 C 1782.7485 976.6309 1782.2236 976.5443 1781.7118 976.4065 C 1781.5543 976.3186 1781.423 976.1874 1781.3338 976.0286 L 1780.9795 975.9236 C 1781.3573 973.1679 1780.71 970.3694 1779.1608 968.0593 L 1779.4704 967.7732 C 1779.4573 967.5935 1779.5164 967.415 1779.6332 967.2772 C 1780.036 966.9308 1780.473 966.625 1780.9323 966.3639 C 1781.1817 966.2366 1781.4235 966.095 1781.6567 965.94 L 1781.8482 965.7852 C 1782.1361 965.6065 1782.2957 965.2782 1782.2585 964.9415 C 1782.2212 964.6047 1781.9937 964.3193 1781.6737 964.2078 C 1781.354 964.0965 1780.9988 964.1787 1780.7604 964.4191 L 1780.5662 964.574 C 1780.3635 964.7662 1780.172 964.97 1779.9927 965.1842 C 1779.6463 965.5805 1779.2631 965.9413 1778.8471 966.2641 C 1778.6793 966.3325 1778.4956 966.3525 1778.317 966.3219 L 1777.985 966.5581 C 1776.069 964.5503 1773.4879 963.3037 1770.7217 963.0544 C 1770.7217 962.9231 1770.7046 962.7263 1770.702 962.6646 C 1770.5537 962.5623 1770.45 962.4061 1770.416 962.229 C 1770.3977 961.699 1770.431 961.1686 1770.5156 960.6451 C 1770.572 960.3695 1770.6114 960.0939 1770.6364 959.8144 L 1770.6364 959.552 C 1770.6626 959.0481 1770.282 958.6163 1769.7768 958.5809 Z M 1768.6706 965.3534 L 1768.4082 969.9371 L 1768.3885 969.9371 C 1768.3754 970.2206 1768.2087 970.462 1767.9528 970.5985 C 1767.697 970.735 1767.3938 970.6943 1767.1655 970.5276 L 1763.4058 967.8638 C 1764.6025 966.6884 1766.1037 965.8708 1767.7402 965.503 C 1768.0473 965.4374 1768.357 965.3876 1768.668 965.3534 Z M 1770.8594 965.3534 C 1772.8344 965.5988 1774.6729 966.4859 1776.0953 967.8782 L 1772.3712 970.525 C 1772.1415 970.7087 1771.8266 970.7455 1771.5602 970.6195 C 1771.2938 970.4935 1771.1232 970.2258 1771.1193 969.9319 Z M 1762.0411 969.5881 L 1765.4792 972.6561 L 1765.4792 972.6758 C 1765.6931 972.8621 1765.7863 973.1522 1765.7233 973.429 C 1765.6603 973.7059 1765.4477 973.9251 1765.176 973.9999 L 1765.176 974.013 L 1760.7643 975.2819 C 1760.546 973.2943 1760.9957 971.2905 1762.0424 969.5868 Z M 1777.464 969.5881 C 1778.5086 971.2874 1778.9705 973.2808 1778.7789 975.2662 L 1774.3605 973.9933 L 1774.3605 973.9762 C 1774.085 973.9014 1773.875 973.6823 1773.8133 973.4054 C 1773.7516 973.1285 1773.8435 972.8411 1774.0574 972.6522 L 1777.4693 969.5986 Z M 1769.0603 972.895 L 1770.467 972.895 L 1771.3266 973.9867 L 1771.0143 975.3515 L 1769.7506 975.9591 L 1768.4843 975.3515 L 1768.1864 973.9867 Z M 1773.5666 976.6191 C 1773.6257 976.6126 1773.6978 976.6126 1773.7438 976.6191 L 1778.2934 977.3868 C 1777.6372 979.2764 1776.342 980.8905 1774.6519 981.9705 L 1772.8934 977.7135 C 1772.7953 977.4818 1772.816 977.2168 1772.9488 977.003 C 1773.0817 976.7893 1773.3101 976.6534 1773.5614 976.6388 Z M 1765.9254 976.6388 C 1766.1826 976.6427 1766.42 976.7753 1766.5605 976.9905 C 1766.701 977.2057 1766.7232 977.476 1766.6222 977.7122 L 1766.6222 977.7293 L 1764.8743 981.9521 C 1763.2011 980.88 1761.9309 979.2856 1761.255 977.4157 L 1765.7653 976.6506 C 1765.8151 976.6454 1765.8663 976.6454 1765.9175 976.6506 Z M 1769.7362 978.476 C 1770.0285 978.4667 1770.3012 978.6231 1770.4408 978.8801 L 1770.458 978.8801 L 1772.6809 982.8917 L 1771.7925 983.1541 C 1770.1574 983.5281 1768.4501 983.4402 1766.861 982.8996 L 1769.0918 978.888 C 1769.227 978.6518 1769.4763 978.5075 1769.748 978.5009 Z"/></g></g><g id="Line_384"><line x1="1819.062" x2="1819.062" y1="798.5" y2="930.71" stroke="#000" stroke-linecap="round" stroke-linejoin="round" stroke-width="2" marker-end="url(#FilledArrow_Marker)"/></g><g id="Group_390"><g id="Group_392"><title>Page-1</title><g id="Group_393"><title>istio</title><g id="Graphic_394"><title>Shape</title><path fill="#fff" d="M 1786.0834 1218.2217 L 1799.4167 1218.2217 L 1791.0855 1220.7206 Z M 1786.0834 1217.3873 L 1791.0855 1216.5529 L 1791.0855 1207.3873 Z M 1791.9156 1216.5529 L 1799.4167 1217.3873 L 1791.9156 1200.7206 Z"/></g></g></g><g id="Graphic_391"><text fill="#fff" transform="translate(1804.4167 1200.9886)"><tspan x="0" y="16" fill="#fff" font-family="Helvetica Neue" font-size="16" font-weight="bold">Istiod</tspan></text></g></g><g id="Graphic_399"><text fill="#fff" transform="translate(1795.766 954.1462)"><tspan x="0" y="16" fill="#fff" font-family="Helvetica Neue" font-size="16" font-weight="bold">Kubernetes</tspan> <tspan x="4.136" y="35.464" fill="#fff" font-family="Helvetica Neue" font-size="16" font-weight="bold">API Server</tspan></text></g><g id="Graphic_360"><rect width="120" height="40" x="2091.688" y="1065" fill="#0a55a8"/><rect width="120" height="40" x="2091.688" y="1065" stroke="#0a55a8" stroke-linecap="round" stroke-linejoin="round" stroke-width=".5"/><text fill="#fff" transform="translate(2096.6882 1075.268)"><tspan x="31.872" y="16" fill="#fff" font-family="Helvetica Neue" font-size="16" font-weight="bold">Envoy</tspan></text></g><g id="Group_395"><g id="Group_396"><g id="Graphic_398"><path fill="#fff" d="M 2201.1347 1092.5642 L 2197.9143 1092.5642 L 2197.9143 1089.4171 C 2198.5306 1088.7191 2198.902 1087.8129 2198.902 1086.821 C 2198.902 1084.6331 2197.0898 1082.8575 2194.8613 1082.8575 C 2192.6327 1082.8575 2190.8204 1084.6372 2190.8204 1086.821 C 2190.8204 1087.8129 2191.1919 1088.7191 2191.8082 1089.4171 L 2191.8082 1092.5642 L 2184.4653 1092.5642 L 2184.4653 1078.2654 L 2201.1306 1078.2654 L 2201.1306 1092.5642 Z M 2194.8613 1092.9765 L 2193.4857 1094.0337 L 2193.4857 1090.5519 C 2193.9143 1090.7029 2194.3796 1090.7886 2194.8613 1090.7886 C 2195.343 1090.7886 2195.8082 1090.707 2196.2368 1090.5519 L 2196.2368 1094.0337 Z M 2194.8613 1089.1232 C 2193.551 1089.1232 2192.4857 1088.0905 2192.4857 1086.821 C 2192.4857 1085.5516 2193.551 1084.5189 2194.8613 1084.5189 C 2196.1715 1084.5189 2197.2368 1085.5516 2197.2368 1086.821 C 2197.2368 1088.0905 2196.1715 1089.1232 2194.8613 1089.1232 Z M 2201.9674 1076.6 L 2183.6327 1076.6 C 2183.1715 1076.6 2182.8 1076.9715 2182.8 1077.4327 L 2182.8 1093.3969 C 2182.8 1093.8582 2183.1715 1094.2296 2183.6327 1094.2296 L 2191.8082 1094.2296 L 2191.8082 1095.7848 C 2191.8082 1096.4583 2192.5837 1096.842 2193.1184 1096.4298 L 2194.8613 1095.0909 L 2196.604 1096.4298 C 2197.1388 1096.842 2197.9143 1096.4583 2197.9143 1095.7848 L 2197.9143 1094.2296 L 2201.9674 1094.2296 C 2202.4286 1094.2296 2202.8 1093.8582 2202.8 1093.3969 L 2202.8 1077.4327 C 2202.8 1076.9715 2202.4286 1076.6 2201.9674 1076.6 Z"/></g><g id="Graphic_397"><path fill="#fff" d="M 2188.5184 1082.0656 L 2197.0776 1082.0656 C 2197.5388 1082.0656 2197.9102 1081.6942 2197.9102 1081.233 C 2197.9102 1080.7717 2197.5388 1080.4002 2197.0776 1080.4002 L 2188.5184 1080.4002 C 2188.0572 1080.4002 2187.6857 1080.7717 2187.6857 1081.233 C 2187.6857 1081.6901 2188.0613 1082.0656 2188.5184 1082.0656 Z"/></g></g></g><g id="Line_427"><line x1="2218.706" x2="2218.51" y1="798.5" y2="855.6" stroke="#000" stroke-linecap="round" stroke-linejoin="round" stroke-width="2" marker-end="url(#FilledArrow_Marker)"/></g><g id="Graphic_428"><rect width="60.672" height="28.448" x="2072.869" y="816.24" fill="#fff"/><text fill="#000" transform="translate(2077.8691 821.2405)"><tspan x="0" y="15" fill="#000" font-family="Helvetica Neue" font-size="16" font-style="italic">4. CSR</tspan></text></g><g id="Graphic_435"><rect width="159.664" height="28.448" x="2138.768" y="815.105" fill="#fff"/><text fill="#000" transform="translate(2143.768 820.1051)"><tspan x="2.224" y="15" fill="#000" font-family="Helvetica Neue" font-size="16" font-style="italic">5. Signed Certificate</tspan></text></g><g id="Line_436"><line x1="2193.548" x2="2193.548" y1="948.5" y2="1032.1" stroke="#000" stroke-linecap="round" stroke-linejoin="round" stroke-width="2" marker-end="url(#FilledArrow_Marker)"/></g><g id="Group_434"><g id="Graphic_433"><rect width="20" height="20" x="2182.8" y="976.234" fill="#fff"/></g><g id="Group_429"><g id="Group_430"><g id="Graphic_432"><path fill="#0a55a8" d="M 2201.1347 992.1985 L 2197.9143 992.1985 L 2197.9143 989.0513 C 2198.5306 988.3533 2198.902 987.4471 2198.902 986.4553 C 2198.902 984.2674 2197.0898 982.4918 2194.8613 982.4918 C 2192.6327 982.4918 2190.8204 984.2714 2190.8204 986.4553 C 2190.8204 987.4471 2191.1919 988.3533 2191.8082 989.0513 L 2191.8082 992.1985 L 2184.4653 992.1985 L 2184.4653 977.8996 L 2201.1306 977.8996 L 2201.1306 992.1985 Z M 2194.8613 992.6107 L 2193.4857 993.6679 L 2193.4857 990.1861 C 2193.9143 990.3371 2194.3796 990.4228 2194.8613 990.4228 C 2195.343 990.4228 2195.8082 990.3412 2196.2368 990.1861 L 2196.2368 993.6679 Z M 2194.8613 988.7574 C 2193.551 988.7574 2192.4857 987.7247 2192.4857 986.4553 C 2192.4857 985.1858 2193.551 984.1531 2194.8613 984.1531 C 2196.1715 984.1531 2197.2368 985.1858 2197.2368 986.4553 C 2197.2368 987.7247 2196.1715 988.7574 2194.8613 988.7574 Z M 2201.9674 976.2342 L 2183.6327 976.2342 C 2183.1715 976.2342 2182.8 976.6057 2182.8 977.0669 L 2182.8 993.0312 C 2182.8 993.4924 2183.1715 993.8639 2183.6327 993.8639 L 2191.8082 993.8639 L 2191.8082 995.419 C 2191.8082 996.0926 2192.5837 996.4763 2193.1184 996.064 L 2194.8613 994.7251 L 2196.604 996.064 C 2197.1388 996.4763 2197.9143 996.0926 2197.9143 995.419 L 2197.9143 993.8639 L 2201.9674 993.8639 C 2202.4286 993.8639 2202.8 993.4924 2202.8 993.0312 L 2202.8 977.0669 C 2202.8 976.6057 2202.4286 976.2342 2201.9674 976.2342 Z"/></g><g id="Graphic_431"><path fill="#0a55a8" d="M 2188.5184 981.6999 L 2197.0776 981.6999 C 2197.5388 981.6999 2197.9102 981.3284 2197.9102 980.8672 C 2197.9102 980.4059 2197.5388 980.0345 2197.0776 980.0345 L 2188.5184 980.0345 C 2188.0572 980.0345 2187.6857 980.4059 2187.6857 980.8672 C 2187.6857 981.3243 2188.0613 981.6999 2188.5184 981.6999 Z"/></g></g></g></g><g id="Graphic_438"><rect width="63.344" height="28.448" x="2202.8" y="970.964" fill="#fff"/><text fill="#000" transform="translate(2207.8 975.9637)"><tspan x="0" y="15" fill="#000" font-family="Helvetica Neue" font-size="16" font-style="italic">6. SVID</tspan></text></g><g id="Line_439"><path stroke="#000" stroke-linecap="round" stroke-linejoin="round" stroke-width="2" marker-end="url(#FilledArrow_Marker)" d="M 1909.062 1210.8303 L 2020.2514 1210.8303 L 2020.2514 1085.3944 L 2072.7882 1085 L 2078.7882 1085"/></g><g id="Graphic_445"><rect width="180" height="40" x="1729.062" y="1065" fill="#0a55a8"/><rect width="180" height="40" x="1729.062" y="1065" stroke="#0a55a8" stroke-linecap="round" stroke-linejoin="round" stroke-width="1"/><text fill="#fff" transform="translate(1734.062 1075.268)"><tspan x="32.552" y="16" fill="#fff" font-family="Helvetica Neue" font-size="16" font-weight="bold">Cert Manager</tspan></text></g><g id="Line_472"><line x1="1819.062" x2="1819.062" y1="1105" y2="1177.821" stroke="#000" stroke-linecap="round" stroke-linejoin="round" stroke-width="2" marker-end="url(#FilledArrow_Marker)"/></g><g id="Graphic_473"><rect width="319.904" height="46.896" x="1659.11" y="838.428" fill="#fff"/><text fill="#000" transform="translate(1664.11 843.4276)"><tspan x="19.52" y="15" fill="#000" font-family="Helvetica Neue" font-size="16" font-style="italic">1. Watch the Kubernetes API Server &amp;</tspan> <tspan x="0" y="33.448" fill="#000" font-family="Helvetica Neue" font-size="16" font-style="italic">Register identities for them at SPIRE Server</tspan></text></g><g id="Graphic_474"><rect width="289.2" height="28.448" x="1674.462" y="1125.609" fill="#fff"/><text fill="#000" transform="translate(1679.462 1130.6085)"><tspan x="0" y="15" fill="#000" font-family="Helvetica Neue" font-size="16" font-style="italic">2. Manage the root and CA certificates</tspan></text></g><g id="Graphic_476"><rect width="24.448" height="176.272" x="2262.6" y="996.864" fill="#fff"/><text fill="#000" transform="translate(2265.6 1168.136) rotate(-90)"><tspan x="0" y="15" fill="#000" font-family="Helvetica Neue" font-size="16" font-style="italic">7. Rotate the certificate</tspan></text></g><g id="Line_477"><line x1="2262.6" x2="2224.588" y1="1085" y2="1085" stroke="#000" stroke-linecap="round" stroke-linejoin="round" stroke-width="2" marker-end="url(#FilledArrow_Marker)"/></g></g></g></svg>