<svg xmlns="http://www.w3.org/2000/svg" xmlns:xl="http://www.w3.org/1999/xlink" width="705" height="537" version="1.1" viewBox="478 426 705 537"><defs><marker id="FilledArrow_Marker" stroke-linejoin="miter" stroke-miterlimit="10" color="#000" markerHeight="6" markerUnits="strokeWidth" markerWidth="7" orient="auto" overflow="visible" viewBox="-1 -3 7 6"><g><path fill="currentColor" stroke="currentColor" stroke-width="1" d="M 4.8 0 L 0 -1.8 L 0 1.8 Z"/></g></marker></defs><g id="Multi-tenancy" fill="none" fill-opacity="1" stroke="none" stroke-dasharray="none" stroke-opacity="1"><title>Multi-tenancy</title><rect width="705" height="537" x="478" y="426" fill="#fff"/><g id="Multi-tenancy_Layer_2"><title>Layer 2</title><g id="Graphic_75"><rect width="705" height="537" x="478" y="426" fill="#fff"/></g><g id="Graphic_74"><rect width="174.25" height="413" x="618" y="451" fill="#fff"/><rect width="174.25" height="413" x="618" y="451" stroke="gray" stroke-linecap="round" stroke-linejoin="round" stroke-width="1"/><text fill="#000" transform="translate(623 456)"><tspan x="29.101" y="16" fill="#000" font-family="Helvetica Neue" font-size="16" font-weight="bold">Namespace A</tspan></text></g><g id="Graphic_73"><rect width="110" height="149" x="650.125" y="503" fill="#0a55a8"/><rect width="110" height="149" x="650.125" y="503" stroke="#fff" stroke-linecap="round" stroke-linejoin="round" stroke-width="1"/><text fill="#fff" transform="translate(655.125 548.30383)"><tspan x="26.872" y="16" fill="#fff" font-family="Helvetica Neue" font-size="16" font-weight="bold">Envoy </tspan> <tspan x="16.672" y="35.464" fill="#fff" font-family="Helvetica Neue" font-size="16" font-weight="bold">Gateway </tspan> <tspan x="11.936" y="54.928" fill="#fff" font-family="Helvetica Neue" font-size="16" font-weight="bold">Controller</tspan></text></g><g id="Graphic_72"><rect width="110" height="149" x="1037" y="540" fill="#0a55a8"/><rect width="110" height="149" x="1037" y="540" stroke="#fff" stroke-linecap="round" stroke-linejoin="round" stroke-width="1"/><text fill="#fff" transform="translate(1042 595.0359)"><tspan x="5.704" y="16" fill="#fff" font-family="Helvetica Neue" font-size="16" font-weight="bold">Kubernetes </tspan> <tspan x="9.84" y="35.464" fill="#fff" font-family="Helvetica Neue" font-size="16" font-weight="bold">API Server</tspan></text></g><g id="Line_71"><path stroke="#000" stroke-linecap="round" stroke-linejoin="round" stroke-width="2" marker-end="url(#FilledArrow_Marker)" d="M 760.125 577.5 L 816.6838 577.5 L 816.6838 614.2302 L 1018.1 614.5 L 1024.1 614.5"/></g><g id="Graphic_70"><rect width="164.96" height="46.896" x="841.773" y="591.055" fill="#fff"/><text fill="#000" transform="translate(846.7727 596.0554)"><tspan x="32.144" y="15" fill="#000" font-family="Helvetica Neue" font-size="16">Watching for</tspan> <tspan x="0" y="33.448" fill="#000" font-family="Helvetica Neue" font-size="16">HTTPRoute &amp; Service</tspan></text></g><g id="Graphic_69"><rect width="110" height="88.5" x="639.438" y="723" fill="#0a55a8"/><rect width="110" height="88.5" x="639.438" y="723" stroke="#fff" stroke-linecap="round" stroke-linejoin="round" stroke-width="1"/><text fill="#fff" transform="translate(644.4375 748.802)"><tspan x="5.408" y="15" fill="#fff" font-family="Helvetica Neue" font-size="16">Envoy Proxy </tspan> <tspan x="6.872" y="33.448" fill="#fff" font-family="Helvetica Neue" font-size="16">Deployment</tspan></text></g><g id="Graphic_68"><rect width="110" height="88.5" x="650.125" y="742.5" fill="#0a55a8"/><rect width="110" height="88.5" x="650.125" y="742.5" stroke="#fff" stroke-linecap="round" stroke-linejoin="round" stroke-width="1"/><text fill="#fff" transform="translate(655.125 768.302)"><tspan x="5.408" y="15" fill="#fff" font-family="Helvetica Neue" font-size="16">Envoy Proxy </tspan> <tspan x="6.872" y="33.448" fill="#fff" font-family="Helvetica Neue" font-size="16">Deployment</tspan></text></g><g id="Graphic_67"><rect width="110" height="88.5" x="660.813" y="762" fill="#0a55a8"/><rect width="110" height="88.5" x="660.813" y="762" stroke="#fff" stroke-linecap="round" stroke-linejoin="round" stroke-width="1"/><text fill="#fff" transform="translate(665.8125 786.7859)"><tspan x="3.008" y="16" fill="#fff" font-family="Helvetica Neue" font-size="16" font-weight="bold">Envoy Proxy </tspan> <tspan x="4.088" y="35.464" fill="#fff" font-family="Helvetica Neue" font-size="16" font-weight="bold">Deployment</tspan></text></g><g id="Line_66"><line x1="705.125" x2="705.125" y1="652" y2="729.6" stroke="#000" stroke-linecap="round" stroke-linejoin="round" stroke-width="2" marker-end="url(#FilledArrow_Marker)"/></g><g id="Graphic_65"><rect width="134.176" height="28.448" x="638.037" y="670.368" fill="#fff"/><text fill="#000" transform="translate(643.037 675.36804)"><tspan x="0" y="15" fill="#000" font-family="Helvetica Neue" font-size="16">Create &amp; Manage</tspan></text></g><g id="Graphic_64"><rect width="174.25" height="413" x="563" y="488" fill="#fff"/><rect width="174.25" height="413" x="563" y="488" stroke="gray" stroke-linecap="round" stroke-linejoin="round" stroke-width="1"/><text fill="#000" transform="translate(568 493)"><tspan x="28.949" y="16" fill="#000" font-family="Helvetica Neue" font-size="16" font-weight="bold">Namespace B</tspan></text></g><g id="Graphic_63"><rect width="110" height="149" x="595.125" y="540" fill="#0a55a8"/><rect width="110" height="149" x="595.125" y="540" stroke="#fff" stroke-linecap="round" stroke-linejoin="round" stroke-width="1"/><text fill="#fff" transform="translate(600.125 585.3038)"><tspan x="26.872" y="16" fill="#fff" font-family="Helvetica Neue" font-size="16" font-weight="bold">Envoy </tspan> <tspan x="16.672" y="35.464" fill="#fff" font-family="Helvetica Neue" font-size="16" font-weight="bold">Gateway </tspan> <tspan x="11.936" y="54.928" fill="#fff" font-family="Helvetica Neue" font-size="16" font-weight="bold">Controller</tspan></text></g><g id="Graphic_62"><rect width="110" height="88.5" x="584.438" y="760" fill="#0a55a8"/><rect width="110" height="88.5" x="584.438" y="760" stroke="#fff" stroke-linecap="round" stroke-linejoin="round" stroke-width="1"/><text fill="#fff" transform="translate(589.4375 785.802)"><tspan x="5.408" y="15" fill="#fff" font-family="Helvetica Neue" font-size="16">Envoy Proxy </tspan> <tspan x="6.872" y="33.448" fill="#fff" font-family="Helvetica Neue" font-size="16">Deployment</tspan></text></g><g id="Graphic_61"><rect width="110" height="88.5" x="595.125" y="779.5" fill="#0a55a8"/><rect width="110" height="88.5" x="595.125" y="779.5" stroke="#fff" stroke-linecap="round" stroke-linejoin="round" stroke-width="1"/><text fill="#fff" transform="translate(600.125 805.302)"><tspan x="5.408" y="15" fill="#fff" font-family="Helvetica Neue" font-size="16">Envoy Proxy </tspan> <tspan x="6.872" y="33.448" fill="#fff" font-family="Helvetica Neue" font-size="16">Deployment</tspan></text></g><g id="Graphic_60"><rect width="110" height="88.5" x="605.813" y="799" fill="#0a55a8"/><rect width="110" height="88.5" x="605.813" y="799" stroke="#fff" stroke-linecap="round" stroke-linejoin="round" stroke-width="1"/><text fill="#fff" transform="translate(610.8125 823.7859)"><tspan x="3.008" y="16" fill="#fff" font-family="Helvetica Neue" font-size="16" font-weight="bold">Envoy Proxy </tspan> <tspan x="4.088" y="35.464" fill="#fff" font-family="Helvetica Neue" font-size="16" font-weight="bold">Deployment</tspan></text></g><g id="Line_59"><line x1="650.125" x2="650.125" y1="689" y2="766.6" stroke="#000" stroke-linecap="round" stroke-linejoin="round" stroke-width="2" marker-end="url(#FilledArrow_Marker)"/></g><g id="Graphic_58"><rect width="134.176" height="28.448" x="583.037" y="707.368" fill="#fff"/><text fill="#000" transform="translate(588.037 712.368)"><tspan x="0" y="15" fill="#000" font-family="Helvetica Neue" font-size="16">Create &amp; Manage</tspan></text></g><g id="Line_57"><path stroke="#000" stroke-linecap="round" stroke-linejoin="round" stroke-width="2" marker-end="url(#FilledArrow_Marker)" d="M 705.125 614.5 L 716.125 614.5 L 1024.1 614.5825"/></g><g id="Graphic_56"><rect width="174.25" height="413" x="509" y="530" fill="#fff"/><rect width="174.25" height="413" x="509" y="530" stroke="gray" stroke-linecap="round" stroke-linejoin="round" stroke-width="1"/><text fill="#000" transform="translate(514 535)"><tspan x="28.653" y="16" fill="#000" font-family="Helvetica Neue" font-size="16" font-weight="bold">Namespace C</tspan></text></g><g id="Graphic_55"><rect width="110" height="149" x="541.125" y="582" fill="#0a55a8"/><rect width="110" height="149" x="541.125" y="582" stroke="#fff" stroke-linecap="round" stroke-linejoin="round" stroke-width="1"/><text fill="#fff" transform="translate(546.125 627.3038)"><tspan x="26.872" y="16" fill="#fff" font-family="Helvetica Neue" font-size="16" font-weight="bold">Envoy </tspan> <tspan x="16.672" y="35.464" fill="#fff" font-family="Helvetica Neue" font-size="16" font-weight="bold">Gateway </tspan> <tspan x="11.936" y="54.928" fill="#fff" font-family="Helvetica Neue" font-size="16" font-weight="bold">Controller</tspan></text></g><g id="Graphic_54"><rect width="110" height="88.5" x="530.438" y="802" fill="#0a55a8"/><rect width="110" height="88.5" x="530.438" y="802" stroke="#fff" stroke-linecap="round" stroke-linejoin="round" stroke-width="1"/><text fill="#fff" transform="translate(535.4375 827.802)"><tspan x="5.408" y="15" fill="#fff" font-family="Helvetica Neue" font-size="16">Envoy Proxy </tspan> <tspan x="6.872" y="33.448" fill="#fff" font-family="Helvetica Neue" font-size="16">Deployment</tspan></text></g><g id="Graphic_53"><rect width="110" height="88.5" x="541.125" y="821.5" fill="#0a55a8"/><rect width="110" height="88.5" x="541.125" y="821.5" stroke="#fff" stroke-linecap="round" stroke-linejoin="round" stroke-width="1"/><text fill="#fff" transform="translate(546.125 847.302)"><tspan x="5.408" y="15" fill="#fff" font-family="Helvetica Neue" font-size="16">Envoy Proxy </tspan> <tspan x="6.872" y="33.448" fill="#fff" font-family="Helvetica Neue" font-size="16">Deployment</tspan></text></g><g id="Graphic_52"><rect width="110" height="88.5" x="551.813" y="841" fill="#0a55a8"/><rect width="110" height="88.5" x="551.813" y="841" stroke="#fff" stroke-linecap="round" stroke-linejoin="round" stroke-width="1"/><text fill="#fff" transform="translate(556.8125 865.7859)"><tspan x="3.008" y="16" fill="#fff" font-family="Helvetica Neue" font-size="16" font-weight="bold">Envoy Proxy </tspan> <tspan x="4.088" y="35.464" fill="#fff" font-family="Helvetica Neue" font-size="16" font-weight="bold">Deployment</tspan></text></g><g id="Line_51"><line x1="596.125" x2="596.125" y1="731" y2="808.6" stroke="#000" stroke-linecap="round" stroke-linejoin="round" stroke-width="2" marker-end="url(#FilledArrow_Marker)"/></g><g id="Graphic_50"><rect width="134.176" height="28.448" x="529.037" y="749.368" fill="#fff"/><text fill="#000" transform="translate(534.037 754.368)"><tspan x="0" y="15" fill="#000" font-family="Helvetica Neue" font-size="16">Create &amp; Manage</tspan></text></g><g id="Line_49"><path stroke="#000" stroke-linecap="round" stroke-linejoin="round" stroke-width="2" marker-end="url(#FilledArrow_Marker)" d="M 651.125 656.5 L 816.4835 656.5 L 816.4835 614.2857 L 1024.1 614.7051"/></g></g></g></svg>