<svg xmlns="http://www.w3.org/2000/svg" xmlns:xl="http://www.w3.org/1999/xlink" width="568" height="191" version="1.1" viewBox="3035 2223 568 191"><defs><marker id="FilledArrow_Marker" stroke-linejoin="miter" stroke-miterlimit="10" color="#000" markerHeight="6" markerUnits="strokeWidth" markerWidth="7" orient="auto" overflow="visible" viewBox="-1 -3 7 6"><g><path fill="currentColor" stroke="currentColor" stroke-width="1" d="M 4.8 0 L 0 -1.8 L 0 1.8 Z"/></g></marker></defs><g id="OCSP_Stapling" fill="none" fill-opacity="1" stroke="none" stroke-dasharray="none" stroke-opacity="1"><title>OCSP Stapling</title><rect width="568" height="191" x="3035" y="2223" fill="#fff"/><g id="OCSP_Stapling_Layer_1"><title>Layer 1</title><g id="Graphic_61"><rect width="567.352" height="190.224" x="3035" y="2223.112" fill="#fff"/></g><g id="Graphic_36"><path fill="#fff" d="M 3233.552 2231.024 L 3582.152 2231.024 C 3586.5703 2231.024 3590.152 2234.6058 3590.152 2239.024 L 3590.152 2397.424 C 3590.152 2401.8423 3586.5703 2405.424 3582.152 2405.424 L 3233.552 2405.424 C 3229.1338 2405.424 3225.552 2401.8423 3225.552 2397.424 L 3225.552 2239.024 C 3225.552 2234.6058 3229.1338 2231.024 3233.552 2231.024 Z"/><path stroke="gray" stroke-linecap="round" stroke-linejoin="round" stroke-width="1" d="M 3233.552 2231.024 L 3582.152 2231.024 C 3586.5703 2231.024 3590.152 2234.6058 3590.152 2239.024 L 3590.152 2397.424 C 3590.152 2401.8423 3586.5703 2405.424 3582.152 2405.424 L 3233.552 2405.424 C 3229.1338 2405.424 3225.552 2401.8423 3225.552 2397.424 L 3225.552 2239.024 C 3225.552 2234.6058 3229.1338 2231.024 3233.552 2231.024 Z"/><text fill="#000" transform="translate(3230.552 2236.024)"><tspan x="137.764" y="16" fill="#000" font-family="Helvetica Neue" font-size="16" font-weight="bold">Istio Mesh</tspan></text></g><g id="Graphic_16"><rect width="106.991" height="40" x="3046" y="2259.5" fill="#333"/><rect width="106.991" height="40" x="3046" y="2259.5" stroke="#a5a5a5" stroke-linecap="round" stroke-linejoin="round" stroke-width=".5"/><text fill="#fff" transform="translate(3051 2269.768)"><tspan x="33.239" y="16" fill="#fff" font-family="Helvetica Neue" font-size="16" font-weight="bold">App</tspan></text></g><g id="Graphic_15"><path fill="#333" d="M 3046 2396 L 3046 2364 C 3046 2361.792 3069.966 2360 3099.4955 2360 C 3129.025 2360 3152.991 2361.792 3152.991 2364 L 3152.991 2396 C 3152.991 2398.208 3129.025 2400 3099.4955 2400 C 3069.966 2400 3046 2398.208 3046 2396"/><path stroke="#fff" stroke-linecap="round" stroke-linejoin="round" stroke-width="1" d="M 3046 2396 L 3046 2364 C 3046 2361.792 3069.966 2360 3099.4955 2360 C 3129.025 2360 3152.991 2361.792 3152.991 2364 L 3152.991 2396 C 3152.991 2398.208 3129.025 2400 3099.4955 2400 C 3069.966 2400 3046 2398.208 3046 2396 M 3046 2364 C 3046 2366.208 3069.966 2368 3099.4955 2368 C 3129.025 2368 3152.991 2366.208 3152.991 2364"/><text fill="#fff" transform="translate(3051 2372.268)"><tspan x="37.087" y="16" fill="#fff" font-family="Helvetica Neue" font-size="16" font-weight="bold">CA</tspan></text></g><g id="Graphic_38"><rect width="106.991" height="40" x="3241.335" y="2259.5" fill="#333"/><rect width="106.991" height="40" x="3241.335" y="2259.5" stroke="#a5a5a5" stroke-linecap="round" stroke-linejoin="round" stroke-width=".5"/><text fill="#fff" transform="translate(3246.3346 2260.036)"><tspan x="32.071" y="16" fill="#fff" font-family="Helvetica Neue" font-size="16" font-weight="bold">Istio </tspan> <tspan x="15.167" y="35.464" fill="#fff" font-family="Helvetica Neue" font-size="16" font-weight="bold">Gateway</tspan></text></g><g id="Line_39"><line x1="3152.991" x2="3228.435" y1="2279.5" y2="2279.5" stroke="#000" stroke-linecap="round" stroke-linejoin="round" stroke-width="2" marker-end="url(#FilledArrow_Marker)"/></g><g id="Graphic_40"><rect width="106.991" height="40" x="3473.5" y="2259.5" fill="#333"/><rect width="106.991" height="40" x="3473.5" y="2259.5" stroke="#a5a5a5" stroke-linecap="round" stroke-linejoin="round" stroke-width=".5"/><text fill="#fff" transform="translate(3478.5 2269.768)"><tspan x="33.383" y="16" fill="#fff" font-family="Helvetica Neue" font-size="16" font-weight="bold">Pod</tspan></text></g><g id="Line_41"><line x1="3348.325" x2="3460.6" y1="2279.5" y2="2279.5" stroke="#000" stroke-linecap="round" stroke-linejoin="round" stroke-width="2" marker-end="url(#FilledArrow_Marker)"/></g><g id="Graphic_42"><rect width="106.991" height="40" x="3348.2" y="2360" fill="#333"/><rect width="106.991" height="40" x="3348.2" y="2360" stroke="#a5a5a5" stroke-linecap="round" stroke-linejoin="round" stroke-width=".5"/><text fill="#fff" transform="translate(3353.2 2370.268)"><tspan x="27.183" y="16" fill="#fff" font-family="Helvetica Neue" font-size="16" font-weight="bold">Istiod</tspan></text></g><g id="Graphic_43"><text fill="#000" transform="translate(3158.32 2343.9158)"><tspan x="9.64" y="15" fill="#000" font-family="Helvetica Neue" font-size="16" font-style="italic">OCSP</tspan> <tspan x="0" y="33.448" fill="#000" font-family="Helvetica Neue" font-size="16" font-style="italic">Stapling/</tspan> <tspan x="16.152" y="51.896" fill="#000" font-family="Helvetica Neue" font-size="16" font-style="italic">CRL</tspan></text></g><g id="Line_44"><path stroke="#000" stroke-linecap="round" stroke-linejoin="round" stroke-width="2" marker-end="url(#FilledArrow_Marker)" d="M 3152.991 2382.0175 L 3260.7456 2382.0175 L 3260.7456 2312.4"/></g><g id="Group_4"><g id="Group_5"><g id="Graphic_58"><rect width="20" height="20" x="3249.8" y="2324.2" fill="#fff"/></g><g id="Graphic_7"><path fill="#0a55a8" d="M 3268.1347 2340.1642 L 3264.9143 2340.1642 L 3264.9143 2337.017 C 3265.5307 2336.319 3265.902 2335.413 3265.902 2334.421 C 3265.902 2332.2332 3264.09 2330.4575 3261.8613 2330.4575 C 3259.6327 2330.4575 3257.8205 2332.2372 3257.8205 2334.421 C 3257.8205 2335.413 3258.192 2336.319 3258.8082 2337.017 L 3258.8082 2340.1642 L 3251.4654 2340.1642 L 3251.4654 2325.8654 L 3268.1307 2325.8654 L 3268.1307 2340.1642 Z M 3261.8613 2340.5765 L 3260.4858 2341.6337 L 3260.4858 2338.152 C 3260.9143 2338.303 3261.3796 2338.3886 3261.8613 2338.3886 C 3262.343 2338.3886 3262.8082 2338.307 3263.2368 2338.152 L 3263.2368 2341.6337 Z M 3261.8613 2336.7232 C 3260.551 2336.7232 3259.4858 2335.6905 3259.4858 2334.421 C 3259.4858 2333.1516 3260.551 2332.119 3261.8613 2332.119 C 3263.1715 2332.119 3264.2368 2333.1516 3264.2368 2334.421 C 3264.2368 2335.6905 3263.1715 2336.7232 3261.8613 2336.7232 Z M 3268.9674 2324.2 L 3250.6327 2324.2 C 3250.1715 2324.2 3249.8 2324.5715 3249.8 2325.0327 L 3249.8 2340.997 C 3249.8 2341.4582 3250.1715 2341.8297 3250.6327 2341.8297 L 3258.8082 2341.8297 L 3258.8082 2343.3848 C 3258.8082 2344.0584 3259.5837 2344.442 3260.1184 2344.0298 L 3261.8613 2342.691 L 3263.604 2344.0298 C 3264.139 2344.442 3264.9143 2344.0584 3264.9143 2343.3848 L 3264.9143 2341.8297 L 3268.9674 2341.8297 C 3269.4286 2341.8297 3269.8 2341.4582 3269.8 2340.997 L 3269.8 2325.0327 C 3269.8 2324.5715 3269.4286 2324.2 3268.9674 2324.2 Z"/></g><g id="Graphic_6"><path fill="#0a55a8" d="M 3255.5184 2329.6657 L 3264.0776 2329.6657 C 3264.539 2329.6657 3264.9103 2329.2942 3264.9103 2328.833 C 3264.9103 2328.3717 3264.539 2328.0003 3264.0776 2328.0003 L 3255.5184 2328.0003 C 3255.057 2328.0003 3254.6858 2328.3717 3254.6858 2328.833 C 3254.6858 2329.29 3255.0613 2329.6657 3255.5184 2329.6657 Z"/></g></g></g><g id="Line_47"><path stroke="#000" stroke-linecap="round" stroke-linejoin="round" stroke-width="2" marker-end="url(#FilledArrow_Marker)" d="M 3401.6955 2360 L 3401.6955 2329.75 L 3294.83 2329.75 L 3294.83 2312.4"/></g><g id="Line_48"><path stroke="#000" stroke-linecap="round" stroke-linejoin="round" stroke-width="2" marker-end="url(#FilledArrow_Marker)" d="M 3401.6955 2360 L 3401.6955 2329.75 L 3526.9955 2329.75 L 3526.9955 2312.4"/></g><g id="Graphic_51"><text fill="#000" transform="translate(3159.8 2261)"><tspan x="0" y="15" fill="#000" font-family="Helvetica Neue" font-size="16" font-style="italic">Connect</tspan></text></g><g id="Group_52"><title>XMLID_504_</title><g id="Graphic_53"><title>XMLID_505_</title><path fill="#40ff40" d="M 3398.6218 2288.666 L 3409.5783 2288.666 C 3410.032 2288.666 3410.4 2288.293 3410.4 2287.8327 L 3410.4 2278.389 C 3410.4 2277.9288 3410.032 2277.5557 3409.5783 2277.5557 L 3408.7566 2277.5557 L 3408.7566 2275.056 C 3408.7566 2272.4522 3406.6677 2270.334 3404.1 2270.334 C 3401.5324 2270.334 3399.4435 2272.4522 3399.4435 2275.056 L 3399.4435 2277.5557 L 3398.6218 2277.5557 C 3398.168 2277.5557 3397.8 2277.9288 3397.8 2278.389 L 3397.8 2287.8327 C 3397.8 2288.293 3398.168 2288.666 3398.6218 2288.666 Z M 3406.4273 2282.5196 L 3404.099 2284.8805 C 3403.9386 2285.0432 3403.7282 2285.1246 3403.518 2285.1246 C 3403.3077 2285.1246 3403.0974 2285.0432 3402.937 2284.8805 L 3401.773 2283.7 C 3401.452 2283.3746 3401.452 2282.847 3401.773 2282.5216 C 3402.0937 2282.1962 3402.614 2282.1962 3402.935 2282.5216 L 3403.518 2283.1128 L 3405.2653 2281.3411 C 3405.586 2281.0157 3406.1065 2281.0157 3406.4274 2281.3411 C 3406.7482 2281.6666 3406.7482 2282.1941 3406.4273 2282.5196 Z M 3401.087 2275.056 C 3401.087 2273.3712 3402.4387 2272.0005 3404.1 2272.0005 C 3405.7614 2272.0005 3407.113 2273.3712 3407.113 2275.056 L 3407.113 2277.5557 L 3401.087 2277.5557 Z"/></g></g><g id="Graphic_59"><text fill="#000" transform="translate(3385.6955 2311.6)"><tspan x="0" y="15" fill="#000" font-family="Helvetica Neue" font-size="16" font-style="italic">SDS</tspan></text></g></g></g></svg>