<svg xmlns="http://www.w3.org/2000/svg" xmlns:xl="http://www.w3.org/1999/xlink" width="1122" height="852" version="1.1" viewBox="-4713 -859 1122 852"><defs><marker id="FilledArrow_Marker" stroke-linejoin="miter" stroke-miterlimit="10" color="#000" markerHeight="6" markerUnits="strokeWidth" markerWidth="7" orient="auto" overflow="visible" viewBox="-1 -3 7 6"><g><path fill="currentColor" stroke="currentColor" stroke-width="1" d="M 4.8 0 L 0 -1.8 L 0 1.8 Z"/></g></marker><marker id="FilledArrow_Marker_2" stroke-linejoin="miter" stroke-miterlimit="10" color="#0068ae" markerHeight="6" markerUnits="strokeWidth" markerWidth="7" orient="auto" overflow="visible" viewBox="-1 -3 7 6"><g><path fill="currentColor" stroke="currentColor" stroke-width="1" d="M 4.8 0 L 0 -1.8 L 0 1.8 Z"/></g></marker></defs><g id="GitOps_with_Istio_Architecure" fill="none" fill-opacity="1" stroke="none" stroke-dasharray="none" stroke-opacity="1"><title>GitOps with Istio Architecure</title><rect width="1122" height="852" x="-4713" y="-859" fill="#fff"/><g id="GitOps_with_Istio_Architecure_Layer_1"><title>Layer 1</title><g id="Graphic_166"><rect width="1091.339" height="851.811" x="-4682.835" y="-858.898" fill="#fff"/></g><g id="Graphic_33"><rect width="591.378" height="547.087" x="-4206.968" y="-569.764" stroke="gray" stroke-linecap="round" stroke-linejoin="round" stroke-width="1"/><text fill="#000" transform="translate(-4201.9685 -47.141277)"><tspan x="526.898" y="16" fill="#000" font-family="Helvetica Neue" font-size="16" font-weight="bold">Rollout</tspan></text></g><g id="Graphic_47"><rect width="242.575" height="232.441" x="-3881.905" y="-395.433" stroke="gray" stroke-linecap="round" stroke-linejoin="round" stroke-width="1"/><text fill="#000" transform="translate(-3876.9055 -187.45624)"><tspan x="199.727" y="16" fill="#000" font-family="Helvetica Neue" font-size="16" font-weight="bold">Istio</tspan></text></g><g id="Graphic_2"><rect width="238.11" height="76.535" x="-4190.669" y="-846.232" fill="#fff"/><rect width="238.11" height="76.535" x="-4190.669" y="-846.232" stroke="gray" stroke-linecap="round" stroke-linejoin="round" stroke-width="1"/><text fill="#000" transform="translate(-4185.6693 -805.1609)"><tspan x="4.271" y="16" fill="#000" font-family="Helvetica Neue" font-size="16" font-weight="bold">TSE/TSB Management Plane</tspan></text></g><g id="Graphic_4"><rect width="238.11" height="76.535" x="-4190.669" y="-671.811" fill="#fff"/><rect width="238.11" height="76.535" x="-4190.669" y="-671.811" stroke="gray" stroke-linecap="round" stroke-linejoin="round" stroke-width="1"/><text fill="#000" transform="translate(-4185.6693 -630.7397)"><tspan x="43.559" y="16" fill="#000" font-family="Helvetica Neue" font-size="16" font-weight="bold">Istio Control Plane</tspan></text></g><g id="Graphic_5"><title>Account Box</title><path fill="#000" d="M -4632.803 -652.50394 L -4632.803 -614.5827 C -4632.803 -611.60315 -4630.3925 -609.16536 -4627.386 -609.16536 L -4589.4646 -609.16536 C -4586.485 -609.16536 -4584.0473 -611.60315 -4584.0473 -614.5827 L -4584.0473 -652.50394 C -4584.0473 -655.4835 -4586.485 -657.9213 -4589.4646 -657.9213 L -4627.386 -657.9213 C -4630.3925 -657.9213 -4632.803 -655.4835 -4632.803 -652.50394 Z M -4600.299 -641.6693 C -4600.299 -637.1729 -4603.929 -633.5433 -4608.425 -633.5433 C -4612.9216 -633.5433 -4616.551 -637.1729 -4616.551 -641.6693 C -4616.551 -646.1657 -4612.9216 -649.7953 -4608.425 -649.7953 C -4603.929 -649.7953 -4600.299 -646.1657 -4600.299 -641.6693 Z M -4624.677 -620 C -4624.677 -625.4173 -4613.8426 -628.39686 -4608.425 -628.39686 C -4603.008 -628.39686 -4592.173 -625.4173 -4592.173 -620 L -4592.173 -617.29134 L -4624.677 -617.29134 L -4624.677 -620 Z"/></g><g id="Line_6"><line x1="-4608.425" x2="-4608.425" y1="-609.165" y2="-544.396" stroke="#000" stroke-linecap="round" stroke-linejoin="round" stroke-width="2" marker-end="url(#FilledArrow_Marker)"/></g><g id="Graphic_25"><rect width="1" height="1.417" x="-3619.843" y="-803.622" fill="#fff"/><rect width="1" height="1.417" x="-3619.843" y="-803.622" stroke="gray" stroke-linecap="round" stroke-linejoin="round" stroke-width="1"/></g><g id="Line_27"><path stroke="#000" stroke-linecap="round" stroke-linejoin="round" stroke-width="2" marker-end="url(#FilledArrow_Marker)" d="M -4608.425 -657.9213 L -4608.425 -722.6673 L -4489.291 -722.6673 L -4489.291 -774.5133"/></g><g id="Graphic_28"><rect width="208.346" height="76.535" x="-4454.221" y="-400.394" fill="#ef794b"/><text fill="#fff" transform="translate(-4449.2205 -371.85804)"><tspan x="11.277" y="16" fill="#fff" font-family="Helvetica Neue" font-size="16" font-weight="bold">Argo Rollout Controller</tspan></text></g><g id="Graphic_29"><rect width="208.346" height="76.535" x="-4454.221" y="-266.457" fill="#ef794b"/><text fill="#fff" transform="translate(-4449.2205 -237.92103)"><tspan x="32.693" y="16" fill="#fff" font-family="Helvetica Neue" font-size="16" font-weight="bold">AnalysisTemplate</tspan></text></g><g id="Graphic_30"><rect width="208.346" height="76.535" x="-4175.787" y="-531.496" fill="#ef794b"/><text fill="#fff" transform="translate(-4170.7874 -502.9604)"><tspan x="52.221" y="16" fill="#fff" font-family="Helvetica Neue" font-size="16" font-weight="bold">AnalysisRun</tspan></text></g><g id="Graphic_34"><rect width="238.11" height="153.071" x="-4190.669" y="-391.181" stroke="gray" stroke-linecap="round" stroke-linejoin="round" stroke-width="1"/><text fill="#000" transform="translate(-4185.6693 -262.57435)"><tspan x="87.086" y="16" fill="#000" font-family="Helvetica Neue" font-size="16" font-weight="bold">Canary ReplicaSet</tspan></text></g><g id="Graphic_35"><rect width="177.52" height="76.535" x="-4175.787" y="-352.913" fill="#666"/><rect width="177.52" height="76.535" x="-4175.787" y="-352.913" stroke="#fff" stroke-linecap="round" stroke-linejoin="round" stroke-width="1"/><text fill="#fff" transform="translate(-4170.7874 -324.37773)"><tspan x="39.304" y="16" fill="#fff" font-family="Helvetica Neue" font-size="16" font-weight="bold">Canary Pod</tspan></text></g><g id="Graphic_36"><rect width="177.52" height="76.535" x="-4160.374" y="-365.669" fill="#666"/><rect width="177.52" height="76.535" x="-4160.374" y="-365.669" stroke="#fff" stroke-linecap="round" stroke-linejoin="round" stroke-width="1"/><text fill="#fff" transform="translate(-4155.374 -337.13363)"><tspan x="39.304" y="16" fill="#fff" font-family="Helvetica Neue" font-size="16" font-weight="bold">Canary Pod</tspan></text></g><g id="Graphic_37"><rect width="177.52" height="76.535" x="-4145.915" y="-379.394" fill="#666"/><rect width="177.52" height="76.535" x="-4145.915" y="-379.394" stroke="#fff" stroke-linecap="round" stroke-linejoin="round" stroke-width="1"/><text fill="#fff" transform="translate(-4140.9154 -350.85804)"><tspan x="39.304" y="16" fill="#fff" font-family="Helvetica Neue" font-size="16" font-weight="bold">Canary Pod</tspan></text></g><g id="Graphic_41"><rect width="238.11" height="153.071" x="-4190.669" y="-212.598" stroke="gray" stroke-linecap="round" stroke-linejoin="round" stroke-width="1"/><text fill="#000" transform="translate(-4185.6693 -83.99167)"><tspan x="93.038" y="16" fill="#000" font-family="Helvetica Neue" font-size="16" font-weight="bold">Stable ReplicaSet</tspan></text></g><g id="Graphic_40"><rect width="177.52" height="76.535" x="-4175.787" y="-174.331" fill="#666"/><rect width="177.52" height="76.535" x="-4175.787" y="-174.331" stroke="#fff" stroke-linecap="round" stroke-linejoin="round" stroke-width="1"/><text fill="#fff" transform="translate(-4170.7874 -145.79505)"><tspan x="42.28" y="16" fill="#fff" font-family="Helvetica Neue" font-size="16" font-weight="bold">Stable Pod</tspan></text></g><g id="Graphic_39"><rect width="177.52" height="76.535" x="-4160.374" y="-187.087" fill="#666"/><rect width="177.52" height="76.535" x="-4160.374" y="-187.087" stroke="#fff" stroke-linecap="round" stroke-linejoin="round" stroke-width="1"/><text fill="#fff" transform="translate(-4155.374 -158.55096)"><tspan x="42.28" y="16" fill="#fff" font-family="Helvetica Neue" font-size="16" font-weight="bold">Stable Pod</tspan></text></g><g id="Graphic_38"><rect width="177.52" height="76.535" x="-4145.915" y="-200.811" fill="#666"/><rect width="177.52" height="76.535" x="-4145.915" y="-200.811" stroke="#fff" stroke-linecap="round" stroke-linejoin="round" stroke-width="1"/><text fill="#fff" transform="translate(-4140.9154 -172.27536)"><tspan x="42.28" y="16" fill="#fff" font-family="Helvetica Neue" font-size="16" font-weight="bold">Stable Pod</tspan></text></g><g id="Graphic_42"><rect width="96.352" height="28.448" x="-4656.601" y="-707.294" fill="#fff"/><text fill="#000" transform="translate(-4651.601 -702.29406)"><tspan x="0" y="15" fill="#000" font-family="Helvetica Neue" font-size="16" font-style="italic">Push/Merge</tspan></text></g><g id="Graphic_44"><rect width="208.346" height="57.661" x="-3864.791" y="-379.394" fill="#0a55a8"/><text fill="#fff" transform="translate(-3859.7914 -360.29505)"><tspan x="46.581" y="16" fill="#fff" font-family="Helvetica Neue" font-size="16" font-weight="bold">VirtualService</tspan></text></g><g id="Graphic_45"><rect width="208.346" height="76.535" x="-3864.791" y="-846.232" fill="#0a55a8"/><text fill="#fff" transform="translate(-3859.7914 -817.6965)"><tspan x="65.845" y="16" fill="#fff" font-family="Helvetica Neue" font-size="16" font-weight="bold">Gateway</tspan></text></g><g id="Graphic_46"><rect width="208.346" height="57.661" x="-3864.791" y="-277.795" fill="#0a55a8"/><text fill="#fff" transform="translate(-3859.7914 -258.69662)"><tspan x="38.453" y="16" fill="#fff" font-family="Helvetica Neue" font-size="16" font-weight="bold">DestinationRule</tspan></text></g><g id="Line_51"><path stroke="#0068ae" stroke-linecap="round" stroke-linejoin="round" stroke-width="2" marker-end="url(#FilledArrow_Marker_2)" d="M -3760.618 -595.2756 L -3760.618 -429.36436 L -4057.1555 -429.36436 L -4057.1555 -392.2937"/></g><g id="Line_52"><line x1="-4071.614" x2="-4071.614" y1="-769.697" y2="-684.711" stroke="#000" stroke-linecap="round" stroke-linejoin="round" stroke-width="2" marker-end="url(#FilledArrow_Marker)"/></g><g id="Line_53"><path stroke="#000" stroke-linecap="round" stroke-linejoin="round" stroke-width="2" marker-end="url(#FilledArrow_Marker)" d="M -4350.0473 -400.3937 L -4350.0473 -518.6813 L -4219.8685 -518.6813"/></g><g id="Line_54"><path stroke="#000" stroke-linecap="round" stroke-linejoin="round" stroke-width="2" marker-end="url(#FilledArrow_Marker)" d="M -4245.874 -228.18898 L -4234.874 -228.18898 L -4231.3636 -228.63636 L -4231.579 -465.3509 L -4231.579 -493.22835 L -4188.6874 -493.22835"/></g><g id="Group_55"><g id="Group_56"><g id="Group_58"><g id="Graphic_60"><path fill="#326ce5" d="M -4608.6583 -347.2403 C -4609.3074 -347.20366 -4609.942 -347.04213 -4610.525 -346.76527 L -4635.803 -335.1817 C -4637.1233 -334.5781 -4638.083 -333.42978 -4638.4116 -332.06137 L -4644.599 -306.0637 C -4644.894 -304.84345 -4644.656 -303.56437 -4643.9186 -302.51845 C -4643.8324 -302.39207 -4643.7417 -302.27005 -4643.6464 -302.15238 L -4626.182 -281.2906 C -4625.259 -280.2011 -4623.873 -279.57574 -4622.412 -279.58228 L -4594.401 -279.58228 C -4592.9356 -279.5801 -4591.5476 -280.23598 -4590.6267 -281.31022 L -4573.171 -302.17635 C -4572.255 -303.26585 -4571.9124 -304.704 -4572.264 -306.06805 L -4578.492 -332.0875 C -4578.821 -333.45593 -4579.785 -334.60426 -4581.1006 -335.20784 L -4606.338 -346.7631 C -4607.065 -347.1077 -4607.871 -347.27175 -4608.681 -347.2403 Z"/></g><g id="Graphic_59"><path fill="#fff" d="M -4608.427 -338.38047 C -4609.298 -338.32164 -4609.958 -337.60475 -4609.9126 -336.768 L -4609.9126 -336.35836 C -4609.872 -335.89423 -4609.799 -335.43446 -4609.704 -334.97905 C -4609.565 -334.10696 -4609.5147 -333.2239 -4609.554 -332.34246 C -4609.6404 -332.05265 -4609.813 -331.79117 -4610.0487 -331.5907 L -4610.0827 -330.97622 C -4611.0013 -330.90214 -4611.913 -330.76704 -4612.811 -330.57093 C -4616.59 -329.75162 -4620.0307 -327.86897 -4622.6867 -325.1561 L -4623.231 -325.52654 C -4623.5304 -325.43938 -4623.8525 -325.47206 -4624.127 -325.6137 C -4624.863 -326.1372 -4625.5445 -326.7283 -4626.1614 -327.3787 C -4626.4713 -327.7344 -4626.8023 -328.07272 -4627.1526 -328.39193 L -4627.4883 -328.64905 C -4627.7877 -328.88002 -4628.155 -329.01294 -4628.5384 -329.03037 C -4629.0024 -329.054 -4629.45 -328.86284 -4629.743 -328.51613 C -4630.2554 -327.8254 -4630.0876 -326.8688 -4629.371 -326.37417 L -4629.058 -326.13448 C -4628.655 -325.87695 -4628.237 -325.64195 -4627.806 -325.43066 C -4627.003 -325.0014 -4626.2454 -324.49805 -4625.542 -323.90536 C -4625.3624 -323.65896 -4625.258 -323.3691 -4625.2406 -323.06862 L -4624.746 -322.63282 C -4627.4157 -318.7847 -4628.511 -314.12382 -4627.826 -309.54574 L -4628.4613 -309.3714 C -4628.627 -309.11865 -4628.847 -308.90293 -4629.11 -308.74386 C -4629.996 -308.51655 -4630.903 -308.3728 -4631.818 -308.3146 C -4632.304 -308.30512 -4632.7885 -308.26875 -4633.27 -308.20565 L -4633.671 -308.1185 L -4633.7166 -308.1185 C -4634.285 -308.04274 -4634.76 -307.6661 -4634.9456 -307.1447 C -4635.131 -306.62327 -4634.9953 -306.0459 -4634.5943 -305.65186 C -4634.1896 -305.2598 -4633.589 -305.12066 -4633.043 -305.29232 L -4633.0135 -305.29232 L -4632.605 -305.3359 C -4632.145 -305.46664 -4631.691 -305.6279 -4631.249 -305.81093 C -4630.3983 -306.13778 -4629.516 -306.38836 -4628.6133 -306.5518 C -4628.3003 -306.53435 -4628.001 -306.43194 -4627.747 -306.25762 L -4627.0664 -306.36657 C -4625.592 -301.97152 -4622.494 -298.2476 -4618.357 -295.90082 L -4618.6335 -295.34518 C -4618.5065 -295.09023 -4618.459 -294.80696 -4618.4974 -294.52587 C -4618.8717 -293.6935 -4619.33 -292.89598 -4619.865 -292.1464 C -4620.159 -291.77456 -4620.43 -291.38678 -4620.677 -290.985 L -4620.87 -290.59277 C -4621.155 -290.11747 -4621.139 -289.52868 -4620.828 -289.06855 C -4620.517 -288.60842 -4619.9636 -288.35465 -4619.3956 -288.4116 C -4618.826 -288.4731 -4618.3413 -288.83707 -4618.1413 -289.35292 L -4617.953 -289.72335 C -4617.7807 -290.15915 -4617.6356 -290.60367 -4617.5176 -291.05254 C -4617.116 -292.00477 -4616.8984 -293.02672 -4616.3495 -293.65863 C -4616.17 -293.82065 -4615.944 -293.92695 -4615.701 -293.9637 L -4615.3606 -294.55856 C -4610.876 -292.90255 -4605.9137 -292.89092 -4601.4207 -294.52587 L -4601.119 -293.97023 C -4600.8106 -293.92665 -4600.534 -293.76322 -4600.348 -293.52353 C -4599.9215 -292.74345 -4599.577 -291.92632 -4599.3136 -291.08305 C -4599.1937 -290.6315 -4599.047 -290.187 -4598.8736 -289.75168 L -4598.6854 -289.38125 C -4598.4835 -288.8674 -4597.9985 -288.5059 -4597.4303 -288.44565 C -4596.862 -288.3854 -4596.307 -288.63662 -4595.993 -289.0958 C -4595.6825 -289.55775 -4595.6685 -290.1482 -4595.957 -290.62328 L -4596.154 -291.0155 C -4596.4014 -291.41588 -4596.6725 -291.8022 -4596.966 -292.17255 C -4597.488 -292.89598 -4597.937 -293.66735 -4598.327 -294.47576 C -4598.4005 -294.77437 -4598.345 -295.08887 -4598.173 -295.34736 C -4598.2695 -295.5374 -4598.3536 -295.7332 -4598.4245 -295.9335 C -4594.2965 -298.29773 -4591.212 -302.0347 -4589.7535 -306.4363 L -4589.1093 -306.32735 C -4588.878 -306.53 -4588.574 -306.63677 -4588.2633 -306.62805 C -4587.363 -306.46245 -4586.4806 -306.19225 -4585.628 -305.8872 C -4585.1855 -305.69108 -4584.732 -305.52548 -4584.2714 -305.38602 C -4584.1625 -305.3577 -4584.004 -305.33372 -4583.8813 -305.3054 L -4583.852 -305.3054 C -4583.306 -305.13602 -4582.707 -305.27645 -4582.304 -305.66847 C -4581.9006 -306.0605 -4581.7616 -306.63728 -4581.9443 -307.15973 C -4582.131 -307.68173 -4582.6087 -308.0578 -4583.178 -308.13156 L -4583.618 -308.2318 C -4584.0995 -308.2949 -4584.584 -308.33127 -4585.07 -308.34075 C -4585.986 -308.3974 -4586.8934 -308.5412 -4587.778 -308.77 C -4588.05 -308.916 -4588.277 -309.1339 -4588.431 -309.39756 L -4589.0435 -309.5719 C -4588.3906 -314.1478 -4589.509 -318.7948 -4592.187 -322.63064 L -4591.652 -323.10567 C -4591.6746 -323.4042 -4591.5725 -323.70053 -4591.3706 -323.92933 C -4590.6743 -324.5046 -4589.919 -325.0123 -4589.125 -325.4459 C -4588.694 -325.6573 -4588.276 -325.8923 -4587.873 -326.14973 L -4587.542 -326.40685 C -4587.0444 -326.70357 -4586.7686 -327.2486 -4586.833 -327.80784 C -4586.8974 -328.36708 -4587.2906 -328.841 -4587.8437 -329.026 C -4588.3963 -329.2108 -4589.0103 -329.07437 -4589.4223 -328.6752 L -4589.758 -328.41807 C -4590.1083 -328.0988 -4590.439 -327.7605 -4590.749 -327.40484 C -4591.348 -326.74678 -4592.01 -326.14755 -4592.729 -325.6115 C -4593.0194 -325.49803 -4593.337 -325.46482 -4593.6456 -325.51564 L -4594.2194 -325.12342 C -4597.531 -328.4573 -4601.9923 -330.52735 -4606.7735 -330.94136 C -4606.7735 -331.15926 -4606.803 -331.4861 -4606.8075 -331.58852 C -4607.064 -331.7585 -4607.243 -332.0178 -4607.302 -332.31195 C -4607.3334 -333.19193 -4607.2757 -334.07277 -4607.1296 -334.942 C -4607.032 -335.3996 -4606.964 -335.8572 -4606.921 -336.3213 L -4606.921 -336.7571 C -4606.8756 -337.59385 -4607.5333 -338.31074 -4608.4065 -338.36958 Z M -4610.3186 -327.12375 L -4610.772 -319.5125 L -4610.806 -319.5125 C -4610.829 -319.04183 -4611.117 -318.6409 -4611.559 -318.41427 C -4612.0015 -318.18766 -4612.5255 -318.2552 -4612.92 -318.53194 L -4619.4183 -322.9553 C -4617.35 -324.907 -4614.755 -326.2647 -4611.9267 -326.87534 C -4611.396 -326.9843 -4610.8607 -327.0671 -4610.323 -327.12375 Z M -4606.5353 -327.12375 C -4603.122 -326.71627 -4599.944 -325.24327 -4597.4855 -322.93135 L -4603.9225 -318.5363 C -4604.3194 -318.23124 -4604.864 -318.17023 -4605.324 -318.3794 C -4605.7846 -318.5886 -4606.0794 -319.0331 -4606.086 -319.5212 Z M -4621.777 -320.0921 L -4615.8347 -314.9976 L -4615.8347 -314.9649 C -4615.465 -314.6555 -4615.304 -314.17394 -4615.413 -313.71417 C -4615.5217 -313.2544 -4615.889 -312.8905 -4616.3586 -312.7663 L -4616.3586 -312.7445 L -4623.984 -310.6374 C -4624.3614 -313.93793 -4623.584 -317.2652 -4621.775 -320.0943 Z M -4595.12 -320.0921 C -4593.3144 -317.2703 -4592.516 -313.9604 -4592.847 -310.66356 L -4600.484 -312.7772 L -4600.484 -312.80552 C -4600.9603 -312.92973 -4601.323 -313.29362 -4601.43 -313.7534 C -4601.5364 -314.21316 -4601.3776 -314.69036 -4601.008 -315.00414 L -4595.111 -320.07467 Z M -4609.645 -314.60102 L -4607.2135 -314.60102 L -4605.728 -312.7881 L -4606.2677 -310.52193 L -4608.452 -309.51305 L -4610.6407 -310.52193 L -4611.1555 -312.7881 Z M -4601.856 -308.417 C -4601.754 -308.4279 -4601.6294 -308.4279 -4601.55 -308.417 L -4593.6864 -307.1423 C -4594.8205 -304.00453 -4597.059 -301.32436 -4599.9805 -299.53104 L -4603.02 -306.59972 C -4603.1893 -306.98456 -4603.1536 -307.42457 -4602.924 -307.7795 C -4602.6944 -308.13444 -4602.2995 -308.36 -4601.865 -308.38433 Z M -4615.0635 -308.38433 C -4614.619 -308.3778 -4614.2084 -308.1577 -4613.966 -307.80035 C -4613.723 -307.443 -4613.6845 -306.99412 -4613.859 -306.6019 L -4613.859 -306.57358 L -4616.88 -299.56155 C -4619.772 -301.3418 -4621.9677 -303.98928 -4623.136 -307.09436 L -4615.34 -308.3647 C -4615.254 -308.37343 -4615.1656 -308.37343 -4615.077 -308.3647 Z M -4608.477 -305.33372 C -4607.9715 -305.34904 -4607.5003 -305.0894 -4607.259 -304.6626 L -4607.2294 -304.6626 L -4603.387 -298.00138 L -4604.9227 -297.56558 C -4607.749 -296.94457 -4610.6996 -297.09056 -4613.4463 -297.9883 L -4609.5905 -304.6495 C -4609.357 -305.04174 -4608.926 -305.28143 -4608.4564 -305.29232 Z"/></g></g><g id="Graphic_57"><text fill="#000" transform="translate(-4652.721 -274.58222)"><tspan x="0" y="16" fill="#000" font-family="Helvetica Neue" font-size="16" font-weight="bold">Kubernetes</tspan> <tspan x="4.136" y="35.464" fill="#000" font-family="Helvetica Neue" font-size="16" font-weight="bold">API Server</tspan></text></g></g></g><g id="Graphic_62"><rect width="208.346" height="76.535" x="-4454.221" y="-671.811" fill="#ef794b"/><text fill="#fff" transform="translate(-4449.2205 -643.2754)"><tspan x="27.173" y="16" fill="#fff" font-family="Helvetica Neue" font-size="16" font-weight="bold">Repository Service</tspan></text></g><g id="Graphic_63"><rect width="208.346" height="76.535" x="-4454.221" y="-136.063" fill="#ef794b"/><text fill="#fff" transform="translate(-4449.2205 -107.52733)"><tspan x="15.805" y="16" fill="#fff" font-family="Helvetica Neue" font-size="16" font-weight="bold">Applicaiton Controller</tspan></text></g><g id="Line_65"><path stroke="#000" stroke-linecap="round" stroke-linejoin="round" stroke-width="2" marker-end="url(#FilledArrow_Marker)" d="M -4350.0473 -671.811 L -4350.0473 -722.5032 L -4489.291 -722.5032 L -4489.291 -774.5133"/></g><g id="Graphic_66"><rect width="55.936" height="28.448" x="-4378.015" y="-711.356" fill="#fff"/><text fill="#000" transform="translate(-4373.0153 -706.35624)"><tspan x="0" y="15" fill="#000" font-family="Helvetica Neue" font-size="16" font-style="italic">Cache</tspan></text></g><g id="Group_78"><g id="Group_76"><g id="Graphic_75"><path fill="#24292e" d="M -4470.5237 -796.8454 L -4470.579 -796.8454 C -4470.5513 -796.8454 -4470.5513 -796.8177 -4470.5237 -796.8177 L -4470.496 -796.8177 L -4470.5237 -796.8454 M -4470.5237 -796.8177 C -4470.745 -796.8177 -4471.326 -796.7071 -4471.9343 -796.7071 C -4473.843 -796.7071 -4474.5067 -797.5922 -4474.5067 -798.7539 L -4474.5067 -806.4433 L -4470.6067 -806.4433 C -4470.3854 -806.4433 -4470.2194 -806.6369 -4470.2194 -806.9135 L -4470.2194 -811.0901 C -4470.2194 -811.3114 -4470.413 -811.505 -4470.6067 -811.505 L -4474.5067 -811.505 L -4474.5067 -816.705 C -4474.5067 -816.8986 -4474.645 -817.0093 -4474.866 -817.0093 L -4480.177 -817.0093 C -4480.398 -817.0093 -4480.509 -816.871 -4480.509 -816.705 L -4480.509 -811.3667 C -4480.509 -811.3667 -4483.192 -810.7029 -4483.358 -810.6752 C -4483.5514 -810.6199 -4483.662 -810.4539 -4483.662 -810.2603 L -4483.662 -806.9135 C -4483.662 -806.6369 -4483.4684 -806.4433 -4483.247 -806.4433 L -4480.5365 -806.4433 L -4480.5365 -798.3667 C -4480.5365 -792.3645 -4476.36 -791.756 -4473.511 -791.756 C -4472.211 -791.756 -4470.6343 -792.1709 -4470.3854 -792.3092 C -4470.247 -792.3645 -4470.164 -792.5305 -4470.164 -792.6964 L -4470.164 -796.3752 C -4470.164 -796.5964 -4470.3024 -796.7624 -4470.5237 -796.8177 M -4412.2725 -802.21135 C -4412.2725 -806.66455 -4414.0703 -807.2454 -4415.951 -807.0518 C -4417.417 -806.9688 -4418.6065 -806.222 -4418.6065 -806.222 L -4418.6065 -797.5645 C -4418.6065 -797.5645 -4417.417 -796.7347 -4415.6193 -796.6794 C -4413.102 -796.6241 -4412.2725 -797.5369 -4412.2725 -802.21135 M -4406.298 -802.5986 C -4406.298 -794.1624 -4409.0363 -791.756 -4413.794 -791.756 C -4417.832 -791.756 -4419.9895 -793.8028 -4419.9895 -793.8028 C -4419.9895 -793.8028 -4420.0725 -792.6688 -4420.211 -792.5305 C -4420.294 -792.3922 -4420.4044 -792.3369 -4420.5704 -792.3369 L -4424.194 -792.3369 C -4424.4427 -792.3369 -4424.664 -792.5305 -4424.664 -792.75175 L -4424.6087 -820.0518 C -4424.6087 -820.2731 -4424.415 -820.4667 -4424.194 -820.4667 L -4418.966 -820.4667 C -4418.745 -820.4667 -4418.551 -820.2731 -4418.551 -820.0518 L -4418.551 -810.7858 C -4418.551 -810.7858 -4416.532 -812.0858 -4413.5725 -812.0858 L -4413.6 -812.1412 C -4410.668 -812.1412 -4406.298 -811.0348 -4406.298 -802.5986 M -4427.734 -811.4773 L -4432.9066 -811.4773 C -4433.183 -811.4773 -4433.3215 -811.2837 -4433.3215 -811.0071 L -4433.3215 -797.6475 C -4433.3215 -797.6475 -4434.677 -796.7071 -4436.53 -796.7071 C -4438.3555 -796.7071 -4438.9087 -797.5369 -4438.9087 -799.3901 L -4438.9087 -811.0624 C -4438.9087 -811.2837 -4439.1023 -811.4773 -4439.3236 -811.4773 L -4444.579 -811.4773 C -4444.8 -811.4773 -4444.994 -811.2837 -4444.994 -811.0624 L -4444.994 -798.4773 C -4444.994 -793.0837 -4441.979 -791.7283 -4437.83 -791.7283 C -4434.4 -791.7283 -4431.634 -793.6092 -4431.634 -793.6092 C -4431.634 -793.6092 -4431.496 -792.6411 -4431.4406 -792.5028 C -4431.3853 -792.3922 -4431.2193 -792.2815 -4431.0534 -792.2815 L -4427.762 -792.2815 C -4427.4853 -792.2815 -4427.347 -792.4752 -4427.347 -792.6964 L -4427.2917 -811.0624 C -4427.264 -811.2837 -4427.4853 -811.4773 -4427.734 -811.4773 M -4485.9854 -811.505 L -4491.213 -811.505 C -4491.4344 -811.505 -4491.628 -811.2837 -4491.628 -811.0071 L -4491.628 -792.973 C -4491.628 -792.4752 -4491.296 -792.3092 -4490.881 -792.3092 L -4486.1514 -792.3092 C -4485.6535 -792.3092 -4485.543 -792.5305 -4485.543 -792.973 L -4485.543 -811.0901 C -4485.5705 -811.3114 -4485.764 -811.505 -4485.9854 -811.505 M -4488.5854 -819.8305 C -4490.4663 -819.8305 -4491.9876 -818.3369 -4491.9876 -816.4284 C -4491.9876 -814.54755 -4490.494 -813.0263 -4488.5854 -813.0263 C -4486.732 -813.0263 -4485.2386 -814.5199 -4485.2386 -816.4284 C -4485.2386 -818.3093 -4486.732 -819.8305 -4488.5854 -819.8305 M -4448.0364 -820.4391 L -4453.2364 -820.4391 C -4453.4577 -820.4391 -4453.6513 -820.2454 -4453.6513 -820.0242 L -4453.6513 -809.9837 L -4461.783 -809.9837 L -4461.783 -820.0242 C -4461.783 -820.2454 -4461.977 -820.4391 -4462.198 -820.4391 L -4467.426 -820.4391 C -4467.647 -820.4391 -4467.8407 -820.2454 -4467.8407 -820.0242 L -4467.8407 -792.7241 C -4467.8407 -792.5028 -4467.6194 -792.3092 -4467.426 -792.3092 L -4462.198 -792.3092 C -4461.977 -792.3092 -4461.783 -792.5028 -4461.783 -792.7241 L -4461.783 -804.3965 L -4453.6513 -804.3965 L -4453.7066 -792.7241 C -4453.7066 -792.5028 -4453.513 -792.3092 -4453.2917 -792.3092 L -4448.064 -792.3092 C -4447.843 -792.3092 -4447.649 -792.5028 -4447.649 -792.7241 L -4447.649 -820.0242 C -4447.6215 -820.2454 -4447.815 -820.4391 -4448.0364 -820.4391 M -4494.4216 -808.3518 L -4494.4216 -794.2454 C -4494.4216 -794.1624 -4494.4493 -793.9688 -4494.56 -793.9411 C -4494.56 -793.9411 -4497.63 -791.756 -4502.692 -791.756 C -4508.8046 -791.756 -4516.079 -793.6645 -4516.079 -806.305 C -4516.079 -818.9454 -4509.745 -821.5454 -4503.5493 -821.5178 C -4498.1833 -821.5178 -4496.026 -820.3008 -4495.694 -820.0795 C -4495.611 -819.9412 -4495.5557 -819.8582 -4495.5557 -819.7476 L -4496.5514 -815.3497 C -4496.5514 -815.1284 -4496.7727 -814.8518 -4497.0493 -814.9348 C -4497.9344 -815.2114 -4499.262 -815.7369 -4502.3876 -815.7369 C -4506.011 -815.7369 -4509.8834 -814.7135 -4509.8834 -806.5539 C -4509.8834 -798.422 -4506.2046 -797.4539 -4503.5493 -797.4539 C -4501.281 -797.4539 -4500.479 -797.7305 -4500.479 -797.7305 L -4500.479 -803.3731 L -4504.1025 -803.3731 C -4504.379 -803.3731 -4504.5727 -803.5667 -4504.5727 -803.78795 L -4504.5727 -808.3241 C -4504.5727 -808.5454 -4504.379 -808.739 -4504.1025 -808.739 L -4494.892 -808.739 C -4494.615 -808.7667 -4494.4216 -808.5731 -4494.4216 -808.3518"/></g><g id="Graphic_74"><path fill="#24292e" d="M -4551.207 -828.5157 C -4562.8516 -828.5157 -4572.2835 -819.0837 -4572.2835 -807.439 C -4572.2835 -798.1177 -4566.2537 -790.2347 -4557.873 -787.4411 C -4556.822 -787.2751 -4556.407 -787.8837 -4556.407 -788.4368 C -4556.407 -788.9347 -4556.4345 -790.5943 -4556.4345 -792.3645 C -4561.7175 -791.3964 -4563.1005 -793.6645 -4563.5154 -794.8262 C -4563.7643 -795.4347 -4564.788 -797.3156 -4565.673 -797.8135 C -4566.4197 -798.2007 -4567.471 -799.19645 -4565.7005 -799.2241 C -4564.041 -799.2518 -4562.8516 -797.7028 -4562.4643 -797.0667 C -4560.556 -793.8858 -4557.541 -794.7709 -4556.324 -795.3241 C -4556.1303 -796.6794 -4555.577 -797.61985 -4554.9686 -798.1454 C -4559.643 -798.6709 -4564.5665 -800.49645 -4564.5665 -808.5454 C -4564.5665 -810.8412 -4563.7367 -812.7497 -4562.409 -814.2156 C -4562.6303 -814.7412 -4563.3494 -816.8986 -4562.188 -819.8029 C -4562.188 -819.8029 -4560.4175 -820.3561 -4556.379 -817.6454 C -4554.692 -818.1156 -4552.894 -818.3646 -4551.124 -818.3646 C -4549.326 -818.3646 -4547.556 -818.1156 -4545.8685 -817.6454 C -4541.83 -820.3837 -4540.0877 -819.8029 -4540.0877 -819.8029 C -4538.926 -816.8986 -4539.673 -814.7412 -4539.8664 -814.2156 C -4538.511 -812.7497 -4537.709 -810.8688 -4537.709 -808.5454 C -4537.709 -800.4688 -4542.6324 -798.6709 -4547.3345 -798.1454 C -4546.56 -797.48155 -4545.896 -796.2369 -4545.896 -794.2454 C -4545.896 -791.4241 -4545.924 -789.156 -4545.924 -788.4645 C -4545.924 -787.9113 -4545.5366 -787.2475 -4544.4856 -787.4688 C -4535.911 -790.373 -4530.13 -798.422 -4530.13 -807.4667 C -4530.13 -819.0837 -4539.562 -828.5157 -4551.207 -828.5157"/></g></g></g><g id="Graphic_112"><rect width="208.346" height="57.661" x="-3864.791" y="-117.189" fill="#000"/><text fill="#fff" transform="translate(-3859.7914 -98.09032)"><tspan x="70.869" y="16" fill="#fff" font-family="Helvetica Neue" font-size="16" font-weight="bold">Service</tspan></text></g><g id="Graphic_115"><text fill="#000" transform="translate(-3829.818 -316.7323)"><tspan x="0" y="15" fill="#000" font-family="Helvetica Neue" font-size="16" font-style="italic">Adjust route weight</tspan></text></g><g id="Graphic_116"><text fill="#000" transform="translate(-3835.594 -215.13386)"><tspan x="0" y="15" fill="#000" font-family="Helvetica Neue" font-size="16" font-style="italic">Update subset labels</tspan></text></g><g id="Line_117"><path stroke="#0068ae" stroke-linecap="round" stroke-linejoin="round" stroke-width="2" marker-end="url(#FilledArrow_Marker_2)" d="M -3760.618 -595.2756 L -3760.618 -429.5652 L -3904.348 -429.5652 L -3904.348 -162.5433 L -3955.4957 -162.5433"/></g><g id="Line_118"><path stroke="#000" stroke-linecap="round" stroke-linejoin="round" stroke-width="2" marker-end="url(#FilledArrow_Marker)" d="M -3967.441 -493.22835 L -3956.441 -493.22835 L -3933.648 -493.08176 L -3910.3774 -493.08176 L -3910.3774 -633.5433 L -3877.6914 -633.5433"/></g><g id="Graphic_119"><rect width="117.552" height="28.448" x="-3819.394" y="-498.736" fill="#fff"/><text fill="#000" transform="translate(-3814.394 -493.73636)"><tspan x="0" y="15" fill="#000" font-family="Helvetica Neue" font-size="16" font-style="italic">Scrape metrics</tspan></text></g><g id="Graphic_130"><rect width="286.208" height="28.448" x="-4200.26" y="-57.543" fill="#fff"/><text fill="#000" transform="translate(-4195.2595 -52.543305)"><tspan x="0" y="15" fill="#000" font-family="Helvetica Neue" font-size="16" font-style="italic">Inject label rollouts-pod-template-hash</tspan></text></g><g id="Line_131"><path stroke="#000" stroke-linecap="round" stroke-linejoin="round" stroke-width="2" marker-end="url(#FilledArrow_Marker)" d="M -3864.7914 -88.35827 L -3922.842 -88.35827 L -3922.842 -136.063 L -3939.659 -136.063"/></g><g id="Line_132"><path stroke="#000" stroke-linecap="round" stroke-linejoin="round" stroke-width="2" marker-end="url(#FilledArrow_Marker)" d="M -3864.7914 -88.35827 L -3922.472 -88.35827 L -3922.472 -321.7323 L -3939.659 -321.7323"/></g><g id="Line_133"><line x1="-4608.425" x2="-4608.425" y1="-454.961" y2="-365.813" stroke="#000" stroke-linecap="round" stroke-linejoin="round" stroke-width="2" marker-end="url(#FilledArrow_Marker)"/></g><g id="Line_134"><path stroke="#000" stroke-linecap="round" stroke-linejoin="round" stroke-width="2" marker-end="url(#FilledArrow_Marker)" d="M -4608.425 -230.654 L -4608.425 -92.94118 L -4467.1205 -92.94118"/></g><g id="Line_135"><line x1="-4245.874" x2="-4219.868" y1="-97.795" y2="-97.795" stroke="#000" stroke-linecap="round" stroke-linejoin="round" stroke-width="2" marker-end="url(#FilledArrow_Marker)"/></g><g id="Group_139"><g id="Group_138"><g id="Graphic_137"><path fill="#0068af" d="M -3781.063 -636.9129 L -3781.063 -636.8005 L -3784.4717 -619.56895 C -3784.921 -617.3214 -3785.5206 -616.4223 -3787.8056 -616.4223 L -3788.817 -616.4223 C -3790.84 -616.4223 -3791.8887 -617.3963 -3792.3757 -619.3442 L -3795.335 -630.8069 C -3795.3725 -630.95674 -3795.3725 -630.9942 -3795.4474 -630.9942 C -3795.5224 -630.9942 -3795.5224 -630.95674 -3795.56 -630.807 L -3798.519 -619.3442 C -3799.006 -617.3963 -3800.055 -616.4223 -3802.078 -616.4223 L -3803.0892 -616.4223 C -3805.3742 -616.4223 -3805.9737 -617.3214 -3806.423 -619.569 L -3807.3957 -624.71825 C -3807.4533 -624.4752 -3807.3573 -624.8018 -3807.1075 -625.69796 L -3806.733 -627.0422 L -3805.004 -633.2476 L -3804.1684 -633.2476 L -3802.415 -621.1422 C -3802.3775 -620.8051 -3802.3026 -620.6178 -3802.2277 -620.6178 C -3802.1527 -620.6178 -3802.0403 -620.7677 -3801.9654 -621.1422 L -3798.8563 -633.72876 C -3798.4817 -635.1897 -3798.032 -635.33955 -3796.7585 -635.33955 L -3794.1363 -635.33955 C -3792.8627 -635.33955 -3792.413 -635.1897 -3792.0386 -633.72876 L -3788.9294 -621.1423 C -3788.8545 -620.7677 -3788.742 -620.61785 -3788.667 -620.61785 C -3788.5923 -620.61785 -3788.5174 -620.8051 -3788.48 -621.1423 L -3786.12 -636.9878 C -3786.0825 -637.32495 -3785.8202 -637.6621 -3785.4456 -637.6621 L -3781.812 -637.6621 C -3781.4 -637.6621 -3781.063 -637.32495 -3781.063 -636.9129 Z M -3762.788 -617.2839 C -3762.788 -616.8718 -3763.1254 -616.5347 -3763.5374 -616.5347 L -3766.7215 -616.5347 C -3767.1335 -616.5347 -3767.4707 -616.8718 -3767.4707 -617.2839 L -3767.4707 -617.8833 C -3769.194 -616.8344 -3770.9545 -616.23504 -3772.7525 -616.23504 C -3775.8617 -616.23504 -3779.233 -617.4338 -3779.233 -622.4908 L -3779.233 -622.6407 C -3779.233 -626.9111 -3776.611 -629.1212 -3770.093 -629.1212 L -3767.733 -629.1212 L -3767.733 -630.7695 C -3767.733 -633.2044 -3768.819 -633.8037 -3771.0293 -633.8037 C -3773.427 -633.8037 -3775.899 -633.6539 -3777.1353 -633.504 L -3777.3226 -633.504 C -3777.697 -633.504 -3777.997 -633.6164 -3777.997 -634.1408 L -3777.997 -636.5383 C -3777.997 -636.9503 -3777.772 -637.21256 -3777.285 -637.32495 C -3775.787 -637.6246 -3773.614 -637.9243 -3771.0293 -637.9243 C -3765.71 -637.9243 -3762.788 -635.5643 -3762.788 -630.7695 L -3762.788 -617.2839 Z M -3767.733 -621.21724 L -3767.733 -625.8247 L -3770.093 -625.8247 C -3773.5017 -625.8247 -3774.251 -624.7384 -3774.251 -622.6406 L -3774.251 -622.49074 C -3774.251 -620.6552 -3773.427 -620.1683 -3771.554 -620.1683 C -3770.2052 -620.1683 -3768.819 -620.6177 -3767.733 -621.2172 Z M -3753.017 -617.3214 C -3753.017 -616.9093 -3753.3166 -616.5347 -3753.7287 -616.5347 L -3757.2125 -616.5347 C -3757.6245 -616.5347 -3757.9616 -616.9093 -3757.9616 -617.3214 L -3757.9616 -644.2924 C -3757.9616 -644.7045 -3757.6245 -645.0417 -3757.2125 -645.0417 L -3753.7287 -645.0417 C -3753.3166 -645.0417 -3753.017 -644.7045 -3753.017 -644.2924 L -3753.017 -617.3214 Z M -3731.1836 -616.9842 C -3731.1836 -616.7595 -3731.4084 -616.5347 -3731.708 -616.5347 L -3736.278 -616.5347 C -3736.69 -616.5347 -3737.1397 -616.9468 -3737.3645 -617.2839 L -3743.2457 -625.8248 L -3743.2457 -617.3214 C -3743.2457 -616.9093 -3743.583 -616.5347 -3743.995 -616.5347 L -3747.441 -616.5347 C -3747.8533 -616.5347 -3748.1904 -616.9093 -3748.1904 -617.3214 L -3748.1904 -644.2924 C -3748.1904 -644.7045 -3747.8533 -645.0417 -3747.441 -645.0417 L -3743.995 -645.0417 C -3743.583 -645.0417 -3743.2457 -644.7045 -3743.2457 -644.2924 L -3743.2457 -628.6717 L -3736.84 -637.21256 C -3736.578 -637.5497 -3736.2033 -637.6621 -3735.9785 -637.6621 L -3731.783 -637.6621 C -3731.4084 -637.6621 -3731.221 -637.5122 -3731.221 -637.25 C -3731.221 -637.1376 -3731.2586 -637.0252 -3731.371 -636.8754 L -3738.9004 -627.6228 L -3731.296 -617.2839 C -3731.221 -617.17155 -3731.1836 -617.09666 -3731.1836 -616.9842 Z M -3722.686 -641.22075 C -3722.686 -640.8087 -3723.023 -640.4716 -3723.435 -640.4716 L -3727.069 -640.4716 C -3727.481 -640.4716 -3727.8555 -640.8087 -3727.8555 -641.22075 L -3727.8555 -644.5172 C -3727.8555 -644.9293 -3727.481 -645.26644 -3727.069 -645.26644 L -3723.435 -645.26644 C -3723.023 -645.26644 -3722.686 -644.9293 -3722.686 -644.5172 L -3722.686 -641.22075 Z M -3722.7984 -617.3214 C -3722.7984 -616.9093 -3723.1355 -616.5347 -3723.5475 -616.5347 L -3726.994 -616.5347 C -3727.406 -616.5347 -3727.743 -616.9093 -3727.743 -617.3214 L -3727.743 -636.9129 C -3727.743 -637.32495 -3727.406 -637.6621 -3726.994 -637.6621 L -3723.5475 -637.6621 C -3723.1355 -637.6621 -3722.7984 -637.32495 -3722.7984 -636.9129 L -3722.7984 -617.3213 Z M -3700.7403 -617.3214 C -3700.7403 -616.9093 -3701.0774 -616.5347 -3701.4895 -616.5347 L -3704.936 -616.5347 C -3705.348 -616.5347 -3705.685 -616.9093 -3705.685 -617.3214 L -3705.685 -629.5333 C -3705.685 -632.7923 -3705.9846 -633.72876 -3708.869 -633.72876 C -3710.1427 -633.72876 -3711.5287 -633.2043 -3713.102 -632.38025 L -3713.102 -617.3213 C -3713.102 -616.9093 -3713.439 -616.53465 -3713.8512 -616.53465 L -3717.2975 -616.53465 C -3717.7096 -616.53465 -3718.0467 -616.9093 -3718.0467 -617.3213 L -3718.0467 -636.9129 C -3718.0467 -637.32495 -3717.7096 -637.6621 -3717.2975 -637.6621 L -3714.0385 -637.6621 C -3713.6265 -637.6621 -3713.2893 -637.32495 -3713.2893 -636.9129 L -3713.2893 -636.1262 C -3711.1167 -637.5122 -3709.693 -637.9243 -3707.221 -637.9243 C -3701.8266 -637.9243 -3700.7403 -634.29065 -3700.7403 -629.5333 L -3700.7403 -617.3213 Z M -3677.708 -635.0773 C -3677.708 -634.5154 -3677.858 -634.44054 -3678.3076 -634.2532 L -3679.5437 -633.76626 C -3678.9444 -632.90464 -3678.6073 -632.0805 -3678.6073 -630.7695 L -3678.6073 -630.50724 C -3678.6073 -625.8248 -3681.829 -623.6895 -3687.4853 -623.6895 C -3689.4706 -623.6895 -3690.819 -624.0267 -3691.5684 -624.3264 C -3692.018 -624.0267 -3692.205 -623.6895 -3692.205 -623.3524 C -3692.205 -622.6032 -3691.793 -622.3035 -3690.9316 -622.11624 L -3686.5113 -621.06735 C -3681.4167 -619.8686 -3678.1203 -619.082 -3678.1203 -615.07375 L -3678.1203 -614.8115 C -3678.1203 -610.9907 -3680.9297 -608.9304 -3687.298 -608.9304 C -3693.3665 -608.9304 -3696.588 -611.2154 -3696.588 -615.1487 L -3696.588 -615.4858 C -3696.588 -617.0217 -3695.8763 -618.52005 -3694.6775 -619.6064 C -3695.7264 -620.3931 -3696.363 -621.7042 -3696.363 -623.05275 L -3696.363 -623.0902 C -3696.363 -624.2514 -3695.8763 -625.4127 -3694.865 -626.1244 C -3695.9887 -627.2857 -3696.4007 -628.6342 -3696.4007 -630.50724 L -3696.4007 -630.7695 C -3696.4007 -634.5154 -3693.966 -637.6621 -3687.4853 -637.6621 L -3678.7197 -637.6621 C -3678.451 -637.6632 -3678.193 -637.557 -3678.0032 -637.3671 C -3677.8133 -637.1772 -3677.707 -636.91926 -3677.708 -636.6507 L -3677.708 -635.0773 Z M -3683.477 -630.39485 L -3683.477 -630.6945 C -3683.477 -632.4926 -3684.2638 -633.8786 -3687.4853 -633.8786 C -3690.6694 -633.8786 -3691.531 -632.45514 -3691.531 -630.6945 L -3691.531 -630.39485 C -3691.531 -629.00884 -3690.969 -627.4355 -3687.4853 -627.4355 C -3684.376 -627.4355 -3683.477 -628.52184 -3683.477 -630.39485 Z M -3683.065 -614.8115 L -3683.065 -615.07375 C -3683.065 -615.8979 -3683.552 -616.3849 -3687.4853 -617.3214 L -3690.8192 -618.10805 C -3691.381 -617.3214 -3691.7558 -616.8344 -3691.7558 -615.4858 L -3691.7558 -615.1487 C -3691.7558 -613.61286 -3690.8192 -612.67635 -3687.298 -612.67635 C -3683.702 -612.67635 -3683.065 -613.463 -3683.065 -614.8115 Z M -3846.8107 -628.9627 C -3846.8107 -625.1793 -3849.1707 -621.1336 -3856.6626 -621.1336 C -3859.472 -621.1336 -3861.495 -621.39585 -3863.293 -621.8079 C -3863.6676 -621.8828 -3864.0047 -622.145 -3864.0047 -622.5571 L -3864.0047 -625.2542 C -3864.0047 -625.6663 -3863.6676 -625.96594 -3863.293 -625.96594 L -3863.218 -625.96594 C -3861.7197 -625.77866 -3857.9737 -625.5913 -3856.5877 -625.5913 C -3853.2537 -625.5913 -3852.2424 -626.79005 -3852.2424 -628.9627 C -3852.2424 -630.4237 -3852.954 -631.17286 -3855.4264 -632.6338 L -3860.371 -635.5931 C -3863.855 -637.6534 -3864.7914 -639.8261 -3864.7914 -642.4483 C -3864.7914 -646.5689 -3862.394 -649.5657 -3855.4264 -649.5657 C -3852.954 -649.5657 -3849.508 -649.19114 -3848.234 -648.8914 C -3847.8595 -648.8165 -3847.56 -648.5543 -3847.56 -648.17975 L -3847.56 -645.4077 C -3847.56 -645.03306 -3847.822 -644.7334 -3848.1967 -644.7334 L -3848.2716 -644.7334 C -3850.744 -644.9582 -3853.2163 -645.108 -3855.651 -645.108 C -3858.423 -645.108 -3859.5845 -644.13405 -3859.5845 -642.4483 C -3859.5845 -641.2122 -3858.9476 -640.463 -3856.5128 -639.1144 L -3852.0176 -636.6046 C -3847.897 -634.3196 -3846.8107 -631.92215 -3846.8107 -628.9628 Z M -3825.914 -621.8828 C -3825.914 -621.6581 -3826.1386 -621.43336 -3826.4383 -621.43336 L -3831.0083 -621.43336 C -3831.4204 -621.43336 -3831.87 -621.84536 -3832.0947 -622.1825 L -3837.976 -630.72336 L -3837.976 -622.22 C -3837.976 -621.8079 -3838.313 -621.4333 -3838.725 -621.4333 L -3842.1714 -621.4333 C -3842.5834 -621.4333 -3842.9206 -621.8079 -3842.9206 -622.22 L -3842.9206 -649.1911 C -3842.9206 -649.60314 -3842.5834 -649.94025 -3842.1714 -649.94025 L -3838.725 -649.94025 C -3838.313 -649.94025 -3837.976 -649.60314 -3837.976 -649.1911 L -3837.976 -633.5703 L -3831.5703 -642.1111 C -3831.308 -642.4482 -3830.9334 -642.5606 -3830.7087 -642.5606 L -3826.513 -642.5606 C -3826.1386 -642.5606 -3825.9513 -642.41076 -3825.9513 -642.1485 C -3825.9513 -642.03615 -3825.9887 -641.9238 -3826.101 -641.7739 L -3833.6305 -632.5214 L -3826.026 -622.1825 C -3825.9513 -622.07014 -3825.914 -621.99525 -3825.914 -621.8828 Z M -3804.9795 -641.9239 C -3804.9795 -641.8489 -3804.9795 -641.774 -3805.017 -641.6991 L -3811.273 -619.8225 C -3812.434 -615.7394 -3813.82 -613.9414 -3818.9146 -613.9414 C -3820.1507 -613.9414 -3822.0237 -614.1661 -3822.8853 -614.4283 C -3823.2974 -614.5407 -3823.672 -614.6905 -3823.672 -615.06515 L -3823.672 -617.46255 C -3823.672 -617.8746 -3823.335 -618.1368 -3822.923 -618.1368 L -3822.848 -618.1368 C -3821.799 -618.0994 -3819.664 -617.91205 -3818.615 -617.91205 C -3817.004 -617.91205 -3816.18 -618.3616 -3815.6556 -620.3095 L -3815.356 -621.4333 L -3815.918 -621.4333 C -3817.004 -621.4333 -3818.3527 -621.6955 -3819.177 -624.5425 L -3824.084 -641.6991 C -3824.1215 -641.8115 -3824.1215 -641.8864 -3824.1215 -641.9613 C -3824.1215 -642.3359 -3823.8967 -642.56065 -3823.4097 -642.56065 L -3819.6263 -642.56065 C -3819.289 -642.56065 -3818.9895 -642.22354 -3818.9146 -641.8864 L -3815.131 -626.6402 C -3814.9813 -626.0034 -3814.8315 -625.8161 -3814.6067 -625.8161 L -3814.2696 -625.8161 L -3810.224 -641.9239 C -3810.149 -642.261 -3809.8493 -642.56065 -3809.4747 -642.56065 L -3805.654 -642.56065 C -3805.279 -642.56065 -3804.9795 -642.261 -3804.9795 -641.9239 Z"/></g><g id="Graphic_136"><path fill="#d8d8d8" d="M -3689.3767 -650.7204 C -3688.3614 -650.94636 -3687.3106 -651.0879 -3686.257 -651.14305 C -3675.6914 -651.69675 -3666.668 -643.5262 -3666.111 -632.9013 C -3665.9206 -629.26496 -3666.788 -625.6577 -3668.537 -622.52255 C -3661.081 -625.18124 -3656.036 -632.4534 -3656.471 -640.7579 C -3657.001 -650.8678 -3665.604 -658.65795 -3675.6576 -658.131 C -3681.1546 -657.843 -3686.177 -655.0527 -3689.3767 -650.7204 Z"/></g></g></g><g id="Group_141"><g id="Group_110"><g id="Graphic_108"><path fill="#e9654b" d="M -4659.429 -483.07485 C -4659.429 -483.07485 -4659.762 -482.07644 -4660.261 -481.57723 C -4660.5573 -481.24814 -4660.983 -481.06565 -4661.426 -481.078 C -4662.246 -480.85685 -4663.08 -480.6901 -4663.922 -480.5788 C -4663.922 -480.5788 -4662.757 -480.4124 -4661.426 -480.246 C -4660.9266 -480.246 -4660.9266 -480.246 -4660.594 -480.0796 C -4659.762 -480.0796 -4659.429 -480.5788 -4659.429 -480.5788 Z"/></g><g id="Graphic_107"><path fill="#e9654b" d="M -4644.12 -483.07485 C -4644.12 -483.07485 -4643.787 -482.07644 -4643.288 -481.57723 C -4642.9916 -481.24814 -4642.566 -481.06565 -4642.123 -481.078 C -4641.303 -480.85686 -4640.469 -480.6901 -4639.627 -480.5788 C -4639.627 -480.5788 -4640.792 -480.4124 -4642.2896 -480.246 C -4642.789 -480.246 -4642.789 -480.246 -4643.1216 -480.0796 C -4644.12 -480.0796 -4644.2864 -480.5788 -4644.2864 -480.5788 Z"/></g><g id="Graphic_106"><circle cx="-4651.608" cy="-499.549" r="17.971" fill="#b6cfea"/></g><g id="Graphic_105"><circle cx="-4651.608" cy="-499.549" r="17.306" fill="#e6f5f8"/></g><g id="Graphic_104"><circle cx="-4651.608" cy="-499.216" r="14.144" fill="#d0e8f0"/></g><g id="Group_96"><title>Body</title><g id="Graphic_103"><path fill="#ee794b" d="M -4659.928 -492.5598 C -4659.928 -492.5598 -4658.7634 -473.7563 -4658.7634 -473.4235 C -4658.7634 -473.2571 -4658.597 -472.9243 -4659.429 -472.5915 C -4660.261 -472.2587 -4662.9235 -471.5931 -4662.9235 -471.5931 L -4658.93 -471.5931 C -4657.0994 -471.5931 -4657.0994 -473.0907 -4657.0994 -473.4235 C -4657.0994 -473.7563 -4656.6 -480.9116 -4656.6 -480.9116 C -4656.6 -480.9116 -4656.434 -472.4251 -4656.434 -472.0923 C -4656.434 -471.7595 -4656.6 -471.2603 -4657.765 -470.9275 C -4658.597 -470.7611 -4661.093 -470.26186 -4661.093 -470.26186 L -4657.266 -470.26186 C -4654.936 -470.26186 -4654.936 -471.7595 -4654.936 -471.7595 L -4654.437 -479.2476 C -4654.437 -479.2476 -4654.2705 -471.7595 -4654.2705 -470.9275 C -4654.2705 -470.26186 -4654.77 -469.76266 -4656.6 -469.42985 C -4657.765 -469.09704 -4659.2626 -468.76424 -4659.2626 -468.76424 L -4654.936 -468.76424 C -4652.773 -468.93064 -4652.44 -470.42826 -4652.44 -470.42826 L -4648.779 -489.0653 Z"/></g><g id="Graphic_102"><path fill="#ee794b" d="M -4643.288 -492.5598 C -4643.288 -492.5598 -4644.453 -473.7563 -4644.453 -473.4235 C -4644.453 -473.2571 -4644.619 -472.9243 -4643.787 -472.5915 C -4642.955 -472.2587 -4640.293 -471.5931 -4640.293 -471.5931 L -4644.2864 -471.5931 C -4646.117 -471.5931 -4646.117 -473.0907 -4646.117 -473.4235 C -4646.117 -473.7563 -4646.616 -480.9116 -4646.616 -480.9116 C -4646.616 -480.9116 -4646.7824 -472.4251 -4646.7824 -472.0923 C -4646.7824 -471.7595 -4646.616 -471.2603 -4645.451 -470.9275 C -4644.619 -470.7611 -4642.123 -470.26186 -4642.123 -470.26186 L -4645.9504 -470.26186 C -4648.28 -470.26186 -4648.28 -471.7595 -4648.28 -471.7595 L -4648.779 -479.2476 C -4648.779 -479.2476 -4648.9457 -471.7595 -4648.9457 -470.9275 C -4648.9457 -470.26186 -4648.4464 -469.76266 -4646.616 -469.42985 C -4645.451 -469.09704 -4643.9536 -468.76424 -4643.9536 -468.76424 L -4648.28 -468.76424 C -4650.443 -468.93064 -4650.776 -470.42826 -4650.776 -470.42826 L -4654.437 -489.06534 Z"/></g><g id="Graphic_101"><path fill="#ee794b" d="M -4643.1216 -501.7119 C -4643.1216 -497.05265 -4646.949 -493.3918 -4651.4417 -493.3918 C -4655.9346 -493.3918 -4659.762 -497.21905 -4659.762 -501.7119 C -4659.762 -506.2048 -4655.9345 -510.03204 -4651.4417 -510.03204 C -4646.949 -510.03204 -4643.1216 -506.3712 -4643.1216 -501.7119 Z"/></g><g id="Group_99"><g id="Graphic_100"><circle cx="-4651.442" cy="-497.219" r="14.81" fill="#ee794b"/></g></g><g id="Group_97"><g id="Graphic_98"><path fill="#e34e3b" d="M -4643.621 -492.5598 C -4643.621 -492.5598 -4642.6224 -501.3791 -4643.9536 -504.70716 C -4646.4496 -510.53125 -4652.2737 -510.03204 -4652.2737 -510.03204 C -4652.2737 -510.03204 -4648.9457 -508.7008 -4648.779 -503.70875 C -4648.613 -500.2143 -4648.779 -495.0558 -4648.779 -495.0558 Z"/></g></g></g><g id="Group_85"><title>Face</title><g id="Group_94"><g id="Graphic_95"><circle cx="-4654.936" cy="-506.205" r="1.165" fill="#fbdfc3"/></g></g><g id="Graphic_93"><path fill="#010101" d="M -4648.613 -489.23174 C -4648.613 -486.4029 -4649.944 -484.5725 -4651.608 -484.5725 C -4653.272 -484.5725 -4654.6033 -486.7357 -4654.6033 -489.56455 C -4654.6033 -489.56455 -4653.272 -486.9021 -4651.4417 -486.9021 C -4649.611 -486.9021 -4648.613 -489.23174 -4648.613 -489.23174 Z"/></g><g id="Graphic_92"><path fill="#fff" d="M -4648.613 -489.23174 C -4648.613 -487.4013 -4649.944 -486.4029 -4651.608 -486.4029 C -4653.272 -486.4029 -4654.437 -487.7341 -4654.437 -489.39815 C -4654.437 -489.39815 -4653.1057 -487.7341 -4651.2753 -487.7341 C -4649.445 -487.7341 -4648.613 -489.23174 -4648.613 -489.23174 Z"/></g><g id="Graphic_91"><circle cx="-4645.784" cy="-497.053" r="5.158" fill="#e9654b"/></g><g id="Graphic_90"><circle cx="-4657.432" cy="-497.053" r="5.158" fill="#e9654b"/></g><g id="Graphic_89"><circle cx="-4645.784" cy="-497.053" r="3.994" fill="#fff"/></g><g id="Graphic_88"><circle cx="-4657.765" cy="-497.053" r="3.994" fill="#fff"/></g><g id="Graphic_87"><circle cx="-4657.765" cy="-497.552" r="1.165" fill="#010101"/></g><g id="Graphic_86"><circle cx="-4645.784" cy="-497.552" r="1.165" fill="#010101"/></g></g><g id="Graphic_84"><path fill="#b6cfea" d="M -4669.9124 -495.0558 C -4670.137 -495.04227 -4670.3565 -495.12556 -4670.5156 -495.28463 C -4670.6746 -495.4437 -4670.758 -495.6633 -4670.7444 -495.88784 L -4670.7444 -502.54393 C -4670.758 -502.7685 -4670.6746 -502.9881 -4670.5156 -503.14714 C -4670.3565 -503.3062 -4670.137 -503.3895 -4669.9124 -503.37594 C -4669.688 -503.3895 -4669.468 -503.3062 -4669.309 -503.14714 C -4669.15 -502.9881 -4669.067 -502.7685 -4669.0803 -502.54393 L -4669.0803 -495.88784 C -4669.067 -495.6633 -4669.15 -495.4437 -4669.309 -495.2846 C -4669.468 -495.12556 -4669.688 -495.04227 -4669.9124 -495.0558 Z"/></g><g id="Graphic_83"><path fill="#b6cfea" d="M -4633.6366 -495.0558 C -4633.861 -495.04227 -4634.081 -495.12556 -4634.24 -495.28463 C -4634.399 -495.4437 -4634.482 -495.6633 -4634.4686 -495.88784 L -4634.4686 -502.54393 C -4634.482 -502.7685 -4634.399 -502.9881 -4634.24 -503.14714 C -4634.081 -503.3062 -4633.861 -503.3895 -4633.6366 -503.37594 C -4633.412 -503.3895 -4633.1925 -503.3062 -4633.0334 -503.14714 C -4632.8744 -502.9881 -4632.791 -502.7685 -4632.8046 -502.54393 L -4632.8046 -495.88784 C -4632.791 -495.6633 -4632.8744 -495.4437 -4633.0334 -495.2846 C -4633.1925 -495.12556 -4633.412 -495.04227 -4633.6366 -495.0558 Z"/></g><g id="Graphic_82"><circle cx="-4657.266" cy="-512.861" r=".832" fill="#fff"/></g><g id="Graphic_81"><path fill="#fff" d="M -4663.256 -490.39656 C -4663.439 -490.3739 -4663.6227 -490.43505 -4663.7555 -490.56296 C -4665.7523 -493.059 -4666.7507 -496.22064 -4666.7507 -499.3823 C -4666.7597 -502.0111 -4666.0706 -504.5951 -4664.754 -506.8704 C -4663.4193 -509.037 -4661.5956 -510.8607 -4659.429 -512.1953 C -4659.1445 -512.3227 -4658.8106 -512.2559 -4658.597 -512.02887 C -4658.4696 -511.7444 -4658.5364 -511.41044 -4658.7634 -511.19686 C -4662.9654 -508.8221 -4665.57 -504.37525 -4665.586 -499.5487 C -4665.59 -496.58946 -4664.593 -493.71587 -4662.757 -491.395 C -4662.5906 -491.2286 -4662.5906 -490.72937 -4662.9235 -490.56296 C -4663.09 -490.39656 -4663.09 -490.39656 -4663.256 -490.39656 Z"/></g><g id="Group_79"><g id="Graphic_80"><path fill="#e9654b" d="M -4644.12 -482.57565 L -4644.12 -483.90687 C -4646.4496 -482.57565 -4648.9456 -481.24443 -4651.941 -481.24443 C -4655.269 -481.24443 -4657.432 -482.74205 -4659.5954 -483.90687 L -4659.429 -482.57565 C -4659.429 -482.57565 -4656.933 -479.9132 -4651.7745 -479.9132 C -4646.949 -480.0796 -4644.12 -482.57565 -4644.12 -482.57565 Z"/></g></g></g><g id="Graphic_140"><text fill="#000" transform="translate(-4627.803 -512.69246)"><tspan x="10.16" y="16" fill="#000" font-family="Helvetica Neue" font-size="16" font-weight="bold">ArgoCD</tspan> <tspan x="0" y="35.464" fill="#000" font-family="Helvetica Neue" font-size="16" font-weight="bold">API Server</tspan></text></g></g><g id="Group_152"><g id="Graphic_151"><path fill="#000717" d="M -4074.354 -818.6703 C -4074.9997 -817.9577 -4075.779 -817.4009 -4076.6476 -817.02235 C -4077.516 -816.6438 -4078.474 -816.4433 -4079.409 -816.4656 C -4083.106 -816.4656 -4085.8673 -819.0044 -4085.8673 -822.8793 C -4085.8673 -826.3089 -4083.529 -829.3153 -4079.877 -829.3153 C -4076.4695 -829.3153 -4074.042 -826.4425 -4074.042 -823.0129 C -4074.042 -822.70115 -4074.0643 -822.3894 -4074.109 -822.0776 L -4082.6605 -822.0776 C -4082.5937 -821.2536 -4082.193 -820.4964 -4081.5693 -819.9397 C -4080.9457 -819.4052 -4080.144 -819.1157 -4079.32 -819.138 C -4078.741 -819.16025 -4078.162 -819.2939 -4077.6275 -819.5388 C -4077.093 -819.7838 -4076.6254 -820.1401 -4076.2245 -820.5632 Z M -4077.427 -824.4605 C -4077.494 -825.0617 -4077.7834 -825.5962 -4078.229 -825.9971 C -4078.674 -826.3979 -4079.253 -826.6206 -4079.8545 -826.6206 C -4080.478 -826.6206 -4081.0793 -826.4202 -4081.5693 -826.0193 C -4082.059 -825.6185 -4082.371 -825.084 -4082.5046 -824.4605 Z"/></g><g id="Graphic_150"><path fill="#000717" d="M -4072.238 -832.4776 L -4068.9423 -832.4776 L -4068.9423 -829.048 L -4064.867 -829.048 L -4064.867 -826.242 L -4068.9423 -826.242 L -4068.9423 -821.52085 C -4068.9423 -820.7637 -4068.8087 -820.296 -4068.5414 -819.962 C -4068.252 -819.6279 -4067.673 -819.3384 -4066.871 -819.3384 C -4066.426 -819.3384 -4065.9804 -819.38295 -4065.535 -819.472 L -4065.023 -816.666 C -4065.691 -816.4879 -4066.3813 -816.3988 -4067.094 -816.4211 C -4069.076 -816.4211 -4070.5234 -817.0892 -4071.3697 -818.20265 C -4071.9933 -819.0489 -4072.283 -820.1401 -4072.283 -821.8994 Z"/></g><g id="Graphic_149"><path fill="#000717" d="M -4094.352 -832.4776 L -4091.056 -832.4776 L -4091.056 -829.048 L -4086.981 -829.048 L -4086.981 -826.242 L -4091.056 -826.242 L -4091.056 -821.52085 C -4091.056 -820.7637 -4090.9226 -820.296 -4090.6553 -819.962 C -4090.366 -819.6279 -4089.787 -819.3384 -4088.985 -819.3384 C -4088.5397 -819.3384 -4088.072 -819.38295 -4087.6267 -819.472 L -4087.1144 -816.666 C -4087.7825 -816.4879 -4088.473 -816.3988 -4089.1633 -816.4211 C -4091.1453 -816.4211 -4092.593 -817.0892 -4093.439 -818.20265 C -4094.0626 -819.0489 -4094.352 -820.1401 -4094.352 -821.8994 Z"/></g><g id="Graphic_148"><path fill="#000717" d="M -4055.1573 -826.1307 C -4055.558 -826.2198 -4055.959 -826.2643 -4056.36 -826.2643 C -4056.961 -826.242 -4057.5624 -826.0639 -4058.0746 -825.7521 C -4058.609 -825.4403 -4059.032 -824.9949 -4059.344 -824.4827 L -4059.344 -816.7328 L -4062.64 -816.7328 L -4062.64 -829.0703 L -4059.4554 -829.0703 L -4059.4554 -827.8232 C -4058.7205 -828.7363 -4057.362 -829.3153 -4055.87 -829.3153 C -4055.4913 -829.3153 -4055.135 -829.2707 -4054.7787 -829.2262 Z"/></g><g id="Graphic_147"><path fill="#000717" d="M -4041.662 -816.7106 L -4044.8464 -816.7106 L -4044.8464 -817.7127 C -4045.804 -816.8887 -4047.029 -816.4433 -4048.276 -816.4656 C -4049.1444 -816.4656 -4050.035 -816.6438 -4050.837 -817.0001 C -4051.6387 -817.3564 -4052.3513 -817.8909 -4052.9303 -818.5367 C -4053.9547 -819.7393 -4054.5115 -821.2759 -4054.5115 -822.857 C -4054.5115 -826.487 -4051.817 -829.293 -4048.454 -829.293 C -4047.14 -829.3153 -4045.871 -828.8699 -4044.8464 -828.0459 L -4044.8464 -829.0258 L -4041.662 -829.0258 Z M -4044.9577 -824.7277 C -4045.314 -825.1954 -4045.7817 -825.5962 -4046.294 -825.8635 C -4046.8284 -826.1307 -4047.4074 -826.2643 -4048.0087 -826.2643 C -4049.946 -826.2643 -4051.1933 -824.6609 -4051.1933 -822.8793 C -4051.2155 -822.4339 -4051.1487 -822.0108 -4050.993 -821.5877 C -4050.837 -821.1868 -4050.592 -820.8082 -4050.3025 -820.4964 C -4049.9907 -820.1847 -4049.6344 -819.9397 -4049.2335 -819.7615 C -4048.8327 -819.5834 -4048.3873 -819.5166 -4047.964 -819.5166 C -4047.385 -819.5166 -4046.806 -819.6502 -4046.294 -819.9174 C -4045.7817 -820.1847 -4045.3363 -820.5632 -4045.0023 -821.0532 L -4045.0023 -824.7277 Z"/></g><g id="Graphic_146"><path fill="#000717" d="M -4039.5016 -832.4776 L -4036.2057 -832.4776 L -4036.2057 -829.048 L -4032.1303 -829.048 L -4032.1303 -826.242 L -4036.2057 -826.242 L -4036.2057 -821.52085 C -4036.2057 -820.7637 -4036.072 -820.296 -4035.805 -819.962 C -4035.5153 -819.6279 -4034.9363 -819.3384 -4034.1346 -819.3384 C -4033.689 -819.3384 -4033.2215 -819.38295 -4032.776 -819.472 L -4032.264 -816.666 C -4032.932 -816.4879 -4033.6224 -816.3988 -4034.3128 -816.4211 C -4036.295 -816.4211 -4037.7423 -817.0892 -4038.5886 -818.20265 C -4039.2344 -819.0489 -4039.5016 -820.1401 -4039.5016 -821.8994 Z"/></g><g id="Graphic_145"><path fill="#000717" d="M -4020.1937 -818.6703 C -4020.8395 -817.9577 -4021.619 -817.4009 -4022.4875 -817.02235 C -4023.356 -816.6438 -4024.3136 -816.4433 -4025.249 -816.4656 C -4028.9235 -816.4656 -4031.707 -819.0044 -4031.707 -822.8793 C -4031.707 -826.3089 -4029.369 -829.3153 -4025.7166 -829.3153 C -4022.3093 -829.3153 -4019.882 -826.4425 -4019.882 -823.0129 C -4019.882 -822.70115 -4019.904 -822.3894 -4019.9487 -822.0776 L -4028.5003 -822.0776 C -4028.4113 -821.2536 -4028.0327 -820.4964 -4027.409 -819.9397 C -4026.7856 -819.4052 -4025.984 -819.1157 -4025.16 -819.138 C -4024.581 -819.16025 -4024.002 -819.2939 -4023.4674 -819.5388 C -4022.933 -819.7838 -4022.465 -820.1401 -4022.0644 -820.5632 Z M -4023.267 -824.4605 C -4023.3337 -825.0617 -4023.6233 -825.5962 -4024.0686 -825.9971 C -4024.514 -826.3979 -4025.093 -826.6206 -4025.6943 -826.6206 C -4026.318 -826.6206 -4026.919 -826.4202 -4027.409 -826.0193 C -4027.899 -825.6185 -4028.211 -825.084 -4028.3444 -824.4605 Z"/></g><g id="Group_142"><g id="Graphic_144"><path fill="#f50" d="M -4100.699 -834.7268 L -4100.766 -834.7714 C -4100.8104 -834.8159 -4100.877 -834.8382 -4100.9217 -834.8827 C -4100.9885 -834.905 -4101.033 -834.9495 -4101.0776 -834.9718 C -4101.59 -835.2168 -4102.1466 -835.3059 -4102.681 -835.2613 C -4102.7924 -835.239 -4102.9037 -835.2168 -4103.015 -835.2168 C -4104.1286 -835.0832 -4105.309 -835.2836 -4106.3556 -835.9071 C -4107.4245 -836.5307 -4108.204 -837.466 -4108.627 -838.5127 C -4108.694 -838.6909 -4108.7607 -838.8468 -4108.85 -839.0249 C -4108.872 -839.0472 -4108.872 -839.0695 -4108.8943 -839.0917 C -4108.961 -839.2031 -4109.05 -839.3144 -4109.117 -839.4035 L -4109.1393 -839.4258 C -4109.3174 -839.6485 -4109.518 -839.8266 -4109.7406 -839.9825 C -4109.7406 -839.9825 -4109.763 -839.9825 -4109.763 -840.0048 L -4109.785 -840.0271 C -4109.8296 -840.0493 -4109.874 -840.0716 -4109.9187 -840.0939 C -4109.9187 -840.0939 -4109.9187 -840.0939 -4109.941 -840.0939 C -4109.941 -840.0939 -4109.9633 -840.0939 -4109.9633 -840.1161 C -4110.03 -840.1607 -4110.119 -840.2052 -4110.186 -840.2275 C -4110.208 -840.2498 -4110.2305 -840.2498 -4110.253 -840.2498 C -4110.3196 -840.272 -4110.364 -840.2943 -4110.431 -840.3166 C -4110.4755 -840.3388 -4110.4977 -840.3388 -4110.5423 -840.3611 C -4110.587 -840.3834 -4110.6536 -840.3834 -4110.698 -840.4056 C -4110.7427 -840.4279 -4110.787 -840.4279 -4110.832 -840.4279 C -4110.8763 -840.4279 -4110.921 -840.4502 -4110.9654 -840.4502 C -4111.01 -840.4502 -4111.0545 -840.4724 -4111.1213 -840.4724 C -4111.166 -840.4724 -4111.2104 -840.4724 -4111.255 -840.4724 C -4111.2995 -840.4724 -4111.344 -840.4724 -4111.3885 -840.4724 C -4111.433 -840.4724 -4111.4776 -840.4724 -4111.522 -840.4724 C -4111.5667 -840.4724 -4111.611 -840.4724 -4111.656 -840.4724 C -4111.7003 -840.4724 -4111.745 -840.4724 -4111.8117 -840.4502 C -4111.856 -840.4502 -4111.9007 -840.4279 -4111.9453 -840.4279 C -4111.99 -840.4279 -4112.0344 -840.4056 -4112.079 -840.4056 C -4112.1234 -840.3834 -4112.19 -840.3834 -4112.235 -840.3611 C -4112.2793 -840.3388 -4112.3016 -840.3388 -4112.346 -840.3166 C -4112.413 -840.2943 -4112.4797 -840.272 -4112.5243 -840.2498 C -4112.5466 -840.2498 -4112.569 -840.2275 -4112.591 -840.2275 C -4112.658 -840.1829 -4112.747 -840.1607 -4112.814 -840.1161 C -4112.814 -840.1161 -4112.836 -840.1161 -4112.836 -840.0939 C -4112.836 -840.0939 -4112.836 -840.0939 -4112.8583 -840.0939 C -4112.903 -840.0716 -4112.9474 -840.0493 -4112.992 -840.0271 L -4113.014 -840.0048 C -4113.014 -840.0048 -4113.0365 -840.0048 -4113.0365 -839.9825 C -4113.259 -839.8266 -4113.4596 -839.6485 -4113.638 -839.4258 L -4113.66 -839.4035 C -4113.749 -839.2921 -4113.816 -839.2031 -4113.8827 -839.0917 C -4113.905 -839.0695 -4113.905 -839.0472 -4113.9273 -839.0249 C -4114.0164 -838.869 -4114.1054 -838.6909 -4114.15 -838.5127 C -4114.5954 -837.4438 -4115.3526 -836.5084 -4116.4215 -835.9071 C -4117.468 -835.3059 -4118.626 -835.0832 -4119.762 -835.2168 C -4119.8733 -835.239 -4119.9847 -835.239 -4120.096 -835.2613 C -4120.6305 -835.3059 -4121.187 -835.2168 -4121.6994 -834.9718 C -4121.744 -834.9495 -4121.811 -834.905 -4121.8553 -834.8827 C -4121.922 -834.8605 -4121.9667 -834.8159 -4122.011 -834.7714 L -4122.1003 -834.7268 C -4123.325 -833.8583 -4123.726 -832.1658 -4122.9466 -830.8296 C -4122.167 -829.4934 -4120.519 -828.9812 -4119.1384 -829.6048 L -4119.0493 -829.6493 C -4119.005 -829.6716 -4118.938 -829.7161 -4118.871 -829.7384 C -4118.8044 -829.7607 -4118.76 -829.8052 -4118.7153 -829.8275 C -4118.2254 -830.1393 -4117.869 -830.5847 -4117.6686 -831.0746 C -4117.624 -831.1859 -4117.602 -831.275 -4117.5573 -831.3864 C -4117.446 -831.6536 -4117.3123 -831.9208 -4117.134 -832.1658 C -4115.954 -834.1256 -4113.7937 -835.4395 -4111.3217 -835.4395 C -4108.85 -835.4395 -4106.712 -834.1256 -4105.5093 -832.1658 C -4105.3534 -831.9208 -4105.22 -831.6536 -4105.1084 -831.3864 C -4105.064 -831.275 -4105.0194 -831.1859 -4104.997 -831.0746 C -4104.7744 -830.5847 -4104.418 -830.1393 -4103.9504 -829.8275 C -4103.906 -829.7829 -4103.839 -829.7607 -4103.7945 -829.7384 C -4103.7277 -829.7161 -4103.683 -829.6716 -4103.6164 -829.6493 L -4103.5273 -829.6048 C -4102.1466 -828.9812 -4100.4986 -829.4934 -4099.719 -830.8296 C -4098.9397 -832.1658 -4099.474 -833.8583 -4100.699 -834.7268 Z"/></g><g id="Graphic_143"><path fill="#f50" d="M -4109.05 -821.12 C -4109.1393 -821.2091 -4109.206 -821.2982 -4109.273 -821.3872 C -4109.941 -822.278 -4110.342 -823.4138 -4110.342 -824.6164 C -4110.342 -825.8635 -4109.9187 -826.9992 -4109.206 -827.9123 C -4109.206 -827.9123 -4109.206 -827.9346 -4109.184 -827.9346 C -4109.1393 -827.9791 -4109.117 -828.0236 -4109.0725 -828.0682 C -4109.0725 -828.0682 -4109.0725 -828.0904 -4109.05 -828.0904 C -4108.716 -828.5358 -4108.5157 -829.0703 -4108.471 -829.6493 C -4108.471 -829.7161 -4108.471 -829.7829 -4108.471 -829.8498 C -4108.471 -831.4977 -4109.8074 -832.8116 -4111.433 -832.8116 C -4113.081 -832.8116 -4114.395 -831.47545 -4114.395 -829.8498 C -4114.395 -829.7829 -4114.395 -829.7161 -4114.395 -829.6493 C -4114.3504 -829.0703 -4114.15 -828.5358 -4113.816 -828.0904 C -4113.816 -828.0904 -4113.816 -828.0682 -4113.7937 -828.0682 C -4113.749 -828.0236 -4113.727 -827.9791 -4113.6823 -827.9346 L -4113.66 -827.9123 C -4112.9474 -826.9992 -4112.5243 -825.8635 -4112.5243 -824.6164 C -4112.5243 -823.4138 -4112.925 -822.3003 -4113.593 -821.3872 C -4113.66 -821.2982 -4113.727 -821.2091 -4113.7937 -821.12 C -4114.1054 -820.6746 -4114.306 -820.1624 -4114.3504 -819.5834 C -4114.3504 -819.5166 -4114.3504 -819.4498 -4114.3504 -819.4052 C -4114.3504 -819.3384 -4114.3504 -819.2716 -4114.3504 -819.2048 L -4114.3504 -819.1157 C -4114.217 -817.6014 -4112.9474 -816.4211 -4111.3885 -816.4211 C -4109.8296 -816.4211 -4108.5825 -817.6014 -4108.4266 -819.1157 L -4108.4266 -819.2048 C -4108.4266 -819.2716 -4108.4266 -819.3384 -4108.4266 -819.4052 C -4108.4266 -819.472 -4108.4266 -819.5388 -4108.4266 -819.5834 C -4108.538 -820.1624 -4108.7384 -820.6746 -4109.05 -821.12 Z"/></g></g></g><g id="Group_153"><g id="Graphic_163"><path fill="#000717" d="M -4074.354 -636.1191 C -4074.9997 -635.4065 -4075.779 -634.84975 -4076.6476 -634.4712 C -4077.516 -634.0926 -4078.474 -633.89215 -4079.409 -633.9144 C -4083.106 -633.9144 -4085.8673 -636.4532 -4085.8673 -640.3281 C -4085.8673 -643.7577 -4083.529 -646.7641 -4079.877 -646.7641 C -4076.4695 -646.7641 -4074.042 -643.8913 -4074.042 -640.46174 C -4074.042 -640.15 -4074.0643 -639.8382 -4074.109 -639.5264 L -4082.6605 -639.5264 C -4082.5937 -638.7024 -4082.193 -637.94526 -4081.5693 -637.3885 C -4080.9457 -636.854 -4080.144 -636.5645 -4079.32 -636.5868 C -4078.741 -636.6091 -4078.162 -636.7427 -4077.6275 -636.98765 C -4077.093 -637.2326 -4076.6254 -637.58894 -4076.2245 -638.0121 Z M -4077.427 -641.9093 C -4077.494 -642.5106 -4077.7834 -643.04504 -4078.229 -643.4459 C -4078.674 -643.84675 -4079.253 -644.06945 -4079.8545 -644.06945 C -4080.478 -644.06945 -4081.0793 -643.869 -4081.5693 -643.4682 C -4082.059 -643.0673 -4082.371 -642.5328 -4082.5046 -641.9093 Z"/></g><g id="Graphic_162"><path fill="#000717" d="M -4072.238 -649.9264 L -4068.9423 -649.9264 L -4068.9423 -646.49686 L -4064.867 -646.49686 L -4064.867 -643.6909 L -4068.9423 -643.6909 L -4068.9423 -638.9697 C -4068.9423 -638.2125 -4068.8087 -637.7448 -4068.5414 -637.4108 C -4068.252 -637.0767 -4067.673 -636.7872 -4066.871 -636.7872 C -4066.426 -636.7872 -4065.9804 -636.8318 -4065.535 -636.92084 L -4065.023 -634.11485 C -4065.691 -633.9367 -4066.3813 -633.8476 -4067.094 -633.8699 C -4069.076 -633.8699 -4070.5234 -634.538 -4071.3697 -635.6515 C -4071.9933 -636.4977 -4072.283 -637.58894 -4072.283 -639.34825 Z"/></g><g id="Graphic_161"><path fill="#000717" d="M -4094.352 -649.9264 L -4091.056 -649.9264 L -4091.056 -646.49686 L -4086.981 -646.49686 L -4086.981 -643.6909 L -4091.056 -643.6909 L -4091.056 -638.9697 C -4091.056 -638.2125 -4090.9226 -637.7448 -4090.6553 -637.4108 C -4090.366 -637.0767 -4089.787 -636.7872 -4088.985 -636.7872 C -4088.5397 -636.7872 -4088.072 -636.8318 -4087.6267 -636.92084 L -4087.1144 -634.11485 C -4087.7825 -633.9367 -4088.473 -633.8476 -4089.1633 -633.8699 C -4091.1453 -633.8699 -4092.593 -634.538 -4093.439 -635.6515 C -4094.0626 -636.4977 -4094.352 -637.58894 -4094.352 -639.34825 Z"/></g><g id="Graphic_160"><path fill="#000717" d="M -4055.1573 -643.5795 C -4055.558 -643.6686 -4055.959 -643.7131 -4056.36 -643.7131 C -4056.961 -643.6909 -4057.5624 -643.5127 -4058.0746 -643.2009 C -4058.609 -642.88915 -4059.032 -642.44376 -4059.344 -641.93155 L -4059.344 -634.18166 L -4062.64 -634.18166 L -4062.64 -646.5191 L -4059.4554 -646.5191 L -4059.4554 -645.272 C -4058.7205 -646.1851 -4057.362 -646.7641 -4055.87 -646.7641 C -4055.4913 -646.7641 -4055.135 -646.71956 -4054.7787 -646.675 Z"/></g><g id="Graphic_159"><path fill="#000717" d="M -4041.662 -634.1594 L -4044.8464 -634.1594 L -4044.8464 -635.1615 C -4045.804 -634.33755 -4047.029 -633.89215 -4048.276 -633.9144 C -4049.1444 -633.9144 -4050.035 -634.0926 -4050.837 -634.4489 C -4051.6387 -634.8052 -4052.3513 -635.3397 -4052.9303 -635.9855 C -4053.9547 -637.1881 -4054.5115 -638.7247 -4054.5115 -640.30585 C -4054.5115 -643.9358 -4051.817 -646.7418 -4048.454 -646.7418 C -4047.14 -646.7641 -4045.871 -646.3187 -4044.8464 -645.4947 L -4044.8464 -646.4746 L -4041.662 -646.4746 Z M -4044.9577 -642.1765 C -4045.314 -642.6442 -4045.7817 -643.04504 -4046.294 -643.3123 C -4046.8284 -643.5795 -4047.4074 -643.7131 -4048.0087 -643.7131 C -4049.946 -643.7131 -4051.1933 -642.1097 -4051.1933 -640.3281 C -4051.2155 -639.8827 -4051.1487 -639.4596 -4050.993 -639.0365 C -4050.837 -638.6356 -4050.592 -638.257 -4050.3025 -637.94526 C -4049.9907 -637.6335 -4049.6344 -637.3885 -4049.2335 -637.21035 C -4048.8327 -637.0322 -4048.3873 -636.9654 -4047.964 -636.9654 C -4047.385 -636.9654 -4046.806 -637.099 -4046.294 -637.36624 C -4045.7817 -637.6335 -4045.3363 -638.0121 -4045.0023 -638.502 L -4045.0023 -642.1765 Z"/></g><g id="Graphic_158"><path fill="#000717" d="M -4039.5016 -649.9264 L -4036.2057 -649.9264 L -4036.2057 -646.49686 L -4032.1303 -646.49686 L -4032.1303 -643.6909 L -4036.2057 -643.6909 L -4036.2057 -638.9697 C -4036.2057 -638.2125 -4036.072 -637.7448 -4035.805 -637.4108 C -4035.5153 -637.0767 -4034.9363 -636.7872 -4034.1346 -636.7872 C -4033.689 -636.7872 -4033.2215 -636.8318 -4032.776 -636.92084 L -4032.264 -634.11485 C -4032.932 -633.9367 -4033.6224 -633.8476 -4034.3128 -633.8699 C -4036.295 -633.8699 -4037.7423 -634.538 -4038.5886 -635.6515 C -4039.2344 -636.4977 -4039.5016 -637.58894 -4039.5016 -639.34825 Z"/></g><g id="Graphic_157"><path fill="#000717" d="M -4020.1937 -636.1191 C -4020.8395 -635.4065 -4021.619 -634.84975 -4022.4875 -634.4712 C -4023.356 -634.0926 -4024.3136 -633.89215 -4025.249 -633.9144 C -4028.9235 -633.9144 -4031.707 -636.4532 -4031.707 -640.3281 C -4031.707 -643.7577 -4029.369 -646.7641 -4025.7166 -646.7641 C -4022.3093 -646.7641 -4019.882 -643.8913 -4019.882 -640.46174 C -4019.882 -640.15 -4019.904 -639.8382 -4019.9487 -639.5264 L -4028.5003 -639.5264 C -4028.4113 -638.7024 -4028.0327 -637.94526 -4027.409 -637.3885 C -4026.7856 -636.854 -4025.984 -636.5645 -4025.16 -636.5868 C -4024.581 -636.6091 -4024.002 -636.7427 -4023.4674 -636.98765 C -4022.933 -637.2326 -4022.465 -637.58894 -4022.0644 -638.0121 Z M -4023.267 -641.9093 C -4023.3337 -642.5106 -4023.6233 -643.04504 -4024.0686 -643.4459 C -4024.514 -643.84675 -4025.093 -644.06945 -4025.6943 -644.06945 C -4026.318 -644.06945 -4026.919 -643.869 -4027.409 -643.4682 C -4027.899 -643.0673 -4028.211 -642.5328 -4028.3444 -641.9093 Z"/></g><g id="Group_154"><g id="Graphic_156"><path fill="#f50" d="M -4100.699 -652.17566 L -4100.766 -652.2202 C -4100.8104 -652.2647 -4100.877 -652.287 -4100.9217 -652.33155 C -4100.9885 -652.3538 -4101.033 -652.39836 -4101.0776 -652.4206 C -4101.59 -652.6656 -4102.1466 -652.7547 -4102.681 -652.7101 C -4102.7924 -652.6879 -4102.9037 -652.6656 -4103.015 -652.6656 C -4104.1286 -652.532 -4105.309 -652.7324 -4106.3556 -653.35596 C -4107.4245 -653.9795 -4108.204 -654.91484 -4108.627 -655.9615 C -4108.694 -656.1397 -4108.7607 -656.2956 -4108.85 -656.4737 C -4108.872 -656.496 -4108.872 -656.5183 -4108.8943 -656.5405 C -4108.961 -656.6519 -4109.05 -656.7632 -4109.117 -656.8523 L -4109.1393 -656.8746 C -4109.3174 -657.0973 -4109.518 -657.27544 -4109.7406 -657.4313 C -4109.7406 -657.4313 -4109.763 -657.4313 -4109.763 -657.4536 L -4109.785 -657.4759 C -4109.8296 -657.4981 -4109.874 -657.5204 -4109.9187 -657.5427 C -4109.9187 -657.5427 -4109.9187 -657.5427 -4109.941 -657.5427 C -4109.941 -657.5427 -4109.9633 -657.5427 -4109.9633 -657.56495 C -4110.03 -657.6095 -4110.119 -657.654 -4110.186 -657.6763 C -4110.208 -657.6986 -4110.2305 -657.6986 -4110.253 -657.6986 C -4110.3196 -657.7208 -4110.364 -657.7431 -4110.431 -657.7654 C -4110.4755 -657.78765 -4110.4977 -657.78765 -4110.5423 -657.8099 C -4110.587 -657.8322 -4110.6536 -657.8322 -4110.698 -657.85446 C -4110.7427 -657.8767 -4110.787 -657.8767 -4110.832 -657.8767 C -4110.8763 -657.8767 -4110.921 -657.899 -4110.9654 -657.899 C -4111.01 -657.899 -4111.0545 -657.9213 -4111.1213 -657.9213 C -4111.166 -657.9213 -4111.2104 -657.9213 -4111.255 -657.9213 C -4111.2995 -657.9213 -4111.344 -657.9213 -4111.3885 -657.9213 C -4111.433 -657.9213 -4111.4776 -657.9213 -4111.522 -657.9213 C -4111.5667 -657.9213 -4111.611 -657.9213 -4111.656 -657.9213 C -4111.7003 -657.9213 -4111.745 -657.9213 -4111.8117 -657.899 C -4111.856 -657.899 -4111.9007 -657.8767 -4111.9453 -657.8767 C -4111.99 -657.8767 -4112.0344 -657.85446 -4112.079 -657.85446 C -4112.1234 -657.8322 -4112.19 -657.8322 -4112.235 -657.8099 C -4112.2793 -657.78765 -4112.3016 -657.78765 -4112.346 -657.7654 C -4112.413 -657.7431 -4112.4797 -657.7208 -4112.5243 -657.6986 C -4112.5466 -657.6986 -4112.569 -657.6763 -4112.591 -657.6763 C -4112.658 -657.63176 -4112.747 -657.6095 -4112.814 -657.56495 C -4112.814 -657.56495 -4112.836 -657.56495 -4112.836 -657.5427 C -4112.836 -657.5427 -4112.836 -657.5427 -4112.8583 -657.5427 C -4112.903 -657.5204 -4112.9474 -657.4981 -4112.992 -657.4759 L -4113.014 -657.4536 C -4113.014 -657.4536 -4113.0365 -657.4536 -4113.0365 -657.4313 C -4113.259 -657.27544 -4113.4596 -657.0973 -4113.638 -656.8746 L -4113.66 -656.8523 C -4113.749 -656.741 -4113.816 -656.6519 -4113.8827 -656.5405 C -4113.905 -656.5183 -4113.905 -656.496 -4113.9273 -656.4737 C -4114.0164 -656.31784 -4114.1054 -656.1397 -4114.15 -655.9615 C -4114.5954 -654.8926 -4115.3526 -653.95724 -4116.4215 -653.35596 C -4117.468 -652.7547 -4118.626 -652.532 -4119.762 -652.6656 C -4119.8733 -652.6879 -4119.9847 -652.6879 -4120.096 -652.7101 C -4120.6305 -652.7547 -4121.187 -652.6656 -4121.6994 -652.4206 C -4121.744 -652.39836 -4121.811 -652.3538 -4121.8553 -652.33155 C -4121.922 -652.3093 -4121.9667 -652.2647 -4122.011 -652.2202 L -4122.1003 -652.17566 C -4123.325 -651.3071 -4123.726 -649.6146 -4122.9466 -648.27844 C -4122.167 -646.94225 -4120.519 -646.43005 -4119.1384 -647.0536 L -4119.0493 -647.09814 C -4119.005 -647.1204 -4118.938 -647.16495 -4118.871 -647.1872 C -4118.8044 -647.2095 -4118.76 -647.254 -4118.7153 -647.2763 C -4118.2254 -647.5881 -4117.869 -648.0335 -4117.6686 -648.5234 C -4117.624 -648.63476 -4117.602 -648.7238 -4117.5573 -648.8352 C -4117.446 -649.1024 -4117.3123 -649.3697 -4117.134 -649.6146 C -4115.954 -651.5744 -4113.7937 -652.8883 -4111.3217 -652.8883 C -4108.85 -652.8883 -4106.712 -651.5744 -4105.5093 -649.6146 C -4105.3534 -649.3697 -4105.22 -649.1024 -4105.1084 -648.8352 C -4105.064 -648.7238 -4105.0194 -648.63476 -4104.997 -648.5234 C -4104.7744 -648.0335 -4104.418 -647.5881 -4103.9504 -647.2763 C -4103.906 -647.2318 -4103.839 -647.2095 -4103.7945 -647.1872 C -4103.7277 -647.16495 -4103.683 -647.1204 -4103.6164 -647.09814 L -4103.5273 -647.0536 C -4102.1466 -646.43005 -4100.4986 -646.94225 -4099.719 -648.27844 C -4098.9397 -649.6146 -4099.474 -651.3071 -4100.699 -652.17566 Z"/></g><g id="Graphic_155"><path fill="#f50" d="M -4109.05 -638.5688 C -4109.1393 -638.6579 -4109.206 -638.747 -4109.273 -638.83605 C -4109.941 -639.72684 -4110.342 -640.8626 -4110.342 -642.0652 C -4110.342 -643.3123 -4109.9187 -644.448 -4109.206 -645.3611 C -4109.206 -645.3611 -4109.206 -645.3834 -4109.184 -645.3834 C -4109.1393 -645.4279 -4109.117 -645.47245 -4109.0725 -645.517 C -4109.0725 -645.517 -4109.0725 -645.53926 -4109.05 -645.53926 C -4108.716 -645.98465 -4108.5157 -646.5191 -4108.471 -647.09814 C -4108.471 -647.16495 -4108.471 -647.2318 -4108.471 -647.2986 C -4108.471 -648.9465 -4109.8074 -650.26045 -4111.433 -650.26045 C -4113.081 -650.26045 -4114.395 -648.9243 -4114.395 -647.2986 C -4114.395 -647.2318 -4114.395 -647.16495 -4114.395 -647.09814 C -4114.3504 -646.5191 -4114.15 -645.98465 -4113.816 -645.53926 C -4113.816 -645.53926 -4113.816 -645.517 -4113.7937 -645.517 C -4113.749 -645.47245 -4113.727 -645.4279 -4113.6823 -645.3834 L -4113.66 -645.3611 C -4112.9474 -644.448 -4112.5243 -643.3123 -4112.5243 -642.0652 C -4112.5243 -640.8626 -4112.925 -639.7491 -4113.593 -638.83605 C -4113.66 -638.747 -4113.727 -638.6579 -4113.7937 -638.5688 C -4114.1054 -638.1234 -4114.306 -637.6112 -4114.3504 -637.0322 C -4114.3504 -636.9654 -4114.3504 -636.8986 -4114.3504 -636.854 C -4114.3504 -636.7872 -4114.3504 -636.7204 -4114.3504 -636.6536 L -4114.3504 -636.5645 C -4114.217 -635.0502 -4112.9474 -633.8699 -4111.3885 -633.8699 C -4109.8296 -633.8699 -4108.5825 -635.0502 -4108.4266 -636.5645 L -4108.4266 -636.6536 C -4108.4266 -636.7204 -4108.4266 -636.7872 -4108.4266 -636.854 C -4108.4266 -636.92084 -4108.4266 -636.98765 -4108.4266 -637.0322 C -4108.538 -637.6112 -4108.7384 -638.1234 -4109.05 -638.5688 Z"/></g></g></g><g id="Graphic_165"><rect width="54.736" height="28.448" x="-3949.84" y="-125.899" fill="#fff"/><text fill="#000" transform="translate(-3944.84 -120.89913)"><tspan x="0" y="15" fill="#000" font-family="Helvetica Neue" font-size="16" font-style="italic">Select</tspan></text></g></g></g></svg>