<?xml version="1.0" encoding="utf-8"?>
<!-- Generator: Adobe Illustrator 26.2.1, SVG Export Plug-In . SVG Version: 6.00 Build 0)  -->
<svg version="1.1" id="Layer_1" xmlns="http://www.w3.org/2000/svg" xmlns:xlink="http://www.w3.org/1999/xlink" x="0px" y="0px"
	 viewBox="0 0 1920 1080" style="enable-background:new 0 0 1920 1080;" xml:space="preserve">
<style type="text/css">
	.st0{clip-path:url(#SVGID_00000014614248237662940420000018007138070649819835_);fill:#C2E0F2;}
	.st1{clip-path:url(#SVGID_00000014614248237662940420000018007138070649819835_);}
	.st2{fill:#E4F2FF;}
	.st3{fill:none;stroke:#AD7823;stroke-width:2;stroke-linecap:round;stroke-linejoin:round;stroke-miterlimit:10;}
	.st4{opacity:0.55;clip-path:url(#SVGID_00000014614248237662940420000018007138070649819835_);}
	.st5{fill:#F88C3C;}
	.st6{fill:#BF4A10;}
	.st7{fill:#FF6845;}
	.st8{fill:#FCA430;}
	.st9{fill:#87201B;}
	.st10{opacity:0.41;}
	.st11{opacity:0.19;}
	.st12{fill:#DF490C;}
	.st13{fill:#AD321E;}
	.st14{opacity:0.25;}
	.st15{fill:#E5622F;}
	.st16{fill:#D1461C;}
	.st17{fill:#983520;}
	.st18{fill:#E5BA6E;}
	.st19{fill:#AD7823;}
	.st20{fill:#C48D2C;}
	.st21{fill:#E6F4FF;}
	.st22{fill:#D2EAFC;}
	.st23{fill:#F4F9FF;}
</style>
<g>
	<defs>
		<rect id="SVGID_1_" width="1920" height="1080"/>
	</defs>
	<clipPath id="SVGID_00000004545989165471902800000003148597984601138314_">
		<use xlink:href="#SVGID_1_"  style="overflow:visible;"/>
	</clipPath>
	
		<rect style="clip-path:url(#SVGID_00000004545989165471902800000003148597984601138314_);fill:#C2E0F2;" width="1920" height="1080"/>
	<g style="clip-path:url(#SVGID_00000004545989165471902800000003148597984601138314_);">
		<path class="st2" d="M0.2-151.4c119.4-150,281.2-112.9,321.7-103.7C472.4-220.7,491.5-104.7,693,28.5
			c125.8,83.1,263.7,174.3,418.7,131.1c160.3-44.7,164.9-184.4,380.7-323.2c132.8-85.4,313.7-201.8,441.6-70.1
			c168.8,173.8,182.2,714.6,70.4,832.4c-77.7,81.9-164.5-94.9-437.8-192.1c-224.8-80-252.1,9.2-504.4-42.7
			c-389.2-80-431.5-314.2-626.2-250C130.2,214.6,49.2,853.6-55,799.9C-154.3,748.8-204.4,105.6,0.2-151.4z"/>
		<path class="st3" d="M15.4-288.6C118.5-369,290.9-219.1,607.4,55.9c22.4,19.5,45.8,40.5,81.8,67.1
			c37.2,27.5,222.6,160.2,382.6,161.6c252.4,2.2,485.5-322.1,580.5-454.3c27.8-38.7,109.3-156,236-219.5
			c64.7-32.5,119-59.7,161.8-24.4c139.3,115,101.2,847.9-40,920.9c-80.6,41.7-124.7-167.7-325.5-237.8
			c-93.3-32.6-171.3-14.6-327.4,21.3c-226,52.1-253.1,118.1-384.5,112.8c-171.1-6.8-191.9-121.4-327.4-146.4
			C318,196.9,131.7,809.7-11.2,705.4C-155.2,600.3-152.6-157.7,15.4-288.6z"/>
	</g>
	<g style="opacity:0.55;clip-path:url(#SVGID_00000004545989165471902800000003148597984601138314_);">
		<g>
			<g>
				<path class="st5" d="M325.6,158.4c-0.5-0.6-0.9-1.2-1.3-1.8c-4.5-6.4-6.1-13-4.8-20.8c1.4-8.5,5.7-16.3,10.5-23.4
					c10.2,8.4,14.1,19.9,13.6,32.9c-0.3,7.7-0.9,15.8-2.1,23.4c-0.1,0.5-8.7-3.9-9.4-4.4C329.6,162.7,327.4,160.7,325.6,158.4z"/>
			</g>
			<g>
				<path class="st5" d="M313.6,87.1c3-6.2,8.4-11.1,14.8-13.7s13.7-2.8,20.3-0.9c7.6,2.2,14.1,7,20.4,11.7
					c-5.1,3.1-10.3,6.2-16,7.9c-12.8,3.7-26.4-0.1-38.9-4.7"/>
			</g>
			<g>
				<path class="st5" d="M375.5,143c10,4.1,15.7,15.1,16.6,25.9c0.9,10.7-2,21.4-5,31.7c-4.7-2.3-9.5-4.8-13.1-8.6
					c-4.4-4.7-6.6-11.1-7.2-17.5c-0.6-6.4,0.4-12.9,1.7-19.1c1-4.7,2.8-10.1,7.3-11.8"/>
			</g>
			<g>
				<path class="st5" d="M394.9,120c-6.1,1.9-13.6,3-20,3.2c-6.8,0.2-14.6-5.3-19.5-9.5c-0.1-0.1-0.2-0.2-0.3-0.3
					c-0.1-0.3,0.1-0.6,0.3-0.9c6.6-9.1,17-14.2,28.3-14.6c5.5-0.2,11,1.6,15.8,4.3c4.8,2.7,9.1,6.3,13.2,9.9
					C406.9,115,401.1,118,394.9,120z"/>
			</g>
			<g>
				<path class="st5" d="M446.9,149.8c4.9-4.8,11.2-8.1,18-9.3c7.7-1.4,15.7,0,23.1,2.6c7.4,2.6,14.3,6.5,21.1,10.3
					c-3.5,1.4-6.9,2.8-10.4,4.2c-5.1,2.1-10.3,4.2-15.8,5c-6.6,1-13.4,0.1-19.9-1.7c-6.7-1.9-13.4-5.1-17.6-10.6"/>
			</g>
			<g>
				<path class="st5" d="M423.4,191.4c-1.7-1.1-3.1-2.5-4.2-4.7c-4.6-9.5-3.9-21.2,1.1-30.4c0.1-0.2,0.2-0.4,0.5-0.4
					c0.1,0,0.3,0.1,0.4,0.1c4.4,2.6,10.8,5.1,13.8,9.4c2.7,3.9,5.5,8.6,6.8,13.3c0.9,3.4,1.3,7,1.7,10.5c0.4,3.8,0.8,7.5,1.3,11.3
					c-6.3-1.4-12-3.3-17.6-6.7C425.9,192.9,424.6,192.2,423.4,191.4z"/>
			</g>
			<g>
				<path class="st5" d="M410.2,136.7c8.8,3.1,18.7,2.4,27.2-1.2c8.6-3.6,15.8-10,21.2-17.6c-4-2.7-8.9-3.6-13.7-4
					c-7.8-0.7-16.1-0.2-23,3.5s-12.4,11-11.9,18.9"/>
			</g>
			<g>
				<g>
					<path class="st6" d="M482,149.9c-40.2,0.4-80.8-1.5-116.2-22.4C335.5,109.7,309,83.8,272,82c-1.9-0.1-2,2.8-0.2,2.9
						c40,2,68,32.6,101.5,50.1c33.1,17.3,72,18.1,108.5,17.7C483.7,152.8,483.9,149.9,482,149.9L482,149.9z"/>
				</g>
				<g>
					<path class="st6" d="M324.4,102.8c11.5,17,4.8,39.2,12.4,57.6c0.4,0.9,1.7,0.2,1.3-0.6c-7.7-18.6-0.9-40.6-12.6-57.9
						C325,101.1,323.9,102.1,324.4,102.8L324.4,102.8z"/>
				</g>
				<g>
					<path class="st6" d="M353.9,83c-16.5-2.2-33.2,0.6-48.2,7.9c-0.8,0.4-0.2,1.7,0.6,1.3c14.7-7.2,31.2-9.9,47.4-7.8
						C354.7,84.6,354.8,83.1,353.9,83L353.9,83z"/>
				</g>
				<g>
					<path class="st6" d="M395.1,109.3c-16.1-1.6-33-1.6-47.2,7.2c-0.8,0.5-0.1,1.8,0.6,1.3c14-8.7,30.6-8.6,46.5-7.1
						C396,110.9,396.1,109.4,395.1,109.3L395.1,109.3z"/>
				</g>
				<g>
					<path class="st6" d="M374.5,135c-0.6,18.1,2.9,36,10.3,52.5c0.4,0.9,1.7,0.2,1.3-0.6c-7.3-16.3-10.8-33.9-10.2-51.7
						C376,134.1,374.5,134,374.5,135L374.5,135z"/>
				</g>
				<g>
					<path class="st6" d="M436,125.1c-6.6,1.2-12.9,3.4-18.9,6.4c-5.9,3-12.2,6.9-15.8,12.5c-0.5,0.8,0.7,1.6,1.2,0.8
						c3.5-5.5,9.6-9.1,15.3-12c5.8-3.1,12.1-5.1,18.6-6.3C437.2,126.4,436.9,125,436,125.1L436,125.1z"/>
				</g>
				<g>
					<path class="st6" d="M416.4,148.6c3.7,14.1,7.8,28.8,18.5,39.5c0.7,0.7,1.8-0.3,1.1-1c-10.4-10.5-14.5-24.9-18.1-38.8
						C417.6,147.4,416.2,147.7,416.4,148.6L416.4,148.6z"/>
				</g>
			</g>
		</g>
		<g>
			<g>
				<path class="st5" d="M1205.1,156.6c-0.4,0.7-0.8,1.4-1.1,2.2c-3.8,7.9-4.1,15.5-1.3,23.8c3.2,9.1,9.4,16.8,16.1,23.7
					c9.6-11.2,11.7-24.6,8.6-38.8c-1.8-8.4-4-17.1-6.8-25.3c-0.2-0.5-8.8,6-9.5,6.7C1208.7,151.1,1206.7,153.7,1205.1,156.6z"/>
			</g>
			<g>
				<path class="st5" d="M1205.7,237.2c4.5,6.2,11.4,10.6,18.9,12.2s15.5,0.5,22.4-2.9c7.9-3.9,14.1-10.4,20.1-16.8
					c-6.2-2.4-12.5-4.8-19.1-5.6c-14.7-1.6-29,5.2-41.8,12.7"/>
			</g>
			<g>
				<path class="st5" d="M1262.9,163.9c10.1-6.4,14.3-19.6,13.3-31.6c-1-12-6.4-23.1-11.6-33.9c-4.7,3.4-9.5,7.1-12.7,12
					c-3.9,6-5.1,13.5-4.5,20.6c0.6,7.1,2.9,14,5.6,20.7c2,5,5,10.6,10.3,11.5"/>
			</g>
			<g>
				<path class="st5" d="M1288.6,185.4c-7.1-0.9-15.5-0.7-22.5,0.4c-7.5,1.1-15,8.6-19.6,14.2c-0.1,0.1-0.2,0.3-0.2,0.4
					c-0.1,0.4,0.2,0.7,0.5,0.9c9,8.7,21.4,12.2,33.9,10.5c6.1-0.8,11.8-3.8,16.5-7.7c4.8-3.9,8.8-8.6,12.6-13.5
					C1302.7,188.5,1295.8,186.4,1288.6,185.4z"/>
			</g>
			<g>
				<path class="st5" d="M1340,142.7c6.3,4.4,13.9,6.8,21.6,6.8c8.7,0,17.3-3,24.9-7.3c7.6-4.3,14.4-9.9,21.2-15.4
					c-4.1-0.9-8.2-1.8-12.2-2.7c-6-1.3-12.1-2.6-18.3-2.5c-7.5,0.2-14.8,2.4-21.5,5.7c-7,3.4-13.8,8.1-17.3,15.1"/>
			</g>
			<g>
				<path class="st5" d="M1306.1,101.5c-1.6,1.6-2.9,3.3-3.7,6c-3.2,11.4-0.2,24,7,33.2c0.2,0.2,0.3,0.4,0.6,0.4
					c0.2,0,0.3-0.1,0.4-0.2c4.3-3.8,10.9-7.7,13.4-13c2.2-4.9,4.4-10.5,4.9-15.9c0.4-3.9,0.1-7.9-0.1-11.9
					c-0.3-4.2-0.5-8.4-0.8-12.6c-6.7,2.7-12.6,5.9-18,10.7C1308.5,99.4,1307.2,100.4,1306.1,101.5z"/>
			</g>
			<g>
				<path class="st5" d="M1302.2,164c9-5.1,20-6.3,30.1-4c10.1,2.3,19.3,7.9,26.7,15.2c-3.8,3.7-9.1,5.6-14.2,7
					c-8.5,2.3-17.6,3.3-25.9,0.6c-8.3-2.7-15.7-9.7-16.7-18.4"/>
			</g>
			<g>
				<g>
					<path class="st6" d="M1378.5,135.8c-44.2,7.3-88.4,17.2-123.3,47c-29.8,25.4-53.9,58.9-94.1,68c-2,0.5-2.8-2.7-0.7-3.2
						c43.5-9.9,68.4-48.9,101.8-74.6c33-25.4,75.5-33.7,115.6-40.4C1379.8,132.3,1380.6,135.4,1378.5,135.8L1378.5,135.8z"/>
				</g>
				<g>
					<path class="st6" d="M1214.5,217.8c9.4-20.9-2.3-44,2.5-65.6c0.2-1,1.8-0.6,1.6,0.5c-4.9,21.9,6.8,44.8-2.7,66
						C1215.5,219.6,1214.1,218.8,1214.5,217.8L1214.5,217.8z"/>
				</g>
				<g>
					<path class="st6" d="M1250.7,233.9c-17.7,5.6-36.6,5.8-54.4,0.6c-1-0.3-0.5-1.8,0.5-1.6c17.6,5.1,36.1,4.9,53.6-0.6
						C1251.3,232,1251.7,233.6,1250.7,233.9L1250.7,233.9z"/>
				</g>
				<g>
					<path class="st6" d="M1290.9,197c-17.4,4.8-35.9,8.1-53.2,1.2c-1-0.4-0.5-1.9,0.5-1.6c17,6.8,35.3,3.5,52.4-1.2
						C1291.6,195.2,1291.9,196.8,1290.9,197L1290.9,197z"/>
				</g>
				<g>
					<path class="st6" d="M1263.3,172.9c-4.2-19.7-3.8-40,1.2-59.6c0.3-1,1.8-0.6,1.6,0.5c-4.9,19.3-5.3,39.3-1.2,58.7
						C1265.1,173.5,1263.5,173.9,1263.3,172.9L1263.3,172.9z"/>
				</g>
				<g>
					<path class="st6" d="M1332.7,171.8c-7.5-0.1-14.9-1.2-22-3.4c-7-2.1-14.7-5.2-19.8-10.7c-0.7-0.8,0.5-1.9,1.2-1.1
						c4.9,5.3,12.3,8.1,19.1,10.3c7,2.3,14.3,3.3,21.6,3.3C1333.8,170.2,1333.8,171.8,1332.7,171.8L1332.7,171.8z"/>
				</g>
				<g>
					<path class="st6" d="M1306.7,149.8c1.4-16.2,3-33.2,12.6-46.9c0.6-0.9,2,0,1.4,0.8c-9.4,13.5-11.1,30.1-12.4,46.1
						C1308.2,150.9,1306.6,150.8,1306.7,149.8L1306.7,149.8z"/>
				</g>
			</g>
		</g>
		<g>
			<g>
				<path class="st7" d="M1165.6,60.8c-4.6,0.4-9,2-13.4,3.2s-9.2,1.9-13.6,0.5c-1.4-0.4-2.8-1.2-3.5-2.4c-0.7-1.4-0.4-3.2,0.4-4.4
					c0.9-1.3,2.3-2.2,3.7-2.8c3.7-1.6,7.9-1.8,11.9-1.1c4,0.7,7.7,2.4,11.3,4.3C1163.6,58.7,1164.9,59.5,1165.6,60.8"/>
			</g>
			<g>
				<path class="st7" d="M1165.7,82.4c0-3.6,0.3-7.1,2-10.4c1.9-3.7,3.9-7.3,6.1-10.8c-0.1,3.1,0.8,5.8,1.3,8.8
					c0.5,2.6,0.7,5.4,0.6,8c-0.1,4.3-1.5,8.8-4.9,11.4c-0.7,0.6-1.7,1-2.5,0.6c-0.4-0.2-0.7-0.6-1-1
					C1166.2,87.2,1165.7,84.8,1165.7,82.4z"/>
			</g>
			<g>
				<path class="st7" d="M1131.8,79.1c4.9,0.9,10.1,2.1,14.8,3.9c-2.6,0.6-5.2,1.5-7.7,2.5c-2.3,0.9-4.4,2.4-6.7,3.1
					c-4.4,1.5-9.1,2-13.7,1.1c-1.3-0.3-2.7-0.7-3.5-1.8c-0.9-1.3-0.6-3,0.2-4.3c0.9-1.3,2.2-2.1,3.5-2.8c1.7-0.9,3.4-1.6,5.2-2
					C1126.5,78.3,1129.2,78.6,1131.8,79.1z"/>
			</g>
			<g>
				<path class="st7" d="M1149.7,102.3c0.1-1.9,0.5-3.8,0.8-5.7c0.4-2.3,0.8-4.2,1.5-6.4c0.9-2.7,2.3-5.1,2.8-7.9
					c2.6,5.7,5.5,11.2,5.7,17.6c0.2,4.1-0.7,8.6-3.7,11.5c-0.6,0.6-1.4,1.1-2.3,1.2c-1.7,0.2-3.2-1.3-3.9-2.9
					C1149.6,107.4,1149.5,104.8,1149.7,102.3z"/>
			</g>
			<g>
				<path class="st7" d="M1114.4,106.7c1.7-1.4,3.6-2.5,4.8-3.3c4.2-2.7,8.9-4.7,13.5-6.5c2.4-0.9,4.8-1.9,7.2-2.9
					c-2.3,4.7-4.7,9.4-8.2,13.4c-3,3.4-7.4,6.3-11.5,8.4c-1.7,0.8-3.6,1.5-5.5,1.4s-3.9-1.4-4.3-3.2
					C1109.8,111.2,1111.9,108.7,1114.4,106.7z"/>
			</g>
			<g>
				<path class="st6" d="M1118.6,111.1c12.2-7.2,23-16.3,32.1-27.1c4.9-5.8,9.2-12,14.6-17.3c5.3-5.2,11.6-9.4,18.3-12.8
					c0.8-0.4,0-1.5-0.8-1.1c-6.1,3-11.7,6.8-16.8,11.3c-5.7,5-10.1,11.1-14.8,16.9c-9.3,11.6-20.7,21.3-33.5,28.9
					C1117.1,110.4,1117.9,111.5,1118.6,111.1L1118.6,111.1z"/>
			</g>
			<g>
				<path class="st6" d="M1169.8,61.4c-9.6-2.2-19.7-4.4-29.5-1.6c-0.4,0.1-0.2,0.8,0.2,0.7c9.6-2.8,19.6-0.6,29.1,1.6
					C1170.1,62.2,1170.2,61.5,1169.8,61.4L1169.8,61.4z"/>
			</g>
			<g>
				<path class="st6" d="M1170.2,83.1c4.2-7.6,1.2-17,5.3-24.7c0.2-0.4-0.4-0.7-0.6-0.3c-4.2,7.6-1.2,17-5.3,24.7
					C1169.4,83.2,1170,83.5,1170.2,83.1L1170.2,83.1z"/>
			</g>
			<g>
				<path class="st6" d="M1151,81.9c-8.8,2.6-18.3-1.7-26.7,2.7c-0.4,0.2,0,0.8,0.4,0.6c8.3-4.3,17.9,0,26.6-2.6
					C1151.6,82.4,1151.4,81.8,1151,81.9L1151,81.9z"/>
			</g>
			<g>
				<path class="st6" d="M1155.6,104.4c1.1-4.3,0.5-8.7-0.1-13.1c-0.6-5-0.5-10,0.5-14.9c0.1-0.4-0.6-0.6-0.7-0.1
					c-1,4.6-1.1,9.3-0.7,14c0.5,4.7,1.4,9.3,0.2,14C1154.8,104.7,1155.5,104.8,1155.6,104.4L1155.6,104.4z"/>
			</g>
		</g>
		<g>
			<g>
				<path class="st7" d="M403.8,224.6c-3.9-2.4-8.4-3.7-12.7-5.3c-4.3-1.7-8.5-3.9-11.3-7.6c-0.9-1.2-1.6-2.6-1.4-4
					c0.2-1.5,1.5-2.8,3-3.3c1.5-0.5,3.1-0.4,4.6-0.1c3.9,0.9,7.5,3.2,10.2,6.1c2.8,2.9,4.8,6.5,6.6,10.1
					C403.5,221.7,404.1,223.1,403.8,224.6"/>
			</g>
			<g>
				<path class="st7" d="M391.1,242.1c2.1-2.9,4.5-5.6,7.7-7.2c3.7-1.8,7.5-3.6,11.3-5.1c-1.9,2.5-2.8,5.1-4.1,7.9
					c-1.1,2.3-2.7,4.8-4.2,6.9c-2.6,3.4-6.4,6.2-10.7,6.3c-0.9,0-1.9-0.1-2.4-0.9c-0.2-0.4-0.2-0.9-0.2-1.3
					C388.7,246.2,389.7,243.9,391.1,242.1z"/>
			</g>
			<g>
				<path class="st7" d="M365.8,219.3c3.4,3.7,6.9,7.7,9.6,11.9c-2.5-1-5.1-1.9-7.7-2.5c-2.4-0.6-5-0.7-7.3-1.4
					c-4.4-1.4-8.6-3.8-11.7-7.2c-0.9-1-1.8-2.2-1.7-3.5c0-1.5,1.3-2.8,2.7-3.4c1.4-0.5,3-0.4,4.5-0.2c1.9,0.3,3.7,0.7,5.4,1.5
					C362,215.6,364,217.4,365.8,219.3z"/>
			</g>
			<g>
				<path class="st7" d="M366.5,248.6c1.2-1.5,2.6-2.8,4-4.1c1.6-1.6,3.1-3,5-4.3c2.3-1.6,4.9-2.7,6.9-4.8
					c-1.2,6.1-2.2,12.3-5.8,17.6c-2.3,3.5-5.6,6.6-9.8,7.1c-0.9,0.1-1.8,0.1-2.6-0.3c-1.5-0.9-1.8-2.9-1.4-4.6
					C363.4,252.7,364.9,250.6,366.5,248.6z"/>
			</g>
			<g>
				<path class="st7" d="M335.4,231.4c2.2-0.1,4.4,0.1,5.9,0.2c5,0.3,10,1.5,14.7,2.8c2.5,0.7,5,1.3,7.5,1.9
					c-4.6,2.4-9.4,4.8-14.5,5.9c-4.5,1-9.7,0.8-14.2,0c-1.9-0.3-3.8-0.9-5.3-2.2c-1.5-1.3-2.3-3.4-1.6-5.2
					C329,232.3,332.2,231.5,335.4,231.4z"/>
			</g>
			<g>
				<path class="st6" d="M336.3,237.4c14.1,1.4,28.2,0.4,41.9-2.9c7.4-1.8,14.5-4.2,22-5.3c7.4-1.1,15-0.7,22.3,0.5
					c0.9,0.2,0.9-1.2,0.1-1.4c-6.7-1.2-13.4-1.4-20.2-0.8c-7.5,0.7-14.7,3-21.9,4.9c-14.4,3.9-29.3,5-44.1,3.5
					C335.4,236,335.4,237.3,336.3,237.4L336.3,237.4z"/>
			</g>
			<g>
				<path class="st6" d="M406.9,227.5c-6.5-7.5-13.3-15.2-22.9-18.7c-0.4-0.2-0.6,0.5-0.2,0.7c9.4,3.4,16.2,11.1,22.6,18.5
					C406.7,228.3,407.2,227.8,406.9,227.5L406.9,227.5z"/>
			</g>
			<g>
				<path class="st6" d="M394.4,245.3c7.9-3.7,11-13.1,18.9-16.8c0.4-0.2,0.1-0.8-0.3-0.6c-7.9,3.7-11,13.1-18.9,16.8
					C393.7,244.9,394,245.5,394.4,245.3L394.4,245.3z"/>
			</g>
			<g>
				<path class="st6" d="M379.6,232.9c-8.6-3.1-13.8-12.2-23.2-13.6c-0.4-0.1-0.5,0.6,0,0.7c9.2,1.4,14.5,10.5,23,13.6
					C379.8,233.8,380,233.1,379.6,232.9L379.6,232.9z"/>
			</g>
			<g>
				<path class="st6" d="M370,253.8c3.4-2.8,5.5-6.8,7.7-10.6c2.5-4.4,5.5-8.4,9.2-11.7c0.3-0.3-0.1-0.8-0.5-0.5
					c-3.5,3.2-6.4,6.8-8.8,10.9c-2.4,4.1-4.4,8.4-8.1,11.4C369.2,253.6,369.7,254.1,370,253.8L370,253.8z"/>
			</g>
		</g>
		<g>
			<g>
				<path class="st8" d="M1068,101.2c-1,1-2,1.9-2.9,2.7c6.3-0.7,13.6-1.1,18.1,3.3c5.4,5.3,3.8,14.5-0.1,20.9
					c-6.9,11.3-20.2,18.5-33.4,18.1c9.1,0.2,15.7,6.9,15.6,16c-0.1,8.6-9.7,11.8-16.8,13.4c-6.4,1.4-13,2.5-19.5,3.1
					c-11,1.1-23,1.4-31.3,8.7c-0.8-8.4-3.8-15.8-8.3-22.8c-5-7.6-9-17.1-11.7-25.8c-1.4-4.4-2.3-8.9-1.9-13.5
					c0.5-4.5,2.5-9.1,6.2-11.8c5.7-4.1,14.7-2.5,18.6,3.4c-0.7-10.4-0.4-20.9,1.5-31.1c1.2-6.5,3.7-13.5,9.6-16.4
					c7.5-3.8,17.3,1.7,19.9,9.6c5.7-16.4,23.5-27.8,40.8-26c4.7,0.5,9.6,2.1,12.4,5.9C1094.5,72.9,1078.7,91,1068,101.2z"/>
			</g>
			<g>
				<path class="st7" d="M1045.1,240c-1.7-0.9-3.4-2-4.9-3.2c-4.1-3.1-8.6-5.2-12.6-8.5c-9.2-7.7-17-17.4-28.2-22.4
					c4.8-5.9,10.3-11.1,15-16.9c5-6.3,11.2-12.2,19-13.9c1.3-0.3,2.7-0.4,3.9,0c2.4,0.8,3.7,3.6,3.6,6.1c-0.1,2.5-1.3,4.9-2.5,7.1
					c9.9-7.3,22.6-10.9,34.9-9.9c7.1,0.6,10.7,3.7,7,10.4c8.7-1.8,17.8-1.3,26.3,1.4c1.8,0.6,3.5,1.2,5,2.4
					c3.9,3.3-0.2,9.2-2.8,12.2c-6.6,7.2-16.8,10.3-26.6,10.7c2.8,1.2,5.9,2.7,7.1,5.6c1.4,3.2-0.4,7.1-3.3,9.1
					c-5,3.4-12.9,1.9-18.5,1c-4-0.7-8-1.9-12-2.7c1.9,1.3,3.9,2.7,5.1,4.6c1.2,2,1.5,4.7,0.1,6.5c-0.8,1-2,1.6-3.3,2
					C1053.1,243,1048.9,242,1045.1,240z"/>
			</g>
			<g>
				<path class="st9" d="M1080.7,197.7c-29.3,9.9-61.5-2.5-90.1,10.3c0,0,0,0,0,0c0,1,0,1.9,0,2.9c0.3,0.2,0.8,0.2,1.3,0
					c28.6-12.8,60.8-0.5,90.1-10.3C1083.8,200,1082.6,197.1,1080.7,197.7z"/>
			</g>
			<g>
				<path class="st9" d="M1017.3,203.1c-0.1-0.1-0.1-0.1-0.2-0.2c5.3-10.4,12.2-19.8,20.6-27.8c-0.1,0-0.2-0.1-0.3-0.1
					c-0.5-0.2-1.1-0.2-1.6-0.2c-8.5,8.3-15.5,18-20.8,28.7c-0.4,0.8,0.6,1.4,1.2,0.9c7.5,10,16.3,18.7,25.7,26.9
					c4.3,3.7,8.7,7.5,13.3,10.9c0.7-0.1,1.4-0.2,2.1-0.4c-5-3.6-9.7-7.6-14.4-11.6C1033.5,221.9,1024.7,213.1,1017.3,203.1z"/>
				<path class="st9" d="M1087.3,229c-15.2-6.5-29.2-16-42.8-25.4c0,0-0.1,0-0.1,0c9.6-10.4,21.3-18.5,34.2-24
					c-0.7-0.3-1.4-0.5-2.2-0.7c-12.7,5.7-24.3,13.9-33.8,24.4c-0.5,0.6,0.1,1.3,0.7,1.2c0,0.1,0.1,0.3,0.3,0.4
					c13.5,9.4,27.4,18.8,42.5,25.3c0,0,0,0,0,0C1086.5,229.8,1086.9,229.4,1087.3,229z"/>
			</g>
			<g>
				<path class="st8" d="M984.4,112.3c-0.5,0.2-1,0.4-1.5,0.7c2.5,18.6,9.7,36.5,21.2,51.6c0,0.3,0.2,0.6,0.6,0.7
					c0.3,0.2,0.6,0.1,0.8,0c19.8-2.2,39.9-2.4,59.3-7.1c-0.1-0.5-0.3-1-0.4-1.5c-19.2,4.7-39.3,4.8-58.9,7
					C994,148.6,986.8,130.9,984.4,112.3z"/>
				<path class="st8" d="M1067.9,118c-14.3,2.7-28.9,4.1-43.4,5.5c-9.5-16.4-13.8-35.2-12.6-54c-0.1,0.1-0.2,0.1-0.3,0.1
					c-0.5,0.2-0.9,0.5-1.3,0.8c-1,19.2,3.6,38.3,13.5,55c0.4,0.7,1.2,0.3,1.3-0.3c15.8-1.5,31.7-3.1,47.3-6.3
					c4.7-0.9,9.5-2,14.2-3.4c0-0.5-0.1-1-0.2-1.5C1080.3,115.7,1073.9,116.9,1067.9,118z"/>
				<path class="st8" d="M1050.3,90.9c10.2-1.1,20.5-2.2,30.6-4.3c0.4-0.6,0.9-1.2,1.3-1.9c-1.4,0.3-2.8,0.6-4.2,0.9
					c-9.1,1.8-18.4,2.7-27.6,3.7c-2.3-10.1-2.8-20.5-1.4-30.7c-0.6,0.3-1.2,0.7-1.7,1.1c-1.2,10.2-0.6,20.6,1.8,30.7
					C1049.1,91.1,1049.9,91.2,1050.3,90.9z"/>
			</g>
			<g>
				<g>
					<path class="st9" d="M989.7,216.2c0.1-0.8,0.4-1.6,0.9-2.3c-24.6-22.7-36-56.7-41.7-88.8c-0.4-2-3.5-1.6-3.1,0.4
						c5.9,33.5,17.8,68.5,43.8,91.9C989.7,217,989.7,216.6,989.7,216.2z"/>
				</g>
				<g>
					<path class="st9" d="M936.1,197.9c12.3,5.3,25.6,3.8,38.4,1.3c1-0.2,0.8-1.7-0.2-1.6c-12.5,2.4-25.6,4-37.6-1.2
						C935.8,196.1,935.2,197.5,936.1,197.9L936.1,197.9z"/>
				</g>
				<g>
					<path class="st9" d="M962.6,176.5c12.1-8.9,16.9-23.3,20-37.4c0.2-1-1.3-1.2-1.6-0.2c-3,13.7-7.6,27.7-19.4,36.4
						C960.9,175.8,961.8,177.1,962.6,176.5L962.6,176.5z"/>
				</g>
				<g>
					<path class="st9" d="M919.1,134.8c8.7,11.5,21.5,19.2,35.8,21.5c1,0.2,1.2-1.4,0.2-1.6c-13.9-2.2-26.2-9.7-34.7-20.9
						C919.8,133.1,918.5,134,919.1,134.8L919.1,134.8z"/>
				</g>
				<g>
					<path class="st9" d="M951.6,143.8c9.3-8.8,14.4-20.7,14.5-33.5c0-1-1.6-0.8-1.6,0.2c-0.1,12.2-5.1,23.7-13.9,32.1
						C950,143.2,950.9,144.5,951.6,143.8L951.6,143.8z"/>
				</g>
				<g>
					<path class="st9" d="M915,165.2c9.6-1.6,18-6.6,24-14.3c0.6-0.8-0.6-1.8-1.2-1c-5.7,7.3-13.8,12.1-22.9,13.7
						C913.8,163.8,914,165.4,915,165.2L915,165.2z"/>
				</g>
				<g>
					<path class="st9" d="M945.9,176.5c5.8,7.2,9.6,15.5,11.2,24.6c0.2,1,1.7,0.8,1.6-0.2c-1.7-9.3-5.6-17.9-11.5-25.3
						C946.5,174.8,945.2,175.7,945.9,176.5L945.9,176.5z"/>
				</g>
				<g>
					<path class="st9" d="M971.7,166.9c10.8-0.2,21-3.8,29.6-10.3c0.8-0.6-0.1-1.9-0.9-1.3c-8.4,6.4-18.3,9.8-28.8,10
						C970.5,165.3,970.7,166.9,971.7,166.9L971.7,166.9z"/>
				</g>
			</g>
			<g>
				<path class="st9" d="M978.9,203.6c3.5-2.9,5.2-6.8,6.6-11.1c1.7-5.2,3.2-10.6,2.7-16.1c-0.1-1-1.6-0.8-1.6,0.2
					c0.4,4.9-0.7,9.5-2.2,14.2c-1.3,4.3-2.9,8.6-6.4,11.5C977.2,203,978.2,204.2,978.9,203.6L978.9,203.6z"/>
			</g>
			<g>
				<g>
					<path class="st7" d="M918.7,141.4c8,1.2,9.8-11.3,1.8-12.4C912.5,127.8,910.7,140.2,918.7,141.4L918.7,141.4z"/>
				</g>
				<g>
					<path class="st7" d="M918.1,169.3c0.1-0.1,0.2-0.1,0.3-0.2c2.7-2,3.3-6,1.3-8.8c-2-2.7-6-3.3-8.8-1.3c-0.1,0.1-0.2,0.1-0.3,0.2
						c-2.7,2-3.3,6-1.3,8.8C911.3,170.7,915.3,171.3,918.1,169.3L918.1,169.3z"/>
				</g>
				<g>
					<path class="st7" d="M945.6,183.3c8,1.2,9.8-11.3,1.8-12.4S937.6,182.2,945.6,183.3L945.6,183.3z"/>
				</g>
				<g>
					<path class="st7" d="M934.5,203.4c0.1,0,0.2,0,0.3,0c3.4,0.5,6.6-1.9,7.1-5.3c0.5-3.4-1.9-6.6-5.3-7.1c-0.1,0-0.2,0-0.3,0
						c-3.4-0.5-6.6,1.9-7.1,5.3S931.1,202.9,934.5,203.4L934.5,203.4z"/>
				</g>
				<g>
					<path class="st7" d="M945.8,131.3c8,1.2,9.8-11.3,1.8-12.4S937.8,130.1,945.8,131.3L945.8,131.3z"/>
				</g>
				<g>
					<path class="st7" d="M964.2,117.6c8,1.2,9.8-11.3,1.8-12.4C958,104,956.2,116.4,964.2,117.6L964.2,117.6z"/>
				</g>
				<g>
					<path class="st7" d="M980.1,147.9c0.1,0,0.2,0,0.3,0c3.4,0.5,6.6-1.9,7.1-5.3c0.5-3.4-1.9-6.6-5.3-7.1c-0.1,0-0.2,0-0.3,0
						c-3.4-0.5-6.6,1.9-7.1,5.3C974.3,144.2,976.7,147.4,980.1,147.9L980.1,147.9z"/>
				</g>
				<g>
					<path class="st7" d="M998.6,162.5c8,1.2,9.8-11.3,1.8-12.4S990.6,161.3,998.6,162.5L998.6,162.5z"/>
				</g>
				<g>
					<path class="st7" d="M986.3,185.6c8,1.2,9.8-11.3,1.8-12.4C980.1,172,978.3,184.4,986.3,185.6L986.3,185.6z"/>
				</g>
			</g>
			<g>
				<path class="st9" d="M1061.7,74.2c-46.7,48.9-74.6,113.8-78,181.2c-0.1,2,3,2.5,3.1,0.5c3.4-67,31-131.2,77.4-179.7
					C1065.6,74.7,1063.1,72.7,1061.7,74.2L1061.7,74.2z"/>
			</g>
			<g class="st10">
				<path class="st7" d="M1108.8,204.7c2.7-2.9,6.8-8.9,2.8-12.2c-1.4-1.2-3.2-1.9-5-2.4c-4.7-1.5-9.5-2.3-14.4-2.4
					c-22.9,10.6-46,21.9-71,24c-4,0.3-8.1,0.4-12.1,0c6.5,5,12.2,11.2,18.5,16.5c4,3.3,8.5,5.4,12.6,8.5c1.5,1.2,3.2,2.3,4.9,3.2
					c3.8,2,8,3,12.3,1.6c1.2-0.4,2.5-1,3.3-2c1.4-1.8,1.1-4.6-0.1-6.5c-1.2-2-3.2-3.3-5.1-4.6c4,0.8,8,2,12,2.7
					c5.6,0.9,13.5,2.4,18.5-1c2.9-2,4.6-5.9,3.3-9.1c-1.2-2.8-4.3-4.3-7.1-5.6C1092,215,1102.2,212,1108.8,204.7z"/>
			</g>
			<g class="st11">
				<path class="st8" d="M1083,128.2c3.9-6.4,5.5-15.6,0.1-20.9c-4.5-4.4-11.8-4-18.1-3.3c0.9-0.8,1.9-1.7,2.9-2.7
					c10.7-10.2,26.6-28.3,16.7-42c-2.8-3.8-7.7-5.4-12.4-5.9c-2.6-0.3-5.2-0.2-7.8,0.1c-5.6,9.3-9.7,19.5-13.5,29.7
					c-7.2,19.4-13.3,39.2-22.1,57.9c-7.8,16.4-17.9,32.1-31.6,43.9c0.1,0.9,0.3,1.8,0.3,2.7c8.3-7.3,20.3-7.6,31.3-8.7
					c6.6-0.6,13.1-1.7,19.5-3.1c7.2-1.6,16.7-4.7,16.8-13.4c0.1-9.1-6.5-15.8-15.6-16C1062.9,146.6,1076.1,139.5,1083,128.2z"/>
			</g>
		</g>
		<g>
			<g>
				<path class="st8" d="M1336.2,298.3c0.7-0.3,1.3-0.7,1.8-0.9c-3.3-0.5-6.9-1.4-8.6-4.2c-1.9-3.4,0.2-7.8,3.1-10.4
					c5.1-4.7,12.7-6.4,19.3-4.3c-4.5-1.4-6.9-5.7-5.5-10.2c1.3-4.3,6.5-4.5,10.3-4.3c3.4,0.2,6.8,0.6,10.2,1.2
					c5.6,1,11.7,2.6,16.9,0.1c-0.8,4.3-0.4,8.4,0.9,12.6c1.4,4.5,2,9.8,2.2,14.5c0.1,2.4-0.1,4.8-1,7s-2.6,4.2-4.8,5
					c-3.4,1.3-7.7-0.9-8.8-4.4c-1.1,5.3-2.8,10.5-5.2,15.3c-1.5,3-3.8,6.2-7.1,6.8c-4.3,0.8-8.4-3.3-8.6-7.7
					c-5.2,7.4-15.7,10.5-24.1,7.1c-2.3-0.9-4.5-2.4-5.3-4.7C1318.9,308.7,1329.4,301.9,1336.2,298.3z"/>
			</g>
			<g>
				<path class="st7" d="M1367.4,232.3c0.7,0.7,1.4,1.5,2,2.3c1.6,2.1,3.5,3.8,5.1,6.1c3.5,5.1,6,11.1,10.9,15.2
					c-3.2,2.2-6.7,4.1-9.9,6.3c-3.4,2.4-7.3,4.5-11.5,4.2c-0.7,0-1.4-0.2-2-0.6c-1.1-0.7-1.3-2.3-0.9-3.6c0.4-1.3,1.3-2.3,2.3-3.2
					c-6,2.2-12.8,2.2-18.8,0c-3.4-1.3-4.8-3.4-2-6.2c-4.6-0.4-9.1-1.9-12.9-4.5c-0.8-0.5-1.6-1.1-2.1-1.9c-1.5-2.2,1.4-4.6,3.2-5.7
					c4.3-2.7,9.9-2.7,14.8-1.5c-1.2-1-2.5-2.2-2.7-3.8c-0.2-1.8,1.2-3.5,2.9-4.1c3-1,6.7,0.9,9.4,2.2c1.9,0.9,3.7,2.1,5.6,3
					c-0.8-0.9-1.6-1.9-1.9-3.1c-0.3-1.2-0.1-2.6,0.9-3.3c0.5-0.4,1.2-0.5,1.9-0.5C1363.8,229.7,1365.8,230.8,1367.4,232.3z"/>
			</g>
			<g>
				<path class="st9" d="M1343.6,248.3c16-0.7,30.3,10,46.5,7.7c0,0,0,0,0,0c0.1-0.5,0.3-1,0.4-1.4c-0.1-0.1-0.4-0.2-0.6-0.2
					c-16.1,2.3-30.4-8.4-46.5-7.7C1342.4,246.8,1342.5,248.4,1343.6,248.3z"/>
			</g>
			<g>
				<path class="st9" d="M1376,254.7c0,0.1,0,0.1,0.1,0.1c-4.1,4.5-8.9,8.1-14.3,10.9c0,0,0.1,0.1,0.1,0.1c0.2,0.2,0.5,0.3,0.8,0.4
					c5.4-2.9,10.3-6.8,14.5-11.4c0.3-0.3-0.1-0.8-0.5-0.6c-2.3-6.1-5.5-11.7-9-17.1c-1.6-2.5-3.3-5-5.1-7.3
					c-0.4-0.1-0.7-0.1-1.1-0.1c2,2.5,3.8,5.2,5.5,7.9C1370.6,243,1373.8,248.6,1376,254.7z"/>
				<path class="st9" d="M1344.8,231.8c6.7,5.4,12.3,12.2,17.8,18.8c0,0,0,0,0,0c-6.3,3.8-13.3,6.2-20.5,7.1c0.3,0.2,0.6,0.5,1,0.7
					c7.2-1,14.1-3.5,20.3-7.3c0.3-0.2,0.1-0.6-0.2-0.7c0-0.1,0-0.2-0.1-0.2c-5.4-6.6-11-13.3-17.6-18.7c0,0,0,0,0,0
					C1345.3,231.5,1345,231.6,1344.8,231.8z"/>
			</g>
			<g>
				<path class="st8" d="M1379.5,304.7c0.3,0,0.6-0.1,0.8-0.1c1.4-9.7,0.3-19.6-3.2-28.8c0-0.2,0-0.3-0.2-0.4
					c-0.1-0.1-0.3-0.1-0.4-0.1c-10.2-1.7-20.3-4.5-30.6-4.9c0,0.3,0,0.5,0,0.8c10.3,0.4,20.3,3.2,30.4,4.9
					C1379.9,285.2,1380.9,295.1,1379.5,304.7z"/>
				<path class="st8" d="M1338.6,290c7.5,0.7,15,2.1,22.5,3.4c2.4,9.5,1.9,19.6-1.4,28.8c0.1,0,0.1,0,0.2,0c0.3,0,0.5-0.1,0.8-0.2
					c3.2-9.4,3.7-19.6,1.1-29.4c-0.1-0.4-0.6-0.3-0.7,0c-8.1-1.5-16.3-3-24.5-3.6c-2.5-0.2-5-0.4-7.6-0.4c-0.1,0.3-0.1,0.5-0.1,0.8
					C1332.1,289.3,1335.5,289.7,1338.6,290z"/>
				<path class="st8" d="M1343.5,306c-5.3-0.9-10.5-1.8-15.9-2.2c-0.3,0.2-0.6,0.5-0.9,0.8c0.8,0,1.5,0.1,2.2,0.2
					c4.8,0.4,9.6,1.3,14.3,2.1c-0.3,5.4-1.5,10.6-3.7,15.5c0.3-0.1,0.7-0.2,1-0.3c2.1-4.9,3.3-10.2,3.5-15.6
					C1344.2,306.1,1343.8,305.9,1343.5,306z"/>
			</g>
			<g>
				<g>
					<path class="st9" d="M1391.6,252.1c-0.2,0.4-0.4,0.7-0.8,1c9.1,14.9,9.9,33.4,8.1,50.3c-0.1,1,1.5,1.3,1.6,0.2
						c1.8-17.6,0.9-36.8-8.8-52.1C1391.8,251.7,1391.7,251.9,1391.6,252.1z"/>
				</g>
				<g>
					<path class="st9" d="M1415.8,268.9c-5.4-4.4-12.3-5.5-19-6.1c-0.5,0-0.6,0.8-0.1,0.8c6.6,0.6,13.3,1.7,18.6,6
						C1415.7,269.8,1416.2,269.2,1415.8,268.9L1415.8,268.9z"/>
				</g>
				<g>
					<path class="st9" d="M1399.5,275.8c-7.3,2.7-11.8,9.2-15.3,15.8c-0.2,0.5,0.5,0.8,0.7,0.3c3.4-6.4,7.8-12.8,14.9-15.4
						C1400.3,276.4,1400,275.6,1399.5,275.8L1399.5,275.8z"/>
				</g>
				<g>
					<path class="st9" d="M1415.3,302.8c-2.7-7-8-12.6-14.8-15.8c-0.5-0.2-0.8,0.5-0.3,0.7c6.6,3.1,11.7,8.6,14.4,15.4
						C1414.7,303.6,1415.5,303.3,1415.3,302.8L1415.3,302.8z"/>
				</g>
				<g>
					<path class="st9" d="M1400.3,293.7c-5.9,3.1-10.2,8.3-12,14.7c-0.1,0.5,0.7,0.6,0.8,0.1c1.8-6.1,5.9-11.1,11.5-14
						C1401.1,294.2,1400.8,293.4,1400.3,293.7L1400.3,293.7z"/>
				</g>
				<g>
					<path class="st9" d="M1421.7,288.2c-5-0.5-9.9,0.8-14,3.7c-0.4,0.3,0,1,0.5,0.7c3.9-2.8,8.6-4.1,13.4-3.6
						C1422.1,289.1,1422.2,288.3,1421.7,288.2L1421.7,288.2z"/>
				</g>
				<g>
					<path class="st9" d="M1407.9,278.2c-1.9-4.4-2.6-9.1-2.1-13.9c0.1-0.5-0.8-0.6-0.8-0.1c-0.5,4.9,0.2,9.7,2.1,14.3
						C1407.3,278.9,1408.1,278.7,1407.9,278.2L1407.9,278.2z"/>
				</g>
				<g>
					<path class="st9" d="M1393.6,279.3c-5.4-1.4-11-1.1-16.2,0.9c-0.5,0.2-0.2,1,0.3,0.8c5.1-2,10.5-2.3,15.8-0.9
						C1394,280.2,1394.1,279.4,1393.6,279.3L1393.6,279.3z"/>
				</g>
			</g>
			<g>
				<path class="st9" d="M1395.2,259.9c-2.2,1-3.6,2.7-4.9,4.6c-1.6,2.4-3.1,4.8-3.6,7.7c-0.1,0.5,0.7,0.6,0.8,0.1
					c0.5-2.5,1.7-4.6,3.1-6.8c1.3-2,2.7-3.9,4.9-4.8C1396,260.5,1395.7,259.7,1395.2,259.9L1395.2,259.9z"/>
			</g>
			<g>
				<g>
					<path class="st7" d="M1416.4,299.6c-3.8-1.7-6.5,4.2-2.7,5.9S1420.3,301.3,1416.4,299.6L1416.4,299.6z"/>
				</g>
				<g>
					<path class="st7" d="M1420.7,285.7c-0.1,0-0.1,0-0.2,0.1c-1.7,0.6-2.5,2.5-1.9,4.2s2.5,2.5,4.2,1.9c0.1,0,0.1,0,0.2-0.1
						c1.7-0.6,2.5-2.5,1.9-4.2S1422.4,285.1,1420.7,285.7L1420.7,285.7z"/>
				</g>
				<g>
					<path class="st7" d="M1409,274.8c-3.8-1.7-6.5,4.2-2.7,5.9S1412.8,276.5,1409,274.8L1409,274.8z"/>
				</g>
				<g>
					<path class="st7" d="M1417.4,266.4c0,0-0.1,0-0.1-0.1c-1.6-0.7-3.6,0-4.3,1.6c-0.7,1.6,0,3.6,1.6,4.3c0,0,0.1,0,0.1,0.1
						c1.6,0.7,3.6,0,4.3-1.6C1419.7,269,1419,267.1,1417.4,266.4L1417.4,266.4z"/>
				</g>
				<g>
					<path class="st7" d="M1401.5,300.7c-3.8-1.7-6.5,4.2-2.7,5.9S1405.3,302.5,1401.5,300.7L1401.5,300.7z"/>
				</g>
				<g>
					<path class="st7" d="M1390.3,305c-3.8-1.7-6.5,4.2-2.7,5.9C1391.5,312.6,1394.2,306.7,1390.3,305L1390.3,305z"/>
				</g>
				<g>
					<path class="st7" d="M1386.7,287.5c0,0-0.1,0-0.1-0.1c-1.6-0.7-3.6,0-4.3,1.6s0,3.6,1.6,4.3c0,0,0.1,0,0.1,0.1
						c1.6,0.7,3.6,0,4.3-1.6C1389.1,290.2,1388.3,288.3,1386.7,287.5L1386.7,287.5z"/>
				</g>
				<g>
					<path class="st7" d="M1379.5,277.6c-3.8-1.7-6.5,4.2-2.7,5.9S1383.4,279.3,1379.5,277.6L1379.5,277.6z"/>
				</g>
				<g>
					<path class="st7" d="M1389,267.9c-3.8-1.7-6.5,4.2-2.7,5.9S1392.8,269.6,1389,267.9L1389,267.9z"/>
				</g>
			</g>
			<g>
				<path class="st9" d="M1335.5,312.7c30.3-17.7,53.5-46.2,64.8-79.4c0.3-1-1.1-1.7-1.5-0.7c-11.2,33-34.2,61.1-64.3,78.7
					C1333.6,311.9,1334.6,313.3,1335.5,312.7L1335.5,312.7z"/>
			</g>
			<g class="st10">
				<path class="st7" d="M1330.6,240.8c-1.8,1.1-4.7,3.5-3.2,5.7c0.5,0.8,1.3,1.4,2.1,1.9c2.1,1.4,4.4,2.5,6.8,3.3
					c13-2,26.1-4.4,38.9-1.9c2,0.4,4.1,0.9,6.1,1.7c-2.5-3.4-4.5-7.3-6.9-10.9c-1.5-2.2-3.5-3.9-5.1-6.1c-0.6-0.8-1.3-1.6-2-2.3
					c-1.6-1.5-3.5-2.6-5.9-2.6c-0.7,0-1.4,0.1-1.9,0.5c-1,0.7-1.2,2.1-0.9,3.3c0.3,1.2,1.1,2.1,1.9,3.1c-1.9-1-3.7-2.1-5.6-3
					c-2.7-1.2-6.4-3.1-9.4-2.2c-1.7,0.6-3.2,2.3-2.9,4.1c0.2,1.6,1.5,2.8,2.7,3.8C1340.4,238.1,1334.9,238.2,1330.6,240.8z"/>
			</g>
			<g class="st11">
				<path class="st8" d="M1332.5,282.7c-2.9,2.6-5,7-3.1,10.4c1.6,2.9,5.3,3.7,8.6,4.2c-0.6,0.3-1.2,0.6-1.8,0.9
					c-6.8,3.6-17.3,10.3-14.3,18.6c0.8,2.3,3.1,3.8,5.3,4.7c1.3,0.5,2.6,0.9,3.9,1.1c4.1-3.9,7.6-8.3,11-12.9
					c6.4-8.6,12.2-17.7,19.3-25.7c6.2-7.1,13.5-13.5,22-17.4c0.1-0.5,0.1-0.9,0.2-1.4c-5.2,2.5-11.2,0.9-16.9-0.1
					c-3.4-0.6-6.8-1-10.2-1.2c-3.8-0.2-9,0-10.3,4.3c-1.4,4.5,1,8.8,5.5,10.2C1345.2,276.4,1337.6,278.1,1332.5,282.7z"/>
			</g>
		</g>
		<g>
			<g>
				<path class="st8" d="M36.3,393.8c-0.2,0.7-0.4,1.4-0.5,2c2.6-2.1,5.6-4.3,8.9-3.6c3.8,0.8,5.7,5.3,5.7,9.2
					c0.1,6.9-3.7,13.7-9.6,17.2c4.1-2.4,8.8-1.3,11.3,2.7c2.4,3.8-1,7.9-3.7,10.5c-2.4,2.4-5,4.7-7.7,6.8c-4.5,3.5-9.7,7-11.3,12.5
					c-2.7-3.5-6-5.9-10-7.7c-4.3-2-8.7-5-12.3-8.1c-1.8-1.5-3.5-3.3-4.6-5.4c-1.1-2.1-1.4-4.7-0.5-6.9c1.3-3.4,5.8-5.2,9.1-3.6
					c-3.2-4.4-6-9-8-14.1c-1.2-3.2-2.1-6.9-0.4-9.9c2.2-3.7,8.1-4.1,11.4-1.3c-2.1-8.8,2.6-18.7,10.7-22.7c2.2-1.1,4.8-1.8,7.1-0.8
					C40.1,374,38.1,386.3,36.3,393.8z"/>
			</g>
			<g>
				<path class="st7" d="M64.8,461c-1,0.1-2,0.1-3,0c-2.7-0.2-5.2,0.1-7.9-0.3c-6.2-0.8-12.3-2.9-18.6-2c0.5-3.9,1.4-7.7,1.9-11.6
					c0.5-4.1,1.5-8.5,4.5-11.4c0.5-0.5,1-0.9,1.7-1.1c1.3-0.3,2.6,0.6,3.3,1.7c0.7,1.1,0.8,2.5,0.9,3.8c2.3-6,6.9-11,12.6-14
					c3.3-1.7,5.7-1.3,6,2.6c3.3-3.2,7.5-5.5,11.9-6.7c0.9-0.2,1.9-0.4,2.9-0.3c2.6,0.3,2.5,4.1,2.1,6.1c-0.9,5-4.5,9.2-8.7,12.1
					c1.6-0.2,3.3-0.4,4.6,0.5c1.5,1,1.8,3.2,1.1,4.9c-1.2,2.9-5.2,4.4-7.9,5.6c-2,0.8-4,1.4-6,2.2c1.2,0,2.5,0.1,3.5,0.6
					s2,1.6,1.9,2.8c-0.1,0.7-0.4,1.3-0.9,1.8C69.1,460.1,67,460.8,64.8,461z"/>
			</g>
			<g>
				<path class="st9" d="M68.6,432.6C58.5,445,41,448.5,32,462.1c0,0,0,0,0,0c0.3,0.4,0.5,0.8,0.8,1.3c0.2,0,0.4-0.1,0.6-0.3
					c9-13.5,26.6-17.1,36.7-29.6C70.6,432.7,69.3,431.8,68.6,432.6z"/>
			</g>
			<g>
				<path class="st9" d="M42.3,452.6c-0.1,0-0.1,0-0.1,0c-0.6-6-0.1-12.1,1.3-17.9c-0.1,0-0.1,0-0.2,0c-0.3,0.1-0.5,0.2-0.8,0.3
					c-1.4,6-1.8,12.2-1.1,18.4c0,0.5,0.7,0.4,0.8,0.1c6,2.3,12.4,3.7,18.8,4.7c2.9,0.4,5.9,0.9,8.8,1.1c0.3-0.2,0.5-0.5,0.8-0.8
					c-3.2-0.2-6.4-0.7-9.5-1.1C54.6,456.3,48.3,454.9,42.3,452.6z"/>
				<path class="st9" d="M80.2,444.5c-8.5,1.4-17.3,1.1-25.9,0.7c0,0,0,0-0.1,0c1.3-7.2,4.2-14,8.3-20c-0.4,0.1-0.8,0.2-1.2,0.3
					c-4,6-6.8,12.8-8.1,20.1c-0.1,0.4,0.4,0.5,0.6,0.4c0.1,0,0.1,0.1,0.2,0.1c8.5,0.4,17.3,0.6,25.7-0.7c0,0,0,0,0,0
					C80.1,445.1,80.2,444.8,80.2,444.5z"/>
			</g>
			<g>
				<path class="st8" d="M2.7,421.8c-0.2,0.2-0.3,0.5-0.5,0.7c6.3,7.5,14.4,13.3,23.6,16.7c0.1,0.1,0.3,0.2,0.4,0.1
					c0.2,0,0.3-0.1,0.3-0.2c8.1-6.4,16.9-12.1,24.1-19.5c-0.2-0.2-0.4-0.4-0.6-0.5c-7.1,7.4-15.9,13-23.9,19.4
					C17,435.1,8.9,429.3,2.7,421.8z"/>
				<path class="st8" d="M40.9,401.2c-5.5,5.2-11.5,9.8-17.5,14.5c-8.7-4.6-15.8-11.6-20.5-20.2c0,0.1-0.1,0.1-0.1,0.2
					c-0.1,0.2-0.3,0.5-0.4,0.7c4.9,8.7,12.2,15.8,21.2,20.4c0.4,0.2,0.6-0.2,0.5-0.5c6.5-5.1,13-10.2,19-15.9
					c1.8-1.7,3.6-3.5,5.3-5.4c-0.2-0.2-0.3-0.4-0.5-0.6C45.7,396.7,43.2,399,40.9,401.2z"/>
				<path class="st8" d="M25.7,394.1c4.2-3.3,8.4-6.7,12.2-10.4c0-0.4,0-0.8,0-1.2c-0.5,0.5-1.1,1.1-1.6,1.6
					c-3.5,3.3-7.3,6.3-11.1,9.3c-3.8-3.8-6.9-8.2-9.1-13.1c-0.2,0.3-0.3,0.6-0.5,0.9c2.3,4.8,5.4,9.2,9.3,13
					C25.2,394.6,25.6,394.4,25.7,394.1z"/>
			</g>
			<g>
				<g>
					<path class="st9" d="M33.9,465.9c-0.2-0.4-0.3-0.8-0.2-1.2c-17.1-3.1-31.5-14.9-42.9-27.4c-0.7-0.8-2,0.3-1.3,1
						c11.9,13.1,26.8,25.1,44.7,28.1C34,466.3,33.9,466.1,33.9,465.9z"/>
				</g>
				<g>
					<path class="st9" d="M5.2,472.8c6.9-1.1,12.3-5.5,17.2-10.1c0.4-0.4-0.1-1-0.5-0.6c-4.8,4.5-10.1,8.8-16.8,9.9
						C4.6,472.1,4.7,472.9,5.2,472.8L5.2,472.8z"/>
				</g>
				<g>
					<path class="st9" d="M10.9,456c2.8-7.3,0.9-14.9-1.6-22c-0.2-0.5-0.9-0.2-0.7,0.3c2.5,6.8,4.3,14.3,1.6,21.4
						C10,456.2,10.8,456.5,10.9,456L10.9,456z"/>
				</g>
				<g>
					<path class="st9" d="M-19.7,449.8c7,2.6,14.7,2.5,21.7-0.5c0.5-0.2,0.2-1-0.3-0.7c-6.7,2.9-14.2,3-21,0.5
						C-19.9,448.9-20.2,449.6-19.7,449.8L-19.7,449.8z"/>
				</g>
				<g>
					<path class="st9" d="M3.6,460.7c4.5,1.6,8.5,4.1,11.8,7.7c0.4,0.4,1-0.1,0.6-0.5c-3.3-3.6-7.4-6.3-12.1-7.9
						C3.4,459.8,3.1,460.5,3.6,460.7L3.6,460.7z"/>
				</g>
				<g>
					<path class="st9" d="M12.3,449.3c4.7-3.1,8.2-7.5,10.1-12.7c0.2-0.5-0.6-0.8-0.8-0.3c-1.9,5.1-5.3,9.4-9.9,12.4
						C11.3,448.9,11.8,449.6,12.3,449.3L12.3,449.3z"/>
				</g>
			</g>
			<g>
				<path class="st9" d="M25.6,463.4c0.7-2.3,0.4-4.4-0.2-6.7c-0.7-2.8-1.5-5.5-3.3-7.8c-0.3-0.4-0.9,0.1-0.6,0.5
					c1.6,2,2.3,4.4,3,6.8c0.6,2.3,1.1,4.6,0.4,6.8C24.7,463.6,25.5,463.9,25.6,463.4L25.6,463.4z"/>
			</g>
			<g>
				<g>
					<path class="st7" d="M5.4,463.8c3.8-1.7,1.2-7.7-2.7-6C-1.1,459.5,1.5,465.5,5.4,463.8L5.4,463.8z"/>
				</g>
				<g>
					<path class="st7" d="M6.1,475.6c0,0,0.1,0,0.1-0.1c1.6-0.7,2.4-2.7,1.6-4.3s-2.7-2.4-4.3-1.6c0,0-0.1,0-0.1,0.1
						c-1.6,0.7-2.4,2.7-1.6,4.3S4.4,476.4,6.1,475.6L6.1,475.6z"/>
				</g>
				<g>
					<path class="st7" d="M10.7,438.6c0,0,0.1,0,0.1-0.1c1.6-0.7,2.4-2.7,1.6-4.3c-0.7-1.6-2.7-2.4-4.3-1.6c0,0-0.1,0-0.1,0.1
						c-1.6,0.7-2.4,2.7-1.6,4.3C7.1,438.6,9.1,439.4,10.7,438.6L10.7,438.6z"/>
				</g>
				<g>
					<path class="st7" d="M22.9,439.9c3.8-1.7,1.2-7.7-2.7-6C16.4,435.7,19,441.6,22.9,439.9L22.9,439.9z"/>
				</g>
				<g>
					<path class="st7" d="M23.8,453.4c3.8-1.7,1.2-7.7-2.7-6C17.3,449.2,20,455.2,23.8,453.4L23.8,453.4z"/>
				</g>
			</g>
			<g>
				<path class="st9" d="M26,383.6c-6.9,34.4-1.2,70.6,16.1,101.2c0.5,0.9,2,0.3,1.5-0.7C26.5,453.8,20.8,418,27.6,383.8
					C27.8,382.8,26.2,382.6,26,383.6L26,383.6z"/>
			</g>
			<g class="st10">
				<path class="st7" d="M82.9,427.9c0.4-2,0.5-5.8-2.1-6.1c-1-0.1-1.9,0.1-2.9,0.3c-2.5,0.6-4.8,1.6-7,2.9
					c-7.1,11-14.1,22.3-24.5,30.2c-1.7,1.3-3.4,2.4-5.3,3.4c4.3,0.4,8.5,1.6,12.7,2.1c2.7,0.3,5.2,0,7.9,0.3c1,0.1,2,0.1,3,0
					c2.2-0.2,4.3-0.9,5.9-2.7c0.4-0.5,0.8-1.1,0.9-1.8c0.1-1.2-0.8-2.3-1.9-2.8c-1.1-0.5-2.3-0.6-3.5-0.6c2-0.8,4-1.3,6-2.2
					c2.7-1.2,6.6-2.7,7.9-5.6c0.7-1.7,0.4-3.9-1.1-4.9c-1.3-0.9-3.1-0.7-4.6-0.5C78.4,437,82,432.9,82.9,427.9z"/>
			</g>
			<g class="st11">
				<path class="st8" d="M50.4,401.4c-0.1-3.9-1.9-8.4-5.7-9.2c-3.2-0.7-6.3,1.5-8.9,3.6c0.2-0.6,0.3-1.3,0.5-2
					c1.9-7.5,3.8-19.8-4.3-23.1c-2.3-0.9-4.9-0.2-7.1,0.8c-1.2,0.6-2.4,1.4-3.4,2.2c0.1,5.6,1.1,11.2,2.3,16.8
					c2.2,10.5,5.1,20.9,6.4,31.5c1.1,9.4,1,19-1.7,28c0.3,0.4,0.6,0.7,0.9,1.1c1.6-5.5,6.8-9,11.3-12.5c2.7-2.1,5.3-4.4,7.7-6.8
					c2.7-2.7,6-6.7,3.7-10.5c-2.5-4-7.2-5.1-11.3-2.7C46.6,415.1,50.5,408.3,50.4,401.4z"/>
			</g>
		</g>
		<g>
			<g>
				<path class="st8" d="M123.3,59c-1.7,0.9-3.3,1.7-4.8,2.5c8.4,1.3,18,3.4,22.3,10.7c5.1,8.8-0.2,20.1-7.6,27.1
					c-13,12.2-32.7,16.8-49.8,11.6c11.8,3.5,17.9,14.6,14.5,26.3c-3.2,11.2-16.7,11.9-26.6,11.4c-8.9-0.4-17.7-1.4-26.4-2.9
					c-14.6-2.5-30.3-6.3-43.7,0.2c2-11.1,0.8-21.9-2.7-32.6c-3.7-11.6-5.5-25.4-6-37.6C-7.6,69.7-7.3,63.4-5,57.7s6.5-10.9,12.2-13
					c8.9-3.3,20,2,22.9,11.1c2.8-13.7,6.8-27.2,13-39.7C47,8,52.7-0.2,61.4-2c11-2.2,21.8,8.3,22.4,19.6
					C97-1.7,124.1-10.1,145.9-1.6c5.9,2.3,11.8,6.1,14,12.1C167.8,31.8,140.8,49.6,123.3,59z"/>
			</g>
			<g>
				<path class="st7" d="M44.3,230.9c-1.9-1.8-3.6-3.8-5.2-5.9c-4.2-5.5-9.3-9.8-13.3-15.5c-9.2-13.2-15.9-28.6-28.6-39.1
					c8.3-5.9,17.3-10.7,25.4-16.6c8.7-6.3,18.9-11.9,29.7-11.3c1.8,0.1,3.6,0.4,5.1,1.4c2.8,1.9,3.5,6,2.4,9.2s-3.4,5.9-5.7,8.4
					c15.5-5.9,33.1-6.1,48.7-0.4c9,3.2,12.6,8.6,5.4,16c11.9,0.8,23.6,4.7,33.6,11.2c2.1,1.4,4.2,2.9,5.6,4.9
					c3.9,5.6-3.5,11.9-8,14.8c-11.2,7-25.4,7.4-38.3,4.4c3.2,2.6,6.6,5.6,7.2,9.7c0.6,4.7-3,9.1-7.5,10.7
					c-7.7,2.7-17.5-2.2-24.4-5.3c-5-2.3-9.7-5.3-14.6-7.7c2,2.4,4.1,4.9,5,7.9c0.9,3,0.3,6.7-2.2,8.5c-1.4,1-3.2,1.4-5,1.4
					C53.6,237.6,48.5,234.8,44.3,230.9z"/>
			</g>
			<g>
				<path class="st9" d="M105.5,188.7C64,191.1,26.6,163.6-15.1,170c0,0,0,0-0.1,0c-0.3,1.3-0.7,2.5-1.1,3.7
					c0.4,0.4,0.9,0.6,1.6,0.5c41.6-6.4,79.1,21,120.6,18.7C108.7,192.7,108.2,188.5,105.5,188.7z"/>
			</g>
			<g>
				<path class="st9" d="M21.3,173.1c-0.1-0.1-0.1-0.2-0.2-0.3c10.5-11.6,22.9-21.3,36.6-28.7c-0.1-0.1-0.2-0.2-0.3-0.3
					c-0.6-0.4-1.3-0.7-2-0.9c-13.9,7.7-26.5,17.8-37.1,29.8c-0.8,0.9,0.3,2,1.2,1.6c6.1,15.6,14.5,30.1,23.8,44
					c4.2,6.4,8.6,12.7,13.3,18.8c0.9,0.1,1.9,0.2,2.9,0.2c-5.2-6.5-9.9-13.4-14.5-20.2C35.7,203.3,27.3,188.7,21.3,173.1z"/>
				<path class="st9" d="M102.9,231.6c-17.4-13.8-32.2-31.1-46.5-48.2c0,0-0.1-0.1-0.1-0.1c16.1-10,34.2-16.4,52.8-18.9
					c-0.8-0.6-1.6-1.2-2.6-1.7C87.9,165.4,70,172,54,182.2c-0.9,0.6-0.4,1.7,0.4,1.8c0,0.2,0.1,0.4,0.2,0.6
					c14.2,17,28.9,34.1,46.1,48c0,0,0,0,0,0C101.5,232.3,102.2,232,102.9,231.6z"/>
			</g>
			<g>
				<path class="st8" d="M11,43.7c-0.7,0.1-1.5,0.2-2.2,0.4c-3.4,25.1-0.3,50.8,9.1,74.4c-0.1,0.4,0.1,0.9,0.5,1.1
					c0.3,0.3,0.7,0.4,1,0.2c26.4,4.2,52.6,11.1,79.4,11.9c0-0.7,0-1.4,0-2.1c-26.6-0.8-52.7-7.7-78.9-11.9
					C10.5,94.2,7.4,68.7,11,43.7z"/>
				<path class="st8" d="M117.2,80.8c-19.6-1.6-38.9-5-58.3-8.3c-6.4-24.6-5.3-50.6,2.9-74.5c-0.2,0-0.3,0-0.5,0.1
					c-0.7,0.1-1.3,0.3-2,0.5c-8.1,24.5-8.9,51-2.1,76.1c0.3,1,1.5,0.8,1.9,0.1c21.1,3.6,42.2,7.2,63.6,8.6c6.4,0.4,13,0.8,19.6,0.7
					c0.1-0.7,0.3-1.3,0.3-2C134.1,82.2,125.4,81.4,117.2,80.8z"/>
				<path class="st8" d="M104,39.3c13.7,2.2,27.4,4.4,41.2,5.3c0.8-0.7,1.6-1.3,2.3-2c-1.9-0.1-3.9-0.2-5.8-0.4
					c-12.5-1-24.8-3-37.1-5c0.6-14,3.7-27.5,9.1-40.3c-0.9,0.2-1.8,0.5-2.6,0.8c-5.2,12.8-8.1,26.5-8.6,40.5
					C102.4,39.2,103.4,39.6,104,39.3z"/>
			</g>
			<g>
				<g>
					<path class="st9" d="M-24.9,109.9c14,3.6,28.6,2.6,42-2.9c1.3-0.5,0.5-2.5-0.8-2c-13.1,5.3-27.2,6.3-40.9,2.7
						C-25.9,107.5-26.2,109.6-24.9,109.9L-24.9,109.9z"/>
				</g>
			</g>
			<g>
				<g>
					<path class="st7" d="M-7.3,88.4c0.1,0,0.2,0.1,0.3,0.1c4.2,1.8,9.3-0.1,11.1-4.4C6,79.9,4,74.9-0.2,73c-0.1,0-0.2-0.1-0.3-0.1
						c-4.2-1.8-9.3,0.1-11.1,4.4C-13.5,81.5-11.5,86.5-7.3,88.4L-7.3,88.4z"/>
				</g>
				<g>
					<path class="st7" d="M11.5,113.9c10,4.4,16.7-11.1,6.8-15.5S1.6,109.5,11.5,113.9L11.5,113.9z"/>
				</g>
			</g>
			<g>
				<path class="st9" d="M124.7,21.7C46.9,68.5-12.4,142.7-40.9,229c-0.8,2.6,3,4.3,3.9,1.7C-8.8,145,49.9,71.6,127.2,25.1
					C129.6,23.7,127.1,20.3,124.7,21.7L124.7,21.7z"/>
			</g>
			<g class="st10">
				<path class="st7" d="M139.4,207.8c4.5-2.8,12-9.1,8-14.8c-1.4-2-3.5-3.6-5.6-4.9c-5.5-3.6-11.5-6.3-17.8-8.2
					c-33.5,5.6-67.4,12-100.6,5.9c-5.3-1-10.7-2.3-15.7-4.3c6.7,8.8,11.8,18.9,18.1,27.9c4,5.7,9.1,10,13.3,15.5
					c1.6,2.1,3.3,4.1,5.2,5.9c4.2,3.9,9.3,6.7,15.4,6.5c1.7-0.1,3.6-0.4,5-1.4c2.5-1.9,3.1-5.5,2.2-8.5c-0.9-3-3-5.5-5-7.9
					c5,2.4,9.6,5.4,14.6,7.7c6.9,3.2,16.7,8,24.4,5.3c4.4-1.5,8.1-6,7.5-10.7c-0.5-4.1-4-7.1-7.2-9.7
					C114,215.2,128.2,214.8,139.4,207.8z"/>
			</g>
			<g class="st11">
				<path class="st8" d="M133.2,99.3c7.4-6.9,12.7-18.3,7.6-27.1c-4.3-7.4-13.9-9.4-22.3-10.7c1.5-0.7,3.1-1.6,4.8-2.5
					c17.5-9.4,44.5-27.2,36.6-48.5c-2.2-6-8.1-9.8-14-12.1c-3.3-1.3-6.7-2.1-10.2-2.7c-10.5,10.1-19.6,21.8-28.1,33.7
					C91.4,51.9,76.4,75.5,58.3,96.6c-15.9,18.5-34.6,35.2-56.6,45.7c-0.1,1.2-0.3,2.4-0.5,3.7c13.3-6.5,29.1-2.7,43.7-0.2
					c8.7,1.5,17.6,2.5,26.4,2.9c9.8,0.5,23.4-0.2,26.6-11.4c3.4-11.8-2.8-22.8-14.5-26.3C100.5,116.1,120.2,111.5,133.2,99.3z"/>
			</g>
		</g>
		<g>
			<g>
				<path class="st12" d="M1889.5,138.9c2.5,0.6,4.9,1.5,7.3,2.3c1.8,0.6,3.7,0.8,5.5,1.5c2.1,0.7,4.3,1.3,6.5,1.7
					c0.9,0.2,5.9,1.3,6.5,0.6c-2.3,2.6-3.9,6.1-5.5,9.1c-1.9,3.5-3.8,7.1-5.9,10.5c-4.4,7.4-11.3,13.7-19,17.6
					c-3.7,1.9-9.4,2.1-13.5,2.4c-15.4,0.8-29.9-7.3-44.8-9.8c0.8,0.1,3.8-3.5,4.3-4.1c1.5-1.6,2.9-3.2,4.2-4.9
					c2.4-3,5.2-5.8,7.8-8.8c6-6.8,12-12.7,20.1-16.8c3.8-1.9,8.8-3.5,13-3.3C1880.7,137,1885.1,137.8,1889.5,138.9z"/>
			</g>
			<g>
				<path class="st13" d="M1868.1,164.7c-1.4,0.4-2.8,0.8-4.2,1.2c-4.2,1.1-8.6,2.1-12.9,2.9c-2.7,0.5-5.7,1.3-8.4,1.4
					c11-0.5,21.2-2.6,31.7-5.8c10.7-3.2,21.1-7.4,31-12.6c6.9-3.6,14.1-7.2,20.5-11.7c0.2-0.1,0.4-0.3,0.5-0.5
					c0.1-0.3,0.1-0.6,0-0.8c-0.2-0.7-0.6-1.3-1.2-1.7c-0.2-0.2-0.4-0.3-0.6-0.3c-0.2,0-0.4,0.1-0.6,0.2c-3.9,2.4-7,5.6-10.9,8.1
					c-4,2.6-8.4,4.7-12.4,7.2c-4.3,2.7-9.6,4.6-14.3,6.5C1880.4,161,1874.3,162.9,1868.1,164.7z"/>
			</g>
			<g>
				<path class="st13" d="M1901.1,153.9c-1.9,9.8-6.3,19-12.9,26.4c0.7-0.5,1.5-0.9,2.2-1.4c5.8-7.3,9.8-15.9,11.5-25.1
					c0.1-0.3-0.2-0.4-0.4-0.4c0-0.1-0.1-0.1-0.2-0.2c-11.5-6.4-23.8-11.1-36.6-13.8c-0.4,0.2-0.8,0.4-1.2,0.5
					C1876.7,142.6,1889.3,147.3,1901.1,153.9C1901.1,153.9,1901.1,153.9,1901.1,153.9z"/>
				<path class="st13" d="M1888.4,159.8c-3.9,9.3-9.5,17.7-16.7,24.7c0.4,0,0.8,0,1.2-0.1c7-7,12.5-15.3,16.3-24.5
					c0.2-0.1,0.3-0.3,0.2-0.6c0,0,0,0,0,0c0.2-0.4-0.5-0.8-0.7-0.4c-11.2-5.1-22.7-10.1-34.6-13.2c-0.3,0.2-0.5,0.4-0.8,0.6
					C1865.4,149.6,1877,154.7,1888.4,159.8z"/>
				<path class="st13" d="M1870.1,165.3C1870,165.3,1870,165.3,1870.1,165.3c-7.9-4.4-15.9-8.8-24.5-11.4c-0.2,0.2-0.4,0.4-0.6,0.6
					c8.6,2.5,16.8,7,24.6,11.4c-3.4,6.6-8.1,12.3-13.8,16.8c0.3,0.1,0.6,0.2,0.9,0.2c5.7-4.7,10.5-10.5,13.8-17.2
					C1870.7,165.5,1870.3,165.2,1870.1,165.3z"/>
				<path class="st13" d="M1856.1,168.2c-5.5-2.9-11.4-5.1-17.4-6.6c-0.2,0.2-0.4,0.4-0.6,0.7c6,1.5,11.9,3.6,17.4,6.5
					c-3.3,4.1-7.2,7.7-11.6,10.6c0.3,0.1,0.6,0.2,0.9,0.3c4.4-3,8.3-6.6,11.6-10.9C1856.8,168.5,1856.4,168.1,1856.1,168.2z"/>
			</g>
			<g class="st14">
				<path class="st8" d="M1835.2,165.7c-1.4,1.7-2.7,3.3-4.2,4.9c-0.6,0.6-3.5,4.3-4.3,4.1c0.9,0.1,1.7,0.3,2.6,0.5
					c9.6-9,21.6-15.4,34.6-17.3c8.9-1.3,17.9-0.5,26.9-0.2c5.8,0.2,11.8,0.2,17.6-0.7c0.5-1,1.1-2,1.6-2.9c1.6-3,3.3-6.5,5.5-9.1
					c-0.6,0.7-5.6-0.5-6.5-0.6c-2.2-0.4-4.4-1-6.5-1.7c-1.8-0.6-3.7-0.8-5.5-1.5c-2.4-0.8-4.8-1.6-7.3-2.3
					c-4.4-1.2-8.9-1.9-13.4-2.1c-4.3-0.2-9.2,1.4-13,3.3c-8.2,4.1-14.2,10-20.1,16.8C1840.4,159.9,1837.6,162.7,1835.2,165.7z"/>
			</g>
		</g>
		<g>
			<g>
				<path class="st12" d="M1682.8,262.3c-3.3,0-6.6-0.3-9.8-0.5c-2.5-0.2-4.8,0.1-7.3-0.1c-2.9-0.2-5.8-0.3-8.6,0
					c-1.2,0.1-7.7,0.2-8.1,1.2c1.6-3.9,2.1-8.6,2.7-12.8c0.8-4.9,1.5-9.8,2.5-14.6c2.1-10.3,7.7-20.2,15.3-27.3
					c3.7-3.4,10.4-5.5,15.3-7c18.3-5.7,39.3-0.3,58.6-1.8c-1,0.1-3,5.5-3.5,6.4c-1.1,2.4-2,4.8-3,7.3c-1.7,4.4-3.7,8.7-5.5,13.1
					c-4.2,10.1-9,19.2-17.1,26.7c-3.8,3.5-9.1,7-14.3,8.1C1694.4,261.9,1688.6,262.4,1682.8,262.3z"/>
			</g>
			<g>
				<path class="st13" d="M1697.5,224.3c1.5-0.9,3.1-1.8,4.6-2.7c4.6-2.7,9.5-5.3,14.4-7.5c3-1.4,6.3-3.3,9.5-4.3
					c-13.1,4-24.5,9.8-35.9,16.8c-11.6,7.2-22.3,15.6-32.1,24.9c-6.8,6.5-14,13.1-19.7,20.6c-0.2,0.2-0.3,0.5-0.4,0.7
					c0,0.4,0.2,0.7,0.4,1c0.6,0.7,1.3,1.4,2.2,1.8c0.3,0.1,0.6,0.2,0.9,0.2c0.2-0.1,0.4-0.3,0.6-0.4c3.7-4.1,6.1-9,9.7-13.3
					c3.7-4.4,8.1-8.3,11.8-12.6c4-4.7,9.6-8.6,14.5-12.3C1684.2,232.5,1690.8,228.3,1697.5,224.3z"/>
			</g>
			<g>
				<path class="st13" d="M1662.2,247.6c-2-12.5-0.6-25.1,4-36.2c-0.7,0.8-1.4,1.6-2,2.4c-3.8,10.7-4.9,22.4-2.9,34.2
					c0.1,0.4,0.4,0.5,0.7,0.4c0.1,0.1,0.2,0.1,0.3,0.2c16.7,4.3,33.7,6.2,50.4,5.6c0.4-0.3,0.8-0.7,1.2-1
					C1696.7,253.9,1679.4,252,1662.2,247.6C1662.3,247.6,1662.3,247.6,1662.2,247.6z"/>
				<path class="st13" d="M1675.1,236.5c0.6-12.5,3.8-24.6,9.4-35.3c-0.4,0.1-0.9,0.3-1.4,0.4c-5.4,10.7-8.5,22.5-9,34.9
					c-0.2,0.2-0.3,0.5,0,0.7c0,0,0,0,0,0c0,0.6,0.9,0.8,1,0.2c15.8,2.7,31.9,5.3,47.7,5.4c0.2-0.3,0.4-0.6,0.6-1
					C1707.3,241.9,1691.1,239.2,1675.1,236.5z"/>
				<path class="st13" d="M1694.9,224.1C1694.9,224.1,1694.9,224.1,1694.9,224.1c11.5,2.9,23.1,5.8,34.6,6.3
					c0.1-0.3,0.3-0.6,0.4-0.9c-11.6-0.4-23.4-3.3-34.8-6.3c1.2-9.1,4.5-17.5,9.4-24.8c-0.4,0-0.8,0-1.2,0
					c-4.9,7.5-8.1,16.1-9.2,25.2C1694,224.1,1694.6,224.3,1694.9,224.1z"/>
				<path class="st13" d="M1710.5,216.3c8,1.8,16,2.7,23.9,2.7c0.1-0.3,0.3-0.7,0.4-1c-7.9,0.1-16-0.8-23.9-2.6
					c2.2-6.1,5.4-11.6,9.4-16.5c-0.4,0-0.8,0-1.3-0.1c-4,5-7.2,10.7-9.4,16.8C1709.6,216.1,1710.2,216.5,1710.5,216.3z"/>
			</g>
			<g class="st14">
				<path class="st8" d="M1736.9,212.9c0.9-2.5,1.9-4.9,3-7.3c0.4-0.9,2.4-6.3,3.5-6.4c-1.1,0.1-2.2,0.1-3.3,0.2
					c-7.6,13.9-19.4,25.5-34.3,31.8c-10.2,4.3-21.5,6.1-32.6,8.5c-7.2,1.5-14.4,3.4-21,6.2c-0.2,1.4-0.4,2.7-0.6,4.1
					c-0.7,4.2-1.1,8.9-2.7,12.8c0.4-1,7-1.1,8.1-1.2c2.9-0.2,5.7-0.2,8.6,0c2.5,0.2,4.8-0.1,7.3,0.1c3.3,0.3,6.6,0.5,9.8,0.5
					c5.8,0,11.6-0.4,17.2-1.5c5.2-1.1,10.6-4.6,14.3-8.1c8.1-7.5,12.8-16.5,17.1-26.7C1733.2,221.6,1735.3,217.3,1736.9,212.9z"/>
			</g>
		</g>
		<g>
			<g>
				<path class="st12" d="M1541.1,425.7c-0.6,1.6-1.4,3.1-2.2,4.6c-0.6,1.2-0.9,2.4-1.4,3.5c-0.7,1.3-1.2,2.7-1.7,4.2
					c-0.2,0.6-1.4,3.8-1,4.2c-1.5-1.7-3.7-3.1-5.6-4.5c-2.2-1.6-4.3-3.1-6.5-4.8c-4.5-3.6-8.1-8.7-10-14.1c-0.9-2.6-0.6-6.4-0.4-9.1
					c0.8-10.3,7.4-19.1,10.4-28.8c-0.2,0.5,2,2.8,2.4,3.2c0.9,1.1,1.9,2.2,2.9,3.2c1.8,1.9,3.4,3.9,5.1,5.9c4,4.5,7.4,9,9.4,14.8
					c0.9,2.7,1.6,6.1,1.1,8.9C1543.2,420,1542.3,422.9,1541.1,425.7z"/>
			</g>
			<g>
				<path class="st13" d="M1526,409.3c-0.1-1-0.3-1.9-0.4-2.9c-0.4-2.9-0.7-5.9-0.8-8.8c-0.1-1.8-0.3-3.9-0.2-5.7
					c-0.6,7.3-0.1,14.3,1,21.5c1.2,7.4,3.1,14.6,5.6,21.6c1.8,4.9,3.5,10,6,14.6c0.1,0.1,0.2,0.3,0.3,0.4c0.2,0.1,0.4,0.1,0.6,0
					c0.5-0.1,0.9-0.3,1.3-0.6c0.1-0.1,0.2-0.2,0.3-0.4c0-0.1,0-0.3-0.1-0.4c-1.2-2.8-3.1-5.1-4.4-7.9c-1.4-2.9-2.4-5.9-3.7-8.8
					c-1.4-3.1-2.2-6.8-3-10.1C1527.3,417.7,1526.6,413.5,1526,409.3z"/>
			</g>
			<g>
				<path class="st13" d="M1530.2,432.1c-6.3-2.1-12-5.9-16.4-10.8c0.2,0.5,0.5,1,0.7,1.6c4.3,4.5,9.7,7.9,15.6,9.8
					c0.2,0.1,0.3-0.1,0.3-0.2c0,0,0.1,0,0.1-0.1c5.3-7,9.4-14.8,12.4-23c-0.1-0.3-0.2-0.6-0.3-0.8
					C1539.8,416.9,1535.6,424.8,1530.2,432.1C1530.2,432,1530.2,432,1530.2,432.1z"/>
				<path class="st13" d="M1527.4,423.1c-5.8-3.4-10.9-7.9-14.9-13.2c0,0.3,0,0.5-0.1,0.8c4,5.2,9,9.6,14.8,12.9
					c0,0.2,0.2,0.3,0.3,0.2c0,0,0,0,0,0c0.3,0.2,0.5-0.2,0.3-0.4c4.3-7,8.7-14.1,11.7-21.8c-0.1-0.2-0.2-0.4-0.3-0.6
					C1536.2,408.8,1531.8,416,1527.4,423.1z"/>
				<path class="st13" d="M1525.3,410.5C1525.4,410.5,1525.4,410.5,1525.3,410.5c3.6-4.8,7.2-9.8,9.7-15.2c-0.1-0.1-0.2-0.3-0.4-0.4
					c-2.4,5.5-6.1,10.5-9.7,15.3c-4-2.8-7.4-6.4-10-10.6c-0.1,0.2-0.2,0.4-0.2,0.6c2.6,4.2,6.1,7.8,10.2,10.7
					C1525.2,410.9,1525.4,410.7,1525.3,410.5z"/>
				<path class="st13" d="M1524.7,401c2.4-3.4,4.4-7.1,5.9-10.9c-0.1-0.1-0.3-0.3-0.4-0.4c-1.5,3.9-3.4,7.5-5.8,11
					c-2.4-2.6-4.5-5.5-6-8.6c-0.1,0.2-0.2,0.4-0.3,0.6c1.6,3.2,3.7,6.1,6.2,8.7C1524.4,401.4,1524.7,401.2,1524.7,401z"/>
			</g>
			<g class="st14">
				<path class="st8" d="M1528.2,387.4c-1-1-2-2.1-2.9-3.2c-0.4-0.4-2.5-2.7-2.4-3.2c-0.2,0.6-0.4,1.1-0.6,1.7
					c5.1,7.1,8.3,15.7,8.5,24.4c0.1,6-1.2,11.9-2.2,17.9c-0.7,3.9-1.2,7.8-1.1,11.7c0.6,0.4,1.2,0.9,1.8,1.3c1.9,1.3,4,2.7,5.6,4.5
					c-0.4-0.5,0.8-3.7,1-4.2c0.5-1.4,1-2.8,1.7-4.2c0.6-1.2,0.9-2.4,1.4-3.5c0.8-1.5,1.5-3.1,2.2-4.6c1.1-2.8,2.1-5.7,2.6-8.7
					c0.5-2.8-0.1-6.2-1.1-8.9c-2-5.8-5.4-10.3-9.4-14.8C1531.6,391.3,1529.9,389.2,1528.2,387.4z"/>
			</g>
		</g>
		<g>
			<g>
				<path class="st12" d="M574.3,175.8c3,1.2,5.9,2.6,8.7,4.1c2.2,1.1,4.5,1.6,6.6,2.7c2.5,1.3,5.2,2.3,7.9,3.2
					c1.1,0.3,7.1,2.6,8,1.9c-3.3,2.9-5.8,6.9-8.4,10.4c-3,4.1-5.9,8.2-9,12.1c-6.7,8.5-16.3,15.2-26.6,18.8
					c-4.9,1.7-12.1,1.1-17.2,0.7c-19.3-1.6-36-14-54.3-19.6c1,0.3,5.3-3.8,6.1-4.5c2.1-1.7,4.1-3.6,6.1-5.4
					c3.5-3.3,7.4-6.4,11.1-9.7c8.5-7.5,17-13.8,27.9-17.6c5-1.8,11.5-2.9,16.8-2C563.6,171.9,569,173.6,574.3,175.8z"/>
			</g>
			<g>
				<path class="st13" d="M543.4,204.4c-1.8,0.3-3.7,0.5-5.5,0.8c-5.4,0.7-11.1,1.2-16.6,1.5c-3.4,0.2-7.3,0.6-10.7,0.4
					c13.8,1.2,26.9,0.2,40.5-2c13.9-2.2,27.5-5.8,40.7-10.6c9.2-3.3,18.8-6.6,27.5-11.3c0.3-0.1,0.5-0.3,0.7-0.5
					c0.2-0.3,0.2-0.7,0.1-1.1c-0.2-0.9-0.6-1.7-1.2-2.4c-0.2-0.2-0.4-0.4-0.7-0.5c-0.3,0-0.5,0.1-0.7,0.2c-5.2,2.3-9.7,5.9-14.9,8.3
					c-5.4,2.6-11.2,4.4-16.6,7c-5.8,2.7-12.7,4.2-18.9,5.7C559.3,201.9,551.3,203.2,543.4,204.4z"/>
			</g>
			<g>
				<path class="st13" d="M586.3,196.4c-3.9,11.9-11,22.6-20.4,30.8c1-0.4,2-0.9,2.9-1.4c8.4-8.1,14.8-18.2,18.5-29.4
					c0.1-0.3-0.1-0.6-0.4-0.6c0-0.1-0.1-0.2-0.2-0.2c-13.2-9.9-27.9-17.7-43.4-23.3c-0.5,0.2-1,0.3-1.5,0.5
					C557.7,178.3,572.7,186.2,586.3,196.4C586.2,196.4,586.3,196.4,586.3,196.4z"/>
				<path class="st13" d="M569.4,201.6c-6.3,11-14.8,20.5-24.9,28.1c0.5,0,1,0.1,1.5,0.1c9.8-7.6,18.1-17,24.3-27.8
					c0.3-0.1,0.5-0.4,0.4-0.6c0,0,0,0,0,0c0.3-0.5-0.4-1-0.8-0.6c-13.2-8.2-26.6-16.3-41-22.1c-0.3,0.2-0.7,0.4-1,0.6
					C542.5,185.1,556.1,193.4,569.4,201.6z"/>
				<path class="st13" d="M545.7,205.5C545.7,205.5,545.7,205.5,545.7,205.5c-9.1-6.8-18.4-13.6-28.7-18.2c-0.3,0.2-0.5,0.5-0.8,0.7
					c10.4,4.6,19.8,11.5,28.8,18.2c-5.3,7.6-12.1,14-20,18.7c0.4,0.1,0.8,0.3,1.1,0.4c7.9-4.9,14.8-11.4,20.1-19.2
					C546.5,205.8,546.1,205.4,545.7,205.5z"/>
				<path class="st13" d="M527.8,206.8c-6.4-4.5-13.3-8.2-20.6-11.1c-0.3,0.2-0.6,0.5-0.8,0.7c7.3,2.8,14.2,6.5,20.6,11
					c-4.8,4.6-10.3,8.4-16.2,11.3c0.4,0.2,0.7,0.3,1.1,0.5c6-3,11.5-6.9,16.3-11.6C528.6,207.3,528.2,206.7,527.8,206.8z"/>
			</g>
			<g class="st14">
				<path class="st8" d="M502.1,200.2c-2,1.9-4,3.7-6.1,5.4c-0.8,0.7-5.1,4.8-6.1,4.5c1,0.3,2.1,0.7,3.1,1
					c13.4-9.7,29.5-15.7,45.9-15.9c11.3-0.2,22.5,2.3,33.6,4.2c7.3,1.2,14.7,2.2,22,2c0.8-1.1,1.6-2.3,2.5-3.4
					c2.5-3.5,5.1-7.6,8.4-10.4c-0.8,0.8-6.9-1.5-8-1.9c-2.7-0.9-5.3-1.9-7.9-3.2c-2.2-1.1-4.5-1.6-6.6-2.7c-2.9-1.4-5.8-2.8-8.7-4.1
					c-5.3-2.2-10.7-3.9-16.4-4.9c-5.3-0.9-11.8,0.3-16.8,2c-10.9,3.8-19.3,10.1-27.9,17.6C509.6,193.8,505.7,196.9,502.1,200.2z"/>
			</g>
		</g>
		<g>
			<g>
				<path class="st12" d="M216.8,92.8c-1.2-3-2.3-6-3.3-9c-0.8-2.3-2-4.3-2.8-6.6c-0.9-2.7-2-5.3-3.3-7.8c-0.5-1-3.2-6.9-4.3-6.9
					c4.4,0.3,9-0.8,13.3-1.5c5-0.8,10-1.6,15-2.2c10.7-1.2,22.3,0.8,32.1,5.5c4.7,2.3,9.3,7.7,12.7,11.7
					c12.6,14.8,15.6,35.4,24.5,52.3c-0.5-0.9-6.4-1.1-7.5-1.2c-2.7-0.3-5.4-0.4-8.1-0.5c-4.9-0.1-9.8-0.7-14.7-1
					c-11.3-0.7-21.8-2.2-32.2-7.3c-4.8-2.3-10.2-6.1-13.3-10.5C221.7,103.2,219,98.1,216.8,92.8z"/>
			</g>
			<g>
				<path class="st13" d="M258.9,94.5c1.5,1.1,3,2.2,4.4,3.3c4.4,3.3,8.7,7,12.8,10.7c2.5,2.3,5.6,4.7,7.8,7.3
					c-8.9-10.6-18.9-19.1-30-27.2c-11.4-8.2-23.5-15.4-36.2-21.3c-8.9-4.2-18-8.6-27.4-11.5c-0.3-0.1-0.6-0.2-0.9-0.1
					c-0.4,0.1-0.6,0.4-0.8,0.7c-0.5,0.7-0.8,1.6-0.8,2.5c0,0.3,0,0.6,0.2,0.8c0.2,0.2,0.4,0.3,0.6,0.4c5.3,2.1,11,2.7,16.4,4.7
					c5.7,2,11,4.8,16.7,6.8c6,2.2,11.9,6,17.4,9.3C245.9,85,252.5,89.7,258.9,94.5z"/>
			</g>
			<g>
				<path class="st13" d="M222.9,69.8c11.2-5.6,23.8-8.2,36.2-7.4c-1-0.4-2-0.8-3.1-1.1c-11.7-0.2-23.4,2.4-33.9,7.8
					c-0.3,0.2-0.3,0.5-0.1,0.7c0,0.1-0.1,0.2-0.1,0.3c2.4,16.3,7.2,32.2,14.2,47.1c0.5,0.3,1,0.5,1.4,0.8
					C230.3,102.8,225.4,86.6,222.9,69.8C222.9,69.9,222.9,69.8,222.9,69.8z"/>
				<path class="st13" d="M238.6,78c12.2-3.3,25-4,37.5-2.3c-0.3-0.4-0.6-0.7-1-1.1c-12.3-1.6-24.8-0.8-36.9,2.5
					c-0.2-0.2-0.6-0.1-0.7,0.2c0,0,0,0,0,0c-0.6,0.2-0.4,1,0.1,1c3.5,15.1,7.2,30.4,13.3,44.6c0.4,0.1,0.8,0.2,1.2,0.3
					C245.9,108.7,242.1,93.3,238.6,78z"/>
				<path class="st13" d="M258.1,92.1c0,0,0,0.1,0,0.1c1.6,11.1,3.4,22.5,7.4,33c0.4,0,0.7,0.1,1.1,0.1c-4.1-10.6-5.9-22.1-7.5-33.3
					c9.1-1.6,18.5-1.3,27.4,0.9c-0.2-0.4-0.3-0.7-0.5-1.1c-9.1-2.1-18.5-2.4-27.7-0.6C257.7,91.3,257.7,91.9,258.1,92.1z"/>
				<path class="st13" d="M271.6,103.8c1.3,7.7,3.6,15.2,6.7,22.4c0.4,0,0.7,0.1,1.1,0.1c-3.2-7.1-5.4-14.6-6.8-22.3
					c6.7,0.2,13.2,1.3,19.5,3.5c-0.1-0.4-0.3-0.8-0.4-1.2c-6.3-2.1-13-3.2-19.8-3.3C271.4,102.9,271.3,103.5,271.6,103.8z"/>
			</g>
			<g class="st14">
				<path class="st8" d="M285.1,126.6c2.7,0.1,5.4,0.2,8.1,0.5c1.1,0.1,7,0.2,7.5,1.2c-0.5-1-1-1.9-1.5-2.9
					c-16.3-2.6-31.9-9.7-43.8-21.2c-8.1-7.9-14.2-17.5-20.8-26.8c-4.3-6-8.8-11.9-14.1-17c-1.4,0.2-2.8,0.4-4.2,0.7
					c-4.3,0.7-9,1.7-13.3,1.5c1.1,0.1,3.8,5.9,4.3,6.9c1.3,2.5,2.4,5.1,3.3,7.8c0.8,2.3,2,4.3,2.8,6.6c1,3,2.1,6.1,3.3,9
					c2.2,5.3,4.8,10.3,8.1,15c3.1,4.4,8.5,8.1,13.3,10.5c10.3,5,20.8,6.5,32.2,7.3C275.3,125.9,280.3,126.4,285.1,126.6z"/>
			</g>
		</g>
		<g>
			<g>
				<path class="st8" d="M1791.3,297.3c3.2,0.7,6.2,1.7,8.8,3.4c5.1,3.3,10.8,6.9,13.1,12.8c4.2,10.6,0,22.1-8,29.8
					c-3.7,3.6-9,6.3-13.9,4.7c1.5,8.4-1.8,17.5-8.4,22.9c-5.3,4.3-12.4,6.3-19.1,5.5c-6.9-0.8-14.7-4.2-18.2-10.3
					c-3.7-6.4-5.6-13.1-7-20.3c-1.7-8.7-3.1-17.4-4.5-26.1c-1.3-8-2.8-16-4.4-23.9c0.4,1.9,14.9,1.4,16.7,1.4
					c8.4,0,16.8-0.4,25.2-0.7C1777.5,296.3,1784.8,296,1791.3,297.3z"/>
			</g>
			<path class="st12" d="M1762.7,327.7c-2.2-1.8-4.4-3.5-6.5-5.3c-4.6-3.8-8.5-8.1-13-12.1c0.4,1.6,1.5,2.9,2.6,4.1
				c12.4,13.9,28,25.2,43.9,34.8c9.8,5.9,20,10.9,30.1,16.1c0.3,0.2,0.7,0.4,1.1,0.3c0.4,0,0.7-0.3,0.9-0.5c1.1-0.9,1.9-2.2,2.3-3.5
				c0,0.1-17.6-7.1-18.8-7.6C1789.9,346.8,1776,338.2,1762.7,327.7z"/>
			<g>
				<path class="st12" d="M1752.9,359.4c12.6-0.6,24.7-4.8,35-12.2c0.5-0.4-0.1-1.1-0.6-0.7c-10.1,7.3-22.1,11.4-34.5,12
					C1752.1,358.5,1752.3,359.4,1752.9,359.4L1752.9,359.4z"/>
			</g>
			<g>
				<path class="st12" d="M1788,347.2c4.3-11,5.1-23.1,2.4-34.6c-0.1-0.6-1.1-0.5-0.9,0.1c2.7,11.4,1.9,23.2-2.3,34.1
					C1786.9,347.4,1787.8,347.7,1788,347.2L1788,347.2z"/>
			</g>
			<g>
				<path class="st12" d="M1747,342.8c8.9,0.6,17.7-0.9,25.9-4.4c0.6-0.2,0.2-1.1-0.4-0.9c-8,3.5-16.7,5-25.5,4.4
					C1746.5,341.8,1746.4,342.7,1747,342.8L1747,342.8z"/>
			</g>
			<g>
				<path class="st12" d="M1773.1,337.7c1.2-5.1,1.8-10.3,1.7-15.5c-0.1-4.4-0.5-8.7-2.8-12.5c-0.3-0.5-1.1,0.1-0.8,0.6
					c2.5,4.1,2.6,9.1,2.6,13.7c0,4.6-0.6,9.2-1.7,13.7C1772,338.2,1773,338.3,1773.1,337.7L1773.1,337.7z"/>
			</g>
			<g>
				<path class="st12" d="M1742,327.4c5.3,1.1,10.6,1,15.8-0.4c0.6-0.2,0.5-1.1-0.1-0.9c-5.1,1.4-10.3,1.5-15.5,0.4
					C1741.5,326.3,1741.4,327.2,1742,327.4L1742,327.4z"/>
			</g>
			<g>
				<path class="st12" d="M1759.2,325.5c0.7-6.4-0.2-12.8-2.8-18.8c-0.2-0.6-1.1-0.2-0.9,0.4c2.5,5.8,3.5,12,2.7,18.3
					C1758.2,326,1759.2,326.1,1759.2,325.5L1759.2,325.5z"/>
			</g>
			<g class="st11">
				<path class="st8" d="M1791.3,297.3c-6.5-1.3-13.8-1-19.8-0.8c-8.4,0.3-16.8,0.7-25.2,0.7c-1.8,0-16.3,0.5-16.7-1.4
					c0.3,1.5,0.6,3.1,0.9,4.6c10.7,2.5,20.8,6.6,28.5,14.3c14.4,14.3,16.3,36.6,25.8,54.5c5.3-5.5,7.9-13.6,6.5-21.2
					c4.9,1.6,10.2-1.2,13.9-4.7c8-7.7,12.3-19.2,8-29.8c-2.3-5.9-8.1-9.4-13.1-12.8C1797.5,299,1794.5,298,1791.3,297.3z"/>
			</g>
		</g>
		<g>
			<g>
				<path class="st8" d="M1636.7,14.8c-1.4-2.1-2.4-4.2-2.9-6.5c-1-4.5-2.1-9.4-0.2-13.8c3.4-7.9,11.8-11.8,20.2-11.6
					c3.9,0.1,8.2,1.5,9.9,4.9c3.7-5.3,10.3-8.4,16.7-7.7c5.1,0.5,9.9,3.2,13.1,7.3c3.3,4.1,5.6,10.1,4.2,15.2
					c-1.5,5.4-4,9.9-7.1,14.6c-3.7,5.5-7.6,10.9-11.5,16.3c-3.6,5-7,10-10.4,15.1c0.8-1.2-7.2-8.7-8.2-9.7
					c-4.5-4.5-9.2-8.8-13.8-13.1C1643.4,22.7,1639.4,19,1636.7,14.8z"/>
			</g>
			<path class="st12" d="M1668.1,13.8c0.2,2.1,0.5,4.2,0.6,6.3c0.4,4.5,0.2,8.9,0.5,13.4c0.6-1.1,0.7-2.3,0.8-3.5
				c0.8-14-1.5-28.4-4.9-41.9c-2.1-8.3-4.8-16.4-7.5-24.6c-0.1-0.3-0.2-0.6-0.4-0.7c-0.2-0.2-0.5-0.2-0.8-0.2
				c-1.1-0.1-2.2,0.1-3.1,0.7c0.1,0,5.6,13.2,5.9,14.1C1663.7-10.9,1666.6,1.1,1668.1,13.8z"/>
			<g>
				<path class="st12" d="M1690.2,2.2c-7-6.4-15.8-10.6-25.1-12.1c-0.5-0.1-0.5,0.6-0.1,0.7c9.3,1.5,17.9,5.7,24.8,12
					C1690.1,3.1,1690.5,2.5,1690.2,2.2L1690.2,2.2z"/>
			</g>
			<g>
				<path class="st12" d="M1665-10c-8.2,3.6-15,9.6-19.7,17.2c-0.2,0.4,0.3,0.8,0.6,0.4c4.6-7.5,11.3-13.4,19.4-16.9
					C1665.7-9.6,1665.4-10.2,1665-10L1665-10z"/>
			</g>
			<g>
				<path class="st12" d="M1684.4,14.2c-4.4-5.1-9.9-9-16.2-11.5c-0.4-0.2-0.7,0.5-0.3,0.7c6.1,2.4,11.6,6.3,15.9,11.2
					C1684.2,15,1684.8,14.5,1684.4,14.2L1684.4,14.2z"/>
			</g>
			<g>
				<path class="st12" d="M1667.8,3c-3.3,2.1-6.5,4.5-9.2,7.4c-2.3,2.4-4.4,4.9-5.2,8.2c-0.1,0.4,0.6,0.5,0.7,0.1
					c0.9-3.5,3.4-6.2,5.9-8.7c2.5-2.5,5.2-4.6,8.2-6.4C1668.7,3.3,1668.2,2.7,1667.8,3L1667.8,3z"/>
			</g>
			<g>
				<path class="st12" d="M1678.9,25.1c-2.2-3.4-5.1-6.2-8.6-8.2c-0.4-0.2-0.8,0.3-0.4,0.6c3.5,2,6.3,4.7,8.5,8
					C1678.6,25.9,1679.2,25.5,1678.9,25.1L1678.9,25.1z"/>
			</g>
			<g>
				<path class="st12" d="M1668.7,16.9c-3.8,3-6.7,7-8.5,11.5c-0.2,0.4,0.5,0.7,0.7,0.3c1.7-4.4,4.5-8.2,8.3-11.2
					C1669.5,17.1,1669.1,16.6,1668.7,16.9L1668.7,16.9z"/>
			</g>
			<g class="st11">
				<path class="st8" d="M1636.7,14.8c2.7,4.2,6.8,7.9,10.1,10.9c4.7,4.3,9.3,8.6,13.8,13.1c1,1,9,8.4,8.2,9.7c0.7-1,1.3-2,2-2.9
					c-4.3-7.1-7.5-14.6-7.6-22.8c-0.1-15.3,10.8-28.2,15.3-42.8c-5.8,0.1-11.5,3.1-14.7,7.8c-1.8-3.4-6.1-4.8-9.9-4.9
					c-8.4-0.2-16.8,3.7-20.2,11.6c-1.9,4.4-0.7,9.3,0.2,13.8C1634.3,10.6,1635.3,12.8,1636.7,14.8z"/>
			</g>
		</g>
		<g>
			<g>
				<path class="st6" d="M836.2,19.6c1.6,0,3.2,0,4.7,0c8.5-0.2,15.9,2.8,24.3,4c3.4,0.5,15.8,2.5,17.7-2.2
					c-2.7,7.1-2.9,15.9-0.8,23.2c2.3,7.9,5,15.9,7.1,24c1.3,4.9,2.7,10,1.9,15c-0.8,5-4.3,10-9.4,10.7c-3.7,0.5-7.4-1.3-10-4
					s-4.2-6.1-5.7-9.5c-0.1,5.5-0.3,11-1.1,16.5c-0.7,4.5-2.4,9.6-6.7,11.2c-3.6,1.4-7.9-0.4-10.5-3.4c-2.5-3-3.7-6.9-4.6-10.7
					c-3.4,5.1-7.3,9.9-11.6,14.3c-4.2,4.3-8.9,8.3-14.5,10.5c-3.6,1.4-7.5,2-11.4,2.1c-4.6,0.1-9.3-0.4-13.5-2.4
					c-4.1-2-7.7-5.6-8.8-10.1c-1.3-5,0.5-10.3,2.8-15c6.4-12.8,17.5-23.1,30.7-28.6c-5,0.7-10.2-0.3-14.5-2.8
					c-1.4-0.8-2.8-1.8-3.6-3.2c-2.2-4,1.1-8.8,4.8-11.3c5.7-3.8,12.6-5,19.4-5.8c-3-0.6-6.1-1.7-8.4-3.7c-2.4-2-3.9-5.2-3.4-8.2
					c0.5-2.8,2.5-5.1,4.9-6.5C822.2,19.7,829.3,19.6,836.2,19.6z"/>
			</g>
			<g class="st14">
				<path class="st8" d="M814.6,38.3c2.4,2,5.4,3.1,8.4,3.7c-6.8,0.8-13.7,2.1-19.4,5.8c-3.8,2.5-7,7.4-4.8,11.3
					c0.8,1.4,2.2,2.4,3.6,3.2c4.4,2.5,9.6,3.5,14.5,2.8c-13.2,5.5-24.2,15.9-30.7,28.6c-2.3,4.6-4.1,9.9-2.8,15
					c0.9,3.6,3.4,6.6,6.5,8.7c3.6-6,8.1-11.6,13.1-16.5c11.6-11.2,26-19.2,40.8-25.8c12.3-5.5,25-10.1,36.6-16.9
					c1.7-1,3.4-2.1,5-3.2c-1.1-3.6-2.2-7.2-3.3-10.7c-2.1-7.3-1.9-16.1,0.8-23.2c-1.8,4.8-14.3,2.7-17.7,2.2
					c-8.5-1.2-15.8-4.1-24.3-4c-1.6,0-3.1,0-4.7,0c-6.9,0-14,0.1-20.1,3.9c-2.4,1.5-4.4,3.8-4.9,6.5
					C810.7,33.1,812.2,36.3,814.6,38.3z"/>
			</g>
			<g>
				<path class="st9" d="M807.3,96.4c36.2-23.4,66.2-55,87.7-92.2c0.8-1.3-1.4-2.2-2.2-0.9c-21.3,36.9-51.2,68.1-87,91.3
					C804.7,95.4,806.1,97.2,807.3,96.4L807.3,96.4z"/>
			</g>
			<g>
				<path class="st9" d="M877.1,76.8c-2.1-13.5-3.7-27.1-4.7-40.7c-0.1-0.8-1.2-0.6-1.2,0.1c1,13.6,2.6,27.2,4.7,40.7
					C876.1,77.7,877.2,77.6,877.1,76.8L877.1,76.8z"/>
			</g>
			<g>
				<path class="st9" d="M871.7,36c-16.2,0.4-32.1-2.9-47.9-6.2c-0.7-0.2-0.9,1-0.2,1.2c15.9,3.3,31.9,6.5,48.2,6.2
					C872.6,37.2,872.4,36,871.7,36L871.7,36z"/>
			</g>
			<g>
				<path class="st9" d="M854.2,95.6c-0.3-12.6-0.4-25.1-0.5-37.7c0-0.8-1.2-0.6-1.2,0.1c0,12.6,0.2,25.1,0.5,37.7
					C853,96.5,854.2,96.4,854.2,95.6L854.2,95.6z"/>
			</g>
			<g>
				<path class="st9" d="M852.9,57.4c-15.3,0.3-30.5-1.2-45.4-4.6c-0.7-0.2-0.9,1-0.2,1.2c15,3.4,30.4,4.9,45.7,4.6
					C853.8,58.5,853.7,57.4,852.9,57.4L852.9,57.4z"/>
			</g>
			<g>
				<path class="st9" d="M826.7,106.3c2.2-8.8,3.3-17.8,3.3-26.9c0-0.8-1.2-0.6-1.2,0.1c0,9-1.1,17.9-3.3,26.6
					C825.3,106.9,826.5,107.1,826.7,106.3L826.7,106.3z"/>
			</g>
			<g>
				<path class="st9" d="M829.6,78.7c-9.1-1.7-18.3-1.7-27.3-0.1c-0.7,0.1-0.6,1.3,0.1,1.2c9-1.6,18.1-1.5,27,0.1
					C830.2,80,830.4,78.8,829.6,78.7L829.6,78.7z"/>
			</g>
		</g>
		<g>
			<g>
				<path class="st6" d="M1916.5,253.6c0.5,1.6,1,3.1,1.5,4.6c2.8,8.3,2.1,16.4,3.6,25c0.6,3.5,2.4,16.3,7.6,16.6
					c-7.8-0.5-16.5,2.1-22.9,6.3c-7.1,4.7-14,9.8-21.3,14.3c-4.4,2.8-9,5.7-14.1,6.4c-5.2,0.8-11.1-1.2-13.4-5.9
					c-1.7-3.4-1-7.7,0.8-11c1.8-3.4,4.7-6,7.6-8.5c-5.4,1.6-10.9,3.1-16.5,3.9c-4.6,0.7-10.1,0.6-13-3.1c-2.5-3.1-2-7.9,0.1-11.3
					c2.1-3.4,5.6-5.7,9-7.8c-6.1-1.8-12-4.1-17.6-6.9c-5.5-2.8-10.9-6.2-14.7-11c-2.5-3.1-4.3-6.7-5.6-10.5
					c-1.5-4.5-2.4-9.3-1.7-13.9c0.7-4.7,3.2-9.2,7.2-11.7c4.5-2.8,10.3-2.7,15.5-1.8c14.5,2.4,28,10.1,37.4,21.3
					c-2.2-4.7-2.8-10.1-1.7-15.1c0.4-1.6,0.9-3.3,2.1-4.5c3.2-3.4,9-1.7,12.6,1.3c5.4,4.4,8.8,10.9,11.7,17.2
					c-0.3-3.2-0.2-6.5,1.1-9.4c1.3-2.9,3.9-5.4,7-5.8c2.9-0.4,5.7,0.9,7.9,2.8C1912.1,239.9,1914.4,246.9,1916.5,253.6z"/>
			</g>
			<g class="st14">
				<path class="st8" d="M1891.6,238.2c-1.3,2.9-1.4,6.2-1.1,9.4c-2.9-6.4-6.2-12.8-11.7-17.2c-3.6-2.9-9.4-4.6-12.6-1.3
					c-1.2,1.2-1.7,2.9-2.1,4.5c-1.1,5-0.5,10.4,1.7,15.1c-9.4-11.2-23-18.9-37.4-21.3c-5.2-0.9-11-1-15.5,1.8c-3.2,2-5.4,5.3-6.5,9
					c7,1.7,13.8,4.4,20.2,7.8c14.6,7.9,26.7,19.6,37.7,32.1c9.1,10.4,17.5,21.4,27.7,30.6c1.5,1.4,3.1,2.7,4.7,4
					c3.2-2.2,6.3-4.4,9.5-6.5c6.5-4.3,15.2-6.8,22.9-6.3c-5.2-0.3-7-13.2-7.6-16.6c-1.5-8.6-0.8-16.7-3.6-25c-0.5-1.5-1-3.1-1.5-4.6
					c-2.1-6.8-4.4-13.7-10-18.5c-2.2-1.9-5.1-3.2-7.9-2.8C1895.5,232.8,1892.9,235.3,1891.6,238.2z"/>
			</g>
			<g>
				<path class="st9" d="M1832.5,248.8c33.9,28.3,74.1,48,117.1,57.7c1.5,0.3,1.7-2.1,0.2-2.4c-42.6-9.6-82.4-29.3-115.9-57.2
					C1832.7,245.9,1831.3,247.8,1832.5,248.8L1832.5,248.8z"/>
			</g>
			<g>
				<path class="st9" d="M1873,311.2c12.6-6.2,25.4-11.9,38.4-17.1c0.7-0.3,0.2-1.4-0.5-1.1c-13,5.2-25.8,10.9-38.4,17.1
					C1871.8,310.4,1872.3,311.5,1873,311.2L1873,311.2z"/>
			</g>
			<g>
				<path class="st9" d="M1911.3,293.4c-5.3-15.8-7-32.3-8.6-48.8c-0.1-0.8-1.3-0.6-1.2,0.2c1.6,16.6,3.4,33.2,8.7,49.1
					C1910.4,294.6,1911.5,294.1,1911.3,293.4L1911.3,293.4z"/>
			</g>
			<g>
				<path class="st9" d="M1847.5,294.5c12.2-4.1,24.5-8.1,36.8-12c0.7-0.2,0.2-1.3-0.5-1.1c-12.3,3.9-24.6,7.9-36.8,12
					C1846.3,293.6,1846.8,294.7,1847.5,294.5L1847.5,294.5z"/>
			</g>
			<g>
				<path class="st9" d="M1884.6,281.5c-5-14.9-8.2-30.3-9.4-45.9c-0.1-0.8-1.2-0.6-1.2,0.2c1.3,15.7,4.5,31.2,9.5,46.2
					C1883.8,282.8,1884.9,282.3,1884.6,281.5L1884.6,281.5z"/>
			</g>
			<g>
				<path class="st9" d="M1828.7,270.8c9.3-0.5,18.5-2.2,27.4-5c0.7-0.2,0.2-1.3-0.5-1.1c-8.8,2.7-17.9,4.4-27.1,4.9
					C1827.7,269.7,1827.9,270.8,1828.7,270.8L1828.7,270.8z"/>
			</g>
			<g>
				<path class="st9" d="M1856.6,265.3c-1.1-9.4-3.9-18.4-8.2-26.8c-0.4-0.7-1.4-0.2-1.1,0.5c4.3,8.3,7,17.2,8.1,26.5
					C1855.5,266.2,1856.7,266,1856.6,265.3L1856.6,265.3z"/>
			</g>
		</g>
		<g>
			<g>
				<path class="st6" d="M518.9,17.8c0,1,0,2.1,0,3.1c0.1,5.6-1.8,10.4-2.6,16c-0.3,2.2-1.7,10.4,1.5,11.6
					c-4.6-1.8-10.4-1.9-15.2-0.5c-5.2,1.5-10.4,3.3-15.8,4.7c-3.2,0.9-6.6,1.8-9.9,1.2c-3.3-0.5-6.6-2.8-7-6.1
					c-0.4-2.4,0.8-4.9,2.6-6.6c1.8-1.7,4-2.8,6.3-3.8c-3.6-0.1-7.3-0.2-10.8-0.7c-3-0.5-6.3-1.6-7.4-4.4c-0.9-2.4,0.2-5.2,2.2-6.9
					c1.9-1.7,4.5-2.4,7-3c-3.4-2.2-6.5-4.8-9.4-7.6c-2.8-2.8-5.5-5.8-6.9-9.5c-0.9-2.4-1.3-4.9-1.4-7.5c-0.1-3,0.3-6.1,1.6-8.8
					s3.7-5,6.6-5.8c3.3-0.9,6.8,0.3,9.8,1.8c8.4,4.2,15.2,11.5,18.8,20.1c-0.4-3.3,0.2-6.7,1.8-9.6c0.5-0.9,1.2-1.8,2.1-2.4
					c2.6-1.4,5.8,0.7,7.4,3.2c2.5,3.7,3.3,8.3,3.9,12.7c0.4-2,1.1-4,2.4-5.5s3.4-2.6,5.4-2.2c1.8,0.3,3.3,1.7,4.3,3.2
					C518.9,8.6,518.9,13.3,518.9,17.8z"/>
			</g>
			<g class="st14">
				<path class="st8" d="M506.6,3.6c-1.3,1.5-2,3.5-2.4,5.5c-0.6-4.4-1.4-9-3.9-12.7c-1.6-2.5-4.8-4.6-7.4-3.2
					c-0.9,0.5-1.6,1.4-2.1,2.4c-1.6,2.9-2.3,6.3-1.8,9.6c-3.6-8.6-10.4-15.9-18.8-20.1c-3-1.5-6.5-2.7-9.8-1.8
					c-2.4,0.6-4.3,2.2-5.7,4.3c4,2.4,7.6,5.3,10.8,8.6c7.4,7.6,12.6,17.1,16.9,26.8c3.6,8.1,6.6,16.4,11.1,24
					c0.7,1.1,1.4,2.2,2.1,3.3c2.4-0.7,4.7-1.5,7.1-2.1c4.8-1.4,10.6-1.3,15.2,0.5c-3.1-1.2-1.8-9.4-1.5-11.6
					c0.7-5.6,2.7-10.4,2.6-16c0-1,0-2.1,0-3.1c0-4.5-0.1-9.2-2.6-13.2c-1-1.6-2.5-2.9-4.3-3.2C510,1.1,508,2.1,506.6,3.6z"/>
			</g>
			<g>
				<path class="st9" d="M468.5-1.1c15.4,23.7,36.2,43.4,60.6,57.5c0.9,0.5,1.4-0.9,0.6-1.4c-24.2-14-44.8-33.5-60-57
					C469.2-2.8,467.9-1.9,468.5-1.1L468.5-1.1z"/>
			</g>
			<g>
				<path class="st9" d="M481.4,44.7c8.9-1.4,17.8-2.5,26.7-3.1c0.5,0,0.4-0.8-0.1-0.8c-8.9,0.7-17.8,1.7-26.7,3.1
					C480.8,44,480.9,44.8,481.4,44.7L481.4,44.7z"/>
			</g>
			<g>
				<path class="st9" d="M508.2,41.1c-0.3-10.6,1.9-21.1,4-31.5c0.1-0.5-0.7-0.6-0.8-0.1c-2.2,10.4-4.2,20.9-4,31.7
					C507.4,41.7,508.2,41.6,508.2,41.1L508.2,41.1z"/>
			</g>
			<g>
				<path class="st9" d="M469,29.7c8.3-0.2,16.5-0.3,24.8-0.3c0.5,0,0.4-0.8-0.1-0.8c-8.3,0-16.5,0.1-24.8,0.3
					C468.4,28.9,468.5,29.7,469,29.7L469,29.7z"/>
			</g>
			<g>
				<path class="st9" d="M494.1,28.8c-0.2-10,0.8-20,3-29.8c0.1-0.5-0.7-0.6-0.8-0.1c-2.2,9.9-3.2,19.9-3,30
					C493.4,29.4,494.1,29.3,494.1,28.8L494.1,28.8z"/>
			</g>
			<g>
				<path class="st9" d="M462,11.6c5.8,1.4,11.7,2.2,17.7,2.2c0.5,0,0.4-0.8-0.1-0.8c-5.9,0-11.8-0.7-17.5-2.2
					C461.6,10.7,461.5,11.5,462,11.6L462,11.6z"/>
			</g>
			<g>
				<path class="st9" d="M480.1,13.5c1.1-5.9,1.1-12,0.1-17.9c-0.1-0.5-0.8-0.4-0.8,0.1c1.1,5.9,1,11.9-0.1,17.7
					C479.3,13.9,480,14,480.1,13.5L480.1,13.5z"/>
			</g>
		</g>
		<g>
			<g>
				<path class="st12" d="M184.2,171.7c-0.7,0.2-1.5,0.2-2.2,0c-0.2,0-0.5-0.2-0.5-0.4c0-0.2,0.2-0.3,0.3-0.3c0.4-0.1,0.9-0.1,1.3,0
					c0.3,0.1,0.6,0.1,0.9,0.2"/>
			</g>
			<g>
				<path class="st12" d="M184,171.1c-0.7-0.4-1.3-1-1.4-1.7c0-0.1,0-0.3,0-0.4c0.1-0.1,0.2-0.1,0.4-0.1c0.3,0,0.5,0.3,0.7,0.5
					c0.4,0.5,0.7,1.1,0.9,1.7"/>
			</g>
			<g>
				<path class="st12" d="M190.2,161.2c-0.6,0-1.2-0.1-1.8-0.3c-0.3-0.1-0.6-0.3-0.7-0.5c0-0.1,0-0.2,0-0.2c0.1-0.2,0.3-0.2,0.5-0.1
					c0.7,0.2,1.4,0.4,2,0.8"/>
			</g>
			<g>
				<path class="st12" d="M190.2,160.2c-0.6-0.5-0.9-1.3-0.8-2.1c0-0.2,0.1-0.4,0.3-0.4c0.2,0,0.3,0.1,0.4,0.2
					c0.4,0.5,0.5,1.2,0.8,1.7"/>
			</g>
			<g>
				<path class="st12" d="M199.8,154c-0.8-0.3-1.5-1-2-1.8c-0.1-0.2-0.2-0.4,0-0.5c0.1-0.1,0.4-0.1,0.5,0c0.7,0.4,1.2,1,1.7,1.5"/>
			</g>
			<g>
				<path class="st12" d="M200.4,153.1c-0.4-0.5-0.5-1.2-0.6-1.8c0-0.3,0-0.6,0.1-0.9c0-0.1,0.1-0.2,0.2-0.3c0.2-0.1,0.3,0,0.4,0.1
					c0.1,0.1,0.2,0.3,0.2,0.4c0.2,0.8,0.2,1.7,0,2.6"/>
			</g>
			<g>
				<path class="st12" d="M210,166.8c-1-0.4-2-0.9-2.8-1.7c-0.1-0.1-0.2-0.2-0.2-0.3s0-0.3,0.1-0.3c0.1,0,0.2,0,0.2,0
					c0.8,0.2,1.4,0.7,2.1,1.1"/>
			</g>
			<g>
				<path class="st12" d="M209.7,165.3c-0.5-0.6-0.9-1.4-0.9-2.2c0-0.1,0-0.2,0.1-0.3c0.1-0.1,0.2-0.1,0.3,0s0.2,0.1,0.2,0.2
					c0.5,0.7,0.7,1.5,0.9,2.3"/>
			</g>
			<g>
				<path class="st12" d="M192.7,188.3c-0.8,0.1-1.5,0-2.3-0.2c-0.1,0-0.3-0.1-0.3-0.3c0-0.1,0.1-0.1,0.1-0.2
					c0.3-0.3,0.9-0.2,1.3-0.2c0.3,0.1,0.7,0.1,1,0.2"/>
			</g>
			<g>
				<path class="st12" d="M192.3,187.5c-0.5-0.3-1-0.8-1.2-1.4c-0.1-0.1-0.1-0.3-0.1-0.4c0.1-0.2,0.4-0.2,0.6-0.1
					c0.8,0.3,1.3,1,1.9,1.5"/>
			</g>
			<g>
				<path class="st12" d="M219.6,178.7c-0.6-0.1-1.2-0.4-1.6-0.9c-0.1-0.1-0.2-0.2-0.2-0.3c0-0.1,0-0.2,0.1-0.3
					c0.1-0.1,0.3-0.1,0.5,0c0.7,0.2,1.3,0.6,1.8,1.1"/>
			</g>
			<g>
				<path class="st12" d="M220.3,178c-0.4-0.5-0.6-1.2-0.6-1.8c0-0.2,0-0.3,0.1-0.5c0.1-0.1,0.2-0.2,0.4-0.2c0.3,0,0.4,0.3,0.5,0.5
					c0.2,0.5,0.3,1.1,0.4,1.7"/>
			</g>
			<g>
				<path class="st12" d="M231.9,189.6c-0.8-0.1-1.5-0.7-2.2-1.2c-0.2-0.2-0.4-0.3-0.4-0.6c0.2-0.1,0.4,0,0.6,0
					c0.7,0.3,1.3,0.7,1.8,1.2"/>
			</g>
			<g>
				<path class="st12" d="M232.1,188.6c-0.6-0.5-1-1.1-1.2-1.8c0-0.1,0-0.2,0-0.2c0.1-0.1,0.2-0.2,0.3-0.1c0.1,0.1,0.2,0.2,0.3,0.3
					c0.5,0.6,0.8,1.3,1,2.1"/>
			</g>
			<g>
				<path class="st12" d="M219.6,213.5c-0.6,0.2-1.2,0.2-1.8,0.2c-0.2,0-0.5-0.1-0.7-0.2c-0.2-0.1-0.3-0.4-0.2-0.6
					c0.4-0.3,1-0.2,1.5-0.1c0.3,0.1,0.7,0.1,1,0.2"/>
			</g>
			<g>
				<path class="st12" d="M219.5,212.5c-0.3-0.2-0.6-0.4-0.9-0.6c-0.3-0.2-0.5-0.5-0.6-0.9c0-0.2,0-0.3,0.1-0.4
					c0.1-0.1,0.4-0.1,0.6,0c0.3,0.2,0.5,0.4,0.7,0.7c0.3,0.3,0.6,0.7,0.8,1.1"/>
			</g>
			<g>
				<path class="st12" d="M207.2,202.8c-0.6,0.1-1.3,0.1-1.9,0.1c-0.3,0-0.7-0.1-0.9-0.4c0.1-0.3,0.5-0.4,0.8-0.4
					c0.6-0.1,1.2,0,1.8,0.1"/>
			</g>
			<g>
				<path class="st12" d="M206.9,201.7c-0.6-0.2-1.2-0.6-1.7-1c-0.2-0.1-0.3-0.3-0.3-0.5c0.4-0.1,0.8,0,1.2,0.2
					c0.6,0.3,1.1,0.8,1.6,1.2"/>
			</g>
			<g>
				<g>
					<path class="st6" d="M192,161.8c12.7,25.9,34.3,46.8,60.7,58.6c0.8,0.3,1.1-0.9,0.4-1.2c-26-11.6-47.4-32.3-59.9-58
						C192.8,160.5,191.6,161.1,192,161.8L192,161.8z"/>
				</g>
				<g>
					<path class="st6" d="M221.3,213.8c6.6,3.2,14.2,3.6,21.1,1.2c0.4-0.1,0.3-0.8-0.1-0.6c-6.7,2.4-14.1,2-20.6-1.1
						C221.3,213.1,221,213.6,221.3,213.8L221.3,213.8z"/>
				</g>
				<g>
					<path class="st6" d="M236.7,211.1c1.4-7,0.3-14.2-3.2-20.4c-0.2-0.4-0.8-0.1-0.6,0.3c3.3,6.1,4.5,13.1,3.1,19.9
						C236,211.3,236.6,211.5,236.7,211.1L236.7,211.1z"/>
				</g>
				<g>
					<path class="st6" d="M208.5,202c5.7,3,12.3,5,18.5,2.4c0.4-0.2,0.1-0.7-0.3-0.6c-6,2.4-12.4,0.4-17.9-2.4
						C208.5,201.3,208.1,201.8,208.5,202L208.5,202z"/>
				</g>
				<g>
					<path class="st6" d="M221.2,198.9c2-6.2,3.1-12.8,0.6-19c-0.2-0.4-0.7-0.1-0.6,0.3c2.4,6,1.3,12.5-0.6,18.5
						C220.5,199.1,221.1,199.3,221.2,198.9L221.2,198.9z"/>
				</g>
				<g>
					<path class="st6" d="M194.3,188.7c5.6,2.5,12.9,5.6,19,3.2c0.4-0.1,0.1-0.7-0.3-0.6c-5.9,2.3-13.1-0.8-18.5-3.3
						C194.1,187.9,193.9,188.5,194.3,188.7L194.3,188.7z"/>
				</g>
				<g>
					<path class="st6" d="M209.7,187.3c3.3-6.4,4-13.9,1.8-20.8c-0.1-0.4-0.7-0.3-0.6,0.1c2.1,6.7,1.5,14-1.7,20.3
						C208.9,187.3,209.5,187.6,209.7,187.3L209.7,187.3z"/>
				</g>
				<g>
					<path class="st6" d="M186,172c4.3,4.4,10.1,6.8,16.2,6.8c0.4,0,0.4-0.6,0-0.6c-5.9,0-11.6-2.3-15.7-6.6
						C186.2,171.3,185.7,171.7,186,172L186,172z"/>
				</g>
				<g>
					<path class="st6" d="M200.1,174.2c2.5-6.2,2.6-13.1,0.5-19.4c-0.1-0.4-0.8-0.3-0.6,0.1c2.1,6.3,1.9,13-0.5,19.1
						C199.3,174.4,199.9,174.6,200.1,174.2L200.1,174.2z"/>
				</g>
			</g>
			<g>
				<g>
					<g>
						<path class="st8" d="M189.4,174.5c2.4-3.8-3.5-7.6-5.9-3.8C181,174.6,187,178.3,189.4,174.5L189.4,174.5z"/>
					</g>
					<g>
						<path class="st8" d="M195.1,164.1c2.4-3.8-3.5-7.6-5.9-3.8C186.8,164.1,192.7,167.9,195.1,164.1L195.1,164.1z"/>
					</g>
					<g>
						<path class="st8" d="M203.9,157.6c2.4-3.8-3.5-7.6-5.9-3.8C195.6,157.7,201.5,161.5,203.9,157.6L203.9,157.6z"/>
					</g>
					<g>
						<path class="st8" d="M213.9,169.7c2.4-3.8-3.5-7.6-5.9-3.8C205.5,169.7,211.5,173.5,213.9,169.7L213.9,169.7z"/>
					</g>
					<g>
						<path class="st8" d="M198.3,190.7c2.4-3.8-3.5-7.6-5.9-3.8C189.9,190.7,195.8,194.5,198.3,190.7L198.3,190.7z"/>
					</g>
					<g>
						<path class="st8" d="M212.4,204.6c2.4-3.8-3.5-7.6-5.9-3.8C204,204.6,210,208.4,212.4,204.6L212.4,204.6z"/>
					</g>
					<g>
						<path class="st8" d="M224.6,182.7c2.4-3.8-3.5-7.6-5.9-3.8C216.2,182.7,222.1,186.5,224.6,182.7L224.6,182.7z"/>
					</g>
					<g>
						<path class="st8" d="M236.4,192.8c2.4-3.8-3.5-7.6-5.9-3.8C228,192.8,233.9,196.6,236.4,192.8L236.4,192.8z"/>
					</g>
					<g>
						<path class="st8" d="M225.1,215.7c2.4-3.8-3.5-7.6-5.9-3.8C216.7,215.8,222.6,219.6,225.1,215.7L225.1,215.7z"/>
					</g>
				</g>
			</g>
		</g>
		<g>
			<g>
				<path class="st12" d="M856.5,156.5c0.5-0.6,1.2-1,1.9-1.2c0.2-0.1,0.5-0.1,0.6,0.1c0.1,0.1,0,0.3-0.1,0.4
					c-0.3,0.3-0.7,0.5-1.1,0.7c-0.3,0.1-0.6,0.2-0.9,0.3"/>
			</g>
			<g>
				<path class="st12" d="M857,156.9c0.8,0,1.6,0.1,2.1,0.6c0.1,0.1,0.2,0.2,0.2,0.3c0,0.1-0.1,0.2-0.2,0.3c-0.3,0.1-0.6,0-0.9-0.1
					c-0.6-0.2-1.2-0.5-1.7-0.9"/>
			</g>
			<g>
				<path class="st12" d="M857.2,168.6c0.5-0.3,1.1-0.6,1.7-0.7c0.3-0.1,0.6-0.1,0.8,0.1c0.1,0.1,0.1,0.1,0.1,0.2
					c0,0.2-0.2,0.3-0.4,0.4c-0.7,0.3-1.4,0.4-2.1,0.4"/>
			</g>
			<g>
				<path class="st12" d="M857.7,169.4c0.8,0.1,1.5,0.6,1.8,1.3c0.1,0.2,0.1,0.4,0,0.5c-0.1,0.1-0.3,0.1-0.5,0.1
					c-0.6-0.2-1-0.7-1.6-1"/>
			</g>
			<g>
				<path class="st12" d="M853.1,179.8c0.9-0.2,1.8,0,2.6,0.4c0.2,0.1,0.3,0.2,0.3,0.4c0,0.2-0.3,0.3-0.4,0.3
					c-0.8,0.1-1.5-0.1-2.3-0.3"/>
			</g>
			<g>
				<path class="st12" d="M853.1,180.9c0.6,0.2,1.1,0.7,1.5,1.2c0.2,0.2,0.4,0.5,0.4,0.8c0,0.1,0,0.3-0.1,0.4
					c-0.1,0.1-0.3,0.2-0.4,0.1s-0.3-0.2-0.4-0.3c-0.6-0.6-1.1-1.3-1.4-2.2"/>
			</g>
			<g>
				<path class="st12" d="M837.6,174.7c1.1-0.2,2.2-0.4,3.2-0.1c0.1,0,0.2,0.1,0.3,0.1c0.1,0.1,0.1,0.2,0.1,0.3
					c0,0.1-0.1,0.1-0.2,0.1c-0.8,0.2-1.6,0.2-2.4,0.2"/>
			</g>
			<g>
				<path class="st12" d="M838.6,175.7c0.8,0.2,1.5,0.7,2,1.3c0.1,0.1,0.1,0.2,0.1,0.3c0,0.1-0.1,0.2-0.2,0.2c-0.1,0-0.2,0-0.3-0.1
					c-0.8-0.3-1.4-0.9-2-1.4"/>
			</g>
			<g>
				<path class="st12" d="M840.4,147.1c0.6-0.5,1.3-0.9,2-1.1c0.1,0,0.3-0.1,0.4,0.1c0,0.1,0,0.1,0,0.2c-0.1,0.4-0.6,0.7-1,0.9
					c-0.3,0.1-0.6,0.3-0.9,0.4"/>
			</g>
			<g>
				<path class="st12" d="M841.2,147.7c0.6,0,1.3,0.2,1.8,0.5c0.1,0.1,0.3,0.2,0.3,0.3c0,0.2-0.2,0.4-0.4,0.4
					c-0.8,0.2-1.6-0.2-2.5-0.2"/>
			</g>
			<g>
				<path class="st12" d="M823.1,169.9c0.6-0.2,1.2-0.3,1.8-0.1c0.1,0,0.2,0.1,0.3,0.1s0.2,0.2,0.1,0.3c0,0.2-0.2,0.3-0.4,0.3
					c-0.7,0.2-1.4,0.2-2.1,0.1"/>
			</g>
			<g>
				<path class="st12" d="M822.8,170.8c0.6,0.2,1.2,0.6,1.5,1.2c0.1,0.1,0.1,0.3,0.1,0.4c0,0.2-0.1,0.3-0.2,0.4
					c-0.2,0.1-0.5,0-0.7-0.1c-0.5-0.3-0.9-0.7-1.2-1.2"/>
			</g>
			<g>
				<path class="st12" d="M806.8,167.4c0.8-0.3,1.6-0.3,2.4-0.2c0.3,0,0.5,0.1,0.7,0.3c-0.1,0.2-0.3,0.2-0.5,0.3
					c-0.7,0.1-1.5,0.1-2.2-0.1"/>
			</g>
			<g>
				<path class="st12" d="M807.2,168.4c0.7,0.1,1.5,0.4,2,0.9c0.1,0.1,0.1,0.1,0.1,0.2c0,0.1-0.1,0.2-0.2,0.3c-0.1,0-0.3,0-0.4-0.1
					c-0.7-0.3-1.4-0.7-2-1.2"/>
			</g>
			<g>
				<path class="st12" d="M804.1,140.7c0.4-0.5,0.9-0.8,1.4-1.1c0.2-0.1,0.5-0.2,0.7-0.2c0.2,0,0.5,0.2,0.5,0.4
					c-0.2,0.5-0.8,0.7-1.2,0.9c-0.3,0.1-0.6,0.3-0.9,0.4"/>
			</g>
			<g>
				<path class="st12" d="M804.8,141.5c0.4,0,0.7-0.1,1.1,0c0.4,0.1,0.7,0.2,1,0.4c0.1,0.1,0.2,0.3,0.2,0.4c0,0.2-0.3,0.3-0.5,0.3
					c-0.3,0-0.7,0-1-0.1c-0.4-0.1-0.9-0.3-1.3-0.5"/>
			</g>
			<g>
				<path class="st12" d="M820.3,143c0.5-0.4,1-0.8,1.5-1.1c0.3-0.2,0.7-0.3,0.9-0.1c0,0.3-0.2,0.6-0.5,0.8c-0.5,0.4-1,0.7-1.6,0.9"
					/>
			</g>
			<g>
				<path class="st12" d="M821.2,143.7c0.7-0.2,1.4-0.2,2-0.1c0.2,0,0.4,0.1,0.5,0.3c-0.3,0.3-0.7,0.4-1.1,0.4
					c-0.7,0.1-1.3-0.1-2-0.2"/>
			</g>
			<g>
				<g>
					<path class="st6" d="M855.4,169c-24.7-14.9-54.3-20.6-82.8-16.2c-0.8,0.1-0.5,1.4,0.3,1.2c28.2-4.4,57.4,1.4,81.8,16.1
						C855.5,170.5,856.1,169.4,855.4,169L855.4,169z"/>
				</g>
				<g>
					<path class="st6" d="M802.5,141.4c-7.2,0.9-13.9,4.7-18.3,10.4c-0.2,0.3,0.2,0.8,0.5,0.4c4.4-5.6,10.8-9.4,17.9-10.3
						C802.9,141.9,802.9,141.3,802.5,141.4L802.5,141.4z"/>
				</g>
				<g>
					<path class="st6" d="M791.1,152c2.6,6.6,7.5,12,13.7,15.4c0.4,0.2,0.7-0.4,0.3-0.6c-6.1-3.3-10.9-8.6-13.4-15
						C791.5,151.4,790.9,151.6,791.1,152L791.1,152z"/>
				</g>
				<g>
					<path class="st6" d="M819.7,144.3c-6.4,0.6-13,2.5-16.9,8c-0.2,0.3,0.3,0.7,0.6,0.3c3.7-5.3,10.2-7.1,16.3-7.7
						C820.1,144.9,820.1,144.3,819.7,144.3L819.7,144.3z"/>
				</g>
				<g>
					<path class="st6" d="M810.7,153.8c1.7,6.3,4.4,12.4,9.8,16.3c0.3,0.2,0.7-0.3,0.3-0.6c-5.3-3.8-7.9-9.8-9.5-15.9
						C811.2,153.3,810.6,153.4,810.7,153.8L810.7,153.8z"/>
				</g>
				<g>
					<path class="st6" d="M838.8,147.8c-6.1,0.9-13.9,2.3-17.7,7.6c-0.2,0.3,0.3,0.6,0.6,0.3c3.7-5.1,11.5-6.4,17.4-7.3
						C839.4,148.3,839.2,147.7,838.8,147.8L838.8,147.8z"/>
				</g>
				<g>
					<path class="st6" d="M826.7,157.3c0.7,7.2,4.2,13.8,9.8,18.4c0.3,0.3,0.8-0.2,0.4-0.5c-5.4-4.5-8.9-11-9.6-18
						C827.3,156.9,826.7,156.9,826.7,157.3L826.7,157.3z"/>
				</g>
				<g>
					<path class="st6" d="M854.8,157.2c-5.9-1.4-12.2-0.2-17.3,3.1c-0.3,0.2,0,0.8,0.3,0.6c5-3.3,11-4.3,16.8-3
						C855.1,158,855.2,157.3,854.8,157.2L854.8,157.2z"/>
				</g>
				<g>
					<path class="st6" d="M841.9,163c1.3,6.5,4.9,12.4,10.1,16.6c0.3,0.3,0.8-0.2,0.4-0.5c-5.1-4.1-8.6-9.9-9.9-16.3
						C842.4,162.4,841.8,162.6,841.9,163L841.9,163z"/>
				</g>
			</g>
			<g>
				<g>
					<g>
						<path class="st8" d="M850.7,157c0,4.5,7.1,4.5,7,0C857.7,152.4,850.6,152.4,850.7,157L850.7,157z"/>
					</g>
					<g>
						<path class="st8" d="M851.5,168.8c0,4.5,7.1,4.5,7,0C858.5,164.3,851.5,164.3,851.5,168.8L851.5,168.8z"/>
					</g>
					<g>
						<path class="st8" d="M847.6,179c0,4.5,7.1,4.5,7,0C854.7,174.5,847.6,174.5,847.6,179L847.6,179z"/>
					</g>
					<g>
						<path class="st8" d="M832.7,174.3c0,4.5,7.1,4.5,7,0C839.7,169.8,832.7,169.8,832.7,174.3L832.7,174.3z"/>
					</g>
					<g>
						<path class="st8" d="M834.4,148.2c0,4.5,7.1,4.5,7,0C841.4,143.7,834.4,143.7,834.4,148.2L834.4,148.2z"/>
					</g>
					<g>
						<path class="st8" d="M815,144.2c0,4.5,7.1,4.5,7,0C822,139.7,815,139.7,815,144.2L815,144.2z"/>
					</g>
					<g>
						<path class="st8" d="M816.7,169.2c0,4.5,7.1,4.5,7,0C823.7,164.6,816.7,164.7,816.7,169.2L816.7,169.2z"/>
					</g>
					<g>
						<path class="st8" d="M801.3,167.2c0,4.5,7.1,4.5,7,0C808.3,162.6,801.3,162.6,801.3,167.2L801.3,167.2z"/>
					</g>
					<g>
						<path class="st8" d="M798.3,141.8c0,4.5,7.1,4.5,7,0S798.3,137.2,798.3,141.8L798.3,141.8z"/>
					</g>
				</g>
			</g>
		</g>
		<g>
			<g>
				<path class="st12" d="M1460.1,170.7c0.2,0.7,0.3,1.5,0.1,2.2c0,0.2-0.2,0.5-0.4,0.5c-0.2,0-0.3-0.1-0.3-0.3
					c-0.2-0.4-0.1-0.9,0-1.3c0.1-0.3,0.1-0.6,0.2-0.9"/>
			</g>
			<g>
				<path class="st12" d="M1459.4,171c-0.4,0.7-0.9,1.3-1.6,1.5c-0.1,0-0.3,0.1-0.4,0c-0.1-0.1-0.2-0.2-0.1-0.4
					c0-0.3,0.3-0.5,0.5-0.7c0.5-0.4,1-0.7,1.6-1"/>
			</g>
			<g>
				<path class="st12" d="M1449.2,165.3c0,0.6-0.1,1.2-0.2,1.8c-0.1,0.3-0.2,0.6-0.5,0.7c-0.1,0-0.2,0-0.2,0
					c-0.2-0.1-0.2-0.3-0.1-0.5c0.1-0.7,0.4-1.4,0.7-2"/>
			</g>
			<g>
				<path class="st12" d="M1448.3,165.3c-0.5,0.6-1.3,1-2,0.9c-0.2,0-0.4-0.1-0.4-0.3c0-0.2,0.1-0.3,0.2-0.4
					c0.4-0.4,1.1-0.5,1.7-0.9"/>
			</g>
			<g>
				<path class="st12" d="M1441.6,156.1c-0.3,0.8-0.9,1.6-1.7,2c-0.2,0.1-0.4,0.2-0.5,0.1c-0.1-0.1-0.1-0.3,0-0.5
					c0.3-0.7,0.9-1.3,1.4-1.8"/>
			</g>
			<g>
				<path class="st12" d="M1440.6,155.6c-0.5,0.4-1.1,0.6-1.8,0.7c-0.3,0-0.6,0.1-0.9,0c-0.1,0-0.2-0.1-0.3-0.2
					c-0.1-0.1,0-0.3,0.1-0.4c0.1-0.1,0.3-0.2,0.4-0.2c0.8-0.3,1.7-0.3,2.6-0.1"/>
			</g>
			<g>
				<path class="st12" d="M1453.7,145.3c-0.4,1-0.8,2.1-1.5,2.9c-0.1,0.1-0.2,0.2-0.3,0.2c-0.1,0-0.3,0-0.3-0.1c0-0.1,0-0.2,0-0.2
					c0.2-0.8,0.6-1.5,1-2.2"/>
			</g>
			<g>
				<path class="st12" d="M1452.3,145.6c-0.6,0.6-1.3,0.9-2.1,1c-0.1,0-0.2,0-0.3,0c-0.1-0.1-0.1-0.2,0-0.3c0-0.1,0.1-0.2,0.2-0.2
					c0.7-0.5,1.4-0.8,2.2-1.1"/>
			</g>
			<g>
				<path class="st12" d="M1476.2,161.4c0.1,0.8,0.1,1.5,0,2.3c0,0.1-0.1,0.3-0.3,0.3c-0.1,0-0.1,0-0.2-0.1
					c-0.3-0.3-0.3-0.9-0.2-1.3c0-0.3,0.1-0.7,0.1-1"/>
			</g>
			<g>
				<path class="st12" d="M1475.4,161.8c-0.3,0.5-0.8,1-1.3,1.3c-0.1,0.1-0.3,0.1-0.4,0.1c-0.2-0.1-0.2-0.4-0.1-0.6
					c0.2-0.8,1-1.3,1.4-2"/>
			</g>
			<g>
				<path class="st12" d="M1465.1,135c-0.1,0.6-0.4,1.2-0.8,1.7c-0.1,0.1-0.2,0.2-0.3,0.2c-0.1,0-0.2,0-0.3,0
					c-0.1-0.1-0.1-0.3-0.1-0.5c0.2-0.7,0.5-1.3,1-1.9"/>
			</g>
			<g>
				<path class="st12" d="M1464.5,134.3c-0.5,0.4-1.1,0.7-1.8,0.7c-0.2,0-0.3,0-0.5-0.1c-0.1-0.1-0.3-0.2-0.3-0.4
					c0-0.3,0.3-0.5,0.5-0.6c0.5-0.2,1.1-0.4,1.7-0.5"/>
			</g>
			<g>
				<path class="st12" d="M1475.4,122.2c-0.1,0.8-0.6,1.5-1.1,2.2c-0.1,0.2-0.3,0.4-0.6,0.5c-0.1-0.2-0.1-0.4,0-0.6
					c0.3-0.7,0.6-1.3,1.1-1.8"/>
			</g>
			<g>
				<path class="st12" d="M1474.3,122c-0.4,0.6-1.1,1.1-1.8,1.3c-0.1,0-0.2,0.1-0.2,0c-0.1,0-0.2-0.2-0.1-0.3s0.1-0.2,0.3-0.3
					c0.6-0.5,1.3-0.9,2-1.1"/>
			</g>
			<g>
				<path class="st12" d="M1499.9,133.1c0.2,0.6,0.3,1.2,0.3,1.8c0,0.2-0.1,0.5-0.2,0.7s-0.4,0.3-0.6,0.3c-0.3-0.4-0.2-1-0.2-1.5
					c0-0.3,0.1-0.7,0.1-1"/>
			</g>
			<g>
				<path class="st12" d="M1498.9,133.3c-0.2,0.3-0.3,0.7-0.5,1c-0.2,0.3-0.5,0.5-0.9,0.6c-0.2,0-0.3,0-0.4-0.1
					c-0.1-0.1-0.1-0.4,0-0.6c0.1-0.3,0.4-0.6,0.6-0.8c0.3-0.3,0.7-0.6,1.1-0.8"/>
			</g>
			<g>
				<path class="st12" d="M1489.8,146.1c0.1,0.6,0.2,1.3,0.2,1.9c0,0.3-0.1,0.7-0.4,0.9c-0.3-0.1-0.4-0.5-0.4-0.8
					c-0.1-0.6-0.1-1.2,0.1-1.8"/>
			</g>
			<g>
				<path class="st12" d="M1488.8,146.5c-0.2,0.7-0.5,1.3-0.9,1.8c-0.1,0.2-0.3,0.3-0.5,0.3c-0.1-0.4,0-0.8,0.2-1.2
					c0.3-0.6,0.7-1.1,1.2-1.6"/>
			</g>
			<g>
				<g>
					<path class="st6" d="M1449.8,163.5c25.2-14,44.9-36.7,55.3-63.7c0.3-0.8-0.9-1.1-1.2-0.3c-10.3,26.6-29.8,49-54.7,62.9
						C1448.4,162.8,1449.1,163.9,1449.8,163.5L1449.8,163.5z"/>
				</g>
				<g>
					<path class="st6" d="M1500.1,131.5c2.8-6.7,2.9-14.3,0.1-21.1c-0.2-0.4-0.8-0.2-0.6,0.2c2.7,6.6,2.7,14,0,20.6
						C1499.4,131.5,1500,131.8,1500.1,131.5L1500.1,131.5z"/>
				</g>
				<g>
					<path class="st6" d="M1496.6,116.2c-7-1-14.2,0.5-20.2,4.2c-0.4,0.2,0,0.8,0.3,0.6c5.9-3.6,12.8-5.1,19.7-4.2
						C1496.8,116.9,1497,116.3,1496.6,116.2L1496.6,116.2z"/>
				</g>
				<g>
					<path class="st6" d="M1489,144.9c2.7-5.9,4.3-12.5,1.5-18.6c-0.2-0.4-0.7,0-0.6,0.3c2.8,5.9,1.1,12.3-1.5,18
						C1488.3,144.9,1488.8,145.3,1489,144.9L1489,144.9z"/>
				</g>
				<g>
					<path class="st6" d="M1485.2,132.3c-6.3-1.6-12.9-2.4-19,0.4c-0.4,0.2,0,0.7,0.3,0.6c5.9-2.7,12.4-1.9,18.5-0.3
						C1485.5,133,1485.6,132.4,1485.2,132.3L1485.2,132.3z"/>
				</g>
				<g>
					<path class="st6" d="M1476.5,159.7c2.2-5.7,4.9-13.2,2.2-19.2c-0.2-0.4-0.7-0.1-0.6,0.3c2.6,5.8-0.1,13.2-2.3,18.7
						C1475.7,160,1476.3,160.1,1476.5,159.7L1476.5,159.7z"/>
				</g>
				<g>
					<path class="st6" d="M1474.2,144.5c-6.6-3-14.1-3.2-20.8-0.7c-0.4,0.1-0.2,0.8,0.2,0.6c6.6-2.4,13.9-2.2,20.4,0.7
						C1474.3,145.2,1474.6,144.7,1474.2,144.5L1474.2,144.5z"/>
				</g>
				<g>
					<path class="st6" d="M1460.2,168.9c4.1-4.5,6.3-10.4,5.9-16.5c0-0.4-0.7-0.4-0.6,0c0.3,5.9-1.7,11.7-5.7,16
						C1459.5,168.7,1460,169.2,1460.2,168.9L1460.2,168.9z"/>
				</g>
				<g>
					<path class="st6" d="M1461.7,154.8c-6.3-2.1-13.2-2-19.4,0.5c-0.4,0.1-0.2,0.8,0.2,0.6c6.1-2.4,12.9-2.6,19.1-0.5
						C1462,155.5,1462.1,154.9,1461.7,154.8L1461.7,154.8z"/>
				</g>
			</g>
			<g>
				<g>
					<g>
						<path class="st8" d="M1462.6,165.4c-3.9-2.2-7.4,3.9-3.5,6.1C1463,173.8,1466.5,167.6,1462.6,165.4L1462.6,165.4z"/>
					</g>
					<g>
						<path class="st8" d="M1451.9,160.2c-3.9-2.2-7.4,3.9-3.5,6.1C1452.3,168.6,1455.8,162.5,1451.9,160.2L1451.9,160.2z"/>
					</g>
					<g>
						<path class="st8" d="M1444.9,151.8c-3.9-2.2-7.4,3.9-3.5,6.1C1445.4,160.1,1448.9,154,1444.9,151.8L1444.9,151.8z"/>
					</g>
					<g>
						<path class="st8" d="M1456.5,141.2c-3.9-2.2-7.4,3.9-3.5,6.1C1456.9,149.5,1460.4,143.4,1456.5,141.2L1456.5,141.2z"/>
					</g>
					<g>
						<path class="st8" d="M1478.2,155.7c-3.9-2.2-7.4,3.9-3.5,6.1S1482.2,157.9,1478.2,155.7L1478.2,155.7z"/>
					</g>
					<g>
						<path class="st8" d="M1491.4,140.8c-3.9-2.2-7.4,3.9-3.5,6.1C1491.9,149.2,1495.3,143.1,1491.4,140.8L1491.4,140.8z"/>
					</g>
					<g>
						<path class="st8" d="M1468.9,129.9c-3.9-2.2-7.4,3.9-3.5,6.1C1469.4,138.2,1472.8,132.1,1468.9,129.9L1468.9,129.9z"/>
					</g>
					<g>
						<path class="st8" d="M1478.4,117.5c-3.9-2.2-7.4,3.9-3.5,6.1C1478.8,125.9,1482.3,119.8,1478.4,117.5L1478.4,117.5z"/>
					</g>
					<g>
						<path class="st8" d="M1501.9,127.6c-3.9-2.2-7.4,3.9-3.5,6.1C1502.3,136,1505.8,129.8,1501.9,127.6L1501.9,127.6z"/>
					</g>
				</g>
			</g>
		</g>
		<g>
			<g>
				<g>
					<g>
						<path class="st15" d="M549.4,105.8c-5.3-1.6,45-59.5,69-45.9c10.9,6.2-0.4,16.6-0.1,16.6c-1.8-4.7,74.9-2.3,86.6,23.7
							c10.2,19.1-21.6,7.6-21.3,8.7c2.9-4.6,40.5,32,28.1,56.5c-2.2,10.8-46-39.9-51.3-31.1c0.2-0.2,9.9,12.4,6,21.8
							c-4.5,8.8-20.4-13.1-46.6-34.5c0.7-0.1,10.4,19,4.8,20.9C623.2,141.7,557.4,98.6,549.4,105.8z"/>
					</g>
				</g>
				<path class="st16" d="M624.6,142.6c5.5-1.9-4.1-21-4.8-20.9c26.2,21.4,42.1,43.2,46.6,34.5c3.9-9.4-5.8-22-6-21.8
					c5.3-8.9,49,41.9,51.3,31.1c-46.7-110.6-167.2-67.3-162.2-59.6C557.4,98.6,623.2,141.7,624.6,142.6z"/>
			</g>
			<g>
				<path class="st17" d="M711.6,165.3c-13.6-29.2-37-55.4-67.5-67.1c-9-3.6-18.6-5.3-28.1-6.2c-1,0-6.5-0.2-7.6-0.2
					c-4,0.1-8.2,0.2-12.2,0.7c0,0-6.1,0.7-6.1,0.7c-2,0.4-4,0.8-6,1.2c-11.9,2.3-23.6,6.6-34.8,11.3c3.7-1.6,7.5-3.3,11.2-4.8
					c3.5-1.2,8.1-3.1,11.6-4c5.7-1.7,12-3.2,17.9-4.3c2.2-0.2,7-1,9.1-1.2c3-0.1,6.2-0.4,9.2-0.4c0,0,6.1,0.2,6.1,0.2
					c0.8,0,2.3,0.1,3.1,0.2C660.3,94.3,695.3,127.3,711.6,165.3L711.6,165.3z"/>
			</g>
		</g>
		<g>
			<g>
				<g>
					<g>
						<path class="st15" d="M1641.1,196.6c-2.6,3.8-30.5-54.4-14.4-69.8c7.3-6.9,11.7,5.3,11.8,5.1c-3.9,0.1,18.3-61.4,40-63
							c16.4-2.5-0.3,19.8,0.5,19.9c-2.5-3.7,33.7-23.1,47.9-5.6c7.1,5.1-40.8,25.2-35.8,32.2c-0.1-0.2,11.5-4.3,17.2,1.7
							c5.1,6.3-14.8,12.6-37,27.3c0.1-0.6,16.3-2.7,16.3,2.4C1686.4,147.7,1638.1,188,1641.1,196.6z"/>
					</g>
				</g>
				<path class="st16" d="M1687.4,146.9c0.1-5.1-16.1-3-16.3-2.4c22.2-14.8,42.1-21.1,37-27.3c-5.7-6-17.3-1.9-17.2-1.7
					c-4.9-7,43-27.1,35.8-32.2c-91.4,4.4-92.6,115.1-85.8,113.4C1638.1,188,1686.4,147.7,1687.4,146.9z"/>
			</g>
			<g>
				<path class="st17" d="M1726.9,83.3c-26.3,2.3-52.5,15.2-67.8,37.1c-11.7,16.3-16.7,36.4-17.9,56.2c-0.4,5.9-0.3,14.1-0.1,20
					c-0.5-7.9-0.8-17.2-0.1-25c1.3-18.3,6.6-36.7,17.2-51.8C1673.7,97.8,1700.2,84.8,1726.9,83.3L1726.9,83.3z"/>
			</g>
		</g>
		<g>
			<g>
				<g>
					<g>
						<path class="st15" d="M36.2,305.8c-5.5,0.8,35.7,65.5,61.4,55.6c11.7-4.5,2.1-16.4,2.3-16.4c-2.5,4.4,73.7,13.4,89.1-10.6
							c13-17.4-20.3-10.7-19.8-11.7c2.2,5,44.8-25.7,36.1-51.8c-0.6-11.1-51.4,32.7-55.3,23.1c0.2,0.2,11.6-10.8,9.2-20.7
							c-3.1-9.3-22.1,9.9-51.2,27.2c0.7,0.2,13.1-17.3,7.9-20C114.5,281.2,42.9,314.1,36.2,305.8z"/>
					</g>
				</g>
				<path class="st16" d="M115.9,280.5c5.2,2.7-7.2,20.2-7.9,20c29.1-17.2,48.1-36.5,51.2-27.2c2.4,9.9-9,20.9-9.2,20.7
					c3.9,9.6,54.7-34.2,55.3-23.1c-62.6,102.4-175.3,41.8-169.2,34.9C42.9,314.1,114.5,281.2,115.9,280.5z"/>
			</g>
			<g>
				<path class="st17" d="M205.4,270.9c-21.8,35.2-61.2,62.7-104,59.3c0,0-1.5-0.1-1.5-0.1l-1.5-0.2l-6.1-0.7
					c-2.9-0.5-6.1-1.2-9-1.8c-2-0.5-6.8-2-8.8-2.5c-5.6-1.9-11.7-4.3-17-6.9c-3.3-1.5-7.6-4-10.8-5.7c-3.5-2.1-6.9-4.3-10.4-6.5
					c3.5,2.1,7,4.2,10.5,6.2c7.1,3.7,14.6,7.5,22.2,10.1c1.9,0.7,3.8,1.4,5.7,2l5.9,1.6c3.8,1.1,8,1.8,11.9,2.5
					c1.1,0.1,6.6,0.8,7.6,0.9c9.6,0.5,19.3,0.2,28.7-2C160.7,320.2,187.6,297.8,205.4,270.9L205.4,270.9z"/>
			</g>
		</g>
		<g>
			<g>
				<g>
					<g>
						<path class="st15" d="M2026.3-26.1c9.2-5.3-109-90.2-147.4-54.8c-17.4,16.1,7.9,30.4,7.4,30.6c1.3-9.5-139.3,28.3-149.5,81.4
							c-10.6,39.8,43.3,4.6,43.1,6.8c-7.3-7.2-60.8,76.8-27.2,116.6c8.8,19,67.5-93.7,81.2-79.6c-0.4-0.3-12.9,27.1-1.6,42.8
							c12.1,14.2,32-33.1,71.1-83.9c-1.4,0.1-10.9,39.6,0.2,40.8C1905.7,72.3,2008.6-35.9,2026.3-26.1z"/>
					</g>
				</g>
				<path class="st16" d="M1903.6,74.6c-11.1-1.2-1.6-40.6-0.2-40.8c-39.1,50.8-59,98.1-71.1,83.9c-11.2-15.7,1.2-43.1,1.6-42.8
					c-13.6-14.1-72.3,98.7-81.2,79.6C1790.9-70,2032.2-42.4,2026.3-26.1C2008.6-35.9,1905.7,72.3,1903.6,74.6z"/>
			</g>
			<g>
				<path class="st17" d="M1752.8,154.5c11.4-60.3,43.2-119.4,94.6-154.5c26.5-18,57.7-28.3,89.5-31.7c14.3-1.4,29.1-1.7,43.5-0.8
					c15.4,1,30.8,3.2,45.9,6.3c-15.2-3-30.5-5-46-5.8c-46-3-93.9,6.3-132.4,32.8C1796.4,35.6,1764.9,94.5,1752.8,154.5L1752.8,154.5
					z"/>
			</g>
		</g>
		<g>
			<g>
				<g>
					<g>
						<g>
							<path class="st18" d="M371.2-33.4c5.1-1.8-47.3-55.3-69.7-40.9c-10.2,6.5,1.3,16,1.1,16.1c1.5-4.7-72.9,1.7-82.7,27.5
								c-8.8,19.1,21.5,6.2,21.2,7.3C238-27.6,203.7,9.9,217.2,33c2.8,10.4,42.3-41.1,48-32.8c-0.2-0.2-8.9,12.5-4.5,21.4
								c4.9,8.3,19.1-13.8,43.2-35.9c-0.7-0.1-8.9,19-3.4,20.6C301.7,5.4,363.1-39.9,371.2-33.4z"/>
						</g>
						<path class="st18" d="M300.4,6.3c-5.5-1.6,2.7-20.6,3.4-20.6c-24.2,22.1-38.4,44.1-43.2,35.9c-4.3-8.9,4.3-21.6,4.5-21.4
							c-5.7-8.3-45.1,43.2-48,32.8c38.8-109.7,158.4-74,154-66.3C363.1-39.9,301.7,5.4,300.4,6.3z"/>
					</g>
					<path class="st18" d="M217.2,33c24.1-63,91.7-92.3,154-66.3C308.1-64.8,237.9-34.2,217.2,33z"/>
				</g>
			</g>
			<g>
				<g>
					<g>
						<g>
							<path class="st19" d="M382.4-17.8c5.1-1.8-47.3-55.3-69.7-40.9c-10.2,6.5,1.3,16,1.1,16.1c1.5-4.7-72.9,1.7-82.7,27.5
								c-8.8,19.1,21.5,6.2,21.2,7.3c-3.1-4.3-37.4,33.2-23.9,56.3c2.8,10.4,42.3-41.1,48-32.8c-0.2-0.2-8.9,12.5-4.5,21.4
								c4.9,8.3,19.1-13.8,43.2-35.9c-0.7-0.1-8.9,19-3.4,20.6C312.9,20.9,374.3-24.3,382.4-17.8z"/>
						</g>
					</g>
					<path class="st20" d="M311.6,21.9c-5.5-1.6,2.7-20.6,3.4-20.6c-24.2,22.1-38.4,44.1-43.2,35.9c-4.3-8.9,4.3-21.6,4.5-21.4
						c-5.7-8.3-45.1,43.2-48,32.8c38.8-109.7,158.4-74,154-66.3C374.3-24.3,312.9,20.9,311.6,21.9z"/>
				</g>
				<g>
					<path class="st17" d="M228.4,48.5c15.8-43.5,53.8-78.9,102-77.6c0,0,3,0,3,0c1.9,0.1,6.9,0.5,8.9,0.7c1.9,0.3,7,1,8.8,1.3
						c2.1,0.4,6.6,1.5,8.7,1.9c3.4,0.7,8,2.4,11.4,3.3c3.7,1.3,7.4,2.7,11.1,4.1c-5.4-1.9-11.4-4-16.9-5.4
						c-4.4-1.3-9.9-2.4-14.4-3.3c-1.8-0.3-6.9-1-8.8-1.2c-17.6-1.6-35.8,0.2-52,7.6C261.1-7.3,239.9,19.4,228.4,48.5L228.4,48.5z"/>
				</g>
			</g>
		</g>
		<g>
			<g>
				<g>
					<g>
						<g>
							<path class="st18" d="M681.3,200.3c-5.2-1.5,5.5,72.5,32.2,74.2c12.1,0.7,8.4-13.7,8.6-13.6c-4,2.9,59.9,41.6,83,26.5
								c18.4-10.2-13.7-17.7-12.8-18.4c-0.1,5.3,49.8-4.7,52.5-31.4c3.9-10-58.4,8.3-58.1-1.8c0.1,0.3,14.5-4.9,16.3-14.6
								c0.9-9.5-23.5-0.1-56.1,3.5c0.5,0.5,18.4-10,14.9-14.6C760.3,210,684,210.4,681.3,200.3z"/>
						</g>
						<path class="st18" d="M761.8,210c3.5,4.5-14.4,15-14.9,14.6c32.5-3.6,57-13,56.1-3.5c-1.8,9.8-16.3,14.9-16.3,14.6
							c-0.3,10.1,61.9-8.2,58.1,1.8c-96,65.7-171.5-33.7-163.5-37.3C684,210.4,760.3,210,761.8,210z"/>
					</g>
					<path class="st18" d="M844.8,237.6c-56.7,36.6-128.5,20.5-163.5-37.3C713.7,262.9,788.4,279.6,844.8,237.6z"/>
				</g>
			</g>
			<g>
				<g>
					<g>
						<g>
							<path class="st19" d="M681.4,181.1c-5.2-1.5,5.5,72.5,32.2,74.2c12.1,0.7,8.4-13.7,8.6-13.6c-4,2.9,59.9,41.6,83,26.5
								c18.4-10.2-13.7-17.7-12.8-18.4c-0.1,5.3,49.8-4.7,52.5-31.4c3.9-10-58.4,8.3-58.1-1.8c0.1,0.3,14.5-4.9,16.3-14.6
								c0.9-9.5-23.5-0.1-56.1,3.5c0.5,0.5,18.4-10,14.9-14.6C760.4,190.9,684.1,191.2,681.4,181.1z"/>
						</g>
					</g>
					<path class="st20" d="M762,190.9c3.5,4.5-14.4,15-14.9,14.6c32.5-3.6,57-13,56.1-3.5c-1.8,9.8-16.3,14.9-16.3,14.6
						c-0.3,10.1,61.9-8.2,58.1,1.8c-96,65.7-171.5-33.7-163.5-37.3C684.1,191.2,760.4,190.9,762,190.9z"/>
				</g>
				<g>
					<path class="st17" d="M844.9,218.4c-38.4,25.8-90,32-128.2,2.5c0,0-2.4-1.8-2.4-1.8c-1.5-1.2-5.3-4.5-6.8-5.8
						c-1.4-1.3-5-5-6.3-6.3c-1.5-1.5-4.5-5.1-5.9-6.7c-2.3-2.6-5.1-6.6-7.3-9.4c-2.2-3.3-4.4-6.6-6.6-9.9c3.2,4.7,6.8,10,10.5,14.4
						c2.8,3.7,6.6,7.8,9.7,11.2c1.3,1.3,5,4.8,6.4,6.2c1.5,1.3,5.3,4.5,6.8,5.7c11.8,8.9,25.2,15.9,39.7,18.9
						C785.5,244.2,818.4,235.1,844.9,218.4L844.9,218.4z"/>
				</g>
			</g>
		</g>
		<g>
			<g>
				<g>
					<g>
						<g>
							<path class="st18" d="M1577,271.4c3.7,2.4,12.2-57.8-8.1-65.1c-9.2-3.3-9.7,8.8-9.8,8.7c3.8-1.4-37.1-46.1-58.6-39.6
								c-16.7,3.8,6.6,16.9,5.8,17.3c1.2-4.1-39.9-7.7-48.1,12.4c-5.3,6.9,47.4,6.9,44.8,14.7c0-0.2-12.4,0.5-16.1,7.7
								c-2.9,7.2,18.3,5.5,44.5,10.1c-0.3-0.5-16.6,3.6-14.9,7.9C1517.7,245.8,1577.2,262.9,1577,271.4z"/>
						</g>
						<path class="st18" d="M1516.4,245.4c-1.7-4.3,14.6-8.4,14.9-7.9c-26.2-4.6-47.4-2.9-44.5-10.1c3.6-7.2,16.1-7.9,16.1-7.7
							c2.6-7.8-50.1-7.7-44.8-14.7c89.8-29.2,126,65.4,118.8,66.4C1577.2,262.9,1517.7,245.8,1516.4,245.4z"/>
					</g>
					<path class="st18" d="M1458.1,205c52.5-15.6,104.8,13.4,118.8,66.4C1566,215.2,1511.7,185.1,1458.1,205z"/>
				</g>
			</g>
			<g>
				<g>
					<g>
						<g>
							<path class="st19" d="M1572.5,286.3c3.7,2.4,12.2-57.8-8.1-65.1c-9.2-3.3-9.7,8.8-9.8,8.7c3.8-1.4-37.1-46.1-58.6-39.6
								c-16.7,3.8,6.6,16.9,5.8,17.3c1.2-4.1-39.9-7.7-48.1,12.4c-5.3,6.9,47.4,6.9,44.8,14.7c0-0.2-12.4,0.5-16.1,7.7
								c-2.9,7.2,18.3,5.5,44.5,10.1c-0.3-0.5-16.6,3.6-14.9,7.9C1513.2,260.7,1572.7,277.8,1572.5,286.3z"/>
						</g>
					</g>
					<path class="st20" d="M1512,260.3c-1.7-4.3,14.6-8.4,14.9-7.9c-26.2-4.6-47.4-2.9-44.5-10.1c3.6-7.2,16.1-7.9,16.1-7.7
						c2.6-7.8-50.1-7.7-44.8-14.7c89.8-29.2,126,65.4,118.8,66.4C1572.7,277.8,1513.2,260.7,1512,260.3z"/>
				</g>
				<g>
					<path class="st17" d="M1453.7,219.9c30.3-9.7,67.1-6.4,90.8,16.5c4.7,4.4,8.9,9.4,12.5,14.8c0,0,2.6,4.1,2.6,4.1
						c1.3,2.4,3.5,6,4.5,8.5c3.5,7.1,6.1,15,8.4,22.6c-2-6-4.1-12.3-6.8-18c-1.2-2.5-2.9-6.2-4.3-8.6c-7.7-13.9-18.9-26.3-33-33.9
						C1505.7,213.5,1478.1,213,1453.7,219.9L1453.7,219.9z"/>
				</g>
			</g>
		</g>
		<g>
			<path class="st20" d="M1405.5,0.6c0.8,0.3,14.9,56.8-5.9,32.4c0,0-4.1,29.2-12.5,32.2c-8.4,3-7.3-11-7.3-11
				c-29.8,39.5-41.7,27.1-15.8-14.5c-22,11.2-16.1-8.5,11-19.6C1331.8,20.8,1405.9-0.4,1405.5,0.6z"/>
			<path class="st19" d="M1362,18c0.2,3.3,13,2.1,13,2.1c-27.1,11.1-33,30.9-11,19.6c0,0-22.7,38.8-12,38.8
				c20.7-37.6,53.4-77.9,53.4-77.9S1361.6,11.1,1362,18z"/>
			<g>
				<path class="st17" d="M1352.1,78.6c15.4-27.5,32.8-54.1,53.4-77.9C1385.7,25.1,1368.4,51.6,1352.1,78.6L1352.1,78.6z"/>
			</g>
		</g>
		<g>
			<path class="st20" d="M944.1,554.9c-0.3,0.6-43.7,11.5-25-4.5c0,0-22.5-3.2-24.8-9.6s8.5-5.7,8.5-5.7
				c-30.5-23-20.9-32.1,11.2-12.2c-8.7-17,6.6-12.4,15.1,8.5C928.6,498.1,944.9,555.3,944.1,554.9z"/>
			<path class="st19" d="M930.7,521.4c-2.5,0.2-1.7,10-1.7,10c-8.6-20.9-23.8-25.4-15.1-8.5c0,0-29.9-17.5-29.9-9.2
				c28.9,15.9,60,41.2,60,41.2S936,521.1,930.7,521.4z"/>
			<g>
				<path class="st17" d="M884.1,513.8c21.2,11.8,41.7,25.2,60,41.2C925.2,539.7,904.8,526.4,884.1,513.8L884.1,513.8z"/>
			</g>
		</g>
		<g>
			<path class="st20" d="M338.2,350.9c0.3-0.6,43.7-11.5,25,4.5c0,0,22.5,3.2,24.8,9.6s-8.5,5.7-8.5,5.7
				c30.5,23,20.9,32.1-11.2,12.2c8.7,17-6.6,12.4-15.1-8.5C353.7,407.7,337.4,350.5,338.2,350.9z"/>
			<path class="st19" d="M351.5,384.4c2.5-0.2,1.7-10,1.7-10c8.6,20.9,23.8,25.4,15.1,8.5c0,0,29.9,17.5,29.9,9.2
				c-28.9-15.9-60-41.2-60-41.2S346.2,384.7,351.5,384.4z"/>
			<g>
				<path class="st17" d="M398.2,392c-21.2-11.8-41.7-25.2-60-41.2C357.1,366.1,377.5,379.4,398.2,392L398.2,392z"/>
			</g>
		</g>
		<ellipse class="st19" cx="257.8" cy="167.4" rx="16.2" ry="5.1"/>
		<ellipse class="st19" cx="754.1" cy="140.8" rx="16.2" ry="5.1"/>
		<ellipse class="st19" cx="1084" cy="258.3" rx="16.2" ry="5.1"/>
		<ellipse class="st19" cx="1259.7" cy="54" rx="16.2" ry="5.1"/>
		<ellipse class="st19" cx="1519.1" cy="308.3" rx="16.2" ry="5.1"/>
		<ellipse class="st19" cx="1590.3" cy="97.7" rx="16.2" ry="5.1"/>
		<ellipse class="st19" cx="1784.1" cy="214.1" rx="16.2" ry="5.1"/>
		<ellipse class="st19" cx="1864.5" cy="386.4" rx="16.2" ry="5.1"/>
		<ellipse class="st19" cx="395.7" cy="54" rx="16.2" ry="5.1"/>
		<ellipse class="st19" cx="147.5" cy="234.8" rx="16.2" ry="5.1"/>
		<ellipse class="st19" cx="17" cy="268" rx="9.7" ry="3.1"/>
		<ellipse class="st19" cx="133" cy="124.3" rx="9.7" ry="3.1"/>
		<ellipse class="st19" cx="452.7" cy="215.2" rx="9.7" ry="3.1"/>
		<ellipse class="st19" cx="510.9" cy="108" rx="9.7" ry="3.1"/>
		<ellipse class="st19" cx="749.9" cy="69.7" rx="9.7" ry="3.1"/>
		<ellipse class="st19" cx="883.9" cy="269.6" rx="9.7" ry="3.1"/>
		<ellipse class="st19" cx="1008" cy="-2.3" rx="9.7" ry="3.1"/>
		<ellipse class="st19" cx="1119.8" cy="149.3" rx="9.7" ry="3.1"/>
		<ellipse class="st19" cx="1279.2" cy="275" rx="9.7" ry="3.1"/>
		<ellipse class="st19" cx="1470.7" cy="25.3" rx="9.7" ry="3.1"/>
		<ellipse class="st19" cx="1666.7" cy="305.6" rx="9.7" ry="3.1"/>
	</g>
	<g style="clip-path:url(#SVGID_00000004545989165471902800000003148597984601138314_);">
		<path id="XMLID_83_" class="st21" d="M1177.9,1040.2C799.5,838.6,728.5,1001.3,371,890.7C76.7,747.4,3,816.8-284.8,821.1
			l-50.4,121.2c0,0,343.8,292.2,386.8,299.2c43,7,901.5,357.2,901.5,357.2C977.1,1468.6,1119.5,1161.5,1177.9,1040.2z"/>
		<path class="st22" d="M767.2,1058.2c-8.8-6.8-18.2-13.3-29-15.8c-10.8-2.5-23.5-0.1-31.2,8.5c-1.3-2.6-5.5-3.5-8.3-3
			c-2.9,0.5-5.9,1.6-8.7,0.9c-2.1-0.6-3.8-2.1-5.6-3.4c-8.8-6.3-21.4-6.5-30.7-0.4c-4,2.6-7.5,6.3-12.1,7.6
			c-4.9,1.4-10-0.2-14.9-1.4c-4.9-1.2-10.5-1.9-14.8,1.1c4.5-1.5,9.5-0.6,13.7,1.4c4.2,2,8,4.7,12.3,6.5c2.7,1.1,5.9,1.8,8.5,0.4
			c1.7-0.9,2.9-2.7,4.2-4.1c4-4.3,10.2-6.5,15.8-5.5c5.6,1,10.6,5,12.7,10.4c-7-2.9-14.9-3.9-22.5-2.8c7.6,0.6,14.9,3.7,20.5,8.7
			c2.4,2.2,5,4.9,8.3,4.3c2.7-0.5,4.6-3.1,7-4.4c4.5-2.3,9.6,0.2,14.2,1.8c9.8,3.5,21.1,2.7,30.7-2.1c3.6-1.8,7.3-4.2,11.1-3.5
			c4.3,0.8,7.8,5.4,12.1,4.3C764.4,1066.8,766.5,1062.3,767.2,1058.2z"/>
		<path class="st22" d="M567.4,995.3c-24.5-21.9-68.1-0.2-68.1-0.2s-7.1-7.5-10-9.2c-27.1-16.1-51.7,8.5-56.6,13.8
			c-0.6-0.1-1.3-0.2-1.9-0.3c-7.2-8.3-13.9-11.2-19.6-11.6c1.4-2,3.2-3.7,5.3-4.9c4.1-2.4,9-2.8,13.3-1.3c1.8,0.6,3.7,1.7,5.6,1.3
			c2.6-0.5,4.1-3.3,5.7-5.5c6.6-9.7,18.9-14.2,30.2-13.1c11.2,1.2,22,7.1,30.4,14.7c2.7-7.8,10.8-12.2,18.7-13.7
			c11.1-2,22.8,0.7,31.8,7.4C559.5,978.2,564.9,986.3,567.4,995.3z"/>
		<path class="st22" d="M76.7,906.2c20.1-16.8,49.8-20.1,72.1-7.9c7-9.6,19.9-12.6,31.2-11.6c11.4,1.1,22.1,5.5,33.3,8
			c13.3,2.9,27.1,3,40.7,4.6c13.6,1.6,27.4,4.8,38.3,13.1c-13.3-6.4-28.4-5.6-43.2-6.1c-8.9-0.3-17.7-0.6-26.6-0.9
			c-8.1-0.3-16.5-0.5-24.3,2c-7.9,2.5-15.3,8.4-17.6,16.6c20.8-6.9,44.2-3.9,62.2,8c-18.2-8.8-40.5-8.5-58.6,1.7
			c-4.3,2.4-9.1,5.5-13.8,4.1c-3.4-1-5.7-4.2-8-7c-9-10.6-22.8-16.7-36.7-16.1c-13.9,0.5-27.6,7.7-36.4,19
			c-6.1,0.8-12.3-2.4-15.3-7.7C70.9,920.4,71.9,910.2,76.7,906.2z"/>
	</g>
	<g style="clip-path:url(#SVGID_00000004545989165471902800000003148597984601138314_);">
		<path id="XMLID_00000111879908129677526220000002845580367410362511_" class="st23" d="M1970.7,821.5
			c-81.7-20-234.7-24.4-331.9,21.5c-74.7,45.5-242.1,68.2-323.7,76.9c-205-19-398.2,16.9-531.1,177.3l-1.3,47l1188.1,2"/>
		<path class="st2" d="M1910.4,934.4c-30.5-9.7-62.5-18-94.3-14.4c-31.8,3.6-63.8,21.4-76.1,51c-6.1-5.7-18.2-4-25.6,0
			c-7.3,4-14.3,9.6-22.6,10.2c-6.3,0.5-12.4-2-18.4-3.6c-30-8.4-64.5,2.8-83.8,27.2c-8.3,10.5-14.2,23.3-25.2,31
			c-11.9,8.3-27.4,8.8-41.9,10.2c-14.5,1.4-30.3,4.8-39,16.5c10.6-8.1,25.3-10.2,38.6-9c13.3,1.3,26.3,4.9,39.6,5.6
			c8.4,0.5,17.7-0.6,23.3-6.8c3.7-4.1,5.2-9.6,7.4-14.6c6.6-15,21.2-26.3,37.4-29c16.2-2.7,33.6,3.3,44.7,15.4
			c-22-1.2-44.3,3.6-63.9,13.5c21.1-5.5,43.9-4.2,64.2,3.9c8.6,3.4,18.5,8,26.6,3.6c6.9-3.7,9.3-12.3,14.8-17.9
			c9.9-10.2,26.2-8.3,40.4-8.3c30.1,0,60-12.5,81.2-33.9c7.9-8,15.6-17.7,26.7-19.4c12.5-1.9,26.5,6.9,37.1,0.1
			C1911.3,959.4,1912.5,945.7,1910.4,934.4z"/>
		<path class="st2" d="M1498.7,968.8c-33.2-16.4-74.5,18-74.5,18s-9.9-6-13.6-7c-34.2-9.6-54.1,22.8-57.8,29.6
			c-0.7,0.1-1.5,0.2-2.2,0.2c-10.3-6.7-18.5-8.1-24.8-6.9c1-2.5,2.5-4.7,4.4-6.5c3.8-3.6,9.1-5.4,14.2-4.9c2.2,0.2,4.5,0.8,6.5-0.1
			c2.7-1.2,3.6-4.5,4.6-7.3c4.4-12,16.5-20,29.2-21.8c12.6-1.8,26.1,1.5,37.5,7.2c0.7-8.9,8.3-15.7,16.4-19.3
			c11.6-5.1,25.2-5.4,37-0.7C1485.1,953,1493.3,960,1498.7,968.8z"/>
		<path class="st2" d="M936.5,1006.7c17.1-23,48.6-34.4,76.5-27.6c4.9-11.9,18-18.6,30.8-20.5c12.8-1.9,25.8-0.1,38.7-0.5
			c15.4-0.5,30.6-4.1,45.8-6.1c15.3-2,31.3-2.3,45.6,3.4c-16.4-3.2-32.7,1.7-49,5.1c-9.8,2.1-19.5,4.1-29.3,6.2
			c-9,1.9-18.2,3.9-26,8.6c-7.9,4.8-14.3,12.9-14.4,22.1c20.7-12.8,47.2-15.9,70.3-8.2c-22.5-4.4-46.7,2-63.6,17.5
			c-4,3.7-8.4,8.2-13.9,8c-4-0.2-7.4-2.9-10.8-5.2c-12.9-8.7-29.8-11.4-44.8-7.1c-15,4.3-27.9,15.4-34.3,29.7
			c-6.4,2.4-14.1,0.8-19-4C934.3,1023.1,932.4,1012.1,936.5,1006.7z"/>
	</g>
</g>
</svg>
