<?xml version="1.0" encoding="utf-8"?>
<svg xmlns="http://www.w3.org/2000/svg" xmlns:xlink="http://www.w3.org/1999/xlink" version= "1.1" width="1073px" height="767px" viewBox="-177 328 1073 767">
<g id="layer1">
<g style="fill:rgb(210,235,237); fill-opacity:1.0; stroke-linejoin: miter">
<path d="M-177.001,327.06564C-177.24855,327.06564,-177.48595,327.16397,-177.66098,327.33902C-177.83601,327.51407,-177.93436,327.75146,-177.93436,327.999L-177.93335,1095.0C-177.93335,1095.5155,-177.51547,1095.9333,-177.0,1095.9333L896.001,1095.9343C896.24854,1095.9343,896.4859,1095.836,896.66095,1095.661C896.836,1095.486,896.9343,1095.2485,896.9343,1095.001L896.93335,328.0C896.93335,327.48453,896.5155,327.06665,896.0,327.06665L-177.001,327.06564 Z"/>
</g>
<g style="fill:rgb(0,0,0); fill-opacity:0.34901962; stroke-linejoin: miter">
<path d="M807.7178,992.8879L803.71265,997.45624Q775.2377,1011.26215,637.07794,1019.5396Q497.96228,1027.8104,309.44153,1026.2471Q129.52322,1024.062,21.652328,1013.46027Q-12.910682,1010.03326,-35.286392,1005.9919L-54.09256,1001.8374Q-69.59056,997.5492,-69.76481,992.88745Q-65.06007,978.5813,58.739384,969.08154Q182.5389,959.5819,368.97617,959.22095Q555.41364,959.582,679.21326,969.08185Q803.01306,978.5817,807.7178,992.8879"/>
</g>
<g style="fill:rgb(0,0,0); fill-opacity:1.0; stroke-linejoin: miter">
<path d="M71.16211,582.9462Q61.87164,579.9905,52.11636,582.91595Q43.179783,585.72955,38.704094,593.14526Q33.662163,601.262,33.96714,621.07385L43.09945,629.9535L86.44828,614.4938Q90.19916,604.1574,86.088,596.4846Q80.84591,586.2663,71.17622,582.951"/>
</g>
<g style="fill:rgb(0,0,0); fill-opacity:1.0; stroke-linejoin: miter">
<path d="M185.79663,969.17004L180.17517,987.5552Q174.69728,992.73254,173.98271,996.53796Q172.86299,1002.4572,178.19789,1009.6579Q182.2819,1014.85895,187.23866,1016.35333Q188.82587,1016.8497,191.22346,1017.09Q205.23285,1017.2817,207.3098,1018.133Q208.77335,1018.0682,223.9765,1023.88055Q226.69693,1024.7711,229.25406,1025.2782Q240.2391,1027.5367,250.99748,1018.8754Q261.2838,1009.5944,256.0609,1001.78204Q254.42282,999.7203,252.00824,998.7249Q250.60805,998.1567,249.3868,997.8564Q242.17259,996.3686,240.73145,995.8896Q237.44843,994.8031,235.60736,993.23816Q230.7011,989.1527,227.60767,977.7953L185.95267,969.2023"/>
</g>
<g style="fill:rgb(0,0,0); fill-opacity:1.0; stroke-linejoin: miter">
<path d="M227.32745,972.7793Q226.72096,973.6406,227.32689,972.7849 M226.9998,973.2626L217.85156,986.6238Q214.0573,984.33044,213.23457,985.85425Q212.25887,986.9365,213.42354,993.077L217.8198,986.67004L217.89973,986.7074Q220.0672,988.1072,224.02196,991.48145Q241.77658,1007.2758,242.56581,1007.7303Q246.91818,1011.3199,249.59938,1012.66437Q253.84363,1014.94745,256.6801,1012.2763Q264.68256,1003.8283,266.63834,1001.21136Q269.55127,997.51483,270.18576,995.07806Q271.4643,991.0077,265.18973,987.9259Q262.48462,986.53406,256.63867,984.5089Q254.4269,983.67554,236.45712,977.93555Q233.17255,976.8506,231.41354,976.17676Q226.5158,974.3281,226.98653,973.313"/>
</g>
<g style="fill:rgb(0,0,0); fill-opacity:1.0; stroke-linejoin: miter">
<path d="M99.05727,882.0697L88.5392,885.55237L88.09334,895.26166L88.10245,895.27673L99.60875,895.5525L99.05755,882.07684"/>
</g>
<g style="fill:rgb(0,0,0); fill-opacity:1.0; stroke-linejoin: miter">
<path d="M182.47542,958.0487L-8.818486,972.66626L-7.050922,1004.58185L110.65678,1011.99884L180.36432,990.8419L182.47426,958.0686"/>
</g>
<g style="fill:rgb(0,0,0); fill-opacity:1.0; stroke-linejoin: miter">
<path d="M86.32905,950.1117L25.517056,955.88403L-9.386599,972.8657L111.907845,980.8301L196.78116,961.80945L143.43515,952.4967L86.42199,950.1156"/>
</g>
<g style="fill:rgb(0,0,0); fill-opacity:1.0; stroke-linejoin: miter">
<path d="M0.97172993,792.26556Q-6.325359,840.9038,4.9327316,856.5629Q9.332812,862.8402,18.568455,866.41766Q23.216846,868.7017,45.79704,872.35486Q49.100388,873.13153,51.709217,874.36615Q54.729,875.25134,64.42027,884.0043Q66.70638,885.5895,68.62188,886.30084Q74.993935,889.08997,92.11101,887.29565Q151.43138,878.7155,207.1526,872.30554L1.1025634,792.316"/>
</g>
<g style="fill:rgb(255,190,128); fill-opacity:1.0; stroke-linejoin: miter">
<path d="M130.17708,739.8263L105.686035,747.69745Q116.09677,783.5749,122.82145,792.3637Q128.79414,801.1388,136.30826,797.937Q144.61911,793.67145,146.69377,781.7116Q149.06027,766.3025,130.2195,739.88666"/>
</g>
<g style="fill:rgb(255,255,255); fill-opacity:1.0; stroke-linejoin: miter">
<path d="M26.131441,661.6442L24.388693,668.93463L-9.27646,687.7671Q-21.89782,715.52673,-21.020586,730.0619Q-21.084806,736.61456,-19.32166,748.79346L23.239552,746.29834Q15.439683,794.6538,16.536983,809.9607Q17.024866,830.4901,26.376871,847.47064L123.667,791.00415L114.026344,747.2502L134.15434,742.2403Q126.603424,713.4775,114.82902,692.67377L78.7483,675.02L77.77599,666.1992L26.392235,661.6673"/>
</g>
<g style="fill:rgb(70,116,139); fill-opacity:1.0; stroke-linejoin: miter">
<path d="M195.88739,870.3121L202.04825,928.03754L176.25313,870.4199L195.49023,870.32166 M103.75024,791.0999Q69.489235,791.0062,48.095062,808.1208Q21.70814,828.7582,26.879913,850.4728Q61.226494,856.74493,72.22536,860.8394Q81.29002,862.2896,114.939575,877.6474Q119.38468,879.2025,127.803406,879.84265Q132.4053,897.12714,136.53928,904.17395Q167.90842,945.45776,170.27963,952.58716Q173.77014,958.46594,180.65257,981.83777L237.10855,978.1798Q247.22452,861.8649,248.19528,853.7501Q249.27733,844.52386,245.96394,835.92535Q230.01022,798.9013,104.20524,791.103 Z"/>
</g>
<g style="fill:rgb(255,190,128); fill-opacity:1.0; stroke-linejoin: miter">
<path d="M25.288374,740.6786L-17.593088,747.0608Q-15.000285,765.1113,-10.9164,776.1519Q-7.4071445,786.09894,2.5834417,801.4377L31.335838,807.95264Q37.65983,809.3469,38.32519,809.14233Q43.988186,808.38916,48.004093,808.18225L81.44376,806.8363Q91.293816,806.31696,96.733475,805.6342Q108.902275,804.0946,108.86258,800.4803Q116.35289,807.89154,122.925705,807.3473Q128.19109,806.7978,132.95634,801.26056Q137.19621,795.9179,136.26434,791.07684Q133.44714,782.72833,116.32272,781.0615Q111.04932,780.6685,105.03666,781.80084Q102.465164,782.1112,88.63307,786.17194Q85.68536,786.9012,83.627,787.14746Q78.15006,787.8896,71.75328,786.7316Q62.434906,785.4819,27.422886,771.1323Q30.902699,761.6902,25.313341,740.78723"/>
</g>
<g style="fill:rgb(0,0,0); fill-opacity:1.0; stroke-linejoin: miter">
<path d="M258.83728,733.0058L168.18881,735.35315L126.79397,805.4574L67.69189,804.3018L67.70466,810.599L124.037994,820.75336L213.70676,815.67993L217.20682,804.9999L258.79666,733.08234"/>
</g>
<g style="fill:rgb(255,190,128); fill-opacity:1.0; stroke-linejoin: miter">
<path d="M95.198425,803.7294Q94.261284,802.63464,84.20038,801.3532Q72.19422,799.92236,68.48682,800.3983Q66.9386,800.5752,66.07979,801.24615L64.7673,807.5142Q68.537605,807.3891,76.95475,806.70337Q83.906784,806.1461,88.066246,805.63025Q95.76431,804.6794,95.20732,803.74335"/>
</g>
<g style="fill:rgb(0,0,0); fill-opacity:1.0; stroke-linejoin: miter">
<path d="M101.281395,893.19165L86.70078,893.43604L86.94335,962.4745L104.06315,962.0648L101.283585,893.2466"/>
</g>
<g style="fill:rgb(0,0,0); fill-opacity:1.0; stroke-linejoin: miter">
<path d="M181.03978,980.88635Q177.87347,985.7373,176.67761,988.49133Q175.40106,991.266,173.95963,996.6821L183.6002,993.69836L185.00848,982.30286L181.05782,980.8926"/>
</g>
<g style="fill:rgb(238,0,255); fill-opacity:1.0; stroke-linejoin: miter">
<path d="M20.605324,834.3014L26.973345,850.90625Q26.391651,846.0151,26.117981,844.27124L20.60897,834.3078"/>
</g>
<g style="fill:rgb(255,190,128); fill-opacity:1.0; stroke-linejoin: miter">
<path d="M55.895355,599.4106Q49.26379,599.5646,47.638947,602.9962Q47.125137,604.10944,47.078148,605.83185Q46.979797,606.4627,47.45003,611.67175Q47.461952,612.93365,47.273975,613.3981Q47.04462,614.14606,46.39273,614.6916L43.670677,616.4814Q43.086555,617.10126,42.911163,618.1752Q42.726337,619.32513,42.843742,620.8121L43.415794,625.5941L40.39523,626.15765Q41.043247,622.4265,34.913467,618.01074Q32.227234,616.51764,31.490955,618.8245Q30.458078,623.6311,32.96197,632.35785Q33.7476,634.78485,34.73085,636.0221Q35.242603,636.87524,37.825584,638.50146Q38.225857,638.8489,38.526924,639.3714Q39.262226,640.77313,39.44553,643.32495Q40.142933,653.3402,35.012016,663.20935L55.99652,670.80444L68.12104,690.12616L72.98672,673.063L74.15375,660.79004Q80.90329,653.93463,85.62557,638.03375Q86.096466,636.01245,86.23267,633.90204L86.452896,625.25714L87.18659,614.8174Q87.39202,610.4902,87.03857,607.91034Q86.52824,603.0179,83.02931,602.20764Q82.035324,601.9309,80.43362,601.89764Q72.73591,602.30927,71.39006,601.9915Q70.23917,602.0448,60.1774,599.789Q57.823574,599.39233,55.90875,599.41046"/>
</g>
<g style="fill:rgb(0,0,0); fill-opacity:0.23529412; stroke-linejoin: miter">
<path d="M45.284386,653.0613Q46.364906,654.33984,45.30625,653.0847 M45.868526,653.7524L59.12531,669.7496L72.635185,661.3969Q65.057236,665.26953,59.027252,663.5642Q53.205097,661.8649,45.89377,653.779"/>
</g>
<g style="fill:rgb(0,0,0); fill-opacity:0.11764706; stroke-linejoin: miter">
<path d="M22.086084,706.06036L25.288664,737.7525Q25.949867,733.10944,26.051384,730.30206Q26.18975,727.1425,25.86368,723.8929Q25.224035,717.4944,22.089098,706.0698L22.086084,706.06036 Z M117.377335,716.5375L115.89801,745.251Q117.65504,740.7794,118.31266,738.1343Q119.08951,735.10535,119.23129,732.228Q119.533516,726.44025,117.381516,716.55695L117.377335,716.5375 Z M83.08895,775.75476Q73.16424,775.7548,58.55124,777.63806L110.25767,778.73615L110.30226,778.73676Q101.06919,777.1101,95.82018,776.52405Q89.89785,775.8384,84.48349,775.76447Q83.79822,775.75476,83.08895,775.75476 Z M215.25456,839.9923L198.01337,864.43835Q205.5747,858.38745,208.62407,853.8908Q212.10985,848.9674,215.24257,840.0273L215.25456,839.9923 Z M130.22906,856.03467L123.84517,867.80347Q126.33729,866.9646,127.412796,866.2305Q128.66216,865.4218,129.31618,864.2225Q130.61464,861.84375,130.23009,856.041L130.22906,856.03467 Z M147.36253,821.5149Q154.05104,824.518,157.28064,827.265Q161.23859,830.4791,163.92996,835.3628Q168.84824,843.59656,174.31769,871.5034L171.82288,832.3407L147.365,821.5149 Z M134.9048,864.8062L127.66339,875.6083L133.41737,872.6164L134.90172,864.8223L134.9048,864.8062 Z M202.77467,928.3206L214.15587,980.5603Q214.5946,970.0841,214.29645,964.64124Q214.00966,958.3917,212.84312,953.03516Q210.54218,942.4734,202.78474,928.33734L202.77467,928.3206 Z M218.77013,980.1024Q235.87624,990.1985,243.99693,995.7327Q251.2555,1000.64655,254.19208,1004.2236L246.67867,993.3148L246.64943,993.27246L218.77328,980.1024 Z M254.204,1004.238L256.58298,1007.69025Q255.34622,1005.59357,254.23216,1004.27167L254.204,1004.238 Z"/>
</g>
<g style="fill:rgb(255,255,255); fill-opacity:0.38431373; stroke-linejoin: miter">
<path d="M254.3771,1016.73175Q256.26215,1012.6822,251.32635,1008.2537Q246.09393,1003.85724,237.65271,1002.142Q228.09764,1000.3909,217.95335,1001.7806Q213.99393,1002.3442,211.47699,1003.3244Q209.58075,1004.0535,207.04895,1006.28827Q206.4774,1006.59467,205.67987,1006.6104Q204.56094,1006.61896,202.46901,1006.07416L190.84335,1002.6131Q187.65671,1001.7402,185.6632,1001.4097Q179.21193,1000.33844,174.2315,1001.1893L174.88391,1004.4162Q176.8817,1008.00165,178.35143,1009.9494Q181.25832,1013.8121,185.28027,1015.77155Q186.48134,1016.3298,187.81549,1016.54315Q196.86824,1017.1552,202.86487,1018.5059Q205.8079,1019.16156,208.71669,1020.0146L220.16196,1023.6104Q222.944,1024.3932,225.56601,1024.8954Q233.98228,1026.5658,242.2066,1024.329Q251.64928,1021.60565,254.33394,1016.8121"/>
</g>
<g style="fill:rgb(0,0,0); fill-opacity:0.99607843; stroke-linejoin: miter">
<path d="M556.2334,603.06146L649.8921,603.0619L743.5512,603.06244L743.55133,1004.27374Q649.8924,1004.27423,556.2334,1004.27484Q556.23346,803.66815,556.2334,603.06146"/>
</g>
<g style="fill:rgb(34,43,50); fill-opacity:0.99607843; stroke-linejoin: miter">
<path d="M566.7644,622.50995L649.8922,622.51L733.02045,622.51025Q733.02045,646.9097,733.0204,671.30884Q649.8921,671.30896,566.76434,671.3093Q566.7644,646.9096,566.7644,622.50995"/>
</g>
<g style="fill:rgb(34,43,50); fill-opacity:0.99607843; stroke-linejoin: miter">
<path d="M581.00397,811.9875L610.2375,811.988L639.47076,811.9879Q639.47076,903.0391,639.4706,994.0903Q610.2373,994.09076,581.0038,994.0905Q581.00397,903.0391,581.00397,811.9875"/>
</g>
<g style="fill:rgb(34,43,50); fill-opacity:0.99607843; stroke-linejoin: miter">
<path d="M660.31415,812.5349L718.78076,812.53546L718.7806,994.6375L660.31396,994.6381L660.31415,812.5349"/>
</g>
<g style="fill:rgb(34,43,50); fill-opacity:0.99607843; stroke-linejoin: miter">
<path d="M566.76434,686.0063L733.0204,686.0068L733.0204,734.8053L566.76434,734.80597L566.76434,686.0063"/>
</g>
<g style="fill:rgb(34,43,50); fill-opacity:0.99607843; stroke-linejoin: miter">
<path d="M566.76434,748.408L649.8921,748.4079L733.0204,748.40857Q733.0204,772.80786,733.0205,797.2072Q649.89233,797.20734,566.7644,797.20776Q566.76434,772.80774,566.76434,748.408"/>
</g>
<g style="fill:rgb(68,197,229); fill-opacity:0.99607843; stroke-linejoin: miter">
<path d="M669.3914,820.34357L687.58093,820.34393L705.77026,820.344Q705.77026,829.3478,705.77026,838.35126Q687.58093,838.3517,669.3914,838.35175Q669.3914,829.34796,669.3914,820.34357"/>
</g>
<g style="fill:rgb(68,197,229); fill-opacity:0.99607843; stroke-linejoin: miter">
<path d="M591.1573,819.95245L627.53613,819.953L627.53613,837.9599L591.1573,837.96063L591.1573,819.95245"/>
</g>
<g style="fill:rgb(125,139,150); fill-opacity:0.99607843; stroke-linejoin: miter">
<path d="M315.47116,925.3651L422.78674,925.3656L530.1023,925.3661Q530.1023,964.0743,530.1023,1002.78253Q422.78677,1002.7829,315.4712,1002.78314Q315.4712,964.0742,315.47116,925.3651"/>
</g>
<g style="fill:rgb(0,1,1); fill-opacity:0.99607843; stroke-linejoin: miter">
<path d="M321.79706,930.0747L422.02637,930.0749L522.2559,930.07556Q522.25586,963.25116,522.25586,996.42694Q422.02637,996.4272,321.79706,996.42755Q321.79706,963.2511,321.79706,930.0747"/>
</g>
<g style="fill:rgb(113,207,235); fill-opacity:1.0; stroke-linejoin: miter">
<path d="M399.70206,947.03235L399.77112,951.82983L399.8402,956.6278Q395.6001,956.6887,391.36005,956.7501Q391.29083,951.9523,391.22168,947.1544Q395.46182,947.0934,399.70206,947.03235"/>
</g>
<g style="fill:rgb(113,207,235); fill-opacity:1.0; stroke-linejoin: miter">
<path d="M387.28104,947.2112L387.41916,956.80676L378.93903,956.92883L378.80072,947.3331L387.28104,947.2112"/>
</g>
<g style="fill:rgb(113,207,235); fill-opacity:1.0; stroke-linejoin: miter">
<path d="M399.70206,958.2926L399.7711,963.0901L399.84018,967.88806Q395.60007,967.9492,391.36002,968.01025Q391.2908,963.2123,391.22168,958.4148Q395.46182,958.35364,399.70206,958.2926"/>
</g>
<g style="fill:rgb(113,207,235); fill-opacity:1.0; stroke-linejoin: miter">
<path d="M387.28104,958.47144L387.41913,968.067L378.939,968.18896L378.80072,958.5935L387.28104,958.47144"/>
</g>
<g style="fill:rgb(113,207,235); fill-opacity:1.0; stroke-linejoin: miter">
<path d="M374.86005,958.6504L374.92902,963.4481L374.9981,968.24585Q370.75803,968.3069,366.51794,968.36804Q366.44885,963.57007,366.37967,958.77246Q370.61987,958.7114,374.86005,958.6504"/>
</g>
<g style="fill:rgb(247,242,151); fill-opacity:1.0; stroke-linejoin: miter">
<path d="M444.68054,946.4697L444.7496,951.26746L444.8187,956.06506Q440.57858,956.1262,436.33847,956.1874Q436.2693,951.3895,436.20023,946.5917Q440.44025,946.53064,444.68054,946.4697"/>
</g>
<g style="fill:rgb(247,242,151); fill-opacity:1.0; stroke-linejoin: miter">
<path d="M432.2596,946.6483L432.3977,956.244L423.9176,956.3662L423.7792,946.7706L432.2596,946.6483"/>
</g>
<g style="fill:rgb(247,242,151); fill-opacity:1.0; stroke-linejoin: miter">
<path d="M419.83856,946.8274L419.9076,951.62537L419.97656,956.423Q415.73654,956.4839,411.49652,956.54517Q411.4273,951.7472,411.3582,946.94946Q415.59836,946.8883,419.83856,946.8274"/>
</g>
<g style="fill:rgb(247,242,151); fill-opacity:1.0; stroke-linejoin: miter">
<path d="M444.68054,957.72986L444.7496,962.52747L444.81866,967.3253Q440.57855,967.3865,436.33844,967.4474Q436.2693,962.64966,436.20023,957.8519Q440.44025,957.7909,444.68054,957.72986"/>
</g>
<g style="fill:rgb(247,242,151); fill-opacity:1.0; stroke-linejoin: miter">
<path d="M432.2596,957.9088L432.39764,967.504L423.91754,967.62646L423.7792,958.0309L432.2596,957.9088"/>
</g>
<g style="fill:rgb(247,242,151); fill-opacity:1.0; stroke-linejoin: miter">
<path d="M419.83856,958.0879L419.90753,962.8854L419.9765,967.6832Q415.73648,967.74426,411.49646,967.8054Q411.42725,963.0077,411.3582,958.20984Q415.59836,958.1487,419.83856,958.0879"/>
</g>
<g style="fill:rgb(60,70,79); fill-opacity:0.99607843; stroke-linejoin: miter">
<path d="M362.7584,979.16565L419.12244,979.166L475.48663,979.1662Q475.48663,982.144,475.48663,985.12177Q419.12244,985.1219,362.7584,985.1223Q362.7584,982.1438,362.7584,979.16565"/>
</g>
<g style="fill:rgb(125,139,150); fill-opacity:0.99607843; stroke-linejoin: miter">
<path d="M313.96173,844.8022L421.2773,844.8024L528.5929,844.8029Q528.5929,883.51117,528.5929,922.21954Q421.2773,922.2197,313.96173,922.2201Q313.96173,883.51105,313.96173,844.8022"/>
</g>
<g style="fill:rgb(0,1,1); fill-opacity:0.99607843; stroke-linejoin: miter">
<path d="M320.28757,849.51154L420.51697,849.51184L520.74634,849.5122Q520.7464,882.6879,520.7464,915.8637Q420.51697,915.8642,320.28757,915.86444Q320.28757,882.6881,320.28757,849.51154"/>
</g>
<g style="fill:rgb(247,242,151); fill-opacity:1.0; stroke-linejoin: miter">
<path d="M326.13297,854.88184L330.9307,854.81287L335.72845,854.74384Q335.78955,858.9837,335.8507,863.22375Q331.05292,863.2931,326.25513,863.3625Q326.194,859.1222,326.13297,854.88184"/>
</g>
<g style="fill:rgb(59,69,78); fill-opacity:1.0; stroke-linejoin: miter">
<path d="M326.31192,867.303L335.90747,867.1647L336.0296,875.6449L326.43402,875.78345L326.31192,867.303"/>
</g>
<g style="fill:rgb(59,69,78); fill-opacity:1.0; stroke-linejoin: miter">
<path d="M326.4908,879.7242L331.2885,879.65485L336.0863,879.58563Q336.14746,883.82587,336.20844,888.06604Q331.41068,888.135,326.61288,888.20435Q326.55185,883.96423,326.4908,879.7242"/>
</g>
<g style="fill:rgb(59,69,78); fill-opacity:1.0; stroke-linejoin: miter">
<path d="M338.27777,854.8818L343.07556,854.81287L347.87332,854.74384Q347.93448,858.9837,347.99548,863.22375Q343.1977,863.2931,338.39987,863.3624Q338.33884,859.12213,338.27777,854.8818"/>
</g>
<g style="fill:rgb(59,69,78); fill-opacity:1.0; stroke-linejoin: miter">
<path d="M338.45667,867.3029L348.0523,867.1647L348.17444,875.6449L338.57886,875.7833L338.45667,867.3029"/>
</g>
<g style="fill:rgb(59,69,78); fill-opacity:1.0; stroke-linejoin: miter">
<path d="M338.63553,879.72406L343.4334,879.65485L348.23123,879.58563Q348.2922,883.82587,348.35333,888.06604Q343.55554,888.135,338.7577,888.2042Q338.6967,883.9641,338.63553,879.72406"/>
</g>
<g style="fill:rgb(247,242,151); fill-opacity:1.0; stroke-linejoin: miter">
<path d="M350.42267,854.88184L355.22046,854.8129L360.01825,854.7439Q360.07925,858.98376,360.1404,863.2238Q355.34256,863.2932,350.54474,863.3625Q350.4837,859.1222,350.42267,854.88184"/>
</g>
<g style="fill:rgb(59,69,78); fill-opacity:1.0; stroke-linejoin: miter">
<path d="M350.60153,867.303L360.1972,867.16473L360.31937,875.64496L350.72363,875.7834L350.60153,867.303"/>
</g>
<g style="fill:rgb(59,69,78); fill-opacity:1.0; stroke-linejoin: miter">
<path d="M350.78046,879.7241L355.57822,879.6549L360.3761,879.5857Q360.4371,883.8259,360.49823,888.0661Q355.7004,888.1351,350.9026,888.2043Q350.84152,883.9642,350.78046,879.7241"/>
</g>
<g style="fill:rgb(255,19,0); fill-opacity:1.0; stroke-linejoin: miter">
<path d="M398.19247,866.4692L398.2615,871.2667L398.3306,876.0647Q394.0905,876.1258,389.85046,876.1868Q389.78125,871.38904,389.71213,866.59125Q393.95224,866.53033,398.19247,866.4692"/>
</g>
<g style="fill:rgb(113,207,235); fill-opacity:1.0; stroke-linejoin: miter">
<path d="M385.77158,866.6483L385.90958,876.2436L377.42947,876.3657L377.29117,866.77014L385.77158,866.6483"/>
</g>
<g style="fill:rgb(113,207,235); fill-opacity:1.0; stroke-linejoin: miter">
<path d="M373.35052,866.8269L373.41953,871.6246L373.48856,876.4225Q369.24854,876.4834,365.00854,876.5446Q364.93936,871.74695,364.8702,866.9491Q369.11032,866.888,373.35052,866.8269"/>
</g>
<g style="fill:rgb(255,19,0); fill-opacity:1.0; stroke-linejoin: miter">
<path d="M398.19247,877.7294L398.2615,882.52716L398.3306,887.32513Q394.0905,887.38617,389.85046,887.44714Q389.78125,882.64935,389.71213,877.8517Q393.95224,877.7906,398.19247,877.7294"/>
</g>
<g style="fill:rgb(113,207,235); fill-opacity:1.0; stroke-linejoin: miter">
<path d="M385.77158,877.90845L385.90967,887.504L377.42947,887.62604L377.29117,878.0304L385.77158,877.90845"/>
</g>
<g style="fill:rgb(113,207,235); fill-opacity:1.0; stroke-linejoin: miter">
<path d="M373.35052,878.08716L373.41953,882.885L373.48865,887.68286Q369.24854,887.7439,365.00854,887.80493Q364.93936,883.00714,364.8702,878.20917Q369.11032,878.14813,373.35052,878.08716"/>
</g>
<g style="fill:rgb(247,242,151); fill-opacity:1.0; stroke-linejoin: miter">
<path d="M443.17108,865.90656L443.24,870.7043L443.30905,875.502Q439.069,875.5631,434.829,875.62415Q434.75983,870.82635,434.69058,866.0286Q438.9308,865.9676,443.17108,865.90656"/>
</g>
<g style="fill:rgb(247,242,151); fill-opacity:1.0; stroke-linejoin: miter">
<path d="M430.7499,866.08545L430.88806,875.6811L422.40796,875.80304L422.2697,866.2076L430.7499,866.08545"/>
</g>
<g style="fill:rgb(247,242,151); fill-opacity:1.0; stroke-linejoin: miter">
<path d="M418.32895,866.2641L418.39804,871.06213L418.46707,875.8598Q414.22705,875.92084,409.98694,875.98193Q409.91782,871.1842,409.84863,866.38635Q414.08884,866.3252,418.32895,866.2641"/>
</g>
<g style="fill:rgb(247,242,151); fill-opacity:1.0; stroke-linejoin: miter">
<path d="M443.17108,877.1667L443.24,881.96454L443.30908,886.7623Q439.069,886.82336,434.829,886.8846Q434.75983,882.0866,434.69058,877.28894Q438.9308,877.2279,443.17108,877.1667"/>
</g>
<g style="fill:rgb(247,242,151); fill-opacity:1.0; stroke-linejoin: miter">
<path d="M430.7499,877.34576L430.88806,886.9413L422.40796,887.06335L422.2697,877.4677L430.7499,877.34576"/>
</g>
<g style="fill:rgb(247,242,151); fill-opacity:1.0; stroke-linejoin: miter">
<path d="M418.32895,877.5245L418.39804,882.3223L418.46707,887.12024Q414.22705,887.18097,409.987,887.2422Q409.91782,882.4444,409.84863,877.64655Q414.08884,877.58545,418.32895,877.5245"/>
</g>
<g style="fill:rgb(60,70,79); fill-opacity:0.99607843; stroke-linejoin: miter">
<path d="M361.24893,898.6027L417.613,898.6028L473.9771,898.6033Q473.9771,901.58105,473.9771,904.5588Q417.613,904.5588,361.24893,904.55914Q361.24893,901.581,361.24893,898.6027"/>
</g>
<g style="fill:rgb(125,139,150); fill-opacity:0.99607843; stroke-linejoin: miter">
<path d="M314.2643,764.7321L421.57993,764.7325L528.89545,764.733Q528.8955,803.44147,528.8955,842.1497Q421.57996,842.14984,314.26434,842.1502Q314.26434,803.44135,314.2643,764.7321"/>
</g>
<g style="fill:rgb(0,1,1); fill-opacity:0.99607843; stroke-linejoin: miter">
<path d="M320.59015,769.4416L420.81958,769.4419L521.0488,769.44226Q521.04895,802.6181,521.04895,835.7939Q420.8196,835.79425,320.59018,835.7948Q320.59018,802.61816,320.59015,769.4416"/>
</g>
<g style="fill:rgb(255,44,0); fill-opacity:0.99607843; stroke-linejoin: miter">
<path d="M326.43567,774.8122L331.23343,774.7429L336.03125,774.674Q336.09222,778.91394,336.15332,783.1542Q331.35556,783.22314,326.55777,783.29236Q326.49667,779.05225,326.43567,774.8122"/>
</g>
<g style="fill:rgb(255,44,0); fill-opacity:0.99607843; stroke-linejoin: miter">
<path d="M326.6145,787.23303L336.21008,787.0949L336.3322,795.575L326.73663,795.7135L326.6145,787.23303"/>
</g>
<g style="fill:rgb(255,44,0); fill-opacity:0.99607843; stroke-linejoin: miter">
<path d="M326.79337,799.65424L331.59116,799.5851L336.38898,799.5158Q336.45007,803.7559,336.5112,807.99615Q331.71338,808.06537,326.91562,808.1346Q326.85452,803.8944,326.79337,799.65424"/>
</g>
<g style="fill:rgb(255,44,0); fill-opacity:0.99607843; stroke-linejoin: miter">
<path d="M338.5804,774.81213L343.37817,774.7429L348.176,774.674Q348.2371,778.91394,348.29822,783.1542Q343.5004,783.22314,338.70255,783.2923Q338.64145,779.0522,338.5804,774.81213"/>
</g>
<g style="fill:rgb(255,44,0); fill-opacity:0.99607843; stroke-linejoin: miter">
<path d="M338.75934,787.233L348.35498,787.0949L348.47708,795.575L338.88147,795.71344L338.75934,787.233"/>
</g>
<g style="fill:rgb(255,44,0); fill-opacity:0.99607843; stroke-linejoin: miter">
<path d="M338.93823,799.6542L343.73605,799.5851L348.5338,799.5158Q348.59497,803.7559,348.65604,807.99615Q343.85815,808.06537,339.0603,808.13446Q338.9993,803.8943,338.93823,799.6542"/>
</g>
<g style="fill:rgb(255,44,0); fill-opacity:0.99607843; stroke-linejoin: miter">
<path d="M350.72525,774.8122L355.52307,774.743L360.3209,774.6741Q360.382,778.914,360.44308,783.15424Q355.64526,783.22327,350.84747,783.29236Q350.78632,779.05225,350.72525,774.8122"/>
</g>
<g style="fill:rgb(255,44,0); fill-opacity:0.99607843; stroke-linejoin: miter">
<path d="M350.90424,787.23303L360.49985,787.095L360.62195,795.5751L351.02634,795.7135L350.90424,787.23303"/>
</g>
<g style="fill:rgb(255,44,0); fill-opacity:0.99607843; stroke-linejoin: miter">
<path d="M351.08307,799.65424L355.88092,799.58514L360.67874,799.51587Q360.73984,803.756,360.80084,807.9962Q356.00305,808.0654,351.2052,808.1345Q351.1441,803.89435,351.08307,799.65424"/>
</g>
<g style="fill:rgb(113,207,235); fill-opacity:1.0; stroke-linejoin: miter">
<path d="M398.4951,786.3992L398.56412,791.19714L398.63324,795.99475Q394.39313,796.0557,390.1531,796.11676Q390.08392,791.3191,390.01474,786.5213Q394.25494,786.46027,398.4951,786.3992"/>
</g>
<g style="fill:rgb(113,207,235); fill-opacity:1.0; stroke-linejoin: miter">
<path d="M386.07416,786.5781L386.2123,796.1737L377.73212,796.29584L377.59378,786.7002L386.07416,786.5781"/>
</g>
<g style="fill:rgb(113,207,235); fill-opacity:1.0; stroke-linejoin: miter">
<path d="M373.65314,786.75696L373.72217,791.55493L373.7912,796.35266Q369.55112,796.41364,365.31113,796.47473Q365.24197,791.677,365.1728,786.87915Q369.41296,786.81805,373.65314,786.75696"/>
</g>
<g style="fill:rgb(113,207,235); fill-opacity:1.0; stroke-linejoin: miter">
<path d="M398.4951,797.65967L398.56412,802.45734L398.63324,807.2552Q394.39313,807.3162,390.1531,807.3773Q390.08392,802.57965,390.01474,797.78174Q394.25494,797.7207,398.4951,797.65967"/>
</g>
<g style="fill:rgb(113,207,235); fill-opacity:1.0; stroke-linejoin: miter">
<path d="M386.07416,797.8385L386.2123,807.434L377.73212,807.5561L377.59378,797.9605L386.07416,797.8385"/>
</g>
<g style="fill:rgb(113,207,235); fill-opacity:1.0; stroke-linejoin: miter">
<path d="M373.65314,798.01733L373.72217,802.8152L373.7912,807.6129Q369.55112,807.67395,365.31113,807.7351Q365.24197,802.9372,365.1728,798.1395Q369.41296,798.0783,373.65314,798.01733"/>
</g>
<g style="fill:rgb(247,242,151); fill-opacity:1.0; stroke-linejoin: miter">
<path d="M443.47363,785.8366L443.5427,790.63446L443.6118,795.43207Q439.37164,795.49316,435.13165,795.5542Q435.0624,790.7564,434.99332,785.9586Q439.23352,785.89764,443.47363,785.8366"/>
</g>
<g style="fill:rgb(247,242,151); fill-opacity:1.0; stroke-linejoin: miter">
<path d="M431.05267,786.0155L431.1908,795.61115L422.71063,795.73315L422.57233,786.1376L431.05267,786.0155"/>
</g>
<g style="fill:rgb(247,242,151); fill-opacity:1.0; stroke-linejoin: miter">
<path d="M418.63165,786.1943L418.7007,790.99225L418.7698,795.7899Q414.52972,795.8509,410.28964,795.912Q410.2205,791.11414,410.15134,786.31647Q414.39148,786.2554,418.63165,786.1943"/>
</g>
<g style="fill:rgb(247,242,151); fill-opacity:1.0; stroke-linejoin: miter">
<path d="M443.47363,797.09674L443.5427,801.89465L443.6118,806.6926Q439.37164,806.75366,435.13165,806.81464Q435.0624,802.01697,434.99332,797.219Q439.23352,797.15796,443.47363,797.09674"/>
</g>
<g style="fill:rgb(247,242,151); fill-opacity:1.0; stroke-linejoin: miter">
<path d="M431.05267,797.2757L431.1908,806.8712L422.71063,806.99347L422.57233,797.3978L431.05267,797.2757"/>
</g>
<g style="fill:rgb(247,242,151); fill-opacity:1.0; stroke-linejoin: miter">
<path d="M418.63165,797.4545L418.7007,802.2525L418.7698,807.0503Q414.52972,807.11127,410.28964,807.1724Q410.2205,802.37476,410.15134,797.57654Q414.39148,797.51556,418.63165,797.4545"/>
</g>
<g style="fill:rgb(60,70,79); fill-opacity:0.99607843; stroke-linejoin: miter">
<path d="M361.5515,818.53296L417.91565,818.53314L474.2798,818.5332Q474.2798,821.5111,474.2798,824.48883Q417.91565,824.4892,361.5515,824.4894Q361.5515,821.51105,361.5515,818.53296"/>
</g>
<g style="fill:rgb(125,139,150); fill-opacity:0.99607843; stroke-linejoin: miter">
<path d="M312.75485,684.1691L420.0704,684.1694L527.386,684.1699Q527.386,722.87823,527.386,761.58636Q420.07037,761.5867,312.75482,761.5871Q312.75485,722.8781,312.75485,684.1691"/>
</g>
<g style="fill:rgb(0,1,1); fill-opacity:0.99607843; stroke-linejoin: miter">
<path d="M319.08072,688.87854L419.31006,688.8789L519.53937,688.87933Q519.5395,722.0549,519.5394,755.23065Q419.31003,755.2311,319.0807,755.2313Q319.08072,722.0551,319.08072,688.87854"/>
</g>
<g style="fill:rgb(59,69,78); fill-opacity:1.0; stroke-linejoin: miter">
<path d="M325.10504,706.6699L334.70056,706.5317L334.8227,715.0117L325.22717,715.15045L325.10504,706.6699"/>
</g>
<g style="fill:rgb(59,69,78); fill-opacity:1.0; stroke-linejoin: miter">
<path d="M325.28397,719.09094L330.08167,719.02185L334.87943,718.9527Q334.94058,723.1927,335.00165,727.43274Q330.20377,727.5021,325.40604,727.5713Q325.345,723.33124,325.28397,719.09094"/>
</g>
<g style="fill:rgb(59,69,78); fill-opacity:1.0; stroke-linejoin: miter">
<path d="M337.2498,706.6698L346.84543,706.5317L346.9676,715.0117L337.37195,715.15027L337.2498,706.6698"/>
</g>
<g style="fill:rgb(59,69,78); fill-opacity:1.0; stroke-linejoin: miter">
<path d="M337.42874,719.0908L342.22653,719.02185L347.02435,718.9527Q347.08542,723.1927,347.14648,727.43274Q342.34866,727.5021,337.55084,727.57117Q337.48978,723.33105,337.42874,719.0908"/>
</g>
<g style="fill:rgb(59,69,78); fill-opacity:1.0; stroke-linejoin: miter">
<path d="M349.57355,719.0909L354.3714,719.0219L359.16916,718.95276Q359.23022,723.19275,359.29132,727.4328Q354.49353,727.50214,349.69574,727.5712Q349.63467,723.3311,349.57355,719.0909"/>
</g>
<g style="fill:rgb(255,19,0); fill-opacity:1.0; stroke-linejoin: miter">
<path d="M396.98566,705.83606L397.05466,710.6338L397.12378,715.43176Q392.8836,715.4928,388.64365,715.55396Q388.5745,710.75604,388.50534,705.9581Q392.7454,705.89734,396.98566,705.83606"/>
</g>
<g style="fill:rgb(113,207,235); fill-opacity:1.0; stroke-linejoin: miter">
<path d="M384.56464,706.0149L384.7028,715.61053L376.2226,715.73267L376.0843,706.1371L384.56464,706.0149"/>
</g>
<g style="fill:rgb(113,207,235); fill-opacity:1.0; stroke-linejoin: miter">
<path d="M372.14362,706.19385L372.21268,710.9916L372.28174,715.7895Q368.04166,715.85034,363.8016,715.9115Q363.73245,711.1138,363.6633,706.3159Q367.9035,706.2549,372.14362,706.19385"/>
</g>
<g style="fill:rgb(255,19,0); fill-opacity:1.0; stroke-linejoin: miter">
<path d="M396.98566,717.09644L397.05466,721.89417L397.12378,726.69196Q392.8836,726.75305,388.64365,726.81433Q388.5745,722.0165,388.50534,717.2185Q392.7454,717.1576,396.98566,717.09644"/>
</g>
<g style="fill:rgb(113,207,235); fill-opacity:1.0; stroke-linejoin: miter">
<path d="M384.56464,717.2755L384.7028,726.87085L376.2226,726.993L376.0843,717.3974L384.56464,717.2755"/>
</g>
<g style="fill:rgb(113,207,235); fill-opacity:1.0; stroke-linejoin: miter">
<path d="M372.14362,717.454L372.21268,722.25195L372.28174,727.0496Q368.04166,727.1106,363.8016,727.1719Q363.73245,722.37415,363.6633,717.5762Q367.9035,717.5152,372.14362,717.454"/>
</g>
<g style="fill:rgb(247,242,151); fill-opacity:1.0; stroke-linejoin: miter">
<path d="M441.96414,705.2734L442.0332,710.07104L442.10233,714.869Q437.86212,714.93024,433.6222,714.9912Q433.55292,710.19336,433.4838,705.39557Q437.72394,705.33453,441.96414,705.2734"/>
</g>
<g style="fill:rgb(247,242,151); fill-opacity:1.0; stroke-linejoin: miter">
<path d="M429.5432,705.4524L429.68124,715.0478L421.2012,715.1701L421.06287,705.57446L429.5432,705.4524"/>
</g>
<g style="fill:rgb(247,242,151); fill-opacity:1.0; stroke-linejoin: miter">
<path d="M417.12222,705.631L417.19122,710.429L417.26028,715.2268Q413.0202,715.28784,408.78015,715.34894Q408.71088,710.5512,408.6418,705.75323Q412.8819,705.6921,417.12222,705.631"/>
</g>
<g style="fill:rgb(247,242,151); fill-opacity:1.0; stroke-linejoin: miter">
<path d="M441.96414,716.5337L442.0332,721.3315L442.10233,726.1294Q437.86212,726.19037,433.6222,726.2515Q433.55292,721.4536,433.4838,716.65594Q437.72394,716.595,441.96414,716.5337"/>
</g>
<g style="fill:rgb(247,242,151); fill-opacity:1.0; stroke-linejoin: miter">
<path d="M429.5432,716.71277L429.68124,726.3084L421.2012,726.4304L421.06287,716.83484L429.5432,716.71277"/>
</g>
<g style="fill:rgb(247,242,151); fill-opacity:1.0; stroke-linejoin: miter">
<path d="M417.12222,716.89124L417.19122,721.6892L417.26028,726.487Q413.0202,726.548,408.78015,726.60925Q408.711,721.8115,408.6418,717.0136Q412.8819,716.9525,417.12222,716.89124"/>
</g>
<g style="fill:rgb(60,70,79); fill-opacity:0.99607843; stroke-linejoin: miter">
<path d="M360.042,737.9698L416.40616,737.96985L472.77032,737.9701Q472.77032,740.94806,472.7703,743.9258Q416.40613,743.9259,360.04196,743.9261Q360.042,740.94806,360.042,737.9698"/>
</g>
<g style="fill:rgb(0,5,9); fill-opacity:0.99607843; stroke-linejoin: miter">
<path d="M477.29926,645.462L477.29926,645.46216L477.29926,645.46216L477.29926,645.46216L477.29926,645.462L477.29926,645.46216L477.29926,645.46216Q477.29926,645.46216,477.29926,645.462"/>
</g>
</g>
</svg>
