<svg xmlns="http://www.w3.org/2000/svg" xmlns:xlink="http://www.w3.org/1999/xlink" width="1190" height="796" version="1.1" viewBox="0 0 1190 796"><title>bg</title><g id="Page-1" fill="none" fill-rule="evenodd" stroke="none" stroke-width="1"><g id="bg" fill-rule="nonzero"><g id="Group" fill="#ECF2F3"><path id="Path" d="M1.03333406,0 C0.759268486,0 0.496440095,0.101799805 0.302662281,0.283026857 C0.108884466,0.464253908 0,0.710020773 0,0.966295804 L0,795.032731 C0,795.566422 0.463758149,796 1.03444118,796 L1188.96673,796 C1189.24079,796 1189.50357,795.898231 1189.69737,795.717056 C1189.89117,795.535881 1190,795.29 1190,795.033766 L1190,0.967331091 C1190,0.433671519 1189.53634,0 1188.96563,0 L1.03333406,0 Z"/></g><g id="Group" fill="#000" fill-opacity=".349" transform="translate(266.235190, 651.220950)"><path id="Path" d="M877.48261,33.66695 L873.47746,38.23529 C854.49416,47.43923 798.949257,54.80035 706.84275,60.31865 C614.098977,65.8325167 504.88684,68.06835 379.20634,67.02615 C259.2608,65.5694167 163.331066,61.30714 91.417138,54.23932 C68.3751313,51.9546467 49.395558,49.46519 34.478418,46.77095 L15.67225,42.61645 C5.34025,39.75765 0.116166667,36.7743333 1.42108547e-14,33.6665 C3.13649333,24.1290667 45.9712247,16.1937633 128.504194,9.86059 C211.037205,3.52749667 314.449467,0.240633333 438.74098,-1.13686838e-13 C563.032627,0.2407 666.44499,3.52766667 748.97807,9.8609 C831.51127,16.1941333 874.346117,24.1294833 877.48261,33.66695"/></g><g id="Group" fill="#000" transform="translate(369.949745, 273.460749)"><path id="Path" d="M37.2123653,1.4854514 C31.0187186,-0.485015269 24.6701353,-0.495098602 18.1666153,1.4552014 C12.2088973,3.33093473 7.73814195,6.74070473 4.75434928,11.6845114 C1.39306195,17.0956714 -0.185922718,26.4052014 0.0173952816,39.6131014 L9.14970528,48.4927514 L52.4985353,33.0330514 C54.9991219,26.1421181 54.8790286,20.1390514 52.1382553,15.0238514 C48.6435286,8.2116514 43.6729353,3.7004514 37.2264753,1.4902514"/></g><g id="Group" fill="#000" transform="translate(509.788466, 661.170040)"><path id="Path" d="M12.0081643,0 L6.38670426,18.38516 C2.73477759,21.83672 0.670624259,24.8309733 0.194244259,27.36792 C-0.552235741,31.31408 0.852824259,35.6873933 4.40942426,40.48786 C7.13209759,43.9552267 10.1456876,46.1870367 13.4501943,47.18329 C14.5083343,47.5142033 15.8366009,47.75976 17.4349943,47.91996 C26.7745876,48.04776 32.1367009,48.3954267 33.5213343,48.96296 C34.4970343,48.91976 40.0526009,50.83561 50.1880343,54.71051 C52.0016543,55.30421 53.7608409,55.7700933 55.4655943,56.10816 C62.7889543,57.6138267 70.0367609,55.47956 77.2090143,49.70536 C84.0665609,43.5180267 85.7543676,37.82024 82.2724343,32.612 C81.1803809,31.2375067 79.8294943,30.21846 78.2197743,29.55486 C77.2863143,29.17606 76.4125009,28.88656 75.5983343,28.68636 C70.7888609,27.6944933 67.9037443,27.0388933 66.9429843,26.71956 C64.7543043,25.9952267 63.0462743,25.1114133 61.8188943,24.06812 C58.5480543,21.34448 55.8814909,16.19686 53.8192043,8.62526 L12.1642043,0.03226"/></g><g id="Group" fill="#000" transform="translate(548.789792, 664.779300)"><path id="Shape" d="M14.5376585,4.98490138e-14 C14.1333318,0.5742 14.1331451,0.576066667 14.5370985,0.0056 M14.2100085,0.4833 L5.06176847,13.8445 C2.5322618,12.3155933 0.993265135,12.0590767 0.444778468,13.07495 C-0.205688198,13.79645 -0.142698198,16.2040333 0.633748468,20.2977 L5.03000847,13.89074 L5.10993847,13.9281 C6.55491847,14.8613 8.5956618,16.45265 11.2321685,18.70215 C23.0685818,29.2317167 29.2498651,34.648 29.7760185,34.951 C32.6775985,37.3440667 35.0221218,38.9887567 36.8095885,39.88507 C39.6390885,41.4071233 41.9993285,41.2777667 43.8903085,39.497 C49.2252818,33.865 52.5446951,30.1766867 53.8485485,28.43206 C55.7905018,25.9677067 56.9729751,23.9232733 57.3959685,22.29876 C58.2483285,19.5851867 56.5829851,17.2011333 52.3999385,15.1466 C50.5965318,14.2187067 47.7461785,13.0797067 43.8488785,11.7296 C42.3743651,11.1740267 35.6471818,8.98291 23.6673285,5.15625 C21.4776151,4.43295 19.7964218,3.84668667 18.6237485,3.39746 C15.3585885,2.16502 13.8829185,1.21043333 14.1967385,0.5337"/></g><g id="Group" fill="#000" transform="translate(424.093340, 574.069700)"><polyline id="Path" points="10.964 0 .446 3.483 0 13.192 .009 13.207 11.515 13.483 10.964 .007"/></g><g id="Group" fill="#000" transform="translate(327.181514, 650.048700)"><polyline id="Path" points="191.294 0 0 14.618 1.768 46.533 119.475 53.95 189.183 32.793 191.293 .02"/></g><g id="Group" fill="#000" transform="translate(326.613401, 642.111700)"><polyline id="Path" points="95.716 0 34.904 5.772 0 22.754 121.294 30.718 206.168 11.698 152.822 2.385 95.809 .004"/></g><g id="Group" fill="#000" transform="translate(334.102046, 484.265560)"><path id="Path" d="M2.86968427,0 C-1.99504168,32.4254933 -0.674707792,53.85794 6.83068594,64.29734 C9.76407287,68.4822067 14.309314,71.7671267 20.4664093,74.1521 C23.5653367,75.6747933 32.6415317,77.65386 47.6949943,80.0893 C49.8972263,80.60708 51.867952,81.27751 53.6071713,82.10059 C55.62036,82.6907167 59.8573777,85.9034333 66.3182243,91.73874 C67.8422977,92.79554 69.2428343,93.5610533 70.5198343,94.03528 C74.767871,95.8947 82.597581,96.2263033 94.0089643,95.03009 C133.555878,89.30999 171.903074,84.3132867 209.050554,80.03998 L3.00051774,0.05044"/></g><g id="Group" fill="#FFBE80" transform="translate(441.686035, 431.826300)"><path id="Path" d="M24.491045,0 L0,7.87115 C6.94049,31.78945 12.652295,46.6782 17.135415,52.5374 C21.1172083,58.3874667 25.6128117,60.2452333 30.622225,58.1107 C36.1627917,55.267 39.6246283,49.8585333 41.007735,41.8853 C42.5854017,31.6125667 37.0939783,17.67092 24.533465,0.06036"/></g><g id="Group" fill="#FFF" transform="translate(314.922405, 353.644200)"><path id="Path" d="M47.2090359,0 L45.4662879,7.29043 L11.8011349,26.1229 C3.38689486,44.62932 -0.527813804,58.7275867 0.0570088626,68.4177 C0.0141955293,72.78614 0.580504196,79.0299933 1.75593486,87.14926 L44.3171469,84.65414 C39.1172342,116.891113 36.8830445,138.1119 37.6145779,148.3165 C37.9398332,162.002767 41.2197959,174.50608 47.4544659,185.82644 L144.744595,129.35995 L135.103939,85.606 L155.231935,80.5961 C150.197991,61.4209 143.756218,44.8987233 135.906615,31.02957 L99.8258949,13.3758 L98.8535849,4.555 L47.4698299,0.0231"/></g><g id="Group" fill="#0A55A7" transform="translate(362.032374, 483.098888)"><path id="Shape" d="M169.855016,79.2132121 L176.015876,136.938652 L150.220756,79.3210121 L169.457856,79.2227721 M77.7178664,0.000501945289 C54.8771964,-0.0614545205 36.3254704,5.61217881 22.0626884,17.0219121 C4.47140702,30.7801788 -2.60030931,44.8975121 0.847539354,59.3739121 C23.74526,63.5553321 38.860409,67.0108655 46.1929864,69.7405121 C52.236093,70.7073121 66.4741647,76.3099788 88.9072014,86.5485121 C91.8706047,87.5852455 96.1585484,88.3169955 101.771032,88.7437621 C104.838962,100.266755 107.75092,108.377189 110.506906,113.075062 C131.419666,140.597602 142.66645,156.735339 144.247256,161.488272 C146.574263,165.407459 150.03191,175.157662 154.620196,190.738882 L211.076176,187.080912 C217.820156,109.537645 221.515733,68.0610788 222.162906,62.6512121 C222.884273,56.5003855 222.140493,50.5588021 219.931566,44.8264621 C209.295753,20.1437621 162.042853,5.20297881 78.1728664,0.00411214618 L77.7178664,0.000501945289 Z"/></g><g id="Group" fill="#FFBE80" transform="translate(318.406912, 432.678600)"><path id="Path" d="M42.881462,0 L0,6.3822 C1.72853533,18.4158667 3.954098,28.1129 6.676688,35.4733 C9.01619167,42.10466 13.5161389,50.53326 20.1765297,60.7591 L48.928926,67.27404 C53.1449207,68.2035467 55.4747047,68.60011 55.918278,68.46373 C59.6936087,67.9616167 62.9199097,67.64159 65.597181,67.50365 L99.036848,66.1577 C105.603552,65.8114733 110.700124,65.4107733 114.326563,64.9556 C122.439096,63.9292 126.482131,62.2112333 126.455668,59.8017 C131.449208,64.7425267 136.136916,67.0315267 140.518793,66.6687 C144.02905,66.3023667 147.372595,64.2734533 150.549428,60.58196 C153.376008,57.0201867 154.478675,53.6256133 153.857428,50.39824 C151.979295,44.8325667 145.332088,41.49412 133.915808,40.3829 C130.400208,40.1209 126.638188,40.3673467 122.629748,41.12224 C120.915417,41.3291467 115.447554,42.78618 106.226158,45.49334 C104.261018,45.9795133 102.592328,46.3046867 101.220088,46.46886 C97.5687947,46.96362 93.610888,46.825 89.346368,46.053 C83.1341187,45.2198667 68.3573207,40.0201 45.015974,30.4537 C47.3358493,24.1589667 46.6326677,14.0439433 42.906429,0.10863"/></g><g id="Group" fill="#000" transform="translate(403.691890, 425.005800)"><polyline id="Path" points="191.145 0 100.497 2.347 59.102 72.452 0 71.296 .013 77.593 56.346 87.748 146.015 82.674 149.515 71.994 191.105 .077"/></g><g id="Group" fill="#FFBE80" transform="translate(400.767300, 492.279503)"><path id="Path" d="M30.431125,3.44989655 C29.8063643,2.72005655 26.1403493,1.92798988 19.43308,1.07369655 C11.4289733,0.119803216 6.19112,-0.198496784 3.71952,0.118796549 C2.68737333,0.236729882 1.88503,0.519346549 1.31249,0.966646549 L0,7.23469655 C2.51353667,7.15129655 6.57602,6.88101988 12.18745,6.42386655 C16.8221393,6.05235322 20.5259713,5.69464655 23.298946,5.35074655 C28.4309887,4.71684655 30.8113467,4.08787988 30.44002,3.46384655"/></g><g id="Group" fill="#000" transform="translate(422.700780, 585.191650)"><polyline id="Path" points="14.581 0 0 .244 .243 69.283 17.362 68.873 14.583 .055"/></g><g id="Group" fill="#000" transform="translate(509.959630, 672.886350)"><path id="Path" d="M7.08015,0 C4.96927667,3.23396667 3.51522,5.76896 2.71798,7.60498 C1.86694667,9.45476 0.960953333,12.1850167 0,15.79575 L9.64057,12.81201 L11.04885,1.41651 L7.09819,0.00625"/></g><g id="Group" fill="#E0F" transform="translate(356.605324, 526.301400)"><path id="Path" d="M0,1.13686838e-13 L6.368021,16.60485 C5.980225,13.3440833 5.69510367,11.1324133 5.512657,9.96984 L0.003646,0.0064"/></g><g id="Group" fill="#FFBE80" transform="translate(367.189314, 291.409668)"><path id="Path" d="M24.7060411,0.000932422614 C20.2849978,0.103599089 17.5328618,1.29879909 16.4496331,3.58653242 C16.1070931,4.32869242 15.9201601,5.27390909 15.8888341,6.42218242 C15.8232668,6.84274909 15.9472274,8.78938242 16.2607161,12.2620824 C16.2686641,13.1033491 16.2099791,13.6787991 16.0846611,13.9884324 C15.9317578,14.4870724 15.6380094,14.9182391 15.2034161,15.2819324 L12.4813631,17.0717324 C12.0919484,17.4849724 11.8387771,18.0495724 11.7218491,18.7655324 C11.5986318,19.5321524 11.5761581,20.4111191 11.6544281,21.4024324 L12.2264801,26.1844324 L9.2059161,26.7479824 C9.63792743,24.2605491 7.8106731,21.5449124 3.7241531,18.6010724 C1.9333311,17.6056724 0.792493768,17.8769258 0.301641102,19.4148324 C-0.386943565,22.6192324 0.103394768,27.1303491 1.7726561,32.9481824 C2.29640943,34.5661824 2.8860361,35.7875991 3.5415361,36.6124324 C3.88270477,37.1811924 4.91428277,38.0076458 6.6362701,39.0917924 C6.90311877,39.3234191 7.13689877,39.6133991 7.3376101,39.9617324 C7.82781143,40.8962191 8.13401343,42.2140691 8.2562161,43.9152824 C8.72115143,50.5921158 7.24331343,57.2202491 3.8227021,63.7996824 L24.8072061,71.3947724 L36.9317261,90.7164924 L41.7974061,73.6533324 L42.9644361,61.3803724 C47.4641294,56.8100991 51.2880694,49.2246691 54.4362561,38.6240824 C54.7501868,37.2765491 54.9525534,35.8993124 55.0433561,34.4923724 L55.2635821,25.8474724 L55.9972761,15.4077324 C56.1342294,12.5229324 56.0848894,10.2205791 55.8492561,8.50067242 C55.5090361,5.23904576 54.1726161,3.33814576 51.8399961,2.79797242 C51.1773388,2.61347909 50.3121088,2.51014576 49.2443061,2.48797242 C44.1124994,2.76239242 41.0979794,2.79367909 40.2007461,2.58183242 C39.4334861,2.61736576 35.6959328,1.88319909 28.9880861,0.379332423 C27.4188688,0.114885756 25.9959854,-0.0112942441 24.7194361,1.13686838e-13"/></g><g id="Group" fill="#000" fill-opacity=".235" transform="translate(381.284386, 345.061300)"><path id="Shape" d="M0,0 C0.720346667,0.85236 0.727634667,0.86016 0.021864,0.0234 M0.58414,0.6911 L13.840924,16.6883 L27.350799,8.3356 C22.298833,10.9173533 17.7628553,11.6397867 13.742866,10.5029 C9.86142933,9.37003333 5.483602,6.1083 0.609384,0.7177"/></g><g id="Group" fill="#000" fill-opacity=".118" transform="translate(358.086084, 398.060360)"><path id="Shape" d="M-2.84217094e-14,0 L3.20258,31.69214 C3.643382,28.5967667 3.897622,26.1132867 3.9653,24.2417 C4.057544,22.1353267 3.994976,19.99894 3.777596,17.83254 C3.351166,13.5668733 2.092972,7.62584 0.003014,0.00944 L-2.84217094e-14,0 Z M95.291251,10.47714 L93.811926,39.19064 C94.9832793,36.2095733 95.7881627,33.83734 96.226576,32.07394 C96.744476,30.05464 97.050686,28.0858733 97.145206,26.16764 C97.34669,22.30914 96.7300987,17.0854567 95.295432,10.49659 L95.291251,10.47714 Z M61.002866,69.6944 C54.3863927,69.6944 46.207156,70.3221933 36.465156,71.5777 L88.171586,72.67579 L88.216176,72.6764 C82.060796,71.59196 77.233436,70.85439 73.734096,70.46369 C69.785876,70.00659 66.0069793,69.7533967 62.397406,69.70411 C61.9405593,69.6976367 61.4757127,69.6944 61.002866,69.6944 Z M193.168476,133.93194 L175.927286,158.37799 C180.968173,154.344057 184.505073,150.828207 186.537986,147.83044 C188.861839,144.548173 191.068006,139.927007 193.156486,133.96694 L193.168476,133.93194 Z M108.142976,149.97431 L101.759086,161.74311 C103.420499,161.183863 104.609708,160.65954 105.326712,160.17014 C106.159621,159.631007 106.794083,158.961673 107.230096,158.16214 C108.095736,156.576307 108.400373,153.84914 108.144006,149.98064 L108.142976,149.97431 Z M125.276446,115.45454 C129.735453,117.456607 133.041489,119.373307 135.194556,121.20464 C137.833189,123.347373 140.049629,126.04664 141.843876,129.30244 C145.122729,134.791613 148.585306,146.83848 152.231606,165.44304 L149.736796,126.28034 L125.278916,115.45454 L125.276446,115.45454 Z M112.818716,158.74584 L105.577306,169.54794 L111.331286,166.55604 L112.815636,158.76194 L112.818716,158.74584 Z M180.688586,222.26024 L192.069786,274.49994 C192.362273,267.515807 192.409133,262.209453 192.210366,258.58088 C192.019173,254.41452 191.534729,250.545827 190.757036,246.9748 C189.223076,239.933627 185.870283,231.70102 180.698656,222.27698 L180.688586,222.26024 Z M196.684046,274.04204 C208.088119,280.772773 216.497053,285.982873 221.910846,289.67234 C226.749893,292.94824 230.148276,295.77854 232.105996,298.16324 L224.592586,287.25444 L224.563346,287.2121 L196.687196,274.04204 L196.684046,274.04204 Z M232.117916,298.17764 L234.496896,301.62989 C233.672389,300.232103 232.888783,299.092577 232.146076,298.21131 L232.117916,298.17764 Z"/></g><g id="Group" fill="#FFF" fill-opacity=".384" transform="translate(510.231500, 692.812652)"><path id="Path" d="M80.1456,15.919098 C81.4023,13.219398 80.3853833,10.3933814 77.09485,7.44104804 C73.60657,4.51007471 69.04869,2.47284138 63.42121,1.32934804 C57.0511633,0.161948045 50.48471,0.041481378 43.72185,0.967948045 C41.0822367,1.34368138 38.92345,1.85828138 37.24549,2.51174804 C35.98133,2.99781471 34.5053167,3.98577138 32.81745,5.47561804 C32.4364167,5.67988471 31.9800567,5.78726138 31.44837,5.79774804 C30.7024167,5.80345471 29.63213,5.62470804 28.23751,5.26150804 L16.61185,1.80044804 C14.4874233,1.21851471 12.7607067,0.817381378 11.4317,0.597048045 C7.13085333,-0.117125289 3.32028667,-0.190591955 0,0.376648045 L0.65241,3.60354804 C1.98427,5.99384804 3.14011,7.83824804 4.11993,9.13674804 C6.05785667,11.7118814 8.36747,13.652598 11.04877,14.958898 C11.8494833,15.3310647 12.6945567,15.5882647 13.58399,15.730498 C19.6191567,16.1385314 24.6356167,16.7927814 28.63337,17.693248 C30.59539,18.1303547 32.5459967,18.6332547 34.48519,19.201948 L45.93046,22.797748 C47.7851533,23.3196147 49.5865033,23.747948 51.33451,24.082748 C56.9453567,25.196348 62.49222,25.007548 67.9751,23.516348 C74.27022,21.7007814 78.3126667,19.195148 80.10244,15.999448"/></g><g id="Group" fill="#000" fill-opacity=".996" transform="translate(892.233400, 295.061460)"><path id="Path" d="M1.13686838e-13,1.13686838e-13 L93.6587,1.13686838e-13 L187.31793,1.13686838e-13 L187.31793,401.21338 C124.878643,401.21338 62.4393333,401.21338 1.13686838e-13,401.21338 C1.13686838e-13,267.475587 1.13686838e-13,133.737793 1.13686838e-13,1.13686838e-13"/></g><g id="Group" fill="#222B32" fill-opacity=".996" transform="translate(902.764340, 314.509950)"><path id="Path" d="M0,0 L83.12786,0 L166.25611,0 C166.25611,16.2666 166.25611,32.5327967 166.25611,48.79935 C110.837193,48.79935 55.4185067,48.79935 0,48.79935 C0,32.5328833 0,16.2664333 0,0"/></g><g id="Group" fill="#222B32" fill-opacity=".996" transform="translate(917.003800, 503.987500)"><path id="Path" d="M0,0 L29.2337,0 L58.46696,0 C58.46696,60.7012 58.46696,121.402 58.46696,182.103094 C38.9779333,182.103094 19.489,182.103094 0,182.103094 C0,121.402067 0,60.7010667 0,0"/></g><g id="Group" fill="#222B32" fill-opacity=".996" transform="translate(996.313960, 504.534900)"><polyline id="Path" points="0 0 58.467 .001 58.467 182.103 0 182.103 0 0"/></g><g id="Group" fill="#222B32" fill-opacity=".996" transform="translate(902.764340, 378.006300)"><polyline id="Path" points="0 0 166.256 .001 166.256 48.799 0 48.8 0 0"/></g><g id="Group" fill="#222B32" fill-opacity=".996" transform="translate(902.764340, 440.407900)"><path id="Path" d="M0,1.13686838e-13 L83.12776,1.13686838e-13 L166.25616,0.00067 C166.25616,16.2668633 166.25616,32.5330733 166.25616,48.7993 C110.83738,48.79986 55.41868,48.79986 0,48.79986 C0,32.53318 0,16.2665933 0,1.13686838e-13"/></g><g id="Group" fill="#0A55A7" fill-opacity=".996" transform="translate(1005.391400, 512.343570)"><path id="Path" d="M0,0 L18.18953,0.00036 L36.37886,0.00043 C36.37886,6.00296333 36.37886,12.0053833 36.37886,18.00769 C24.25264,18.0079833 12.1263533,18.00818 0,18.00818 C0,12.0056533 0,6.00292667 0,0"/></g><g id="Group" fill="#0A55A7" fill-opacity=".996" transform="translate(927.157300, 511.952450)"><polyline id="Path" points="0 0 36.379 .001 36.379 18.007 0 18.008 0 0"/></g><g id="Group" fill="#7D8B96" fill-opacity=".996" transform="translate(651.471160, 617.365100)"><path id="Path" d="M-5.68434189e-14,0 L107.31558,0 L214.63114,0.001 C214.63114,25.8064667 214.63114,51.6119433 214.63114,77.41804 C143.087453,77.41804 71.5437533,77.41804 -5.68434189e-14,77.41804 C-5.68434189e-14,51.61208 -5.68434189e-14,25.8060667 -5.68434189e-14,0"/></g><g id="Group" fill="#000101" fill-opacity=".996" transform="translate(657.797060, 622.074700)"><path id="Path" d="M0,0 L100.22931,0 L200.45884,0.00086 C200.45884,22.1179267 200.45884,44.2350533 200.45884,66.35285 C133.63914,66.35285 66.81954,66.35285 0,66.35285 C0,44.2352167 0,22.1176 0,0"/></g><g id="Group" fill="#0A55A7" transform="translate(727.221680, 639.032350)"><path id="Path" d="M8.48038,0 L8.54944,4.79748 L8.61852,9.59545 C5.79178667,9.63605 2.96507,9.67681667 0.13837,9.71775 C0.0922233333,6.51921667 0.0461,3.32065 0,0.12205 C2.82676,0.0813833333 5.65355333,0.0407 8.48038,0"/></g><g id="Group" fill="#0A55A7" transform="translate(714.800720, 639.211200)"><polyline id="Path" points="8.48 0 8.618 9.596 .138 9.718 0 .122 8.48 0"/></g><g id="Group" fill="#0A55A7" transform="translate(727.221680, 650.292600)"><path id="Path" d="M8.48038,0 L8.54942,4.7975 L8.6185,9.59546 C5.79176,9.63622 2.96504,9.67695 0.13834,9.71765 C0.0921933333,6.51901667 0.04608,3.32053333 0,0.1222 C2.82676,0.0814266667 5.65355333,0.0406933333 8.48038,0"/></g><g id="Group" fill="#0A55A7" transform="translate(714.800720, 650.471440)"><polyline id="Path" points="8.48 0 8.618 9.596 .138 9.718 0 .122 8.48 0"/></g><g id="Group" fill="#0A55A7" transform="translate(702.379670, 650.650400)"><path id="Path" d="M8.48038,0 L8.54935,4.7977 L8.61843,9.59545 C5.79171667,9.63615 2.96499667,9.67688 0.13827,9.71764 C0.09221,6.51899333 0.04612,3.32046667 -5.68434189e-14,0.12206 C2.8268,0.0813533333 5.65359333,0.0406666667 8.48038,0"/></g><g id="Group" fill="#F7F297" transform="translate(772.200230, 638.469700)"><path id="Path" d="M8.48031,1.13686838e-13 L8.54937,4.79776 L8.61847,9.59536 C5.79172333,9.63612 2.96498,9.6769 0.13824,9.7177 C0.0921266667,6.5191 0.0460466667,3.32053333 0,0.122 C2.82668,0.0812933333 5.65345,0.0406266667 8.48031,1.13686838e-13"/></g><g id="Group" fill="#F7F297" transform="translate(759.779200, 638.648300)"><polyline id="Path" points="8.48 0 8.618 9.596 .138 9.718 0 .122 8.48 0"/></g><g id="Group" fill="#F7F297" transform="translate(747.358200, 638.827400)"><path id="Path" d="M8.48036,0 L8.5494,4.79797 L8.61836,9.5956 C5.79168,9.6362 2.965,9.67692333 0.13832,9.71777 C0.0921733333,6.51912333 0.0460666667,3.32055333 0,0.12206 C2.82677333,0.0812866667 5.65356,0.0406 8.48036,0"/></g><g id="Group" fill="#F7F297" transform="translate(772.200230, 649.729860)"><path id="Path" d="M8.48031,1.13686838e-13 L8.54937,4.79761 L8.61843,9.59544 C5.79169,9.63624 2.96495,9.67694 0.13821,9.71754 C0.0921166667,6.51904667 0.0460466667,3.32054667 -5.68434189e-14,0.12204 C2.82668,0.0813733333 5.65345,0.0406933333 8.48031,1.13686838e-13"/></g><g id="Group" fill="#F7F297" transform="translate(759.779200, 649.908800)"><polyline id="Path" points="8.48 0 8.618 9.595 .138 9.718 0 .122 8.48 0"/></g><g id="Group" fill="#F7F297" transform="translate(747.358200, 650.087900)"><path id="Path" d="M8.48036,0 L8.54933,4.7975 L8.6183,9.5953 C5.79162,9.63600667 2.96494,9.67674 0.13826,9.7175 C0.09212,6.51903333 0.0460333333,3.32051333 0,0.12194 C2.82677333,0.08118 5.65356,0.0405333333 8.48036,0"/></g><g id="Group" fill="#3C464F" fill-opacity=".996" transform="translate(698.758400, 671.165650)"><path id="Path" d="M-5.68434189e-14,1.13686838e-13 L56.36404,0.00035 L112.72823,0.00055 C112.72823,1.98575 112.72823,3.97094 112.72823,5.95612 C75.1521033,5.95620667 37.5760267,5.95638333 -5.68434189e-14,5.95665 C-5.68434189e-14,3.97098333 -5.68434189e-14,1.98543333 -5.68434189e-14,1.13686838e-13"/></g><g id="Group" fill="#7D8B96" fill-opacity=".996" transform="translate(649.961730, 536.802200)"><path id="Path" d="M0,-1.13686838e-13 L107.31557,-1.13686838e-13 L214.63117,-1.13686838e-13 C214.63117,25.8062133 214.63117,51.61176 214.63117,77.4179 C143.087437,77.4179 71.5437133,77.4179 0,77.4179 C0,51.6118667 0,25.8059 0,-1.13686838e-13"/></g><g id="Group" fill="#000101" fill-opacity=".996" transform="translate(656.287570, 541.511540)"><path id="Path" d="M5.68434189e-14,0 L100.2294,0 L200.45883,0 C200.45883,22.1177933 200.45883,44.23496 200.45883,66.35216 C133.63921,66.3529 66.8196,66.3529 5.68434189e-14,66.3529 C5.68434189e-14,44.23534 5.68434189e-14,22.1177067 5.68434189e-14,0"/></g><g id="Group" fill="#F7F297" transform="translate(662.132970, 546.743840)"><path id="Path" d="M0,0.138 L4.79773,0.06903 L9.59548,1.13686838e-13 C9.63621333,2.82657333 9.67696333,5.65321 9.71773,8.47991 C6.51921,8.52614333 3.32068667,8.57239333 0.12216,8.61866 C0.0814066667,5.79179333 0.0406866667,2.96490667 0,0.138"/></g><g id="Group" fill="#3B454E" transform="translate(662.311920, 559.164700)"><polyline id="Path" points="0 .138 9.596 0 9.718 8.48 .122 8.619 0 .138"/></g><g id="Group" fill="#3B454E" transform="translate(662.490800, 571.585630)"><path id="Path" d="M5.68434189e-14,0.13857 L4.7977,0.06922 L9.5955,0 C9.63627333,2.82682667 9.67698667,5.65363 9.71764,8.48041 C6.51913333,8.52638333 3.32061333,8.57248667 0.12208,8.61872 C0.0813933333,5.79197333 0.0407,2.96525667 5.68434189e-14,0.13857"/></g><g id="Group" fill="#3B454E" transform="translate(674.277770, 546.743840)"><path id="Path" d="M0,0.13796 L4.79779,0.06903 L9.59555,-1.13686838e-13 C9.63632333,2.82657333 9.67704333,5.65321 9.71771,8.47991 C6.51919,8.52614333 3.32065333,8.57236 0.1221,8.61856 C0.0814133333,5.79171333 0.0407133333,2.96484667 0,0.13796"/></g><g id="Group" fill="#3B454E" transform="translate(674.456670, 559.164700)"><polyline id="Path" points="0 .138 9.596 0 9.718 8.48 .122 8.619 0 .138"/></g><g id="Group" fill="#3B454E" transform="translate(674.635530, 571.585630)"><path id="Path" d="M0,0.13843 L4.79787,0.06922 L9.5957,0 C9.63634667,2.82682667 9.67704667,5.65363 9.7178,8.48041 C6.51927333,8.52638333 3.32073,8.57243667 0.12217,8.61857 C0.0815033333,5.79183667 0.04078,2.96512333 0,0.13843"/></g><g id="Group" fill="#F7F297" transform="translate(686.422670, 546.743900)"><path id="Path" d="M5.68434189e-14,0.13794 L4.79779,0.069 L9.59558,-1.13686838e-13 C9.63624667,2.82657333 9.67696333,5.65320667 9.71773,8.4799 C6.51917,8.52616667 3.32061667,8.5724 0.12207,8.6186 C0.0813766667,5.79173333 0.0406866667,2.96484667 5.68434189e-14,0.13794"/></g><g id="Group" fill="#3B454E" transform="translate(686.601530, 559.164730)"><polyline id="Path" points="0 .138 9.596 0 9.718 8.48 .122 8.619 0 .138"/></g><g id="Group" fill="#3B454E" transform="translate(686.780460, 571.585700)"><path id="Path" d="M0,0.1384 L4.79776,0.0692 L9.59564,0 C9.63630667,2.8268 9.67701667,5.6536 9.71777,8.4804 C6.51921667,8.5264 3.32067333,8.57246667 0.12214,8.6186 C0.08142,5.79186667 0.0407066667,2.96513333 0,0.1384"/></g><g id="Group" fill="#FF1300" transform="translate(725.712130, 558.469200)"><path id="Path" d="M8.48034,0 L8.54937,4.7975 L8.61847,9.5955 C5.79173667,9.63623333 2.96502333,9.67693333 0.13833,9.7176 C0.09219,6.51909333 0.04608,3.32057667 0,0.12205 C2.82674,0.0814366667 5.65352,0.0407533333 8.48034,0"/></g><g id="Group" fill="#0A55A7" transform="translate(713.291170, 558.648300)"><polyline id="Path" points="8.48 0 8.618 9.595 .138 9.717 0 .122 8.48 0"/></g><g id="Group" fill="#0A55A7" transform="translate(700.870200, 558.826900)"><path id="Path" d="M8.48032,0 L8.54933,4.7977 L8.61836,9.5956 C5.79168,9.6362 2.96500667,9.6769 0.13834,9.7177 C0.09222,6.51926667 0.0461066667,3.32076667 -5.68434189e-14,0.1222 C2.82674667,0.0814666667 5.65352,0.0407333333 8.48032,0"/></g><g id="Group" fill="#FF1300" transform="translate(725.712130, 569.729400)"><path id="Path" d="M8.48034,1.13686838e-13 L8.54937,4.79776 L8.61847,9.59573 C5.79173667,9.63642333 2.96502333,9.67709333 0.13833,9.71774 C0.09219,6.51921333 0.04608,3.32073333 0,0.1223 C2.82674,0.0815666667 5.65352,0.0408 8.48034,1.13686838e-13"/></g><g id="Group" fill="#0A55A7" transform="translate(713.291170, 569.908450)"><polyline id="Path" points="8.48 0 8.618 9.596 .138 9.718 0 .122 8.48 0"/></g><g id="Group" fill="#0A55A7" transform="translate(700.870200, 570.087160)"><path id="Path" d="M8.48032,0 L8.54933,4.79784 L8.61845,9.5957 C5.79171,9.63639333 2.96500667,9.67708333 0.13834,9.71777 C0.09222,6.51924333 0.0461066667,3.32065667 -5.68434189e-14,0.12201 C2.82674667,0.0813166667 5.65352,0.0406466667 8.48032,0"/></g><g id="Group" fill="#F7F297" transform="translate(770.690580, 557.906560)"><path id="Path" d="M8.4805,0 L8.54942,4.79774 L8.61847,9.59544 C5.79177,9.63617333 2.96508667,9.67689 0.13842,9.71759 C0.0923066667,6.51905667 0.0461666667,3.32054 0,0.12204 C2.82681333,0.0813733333 5.65364667,0.0406933333 8.4805,0"/></g><g id="Group" fill="#F7F297" transform="translate(758.269700, 558.085450)"><polyline id="Path" points="8.48 0 8.618 9.596 .138 9.718 0 .122 8.48 0"/></g><g id="Group" fill="#F7F297" transform="translate(745.848630, 558.264100)"><path id="Path" d="M8.48032,0 L8.54941,4.79803 L8.61844,9.5957 C5.79176,9.63639333 2.96505,9.67710333 0.13831,9.71783 C0.09223,6.51934333 0.0461266667,3.32081667 0,0.12225 C2.82680667,0.0814833333 5.65358,0.0407333333 8.48032,0"/></g><g id="Group" fill="#F7F297" transform="translate(770.690580, 569.166700)"><path id="Path" d="M8.4805,0 L8.54942,4.79784 L8.6185,9.5956 C5.79178,9.63630667 2.96508667,9.67707333 0.13842,9.7179 C0.0923066667,6.51923333 0.0461666667,3.32068 5.68434189e-14,0.12224 C2.82681333,0.0815466667 5.65364667,0.0408 8.4805,0"/></g><g id="Group" fill="#F7F297" transform="translate(758.269700, 569.345760)"><polyline id="Path" points="8.48 0 8.618 9.596 .138 9.718 0 .122 8.48 0"/></g><g id="Group" fill="#F7F297" transform="translate(745.848630, 569.524500)"><path id="Path" d="M8.48032,0 L8.54941,4.7978 L8.61844,9.59574 C5.79176,9.63622667 2.96507,9.67688 0.13837,9.7177 C0.09225,6.51916667 0.0461266667,3.32061667 0,0.12205 C2.82680667,0.0813166667 5.65358,0.0406333333 8.48032,0"/></g><g id="Group" fill="#3C464F" fill-opacity=".996" transform="translate(697.248930, 590.602700)"><path id="Path" d="M0,0 L56.36407,0.0001 L112.72817,0.0006 C112.72817,1.98576667 112.72817,3.97093333 112.72817,5.9561 C75.1521033,5.9561 37.5760467,5.95621333 0,5.95644 C0,3.97101333 0,1.98553333 0,0"/></g><g id="Group" fill="#7D8B96" fill-opacity=".996" transform="translate(650.264300, 456.732100)"><path id="Path" d="M5.68434189e-14,0 L107.31563,0 L214.6312,0.0009 C214.6312,25.8065467 214.6312,51.6121133 214.6312,77.4181 C143.087507,77.4181 71.5437867,77.4181 5.68434189e-14,77.4181 C5.68434189e-14,51.6122 5.68434189e-14,25.8061667 5.68434189e-14,0"/></g><g id="Group" fill="#000101" fill-opacity=".996" transform="translate(656.590150, 461.441600)"><path id="Path" d="M0,0 L100.22943,0 L200.4588,0 C200.4588,22.1178867 200.4588,44.2351 200.4588,66.3523 C133.639233,66.3525333 66.8196433,66.3532 0,66.3532 C0,44.23544 0,22.1177067 0,0"/></g><g id="Group" fill="#FF2C00" fill-opacity=".996" transform="translate(662.435670, 466.674000)"><path id="Path" d="M5.68434189e-14,0.1382 L4.79776,0.0689 L9.59558,0 C9.63622667,2.82662667 9.67691667,5.65336 9.71765,8.4802 C6.51914333,8.52616 3.32062667,8.57221333 0.1221,8.61836 C0.0813666667,5.79162 0.0406666667,2.9649 5.68434189e-14,0.1382"/></g><g id="Group" fill="#FF2C00" fill-opacity=".996" transform="translate(662.614500, 479.094900)"><polyline id="Path" points="0 .138 9.596 0 9.718 8.48 .122 8.619 0 .138"/></g><g id="Group" fill="#FF2C00" fill-opacity=".996" transform="translate(662.793370, 491.515800)"><path id="Path" d="M0,0.13844 L4.79779,0.0693 L9.59561,0 C9.63633667,2.82673333 9.67707667,5.65351667 9.71783,8.48035 C6.51928333,8.52649667 3.32075667,8.57264667 0.12225,8.6188 C0.0815166667,5.792 0.0407666667,2.96521333 0,0.13844"/></g><g id="Group" fill="#FF2C00" fill-opacity=".996" transform="translate(674.580400, 466.674000)"><path id="Path" d="M5.68434189e-14,0.13813 L4.79777,0.0689 L9.5956,0 C9.63633333,2.82662667 9.67707333,5.65336 9.71782,8.4802 C6.51927333,8.52616 3.32071667,8.57219333 0.12215,8.6183 C0.0814166667,5.79156667 0.0407,2.96484333 5.68434189e-14,0.13813"/></g><g id="Group" fill="#FF2C00" fill-opacity=".996" transform="translate(674.759340, 479.094900)"><polyline id="Path" points="0 .138 9.596 0 9.718 8.48 .122 8.619 0 .138"/></g><g id="Group" fill="#FF2C00" fill-opacity=".996" transform="translate(674.938230, 491.515800)"><path id="Path" d="M0,0.1384 L4.79782,0.0693 L9.59557,1.13686838e-13 C9.63635,2.82673333 9.67709667,5.65351667 9.71781,8.48035 C6.51921667,8.52649667 3.32063667,8.5726 0.12207,8.61866 C0.0814033333,5.79188667 0.0407133333,2.96513333 0,0.1384"/></g><g id="Group" fill="#FF2C00" fill-opacity=".996" transform="translate(686.725250, 466.674100)"><path id="Path" d="M5.68434189e-14,0.1381 L4.79782,0.0689 L9.59565,0 C9.63638333,2.8266 9.67711,5.65331333 9.71783,8.48014 C6.51928333,8.52616 3.32074667,8.5722 0.12222,8.61826 C0.0814533333,5.79152 0.0407133333,2.9648 5.68434189e-14,0.1381"/></g><g id="Group" fill="#FF2C00" fill-opacity=".996" transform="translate(686.904240, 479.095000)"><polyline id="Path" points="0 .138 9.596 0 9.718 8.48 .122 8.618 0 .138"/></g><g id="Group" fill="#FF2C00" fill-opacity=".996" transform="translate(687.083070, 491.515870)"><path id="Path" d="M0,0.13837 L4.79785,0.06927 L9.59567,0 C9.63640333,2.82675333 9.67710333,5.65353 9.71777,8.48033 C6.51924333,8.52646333 3.32069667,8.57256333 0.12213,8.61863 C0.0813966667,5.79186333 0.0406866667,2.96511 0,0.13837"/></g><g id="Group" fill="#0A55A7" transform="translate(726.014740, 478.399200)"><path id="Path" d="M8.48036,0 L8.54938,4.79794 L8.6185,9.59555 C5.79176,9.63618333 2.96504667,9.67685333 0.13836,9.71756 C0.09224,6.51912 0.04612,3.32063333 5.68434189e-14,0.1221 C2.8268,0.0814133333 5.65358667,0.0407133333 8.48036,0"/></g><g id="Group" fill="#0A55A7" transform="translate(713.593780, 478.578100)"><polyline id="Path" points="8.48 0 8.619 9.596 .138 9.718 0 .122 8.48 0"/></g><g id="Group" fill="#0A55A7" transform="translate(701.172800, 478.756960)"><path id="Path" d="M8.48034,0 L8.54937,4.79797 L8.6184,9.5957 C5.79168,9.63635333 2.96499,9.67704333 0.13833,9.71777 C0.0922233333,6.51928333 0.0461133333,3.32075667 5.68434189e-14,0.12219 C2.82677333,0.0814566667 5.65355333,0.0407266667 8.48034,0"/></g><g id="Group" fill="#0A55A7" transform="translate(726.014740, 489.659670)"><path id="Path" d="M8.48036,0 L8.54938,4.79767 L8.6185,9.59553 C5.79176,9.63619667 2.96504667,9.67689667 0.13836,9.71763 C0.09224,6.51919667 0.04612,3.32067667 5.68434189e-14,0.12207 C2.8268,0.0813766667 5.65358667,0.0406866667 8.48036,0"/></g><g id="Group" fill="#0A55A7" transform="translate(713.593780, 489.838500)"><polyline id="Path" points="8.48 0 8.619 9.595 .138 9.718 0 .122 8.48 0"/></g><g id="Group" fill="#0A55A7" transform="translate(701.172800, 490.017330)"><path id="Path" d="M8.48034,0 L8.54937,4.79787 L8.6184,9.59557 C5.79168,9.63627 2.96499,9.67700333 0.13833,9.71777 C0.0922233333,6.51917 0.0461133333,3.32063667 5.68434189e-14,0.12217 C2.82677333,0.08137 5.65355333,0.0406466667 8.48034,0"/></g><g id="Group" fill="#F7F297" transform="translate(770.993320, 477.836600)"><path id="Path" d="M8.48031,-1.13686838e-13 L8.54938,4.79786 L8.61848,9.59547 C5.79170667,9.63619667 2.96499,9.67690667 0.13833,9.7176 C0.0921633333,6.51906667 0.0460533333,3.32053333 5.68434189e-14,0.122 C2.8268,0.08136 5.65357,0.0406933333 8.48031,-1.13686838e-13"/></g><g id="Group" fill="#F7F297" transform="translate(758.572330, 478.015500)"><polyline id="Path" points="8.48 0 8.618 9.596 .138 9.718 0 .122 8.48 0"/></g><g id="Group" fill="#F7F297" transform="translate(746.151340, 478.194300)"><path id="Path" d="M8.48031,1.13686838e-13 L8.54936,4.79795 L8.61846,9.5956 C5.79174,9.63626667 2.96502,9.67696667 0.1383,9.7177 C0.0922066667,6.51912667 0.0461066667,3.32061667 0,0.12217 C2.82676,0.0814566667 5.65353,0.0407333333 8.48031,1.13686838e-13"/></g><g id="Group" fill="#F7F297" transform="translate(770.993320, 489.096740)"><path id="Path" d="M8.48031,0 L8.54938,4.79791 L8.61848,9.59586 C5.79170667,9.63656667 2.96499,9.67724667 0.13833,9.7179 C0.0921633333,6.51945333 0.0460533333,3.32090667 5.68434189e-14,0.12226 C2.8268,0.0815666667 5.65357,0.0408133333 8.48031,0"/></g><g id="Group" fill="#F7F297" transform="translate(758.572330, 489.275700)"><polyline id="Path" points="8.48 0 8.618 9.595 .138 9.718 0 .122 8.48 0"/></g><g id="Group" fill="#F7F297" transform="translate(746.151340, 489.454500)"><path id="Path" d="M8.48031,0 L8.54936,4.798 L8.61846,9.5958 C5.79174,9.63644667 2.96502,9.67714667 0.1383,9.7179 C0.0922066667,6.51947333 0.0461066667,3.32085333 0,0.12204 C2.82676,0.0813866667 5.65353,0.0407066667 8.48031,0"/></g><g id="Group" fill="#3C464F" fill-opacity=".996" transform="translate(697.551500, 510.532960)"><path id="Path" d="M-5.68434189e-14,0 L56.36415,0.00018 L112.7283,0.00024 C112.7283,1.98550667 112.7283,3.97071667 112.7283,5.95587 C75.1522,5.95611667 37.5761,5.95630667 -5.68434189e-14,5.95644 C-5.68434189e-14,3.97087333 -5.68434189e-14,1.98539333 -5.68434189e-14,0"/></g><g id="Group" fill="#7D8B96" fill-opacity=".996" transform="translate(648.754820, 376.169100)"><path id="Path" d="M0,1.13686838e-13 L107.31558,1.13686838e-13 L214.63118,0.0008 C214.63118,25.8063533 214.63118,51.61184 214.63118,77.418 C143.087427,77.418 71.5437,77.418 0,77.418 C0,51.612 0,25.806 0,1.13686838e-13"/></g><g id="Group" fill="#000101" fill-opacity=".996" transform="translate(655.080700, 380.878540)"><path id="Path" d="M0,0 L100.22936,0 L200.458743,0.00079 C200.458743,22.1178367 200.458743,44.2349433 200.458743,66.35276 C133.63912,66.35276 66.8195533,66.35276 0,66.35276 C0,44.2352933 0,22.1177067 0,0"/></g><g id="Group" fill="#3B454E" transform="translate(661.105040, 398.531700)"><polyline id="Path" points="0 .138 9.596 0 9.718 8.48 .122 8.619 0 .138"/></g><g id="Group" fill="#3B454E" transform="translate(661.283970, 410.952700)"><path id="Path" d="M0,0.13824 L4.7977,0.06915 L9.59546,0 C9.63622667,2.82666667 9.67696667,5.65334667 9.71768,8.48004 C6.51909333,8.52628 3.32055667,8.57246667 0.12207,8.6186 C0.0813766667,5.79189333 0.0406866667,2.96510667 0,0.13824"/></g><g id="Group" fill="#3B454E" transform="translate(673.249800, 398.531700)"><polyline id="Path" points="0 .138 9.596 0 9.718 8.48 .122 8.619 0 .138"/></g><g id="Group" fill="#3B454E" transform="translate(673.428740, 410.952700)"><path id="Path" d="M5.68434189e-14,0.1381 L4.79779,0.06915 L9.59561,0 C9.63632333,2.82666667 9.67703333,5.65334667 9.71774,8.48004 C6.51919333,8.52628 3.32064667,8.57242333 0.1221,8.61847 C0.0813933333,5.79172333 0.0406933333,2.96493333 5.68434189e-14,0.1381"/></g><g id="Group" fill="#3B454E" transform="translate(685.573550, 410.952760)"><path id="Path" d="M0,0.13814 L4.79785,0.06914 L9.59561,0 C9.63631667,2.82666 9.67703667,5.65334 9.71777,8.48004 C6.51924333,8.52626667 3.32071667,8.5724 0.12219,8.61844 C0.0814766667,5.79170667 0.0407466667,2.96494 0,0.13814"/></g><g id="Group" fill="#FF1300" transform="translate(724.505340, 397.836060)"><path id="Path" d="M8.48032,1.13686838e-13 L8.54932,4.79774 L8.61844,9.5957 C5.79165333,9.63639333 2.96494333,9.67712667 0.13831,9.7179 C0.09221,6.51928667 0.0461066667,3.32066667 -5.68434189e-14,0.12204 C2.82670667,0.0815333333 5.65348,0.0408533333 8.48032,1.13686838e-13"/></g><g id="Group" fill="#0A55A7" transform="translate(712.084300, 398.014900)"><polyline id="Path" points="8.48 0 8.618 9.596 .138 9.718 0 .122 8.48 0"/></g><g id="Group" fill="#0A55A7" transform="translate(699.663300, 398.193850)"><path id="Path" d="M8.48032,0 L8.54938,4.79775 L8.61844,9.59565 C5.79172,9.63621 2.96500667,9.67687667 0.1383,9.71765 C0.0922,6.51918333 0.0461,3.32065 -5.68434189e-14,0.12205 C2.8268,0.0813833333 5.65357333,0.0407 8.48032,0"/></g><g id="Group" fill="#FF1300" transform="translate(724.505340, 409.096440)"><path id="Path" d="M8.48032,0 L8.54932,4.79773 L8.61844,9.59552 C5.79165333,9.63624667 2.96494333,9.67703667 0.13831,9.71789 C0.09221,6.51933667 0.0461066667,3.32072667 -5.68434189e-14,0.12206 C2.82670667,0.08146 5.65348,0.0407733333 8.48032,0"/></g><g id="Group" fill="#0A55A7" transform="translate(712.084300, 409.275500)"><polyline id="Path" points="8.48 0 8.618 9.595 .138 9.717 0 .122 8.48 0"/></g><g id="Group" fill="#0A55A7" transform="translate(699.663300, 409.454000)"><path id="Path" d="M8.48032,0 L8.54938,4.79795 L8.61844,9.5956 C5.79172,9.63626667 2.96500667,9.67703333 0.1383,9.7179 C0.0922,6.5194 0.0461,3.32083333 -5.68434189e-14,0.1222 C2.8268,0.0815333333 5.65357333,0.0408 8.48032,0"/></g><g id="Group" fill="#F7F297" transform="translate(769.483800, 397.273400)"><path id="Path" d="M8.48034,0 L8.5494,4.79764 L8.61853,9.5956 C5.79172333,9.63642667 2.96501333,9.67716 0.1384,9.7178 C0.0922133333,6.51924 0.04608,3.32069667 0,0.12217 C2.82676,0.0814766667 5.65354,0.0407533333 8.48034,0"/></g><g id="Group" fill="#F7F297" transform="translate(757.062870, 397.452400)"><polyline id="Path" points="8.48 0 8.618 9.595 .138 9.718 0 .122 8.48 0"/></g><g id="Group" fill="#F7F297" transform="translate(744.641800, 397.631000)"><path id="Path" d="M8.48042,0 L8.54942,4.798 L8.61848,9.5958 C5.79176,9.63649333 2.96505,9.67720667 0.13835,9.71794 C0.09217,6.51944667 0.0460533333,3.32087667 0,0.12223 C2.82673333,0.0814766667 5.65354,0.0407333333 8.48042,0"/></g><g id="Group" fill="#F7F297" transform="translate(769.483800, 408.533700)"><path id="Path" d="M8.48034,0 L8.5494,4.7978 L8.61853,9.5957 C5.79172333,9.63634667 2.96501333,9.67704667 0.1384,9.7178 C0.0922133333,6.5192 0.04608,3.32068 0,0.12224 C2.82676,0.0816133333 5.65354,0.0408666667 8.48034,0"/></g><g id="Group" fill="#F7F297" transform="translate(757.062870, 408.712770)"><polyline id="Path" points="8.48 0 8.618 9.596 .138 9.718 0 .122 8.48 0"/></g><g id="Group" fill="#F7F297" transform="translate(744.641800, 408.891240)"><path id="Path" d="M8.48042,1.13686838e-13 L8.54942,4.79796 L8.61848,9.59576 C5.79176,9.63642667 2.96505,9.67717667 0.13835,9.71801 C0.09225,6.51951 0.0461333333,3.32096 0,0.12236 C2.82673333,0.0816266667 5.65354,0.04084 8.48042,1.13686838e-13"/></g><g id="Group" fill="#3C464F" fill-opacity=".996" transform="translate(696.041960, 429.969800)"><path id="Path" d="M0,0 L56.3642,0 L112.72836,0.0003 C112.72836,1.98560667 112.72836,3.97084 112.72836,5.956 C75.1522267,5.95606667 37.5761133,5.95616667 0,5.9563 C0,3.97094 0,1.98550667 0,0"/></g><g id="Group" fill="#000509" fill-opacity=".996" transform="translate(812.799260, 336.962080)"><path id="Path" d="M0.5,0.49992 L0.5,0.50008 L0.5,0.50008 L0.5,0.50008 L0.5,0.49992 L0.5,0.50008 L0.5,0.50008 C0.5,0.50008 0.5,0.500026667 0.5,0.49992"/></g></g></g></svg>