<svg xmlns="http://www.w3.org/2000/svg" xmlns:xlink="http://www.w3.org/1999/xlink" width="5556" height="2621" version="1.1" viewBox="0 0 5556 2621"><title>Free Distance Learning Illustration (SVG)</title><g id="Page-1" fill="none" fill-rule="evenodd" stroke="none" stroke-width="1"><g id="Free-Distance-Learning-Illustration-(SVG)"><rect id="扩展" width="5556" height="2621" x="0" y="0"/><g id="scene" fill="#F2EEEE" fill-rule="nonzero" transform="translate(1587.811887, 891.589893)"><path id="Path" d="M952.188113,177.410107 C1157.18811,368.530107 1459.96811,804.240107 1293.18811,1056.41011 C1114.51811,1326.55011 539.828113,1170.10011 509.188113,1161.41011 C284.328113,1097.63011 -8.4818872,933.150107 0.188112801,767.410107 C5.7881128,660.260107 133.378113,629.590107 154.188113,467.410107 C170.948113,336.830107 95.1881128,302.280107 122.188113,212.410107 C168.508113,58.0601067 452.128113,-40.7998933 681.688113,16.4101067 C730.858113,28.6601067 826.568113,60.2901067 952.188113,177.410107 Z"/></g><g id="illustration" transform="translate(1523.570000, 799.187149)"><path id="Path" fill="#FFF" fill-rule="nonzero" stroke="#02000E" stroke-width="2.5" d="M842.43,1270.99285 L99,1270.99285 L99,1074.20285 L842.43,1074.20285 C836.31,1080.13285 797.84,1118.74285 800.52,1178.71285 C802.88,1231.21285 835.14,1263.93285 842.43,1270.99285 Z"/><path id="Path" fill="#0C2159" fill-rule="nonzero" d="M128.16,1045.95285 C58.2186593,1045.95285 1.52,1102.65151 1.52,1172.59285 C1.52,1242.53419 58.2186593,1299.23285 128.16,1299.23285 L880.43,1299.23285 L880.43,1267.35285 L231.43,1267.35285 C169.66,1267.35285 119.43,1224.84285 119.43,1172.59285 C119.43,1120.34285 169.61,1077.81285 231.43,1077.81285 L880.43,1077.81285 L880.43,1045.92285 L128.16,1045.95285 Z"/><path id="Path" fill="#191919" fill-rule="nonzero" d="M880.43,1299.23285 L128.16,1299.23285 C58.2186593,1299.23285 1.52,1242.53419 1.52,1172.59285 C1.52,1102.65151 58.2186593,1045.95285 128.16,1045.95285 L880.43,1045.95285 L880.43,1077.81285 L881.95,1077.81285 L881.95,1044.40285 L128.16,1044.40285 C57.3791865,1044.40285 -2.55795385e-13,1101.78204 -2.55795385e-13,1172.56285 L-2.55795385e-13,1172.56285 C-2.55795385e-13,1206.553 13.5025327,1239.15099 37.5371949,1263.18566 C61.5718572,1287.22032 94.1698547,1300.72285 128.16,1300.72285 L881.93,1300.72285 L881.93,1267.32285 L880.43,1267.32285 L880.43,1299.23285 Z"/><path id="Path" fill="#02000E" fill-rule="nonzero" d="M119.35,1172.59285 C119.35,1224.84285 169.61,1267.35285 231.35,1267.35285 L880.35,1267.35285 L880.35,1265.81285 L231.43,1265.81285 C170.43,1265.81285 120.92,1224.07285 120.92,1172.57285 L120.92,1172.57285 C120.92,1121.08285 170.4,1079.34285 231.43,1079.34285 L880.43,1079.34285 L880.43,1077.81285 L231.43,1077.81285 C169.61,1077.81285 119.35,1120.35285 119.35,1172.59285 Z"/><line id="Path" x1="132.98" x2="807.5" y1="1130.113" y2="1130.113" stroke="#0A0A0A" stroke-linecap="round" stroke-linejoin="round" stroke-width="2.5"/><line id="Path" x1="125.69" x2="800.21" y1="1187.213" y2="1187.213" stroke="#0A0A0A" stroke-linecap="round" stroke-linejoin="round" stroke-width="2.5"/><path id="Path" fill="#FFF" fill-rule="nonzero" stroke="#02000E" stroke-width="2.5" d="M284.87,1014.67285 L1028.31,1014.67285 L1028.31,817.882851 L284.87,817.882851 C290.98,823.812851 329.45,862.422851 326.77,922.392851 C324.43,974.892851 292.17,1007.61285 284.87,1014.67285 Z"/><path id="Path" fill="#1256A7" fill-rule="nonzero" d="M999.15,789.642851 C1069.09134,789.642851 1125.78999,846.341512 1125.78999,916.282851 C1125.78999,986.224189 1069.09134,1042.92285 999.15,1042.92285 L246.9,1042.92285 L246.9,1011.03285 L895.9,1011.03285 C957.67,1011.03285 1007.9,968.522851 1007.9,916.282851 C1007.9,864.042851 957.65,821.522851 895.9,821.522851 L246.9,821.522851 L246.9,789.642851 L999.15,789.642851 Z"/><path id="Path" fill="#02000E" fill-rule="nonzero" d="M1007.96,916.282851 C1007.96,968.522851 957.71,1011.03285 895.96,1011.03285 L246.96,1011.03285 L246.96,1009.51285 L895.96,1009.51285 C956.96,1009.51285 1006.46,967.772851 1006.46,916.282851 L1006.46,916.282851 C1006.46,864.782851 956.99,823.042851 895.96,823.042851 L246.96,823.042851 L246.96,821.522851 L895.96,821.522851 C957.71,821.522851 1007.96,864.032851 1007.96,916.282851 Z"/><line id="Path" x1="994.33" x2="319.82" y1="873.793" y2="873.793" stroke="#0A0A0A" stroke-linecap="round" stroke-linejoin="round" stroke-width="2.5"/><line id="Path" x1="1001.62" x2="327.11" y1="930.893" y2="930.893" stroke="#0A0A0A" stroke-linecap="round" stroke-linejoin="round" stroke-width="2.5"/><path id="Path" fill="#FEB5CA" fill-rule="nonzero" d="M1099.08,638.942851 C1099.08,638.942851 1164.75,632.442851 1184.16,661.552851 C1203.57,690.662851 1205.16,750.972851 1205.16,750.972851 L1078.16,744.382851"/><path id="Path" fill="#1256A7" fill-rule="nonzero" d="M734.89,260.152851 L764.28,276.812851 C788.43489,290.494058 806.394076,312.951097 814.43,339.522851 L893.08,599.612851 L1099.08,638.942851 C1099.08,638.942851 1102.08,765.282851 1099.08,765.282851 C1096.08,765.282851 768.68,716.022851 768.68,716.022851 L718.08,441.402851"/><line id="Path" x1="817.74" x2="778.94" y1="698.113" y2="348.123" stroke="#161616" stroke-linecap="round" stroke-linejoin="round" stroke-width="2"/><path id="Path" fill="#161616" fill-rule="nonzero" d="M1299.53,1193.63285 L1381.96,1256.55285 C1400.19,1270.47285 1390.35,1299.55285 1367.4,1299.55285 L1149.18,1299.55285 C1142.52291,1299.54738 1136.16717,1296.77713 1131.63167,1291.90413 C1127.09618,1287.03113 1124.78845,1280.49322 1125.26,1273.85285 L1131.03,1193.58285 L1299.53,1193.63285 Z"/><path id="Path" fill="#212121" fill-rule="nonzero" d="M1113.26,1193.63285 L1195.68,1256.55285 C1213.92,1270.47285 1204.07,1299.55285 1181.13,1299.55285 L962.91,1299.55285 C956.252914,1299.54738 949.897166,1296.77713 945.361674,1291.90413 C940.826181,1287.03113 938.518454,1280.49322 938.99,1273.85285 L944.76,1193.58285 L1113.26,1193.63285 Z"/><path id="Path" fill="#D5D4D7" fill-rule="nonzero" d="M656.26,688.412851 L668.26,770.352851 C676.048084,823.582982 721.70315,863.043705 775.5,863.042851 L1058.13,863.042851 L1123.05,1193.63285 L1308.87,1193.63285 L1227.43,771.062851 C1218.1881,723.084533 1176.20033,688.412851 1127.34,688.412851 L731.26,688.412851"/><path id="Path" fill="#4A37BB" fill-rule="nonzero" d="M1309.74,1194.36285 L1122.43,1194.36285 L1122.32,1193.77285 L1057.51,863.772851 L775.51,863.772851 C721.333037,863.796301 675.34604,824.060129 667.51,770.452851 L655.51,688.522851 L656.95,688.312851 L668.95,770.242851 C676.63,822.732851 722.43,862.312851 775.47,862.312851 L1058.7,862.312851 L1058.81,862.892851 L1123.62,1192.89285 L1307.95,1192.89285 L1226.67,771.182851 C1217.43268,723.58311 1175.77773,689.192001 1127.29,689.132851 L731.26,689.132851 L731.26,687.672851 L1127.31,687.672851 C1176.49812,687.73432 1218.75314,722.624787 1228.12,770.912851 L1309.74,1194.36285 Z"/><path id="Path" fill="#D5D4D7" fill-rule="nonzero" d="M472.6,688.412851 L484.6,770.352851 C492.392098,823.58078 538.044747,863.039416 591.84,863.042851 L874.43,863.042851 L939.43,1193.63285 L1125.25,1193.63285 L1043.8,771.062851 C1034.53209,723.09585 992.554138,688.435736 943.7,688.412851 L547.6,688.412851"/><path id="Path" fill="#4A37BB" fill-rule="nonzero" d="M1126.09,1194.36285 L938.78,1194.36285 L938.67,1193.77285 L873.86,863.772851 L591.86,863.772851 C537.683037,863.796301 491.69604,824.060129 483.86,770.452851 L471.86,688.522851 L473.3,688.312851 L485.3,770.242851 C492.99,822.732851 538.78,862.312851 591.82,862.312851 L875.05,862.312851 L875.17,862.892851 L939.97,1192.89285 L1124.31,1192.89285 L1043.02,771.182851 C1033.78268,723.58311 992.12773,689.192001 943.64,689.132851 L547.6,689.132851 L547.6,687.672851 L943.65,687.672851 C992.82993,687.749591 1035.0695,722.641876 1044.43,770.922851 L1126.09,1194.36285 Z"/><line id="Path" x1="874.46" x2="868.86" y1="863.043" y2="810.433" stroke="#281854" stroke-linecap="round" stroke-linejoin="round" stroke-width=".5"/><polyline id="Path" fill="#1256A7" fill-rule="nonzero" points="469.24 246.163 564.07 216.053 645.71 216.053 734.89 260.153 786.03 688.413 452.45 688.413"/><path id="Path" fill="#FEB5CA" fill-rule="nonzero" d="M762.52,586.552851 C762.52,586.552851 822.59,583.552851 834.91,591.772851 C847.23,599.992851 907.67,650.772851 899.46,673.862851 C891.25,696.952851 860.28,669.762851 860.28,669.762851 C860.28,669.762851 871.85,686.172851 849.83,690.282851 C827.81,694.392851 818.49,671.622851 818.49,671.622851 C818.49,671.622851 833.04,684.932851 817.37,690.772851 C801.7,696.612851 780.8,676.852851 780.8,676.852851 L727.8,677.222851"/><path id="Path" fill="#161616" fill-rule="nonzero" d="M572.23,175.172851 C535.85,152.792851 502.82,95.1728507 513.46,72.7528507 C524.1,50.3328507 543.33,57.6428507 543.33,57.6428507 C543.33,57.6428507 530.72,28.5428507 564.07,7.83285066 C597.42,-12.8771493 635.47,14.5428507 661.22,10.0728507 C686.97,5.60285066 698.72,7.83285066 700.96,18.4628507 C703.2,29.0928507 690.55,36.9328507 690.55,36.9328507 C690.55,36.9328507 723.9,37.4628507 717.19,52.3128507 C710.48,67.1628507 679.12,78.9128507 679.12,78.9128507 L595.05,183.572851"/><path id="Path" fill="#FFF" fill-rule="nonzero" stroke="#263238" stroke-linecap="round" stroke-linejoin="round" stroke-width="2" d="M646.22,163.812851 L645.71,220.002851 C645.71,220.002851 645.57,221.002851 645.16,222.752851 C643.43,229.522851 637.02,246.822851 615.66,248.422851 C572.25,251.672851 564.07,216.012851 564.07,216.012851 C565.971759,204.147808 567.114083,192.173455 567.49,180.162851 C567.66,175.272851 567.68,170.102851 567.49,164.832851 C567.41,161.152851 567.19,157.422851 566.88,153.692851 L573.94,154.582851 L646.22,163.812851 Z"/><path id="Path" fill="#FFF" fill-rule="nonzero" stroke="#263238" stroke-linecap="round" stroke-linejoin="round" stroke-width="2" d="M684.59,52.3128507 C684.59,52.3128507 689.05,111.812851 690.43,130.512851 L690.43,130.602851 C691.82,149.142851 678.03,197.602851 635.91,200.762851 C607.48,202.892851 588.91,192.922851 576.91,180.562851 C560.22,163.392851 556.29,141.642851 556.29,141.642851 C556.29,141.642851 554.38,151.392851 533.91,146.402851 C513.44,141.412851 512.1,106.212851 530.61,102.312851 C542.43,99.8128507 552.43,111.032851 558.11,119.522851 C558.957482,120.789513 560.491847,121.411127 561.981981,121.091498 C563.472114,120.771869 564.616561,119.575658 564.87,118.072851 L570.1,87.4728507 C621.3,92.8928507 684.59,52.3128507 684.59,52.3128507 Z"/><path id="Path" fill="#161616" fill-rule="nonzero" d="M610.28,114.382851 C610.58,118.382851 608.75,121.792851 606.18,121.992851 C603.61,122.192851 601.28,119.092851 600.98,115.082851 C600.68,111.072851 602.52,107.672851 605.09,107.472851 C607.66,107.272851 609.98,110.372851 610.28,114.382851 Z"/><path id="Path" fill="#161616" fill-rule="nonzero" d="M671.49,109.812851 C671.79,113.812851 669.95,117.222851 667.38,117.422851 C664.81,117.622851 662.49,114.522851 662.19,110.512851 C661.89,106.502851 663.73,103.102851 666.3,102.902851 C668.87,102.702851 671.19,105.812851 671.49,109.812851 Z"/><path id="Path" stroke="#161616" stroke-linecap="round" stroke-linejoin="round" stroke-width="2" d="M529.43,116.702851 C542.97,117.702851 543.31,129.702851 543.31,129.702851"/><line id="Path" x1="560.1" x2="589.96" y1="121.003" y2="145.283" stroke="#B8ECDA" stroke-width=".5"/><path id="Shape" fill="#161616" fill-rule="nonzero" d="M612.29,152.562851 C601.369519,152.562851 591.52434,145.984512 587.345253,135.895303 C583.166166,125.806095 585.476171,114.192913 593.198117,106.470968 C600.920063,98.7490217 612.533244,96.4390163 622.622453,100.618103 C632.711661,104.79719 639.29,114.64237 639.29,125.562851 C639.29,140.474539 627.201688,152.562851 612.29,152.562851 L612.29,152.562851 Z M612.29,102.912851 C599.791796,102.912851 589.66,113.044647 589.66,125.542851 C589.66,138.041055 599.791796,148.172851 612.29,148.172851 C624.788204,148.172851 634.92,138.041055 634.92,125.542851 C634.908973,113.049217 624.783633,102.923878 612.29,102.912851 Z"/><path id="Shape" fill="#161616" fill-rule="nonzero" d="M679.12,141.752851 C664.208312,141.752851 652.12,129.664539 652.12,114.752851 C652.12,99.8411624 664.208312,87.7528507 679.12,87.7528507 C694.031688,87.7528507 706.12,99.8411624 706.12,114.752851 C706.12,121.913696 703.275365,128.781252 698.211883,133.844734 C693.148401,138.908216 686.280845,141.752851 679.12,141.752851 L679.12,141.752851 Z M679.12,92.1028507 C666.621796,92.1028507 656.49,102.234647 656.49,114.732851 C656.49,127.231055 666.621796,137.362851 679.12,137.362851 C691.618204,137.362851 701.75,127.231055 701.75,114.732851 C701.738973,102.239217 691.613633,92.1138777 679.12,92.1028507 L679.12,92.1028507 Z"/><rect id="Rectangle" width="18.91" height="4.39" x="635.437" y="113.517" fill="#161616" fill-rule="nonzero" transform="translate(644.892033, 115.711582) rotate(-5.980000) translate(-644.892033, -115.711582)"/><rect id="Rectangle" width="4.39" height="27.03" x="572.791" y="103.307" fill="#161616" fill-rule="nonzero" transform="translate(574.985949, 116.822301) rotate(-72.280000) translate(-574.985949, -116.822301)"/><path id="Path" fill="#1256A7" fill-rule="nonzero" d="M469.24,246.162851 L469.24,246.162851 C393.104129,277.069926 348.120446,356.179161 360.49,437.412851 L388.64,622.242851 C394.43557,660.29292 427.151088,688.407021 465.64,688.412851 L762.52,688.412851 L762.52,583.942851 L511.43,573.122851 L469.24,246.162851 Z"/><line id="Path" x1="762.52" x2="465.88" y1="583.943" y2="568.643" stroke="#4A37BB" stroke-linecap="round" stroke-linejoin="round" stroke-width=".5"/><line id="Path" x1="511.44" x2="484.88" y1="573.123" y2="367.303" stroke="#161616" stroke-linecap="round" stroke-linejoin="round" stroke-width="2"/><path id="Path" fill="#FFF" fill-rule="nonzero" stroke="#161616" stroke-linecap="round" stroke-linejoin="round" stroke-width="3" d="M1239.55,359.902851 L1121.25,372.612851 C1108.84017,373.953904 1098.55732,382.838884 1095.43,394.922851 L1022.51,677.402851 L783.95,674.592851 C779.962916,674.546406 776.25392,676.630573 774.220156,680.060267 C772.186392,683.489961 772.136836,687.744129 774.090156,691.220268 C776.043476,694.696406 779.702916,696.866406 783.69,696.912851 L1033.06,699.852851 L1033.64,699.852851 C1034.43668,699.818394 1035.22761,699.701095 1036,699.502851 L1149.94,682.362851 C1159.4071,681.03151 1167.25166,674.348241 1170.07,665.212851 L1257.43,381.592851 C1259.09681,376.183695 1257.933,370.298959 1254.33269,365.931468 C1250.73238,361.563976 1245.17781,359.298734 1239.55,359.902851 Z"/><polyline id="Path" stroke="#161616" stroke-linecap="round" stroke-linejoin="round" stroke-width="2" points="641.78 102.973 662.26 150.763 650.05 155.063"/><path id="Path" stroke="#161616" stroke-linecap="round" stroke-linejoin="round" stroke-width="2" d="M612.8,166.402851 C612.8,166.402851 627.38,182.592851 654.91,174.492851"/><path id="Path" fill="#161616" fill-rule="nonzero" d="M1168.89,491.352851 C1162.89,504.852851 1151.82,513.042851 1144.27,509.652851 C1136.72,506.262851 1135.49,492.592851 1141.53,479.092851 C1147.57,465.592851 1158.61,457.402851 1166.16,460.792851 C1173.71,464.182851 1174.94,477.862851 1168.89,491.352851 Z"/></g></g></g></svg>