<?xml version="1.0" encoding="utf-8"?>
<!-- Generator: Adobe Illustrator 25.3.1, SVG Export Plug-In . SVG Version: 6.00 Build 0)  -->
<svg version="1.1" id="Layer_1" xmlns="http://www.w3.org/2000/svg" xmlns:xlink="http://www.w3.org/1999/xlink" x="0px" y="0px"
	 viewBox="0 0 2048 2048" style="enable-background:new 0 0 2048 2048;" xml:space="preserve">
<style type="text/css">
	.st0{fill:#EDF1FC;}
	.st1{fill:#ECECEC;}
	.st2{fill:#FCDAB7;}
	.st3{fill:#B5BEEA;}
	.st4{fill:#FC997C;}
	.st5{fill:#8A95BF;}
	.st6{fill:#D9D9D9;}
	.st7{fill:#1963A5;}
	.st8{fill:#4F9BD3;}
	.st9{fill:#FFFFFF;}
	.st10{fill:#FAB247;}
	.st11{fill:#F6F6F6;}
	.st12{fill:#1D2D50;}
	.st13{fill:#FD99B3;}
	.st14{fill:#898989;}
	.st15{fill:#F07454;}
	.st16{fill:#F5A185;}
	.st17{fill:#DADDFC;}
	.st18{fill:#787B8A;}
	.st19{fill:#2E4C6E;}
</style>
<g>
	<path class="st0" d="M1211.52,512.66c-152.58,0-288.16,72.78-373.92,185.52c-33.98-9.59-69.83-14.72-106.88-14.72
		c-216.94,0-392.8,175.86-392.8,392.8s175.86,392.8,392.8,392.8c91,0,174.77-30.95,241.37-82.89
		c70.11,41.64,151.97,65.55,239.43,65.55c259.32,0,469.53-210.22,469.53-469.53S1470.84,512.66,1211.52,512.66z"/>
	<path class="st1" d="M1154.19,1307.5c-56.09,2.88-112.44,7.79-166.63,22.57c-28.5,7.77-56.37,18.27-85.58,22.71
		c-38.58,5.87-77.86,0.96-116.68-2.95c-113.7-11.47-228.26-14.33-342.39-8.56c-63.6,3.22-127.87,9.28-187.88,30.59
		c-27.47,9.76-58.72,31.94-51.85,60.28c6.84,28.22,44.03,33.69,73.06,33.25c22.66-0.34,45.32-0.68,67.98-1.02
		c6.04-0.09,12.53-0.05,17.5,3.38c7.36,5.08,8.49,15.24,11.94,23.49c9.04,21.66,34.68,30.47,57.7,35.08
		c71.9,14.39,147.19,11.54,217.8-8.25c52.31-14.66,102.68-38.55,156.82-42.9c59.06-4.75,117.09,14.13,174.28,29.62
		c100.38,27.18,208.16,44.25,307.42,13.24c48.77-15.23,91.65-32.24,143.14-36.66c54.8-4.7,109.97-1.91,164.62,3.35
		c61.85,5.94,125.93,14.82,184.84-4.92c19.16-6.42,37.83-16.18,50.69-31.77c12.86-15.58,18.94-37.79,11.62-56.62
		c-6.32-16.24-21.51-27.74-37.87-33.73s-34.03-7.22-51.41-8.4c-70.81-4.8-140.96-8.13-210.27-20.86
		c-71.35-13.1-145.74-22.77-218.41-22.77C1267.85,1303.74,1210.96,1304.58,1154.19,1307.5z"/>
	<path class="st2" d="M1413.15,811.55c2.48-8.59,5.74-17.25,11.82-23.81c5.94-6.4,14.07-10.27,22.19-13.48
		c31.39-12.42,65.78-17.17,99.36-13.73c11.98,1.23,25.6,3.01,34.69-4.89c4.88-4.25,7.38-10.53,11.03-15.87
		c12.12-17.76,35.6-23.61,57.08-24.59c17.88-0.82,37.73,1.65,49.7,14.96c10.96,12.19,12.27,30.35,9.7,46.54
		c-2.33,14.69-6.44,32.35,4.56,42.36c7.25,6.6,18.1,6.63,27.49,9.47c28.24,8.55,40.8,42.15,41.1,71.66
		c0.51,50.23-23.39,99.24-60.2,133.41c-36.81,34.18-85.57,54.09-135.4,60.39c-24.66,3.12-50.52,2.91-73.34-6.95
		c-33.37-14.43-54.95-46.88-72.57-78.68C1407.45,948.92,1393.91,878.12,1413.15,811.55z"/>
	<path class="st3" d="M1071.8,1253.33c-6.01-14.85-20.5-24.89-35.75-29.78c-15.25-4.9-31.5-5.46-47.48-6.64
		c-27.35-2.02-55.24-6.2-79.35-19.27c-24.11-13.07-44.04-36.54-46.47-63.86c-1.15-12.91,1.58-25.8,3.63-38.6
		c2.12-13.24,3.54-26.6,4.24-40c0.44-8.4,0.58-16.96-1.65-25.07c-4.75-17.33-19.48-30.02-34.61-39.72s-31.69-17.78-43.96-30.91
		c-24.91-26.64-25.09-72.49-0.8-99.7c24.29-27.21,69.36-32.4,99.52-11.89c10.25,6.97,19.49,16.71,31.74,18.6
		c14.95,2.3,28.77-7.87,43.61-10.82c22.28-4.43,45.17,8.32,59.23,26.17c14.06,17.85,21.07,40.09,27.8,61.79
		c5.83,18.8,11.66,37.59,17.48,56.39c4.97,16.03,11.21,33.65,26.04,41.5c13.05,6.91,28.89,4.13,43.53,6.03
		c29.88,3.86,55.32,30.21,58.14,60.2c0.82,8.67,0.06,17.95,4.4,25.5c6.33,11.03,20.58,13.91,31.67,20.14
		c10.51,5.9,18.65,15.34,25.06,25.55c32.99,52.53,19,124.64-24.06,167.54c-37.47,37.33-91.69,31.3-133.94,5.03
		C1058.57,1325.86,1086.5,1289.69,1071.8,1253.33z"/>
	<path class="st4" d="M1364.06,1044.67c36.83-15.41,69.88-39.77,95.51-70.38c18.83-22.5,34.19-50.55,31.29-79.74
		c-3.3-33.12-32.87-61.63-66.09-63.72c-10.06-0.63-20.19,0.88-30.21-0.22c-10.02-1.1-20.53-5.54-25.09-14.53
		c-2.81-5.54-2.98-12.02-2.7-18.22c0.98-21.87,6.83-43.56,5.09-65.39c-2.86-35.88-28.08-69.02-61.9-81.35s-74.45-3.19-99.73,22.44
		c-9.83,9.96-18.07,22.55-31.13,27.56c-16.13,6.19-33.86-1.13-50.8-4.52c-36.15-7.24-76.34,5.65-99.4,34.42
		c-23.06,28.77-26.36,72.66-5.6,103.13c28.56,41.91,87.78,48.17,128.15,78.88c21.79,16.58,37.48,39.9,58.03,58.01
		c35.5,31.28,85.59,45.24,132.15,36.82c9.76,3.82,9.06,13.27,14.24,22.38C1359.39,1036.44,1357.34,1042.21,1364.06,1044.67z"/>
	<path class="st3" d="M1472.1,1398.18c17.66-1.78,35.48-8.49,47.2-21.81c8.72-9.91,13.75-23.02,24-31.34
		c11.86-9.62,28.23-10.92,43.5-11.47c31.15-1.11,62.54-0.8,93.16-6.58c30.62-5.78,61-18.3,82.17-41.18s31.36-57.41,19.88-86.38
		c-3.67-9.27-9.39-17.8-11.57-27.53c-4.73-21.12,7.96-41.75,19.26-60.22c13.8-22.54,26.45-46.1,33.49-71.57
		c7.04-25.47,8.16-53.17-0.84-78.02c-4.26-11.75-10.91-22.91-20.71-30.66c-13.72-10.84-32.52-13.92-49.73-10.82
		c-17.21,3.1-32.97,11.83-46.83,22.5c-4.99,3.84-9.96,8.04-16,9.83c-11.79,3.49-23.9-2.96-35.51-7.02
		c-48.25-16.89-103.89,9.78-133,51.81c-29.11,42.03-36.23,95.6-34.82,146.71c0.37,13.58,0.19,29.58-10.84,37.51
		c-5.03,3.62-11.38,4.7-17.44,5.97c-44.56,9.28-87.71,35.57-106.91,76.84c-15.64,33.63-11.08,76.37,13.15,104.75
		C1388.29,1398.29,1436.55,1401.77,1472.1,1398.18z"/>
	<g>
		<g>
			<path class="st5" d="M1382.94,1386.86c-0.16,0-0.33-0.02-0.5-0.07c-1-0.27-1.59-1.3-1.31-2.3
				c13.17-48.14,44.37-91.9,85.58-120.06c11.85-8.09,24.62-15.05,36.98-21.77c10.28-5.6,20.91-11.38,30.91-17.77
				c26.21-16.77,43.34-35.73,50.89-56.37c2.21-6.04,3.7-12.48,5.14-18.71c1.69-7.31,3.44-14.87,6.38-21.98
				c7.95-19.26,24.35-35.63,50.12-50.05c8.75-4.9,17.93-9.28,26.8-13.52c12.1-5.78,24.61-11.76,36.05-19.05
				c16.19-10.32,36.66-27.86,42.25-52.88c0.23-1.01,1.23-1.64,2.24-1.42c1.01,0.23,1.65,1.23,1.42,2.24
				c-5.87,26.27-27.11,44.53-43.9,55.22c-11.64,7.42-24.25,13.44-36.45,19.27c-8.82,4.22-17.95,8.58-26.59,13.41
				c-25.01,13.99-40.86,29.76-48.48,48.21c-2.82,6.83-4.53,14.23-6.19,21.39c-1.47,6.34-2.98,12.9-5.27,19.15
				c-7.84,21.42-25.47,41.01-52.39,58.23c-10.1,6.46-20.8,12.28-31.13,17.91c-12.28,6.68-24.97,13.59-36.66,21.58
				c-40.49,27.66-71.14,70.66-84.08,117.96C1384.52,1386.31,1383.77,1386.86,1382.94,1386.86z"/>
		</g>
		<g>
			<path class="st4" d="M1488.86,1034.45c-0.74,0-1.44-0.44-1.74-1.17c-3.46-8.57-2.52-17.93-1.26-26.77
				c3.28-22.97,9.57-51.92,29.32-72.08c13.12-13.4,30.57-21.2,47.44-28.74c3.88-1.74,7.9-3.53,11.77-5.36
				c10.88-5.13,22.66-11.88,27.49-23.03c3.71-8.55,2.78-17.93,1.8-27.86c-0.61-6.14-1.24-12.48-0.69-18.69
				c1.54-17.53,13.44-33.96,29.61-40.9c0.95-0.41,2.05,0.03,2.46,0.98c0.41,0.95-0.03,2.05-0.98,2.46
				c-14.94,6.4-25.93,21.59-27.35,37.78c-0.51,5.86,0.1,12.02,0.69,17.99c0.99,9.97,2.01,20.28-2.09,29.72
				c-5.33,12.29-17.82,19.5-29.33,24.92c-3.91,1.84-7.94,3.65-11.84,5.39c-16.55,7.4-33.67,15.05-46.29,27.94
				c-18.99,19.38-25.09,47.58-28.29,69.98c-1.19,8.34-2.09,17.13,1.02,24.84c0.39,0.96-0.08,2.05-1.04,2.44
				C1489.34,1034.41,1489.1,1034.45,1488.86,1034.45z"/>
		</g>
		<g>
			<path class="st2" d="M1380.23,978.72c-0.95,0-1.77-0.72-1.86-1.69c-2.33-23.56-19.83-44.64-42.56-51.27
				c-11.28-3.29-23.44-3.18-35.19-3.07c-5.76,0.05-11.71,0.11-17.54-0.23c-12.54-0.72-21.58-3.41-28.46-8.47
				c-16.66-12.24-17.87-35.86-13.45-53.89c1.97-8.06,4.92-15.93,7.77-23.55c3.67-9.82,7.47-19.98,9.1-30.39
				c1.68-10.77,0.35-19.4-3.94-25.64c-8.56-12.43-26.82-12.87-39.86-9.46c-5.76,1.51-11.51,3.68-17.06,5.78
				c-8.66,3.28-17.62,6.66-27.07,7.72c-11.51,1.29-23.46-1.04-33.64-6.54c-2.45-1.33-5.1-4.3-5.18-7.19
				c-0.04-1.59,0.69-2.94,2.07-3.78c0.88-0.54,2.04-0.26,2.58,0.62c0.54,0.88,0.26,2.04-0.62,2.58c-0.26,0.16-0.29,0.28-0.28,0.48
				c0.03,1.06,1.44,3.04,3.22,4c9.52,5.15,20.69,7.32,31.45,6.12c8.98-1,17.71-4.3,26.16-7.5c5.65-2.13,11.48-4.34,17.44-5.9
				c14.21-3.71,34.24-3.07,43.9,10.96c4.86,7.05,6.39,16.59,4.56,28.34c-1.68,10.79-5.55,21.13-9.29,31.13
				c-2.81,7.52-5.72,15.29-7.64,23.13c-3.94,16.08-3.15,38.82,12.03,49.98c6.27,4.61,14.68,7.07,26.46,7.74
				c5.71,0.33,11.6,0.27,17.29,0.22c12.03-0.11,24.46-0.23,36.28,3.22c24.16,7.05,42.76,29.46,45.24,54.5
				c0.1,1.03-0.65,1.95-1.68,2.05C1380.35,978.72,1380.29,978.72,1380.23,978.72z"/>
		</g>
		<g>
			<path class="st5" d="M1154.41,1319.76c-0.28,0-0.57-0.07-0.84-0.2c-0.92-0.47-1.29-1.59-0.83-2.52
				c9.16-18.1,14.83-38.36,16.4-58.58c2.54-32.65-7.41-61.54-26.61-77.28c-16.67-13.67-39.31-17.46-57.17-19.24
				c-4.79-0.48-9.69-0.86-14.44-1.23c-15.81-1.23-32.15-2.51-47.53-7.49c-9.87-3.2-17.14-7.41-22.21-12.88
				c-11.3-12.19-13.28-32.69-5.27-54.83c2.3-6.38,5.17-12.65,7.93-18.71c4.85-10.62,9.86-21.6,11.8-33.14
				c1.41-8.38,0.68-15.29-2.16-20.54c-4.49-8.28-14.32-12.54-21.33-15.03c-7.39-2.63-15.15-4.65-22.65-6.61
				c-6.05-1.58-12.31-3.21-18.39-5.16c-35.71-11.44-67.37-34.56-89.14-65.1c-0.6-0.84-0.4-2.01,0.44-2.61
				c0.84-0.6,2.01-0.4,2.61,0.44c21.3,29.89,52.28,52.51,87.23,63.71c5.98,1.92,12.19,3.54,18.19,5.1
				c7.58,1.98,15.42,4.02,22.96,6.7c7.59,2.7,18.27,7.37,23.37,16.78c3.26,6,4.12,13.73,2.57,22.95
				c-2.03,12.03-7.14,23.23-12.09,34.07c-2.74,5.99-5.57,12.19-7.82,18.43c-7.52,20.8-5.83,39.86,4.5,51.01
				c4.63,4.99,11.37,8.87,20.61,11.86c14.96,4.84,31.08,6.1,46.67,7.32c4.76,0.37,9.69,0.76,14.52,1.24
				c18.39,1.83,41.73,5.77,59.18,20.07c20.15,16.52,30.61,46.6,27.97,80.47c-1.61,20.71-7.42,41.45-16.8,59.98
				C1155.76,1319.38,1155.1,1319.76,1154.41,1319.76z"/>
		</g>
		<g>
			<path class="st5" d="M1500.77,1251.09c-0.8,0-1.54-0.51-1.79-1.32c-0.31-0.99,0.24-2.04,1.23-2.35
				c14.24-4.44,29.02-8.15,43.32-11.74c32.51-8.16,66.13-16.6,94.98-34.1c0.89-0.53,2.04-0.25,2.57,0.63
				c0.54,0.88,0.25,2.04-0.63,2.57c-29.33,17.8-63.23,26.31-96.01,34.54c-14.25,3.58-28.98,7.27-43.11,11.68
				C1501.14,1251.06,1500.96,1251.09,1500.77,1251.09z"/>
		</g>
		<g>
			<path class="st5" d="M1591.46,1159.44c-0.84,0-1.6-0.57-1.82-1.42c-8.5-34.07-10.52-70.47-5.82-105.27
				c0.14-1.03,1.09-1.74,2.11-1.61c1.03,0.14,1.74,1.08,1.61,2.11c-4.63,34.33-2.65,70.25,5.75,103.86c0.25,1-0.36,2.02-1.36,2.27
				C1591.76,1159.42,1591.61,1159.44,1591.46,1159.44z"/>
		</g>
		<g>
			<path class="st5" d="M1730.99,1099.4c-2.38,0-4.68-0.06-6.89-0.13c-9.9-0.34-19.99-1.22-29.74-2.07
				c-23.83-2.08-48.47-4.22-71.79,1.4c-1,0.24-2.02-0.38-2.26-1.38c-0.24-1.01,0.38-2.02,1.38-2.26c23.92-5.77,48.87-3.59,73-1.49
				c9.71,0.85,19.75,1.72,29.55,2.06c8.49,0.29,18.45,0.27,27.99-2.11c6.89-1.72,16.53-5.48,23.36-13.65
				c0.66-0.8,1.84-0.9,2.64-0.24c0.79,0.66,0.9,1.85,0.24,2.64c-7.47,8.94-17.9,13.03-25.33,14.88
				C1745.66,1098.92,1738.02,1099.4,1730.99,1099.4z"/>
		</g>
		<g>
			<path class="st5" d="M1721.94,1039.8c-0.34,0-0.69-0.09-1-0.29c-0.87-0.55-1.13-1.71-0.58-2.59c4.88-7.71,3.38-17.93,1.27-26.91
				c-2.12-9.01-4.79-17.99-7.96-26.7c-0.35-0.97,0.15-2.05,1.12-2.4c0.97-0.35,2.05,0.15,2.4,1.12c3.21,8.85,5.93,17.97,8.08,27.13
				c2.29,9.74,3.87,20.89-1.75,29.77C1723.16,1039.49,1722.56,1039.8,1721.94,1039.8z"/>
		</g>
		<g>
			<path class="st4" d="M1506.22,950.04c-0.12,0-0.24-0.01-0.37-0.04c-1.01-0.2-1.68-1.19-1.47-2.2c0.39-1.95,1.72-3.37,2.98-4.51
				c6.66-6.03,15.83-10.11,27.26-12.1c7.18-1.26,14.54-1.62,21.65-1.97c2.54-0.13,5.08-0.25,7.61-0.41
				c17.93-1.16,35.76-4.33,52.99-9.42c6.31-1.86,12.93-4.1,18.68-7.8c6.07-3.92,10.41-9.17,12.22-14.79
				c0.32-0.98,1.37-1.53,2.36-1.21c0.99,0.32,1.53,1.37,1.21,2.36c-2.07,6.44-6.96,12.41-13.75,16.79
				c-6.14,3.96-13.08,6.31-19.65,8.25c-17.5,5.17-35.6,8.39-53.81,9.57c-2.55,0.17-5.11,0.29-7.67,0.42
				c-7,0.34-14.23,0.7-21.19,1.92c-10.72,1.87-19.26,5.64-25.38,11.19c-0.8,0.73-1.65,1.59-1.82,2.47
				C1507.88,949.42,1507.1,950.04,1506.22,950.04z"/>
		</g>
		<g>
			<path class="st4" d="M1601.27,887.58c-0.97,0-1.79-0.74-1.87-1.73c-0.39-4.99-3.17-10.16-8.51-15.81
				c-1.31-1.39-2.71-2.77-4.07-4.11c-3.29-3.23-6.69-6.58-9.33-10.56c-6.81-10.28-7.43-23.42-7.31-32.4
				c0.04-2.87,0.16-5.77,0.27-8.59c0.32-7.82,0.64-15.9-0.71-23.61c-0.18-1.02,0.5-1.99,1.52-2.17c1.02-0.18,1.99,0.5,2.17,1.52
				c1.42,8.11,1.09,16.4,0.76,24.41c-0.11,2.79-0.23,5.67-0.27,8.49c-0.13,9.21,0.52,20.97,6.69,30.28
				c2.42,3.66,5.53,6.72,8.83,9.96c1.38,1.36,2.81,2.76,4.17,4.21c5.94,6.3,9.05,12.22,9.52,18.09c0.08,1.03-0.69,1.93-1.72,2.02
				C1601.37,887.58,1601.32,887.58,1601.27,887.58z"/>
		</g>
		<g>
			<path class="st4" d="M1603.81,839.88c-0.35,0-0.7-0.1-1.02-0.3c-0.87-0.56-1.11-1.73-0.55-2.59c5.85-8.99,16.63-12.6,26.13-15.78
				c8.97-3,18.91-6.89,23.28-15.13c0.49-0.91,1.62-1.26,2.53-0.77c0.91,0.49,1.26,1.62,0.77,2.53c-5.03,9.45-15.75,13.69-25.4,16.92
				c-8.93,2.99-19.04,6.37-24.18,14.27C1605.02,839.58,1604.42,839.88,1603.81,839.88z"/>
		</g>
		<g>
			<path class="st2" d="M1240.79,881.51c-1,0-1.83-0.79-1.87-1.79c-0.47-11.03,8.71-19.32,16.75-25.32c1.8-1.34,3.63-2.67,5.45-4
				c7.71-5.62,15.68-11.43,22.17-18.48c8.95-9.73,13.65-20.72,13.24-30.95c-0.04-1.03,0.76-1.91,1.8-1.95
				c1.05-0.03,1.91,0.76,1.95,1.8c0.45,11.23-4.6,23.17-14.23,33.64c-6.74,7.32-14.86,13.24-22.71,18.97
				c-1.81,1.32-3.62,2.64-5.42,3.98c-7.31,5.44-15.64,12.88-15.25,22.15c0.04,1.03-0.76,1.91-1.79,1.95
				C1240.84,881.51,1240.81,881.51,1240.79,881.51z"/>
		</g>
		<g>
			<path class="st2" d="M1151.4,831.98c-7.6,0-15.42-1.48-22.63-5.5c-0.9-0.51-1.23-1.65-0.72-2.55c0.5-0.9,1.65-1.23,2.55-0.72
				c17.58,9.82,39.62,3.07,51.19-1.84c6.34-2.69,12.62-5.92,18.69-9.04c9.98-5.14,20.31-10.45,31.36-13.6
				c12.7-3.61,23.44-1.6,28.76,5.39c0.63,0.82,0.47,2-0.36,2.63c-0.82,0.63-2,0.47-2.63-0.36c-6.44-8.46-20.57-5.24-24.75-4.05
				c-10.69,3.04-20.85,8.27-30.67,13.33c-6.13,3.16-12.47,6.42-18.94,9.16C1175.68,828.03,1163.83,831.98,1151.4,831.98z"/>
		</g>
		<g>
			<path class="st2" d="M1216.09,769.25c-2.93,0-6.12-1.39-9.23-4.07c-10.18-8.76-14.3-22.55-17.61-33.63
				c-0.3-0.99,0.27-2.04,1.26-2.33c0.99-0.3,2.04,0.27,2.33,1.26c3.17,10.61,7.12,23.82,16.47,31.86c1.79,1.54,5.24,3.96,8.35,2.92
				c0.98-0.33,2.04,0.2,2.37,1.18c0.33,0.98-0.2,2.04-1.18,2.37C1217.96,769.1,1217.03,769.25,1216.09,769.25z"/>
		</g>
		<g>
			<path class="st5" d="M943.58,984.62c-0.9,0-1.79-0.45-2.32-1.03c-9.27-10.05-14.05-23.05-18.68-35.61
				c-2.15-5.84-4.37-11.87-7.01-17.49c-0.44-0.94-0.04-2.05,0.9-2.49c0.94-0.44,2.05-0.03,2.49,0.9c2.7,5.77,4.95,11.88,7.13,17.79
				c4.63,12.56,9,24.43,17.46,33.86c0.08-0.02,0.16-0.03,0.24-0.04c1.03-0.1,1.95,0.66,2.04,1.69c0.09,0.96-0.41,1.83-1.27,2.22
				C944.25,984.55,943.91,984.62,943.58,984.62z M942.11,982.55L942.11,982.55L942.11,982.55z"/>
		</g>
		<g>
			<path class="st5" d="M934.24,1044.94c-10.31,0-20.61-1.42-30.58-4.26c-0.99-0.28-1.57-1.32-1.29-2.32
				c0.28-0.99,1.32-1.57,2.32-1.29c17.79,5.07,36.7,5.47,54.69,1.15c3.28-0.79,6.6-1.75,9.82-2.68c6.56-1.9,13.34-3.86,20.32-4.52
				c12.43-1.18,23.5,2.61,29.61,10.13c0.65,0.8,0.53,1.98-0.27,2.64c-0.8,0.65-1.98,0.53-2.64-0.27
				c-5.32-6.55-15.17-9.82-26.35-8.76c-6.63,0.63-13.24,2.54-19.63,4.39c-3.26,0.94-6.62,1.92-9.99,2.72
				C951.71,1043.92,942.98,1044.94,934.24,1044.94z"/>
		</g>
		<g>
			<path class="st5" d="M1089.6,1163.56c-0.23,0-0.47-0.04-0.7-0.14c-8.1-3.28-15.23-9.09-20.08-16.35
				c-3.92-5.88-6.35-12.62-8.39-19.02c-4.71-14.81-8.11-30.12-10.12-45.53c-0.13-1.03,0.59-1.97,1.62-2.1
				c1.02-0.14,1.97,0.59,2.1,1.62c1.98,15.18,5.34,30.28,9.98,44.87c1.95,6.14,4.27,12.59,7.93,18.08
				c4.44,6.65,10.96,11.96,18.37,14.96c0.96,0.39,1.42,1.48,1.03,2.44C1091.04,1163.12,1090.34,1163.56,1089.6,1163.56z"/>
		</g>
		<g>
			<path class="st5" d="M1171.74,1254.25c-0.57,0-1.14-0.26-1.51-0.76c-8.79-11.82-21.99-17.54-31.53-20.25
				c-12.52-3.56-25.91-4.16-38.51-4.28l-0.31,0c-5.56-0.05-11.32-0.1-16.55-2.53c-0.53-0.25-0.92-0.73-1.04-1.3
				c-0.13-0.57,0.02-1.17,0.4-1.61l2.2-2.59c0.67-0.79,1.85-0.89,2.64-0.22c0.79,0.67,0.89,1.85,0.22,2.64l-0.49,0.58
				c3.95,1.21,8.36,1.25,12.65,1.28l0.31,0c12.87,0.12,26.56,0.74,39.51,4.42c10.09,2.87,24.09,8.95,33.51,21.62
				c0.62,0.83,0.45,2-0.39,2.62C1172.52,1254.12,1172.12,1254.25,1171.74,1254.25z"/>
		</g>
	</g>
	<ellipse class="st6" cx="502.26" cy="1403.31" rx="185.44" ry="17.1"/>
	<ellipse class="st6" cx="859.18" cy="1403.31" rx="185.44" ry="17.1"/>
	<rect x="1200.49" y="1215.24" class="st7" width="174.43" height="111.13"/>
	<path class="st8" d="M1448.86,1400.93h-322.31v-19.89c0-30.2,24.48-54.67,54.67-54.67h212.96c30.19,0,54.67,24.48,54.67,54.67
		V1400.93z"/>
	<path class="st8" d="M1595.9,1236.67H979.51c-16.97,0-30.72-13.75-30.72-30.72V831.5c0-16.97,13.75-30.72,30.72-30.72h616.39
		c16.97,0,30.72,13.75,30.72,30.72v374.45C1626.62,1222.92,1612.87,1236.67,1595.9,1236.67z"/>
	<rect x="983.83" y="835.05" class="st9" width="607.75" height="367.36"/>
	<rect x="1016.65" y="870.68" class="st7" width="556.22" height="259.65"/>
	<rect x="1205.93" y="892.05" class="st10" width="348.4" height="183.31"/>
	<g>
		<path class="st11" d="M1400.39,954.9c-4.58,0-8.88,1.23-12.59,3.36c-3.71-2.13-8.01-3.36-12.59-3.36c-4.58,0-8.88,1.23-12.59,3.36
			c-3.71-2.13-8.01-3.36-12.59-3.36s-8.88,1.23-12.59,3.36c-3.71-2.13-8.01-3.36-12.59-3.36s-8.88,1.23-12.59,3.36
			c-3.71-2.13-8.01-3.36-12.59-3.36c-14,0-25.39,11.39-25.39,25.39s11.39,25.39,25.39,25.39c4.58,0,8.88-1.23,12.59-3.36
			c3.71,2.13,8.01,3.36,12.59,3.36s8.88-1.23,12.59-3.36c3.71,2.13,8.01,3.36,12.59,3.36s8.88-1.23,12.59-3.36
			c3.71,2.13,8.01,3.36,12.59,3.36c4.58,0,8.88-1.23,12.59-3.36c3.71,2.13,8.01,3.36,12.59,3.36c14,0,25.39-11.39,25.39-25.39
			S1414.39,954.9,1400.39,954.9z M1375.21,955.32c4.42,0,8.57,1.16,12.17,3.18c-6.54,3.92-11.17,10.69-12.17,18.59
			c-1-7.89-5.63-14.67-12.17-18.59C1366.64,956.47,1370.79,955.32,1375.21,955.32z M1387.8,958.74c7.4,4.34,12.38,12.37,12.38,21.55
			c0,9.18-4.98,17.21-12.38,21.55c-7.4-4.34-12.38-12.37-12.38-21.55C1375.42,971.11,1380.4,963.07,1387.8,958.74z M1375,980.29
			c0,9.18-4.98,17.21-12.38,21.55c-7.4-4.34-12.38-12.37-12.38-21.55c0-9.18,4.98-17.21,12.38-21.55
			C1370.01,963.07,1375,971.11,1375,980.29z M1350.02,955.32c4.42,0,8.57,1.16,12.17,3.18c-6.54,3.92-11.17,10.69-12.17,18.59
			c-1-7.89-5.63-14.67-12.17-18.59C1341.45,956.47,1345.6,955.32,1350.02,955.32z M1349.81,980.29c0,9.18-4.98,17.21-12.38,21.55
			c-7.4-4.34-12.38-12.37-12.38-21.55c0-9.18,4.98-17.21,12.38-21.55C1344.83,963.07,1349.81,971.11,1349.81,980.29z
			 M1324.84,955.32c4.42,0,8.57,1.16,12.17,3.18c-6.54,3.92-11.17,10.69-12.17,18.59c-1-7.89-5.63-14.67-12.17-18.59
			C1316.27,956.47,1320.42,955.32,1324.84,955.32z M1324.63,980.29c0,9.18-4.98,17.21-12.38,21.55
			c-7.4-4.34-12.38-12.37-12.38-21.55c0-9.18,4.98-17.21,12.38-21.55C1319.65,963.07,1324.63,971.11,1324.63,980.29z
			 M1299.65,1005.26c-13.77,0-24.97-11.2-24.97-24.97c0-13.77,11.2-24.97,24.97-24.97c4.42,0,8.57,1.16,12.17,3.18
			c-7.41,4.44-12.38,12.55-12.38,21.8s4.97,17.36,12.38,21.8C1308.22,1004.11,1304.07,1005.26,1299.65,1005.26z M1324.84,1005.26
			c-4.42,0-8.57-1.16-12.17-3.18c6.54-3.92,11.17-10.69,12.17-18.59c1,7.89,5.63,14.67,12.17,18.59
			C1333.41,1004.11,1329.26,1005.26,1324.84,1005.26z M1350.02,1005.26c-4.42,0-8.57-1.16-12.17-3.18
			c6.54-3.92,11.17-10.69,12.17-18.59c1,7.89,5.63,14.67,12.17,18.59C1358.59,1004.11,1354.44,1005.26,1350.02,1005.26z
			 M1375.21,1005.26c-4.42,0-8.57-1.16-12.17-3.18c6.54-3.92,11.17-10.69,12.17-18.59c1,7.89,5.63,14.67,12.17,18.59
			C1383.77,1004.11,1379.62,1005.26,1375.21,1005.26z M1400.39,1005.26c-4.42,0-8.57-1.16-12.17-3.18
			c7.41-4.44,12.38-12.55,12.38-21.8s-4.97-17.36-12.38-21.8c3.6-2.02,7.75-3.18,12.17-3.18c13.77,0,24.97,11.2,24.97,24.97
			C1425.36,994.06,1414.16,1005.26,1400.39,1005.26z"/>
		<path class="st11" d="M1329.6,1051.26c-1.05,0.05-2.14,0.11-3.18,0.42c-0.33,0.1-0.66,0.22-0.97,0.34c-0.4,0.15-0.81,0.3-1.23,0.4
			c-1.21,0.29-2.48,0.12-3.79-0.08c-3.16-0.5-6.33-1.18-9.42-2.01l-0.16-0.04l-0.08,0.14c-0.54,0.95-1.78,1.46-2.83,1.16
			c-1.05-0.3-1.84-1.38-1.81-2.47l0.05-1.45l-0.46,1.38c-0.36,1.08-0.76,2.31-1.59,3.19c-0.74,0.8-2.04,1.33-3.08,0.8
			c-0.64-0.32-1.06-0.98-1.41-1.57c-1.14-1.94-2.02-4.01-2.64-6.17l-0.14-0.51l-0.24,0.47c-2.08,4.01-3.73,8.26-4.9,12.64l0.41,0.11
			c1.12-4.17,2.67-8.24,4.63-12.08c0.61,2.01,1.46,3.95,2.53,5.76c0.38,0.64,0.84,1.36,1.58,1.73c1.22,0.62,2.72,0.02,3.58-0.89
			c0.67-0.72,1.07-1.63,1.39-2.51c0.29,0.93,1.04,1.71,1.99,1.98c1.19,0.34,2.55-0.18,3.22-1.22c3.06,0.82,6.19,1.48,9.32,1.98
			c1.35,0.21,2.67,0.38,3.95,0.08c0.44-0.1,0.87-0.26,1.28-0.42c0.31-0.11,0.63-0.23,0.94-0.33c1-0.29,2.06-0.35,3.09-0.4
			l19.17-1.01l-0.02-0.42L1329.6,1051.26z"/>
		<path class="st11" d="M1404.75,1049.21c-0.36,0.98-1.42,1.58-2.69,1.59c-1.27-0.01-2.31-0.66-2.66-1.65
			c-0.24-0.7-0.21-1.44-0.17-2.23c0.03-0.57,0.06-1.16-0.03-1.73c-0.14-0.92-0.82-1.82-1.64-2.15c-0.52-0.21-1.04-0.16-1.46,0.16
			c-0.33,0.25-0.53,0.62-0.7,0.99c-0.6,1.31-0.95,2.76-1.03,4.21c-1.36-1-2.83-1.87-4.36-2.6l-0.19-0.09l-0.09,0.19
			c-0.37,0.79-0.43,1.66-0.49,2.5c-0.03,0.47-0.07,0.96-0.16,1.42c-0.24,1.25-1.19,2.48-2.32,2.28c-0.74-0.13-1.26-0.8-1.72-1.52
			c-0.92-1.44-1.74-2.96-2.43-4.52l-0.22-0.51l-2.5,7.81l0.4,0.13l2.16-6.77c0.65,1.41,1.4,2.77,2.23,4.07c0.51,0.79,1.1,1.55,2,1.7
			c1.39,0.25,2.53-1.17,2.81-2.61c0.09-0.48,0.13-0.98,0.16-1.46c0.05-0.77,0.11-1.49,0.37-2.16c1.55,0.75,3.03,1.66,4.41,2.7
			l0.33,0.25l0.01-0.41c0.03-1.52,0.38-3.06,1.01-4.44c0.17-0.36,0.33-0.64,0.57-0.83c0.38-0.29,0.78-0.22,1.05-0.11
			c0.67,0.27,1.27,1.06,1.38,1.82c0.08,0.53,0.05,1.1,0.03,1.65c-0.04,0.79-0.08,1.61,0.19,2.38c0.4,1.16,1.6,1.92,3.05,1.93
			c0.01,0,0.03,0,0.04,0c1.27,0,2.34-0.57,2.87-1.49l0.53,0.9l0.36-0.21l-0.96-1.62L1404.75,1049.21z"/>
		<path class="st11" d="M1433.45,1049.14c0.09,0.36-0.13,0.64-0.27,0.77c-0.35,0.33-0.92,0.46-1.34,0.31
			c-0.79-0.27-1.3-1.06-1.78-1.9l-0.17-0.29l-0.19,0.28c-0.67,1-1.51,2.24-2.74,2.75c-0.67,0.28-1.51,0.23-2.15-0.11
			c-0.33-0.17-0.74-0.5-0.86-1.08c-0.07-0.34-0.03-0.74,0-1.13c0.07-0.7,0.13-1.42-0.41-1.91l-0.15-0.14l-0.14,0.14
			c-1.18,1.21-2.17,2.59-2.93,4.1l0.37,0.19c0.71-1.4,1.62-2.69,2.7-3.83c0.24,0.35,0.2,0.85,0.14,1.41c-0.04,0.42-0.08,0.84,0,1.25
			c0.12,0.57,0.5,1.06,1.08,1.36c0.42,0.22,0.91,0.33,1.4,0.33c0.38,0,0.77-0.07,1.11-0.21c1.24-0.51,2.07-1.64,2.74-2.63
			c0.48,0.8,1.01,1.52,1.84,1.8c0.57,0.2,1.29,0.03,1.76-0.4c0.36-0.33,0.5-0.76,0.39-1.18L1433.45,1049.14z"/>
		<path class="st11" d="M1454.78,1048.51c0.08,0.57-0.45,0.94-0.98,1.04c-0.53,0.1-1.16-0.05-1.3-0.61l-0.41,0.1
			c0.17,0.68,0.78,0.96,1.39,0.96c0.13,0,0.26-0.01,0.39-0.04c0.72-0.14,1.44-0.67,1.32-1.52L1454.78,1048.51z"/>
		<path class="st11" d="M1307.73,924.48c6.41,0.28,17.75,2.02,22.52,10.47l-3.98-0.81l-0.09,0.41l4.91,1.09l-0.05-0.09l1.37,0.28
			l0.08-0.12c0.9-1.45,1.45-3.73,0.82-5.03c-0.29-0.6-0.8-0.96-1.48-1.05l-0.05,0.42c0.54,0.07,0.93,0.34,1.16,0.81
			c0.55,1.14,0.07,3.15-0.73,4.51l-1.41-0.29c-4.77-8.9-16.46-10.72-23.04-11c-20.44-0.89-40.72,6.66-55.61,20.69
			c-5.3,5-9.31,10.27-11.91,15.68l0.38,0.18c2.58-5.36,6.55-10.59,11.82-15.55C1267.02,931.31,1287.69,923.61,1307.73,924.48z"/>
		<path class="st11" d="M1437.61,924.81l2.22-3.31l-0.35-0.23l-2.17,3.24c-1.15-1.1-2.39-2.11-3.69-3.05
			c-0.53-0.38-0.85-0.28-1.03-0.14c-0.13,0.11-0.17,0.28-0.1,0.45c0.07,0.17,0.26,0.34,0.46,0.32c0.11-0.01,0.23-0.09,0.27-0.27
			l-0.41-0.07c0-0.01,0.02-0.04,0.06-0.06c0.04-0.02,0.07-0.02,0.08-0.01c-0.02-0.01-0.05-0.04-0.07-0.03
			c0.13-0.09,0.42,0.1,0.51,0.16c1.31,0.94,2.54,1.96,3.7,3.06l-4.81,7.19l0.24-1.27l-0.41-0.08l-0.61,3.27l5.91-8.83
			c1.61,1.58,3.07,3.3,4.35,5.18c-0.34-0.11-0.65-0.36-0.82-0.68l-0.37,0.2c0.32,0.59,0.96,0.97,1.63,0.97c0,0,0,0,0.01,0l0.39,0
			l-0.21-0.33C1440.97,928.43,1439.38,926.53,1437.61,924.81z"/>
		<path class="st11" d="M1452.77,925.79c-0.09-1.62-0.11-3.24-0.06-4.86l-0.42-0.01c-0.05,1.64-0.02,3.29,0.07,4.94
			c-1.09,0.18-2.19,0.26-3.29,0.21l-0.02,0.42c0.24,0.01,0.48,0.02,0.71,0.02c0.88,0,1.76-0.08,2.62-0.22
			c0.08,1.19,0.18,2.39,0.34,3.57l-0.56-0.69l-0.33,0.26l1.51,1.88l-0.11-0.76c-0.21-1.44-0.35-2.88-0.44-4.34
			c2.1-0.39,4.12-1.17,5.92-2.32l-0.23-0.35C1456.76,924.64,1454.8,925.41,1452.77,925.79z"/>
		<path class="st11" d="M1468.07,932.06c-0.01,0.03-0.02,0.06-0.03,0.07l0.02-0.16c-0.1-0.02-0.2,0.03-0.25,0.11
			c-0.06,0.09-0.06,0.23,0,0.34c0.06,0.09,0.15,0.15,0.25,0.15c0.01,0,0.02,0,0.03,0c0.25-0.02,0.34-0.28,0.37-0.36l2.74-7.63
			l0.44,0.42l-0.29-0.85l2.14-5.96l-0.4-0.14l-1.96,5.47l-0.23-0.68l-0.4,0.14l0.2,0.58c-1.89-1.71-3.98-3.19-6.22-4.4l-0.2,0.37
			c2.39,1.3,4.6,2.9,6.59,4.76L1468.07,932.06z M1468.16,932.31c-0.04,0.05-0.1,0.08-0.16,0.07l0.04-0.24c0,0,0.01,0,0.01,0
			c0.06,0,0.1,0.02,0.12,0.06C1468.19,932.24,1468.18,932.28,1468.16,932.31z"/>
		<path class="st11" d="M1484.64,922.93l-0.2-0.37c-1.2,0.64-2.6,0.89-3.95,0.72l-0.05,0.42c0.29,0.04,0.59,0.06,0.89,0.06
			C1482.48,923.75,1483.63,923.47,1484.64,922.93z"/>
		<path class="st11" d="M1481.46,925.6l-0.02,0.42c0.17,0.01,0.33,0.01,0.5,0.01c0.94,0,1.87-0.1,2.79-0.28l-0.08-0.41
			C1483.6,925.55,1482.52,925.64,1481.46,925.6z"/>
		<path class="st11" d="M1498.76,916.46c0.02,0,0.04,0,0.05,0c1.21,0,2.34,0.74,2.71,1.78c0.32,0.9,0.13,2-0.59,3.37
			c-0.12,0.23-0.24,0.45-0.37,0.68c-0.48,0.86-0.98,1.76-1.13,2.76l0.41,0.06c0.14-0.93,0.62-1.79,1.08-2.62
			c0.13-0.23,0.25-0.46,0.37-0.69c0.78-1.48,0.98-2.69,0.62-3.71c-0.43-1.22-1.78-2.08-3.17-2.06c-1.24,0.02-2.51,0.69-3.39,1.79
			l0.33,0.26C1496.5,917.09,1497.65,916.48,1498.76,916.46z"/>
		<path class="st11" d="M1499.09,930.12c-0.05,0.03-0.13,0-0.21-0.03l-0.04-0.56l-0.42,0.03l0.05,0.81l0.11,0.05
			c0.09,0.05,0.26,0.13,0.45,0.13c0.09,0,0.18-0.02,0.26-0.07c0.2-0.12,0.23-0.38,0.14-0.55c-0.08-0.17-0.25-0.24-0.41-0.18
			l0.15,0.39C1499.14,930.17,1499.08,930.14,1499.09,930.12z"/>
		<path class="st11" d="M1463.57,977.47c0.11,0.01,0.22,0.02,0.32,0.02c1,0,1.89-0.51,2.49-0.95c2.25-1.69,3.37-4.78,2.73-7.53
			c-0.65-2.74-3.03-5.01-5.8-5.51l-0.08,0.41c2.61,0.48,4.86,2.61,5.47,5.2c0.61,2.58-0.45,5.5-2.57,7.09
			c-0.6,0.45-1.52,0.96-2.51,0.85c-1.75-0.2-2.7-2.16-3.11-3.31c-0.56-1.56-0.88-3.2-0.96-4.86c-0.04-0.92-0.03-2.27,0.58-3.37
			c0.5-0.9,1.6-1.71,2.72-1.51l0.07-0.41c-1.18-0.21-2.48,0.5-3.16,1.72c-0.66,1.19-0.68,2.62-0.64,3.59
			c0.08,1.7,0.41,3.38,0.98,4.98C1460.56,975.13,1461.59,977.25,1463.57,977.47z"/>
		<path class="st11" d="M1475.71,977.04c0.16,0.68,0.5,0.78,0.69,0.78c0,0,0,0,0,0c0.18,0,0.31-0.11,0.36-0.29
			c0.05-0.18-0.01-0.44-0.19-0.53c-0.1-0.05-0.25-0.05-0.37,0.09l0.32,0.28c-0.01,0.01-0.05,0.03-0.09,0.03
			c-0.05-0.01-0.08-0.03-0.08-0.04c0.01,0.01,0.01,0.03,0.01,0.05c-0.11-0.05-0.19-0.25-0.24-0.45c-1.03-4.43-1.84-8.97-2.42-13.49
			l-0.42,0.05C1473.86,968.05,1474.68,972.6,1475.71,977.04z"/>
		<path class="st11" d="M1483.56,977.11c0.08,0.01,0.17,0.02,0.25,0.02c0.51,0,0.98-0.18,1.34-0.35c2.19-1.01,3.9-3.1,4.46-5.45
			c0.56-2.35-0.03-4.99-1.54-6.87c-0.64-0.81-1.68-1.36-2.53-1.36c-0.01,0-0.02,0-0.04,0c-0.52,0.01-0.95,0.22-1.24,0.62l0.34,0.25
			c0.22-0.29,0.52-0.44,0.91-0.45c0.01,0,0.02,0,0.03,0c0.72,0,1.64,0.5,2.2,1.21c1.43,1.79,1.99,4.29,1.46,6.52
			c-0.53,2.23-2.15,4.21-4.23,5.17c-0.38,0.17-0.88,0.37-1.37,0.3c-0.67-0.09-1.27-0.61-1.83-1.61c-1.42-2.5-1.94-5.56-1.41-8.38
			c0.12-0.67,0.34-1.5,0.91-2.07c0.48-0.47,1.35-0.71,1.92-0.27l0.26-0.33c-0.74-0.59-1.86-0.3-2.47,0.3
			c-0.65,0.64-0.89,1.56-1.03,2.29c-0.54,2.92-0.01,6.08,1.46,8.67C1482.05,976.41,1482.75,977.01,1483.56,977.11z"/>
		<polygon class="st11" points="1495.12,976.93 1495.12,975.04 1494.87,975.04 1493.34,963.42 1492.92,963.47 1494.7,976.96 		"/>
		<path class="st11" d="M1503.83,962.91c0.42-0.04,0.88,0.11,1.21,0.39c0.57,0.49,0.85,1.26,1.1,2.07c0.55,1.77,1.09,3.66,0.99,5.57
			c-0.1,2.06-0.99,3.86-2.39,4.8c-0.36,0.24-1.07,0.63-1.78,0.44c-0.69-0.18-1.16-0.85-1.57-1.55c-0.84-1.43-1.81-3.33-1.95-5.42
			c-0.14-2.09,0.66-4.02,2.09-5.03l-0.24-0.34c-1.55,1.1-2.41,3.17-2.26,5.4c0.15,2.17,1.15,4.13,2.01,5.6
			c0.45,0.77,0.99,1.52,1.82,1.74c0.16,0.04,0.32,0.06,0.49,0.06c0.52,0,1.08-0.19,1.62-0.56c1.51-1.02,2.47-2.93,2.58-5.13
			c0.1-1.98-0.45-3.91-1.01-5.71c-0.27-0.87-0.57-1.7-1.23-2.27c-0.41-0.35-0.99-0.54-1.52-0.49c-0.42,0.04-0.77,0.22-1.01,0.52
			l0.33,0.26C1503.32,963.01,1503.62,962.93,1503.83,962.91z"/>
		<path class="st11" d="M1513.8,976.73c-0.72-4.57-1.16-9.22-1.31-13.83l-0.42,0.01c0.15,4.63,0.59,9.3,1.31,13.88L1513.8,976.73z"
			/>
		<path class="st11" d="M1464.76,1004.18c0.66,0.03,1.19-0.6,1.41-1.65c0.27-1.31,0.41-2.65,0.4-3.99c0.44,0.99,1.08,1.9,1.87,2.63
			l0.22,0.2l1.58-3.74c0.2,0.43,0.28,0.92,0.36,1.41l0.05,0.3c0.13,0.72,0.37,1.61,1.08,2.1c0.4,0.28,0.99,0.33,1.46,0.13
			c0.05-0.02,0.1-0.05,0.15-0.08c-0.06,0.57-0.06,1.17,0.13,1.75c0.26,0.77,0.99,1.48,1.83,1.48c0.09,0,0.17-0.01,0.26-0.02
			c1.14-0.2,1.41-1.34,1.68-2.43c0.17-0.72,0.35-1.45,0.76-1.96l-0.33-0.26c-0.47,0.58-0.66,1.36-0.84,2.12
			c-0.26,1.05-0.48,1.97-1.35,2.12c-0.72,0.13-1.4-0.51-1.62-1.18c-0.25-0.75-0.12-1.6,0-2.36l-0.41-0.06
			c-0.05,0.29-0.29,0.44-0.43,0.5c-0.34,0.14-0.77,0.11-1.06-0.09c-0.58-0.4-0.79-1.19-0.9-1.83l-0.05-0.3
			c-0.11-0.67-0.23-1.36-0.63-1.93l-0.22-0.31l-1.66,3.92c-0.98-0.99-1.69-2.27-2.01-3.63l-0.41,0.06c0.14,1.79,0.03,3.59-0.33,5.35
			c-0.14,0.65-0.47,1.35-0.99,1.31c-0.28-0.01-0.54-0.22-0.75-0.43c-1.33-1.3-2.11-3.12-2.19-4.97l0.18,0.72l0.41-0.1l-0.78-3.05
			l-0.15,1.02c-0.36,2.41,0.5,4.97,2.24,6.68C1463.98,1003.88,1464.33,1004.17,1464.76,1004.18z"/>
		<path class="st11" d="M1488.79,999.74l0.38,0.17c0.5-1.11,1.93-1.72,3.07-1.29c1.14,0.43,1.83,1.82,1.48,2.99l-0.14,0.46
			l0.43-0.21c1.44-0.69,2.78-1.66,3.9-2.81c0.15,0.58,0.59,1.09,1.23,1.37c0.81,0.37,1.69,0.26,2.24-0.26
			c0.23-0.22,0.4-0.48,0.56-0.73c0.14-0.21,0.26-0.41,0.42-0.58c0.32-0.34,0.85-0.53,1.15-0.26c0.14,0.13,0.21,0.34,0.29,0.56
			c0.02,0.07,0.04,0.13,0.07,0.2c0.32,0.88,1.19,1.5,2.27,1.62c0.93,0.11,1.79-0.19,2.34-0.78c0.02,0.13,0,0.26-0.05,0.4
			c-0.09,0.25-0.28,0.43-0.5,0.48l0.1,0.41c0.36-0.08,0.65-0.36,0.8-0.74c0.14-0.38,0.1-0.79-0.11-1.08l-0.18-0.25l-0.17,0.26
			c-0.42,0.65-1.26,0.99-2.17,0.89c-0.91-0.1-1.65-0.62-1.92-1.35c-0.02-0.06-0.04-0.12-0.06-0.18c-0.08-0.25-0.18-0.54-0.41-0.74
			c-0.5-0.44-1.29-0.19-1.74,0.3c-0.18,0.2-0.33,0.42-0.47,0.64c-0.16,0.24-0.31,0.47-0.5,0.66c-0.43,0.41-1.13,0.48-1.78,0.18
			c-0.65-0.3-1.06-0.87-1.04-1.46l0.02-0.58l-0.39,0.43c-1.05,1.15-2.32,2.13-3.7,2.86c0.14-1.26-0.63-2.62-1.83-3.06
			C1491.05,997.72,1489.37,998.43,1488.79,999.74z"/>
		<path class="st11" d="M1515.25,1014.46l-0.38,0.17c0.09,0.21-0.05,0.43-0.19,0.55c-0.11,0.09-0.28,0.17-0.44,0.14
			c0.14-0.53,0.01-1.08-0.38-1.57c-0.61-0.77-1.7-1.22-2.66-1.08c-1.14,0.16-2.11,0.8-3.05,1.41c-0.34,0.22-0.69,0.46-1.05,0.66
			c-1.28,0.74-3,1.05-3.97,0.09c-0.3-0.3-0.49-0.68-0.69-1.09c-0.25-0.49-0.5-1-0.95-1.36c-1.29-1.01-3.17-0.13-4.46,1.2l-0.19,0.2
			c-1.03,1.06-2.19,2.28-3.58,2.08c-0.94-0.13-1.64-0.85-2.38-1.61c-0.79-0.81-1.61-1.65-2.75-1.73c-1.33-0.08-2.26,0.87-3.17,1.8
			c-0.61,0.62-1.24,1.26-1.98,1.59c-1.07,0.48-2.25,0.29-3.51,0.09c-1.01-0.16-2.06-0.34-3.07-0.13c-0.76,0.15-1.44,0.51-2.11,0.85
			c-0.61,0.31-1.23,0.64-1.89,0.79c-0.94,0.22-1.93,0.1-2.89-0.02l-7.01-0.85c-0.22-0.03-0.49-0.08-0.55-0.29
			c0.03-0.05,0.08-0.08,0.09-0.08c-0.01,0-0.04-0.01-0.05-0.02v0l0.19-0.1l0.19-0.1c-0.1-0.19-0.32-0.26-0.52-0.16
			c-0.24,0.11-0.41,0.41-0.29,0.68c0.18,0.4,0.68,0.46,0.89,0.48l7.01,0.85c0.56,0.07,1.16,0.14,1.77,0.14
			c0.42,0,0.85-0.04,1.27-0.13c0.71-0.17,1.36-0.5,1.99-0.83c0.67-0.35,1.3-0.67,2-0.82c0.94-0.19,1.95-0.03,2.92,0.13
			c1.26,0.2,2.56,0.42,3.74-0.12c0.81-0.36,1.47-1.03,2.11-1.68c0.88-0.9,1.7-1.75,2.84-1.67c0.98,0.06,1.71,0.81,2.48,1.6
			c0.76,0.78,1.55,1.59,2.63,1.74c1.6,0.22,2.84-1.07,3.94-2.21l0.19-0.2c0.86-0.89,2.66-2.13,3.9-1.16c0.38,0.3,0.6,0.74,0.84,1.21
			c0.21,0.42,0.43,0.85,0.77,1.2c1.19,1.2,3.15,0.74,4.47-0.02c0.36-0.21,0.72-0.45,1.07-0.67c0.94-0.62,1.83-1.2,2.87-1.35
			c0.8-0.11,1.76,0.28,2.27,0.93c0.24,0.3,0.48,0.78,0.26,1.35l-0.06,0.15l0.14,0.09c0.31,0.21,0.74,0.17,1.08-0.1
			C1515.27,1015.22,1515.4,1014.8,1515.25,1014.46z"/>
	</g>
	<rect x="1205.93" y="1075.37" class="st2" width="348.4" height="15.68"/>
	<g>
		<path class="st12" d="M1159.82,1130.34h-61.05c-0.19-3.07-0.23-6.14-0.09-9.21c0.14-3.41,0.42-6.84,1.01-10.21
			c0.02-0.11,0.04-0.22,0.06-0.33c0.71-3.96,1.09-4.27,4.95-5.59c13.04-4.49,27.22-5.89,40.9-4.23c3.66,0.44,7.55,1.25,10.07,3.93
			c1.9,2.03,2.68,4.73,3.05,7.55c0.17,1.28,0.26,2.59,0.32,3.85C1159.3,1120.84,1159.56,1125.59,1159.82,1130.34z"/>
		<path class="st12" d="M1155.37,909.04c-0.73-5.66-5.22-10.95-10.9-11.53c-3.59-0.37-7.2,1.07-10.79,0.63
			c-5.13-0.64-9.17-4.97-14.26-5.9c-6.65-1.22-12.84,3.62-17.27,8.72c-4.32,4.98-8.07,10.75-9.06,17.27
			c-0.66,4.32-0.1,8.85-1.54,12.97c-1.36,3.86-4.32,6.91-6.29,10.49c-4.4,7.99-3.18,18.71,2.92,25.51c2.01,2.25,4.58,4.24,5.39,7.14
			c1.09,3.92-1.44,8.03-0.99,12.07c0.68,6.18,7.78,9.51,13.98,9.92c15.64,1.01,31.2-10.28,35.09-25.47
			c2.85-11.17-0.08-22.91,2.65-34.08C1146.67,927.03,1156.74,919.72,1155.37,909.04z"/>
		<path class="st13" d="M1080.76,1010.02c-1.43,8.66-1.67,17.65,0.58,26.14c3.17,12,11.1,22.38,13.82,34.48
			c2.02,8.96,1.05,18.31-0.31,27.4c-0.58,3.86-0.97,8.47,2,11.02c1.11,0.95,2.56,1.46,3.62,2.48c1.4,1.35,2,3.49,3.68,4.47
			c1.07,0.62,2.36,0.64,3.59,0.64c16.31-0.05,32.61-1.35,48.72-3.91c3.02-0.48,6.76-1.75,6.98-4.8c0.22-3.06-3.52-5.4-3.17-8.46
			c0.12-1.04,0.71-1.95,1.11-2.91c2.07-4.93-0.74-10.38-2.6-15.39c-3.46-9.33-3.58-19.85-0.35-29.26c1.69-4.92,4.29-9.67,4.49-14.86
			c0.29-7.52-4.44-14.23-6.35-21.5c-1.27-4.84-1.29-9.93-2.11-14.87c-0.82-4.94-2.66-10.03-6.62-13.09
			c-7.95-6.14-22.58-5.34-31.86-3.14c-7.93,1.88-14.96,7.6-21.94,11.57C1087.67,999.66,1082.04,1002.22,1080.76,1010.02z"/>
		<path class="st2" d="M1272.64,959.85c0.04-0.4,0.13-0.83,0.42-1.11c0.63-0.6,1.66-0.11,2.31,0.46c2.6,2.27,4.09,5.77,3.93,9.22
			c-0.02,0.46-0.06,0.95,0.19,1.33c0.63,0.98,2.14,0.26,3.01-0.52c3.27-2.93,6.55-5.87,9.82-8.8c0.79-0.71,1.64-1.45,2.69-1.62
			c1.05-0.17,2.31,0.49,2.35,1.55c0.04,0.91-0.67,2.11,0.12,2.55c1.46-0.61,3.02-1.24,4.57-0.97s3,1.83,2.52,3.34
			c1.88-0.4,3.04,2.23,2.49,4.08c-0.54,1.85-1.95,3.4-2.2,5.31c-0.11,0.86,0.02,1.75-0.16,2.61c-0.42,1.98-2.33,3.21-4.08,4.22
			c-3.51,2.02-7.01,4.05-10.52,6.07c-3.88,2.24-8.04,4.54-12.5,4.31c-1.26-0.07-2.52-0.34-3.77-0.22c-2.13,0.2-3.98,1.46-5.73,2.68
			c-3,2.1-6.01,4.19-9.01,6.29c-0.8,0.56-1.77,1.15-2.69,0.84c-0.7-0.24-1.14-0.92-1.51-1.57c-1.54-2.74-2.74-5.68-3.56-8.71
			c-1.73-6.38,9.71-7.94,13.47-11.51c2.4-2.27,5.26-4.99,6.98-7.8C1274.26,967.87,1272.19,964.13,1272.64,959.85z"/>
		<path class="st13" d="M1163.09,993.42c6.94,3.63,13.88,7.26,20.82,10.88c6.55,3.42,13.77,6.95,21,5.45
			c2.74-0.57,5.27-1.84,7.76-3.11c15.62-7.99,30.84-16.75,46.05-25.51c3.69,5.57,7.39,11.14,11.08,16.71
			c1,1.5-57.65,38.62-65.06,39.48c-2.87,0.33-5.76-0.24-8.58-0.87c-18.59-4.17-36.56-11.07-53.16-20.41
			c-4.07-2.29-8.27-4.9-11.18-8.63c-2.46-3.16-6.47-8.98-5.13-13.1c1.75-5.36,9.22-8.29,14.32-8.26
			C1148.88,986.1,1156.29,989.87,1163.09,993.42z"/>
		<path class="st2" d="M1106.53,950.05c4.74,1.03,5.89,1.81,8.11,6.25c2.8,5.59,9.32,8.12,15.38,9.65c3.47,0.88,7.1,1.59,10.62,0.89
			c10.18-2.06,5.88-11.88,10.14-18.61c0.98-1.55,2.61-3.13,1.87-5.12c-0.34-0.91-0.99-1.67-1.52-2.49
			c-1.33-2.07-1.95-4.59-1.72-7.04c0.21-2.22,1.08-4.34,1.37-6.55c1.88-14.59-15.74-23.08-27.61-17.8
			c-11.52,5.13-8.53,16.7-14.47,22.88c-0.61,0.63-4.17,0.35-5.59,1.67c-1.68,1.56-2.27,4.84-2.3,6.99
			C1100.76,944.55,1102.37,949.14,1106.53,950.05z"/>
		<path class="st12" d="M1116.59,926.8c3.58-4.04,9.49-4.81,14.27-7.32c3.95-2.07,7.2-5.43,9.13-9.45c2.8,4.04,5.59,8.07,8.39,12.11
			c0.4,0.57,0.95,1.21,1.63,1.08c0.4-0.08,0.7-0.41,0.94-0.74c2.22-3.17,1.1-7.58-0.77-10.96c-1.89-3.42-4.54-6.51-7.98-8.37
			c-2.51-1.35-5.34-1.99-8.17-2.27c-8.55-0.83-17.6,1.84-23.62,7.97c-4.64,4.73-7.87,12.52-6.43,19.21
			c1.11,5.17,6.23,8.32,8.79,12.81C1113.03,936.04,1113.19,930.64,1116.59,926.8z"/>
		<path class="st2" d="M1115.02,965.77c0.38,6.41-0.48,12.82-1.55,19.17c-0.35,2.1-0.7,4.36,0.38,6.23
			c1.01,1.76,3.07,2.78,5.09,3.52c2.73,1.01,5.6,1.71,8.52,2.06c3.34,0.41,7.13,0.24,9.53-1.92c2.13-1.92,2.59-4.96,2.13-7.66
			s-1.71-5.24-2.54-7.87c-1.65-5.21-1.66-10.74-1.11-16.13c0.53-5.24,1.31-11.26-2.64-15.09c-1.62-1.56-3.82-2.5-6.02-3.25
			c-4.52-1.54-14.16-4.2-15.19,2.35C1110.69,953.09,1114.66,959.79,1115.02,965.77z"/>
		<path class="st11" d="M1135.54,995.13c-1.7,4.51-3.01,9.17-3.89,13.91c-7.41-3.08-14.97-6.25-20.92-11.63
			c-1.24-1.12-2.45-2.44-2.74-4.08c-0.48-2.74,2.05-6.75,3.98-8.57c2.49-2.34,4.42,0.59,6.64,2.26
			C1119.88,987.96,1134.94,996.72,1135.54,995.13z"/>
		<path class="st11" d="M1140.39,1006.89c1.43-3.84,2.79-7.7,4.08-11.59c0.37-1.13,0.75-2.32,0.58-3.5c-0.19-1.3-1-2.41-1.79-3.46
			c-1.85-2.46-3.72-4.94-5.97-7.04c0.95,0.89,0.24,5.36,0.07,6.54c-0.3,2.16-2.1,4.83-2.14,6.83c-0.03,1.71,1.89,3.91,2.66,5.54
			C1138.91,1002.36,1139.75,1004.6,1140.39,1006.89z"/>
		<path class="st13" d="M1103.67,1018.47c-0.37,15.85-5.54,31.02-10.26,46.28c-3.64,11.79-7.01,23.62-7.68,35.86
			c-0.17,3.1-0.16,6.24,0.47,9.27c0.66,3.15,1.97,6.12,3.13,9.13c1.42,3.69,2.62,7.48,3.58,11.33h-27.59
			c-1.46-6.35-2.73-12.76-2.89-19.27c-0.12-4.69,0.34-9.38,0.8-14.04c1.1-11.23,2.21-22.47,3.31-33.71
			c0.82-8.39,1.65-16.79,3.25-25.07c2.13-11.01,5.25-28.77,14.56-36.3c0.62-0.5,1.3-0.91,2.03-1.22c3.42-1.49,7.82-1.03,10.96,0.87
			C1103.02,1005.06,1103.81,1012.44,1103.67,1018.47z"/>
	</g>
	<g>
		<circle class="st7" cx="1265.18" cy="1167.57" r="21.07"/>
		<g>
			<path class="st9" d="M1270.67,1178.81c-1.37-0.02-2.52-0.38-3.62-0.91c-1.71-0.82-3.22-1.94-4.65-3.18
				c-2.24-1.95-4.32-4.05-6.12-6.41c-0.99-1.3-1.86-2.68-2.41-4.23c-0.42-1.2-0.6-2.43-0.3-3.69c0.26-1.07,0.79-1.97,1.65-2.66
				c0.5-0.39,1.02-0.77,1.53-1.14c0.43-0.31,0.87-0.33,1.31-0.03c0.24,0.17,0.49,0.36,0.7,0.57c0.84,0.86,1.67,1.73,2.51,2.6
				c0.53,0.55,0.62,1.43-0.05,2.06c-0.63,0.59-1.21,1.24-1.84,1.84c-0.34,0.32-0.44,0.69-0.3,1.1c0.16,0.47,0.35,0.93,0.6,1.35
				c0.82,1.37,1.9,2.52,3.03,3.64c1.01,1.01,2.07,1.98,3.28,2.73c0.42,0.26,0.89,0.46,1.35,0.66c0.15,0.07,0.34,0.07,0.51,0.09
				c0.25,0.02,0.46-0.07,0.64-0.25c0.66-0.67,1.33-1.32,2-1.98c0.54-0.54,1.33-0.61,1.89-0.09c1.01,0.94,1.98,1.91,2.97,2.87
				c0.03,0.03,0.05,0.06,0.08,0.1c0.57,0.71,0.59,1.08,0.06,1.82c-0.36,0.5-0.72,1-1.12,1.47
				C1273.37,1178.3,1272.04,1178.77,1270.67,1178.81z"/>
		</g>
	</g>
	<g>
		<circle class="st15" cx="1322.39" cy="1167.57" r="21.07"/>
		<g>
			<path class="st9" d="M1309.65,1163.91c0.98-0.96,2.05-1.52,3.2-1.93c1.79-0.63,3.65-0.91,5.53-1.04c2.96-0.21,5.92-0.2,8.86,0.19
				c1.62,0.21,3.21,0.57,4.7,1.28c1.15,0.55,2.14,1.29,2.82,2.4c0.57,0.94,0.84,1.95,0.71,3.05c-0.07,0.63-0.18,1.26-0.27,1.89
				c-0.08,0.52-0.38,0.85-0.9,0.94c-0.3,0.05-0.6,0.09-0.9,0.09c-1.2-0.01-2.41-0.04-3.61-0.06c-0.76-0.01-1.45-0.57-1.42-1.49
				c0.03-0.87-0.02-1.74,0-2.6c0.01-0.47-0.18-0.8-0.57-0.99c-0.44-0.22-0.91-0.41-1.38-0.53c-1.55-0.38-3.13-0.43-4.71-0.43
				c-1.43,0.01-2.86,0.07-4.26,0.39c-0.49,0.11-0.96,0.31-1.42,0.49c-0.16,0.06-0.29,0.19-0.42,0.3c-0.19,0.16-0.27,0.37-0.27,0.63
				c0.01,0.94,0,1.88-0.01,2.81c0,0.76-0.51,1.37-1.27,1.4c-1.38,0.05-2.76,0.05-4.13,0.08c-0.04,0-0.08-0.01-0.13-0.01
				c-0.9-0.09-1.18-0.35-1.33-1.24c-0.1-0.61-0.2-1.22-0.25-1.83C1308.1,1166.17,1308.71,1164.9,1309.65,1163.91z"/>
		</g>
	</g>
	<g>
		<g>
			<path class="st7" d="M663.01,1221.33H346.34c-3.67,0-6.65-2.98-6.65-6.65l0,0c0-3.67,2.98-6.65,6.65-6.65h316.67
				c3.67,0,6.65,2.98,6.65,6.65l0,0C669.65,1218.36,666.68,1221.33,663.01,1221.33z"/>
			<rect x="345.53" y="1218.15" class="st7" width="104.07" height="183.58"/>
			<rect x="444.32" y="1218.15" class="st12" width="221.24" height="31.71"/>
			<rect x="562.22" y="1218.15" class="st7" width="104.07" height="183.58"/>
			<g>
				<path class="st12" d="M634.24,1203.8h-82.75l15.36-48.81c0.34-1.06,1.32-1.79,2.44-1.79h77.4c1.73,0,2.96,1.68,2.44,3.32
					L634.24,1203.8z"/>
				<polygon class="st9" points="630.93,1199.51 556.36,1199.51 570.71,1156.69 645.28,1156.69 				"/>
				<path class="st12" d="M631.85,1208.01H515.96c-1.32,0-2.38-1.07-2.38-2.38l0,0c0-1.32,1.07-2.38,2.38-2.38h115.89
					c1.32,0,2.38,1.07,2.38,2.38l0,0C634.24,1206.95,633.17,1208.01,631.85,1208.01z"/>
			</g>
		</g>
		<g>
			<path class="st16" d="M464.03,1382.37c-0.01,0.46-0.02,0.95,0.18,1.37c0.27,0.57,0.85,0.92,1.42,1.19
				c2.96,1.4,6.45,1.62,9.56,0.61c0.85-0.27,1.69-0.65,2.34-1.26c1.7-1.58,1.71-4.2,1.9-6.52c0.15-1.87,0.5-3.72,1.04-5.52
				c0.66-2.2,1.55-4.75,0.22-6.63c-1.05-1.47-3.04-1.84-4.83-2.09c-1.53-0.21-3.08-0.43-4.62-0.25c-4.19,0.48-4.57,3.48-5.48,7
				C464.73,1374.23,464.15,1378.29,464.03,1382.37z"/>
			<path class="st12" d="M455.44,1280.35c7.77-0.24,15.54,0.19,23.28,0.93c2.34,0.23,4.85,0.44,7.01,1.46
				c4.93,2.32,0.17,13.5-0.75,17.18c-3.1,12.41-7.42,25.39-11.39,37.52c-4.12,12.59-6.11,19.57-10.26,32.16
				c-0.35,1.07-0.69,2.29-0.12,3.27c0.71,1.23,2.4,1.36,3.81,1.34c3.64-0.04,7.28-0.07,10.92-0.11c3.54-0.03,5.46,0.82,6.55-3.17
				c4.35-15.81,8.39-26.47,14.22-41.8c1.42-3.73,2.88-7.44,4.4-11.13c2.35-5.69,4.84-11.33,7.04-17.07
				c2.93-7.65,5.34-15.5,7.22-23.48c0.79-3.36,2.36-7.15,0.79-10.44c-1.3-2.7-3.78-4.47-6.37-5.83c-8.9-4.65-19.08-6.19-28.45-9.8
				c-2.96-1.14-5.83-2.49-8.82-3.54c-6.21-2.19-12.77-3.06-19.3-3.6c-5.92-0.48-10.41-1.82-16.17,0.39
				c-4.11,1.58-8.12,3.39-12.02,5.42c-3.64,1.9-7.45,4.3-8.81,8.17c-2.2,6.27,0.42,13.39,5.73,16.93
				c4.68,3.12,10.27,4.63,15.86,5.19C445.05,1280.87,450.24,1280.51,455.44,1280.35z"/>
			<path class="st12" d="M409.33,1267.18c0.68,3.41,1.45,7.01,3.81,9.56c3.51,3.79,9.31,4.08,14.48,4.1
				c3.85,0.02,7.69,0.04,11.54,0.06c5.66,0.03,11.87-0.13,16.16-3.83c4.09-3.53,5.3-9.35,5.57-14.74c0.25-5-0.1-10.03-1.03-14.94
				c-0.42-2.24-0.98-4.5-2.21-6.42c-2.12-3.32-6-5.19-9.89-5.78c-3.89-0.59-7.85-0.07-11.76,0.45c-5.43,0.72-10.85,1.45-16.28,2.17
				c-3.01,0.4-6.06,0.8-8.97,1.71c-3.49,1.1-3.32,2.93-3.61,6.68C406.59,1253.24,407.96,1260.3,409.33,1267.18z"/>
			<g>
				<path class="st2" d="M442.13,1108.58c0.24,2.16,0.9,4.33,0.5,6.46c-1.38,7.25-11.46,7.3-16.5,4.42
					c-1.45-0.83-2.82-2.02-3.25-3.63c-0.3-1.1-0.13-2.26,0.01-3.4c0.4-3.38,0.47-6.79,0.21-10.19c-0.24-3.16,0.55-4.46,2.66-6.61
					c1.91-1.95,4.3-3.48,7.1-3.59c3.8-0.15,7.21,2.44,8.96,5.67C443.71,1101.2,441.71,1104.82,442.13,1108.58z"/>
				<path class="st2" d="M454.04,1064.31c0.72,4.21-0.06,8.51-0.1,12.78c-0.06,6.54,2.65,14.43,0.04,20.68
					c-2.2,5.27-7.73,9.12-13.49,9.01c-3.25-0.07-6.38-1.24-9.32-2.62c-3.8-1.78-7.42-3.92-11.04-6.06
					c-5.5-3.25-6.21-11.04-6.17-16.82c0.05-6.63,1.88-13.27,5.45-18.87c2.77-4.36,6.64-8.19,11.46-10.05
					C439.6,1048.98,452.39,1054.65,454.04,1064.31z"/>
				<path class="st12" d="M431.8,1077.9c2.1-0.23,3.72,1.72,4.91,3.46c2.29-1.89,0.49-6.08,2.44-8.31c1.05-1.21,2.89-1.44,4.05-2.56
					c1.36-1.31,1.83-3.82,3.7-4.05c0.88-0.11,1.7,0.38,2.52,0.69c4.49,1.71,9.7-2.27,10.41-7.02c0.71-4.75-2.09-9.46-5.89-12.4
					c-3.41-2.64-8.23-4.13-12.05-2.14c-1.51,0.79-2.83,2.09-4.52,2.3c-0.91,0.11-1.83-0.12-2.73-0.28
					c-9.69-1.71-20.05,5.62-21.66,15.32c-0.18,1.06-0.26,2.16-0.68,3.15c-0.44,1.05-1.21,1.92-1.9,2.82
					c-5.35,6.94-6.17,17.81-0.09,24.13c2.76,2.87,6.53,4.5,10.19,6.07c2.35,1.01,4.92,2.03,7.4,1.42c2.9-0.71,5.44-3.86,5.97-6.77
					c0.51-2.84-0.46-3.1-2.36-4.73C428.92,1086.83,425.92,1078.54,431.8,1077.9z"/>
			</g>
			<path class="st17" d="M433.93,1113.07c7.16-0.28,14.36,1.37,21.11,4.84c1.82,0.93,3.62,2.01,5.18,3.64
				c5.45,5.68,6.77,16.48,6.87,26.15c0.08,7.68-0.32,15.35-0.72,23c-0.48,9.08-0.95,18.16-1.43,27.23
				c-0.33,6.36-0.67,12.76-1.75,18.95c-0.86,4.94-2.2,9.88-1.88,14.95c0.12,1.98,0.5,4.05,0,5.91c-0.73,2.74-2.99,3.81-4.97,4.47
				c-16.59,5.51-34.06,5.43-50.62-0.24c-1.16-0.4-2.38-0.88-3.18-2.13c-0.97-1.53-1.08-3.78-1.15-5.85
				c-0.48-13.63-1.59-27.21-3.33-40.62c-1.65-12.69-3.87-25.4-3.58-38.31c0.25-11.22,3-27.4,10.37-33.54
				C412.42,1115.22,425.33,1113.41,433.93,1113.07z"/>
			<path class="st18" d="M475.73,1401.43c0.71-0.28,1.41-0.59,2.17-0.71c0.97-0.15,1.95,0.04,2.91,0.21c6.88,1.18,13.99,1,20.8-0.54
				c0.75-0.17,1.53-0.37,2.1-0.89c1-0.92,1-2.46,0.92-3.82c-0.14-2.53-0.52-5.49-2.72-6.75c-1.78-1.03-4-0.48-6.06-0.49
				c-6.85-0.05-12-6.45-18.64-8.12c-2.5-0.63-5.12-0.56-7.69-0.38c-3.27,0.23-6.99,0.91-8.67,3.72c-0.83,1.39-0.99,3.08-1.13,4.69
				c-0.33,3.81-2.36,10.64,1.26,13.34C464.55,1404.34,472.03,1402.87,475.73,1401.43z"/>
			<path class="st16" d="M433.35,1382.32c-0.01,0.46-0.02,0.95,0.18,1.37c0.27,0.57,0.85,0.92,1.42,1.19
				c2.96,1.4,6.45,1.62,9.56,0.61c0.85-0.27,1.69-0.65,2.34-1.26c1.7-1.58,1.71-4.2,1.9-6.52c0.15-1.87,0.5-3.72,1.04-5.52
				c0.66-2.2,1.55-4.75,0.22-6.63c-1.05-1.47-3.04-1.84-4.83-2.09c-1.53-0.21-3.08-0.43-4.62-0.25c-4.19,0.48-4.57,3.48-5.48,7
				C434.06,1374.18,433.48,1378.25,433.35,1382.32z"/>
			<path class="st12" d="M456.19,1277.86c0.15,1.84,0.42,3.69,0.56,5.51c0.66,8.91-2.71,18.04-5.14,26.5
				c-2.66,9.25-5.69,18.38-8.69,27.53c-4.12,12.59-6.11,19.57-10.26,32.16c-0.35,1.07-0.69,2.29-0.12,3.27
				c0.71,1.23,2.4,1.36,3.81,1.34c3.64-0.04,7.28-0.07,10.92-0.11c3.54-0.03,5.46,0.82,6.55-3.17c4.35-15.81,8.39-26.47,14.22-41.8
				c1.42-3.73,2.88-7.44,4.4-11.13c2.35-5.69,4.84-11.33,7.04-17.07c2.93-7.65,5.34-15.5,7.22-23.48c0.79-3.36,2.36-7.15,0.79-10.44
				c-1.77-3.69-6.65-7.45-10.78-7.65c-2.7-0.13-5.35,0.69-7.88,1.65c-5.08,1.93-10.34,5-12.08,10.15
				C456.02,1273.29,456,1275.56,456.19,1277.86z"/>
			<path class="st18" d="M445.06,1401.38c0.71-0.28,1.41-0.59,2.17-0.71c0.97-0.15,1.95,0.04,2.91,0.21c6.88,1.18,13.99,1,20.8-0.54
				c0.75-0.17,1.53-0.37,2.1-0.89c1-0.92,1-2.46,0.92-3.82c-0.14-2.53-0.52-5.49-2.72-6.75c-1.78-1.03-4.01-0.48-6.06-0.49
				c-6.85-0.05-12-6.45-18.64-8.12c-2.5-0.63-5.12-0.56-7.69-0.38c-3.27,0.23-6.99,0.91-8.67,3.72c-0.83,1.39-0.99,3.08-1.13,4.69
				c-0.33,3.81-2.36,10.64,1.26,13.34C433.88,1404.3,441.35,1402.83,445.06,1401.38z"/>
			<path class="st2" d="M525.08,1194.61c0.91,0.42,1.73,1.02,2.65,1.4c1.62,0.66,3.46,0.58,5.07,1.26c3.27,1.37,4.57,5.24,5.45,8.67
				c0.14,0.54,0.28,1.14,0.05,1.65c-0.4,0.88-1.57,1-2.54,0.99c-8.94-0.09-17.88-0.18-26.82-0.27c-1.61-0.02-3.27-0.04-4.73-0.72
				c-5.63-2.6-3.39-10.05,1.93-10.89c3.13-0.5,6.03-0.74,9.12-1.6C518.44,1194.23,521.91,1193.15,525.08,1194.61z"/>
			<path class="st17" d="M463.41,1205.58c-3.79-9.43-6.42-19.33-10.09-28.68c-3.78-9.63-7.16-19.3-9.53-29.4
				c-0.69-2.94-1.31-5.92-1.36-8.94c-0.12-8.19,6.9-25,17.77-17.75c2.65,1.76,4.07,4.82,5.38,7.72c7.85,17.5,11.6,36.28,17.85,54.37
				c0.48,1.39,1,2.83,2.01,3.9c1.15,1.21,2.79,1.79,4.39,2.25c5.69,1.64,11.69,2.26,17.6,1.8c1.72-0.13,3.61-0.32,5.04,0.65
				c2.04,1.37,2.13,4.29,2,6.74c-0.13,2.53-0.26,5.06-0.38,7.6c-0.03,0.58-0.08,1.21-0.48,1.62c-0.33,0.33-0.81,0.45-1.27,0.54
				c-10.51,2.14-21.36,1.48-32.06,0.8c-4.57-0.29-9.13-0.58-13.7-0.86c-0.65-0.04-1.33-0.09-1.87-0.44
				C464.04,1207.09,463.7,1206.31,463.41,1205.58z"/>
		</g>
		<g>
			<path class="st19" d="M482,1299.08h-73.58c-5.11,0-9.25-4.14-9.25-9.25l0,0c0-5.11,4.14-9.25,9.25-9.25H482
				c5.11,0,9.25,4.14,9.25,9.25l0,0C491.26,1294.94,487.11,1299.08,482,1299.08z"/>
			<g>
				<path class="st8" d="M437.71,1264.8h-55.13c-5.22,0-9.66-3.78-10.51-8.92l-11.41-69.12c-1.29-7.82,4.74-14.94,12.67-14.94h50.7
					c6.29,0,11.65,4.55,12.67,10.75l11.53,69.84C449.3,1258.9,444.29,1264.8,437.71,1264.8z"/>
				<path class="st19" d="M430.12,1264.8h-55.13c-5.22,0-9.66-3.78-10.51-8.92l-11.41-69.12c-1.29-7.82,4.74-14.94,12.67-14.94h50.7
					c6.29,0,11.65,4.55,12.67,10.75l11.53,69.84C441.7,1258.9,436.7,1264.8,430.12,1264.8z"/>
			</g>
			<g>
				<path class="st8" d="M454.1,1306.12h-27.63c-1.49,0-2.82-0.9-3.38-2.28l-32.37-80.21c-0.75-1.87,0.15-3.99,2.01-4.74
					c1.87-0.75,3.99,0.15,4.74,2.01l31.45,77.93h25.17c2.01,0,3.64,1.63,3.64,3.64C457.74,1304.49,456.11,1306.12,454.1,1306.12z"/>
			</g>
			<rect x="441.44" y="1305.51" class="st19" width="7.55" height="87.3"/>
			<path class="st8" d="M478.75,1395.4L478.75,1395.4c0-2.09-1.69-3.78-3.78-3.78h-58.39c-2.09,0-3.78,1.69-3.78,3.78l0,0
				c0,2.09,1.69,3.78,3.78,3.78h58.39C477.06,1399.18,478.75,1397.49,478.75,1395.4z"/>
			<circle class="st19" cx="418.79" cy="1402.09" r="8.81"/>
			<circle class="st19" cx="445.21" cy="1402.09" r="8.81"/>
			<circle class="st19" cx="473.65" cy="1402.09" r="8.81"/>
		</g>
	</g>
	<g>
		<g>
			<path class="st7" d="M1021.25,1221.33H704.58c-3.67,0-6.65-2.98-6.65-6.65l0,0c0-3.67,2.98-6.65,6.65-6.65h316.67
				c3.67,0,6.65,2.98,6.65,6.65l0,0C1027.89,1218.36,1024.92,1221.33,1021.25,1221.33z"/>
			<rect x="699.22" y="1218.15" class="st7" width="104.07" height="183.58"/>
			<rect x="802.56" y="1218.15" class="st12" width="221.24" height="31.71"/>
			<rect x="920.46" y="1218.15" class="st7" width="104.07" height="183.58"/>
			<g>
				<path class="st12" d="M996.8,1203.8h-82.75l15.36-48.81c0.34-1.06,1.32-1.79,2.44-1.79h77.4c1.73,0,2.96,1.68,2.44,3.32
					L996.8,1203.8z"/>
				<polygon class="st9" points="993.5,1199.51 918.93,1199.51 933.28,1156.69 1007.85,1156.69 				"/>
				<path class="st12" d="M994.42,1208.01H878.53c-1.32,0-2.38-1.07-2.38-2.38l0,0c0-1.32,1.07-2.38,2.38-2.38h115.89
					c1.32,0,2.38,1.07,2.38,2.38l0,0C996.8,1206.95,995.73,1208.01,994.42,1208.01z"/>
			</g>
		</g>
		<g>
			<path class="st16" d="M822.27,1382.37c-0.01,0.46-0.02,0.95,0.18,1.37c0.27,0.57,0.85,0.92,1.42,1.19
				c2.96,1.4,6.45,1.62,9.56,0.61c0.85-0.27,1.69-0.65,2.34-1.26c1.7-1.58,1.71-4.2,1.9-6.52c0.15-1.87,0.5-3.72,1.04-5.52
				c0.66-2.2,1.55-4.75,0.22-6.63c-1.05-1.47-3.04-1.84-4.83-2.09c-1.53-0.21-3.08-0.43-4.62-0.25c-4.19,0.48-4.57,3.48-5.48,7
				C822.97,1374.23,822.39,1378.29,822.27,1382.37z"/>
			<path class="st12" d="M813.68,1280.35c7.77-0.24,15.54,0.19,23.28,0.93c2.34,0.23,4.85,0.44,7.01,1.46
				c4.93,2.32,0.17,13.5-0.75,17.18c-3.1,12.41-7.42,25.39-11.39,37.52c-4.12,12.59-6.11,19.57-10.26,32.16
				c-0.35,1.07-0.69,2.29-0.12,3.27c0.71,1.23,2.4,1.36,3.81,1.34c3.64-0.04,7.28-0.07,10.92-0.11c3.54-0.03,5.46,0.82,6.55-3.17
				c4.35-15.81,8.39-26.47,14.22-41.8c1.42-3.73,2.88-7.44,4.4-11.13c2.35-5.69,4.84-11.33,7.04-17.07
				c2.93-7.65,5.34-15.5,7.22-23.48c0.79-3.36,2.36-7.15,0.79-10.44c-1.3-2.7-3.78-4.47-6.37-5.83c-8.9-4.65-19.08-6.19-28.45-9.8
				c-2.96-1.14-5.83-2.49-8.82-3.54c-6.21-2.19-12.77-3.06-19.3-3.6c-5.92-0.48-10.41-1.82-16.17,0.39
				c-4.11,1.58-8.12,3.39-12.02,5.42c-3.64,1.9-7.45,4.3-8.81,8.17c-2.2,6.27,0.42,13.39,5.73,16.93
				c4.68,3.12,10.27,4.63,15.86,5.19C803.29,1280.87,808.48,1280.51,813.68,1280.35z"/>
			<path class="st12" d="M767.57,1267.18c0.68,3.41,1.45,7.01,3.81,9.56c3.51,3.79,9.31,4.08,14.48,4.1
				c3.85,0.02,7.69,0.04,11.54,0.06c5.66,0.03,11.87-0.13,16.16-3.83c4.09-3.53,5.3-9.35,5.57-14.74c0.25-5-0.1-10.03-1.03-14.94
				c-0.42-2.24-0.98-4.5-2.21-6.42c-2.12-3.32-6-5.19-9.89-5.78c-3.89-0.59-7.85-0.07-11.76,0.45c-5.43,0.72-10.85,1.45-16.28,2.17
				c-3.01,0.4-6.06,0.8-8.97,1.71c-3.49,1.1-3.32,2.93-3.61,6.68C764.83,1253.24,766.2,1260.3,767.57,1267.18z"/>
			<g>
				<path class="st2" d="M800.38,1108.58c0.24,2.16,0.9,4.33,0.5,6.46c-1.38,7.25-11.46,7.3-16.5,4.42
					c-1.45-0.83-2.82-2.02-3.25-3.63c-0.3-1.1-0.13-2.26,0.01-3.4c0.4-3.38,0.47-6.79,0.21-10.19c-0.24-3.16,0.55-4.46,2.66-6.61
					c1.91-1.95,4.3-3.48,7.1-3.59c3.8-0.15,7.21,2.44,8.96,5.67C801.95,1101.2,799.95,1104.82,800.38,1108.58z"/>
				<path class="st2" d="M812.29,1064.31c0.72,4.21-0.06,8.51-0.1,12.78c-0.06,6.54,2.65,14.43,0.04,20.68
					c-2.2,5.27-7.73,9.12-13.49,9.01c-3.25-0.07-6.38-1.24-9.32-2.62c-3.8-1.78-7.42-3.92-11.04-6.06
					c-5.5-3.25-6.21-11.04-6.17-16.82c0.05-6.63,1.88-13.27,5.45-18.87c2.77-4.36,6.64-8.19,11.46-10.05
					C797.84,1048.98,810.63,1054.65,812.29,1064.31z"/>
			</g>
			<path class="st10" d="M792.17,1113.07c7.16-0.28,14.36,1.37,21.11,4.84c1.82,0.93,3.62,2.01,5.18,3.64
				c5.45,5.68,6.77,16.48,6.87,26.15c0.08,7.68-0.32,15.35-0.72,23c-0.48,9.08-0.95,18.16-1.43,27.23
				c-0.33,6.36-0.67,12.76-1.75,18.95c-0.86,4.94-2.2,9.88-1.88,14.95c0.12,1.98,0.5,4.05,0,5.91c-0.73,2.74-2.99,3.81-4.97,4.47
				c-16.59,5.51-34.06,5.43-50.62-0.24c-1.16-0.4-2.38-0.88-3.18-2.13c-0.97-1.53-1.08-3.78-1.15-5.85
				c-0.48-13.63-1.59-27.21-3.33-40.62c-1.65-12.69-3.87-25.4-3.58-38.31c0.25-11.22,3-27.4,10.37-33.54
				C770.67,1115.22,783.57,1113.41,792.17,1113.07z"/>
			<path class="st18" d="M833.98,1401.43c0.71-0.28,1.41-0.59,2.17-0.71c0.97-0.15,1.95,0.04,2.91,0.21c6.88,1.18,13.99,1,20.8-0.54
				c0.75-0.17,1.53-0.37,2.1-0.89c1-0.92,1-2.46,0.92-3.82c-0.14-2.53-0.52-5.49-2.72-6.75c-1.78-1.03-4.01-0.48-6.06-0.49
				c-6.85-0.05-12-6.45-18.64-8.12c-2.5-0.63-5.12-0.56-7.69-0.38c-3.27,0.23-6.99,0.91-8.67,3.72c-0.83,1.39-0.99,3.08-1.13,4.69
				c-0.33,3.81-2.36,10.64,1.26,13.34C822.8,1404.34,830.27,1402.87,833.98,1401.43z"/>
			<path class="st16" d="M791.59,1382.32c-0.01,0.46-0.02,0.95,0.18,1.37c0.27,0.57,0.85,0.92,1.42,1.19
				c2.96,1.4,6.45,1.62,9.56,0.61c0.85-0.27,1.69-0.65,2.34-1.26c1.7-1.58,1.71-4.2,1.9-6.52c0.15-1.87,0.5-3.72,1.04-5.52
				c0.66-2.2,1.55-4.75,0.22-6.63c-1.05-1.47-3.04-1.84-4.83-2.09c-1.53-0.21-3.08-0.43-4.62-0.25c-4.19,0.48-4.57,3.48-5.48,7
				C792.3,1374.18,791.72,1378.25,791.59,1382.32z"/>
			<path class="st12" d="M814.43,1277.86c0.15,1.84,0.42,3.69,0.56,5.51c0.66,8.91-2.71,18.04-5.14,26.5
				c-2.66,9.25-5.69,18.38-8.69,27.53c-4.12,12.59-6.11,19.57-10.26,32.16c-0.35,1.07-0.69,2.29-0.12,3.27
				c0.71,1.23,2.4,1.36,3.81,1.34c3.64-0.04,7.28-0.07,10.92-0.11c3.54-0.03,5.46,0.82,6.55-3.17c4.35-15.81,8.39-26.47,14.22-41.8
				c1.42-3.73,2.88-7.44,4.4-11.13c2.35-5.69,4.84-11.33,7.04-17.07c2.93-7.65,5.34-15.5,7.22-23.48c0.79-3.36,2.36-7.15,0.79-10.44
				c-1.77-3.69-6.65-7.45-10.78-7.65c-2.7-0.13-5.35,0.69-7.88,1.65c-5.08,1.93-10.34,5-12.08,10.15
				C814.26,1273.29,814.25,1275.56,814.43,1277.86z"/>
			<path class="st18" d="M803.3,1401.38c0.71-0.28,1.41-0.59,2.17-0.71c0.97-0.15,1.95,0.04,2.91,0.21c6.88,1.18,13.99,1,20.8-0.54
				c0.75-0.17,1.53-0.37,2.1-0.89c1-0.92,1-2.46,0.92-3.82c-0.14-2.53-0.52-5.49-2.72-6.75c-1.78-1.03-4.01-0.48-6.06-0.49
				c-6.85-0.05-12-6.45-18.64-8.12c-2.5-0.63-5.12-0.56-7.69-0.38c-3.27,0.23-6.99,0.91-8.67,3.72c-0.83,1.39-0.99,3.08-1.13,4.69
				c-0.33,3.81-2.36,10.64,1.26,13.34C792.12,1404.3,799.59,1402.83,803.3,1401.38z"/>
			<path class="st2" d="M883.33,1194.61c0.91,0.42,1.73,1.02,2.65,1.4c1.62,0.66,3.46,0.58,5.07,1.26c3.27,1.37,4.57,5.24,5.45,8.67
				c0.14,0.54,0.28,1.14,0.05,1.65c-0.4,0.88-1.57,1-2.54,0.99c-8.94-0.09-17.88-0.18-26.82-0.27c-1.61-0.02-3.27-0.04-4.73-0.72
				c-5.63-2.6-3.39-10.05,1.93-10.89c3.13-0.5,6.03-0.74,9.12-1.6C876.68,1194.23,880.15,1193.15,883.33,1194.61z"/>
			<path class="st10" d="M821.65,1205.58c-3.79-9.43-6.42-19.33-10.09-28.68c-3.78-9.63-7.16-19.3-9.53-29.4
				c-0.69-2.94-1.31-5.92-1.36-8.94c-0.12-8.19,6.9-25,17.77-17.75c2.65,1.76,4.07,4.82,5.38,7.72c7.85,17.5,11.6,36.28,17.85,54.37
				c0.48,1.39,1,2.83,2.01,3.9c1.15,1.21,2.79,1.79,4.39,2.25c5.69,1.64,11.69,2.26,17.6,1.8c1.72-0.13,3.61-0.32,5.04,0.65
				c2.04,1.37,2.13,4.29,2,6.74c-0.13,2.53-0.26,5.06-0.38,7.6c-0.03,0.58-0.08,1.21-0.48,1.62c-0.33,0.33-0.81,0.45-1.27,0.54
				c-10.51,2.14-21.36,1.48-32.06,0.8c-4.57-0.29-9.13-0.58-13.7-0.86c-0.65-0.04-1.33-0.09-1.87-0.44
				C822.28,1207.09,821.95,1206.31,821.65,1205.58z"/>
		</g>
		<g>
			<path class="st19" d="M840.25,1299.08h-73.58c-5.11,0-9.25-4.14-9.25-9.25l0,0c0-5.11,4.14-9.25,9.25-9.25h73.58
				c5.11,0,9.25,4.14,9.25,9.25l0,0C849.5,1294.94,845.36,1299.08,840.25,1299.08z"/>
			<g>
				<path class="st8" d="M795.96,1264.8h-55.13c-5.22,0-9.66-3.78-10.51-8.92l-11.41-69.12c-1.29-7.82,4.74-14.94,12.67-14.94h50.7
					c6.29,0,11.65,4.55,12.67,10.75l11.53,69.84C807.54,1258.9,802.54,1264.8,795.96,1264.8z"/>
				<path class="st19" d="M788.36,1264.8h-55.13c-5.22,0-9.66-3.78-10.51-8.92l-11.41-69.12c-1.29-7.82,4.74-14.94,12.67-14.94h50.7
					c6.29,0,11.65,4.55,12.67,10.75l11.53,69.84C799.95,1258.9,794.94,1264.8,788.36,1264.8z"/>
			</g>
			<g>
				<path class="st8" d="M812.34,1306.12h-27.63c-1.49,0-2.82-0.9-3.38-2.28l-32.37-80.21c-0.75-1.87,0.15-3.99,2.01-4.74
					c1.87-0.75,3.99,0.15,4.74,2.01l31.45,77.93h25.17c2.01,0,3.64,1.63,3.64,3.64C815.98,1304.49,814.35,1306.12,812.34,1306.12z"
					/>
			</g>
			<rect x="799.68" y="1305.51" class="st19" width="7.55" height="87.3"/>
			<path class="st8" d="M836.99,1395.4L836.99,1395.4c0-2.09-1.69-3.78-3.78-3.78h-58.39c-2.09,0-3.78,1.69-3.78,3.78l0,0
				c0,2.09,1.69,3.78,3.78,3.78h58.39C835.3,1399.18,836.99,1397.49,836.99,1395.4z"/>
			<circle class="st19" cx="777.03" cy="1402.09" r="8.81"/>
			<circle class="st19" cx="803.46" cy="1402.09" r="8.81"/>
			<circle class="st19" cx="831.89" cy="1402.09" r="8.81"/>
		</g>
		<path class="st12" d="M790.04,1077.9c2.43-0.26,3.63,3.11,5.82,2.43c0.78-0.25,1.86-2.1,2.53-2.68c0.96-0.85,2.06-1.55,3.12-2.27
			c4.95-3.34,9.58-7.13,13.83-11.32c2.87-2.84,3.29-6.78,1.67-10.38c-1.85-4.13-4.76-6.19-9.07-7.11
			c-9.09-1.94-18.74,0.39-26.75,4.83c-2.67,1.48-5.27,3.24-7.02,5.74c-1.82,2.58-2.63,5.81-4.69,8.2c-2.06,2.39-5.11,3.65-7.58,5.62
			c-4.07,3.25-6.39,8.46-6.51,13.67s1.85,10.36,5.07,14.46c0.89,1.13,1.9,2.22,2.43,3.56c1.66,4.17-1.74,8.65-1.69,13.14
			c0.04,2.94,1.59,5.69,3.58,7.86c4.36,4.74,11.22,7.21,17.5,5.81c6.28-1.4,11.59-6.88,12.29-13.28c0.16-1.44,0.1-2.92,0.59-4.28
			c1.32-3.65,6.21-5.56,6.41-9.43c0.08-1.55-0.67-3.01-1.39-4.39c-0.81-1.54-1.67-3.13-3.06-4.18c-1.49-1.12-3.41-1.48-5.1-2.27
			C788.35,1089.9,783.05,1078.66,790.04,1077.9z"/>
	</g>
	<path class="st3" d="M486.04,971.16h-51.7c-4.77,0-8.64,3.87-8.64,8.64v28.93c0,4.77,3.87,8.64,8.64,8.64h42.1l-5.4,14.53
		l13.06-14.53h1.93c4.77,0,8.64-3.87,8.64-8.64V979.8C494.68,975.03,490.82,971.16,486.04,971.16z"/>
	<g>
		<path class="st7" d="M771.55,970.66c-23.7,0-42.92,13.87-42.92,30.97c0,11.95,9.38,22.31,23.11,27.48l14.56,15.56l-5.49-13.04
			c3.43,0.64,7.03,0.98,10.73,0.98c23.7,0,42.92-13.87,42.92-30.97S795.25,970.66,771.55,970.66z"/>
		<circle class="st3" cx="752.17" cy="1001.63" r="5.24"/>
		<circle class="st3" cx="771.55" cy="1001.63" r="5.24"/>
	</g>
	<circle class="st3" cx="789.81" cy="1001.63" r="5.24"/>
</g>
<g>
	<g>
		<path class="st13" d="M1497.94,173.93c3.22,0,3.22-5,0-5C1494.73,168.93,1494.72,173.93,1497.94,173.93L1497.94,173.93z"/>
	</g>
</g>
<g>
	<g>
		<path class="st8" d="M1168.07,8.45c3.22,0,3.22-5,0-5C1164.85,3.45,1164.84,8.45,1168.07,8.45L1168.07,8.45z"/>
	</g>
</g>
</svg>
