<svg xmlns="http://www.w3.org/2000/svg" viewBox="0 0 2048 2048"><defs><style>.cls-1{fill:#efebff;}.cls-14,.cls-17,.cls-18,.cls-2{fill:#fff;}.cls-2{stroke:#02000e;}.cls-15,.cls-2{stroke-miterlimit:10;}.cls-2,.cls-6{stroke-width:2.5px;}.cls-3{fill:#7b4cfe;}.cls-4{fill:#191919;}.cls-5{fill:#02000e;}.cls-10,.cls-13,.cls-15,.cls-16,.cls-19,.cls-6{fill:none;}.cls-6{stroke:#0a0a0a;}.cls-10,.cls-13,.cls-14,.cls-16,.cls-17,.cls-19,.cls-6{stroke-linecap:round;stroke-linejoin:round;}.cls-7{fill:#ff4f96;}.cls-8{fill:#161616;}.cls-9{fill:#feb5ca;}.cls-10,.cls-17{stroke:#161616;}.cls-10,.cls-14{stroke-width:2px;}.cls-11{fill:#212121;}.cls-12{fill:#4a37bb;}.cls-13{stroke:#281854;}.cls-13,.cls-15,.cls-16{stroke-width:0.5px;}.cls-14{stroke:#263238;}.cls-15{stroke:#b8ecda;}.cls-16{stroke:#4a37bb;}.cls-17{stroke-width:3px;}.cls-19{stroke:#fff;stroke-width:8px;}</style></defs><title>Free Distance Learning Illustration (SVG)</title><g id="scene"><path class="cls-1" d="M666,524c-7.15,71-152.25,127.94-270.5,110C316.25,622,204.34,569.54,204,498.5c-.33-69.43,106-127.09,191.5-135.5C528,350,673.56,449,666,524Z"/><path class="cls-1" d="M1907,917c-7.15,71-152.25,127.94-270.5,110-79.25-12-191.16-64.46-191.5-135.5-.33-69.43,106-127.09,191.5-135.5C1769,743,1914.56,842,1907,917Z"/><path class="cls-1" d="M1242,803c205,191.12,507.78,626.83,341,879-178.67,270.14-753.36,113.69-784,105-224.86-63.78-517.67-228.26-509-394,5.6-107.15,133.19-137.82,154-300,16.76-130.58-59-165.13-32-255,46.32-154.35,329.94-253.21,559.5-196C1020.67,654.25,1116.38,685.88,1242,803Z"/><path class="cls-1" d="M1738,337c14.24,111.62-122.17,245.21-265,255-179.61,12.31-348.11-172.59-319-292.5,23.38-96.29,169.31-130.65,191.5-135.5C1505.48,129,1721.51,207.66,1738,337Z"/></g><g id="illustration"><path class="cls-2" d="M1068,1804.18H324.57V1607.39H1068c-6.12,5.93-44.59,44.54-41.91,104.51C1028.45,1764.4,1060.71,1797.12,1068,1804.18Z"/><path class="cls-3" d="M353.73,1579.14a126.64,126.64,0,0,0,0,253.28H1106v-31.88H457c-61.77,0-112-42.51-112-94.76S395.18,1611,457,1611h649v-31.89Z"/><path class="cls-4" d="M1106,1832.42H353.73a126.64,126.64,0,0,1,0-253.28H1106V1611h1.52v-33.41H353.73a128.16,128.16,0,0,0-128.16,128.16h0a128.16,128.16,0,0,0,128.16,128.16H1107.5v-33.4H1106Z"/><path class="cls-5" d="M344.92,1705.78c0,52.25,50.26,94.76,112,94.76h649V1799H457c-61,0-110.51-41.74-110.51-93.24h0c0-51.49,49.48-93.23,110.51-93.23h649V1611H457C395.18,1611,344.92,1653.54,344.92,1705.78Z"/><line class="cls-6" x1="358.55" y1="1663.3" x2="1033.07" y2="1663.3"/><line class="cls-6" x1="351.26" y1="1720.4" x2="1025.78" y2="1720.4"/><path class="cls-2" d="M510.44,1547.86h743.44V1351.07H510.44c6.11,5.93,44.58,44.54,41.9,104.51C550,1508.08,517.74,1540.8,510.44,1547.86Z"/><path class="cls-7" d="M1224.72,1322.83a126.64,126.64,0,0,1,0,253.28H472.47v-31.89h649c61.77,0,112-42.51,112-94.75s-50.25-94.76-112-94.76h-649v-31.88Z"/><path class="cls-5" d="M1233.53,1449.47c0,52.24-50.25,94.75-112,94.75h-649v-1.52h649c61,0,110.5-41.74,110.5-93.23h0c0-51.5-49.47-93.24-110.5-93.24h-649v-1.52h649C1183.28,1354.71,1233.53,1397.22,1233.53,1449.47Z"/><line class="cls-6" x1="1219.9" y1="1406.98" x2="545.39" y2="1406.98"/><line class="cls-6" x1="1227.19" y1="1464.08" x2="552.68" y2="1464.08"/><path class="cls-8" d="M1706.12,786.6l-18.53,87.56s-31.13,29.52-110.31,12.76-95.68-56.37-95.68-56.37L1500.14,743"/><rect class="cls-3" x="1591.6" y="861.23" width="138.02" height="3.41" transform="translate(472.56 2308.91) rotate(-78.05)"/><path class="cls-3" d="M1590.19,813.4l-141.66-99.13a6.63,6.63,0,0,1,2.83-12l167.9-24.8a6.63,6.63,0,0,1,4.51,1l143.45,90.71a6.63,6.63,0,0,1-2.27,12.11l-169.68,33.21A6.64,6.64,0,0,1,1590.19,813.4Z"/><path class="cls-8" d="M1641.27,954.31a12.19,12.19,0,1,1,14.45-9.4A12.19,12.19,0,0,1,1641.27,954.31Z"/><path class="cls-9" d="M1324.65,1172.13s65.67-6.5,85.08,22.61,21,89.42,21,89.42l-127-6.59"/><path class="cls-7" d="M960.46,793.34,989.85,810A108,108,0,0,1,1040,872.71l78.65,260.09,206,39.33s3,126.34,0,126.34-330.4-49.26-330.4-49.26l-50.6-274.62"/><line class="cls-10" x1="1043.31" y1="1231.3" x2="1004.51" y2="881.31"/><path class="cls-8" d="M1525.1,1726.82l82.43,62.92c18.23,13.92,8.39,43-14.56,43H1374.75a24,24,0,0,1-23.92-25.7l5.77-80.27Z"/><path class="cls-11" d="M1338.83,1726.82l82.42,62.92c18.24,13.92,8.39,43-14.55,43H1188.48a24,24,0,0,1-23.92-25.7l5.77-80.27Z"/><path class="cls-3" d="M881.83,1221.6l12,81.94a108.38,108.38,0,0,0,107.24,92.69h282.63l64.92,330.59h185.82L1453,1304.25a101.93,101.93,0,0,0-100.09-82.65H956.83"/><path class="cls-12" d="M1535.31,1727.55H1348l-.11-.59-64.81-330h-282a109.1,109.1,0,0,1-108-93.32l-12-81.93,1.44-.21,12,81.93c7.68,52.49,53.48,92.07,106.52,92.07h283.23l.11.58,64.81,330h184.33l-81.28-421.71a101.36,101.36,0,0,0-99.38-82.05H956.83v-1.46h396.05a102.82,102.82,0,0,1,100.81,83.24Z"/><path class="cls-3" d="M698.17,1221.6l12,81.94a108.39,108.39,0,0,0,107.24,92.69H1100L1165,1726.82h185.82l-81.45-422.57a102,102,0,0,0-100.1-82.65H773.17"/><path class="cls-12" d="M1351.66,1727.55H1164.35l-.11-.59-64.81-330h-282a109.1,109.1,0,0,1-108-93.32l-12-81.93,1.44-.21,12,81.93c7.69,52.49,53.48,92.07,106.52,92.07h283.23l.12.58,64.8,330h184.34l-81.29-421.71a101.36,101.36,0,0,0-99.38-82.05H773.17v-1.46h396.05A102.82,102.82,0,0,1,1270,1304.11Z"/><line class="cls-13" x1="1100.03" y1="1396.23" x2="1094.43" y2="1343.62"/><polyline class="cls-7" points="694.81 779.35 789.64 749.24 871.28 749.24 960.46 793.34 1011.6 1221.6 678.02 1221.6"/><path class="cls-9" d="M988.09,1119.74s60.07-3,72.39,5.22,72.76,59,64.55,82.09-39.18-4.1-39.18-4.1,11.57,16.41-10.45,20.52-31.34-18.66-31.34-18.66,14.55,13.31-1.12,19.15-36.57-13.92-36.57-13.92l-53,.37"/><path class="cls-8" d="M797.8,708.36c-36.38-22.38-69.41-80-58.77-102.42s29.87-15.11,29.87-15.11-12.61-29.1,20.74-49.81,71.4,6.71,97.15,2.24,37.5-2.24,39.74,8.39-10.41,18.47-10.41,18.47,33.35.53,26.64,15.38-38.07,26.6-38.07,26.6L820.62,716.76"/><path class="cls-14" d="M871.79,697l-.51,56.19s-.14,1-.55,2.75c-1.73,6.77-8.14,24.07-29.5,25.67-43.41,3.25-51.59-32.41-51.59-32.41a282.33,282.33,0,0,0,3.42-35.85c.17-4.89.19-10.06,0-15.33-.08-3.68-.3-7.41-.61-11.14l7.06.89Z"/><path class="cls-8" d="M871.79,697l-.51,56.19s-.14,1-.55,2.75c-28.26,1.11-64.36-16.28-77.67-42.59.17-4.89.19-10.06,0-15.33l6.45-10.25Z"/><path class="cls-14" d="M910.16,585.5S914.62,645,916,663.7v.09c1.39,18.54-12.4,67-54.52,70.16-28.43,2.13-47-7.84-59-20.2-16.69-17.17-20.62-38.92-20.62-38.92s-1.91,9.75-22.38,4.76-21.81-40.19-3.3-44.09C768,633,778,644.22,783.68,652.71a3.72,3.72,0,0,0,6.76-1.45l5.23-30.6C846.87,626.08,910.16,585.5,910.16,585.5Z"/><path class="cls-8" d="M835.85,647.57c.3,4-1.53,7.41-4.1,7.61s-4.9-2.9-5.2-6.91,1.54-7.41,4.11-7.61S835.55,643.56,835.85,647.57Z"/><path class="cls-8" d="M897.06,643c.3,4-1.54,7.41-4.11,7.61s-4.89-2.9-5.19-6.91,1.54-7.41,4.11-7.61S896.76,639,897.06,643Z"/><path class="cls-10" d="M755,649.89c13.54,1,13.88,13,13.88,13"/><line class="cls-15" x1="785.67" y1="654.19" x2="815.53" y2="678.47"/><path class="cls-8" d="M837.86,685.75a27,27,0,1,1,27-27A27,27,0,0,1,837.86,685.75Zm0-49.65a22.63,22.63,0,1,0,22.63,22.63A22.65,22.65,0,0,0,837.86,636.1Z"/><path class="cls-8" d="M904.69,674.94a27,27,0,1,1,27-27A27,27,0,0,1,904.69,674.94Zm0-49.65a22.63,22.63,0,1,0,22.63,22.63A22.65,22.65,0,0,0,904.69,625.29Z"/><rect class="cls-8" x="861" y="646.71" width="18.91" height="4.39" transform="translate(-62.86 94.21) rotate(-5.98)"/><rect class="cls-8" x="798.4" y="636.56" width="4.39" height="27.03" transform="translate(-62.35 1214.76) rotate(-72.28)"/><path class="cls-7" d="M694.81,779.35h0A177.56,177.56,0,0,0,586.06,970.6l28.15,184.83a77.9,77.9,0,0,0,77,66.17H988.09V1117.13L737,1106.31Z"/><line class="cls-16" x1="988.09" y1="1117.13" x2="691.45" y2="1101.83"/><line class="cls-10" x1="737.01" y1="1106.31" x2="710.45" y2="900.49"/><path class="cls-17" d="M1465.12,893.09l-118.3,12.71A30,30,0,0,0,1321,928.11l-72.92,282.48-238.56-2.81a11.16,11.16,0,1,0-.26,22.32l249.37,2.94h.58a11.49,11.49,0,0,0,2.36-.35l113.94-17.14a24.66,24.66,0,0,0,20.13-17.15L1483,914.78A16.83,16.83,0,0,0,1465.12,893.09Z"/><polyline class="cls-10" points="867.35 636.16 887.83 683.95 875.62 688.25"/><path class="cls-10" d="M838.37,699.59s14.58,16.19,42.11,8.09"/><circle class="cls-7" cx="1134.72" cy="710.11" r="71.68"/><polygon class="cls-18" points="1116.95 746.12 1084.68 716.9 1093.59 707.06 1116.5 727.79 1173.36 670.93 1182.75 680.32 1116.95 746.12"/><path class="cls-8" d="M1394.46,1024.54c-6,13.5-17.07,21.69-24.62,18.3s-8.78-17.06-2.74-30.56,17.08-21.69,24.63-18.3S1400.51,1011.05,1394.46,1024.54Z"/><rect class="cls-3" x="286.82" y="440.75" width="353.84" height="216.17" rx="59.07"/><line class="cls-19" x1="371.58" y1="522.1" x2="555.89" y2="522.1"/><line class="cls-19" x1="371.58" y1="575.58" x2="468.29" y2="575.58"/><rect class="cls-3" x="1325.79" y="258.01" width="496.64" height="317.85"/><rect class="cls-7" x="1325.79" y="540.46" width="496.64" height="35.41"/><path class="cls-18" d="M1638.63,415.38a73.14,73.14,0,1,0-73.14,73.14A73.14,73.14,0,0,0,1638.63,415.38Z"/><polygon class="cls-3" points="1607.87 416.97 1544.24 380.23 1544.24 453.7 1607.87 416.97"/><path class="cls-3" d="M1695.63,1293.78a25,25,0,1,1,25-25A25.06,25.06,0,0,1,1695.63,1293.78Zm0-42.7a17.67,17.67,0,1,0,17.67,17.67A17.68,17.68,0,0,0,1695.63,1251.08Z"/><path class="cls-3" d="M1208.67,264.12a25,25,0,1,1,25-25A25.06,25.06,0,0,1,1208.67,264.12Zm0-42.7a17.67,17.67,0,1,0,17.67,17.67A17.69,17.69,0,0,0,1208.67,221.42Z"/><path class="cls-3" d="M710.34,457.54a19.35,19.35,0,1,1,19.34-19.35A19.37,19.37,0,0,1,710.34,457.54Zm0-33A13.66,13.66,0,1,0,724,438.19,13.67,13.67,0,0,0,710.34,424.54Z"/><path class="cls-3" d="M246.14,1084.43a19.34,19.34,0,1,1,19.34-19.34A19.36,19.36,0,0,1,246.14,1084.43Zm0-33a13.65,13.65,0,1,0,13.65,13.65A13.66,13.66,0,0,0,246.14,1051.44Z"/></g></svg>