<?xml version="1.0" encoding="UTF-8"?>
<svg width="1440px" height="810px" viewBox="0 0 1440 810" version="1.1" xmlns="http://www.w3.org/2000/svg" xmlns:xlink="http://www.w3.org/1999/xlink">
    <title>ny3 copy</title>
    <defs>
        <rect id="path-1" x="0" y="0" width="1440" height="810"></rect>
        <rect id="path-3" x="0" y="0" width="1440" height="810"></rect>
        <rect id="path-5" x="0" y="0" width="1245" height="405"></rect>
        <rect id="path-7" x="1.13686838e-13" y="0" width="502.57" height="810"></rect>
        <rect id="path-9" x="1.13686838e-13" y="0" width="502.57" height="810"></rect>
        <rect id="path-11" x="1.13686838e-13" y="0" width="502.57" height="810"></rect>
        <rect id="path-13" x="1.13686838e-13" y="0" width="502.57" height="810"></rect>
        <rect id="path-15" x="1.13686838e-13" y="0" width="502.57" height="810"></rect>
        <rect id="path-17" x="1.13686838e-13" y="0" width="502.57" height="810"></rect>
        <rect id="path-19" x="1.13686838e-13" y="0" width="502.57" height="810"></rect>
        <rect id="path-21" x="1.13686838e-13" y="0" width="502.57" height="810"></rect>
        <rect id="path-23" x="1.13686838e-13" y="0" width="502.57" height="810"></rect>
        <rect id="path-25" x="1.13686838e-13" y="0" width="502.57" height="810"></rect>
        <rect id="path-27" x="1.13686838e-13" y="0" width="502.57" height="810"></rect>
        <rect id="path-29" x="0" y="0" width="881" height="322"></rect>
        <rect id="path-31" x="0" y="0" width="281" height="281"></rect>
        <rect id="path-33" x="0" y="0" width="477" height="288"></rect>
        <rect id="path-35" x="0" y="0" width="313" height="313"></rect>
        <rect id="path-37" x="0" y="0" width="1252" height="267"></rect>
    </defs>
    <g id="Page-1" stroke="none" stroke-width="1" fill="none" fill-rule="evenodd">
        <g id="ny3-copy">
            <g id="Clipped">
                <mask id="mask-2" fill="white">
                    <use xlink:href="#path-1"></use>
                </mask>
                <g id="SVGID_1_"></g>
                <rect id="Rectangle" fill="#FFFFFF" fill-rule="nonzero" mask="url(#mask-2)" x="0" y="0" width="1440" height="810"></rect>
            </g>
            <g id="Clipped">
                <mask id="mask-4" fill="white">
                    <use xlink:href="#path-3"></use>
                </mask>
                <g id="SVGID_3_"></g>
                <rect id="Rectangle" fill="#0038A8" fill-rule="nonzero" mask="url(#mask-4)" x="0" y="0" width="1440" height="810"></rect>
            </g>
            <g id="Clipped" transform="translate(173.000000, 135.000000)">
                <mask id="mask-6" fill="white">
                    <use xlink:href="#path-5"></use>
                </mask>
                <g id="SVGID_5_"></g>
                <path d="M1254,215.709915 C1231.36695,195.228558 1195.2725,198.379536 1166.71801,209.928887 C1138.16353,221.490943 1112.30658,239.34225 1082.13357,245.644206 C1048.7235,252.46709 1014.78709,243.547789 980.837514,240.917739 C946.887939,238.821322 908.095945,245.644206 889.778965,273.482081 C890.857983,295.538927 877.383423,317.087551 857.447917,327.061413 C837.512411,336.514348 811.655468,333.884297 794.404347,319.704896 C771.771298,341.240815 749.151407,362.776733 721.662779,378.010696 C694.17415,393.244658 661.856261,401.655736 631.143739,394.299219 C600.431217,386.942702 573.495256,361.734877 571.337221,331.266953 C551.401716,345.979987 517.4653,335.472492 510.451686,312.361084 C474.896744,344.404498 407.550263,330.746025 388.680616,287.140554 C383.298687,274.536642 379.522126,258.248119 366.587075,252.46709 C349.349113,244.589645 331.571642,260.344535 315.399539,269.276542 C272.830983,292.387949 220.577588,272.42752 176.930015,250.891601 C133.821951,229.355683 83.1870817,206.765203 39,225.671071 C53.5535772,204.656081 83.1739229,198.354124 109.044025,202.559664 C134.900968,206.23157 158.613035,218.314554 182.851452,226.204705 C207.629378,234.08215 235.657515,237.766761 258.816915,226.204705 C279.291929,216.218137 291.687472,195.73678 307.306908,179.98189 C322.926343,164.226999 347.717428,151.089454 368.192443,161.076021 C371.969004,136.389125 391.365001,114.853206 416.142927,107.496689 C440.920853,100.140172 468.94899,108.017617 486.186952,126.936191 C485.107934,124.30614 484.028917,121.688796 482.949899,119.058745 C487.805478,127.990752 494.805933,135.868197 503.424914,142.170153 C528.20284,160.555093 564.849958,161.609655 590.706901,145.321131 C603.102443,137.443686 613.339951,125.881629 614.958477,111.702228 C616.577003,98.5646825 610.116057,85.9607703 601.483917,75.4532749 C595.022971,67.5758298 586.40399,60.2193125 576.705991,56.5474066 C567.007993,52.8755008 555.151959,52.8755008 545.993469,58.1228957 C536.83498,63.3702906 530.374033,73.8777859 532.51891,84.3852813 C534.137436,94.3718488 544.914452,102.770222 555.691468,101.194733 C548.151504,99.0983159 545.453961,88.5908205 549.770031,82.2888644 C554.0861,75.9869083 563.784099,74.4114193 570.784554,78.0833252 C577.785009,81.755231 581.022061,90.1663095 580.482552,97.5228268 C579.943044,105.400272 575.100624,112.235861 569.166028,116.962329 C551.388557,131.675363 522.83407,127.469824 506.122458,111.714934 C491.04253,97.5355324 485.647443,75.9996139 487.265969,55.505551 C494.266424,39.2170274 506.122458,25.0376261 521.215544,16.1056198 C557.849503,-5.95122654 611.195074,2.96807423 638.131035,36.0660493 C658.066541,9.27003033 701.174605,2.44714641 729.189583,21.8866481 C757.204562,40.7925164 764.744525,82.8224978 745.888037,110.139445 C752.888492,116.962329 759.362597,123.27699 766.363052,130.099874 C795.457047,95.42641 853.645039,90.1790151 889.199981,118.537818 C889.739489,118.01689 889.739489,117.483256 890.278998,116.962329 C889.739489,119.592379 889.199981,122.209723 888.660472,124.318846 C886.502437,137.456391 887.581454,152.690354 897.279453,162.143288 C905.898434,170.020733 919.372994,171.596222 930.689518,169.499805 C941.466535,167.403388 952.243551,161.62236 957.08597,152.169426 C961.92839,142.182858 957.08597,128.524385 946.308954,125.90704 C950.625024,134.318119 946.308954,145.346542 937.689973,149.552081 C929.070992,153.757621 917.754467,151.12757 911.293521,144.304686 C904.832575,137.481803 902.67454,127.495235 904.293066,118.042301 C906.451101,109.110295 912.372539,100.711922 919.912502,94.9308933 C920.452011,94.4099655 920.452011,94.4099655 920.99152,93.8763321 C929.610501,90.725354 938.768991,88.6289372 947.927481,89.149865 C971.100039,89.6707928 993.71993,101.753777 1006.11547,120.672351 C1021.73491,144.317392 1022.81393,178.457223 1047.0655,193.691185 C1075.08048,211.555198 1111.17493,192.115696 1143.50598,185.280107 C1181.8111,175.255422 1225.44551,187.87204 1254,215.709915 Z" id="Path" fill="#2659C1" fill-rule="nonzero" mask="url(#mask-6)"></path>
            </g>
            <g id="Group" transform="translate(937.430000, 0.000000)">
                <g id="Clipped">
                    <mask id="mask-8" fill="white">
                        <use xlink:href="#path-7"></use>
                    </mask>
                    <g id="SVGID_7_"></g>
                    <path d="M517.63,308.57 C504.26,285.7 490.89,261.87 479.43,237.09 C476.56,204.69 467.97,173.24 455.55,143.69 C443.13,113.19 424.99,85.56 411.62,55.06 C410.67,52.2 405.89,53.15 404.93,56.01 C396.33,89.37 406.84,125.58 419.26,156.08 C424.99,171.33 432.63,185.62 440.27,198.97 C448.87,213.27 457.46,227.56 469.88,237.09 C468.92,236.14 468.92,235.18 467.97,234.23 C479.43,260.91 498.53,285.69 514.77,309.52 C516.68,310.47 518.59,309.52 517.63,308.57 Z" id="Path" fill="#3C74E0" fill-rule="nonzero" mask="url(#mask-8)"></path>
                </g>
                <g id="Clipped">
                    <mask id="mask-10" fill="white">
                        <use xlink:href="#path-9"></use>
                    </mask>
                    <g id="SVGID_7_"></g>
                    <path d="M339.04,543.01 C348.59,518.23 360.05,493.45 371.51,468.67 C395.39,446.75 414.49,420.07 430.72,391.47 C446.96,362.88 457.46,331.43 472.74,302.84 C474.65,299.98 470.83,297.12 467.96,298.07 C436.44,312.37 414.48,342.86 398.24,371.45 C390.6,384.79 382.96,400.04 377.23,414.34 C371.5,429.59 365.77,444.84 365.77,461.99 C366.73,461.04 366.73,460.08 367.68,459.13 C354.31,484.86 345.71,515.36 337.12,542.04 C336.17,543.96 338.08,543.96 339.04,543.01 Z" id="Path" fill="#3C74E0" fill-rule="nonzero" mask="url(#mask-10)"></path>
                </g>
                <g id="Clipped">
                    <mask id="mask-12" fill="white">
                        <use xlink:href="#path-11"></use>
                    </mask>
                    <g id="SVGID_7_"></g>
                    <path d="M153.76,448.66 C155.67,480.11 164.27,511.56 178.59,540.15 C185.28,553.49 193.87,565.88 202.47,577.32 C205.34,583.04 209.16,588.76 213.93,593.52 C215.84,596.38 218.71,598.29 220.62,601.14 C213.93,597.33 206.29,592.56 199.61,588.75 C193.88,582.08 186.24,576.36 179.55,570.64 C172.86,563.97 166.18,557.3 158.54,550.63 C145.17,538.24 129.89,527.76 112.7,520.13 C96.46,513.46 78.32,508.69 61.13,504.88 C42.03,501.07 21.02,497.26 1.92,497.26 C0.01,497.26 -0.95,499.17 0.96,501.07 C8.6,507.74 14.33,516.32 21.02,523.94 C26.75,529.66 32.48,535.38 39.17,540.14 C53.5,551.58 69.73,560.15 85.97,566.82 C105.07,575.4 125.13,581.12 145.18,585.88 C160.46,589.69 175.74,593.5 191.98,596.36 C208.22,603.98 223.5,612.56 237.82,623.04 C246.42,628.76 254.06,634.48 261.7,641.15 C269.34,647.82 276.98,655.45 285.58,660.21 C285.58,660.21 286.54,660.21 285.58,660.21 C277.94,643.06 259.79,629.71 245.47,619.23 C244.51,618.28 243.56,618.28 242.6,617.32 C239.73,609.7 240.69,600.17 239.73,592.54 C238.77,584.92 237.82,578.24 235.91,571.57 C231.13,555.37 223.49,540.12 214.9,525.82 C199.62,498.18 181.47,471.5 161.42,447.67 C159.49,441.04 153.76,443.9 153.76,448.66 Z" id="Path" fill="#3C74E0" fill-rule="nonzero" mask="url(#mask-12)"></path>
                </g>
                <g id="Clipped">
                    <mask id="mask-14" fill="white">
                        <use xlink:href="#path-13"></use>
                    </mask>
                    <g id="SVGID_7_"></g>
                    <path d="M49.66,-79.32 C48.71,-78.37 48.71,-76.46 48.71,-75.51 C49.66,-48.83 54.44,-22.14 62.08,4.54 C69.72,31.22 79.27,56 89.78,81.74 C108.88,129.39 127.03,177.04 154.72,220.88 C116.52,185.62 75.45,155.12 31.52,127.48 C27.7,125.57 24.83,125.57 21.97,128.43 C36.3,160.83 57.31,188.47 85,211.34 C111.74,233.26 143.26,249.46 173.82,264.71 C180.51,267.57 187.19,270.43 191.97,275.19 C197.7,279.96 203.43,285.67 208.21,292.34 C230.18,318.07 255.96,340.94 284.61,358.1 C288.43,360.01 293.21,361.91 295.12,358.1 C297.03,355.24 293.21,351.43 290.34,348.57 C238.77,313.31 193.88,265.66 161.41,212.29 C157.59,205.62 152.81,197.99 150.9,190.37 C146.12,174.17 148.03,157.01 149.94,140.81 C154.72,89.35 149.94,36.93 131.79,-11.67 C129.88,-16.44 125.1,-21.2 121.28,-18.34 C119.37,-17.39 119.37,-14.53 118.41,-12.62 C108.86,47.42 114.59,109.37 136.56,166.55 C127.96,151.3 120.32,135.1 114.59,117.95 C113.64,116.04 113.64,115.09 112.68,113.18 C93.58,48.37 93.58,-23.1 54.42,-76.47 C53.48,-78.36 51.57,-80.27 49.66,-79.32 Z" id="Path" fill="#3C74E0" fill-rule="nonzero" mask="url(#mask-14)"></path>
                </g>
                <g id="Clipped">
                    <mask id="mask-16" fill="white">
                        <use xlink:href="#path-15"></use>
                    </mask>
                    <g id="SVGID_7_"></g>
                    <path d="M407.8,811.76 C396.34,680.24 358.14,547.77 330.44,418.16 C302.74,287.59 272.18,157.03 242.58,26.46 C232.07,-20.24 166.18,0.73 172.86,45.52 C191.01,176.09 208.2,307.6 229.21,437.22 C248.31,565.88 258.82,702.16 294.15,827.01 C311.34,888.01 414.49,878.48 407.8,811.76 Z" id="Path" fill="#0C2967" fill-rule="nonzero" mask="url(#mask-16)"></path>
                </g>
                <g id="Clipped">
                    <mask id="mask-18" fill="white">
                        <use xlink:href="#path-17"></use>
                    </mask>
                    <g id="SVGID_7_"></g>
                    <path d="M594.03,21.7 C593.07,11.22 589.25,-1.17 578.75,-4.98 C573.02,-7.84 567.29,-10.7 560.6,-9.75 C558.69,-9.75 556.78,-8.8 554.87,-8.8 C544.36,-6.89 535.77,2.64 532.9,13.12 C513.8,86.5 509.02,164.65 500.43,239.94 C491.83,313.32 484.19,385.75 479.42,459.14 C474.64,532.52 470.82,604.95 467.96,678.34 C466.05,717.41 465.09,757.44 465.09,796.52 C465.09,835.59 467.96,862.28 502.34,887.06 C514.76,895.64 535.77,895.64 548.18,887.06 C605.48,848.94 588.29,757.45 588.29,695.5 C589.25,619.26 589.25,543.97 591.16,467.73 C593.07,394.35 593.07,321.92 593.07,248.53 C594.99,174.19 601.67,96.99 594.03,21.7 Z" id="Path" fill="#0C2967" fill-rule="nonzero" mask="url(#mask-18)"></path>
                </g>
                <g id="Clipped">
                    <mask id="mask-20" fill="white">
                        <use xlink:href="#path-19"></use>
                    </mask>
                    <g id="SVGID_7_"></g>
                    <path d="M378.2,627.83 C372.47,627.83 366.74,627.83 361.96,628.78 C340.95,630.69 320.89,637.36 301.79,646.89 C287.46,654.51 273.14,665 261.68,676.43 C263.59,689.77 265.5,702.16 268.37,714.55 C272.19,711.69 275.06,708.83 278.88,705.97 C291.3,696.44 303.71,686.91 318.04,678.33 C333.32,669.75 348.6,664.99 365.79,662.13 C372.48,661.18 379.16,661.18 385.85,661.18 C383.93,650.7 381.06,639.27 378.2,627.83 Z" id="Path" fill="#3C74E0" fill-rule="nonzero" mask="url(#mask-20)"></path>
                </g>
                <g id="Clipped">
                    <mask id="mask-22" fill="white">
                        <use xlink:href="#path-21"></use>
                    </mask>
                    <g id="SVGID_7_"></g>
                    <path d="M287.47,430.55 C301.8,426.74 317.08,423.88 331.4,422.93 C331.4,421.02 330.44,420.07 330.44,418.16 C328.53,407.68 325.66,398.15 323.75,387.66 C306.56,388.61 290.32,391.47 274.09,396.24 C256.9,401.96 239.71,408.63 225.38,419.11 C226.34,424.83 227.29,431.5 228.25,437.22 C229.21,442.94 230.16,449.61 231.12,455.33 C233.99,453.42 237.81,450.56 240.67,448.66 C255.95,441.04 271.23,434.37 287.47,430.55 Z" id="Path" fill="#3C74E0" fill-rule="nonzero" mask="url(#mask-22)"></path>
                </g>
                <g id="Clipped">
                    <mask id="mask-24" fill="white">
                        <use xlink:href="#path-23"></use>
                    </mask>
                    <g id="SVGID_7_"></g>
                    <path d="M241.63,184.67 C253.09,181.81 265.51,178.95 277.92,178.95 C275.06,167.51 272.19,155.12 269.32,143.69 C255.95,144.64 243.53,147.5 230.16,150.36 C215.83,154.17 201.51,159.89 189.09,166.56 C191,179.9 192.91,192.29 194.82,205.63 C209.15,196.11 225.39,189.44 241.63,184.67 Z" id="Path" fill="#3C74E0" fill-rule="nonzero" mask="url(#mask-24)"></path>
                </g>
                <g id="Clipped">
                    <mask id="mask-26" fill="white">
                        <use xlink:href="#path-25"></use>
                    </mask>
                    <g id="SVGID_7_"></g>
                    <path d="M541.51,563.02 C518.59,561.11 495.67,563.02 473.7,570.64 C472.75,583.98 472.75,597.32 471.79,609.71 C477.52,606.85 484.21,604.94 489.94,603.04 C509.04,598.27 529.1,598.27 548.2,601.13 C562.53,603.99 576.85,606.85 591.18,611.61 C591.18,598.27 591.18,584.93 591.18,572.54 C574.93,568.74 557.74,564.93 541.51,563.02 Z" id="Path" fill="#3C74E0" fill-rule="nonzero" mask="url(#mask-26)"></path>
                </g>
                <g id="Clipped">
                    <mask id="mask-28" fill="white">
                        <use xlink:href="#path-27"></use>
                    </mask>
                    <g id="SVGID_7_"></g>
                    <path d="M522.41,374.32 C543.42,370.51 565.39,368.6 586.4,369.55 C588.31,369.55 591.18,369.55 593.09,369.55 C593.09,359.07 593.09,347.63 593.09,337.15 C590.22,337.15 587.36,337.15 584.49,337.15 C561.57,336.2 537.69,339.06 515.73,344.77 C506.18,346.68 496.63,349.54 488.03,353.35 C487.07,363.83 486.12,373.36 485.16,383.85 C497.57,381 509.99,377.18 522.41,374.32 Z" id="Path" fill="#3C74E0" fill-rule="nonzero" mask="url(#mask-28)"></path>
                </g>
            </g>
            <g id="Clipped">
                <mask id="mask-30" fill="white">
                    <use xlink:href="#path-29"></use>
                </mask>
                <g id="SVGID_9_"></g>
                <path d="M849,74.3010236 C827.615003,96.8177423 793.50653,93.3674192 766.52639,80.663957 C739.546249,67.9604948 715.114786,48.3339818 686.601457,41.3885263 C655.041662,33.8829533 622.964166,43.6962099 590.886671,46.5864156 C558.809175,48.8940992 522.152025,41.3885263 504.848894,10.7837125 C505.864383,-13.4805724 493.140907,-37.1399306 474.304588,-48.1182313 C455.468268,-58.5140099 431.036805,-55.6238042 414.749163,-40.0301363 C393.364166,-63.7118992 371.979169,-87.3936621 346.014517,-104.129969 C320.049866,-120.866277 289.505559,-130.119416 260.494441,-122.031321 C231.483323,-113.943226 206.01646,-86.2286179 203.985483,-52.7335985 C185.149163,-68.9097885 153.071668,-57.3489657 146.461035,-31.9420413 C112.850351,-67.1846269 49.2130604,-52.1734811 31.3922296,-4.24983798 C26.2948747,9.61866838 22.7307085,27.5200199 10.5249328,33.8605486 C-5.76270922,42.5311657 -22.5680513,25.1899316 -37.8402047,15.3766751 C-78.0615211,-10.0302494 -127.442147,11.9039473 -168.678952,35.5857102 C-209.398057,59.2674731 -257.265406,84.0918754 -299,63.3003182 C-285.261035,86.399559 -257.245495,93.3226099 -232.814032,88.7072426 C-208.382569,84.6743975 -185.982083,71.3884132 -163.063897,62.7177961 C-139.647923,54.0471791 -113.165571,50.0143339 -91.2827855,62.7177961 C-71.9287659,73.6960968 -60.2207788,96.2128155 -45.4663256,113.531645 C-30.7118723,130.850474 -7.27598647,145.301503 12.0581216,134.323202 C15.6222877,161.455288 33.9409071,185.137051 57.376793,193.225146 C80.7927673,201.313241 107.275119,192.642624 123.562761,171.851067 C122.547273,174.741272 121.531784,177.631478 120.516295,180.521684 C125.09595,170.708427 131.726494,162.03781 139.870315,155.114759 C163.286289,134.905724 197.912462,133.74068 222.343925,151.642032 C234.051912,160.312649 243.728922,173.016111 245.262111,188.609779 C246.7953,203.038403 240.682456,216.906909 232.538635,228.445327 C226.425791,237.115944 218.28197,245.181634 209.122661,249.236884 C199.963351,253.269729 188.753152,253.269729 180.111543,247.511723 C171.450022,241.731311 165.35709,230.192893 167.388067,218.63207 C168.921256,207.65377 179.096054,198.423035 189.270852,200.148197 C182.14252,202.45588 179.593843,214.016703 183.675709,220.939754 C187.757575,227.862805 196.916885,229.610371 203.527517,225.555121 C210.138149,221.522276 213.204527,212.269137 212.686827,204.181042 C212.169127,195.510425 207.589472,188.004852 201.994328,182.806963 C185.188986,166.630773 158.208846,171.24614 142.438904,188.587374 C128.182239,204.181042 123.084884,227.862805 124.618073,250.379524 C131.228705,268.280875 142.438904,283.874543 156.695568,293.6878 C191.321741,317.952084 241.717856,308.116423 267.164808,271.753603 C286.001127,301.215777 326.720232,308.72135 353.202584,287.347271 C379.684936,266.555714 386.813269,220.357232 368.992438,190.33494 C375.60307,182.829367 381.715914,175.906317 388.346457,168.400744 C415.844298,206.51113 470.820068,212.291542 504.430752,181.104206 C504.948452,181.686728 504.948452,182.26925 505.446241,182.829367 C504.92854,179.939162 504.430752,177.048956 503.913052,174.741272 C501.882074,160.312649 502.897563,143.553937 512.056873,133.158158 C520.200694,124.487541 532.92417,122.762379 543.616668,125.070063 C553.791466,127.377747 563.986176,133.74068 568.565831,144.136459 C573.145486,155.114759 568.565831,170.125905 558.391033,173.016111 C562.472899,163.785376 558.391033,151.642032 550.247212,147.026664 C542.103391,142.411297 531.410892,145.301503 525.298049,152.807076 C519.185205,160.312649 517.154228,171.290949 518.687417,181.686728 C520.718394,191.499984 526.333449,200.753124 533.44187,207.093652 C533.95957,207.676174 533.95957,207.676174 534.457358,208.258697 C542.601179,211.731424 551.262701,214.039108 559.90431,213.456586 C581.787096,212.874064 603.172093,199.588079 614.88008,178.796522 C629.634533,152.807076 630.669933,115.279211 653.568207,98.5204992 C680.050559,78.8939861 714.159032,100.245661 744.703339,107.751234 C780.783054,118.774344 822.01986,104.905837 849,74.3010236 Z" id="Path" fill="#2659C1" fill-rule="nonzero" mask="url(#mask-30)"></path>
            </g>
            <g id="Clipped" transform="translate(46.000000, 181.000000)">
                <mask id="mask-32" fill="white">
                    <use xlink:href="#path-31"></use>
                </mask>
                <g id="SVGID_11_"></g>
                <path d="M173.541879,122.146251 C185.10259,116.75657 197.028375,111.366889 208.589086,105.99747 C209.745157,105.227516 209.745157,102.147699 210.515871,99.8378353 C208.203729,99.8378353 205.506229,98.6829037 203.964801,99.4528581 C193.560162,106.382448 183.175805,113.676753 173.156522,120.991319 C173.541879,121.376296 173.541879,121.761274 173.541879,122.146251 Z M158.918595,174.077649 C164.313593,185.626965 169.323234,197.540996 175.083307,209.090312 C175.854021,210.245243 179.322235,210.245243 181.24902,211.015198 C181.24902,208.705335 182.405091,206.010494 181.24902,204.470585 C174.312593,194.076201 167.011092,183.702079 159.689309,173.692672 C159.689309,173.692672 159.303952,174.077649 158.918595,174.077649 Z M106.550605,159.063538 C94.9898944,164.453219 83.064109,169.457922 71.5033986,175.212318 C70.3473275,175.982273 69.9619705,179.06209 69.1912565,180.986976 C71.5033986,181.371954 74.5862547,182.526885 76.1276827,181.756931 C86.5323221,174.827341 96.9166795,167.533036 106.935962,160.603447 C106.935962,159.833492 106.935962,159.448515 106.550605,159.063538 Z M160.074666,107.922356 C167.396449,97.5279721 175.083307,87.1538497 182.019734,76.7594654 C182.790448,75.2195566 181.634377,72.5247162 181.24902,70.214853 C179.322235,70.9848074 175.854021,70.9848074 175.083307,72.5247162 C169.302952,84.0740322 163.907954,95.6030861 158.533238,107.537379 C159.303952,107.537379 159.689309,107.922356 160.074666,107.922356 Z M122.715317,108.307334 C117.320319,96.3933025 112.310678,84.8439866 106.550605,72.9096934 C105.779891,71.3697846 102.311678,70.5998302 100.384893,69.8298758 C99.9995356,72.139739 98.8434646,75.2195566 99.9995356,76.7594654 C106.935962,87.5388269 114.62282,98.2979265 121.944603,108.692311 C121.944603,108.692311 122.32996,108.307334 122.715317,108.307334 Z M103.467749,139.83494 C90.3858922,138.680008 77.2837538,137.1401 64.5872543,135.985168 C61.5043982,135.600191 58.8068991,136.370145 59.1922561,139.83494 C59.1922561,141.374849 62.2751122,143.684712 63.4311832,143.684712 C76.8983967,142.914758 90.3858922,141.759826 103.467749,140.604894 C103.467749,140.604894 103.467749,140.219917 103.467749,139.83494 Z M108.47739,121.376296 C98.0727505,113.676753 87.6883931,106.382448 76.8983967,99.0678809 C75.3569687,97.9129493 72.2741126,99.4528581 69.9619705,99.8378353 C71.1180415,102.147699 71.5033986,105.227516 73.0448266,105.99747 C79.9812529,109.847242 87.6681112,113.312037 94.9898944,116.776832 C99.2288216,118.701718 103.467749,120.626604 107.686394,122.55149 C108.092033,121.761274 108.47739,121.376296 108.47739,121.376296 Z M177.395449,141.374849 C185.873304,142.144803 194.330876,142.914758 203.194087,144.069689 C207.818372,144.454666 212.442656,145.224621 217.046658,145.224621 C218.588086,145.224621 220.129514,142.52978 222.056299,140.989872 C220.514871,139.83494 218.973443,137.910054 217.046658,137.525077 C214.734516,137.1401 212.422374,137.525077 210.110232,137.910054 C199.320235,139.064986 188.550521,139.83494 177.375167,140.989872 C177.395449,140.604894 177.395449,140.989872 177.395449,141.374849 Z M140.806815,102.917653 C141.962886,90.2336673 143.118957,77.1444426 144.275028,64.460457 C144.275028,62.9205482 141.577529,60.9956622 140.036101,59.4557534 C138.88003,61.3806394 136.182531,62.9205482 136.182531,64.8454342 C136.953245,77.5294198 138.494673,90.2336673 139.650744,102.917653 C140.036101,102.532676 140.421458,102.917653 140.806815,102.917653 Z M139.650744,177.927421 C139.265387,181.392215 138.88003,185.241987 138.494673,188.706782 C137.723959,198.331212 136.567888,207.550403 136.182531,217.174833 C136.182531,218.714742 138.88003,220.639628 140.036101,222.179537 C141.192172,220.639628 143.889671,219.099719 143.889671,217.55981 C143.118957,204.490847 141.962886,191.016645 140.806815,177.947683 C140.421458,177.542443 140.036101,177.927421 139.650744,177.927421 Z M121.173889,172.152763 C113.466749,182.547147 106.165248,192.921269 98.4581075,203.700631 C96.5313225,206.395471 95.3752514,209.090312 98.8434646,211.015198 C102.311678,212.940084 104.238463,210.245243 105.394534,207.550403 C110.789532,196.001087 116.18453,184.472033 121.559246,172.922717 C121.944603,172.53774 121.559246,172.152763 121.173889,172.152763 Z M171.615094,159.448515 C182.405091,167.148059 193.560162,175.212318 204.735515,182.526885 C205.891586,183.296839 208.589086,181.756931 210.901228,181.371954 C210.130514,179.447068 209.745157,175.982273 208.589086,175.212318 C196.6633,169.43766 184.717233,163.663002 172.791447,158.293584 C172.000451,159.063538 172.000451,159.063538 171.615094,159.448515 Z M191.24802,190.226429 C207.027376,206.760187 222.441656,223.314206 238.606369,239.462987 C239.76244,240.617918 242.845296,239.847964 245.157438,239.847964 C244.772081,237.538101 245.157438,234.84326 243.61601,233.303351 C238.991726,228.683625 233.982085,224.833853 229.378082,220.619366 C217.06694,210.224981 204.735515,199.465882 192.424373,189.071497 C192.018734,189.456475 191.633377,189.841452 191.24802,190.226429 Z M90.7712492,191.766338 C90.0005352,192.151315 89.2298212,192.536292 88.8444642,193.306247 C73.4504656,207.915118 57.650828,222.929229 42.2568294,237.538101 C41.4861154,238.308055 40.3300444,239.078009 40.3300444,239.847964 C40.3300444,241.77285 39.9446874,244.082713 41.1007584,245.237644 C41.8714724,246.007599 44.5689715,245.622622 46.1103996,245.237644 C47.2664706,244.852667 48.4225417,243.312758 49.1932557,242.157827 C60.7539661,228.703887 72.2943945,215.229685 83.8551049,201.775745 C86.552604,198.695927 88.8647461,196.001087 91.5622452,192.921269 C91.5216813,192.536292 91.1363243,192.151315 90.7712492,191.766338 Z M156.221096,75.2195566 C162.772165,52.9111411 169.302952,30.2177483 175.854021,7.90933279 C176.624735,4.82951521 177.780806,1.36472043 173.541879,0.209788831 C169.302952,-0.945142764 168.532238,2.90462922 168.146881,5.9844468 C165.449382,20.5933184 162.751883,35.2224519 160.054384,49.8313235 C158.512956,58.3008218 156.971528,66.365081 155.4301,74.8345794 C155.450382,74.8345794 155.835739,75.2195566 156.221096,75.2195566 Z M205.120872,156.773937 C210.130514,158.313846 215.140155,159.853754 220.129514,161.008686 C238.221012,166.398367 255.927152,171.788047 274.038932,176.772489 C275.965717,177.157466 279.819287,176.002535 280.590001,174.462626 C282.131429,170.997831 279.048573,169.457922 275.965717,169.072945 C272.112147,168.302991 268.258577,167.533036 264.405007,166.763082 C244.772081,162.91331 224.753798,159.448515 205.120872,155.598743 C205.120872,156.003982 205.120872,156.38896 205.120872,156.773937 Z M76.1276827,124.456114 C52.6411869,117.526524 29.540048,110.617197 6.05355214,103.687607 C4.51212408,103.30263 0.65855395,104.842539 0.273196936,105.99747 C-0.882874104,109.462265 1.81462499,111.002174 4.8974811,111.387151 C28.383977,116.006878 51.8704728,120.626604 75.3569687,124.841091 C75.7423257,125.226068 75.7423257,124.841091 76.1276827,124.456114 Z M205.120872,122.146251 C211.286585,120.606342 217.817372,119.066433 223.983084,117.526524 C240.533154,113.291775 257.488862,109.442003 274.038932,105.227516 C275.965717,104.842539 277.121788,101.762721 278.663216,99.8378353 C276.736431,99.0678809 274.038932,96.7580177 272.497504,97.5279721 C249.781722,105.227516 227.06594,113.291775 204.350158,121.376296 C204.735515,121.376296 204.735515,121.761274 205.120872,122.146251 Z M186.623736,92.5232686 C203.944519,75.989511 220.900228,59.8204687 238.221012,42.9017339 C239.76244,41.3618251 240.533154,37.5120531 239.377083,35.9721443 C237.064941,32.8923268 234.367442,34.8172128 232.055299,37.1270759 C223.962802,46.7515059 215.890587,55.9706967 207.79809,65.5951266 C200.090949,74.4496022 192.789448,83.2838158 184.696951,92.9082458 C185.853022,92.5232686 186.623736,92.5232686 186.623736,92.5232686 Z M121.559246,77.1444426 C117.705676,60.9956622 113.466749,44.4416427 109.633461,28.2928623 C107.706676,20.9782956 106.550605,14.068968 104.238463,7.1393784 C103.467749,5.21449241 100.77025,2.51965202 98.8434646,2.90462922 C94.9898944,3.28960642 95.3752514,6.7544012 96.5313225,9.83421879 C97.3020365,11.3741276 97.6873935,13.2990136 98.0727505,14.8389224 C103.467749,29.4477939 108.47739,44.4619047 113.852106,59.0707762 C116.164248,65.2304114 118.47639,71.7547618 120.403175,77.914397 C121.173889,77.5294198 121.173889,77.5294198 121.559246,77.1444426 Z M124.256745,204.835301 C117.320319,228.298648 110.404175,251.377018 103.853106,274.840365 C103.467749,276.380274 105.394534,278.690137 106.550605,281 C108.47739,279.460091 111.560246,278.30516 111.945603,276.380274 C116.569887,252.531949 121.194171,229.068602 125.798174,205.220278 C124.642103,205.220278 124.642103,205.220278 124.256745,204.835301 Z M158.147881,202.930677 C163.928236,226.779001 169.708591,251.012302 175.468664,274.860627 C175.854021,276.785513 179.322235,277.555467 181.24902,279.095376 C182.019734,276.785513 183.561162,274.090672 183.175805,272.165786 C178.936877,259.096824 174.312593,246.007599 169.708591,232.553659 C166.240378,222.544252 162.772165,212.555107 159.303952,202.545699 C158.918595,202.930677 158.533238,202.930677 158.147881,202.930677 Z M75.3569687,159.063538 C71.8887556,159.833492 68.4205425,160.603447 65.3376863,161.373401 C45.7047606,165.993128 26.0718349,170.612854 6.4186272,175.212318 C3.3357711,175.982273 0.252914988,177.522182 1.79434304,180.986976 C2.56505707,182.526885 6.03327019,183.296839 8.34541227,182.911862 C11.8136254,182.526885 14.8964815,180.986976 18.3646946,179.832045 C37.6122633,173.287432 56.8598321,166.378105 75.7423257,159.833492 C75.7423257,159.833492 75.3569687,159.448515 75.3569687,159.063538 Z M89.6151782,92.9082458 C71.9090375,77.5294198 54.5679719,62.5153091 37.2471883,47.1364831 C36.0911172,45.9815515 36.4764742,42.9017339 36.4764742,40.5918707 C38.4032593,40.5918707 41.4861154,39.8219163 42.6421865,40.9768479 C58.8068991,57.8955827 74.9918936,74.8345794 90.7712492,91.7533142 C90.0005352,92.1382914 89.6151782,92.5232686 89.6151782,92.9082458 Z" id="Shape" fill="#FFB724" fill-rule="nonzero" mask="url(#mask-32)"></path>
            </g>
            <g id="Clipped" transform="translate(451.000000, 0.000000)">
                <mask id="mask-34" fill="white">
                    <use xlink:href="#path-33"></use>
                </mask>
                <g id="SVGID_13_"></g>
                <path d="M294.596051,-55.7286704 C314.198407,-67.3878871 334.469952,-79.0263208 354.072309,-90.6855375 C356.030912,-92.3481708 356.030912,-98.9987044 357.336648,-104.007387 C353.419441,-104.007387 348.833044,-106.501338 346.221573,-104.838704 C328.57782,-89.8542208 310.934068,-74.0384206 293.926861,-58.2226205 C294.596051,-57.3913038 294.596051,-56.5599871 294.596051,-55.7286704 Z M269.75443,56.6445638 C278.910901,81.6048476 287.398183,107.417231 297.207522,132.377515 C298.513257,134.871465 304.389068,134.871465 307.669729,136.534098 C307.669729,131.546198 309.628332,125.706198 307.669729,122.380931 C295.901786,99.9145978 283.480976,77.4482641 271.060166,55.7924642 C271.060166,55.7924642 270.407298,56.6445638 269.75443,56.6445638 Z M180.866477,24.1816469 C161.264121,35.8408635 140.992575,46.6479805 121.390219,59.1385139 C119.431616,60.8011473 118.778748,67.4516808 117.473012,71.6290472 C121.390219,72.4603639 126.629484,74.954314 129.240955,73.2916806 C146.884707,58.3071972 164.52846,42.4913971 181.535667,27.5276966 C181.519345,25.8442803 181.519345,25.0129636 180.866477,24.1816469 Z M271.713034,-86.5081711 C284.133844,-108.974505 297.207522,-131.440838 308.975464,-153.927955 C310.2812,-157.253222 308.322596,-163.093222 307.669729,-168.081122 C304.40539,-166.418488 298.513257,-166.418488 297.207522,-163.093222 C287.398183,-138.132938 278.258034,-113.151871 269.101562,-87.3602707 C270.407298,-87.3394878 271.060166,-86.5081711 271.713034,-86.5081711 Z M208.319569,-85.6768544 C199.163098,-111.468455 190.675816,-136.449522 180.866477,-162.241122 C179.560742,-165.566389 173.66861,-167.229022 170.404271,-168.891656 C169.751403,-163.903755 167.792799,-157.232439 169.751403,-153.907172 C181.519345,-130.609522 194.593023,-107.291088 207.013833,-84.8247548 C207.013833,-84.8455377 207.666701,-85.6768544 208.319569,-85.6768544 Z M175.643535,-17.4465366 C153.413386,-19.9404867 131.199558,-23.2657535 109.622277,-25.7597036 C104.399334,-26.5910203 99.812938,-24.9283869 100.465806,-17.4465366 C100.465806,-14.1212699 105.688748,-9.13336969 107.663674,-9.13336969 C130.54669,-10.7960031 153.413386,-13.2899532 175.643535,-15.7839032 C175.643535,-15.7631203 175.643535,-16.594437 175.643535,-17.4465366 Z M184.130816,-57.3913038 C166.487064,-74.0384206 148.843311,-89.8542208 130.530369,-105.670021 C127.918897,-108.163971 122.679633,-104.838704 118.762426,-104.007387 C120.72103,-99.0194873 121.373898,-92.3481708 123.985369,-90.6855375 C135.753311,-82.3723705 148.826989,-74.8697373 161.247799,-67.3878871 C168.429345,-63.2313036 175.627213,-59.0747201 182.808759,-54.8973537 C183.477949,-56.5599871 184.130816,-57.3913038 184.130816,-57.3913038 Z M301.124729,-14.1004869 C315.504142,-12.4378535 329.883556,-10.7752202 344.915837,-8.28127007 C352.766573,-7.44995338 360.600987,-5.78731999 368.451722,-5.78731999 C371.063193,-5.78731999 373.674665,-11.6065369 376.955325,-14.9525866 C374.343854,-17.4465366 371.732383,-21.6031201 368.451722,-22.4344368 C364.534515,-23.2657535 360.600987,-22.4344368 356.68378,-21.6031201 C338.387159,-19.10917 320.074217,-17.4465366 301.124729,-14.9525866 C301.124729,-15.7631203 301.124729,-14.9318036 301.124729,-14.1004869 Z M239.037,-97.336071 C240.995603,-124.790305 242.954206,-153.096638 244.91281,-180.571655 C244.91281,-183.896922 240.342735,-188.053505 237.731264,-191.399555 C235.77266,-187.242972 231.202586,-183.917705 231.202586,-179.740338 C232.508321,-152.286105 235.119793,-124.811088 237.078396,-97.3568539 C237.731264,-98.1673877 238.384132,-97.336071 239.037,-97.336071 Z M237.078396,64.9577308 C236.425528,72.439581 235.77266,80.7735309 235.119793,88.2553811 C233.814057,109.059081 231.855454,129.031465 231.202586,149.835165 C231.202586,153.160432 235.77266,157.317016 237.731264,160.663065 C239.689867,157.337798 244.259942,154.012532 244.259942,150.666482 C242.954206,122.360149 240.995603,93.2432813 239.037,64.9369478 C238.384132,64.1264141 237.731264,64.9577308 237.078396,64.9577308 Z M205.708098,52.4671974 C192.63442,74.9335311 180.213609,97.3998648 167.139931,120.718298 C163.875592,126.537515 161.916989,132.377515 167.792799,136.534098 C173.66861,140.690682 176.94927,134.871465 178.907874,129.052248 C188.064345,104.091964 197.204494,79.1108975 206.360965,54.1506137 C207.013833,53.2985141 206.360965,52.4671974 205.708098,52.4671974 Z M291.331712,25.0129636 C309.628332,41.6600804 328.594142,59.1385139 347.54363,74.954314 C349.502234,76.6169474 354.072309,73.2916806 358.005837,72.4603639 C356.700101,68.3037804 356.047234,60.8011473 354.08863,59.1385139 C333.833406,46.6479805 313.561861,34.1782301 293.306637,22.5190135 C291.984579,24.1816469 291.984579,24.1816469 291.331712,25.0129636 Z M324.660613,91.5806479 C351.460837,127.368832 377.608193,163.157015 405.061285,198.113882 C407.019888,200.607832 412.242831,198.945199 416.176359,198.945199 C415.523492,193.957299 416.176359,188.117299 413.564888,184.792032 C405.714153,174.795449 397.226871,166.482282 389.376136,157.317016 C368.451722,134.871465 347.54363,111.573814 326.619217,89.0866978 C325.966349,89.9180145 325.313481,90.7493312 324.660613,91.5806479 Z M154.066253,94.9266976 C152.760518,95.7580143 151.454782,96.589331 150.801914,98.2519644 C124.654558,129.883565 97.8543346,162.325699 71.7233003,193.957299 C70.4175647,195.619932 68.4589612,197.282566 68.4589612,198.945199 C68.4589612,203.101783 67.8060934,208.110466 69.7646969,210.604416 C71.0704325,212.267049 75.6405072,211.435732 78.2683001,210.604416 C80.2269036,209.773099 82.185507,206.447832 83.4912427,203.953882 C103.093599,174.816232 122.712277,145.699365 142.314633,116.561715 C146.884707,109.911181 150.818236,104.071181 155.388311,97.4206477 C155.371989,96.589331 154.719121,95.7580143 154.066253,94.9266976 Z M265.184356,-157.253222 C276.29943,-205.531939 287.414505,-254.62119 298.513257,-302.899907 C299.818993,-309.55044 301.777597,-317.053073 294.596051,-319.547024 C287.414505,-322.040974 286.092447,-313.727807 285.43958,-307.05649 C280.869505,-275.42489 276.283108,-243.814073 271.713034,-212.182472 C269.101562,-193.872722 266.490091,-176.394289 263.862298,-158.084538 C263.87862,-158.084538 264.531488,-157.253222 265.184356,-157.253222 Z M348.196498,19.1729638 C356.700101,22.4982306 365.187383,25.8234973 373.690986,28.3174474 C404.408417,39.9766641 434.47298,51.6150978 465.190411,62.4429977 C468.45475,63.2743144 474.99975,60.7803644 476.305485,57.4550976 C478.916956,49.9732473 473.694014,46.6271976 468.45475,45.7958809 C461.926072,44.1332475 455.381072,42.4706142 448.852394,40.8079808 C415.523492,32.4948138 381.5254,24.9921806 348.196498,16.6790137 C348.196498,17.5103304 348.196498,18.3416471 348.196498,19.1729638 Z M129.224633,-50.7199873 C89.3507313,-65.7044708 50.146019,-80.6889542 10.2721172,-95.6526547 C7.66064596,-96.4839714 1.11564612,-93.1587046 0.462778306,-90.6647545 C-1.49582514,-83.1829043 3.07424957,-79.8368546 8.31351378,-79.0055379 C48.1874156,-69.0089546 88.0613174,-59.0331543 127.918897,-49.8678877 C128.571765,-49.057354 128.571765,-49.8886707 129.224633,-50.7199873 Z M348.196498,-55.7286704 C358.658705,-59.0539372 369.757458,-62.379204 380.219665,-65.7252537 C408.325624,-74.8697373 437.084451,-83.2036872 465.190411,-92.3481708 C468.45475,-93.1794875 470.413353,-99.8300211 473.041146,-104.007387 C469.776807,-105.670021 465.190411,-110.657921 462.578939,-108.995288 C424.010773,-92.3481708 385.458929,-74.8697373 346.890763,-57.3913038 C347.54363,-57.3913038 347.54363,-56.5599871 348.196498,-55.7286704 Z M316.809878,-119.802405 C346.221573,-155.590588 374.9804,-190.547455 404.392095,-227.166956 C407.003567,-230.492223 408.309302,-238.826172 406.350699,-242.151439 C402.433492,-248.801973 397.847096,-244.645389 393.929889,-239.657489 C380.203343,-218.853789 366.476797,-198.881405 352.750251,-178.077705 C339.676573,-158.936638 327.255763,-139.795571 313.529217,-118.991871 C315.504142,-119.802405 316.809878,-119.802405 316.809878,-119.802405 Z M206.360965,-153.096638 C199.832287,-188.053505 192.63442,-223.841689 186.105741,-258.798556 C182.841402,-274.614356 180.882799,-289.59884 176.94927,-304.583323 C175.643535,-308.739907 171.07346,-314.579906 167.792799,-313.727807 C161.264121,-312.89649 161.916989,-305.41464 163.875592,-298.743323 C165.181328,-295.418057 165.834196,-291.261473 166.487064,-287.915423 C175.643535,-256.283823 184.130816,-223.841689 193.287287,-192.210089 C197.204494,-178.888239 201.138023,-164.755855 204.402362,-151.434005 C205.708098,-152.265322 205.708098,-152.265322 206.360965,-153.096638 Z M210.93104,123.212248 C199.163098,173.984915 187.395155,223.905483 176.296403,274.67815 C175.643535,278.003417 178.907874,282.991317 180.866477,288 C184.130816,284.674733 189.370081,282.180783 190.022948,278.003417 C197.873684,226.399433 205.708098,175.626766 213.558833,124.043565 C211.583908,124.043565 211.583908,124.043565 210.93104,123.212248 Z M268.448695,119.055665 C278.258034,170.659649 288.051051,223.094949 297.86039,274.67815 C298.513257,278.834733 304.389068,280.497367 307.669729,283.822634 C308.975464,278.834733 311.586935,272.994734 310.934068,268.83815 C303.7362,240.531817 295.901786,212.246266 288.051051,183.108616 C282.17524,161.473599 276.283108,139.838582 270.407298,118.182782 C269.75443,119.055665 269.101562,119.055665 268.448695,119.055665 Z M127.918897,24.1816469 C122.043087,25.8442803 116.150955,27.5069136 110.928013,29.169547 C77.5991106,39.1661303 44.253887,49.1419306 10.924985,59.1385139 C5.70204252,60.8011473 0.462778306,64.1264141 3.07424957,71.6290472 C4.3799852,74.954314 10.2557955,76.6169474 14.1893241,75.7856307 C20.0651344,74.954314 25.3043987,71.6290472 31.180209,69.1350971 C63.8562431,54.9819304 96.548599,39.997447 128.571765,25.8650632 C128.571765,25.8442803 127.918897,25.0129636 127.918897,24.1816469 Z M152.10765,-118.971088 C122.043087,-152.265322 92.6313921,-184.728239 63.219697,-218.001689 C61.2610936,-220.495639 61.9139614,-227.146173 61.9139614,-232.154856 C65.1783005,-232.154856 70.4175647,-233.817489 72.3761681,-231.323539 C99.8292597,-194.704039 127.282351,-158.084538 154.082575,-121.465038 C152.760518,-120.633721 152.10765,-119.802405 152.10765,-118.971088 Z" id="Shape" fill="#FFFFFF" fill-rule="nonzero" mask="url(#mask-34)"></path>
            </g>
            <g id="Clipped" transform="translate(763.000000, 337.000000)">
                <mask id="mask-36" fill="white">
                    <use xlink:href="#path-35"></use>
                </mask>
                <g id="SVGID_15_"></g>
                <path d="M193.296016,136.056144 C206.174178,130.052692 219.459019,124.04924 232.337181,118.068357 C233.624997,117.210721 233.624997,113.780177 234.483541,111.207269 C231.907909,111.207269 228.903004,109.920814 227.185916,110.778451 C215.59557,118.497175 204.027817,126.622148 192.866744,134.76969 C193.296016,135.198508 193.296016,135.627326 193.296016,136.056144 Z M177.00627,193.878869 C183.016079,206.743409 188.596616,220.014198 195.013104,232.878739 C195.871648,234.165193 199.735097,234.165193 201.881457,235.022829 C201.881457,232.449921 203.169273,229.448195 201.881457,227.732923 C194.15456,216.154836 186.020984,204.599319 177.864814,193.45005 C177.864814,193.45005 177.435542,193.878869 177.00627,193.878869 Z M118.670455,177.177535 C105.792293,183.180987 92.5074523,188.755622 79.6292902,195.165323 C78.341474,196.022959 77.9122019,199.453503 77.0536577,201.597593 C79.6292902,202.026411 83.0634667,203.312865 84.780555,202.455229 C96.3709009,194.736505 107.938654,186.611532 119.099727,178.892807 C119.099727,178.035171 119.099727,177.606353 118.670455,177.177535 Z M178.294086,120.189878 C186.450256,108.611791 195.013104,97.0562739 202.740001,85.4781875 C203.598545,83.7629154 202.310729,80.7611893 201.881457,78.1882812 C199.735097,79.0459172 195.871648,79.0459172 195.013104,80.7611893 C188.574023,93.6257298 182.564214,106.467701 176.576998,119.76106 C177.435542,119.76106 177.864814,120.189878 178.294086,120.189878 Z M136.699882,120.618696 C130.690073,107.347906 125.109536,94.4833658 118.693049,81.1900073 C117.834504,79.4747352 113.971056,78.6170992 111.824695,77.7594631 C111.395423,80.3323712 110.107607,83.7629154 111.395423,85.4781875 C119.122321,97.485092 127.685169,109.469427 135.841338,121.047514 C135.841338,121.047514 136.27061,120.618696 136.699882,120.618696 Z M115.236279,155.759204 C100.663622,154.47275 86.0683712,152.757478 71.9249862,151.471023 C68.4908096,151.042205 65.4859051,151.899841 65.9151772,155.759204 C65.9151772,157.474476 69.3493538,160.047384 70.63717,160.047384 C85.6390991,159.189748 100.663622,157.903294 115.236279,156.61684 C115.236279,156.61684 115.236279,156.188022 115.236279,155.759204 Z M120.816816,135.198508 C109.22647,126.622148 97.6587171,118.497175 85.6390991,110.349632 C83.9220109,109.063178 80.4878343,110.778451 77.9122019,111.207269 C79.2000181,113.780177 79.6292902,117.210721 81.3463784,118.068357 C89.0732757,122.356537 97.6361238,126.215899 105.792293,130.075261 C110.514286,132.219351 115.236279,134.363441 119.935678,136.507532 C120.387544,135.627326 120.816816,135.198508 120.816816,135.198508 Z M197.588736,157.474476 C207.032722,158.332112 216.454114,159.189748 226.327372,160.476202 C231.478637,160.90502 236.629901,161.762656 241.758573,161.762656 C243.475661,161.762656 245.19275,158.76093 247.33911,157.045658 C245.622022,155.759204 243.904933,153.615114 241.758573,153.186296 C239.182941,152.757478 236.607308,153.186296 234.031676,153.615114 C222.012058,154.901568 210.015033,155.759204 197.566143,157.045658 C197.588736,156.61684 197.588736,157.045658 197.588736,157.474476 Z M156.853076,114.615243 C158.140892,100.486818 159.428709,85.9070055 160.716525,71.7785803 C160.716525,70.0633082 157.71162,67.9192181 155.994532,66.203946 C154.706716,68.3480361 151.701811,70.0633082 151.701811,72.2073983 C152.560356,86.3358235 154.277444,100.486818 155.56526,114.615243 C155.994532,114.186425 156.423804,114.615243 156.853076,114.615243 Z M155.56526,198.167049 C155.135988,202.026411 154.706716,206.314591 154.277444,210.173953 C153.4189,220.894404 152.131083,231.163467 151.701811,241.883917 C151.701811,243.599189 154.706716,245.743279 155.994532,247.458551 C157.282348,245.743279 160.287253,244.028007 160.287253,242.312735 C159.428709,227.755492 158.140892,212.746861 156.853076,198.189618 C156.423804,197.738231 155.994532,198.167049 155.56526,198.167049 Z M134.982794,191.734778 C126.397353,203.312865 118.263776,214.868382 109.678335,226.875287 C107.531975,229.877013 106.244159,232.878739 110.107607,235.022829 C113.971056,237.166919 116.117416,234.165193 117.405232,231.163467 C123.415041,218.298926 129.42485,205.456955 135.412066,192.592414 C135.841338,192.163596 135.412066,191.734778 134.982794,191.734778 Z M191.149655,177.606353 C203.169273,186.182714 215.59557,195.165323 228.04446,203.312865 C229.332276,204.170501 232.337181,202.455229 234.912813,202.026411 C234.054269,199.882321 233.624997,196.022959 232.337181,195.165323 C219.029747,188.733052 205.744906,182.300782 192.460065,176.319899 C191.578927,177.177535 191.578927,177.177535 191.149655,177.606353 Z M213.042531,211.889225 C230.620092,230.305831 247.790975,248.745005 265.797809,266.732793 C267.085625,268.019247 270.519802,267.161611 273.095434,267.161611 C272.666162,264.588703 273.095434,261.586977 271.378346,259.871705 C266.227081,254.725888 260.646544,250.437708 255.517873,245.743279 C241.80376,234.165193 228.067053,222.180858 214.35294,210.602771 C213.901075,211.031589 213.471803,211.460407 213.042531,211.889225 Z M101.092894,213.604497 C100.23435,214.033315 99.3758054,214.462133 98.9465333,215.319769 C81.7982438,231.592285 64.1980889,248.316187 47.0497994,264.588703 C46.1912552,265.446339 44.903439,266.303975 44.903439,267.161611 C44.903439,269.305701 44.474167,271.878609 45.7619832,273.165063 C46.6205273,274.022699 49.6254318,273.593881 51.3425201,273.165063 C52.6303363,272.736245 53.9181525,271.020973 54.7766966,269.734519 C67.6548587,254.748458 80.5104276,239.739827 93.3885897,224.753766 C96.3934942,221.323222 98.9691266,218.321496 101.974031,214.890951 C101.951438,214.462133 101.522166,214.033315 101.092894,213.604497 Z M174.001366,83.7854848 C181.298991,58.9366091 188.574023,33.6589154 195.871648,8.81003973 C196.730192,5.37949559 198.018008,1.52013343 193.296016,0.233679374 C188.574023,-1.05277468 187.715479,3.2354055 187.286207,6.66594964 C184.281302,22.938465 181.276398,39.2335496 178.271493,55.5060649 C176.554405,64.9400613 174.837317,73.9226703 173.120228,83.3566667 C173.142822,83.3566667 173.572094,83.7854848 174.001366,83.7854848 Z M228.473732,174.604627 C234.054269,176.319899 239.634806,178.035171 245.19275,179.321625 C265.345944,185.325078 285.069866,191.32853 305.245653,196.880595 C307.392013,197.309413 311.684734,196.022959 312.543278,194.307687 C314.260366,190.448324 310.82619,188.733052 307.392013,188.304234 C303.099292,187.446598 298.806572,186.588962 294.513851,185.731326 C272.643569,181.443146 250.344014,177.583784 228.473732,173.295604 C228.473732,173.746991 228.473732,174.175809 228.473732,174.604627 Z M84.8031483,138.606483 C58.6401453,130.887759 32.9064143,123.191604 6.74341135,115.472879 C5.02632307,115.044061 0.733602367,116.759333 0.304330297,118.045787 C-0.983485913,121.90515 2.02141858,123.620422 5.45559514,124.04924 C31.6185981,129.195056 57.7816011,134.340872 83.9446041,139.035301 C84.3738762,139.464119 84.3738762,139.035301 84.8031483,138.606483 Z M228.473732,136.056144 C235.342085,134.340872 242.617117,132.6256 249.48547,130.910328 C267.921576,126.19333 286.809547,121.90515 305.245653,117.210721 C307.392013,116.781903 308.679829,113.351359 310.396918,111.207269 C308.250557,110.349632 305.245653,107.776724 303.528565,108.63436 C278.224106,117.210721 252.919647,126.19333 227.615188,135.198508 C228.04446,135.198508 228.04446,135.627326 228.473732,136.056144 Z M207.891266,103.059726 C227.185916,84.6431208 246.073887,66.632764 265.368537,47.7873406 C267.085625,46.0720685 267.944169,41.7838884 266.656353,40.0686163 C264.080721,36.6380722 261.075816,38.7821622 258.500184,41.3550704 C249.48547,52.0755208 240.49335,62.3445839 231.478637,73.0650343 C222.893195,82.9278487 214.759619,92.7680938 205.744906,103.488544 C207.032722,103.059726 207.891266,103.059726 207.891266,103.059726 Z M135.412066,85.9070055 C131.119345,67.9192181 126.397353,49.4800433 122.127225,31.4922559 C119.980865,23.3447136 118.693049,15.6485586 116.117416,7.92983433 C115.258872,5.78574424 112.253967,2.78401811 110.107607,3.21283613 C105.814886,3.64165415 106.244159,7.50101631 107.531975,10.9315605 C108.390519,12.6468325 108.819791,14.7909226 109.249063,16.5061947 C115.258872,32.77871 120.839409,49.5026127 126.826625,65.775128 C129.402257,72.6362163 131.977889,79.9035532 134.12425,86.7646415 C134.982794,86.3358235 134.982794,86.3358235 135.412066,85.9070055 Z M138.394377,228.161741 C130.66748,254.29707 122.963176,280.003582 115.665551,306.138912 C115.236279,307.854184 117.382639,310.427092 118.670455,313 C120.816816,311.284728 124.250992,309.998274 124.680264,307.854184 C129.831529,281.290036 134.982794,255.154706 140.111465,228.590559 C138.823649,228.590559 138.823649,228.590559 138.394377,228.161741 Z M176.147726,226.01765 C182.586807,252.581798 189.025888,279.574764 195.442376,306.138912 C195.871648,308.283002 199.735097,309.140638 201.881457,310.85591 C202.740001,308.283002 204.457089,305.281276 204.027817,303.137186 C199.305825,288.579942 194.15456,274.00013 189.025888,259.014068 C185.16244,247.8648 181.298991,236.738101 177.435542,225.588832 C177.00627,226.01765 176.576998,226.01765 176.147726,226.01765 Z M83.9446041,177.177535 C80.0811555,178.035171 76.2177069,178.892807 72.7835303,179.750443 C50.913248,184.896259 29.0429657,190.042076 7.15009015,195.165323 C3.71591359,196.022959 0.28173703,197.738231 1.99882531,201.597593 C2.85736945,203.312865 6.72081808,204.170501 9.2964505,203.741683 C13.1598991,203.312865 16.5940757,201.597593 20.4575243,200.311139 C41.8985345,193.021232 63.3395448,185.325078 84.3738762,178.035171 C84.3738762,178.035171 83.9446041,177.606353 83.9446041,177.177535 Z M99.8050775,103.488544 C80.0811555,86.3583929 60.7639124,69.6344902 41.4692625,52.5043388 C40.1814463,51.2178848 40.6107183,47.7873406 40.6107183,45.2144325 C42.7570787,45.2144325 46.1912552,44.3567965 47.4790715,45.6432505 C65.4859051,64.4886739 83.5153321,83.3566667 101.092894,102.20209 C100.23435,102.630908 99.8050775,103.059726 99.8050775,103.488544 Z" id="Shape" fill="#FFB724" fill-rule="nonzero" mask="url(#mask-36)"></path>
            </g>
            <g id="Clipped" transform="translate(0.000000, 543.000000)">
                <mask id="mask-38" fill="white">
                    <use xlink:href="#path-37"></use>
                </mask>
                <g id="SVGID_19_"></g>
                <path d="M1219,263.264252 C1197.0003,239.343277 1161.9159,243.023427 1134.16047,256.512364 C1106.40504,270.01614 1081.27167,290.865376 1051.943,298.225676 C1019.46787,306.194388 986.481112,295.777189 953.481567,292.705451 C920.482022,290.256964 882.775565,298.225676 864.971159,330.738614 C866.019982,356.499663 852.922488,381.66714 833.544848,393.316002 C814.167208,404.356452 789.033834,401.284714 772.26546,384.724039 C750.265763,409.876677 728.278857,435.029314 701.559458,452.821652 C674.852849,470.61399 643.426538,480.437616 613.573462,471.845653 C583.720385,463.25369 557.538187,433.81249 555.440542,398.227815 C536.062902,415.411741 503.076147,403.139628 496.2588,376.146915 C461.698811,413.571666 396.236922,397.619403 377.895315,346.690876 C372.663992,331.970277 368.993112,312.946276 356.420029,306.194388 C339.664446,296.994013 322.384452,315.394763 306.664901,325.826801 C265.287565,352.819513 214.496404,329.506951 172.070245,304.354313 C130.168497,279.201675 80.9505708,252.817374 38,274.898274 C52.1463166,250.354048 80.9377802,242.993748 106.083945,247.905561 C131.21732,252.194123 154.265839,266.306311 177.82598,275.521525 C201.910531,284.7219 229.154342,289.025301 251.665659,275.521525 C271.567711,263.857824 283.616382,239.93685 298.798731,221.5361 C313.98108,203.13535 338.078422,187.791499 357.980473,199.4552 C361.651353,170.622413 380.504581,145.469775 404.589133,136.877812 C428.673685,128.285849 455.917495,137.486224 472.673078,159.581963 C471.624255,156.510225 470.575433,153.453326 469.52661,150.381588 C474.246312,160.813626 481.05087,170.014001 489.428661,177.374301 C513.513213,198.846788 549.134815,200.078452 574.268189,181.054451 C586.316861,171.854076 596.267886,158.3503 597.84112,141.789625 C599.414354,126.445774 593.134208,111.725174 584.743626,99.4530616 C578.46348,90.2526867 570.085689,81.6607238 560.659075,77.372162 C551.23246,73.0836001 539.708201,73.0836001 530.805998,79.2122369 C521.903795,85.3408737 515.623649,97.6129866 517.708504,109.885099 C519.281738,121.548801 529.757175,131.357587 540.232612,129.517512 C532.903643,127.069025 530.281586,114.796913 534.476877,107.436613 C538.672168,100.076313 548.098783,98.2362378 554.90334,102.5248 C561.707897,106.813361 564.854366,116.636987 564.329954,125.22895 C563.805543,134.429325 559.098631,142.412876 553.330106,147.933101 C536.050112,165.117027 508.29468,160.205214 492.050718,141.804464 C477.392781,125.24379 472.148667,100.091152 473.721901,76.1553382 C480.526458,57.1313373 492.050718,40.5706626 506.721446,30.1386247 C542.330258,4.37757511 594.183031,14.7947737 620.365228,53.4511874 C639.742868,22.1550736 681.644616,14.1863618 708.875636,36.8905127 C736.106656,58.9714123 743.435625,108.059864 725.106808,139.96439 C731.911365,147.933101 738.204302,155.30824 745.008859,163.276952 C773.288702,122.780464 829.848387,116.651827 864.408376,149.773176 C864.932787,149.164764 864.932787,148.541513 865.457199,147.933101 C864.932787,151.004839 864.408376,154.061738 863.883965,156.525064 C861.786319,171.868915 862.835142,189.661253 872.261756,200.701703 C880.639548,209.902078 893.737042,211.742153 904.73689,209.293666 C915.212327,206.845179 925.687764,200.093291 930.394676,189.052841 C935.114378,177.38914 930.394676,161.436877 919.919239,158.379978 C924.11453,168.203605 919.919239,181.084129 911.541447,185.995942 C903.163656,190.907755 892.163807,187.836017 885.883661,179.867306 C879.603515,171.898594 877.50587,160.234893 879.079104,149.194443 C881.17675,138.762405 886.932484,128.953618 894.261453,122.20173 C894.785864,121.593318 894.785864,121.593318 895.310276,120.970067 C903.688067,117.289917 912.59027,114.84143 921.492473,115.449842 C944.016581,116.058254 966.003487,130.170442 978.052158,152.266181 C993.234507,179.882145 994.28333,219.755382 1017.85626,237.54772 C1045.08728,258.411796 1080.17168,235.707645 1111.59799,227.724094 C1148.81841,216.015875 1191.24457,230.751314 1219,263.264252 Z" id="Path" fill="#2659C1" fill-rule="nonzero" mask="url(#mask-38)"></path>
            </g>
        </g>
    </g>
</svg>