<svg xmlns="http://www.w3.org/2000/svg" xmlns:xlink="http://www.w3.org/1999/xlink" viewBox="0 0 1920 1080">
  <defs>
    <style>
      .cls-1 {
        fill: none;
      }

      .cls-2 {
        clip-path: url(#clip-path);
      }

      .cls-3 {
        fill: #8aedde;
      }

      .cls-4 {
        fill: #b3f4e9;
      }

      .cls-5 {
        fill: #dbfcf8;
      }

      .cls-6 {
        fill: #f5feff;
      }

      .cls-7 {
        fill: #46612c;
      }

      .cls-8 {
        fill: #e48c76;
      }

      .cls-9 {
        fill: #fadce9;
      }

      .cls-10 {
        fill: #9bc750;
      }

      .cls-11 {
        fill: #83ab52;
      }

      .cls-12 {
        fill: #008074;
      }

      .cls-13 {
        fill: #fefee0;
      }

      .cls-14 {
        fill: #efd241;
      }

      .cls-15 {
        fill: #fdc367;
      }

      .cls-16 {
        fill: #fd498a;
      }

      .cls-17 {
        fill: #fbba68;
      }

      .cls-18 {
        fill: #f45d48;
      }

      .cls-19 {
        fill: #2b4a1e;
      }
    </style>
    <clipPath id="clip-path">
      <rect class="cls-1" width="1920" height="1080"/>
    </clipPath>
  </defs>
  <g id="Layer_2" data-name="Layer 2">
    <g id="Layer_1-2" data-name="Layer 1">
      <g class="cls-2">
        <rect class="cls-3" width="1920" height="1080"/>
        <g>
          <path class="cls-4" d="M2223.7488,112.1437c-205.1362-26.931-399.028-18.319-778.4336,0-355.8883,17.1862-424.2564,32.7454-614.3792,21.034C684.53,124.1606,665.8738,111.289,461.0213,96.3716,215.003,78.4543,65.6051,67.5769-50.4277,93.2172c-186.9206,41.306-211.8973,160.7446-93.2818,187.1915,109.3344,24.3772,252.0446-50.0072,585.434-50.4809,210.7949-.2986,240.454,29.3165,511.449,38.91,252.99,8.9587,260.2968-15.6759,537.1816-15.772,448.4037-.1545,612.9723,64.3994,865.2794,24.1884,33.2184-5.2963,181.0205-30.4286,186.5636-67.3067C2550.2824,156.1372,2249.7333,115.5555,2223.7488,112.1437ZM699.05,180.5007c-10.4358,10.7161-137.8808-1.0812-291.3522,2.31C133.9837,188.8587,5.8458,238.176-53.64,220.4646c-45.3233-13.4929-18.4884-56.2714,51.4651-80.9781,150.3638-53.11,479.2387-15.3979,630.4633,16.8292C651.6585,161.2928,706.2522,173.1106,699.05,180.5007Zm1489.3176,58.8938c-12.3361,7.8843-90.93-6.6864-283.0686-10.517-196.5164-3.92-286.7013,7.8843-299.1527-2.1041-15.99-12.8339,106.3633-53.625,250.9-56.79C2045.08,165.8716,2208.0635,226.8077,2188.3677,239.3945Z"/>
          <path class="cls-4" d="M-861.181,461.508C-855.1161,493.3921-693.4,515.121-657.0546,519.7c276.0588,34.7656,456.12-21.0464,946.7355-20.9129,302.95.0831,310.9453,21.3818,587.751,13.6363,296.506-8.2945,328.9572-33.8992,559.596-33.641,364.7741.4095,520.9188,64.7209,640.5458,43.6448,129.7817-22.8655,102.4538-126.13-102.0632-161.8422-126.9559-22.1681-290.4179-12.7637-559.596,2.7273-224.137,12.8973-244.55,24.0258-404.7379,31.8218C803.156,405.26,728.3517,391.8075,338.9607,376.9486c-415.1222-15.8382-627.2667-23.2839-851.714,0C-541.184,379.8984-870.0264,414.9846-861.181,461.508Zm2094.0824-46.3691c165.4607-27.863,525.2954-60.4682,689.8141-14.55,76.5389,21.3609,105.9,58.3464,56.31,70.0121-65.0861,15.3129-205.2866-27.3259-504.7678-32.5548-167.919-2.932-307.3614,7.2677-318.78-1.9972C1147.5979,429.66,1207.331,419.442,1232.9014,415.1389ZM-111.53,426.956C46.613,429.6921,538.9154,418.849,547.0856,459.7S50.6909,474.4854-164.3253,477.8744c-210.2262,3.3119-296.2189,15.9094-309.7163,9.0928C-495.5915,476.0849-317.2651,423.4008-111.53,426.956Z"/>
        </g>
        <g>
          <path class="cls-5" d="M1857.4685,682.7622c-637.5553,317.6762-1289.7759,265.3372-1950.4383,0V510.3536a128.2177,128.2177,0,0,1,58.9472-.2439c65.213-103.3244,249.6674-92.4411,300.4537,18.3986,87.4971-45.1807,211.3056,1.2809,241.5886,90.981,37.7755-17.24,89.2122-11.8226,121.7761,12.39,34.0248-53.8167,123.2248-67.96,174.0584-27.4859,57.6068-94.5481,218.5523-108.23,293.1794-25.2288,50.0581-53.5147,155.454-41.3489,190.283,22.241,31.6874-18.6685,77.3948-21.0933,111.297-5.6992,25.94-128.8465,215.1783-179.5966,309.411-86.9784,39.0377-43.1379,119.5293-48.3708,164.5106-10.5618,36.7788-30.4321,99.694-34.261,140.4346-8.3069v191.257C1989.6235,685.5873,1879.5811,681.35,1857.4685,682.7622Z"/>
          <path class="cls-6" d="M1989.7858,1105.1539V501.8582c-85.3829-17.8713-181.2993,11.1362-240.9966,69.3765v.01c-60.6324-34.2136-148.6051-5.2727-176.36,57.7562a209.2053,209.2053,0,0,0-158.4089,92.7243c-45.2268-10.1522-97.0937,1.8471-132.2219,29.3523-67.0286-142.1087-296.562-149.0653-372.4833-11.8582-48.7791-31.9113-122.1075-32.8627-171.7693-2.1645-46.2318-68.0387-162.46-70.1247-211.1743-3.87a156.7557,156.7557,0,0,0-70.5861-29.2623c4.4921-101.5176-118.543-166.7333-200.7048-114.1478-72.15-62.7539-196.4645-68.9777-274.8482-13.464v528.8431C671.47,1194.9992,1343.0765,1202.3746,1989.7858,1105.1539Z"/>
        </g>
        <g>
          <path class="cls-7" d="M279.6327,1010.8639c-2.21-77.5764-24.5262-82.6419,42.3814-141.3452-10.2252,4.0047-24.5146,20.8894-34.8368,30.2718-10.5136,9.6805-15.2681,28.2135-11.6788,3.4871,9.6341-64.8044,7.9392-95.8817,74.686-118.4013-20.8453,4.9584-43.0245,13.6356-57.0244,30.5349-4.98,7.982-1.6423-.4748-1.2321-5.2525,6.923-48.1176,33.3944-83.4144,81.9065-94.503-17.26.3593-41.416,12.0167-55.7368,24.9858,20.9833-54.4981,54.84-72.26,110.4567-79.16-20.7826-1.3094-49.1688,4.8527-69.422,16.8811,15.5121-21.8714,48.0615-35.9249,60.1126-55.9084-20.0174,18.9219-44.7109,32.4145-62.3748,53.94,10.2135-32.1717-3.7775-33.2271-4.1293-56.0509-2.6645-1.0236-2.5992,5.4213-1.92,7.359,19.9528,41.1331-15.3969,69.7306-32.0988,103.7979-2.55-19.5177-9.6634-38.9667-18.6767-55.5651,21.9072,73.1674,16.7244,48.9867-8.09,118.7221-5.9087,13.0441-3.8546,52.7969-12.6706,22.51-21.0295-31.86-10.11-58.276-26.97-90.9262,1.846,16.3348,13.766,37.9793,9.4417,56.9877-9.7595-17.24-20.7466-33.5916-32.0127-49.9342,21.62,57.539,48.8415,43.4916-15.1917,41.869,43.4312-1.8815,56.9849,24.7343,67.7832,62.2-1.4423,26.8941-12.36,57.5474-12.2569,86.2889-7.4139-27.3265-30.4157-51.6638-54.84-59.635C282.1209,902.0658,265.8221,952.6174,279.6327,1010.8639Z"/>
          <path class="cls-8" d="M353.9685,874.4882c-17.0885-34.025-25.1438-33.2965-36.1385.8093C326.0587,876.5744,353.6262,887.5024,353.9685,874.4882Z"/>
          <path class="cls-8" d="M382.1772,783.0462c-2.1031-29.5364-24.09-4.1814-36.4835,3.08-6.67,1.93,7.2715,7.2375,8.3093,10.8616C372.3091,820.88,379.783,805.4055,382.1772,783.0462Z"/>
          <path class="cls-8" d="M413.6309,731.8051c11.8831-11.6416-2.0735-39.3777-15.4839-46.3532-7.9687.4217-17.9763,25.2988-29.0723,30.11-1.901-.5539-2.6537,2.3693-.7812,2.9677C385.0167,715.66,398.2694,727.2517,413.6309,731.8051Z"/>
          <path class="cls-8" d="M443.8187,646.9294c-37.6739,28.0736-23.3059,2.9975,10.1568,41.7206C469.89,682.5833,463.4224,627.4745,443.8187,646.9294Z"/>
          <path class="cls-8" d="M422.9218,606.7873c1.0983,9.753-12.3757,21.4309-7.1079,20.4982,13.1406-6.297,35.9514,1.4069,43.5712-12.7089-2.2517-16.0018-21.7651-26.1909-35.24-32.4228C418.9043,587.2947,425.3911,599.3556,422.9218,606.7873Z"/>
          <path class="cls-8" d="M346.8934,624.62c2.439,2.6355,4.1852,9.9146,7.16,10.2793,5.6859.7677,5.3378-11.5491,7.2522-15.81,6.1457-15.5151,7.8837-37.6319-15.5306-29.1122C300.1464,597.9806,334.0386,602.8567,346.8934,624.62Z"/>
          <path class="cls-8" d="M303.3272,687.6c6.8779,3.9614,4.0867-16.378,6.1128-21.0562,5.8958-21.4512,6.8024-36.063-20.6594-28.0476C241.3823,660.2819,290.9772,660.9764,303.3272,687.6Z"/>
          <path class="cls-8" d="M265.161,718.0687c3.2277-11.92,2.5133-21.7267-12.1888-15.023-35.3056,8.7386-17.1581,12.8809-1.8728,31.6556C259.4922,752.8961,263.6674,726.6488,265.161,718.0687Z"/>
          <path class="cls-8" d="M235.9731,745.8655c11.7912,1.6272-16.7877-62.4658-25.7575-34.9778C178.5641,741.5247,214.7645,726.1317,235.9731,745.8655Z"/>
          <path class="cls-8" d="M225.2947,776.9478c-5.3085-11.5932-63.7068-26.9408-40.4071,4.6441C197.9829,819.9034,202.104,786.2053,225.2947,776.9478Z"/>
          <path class="cls-8" d="M229.04,872.6048c1.4538-12.6054-15.1623-21.8618-22.5289-30.992-19.207-18.3109-17.4469,6.687-18.2786,21.1849.8461,4.3089-3.4043,12.7152.0948,14.9655C200.7226,871.891,218.4209,877.7617,229.04,872.6048Z"/>
          <path class="cls-9" d="M363.7983,784.2559c.7834-.546,4.1879-2.0691,1.8093-2.6223C362.35,782.3092,358.2266,788.4567,363.7983,784.2559Z"/>
          <path class="cls-9" d="M368.3692,790.9719c-1.3712-.4228-6.9314-2.3976-6.6483-.6146C363.1924,790.9287,368.2914,793.1162,368.3692,790.9719Z"/>
          <path class="cls-9" d="M369.4244,797.6805c-.9983-.99-7.9732-4.46-7.25-2.0512C364.22,796.0255,367.9845,799.4106,369.4244,797.6805Z"/>
          <path class="cls-9" d="M330.3647,866.6641c.98-.1593,1.0583-1.4594,1.0733-1.5615.8093-1.1794,4.8813-3.2066,1.2785-3.2441C331.0359,861.902,329.3852,866.8233,330.3647,866.6641Z"/>
          <path class="cls-9" d="M336.8233,867.976c-2.1532-2.4378-9.6676,2.2429-3.4618,1.1222C334.2329,868.6246,337.2711,869.5975,336.8233,867.976Z"/>
          <path class="cls-9" d="M341.0405,871.818c-1.5728-2.0765-10.1553.7431-6.69,1.8813C335.6215,871.2339,341.4881,874.1946,341.0405,871.818Z"/>
          <g>
            <path class="cls-9" d="M208.67,854.2064a.2109.2109,0,0,0,.2124-.0572C208.8109,854.1684,208.74,854.1872,208.67,854.2064Z"/>
            <path class="cls-9" d="M213.5664,858.8047c-1.3827-1.2294-3.187-5.0513-5.0948-4.3407C208.266,855.8674,213.165,861.8729,213.5664,858.8047Z"/>
            <path class="cls-9" d="M208.9021,854.134c-.01,0-.01.0141-.02.0152l.0743-.02Z"/>
            <path class="cls-9" d="M208.4419,854.4875c.0675-.0409.0433-.1263.1067-.1871C208.5127,854.3622,208.4778,854.4248,208.4419,854.4875Z"/>
            <path class="cls-9" d="M208.4055,854.5527c.0115-.0216.0244-.0434.0364-.0652C208.42,854.4982,208.4135,854.527,208.4055,854.5527Z"/>
          </g>
          <path class="cls-9" d="M210.4985,862.3785c-1.2338-.4363-5.8018-4.7905-5.5269-2.314C205.8876,860.9865,210.5829,865,210.4985,862.3785Z"/>
          <path class="cls-9" d="M211.1192,865.8658c-2.2607-.19-6.8189-.6445-8.0236,1.3687C204.3729,867.83,212.0775,868.1875,211.1192,865.8658Z"/>
          <path class="cls-9" d="M202.289,770.6042c-2.0817-2.968-10.8662-.678-3.1909.0894C199.8308,770.53,202.4,772.2327,202.289,770.6042Z"/>
          <path class="cls-9" d="M203.9581,776.0866c-1.169-1.5029-3.33-.5382-4.9511-.858-5.1665-.7753,1.6139,2.3864,3.4525,1.6583C202.9544,776.9765,204.2819,776.854,203.9581,776.0866Z"/>
          <path class="cls-9" d="M204.6031,782.05c5.7159-6.5722-1.3572-1.8821-4.1869.7771C199.1783,785.5372,203.8512,782.9239,204.6031,782.05Z"/>
          <path class="cls-9" d="M228.9877,727.0418c-.1317-1.1627-3.0695-6.9772-3.6959-4.5637C226.1429,723.62,227.3927,728.4561,228.9877,727.0418Z"/>
          <path class="cls-9" d="M225.6867,730.6894c-.8849-.7779-1.8434-6-2.8384-3.9629C222.9653,727.8071,224.79,732.7591,225.6867,730.6894Z"/>
          <path class="cls-9" d="M223.0211,732.1113c-1.3582-.4434-5.8638-5.4183-5.7215-2.8253C218.3822,730.2221,222.52,734.2753,223.0211,732.1113Z"/>
          <path class="cls-9" d="M250.8551,723.0059c-1.32-.948-4.0428-7.0118-4.844-5.1274C246.9352,719.3608,249.2024,724.2192,250.8551,723.0059Z"/>
          <path class="cls-9" d="M253.5821,721.7392c.5836-1.4586-1.288-8.73-2.682-6.3834C252.1441,716.835,251.7974,722.0836,253.5821,721.7392Z"/>
          <path class="cls-9" d="M258.2758,721.9494c.1388-2.54,2.1474-6.3883.8377-8.3959C256.5622,713.5878,255.7854,726.8413,258.2758,721.9494Z"/>
          <path class="cls-9" d="M294.1621,667.0924c-.6594-1.1942-3.6279-8.1871-4.3545-4.96C290.8388,663.2265,292.8118,669.6512,294.1621,667.0924Z"/>
          <path class="cls-9" d="M299.465,664.8225c.8837-3.6766-4.561-10.0971-1.674-2.8836C298.065,662.7286,298.1871,666.0289,299.465,664.8225Z"/>
          <path class="cls-9" d="M305.4568,662.4653c.1268-1.9519.7959-5.4645-.7831-6.6974C303.4756,656.2456,303.5442,666.6678,305.4568,662.4653Z"/>
          <path class="cls-9" d="M387.9051,705.6834c.54-1.4229,5.3371-3.0981,3.1025-4.3473C386.1,702.4085,380.0042,714.1563,387.9051,705.6834Z"/>
          <path class="cls-9" d="M394.8677,709.471c2.1434-3.9882-9.6955,1.6584-5.8429,2.43a16.4426,16.4426,0,0,1,5.3012-2.2724A3.6245,3.6245,0,0,1,394.8677,709.471Z"/>
          <path class="cls-9" d="M399.8213,713.94c-1.5629-1.6314-10.2946.0565-7.0964,1.7664C394.23,713.3237,400.7963,716.8591,399.8213,713.94Z"/>
          <path class="cls-9" d="M446.6783,656.2579c-1.4753.5124-8.3282,3.0629-6.149,4.2C441.8134,659.2447,448.4812,657.87,446.6783,656.2579Z"/>
          <path class="cls-9" d="M447.337,665.3612c-.5223-1.208-7.1721-3.606-5.6317-1.2234C443.3307,663.9875,446.7052,667.1554,447.337,665.3612Z"/>
          <path class="cls-9" d="M448.099,671.7247c-1.6994-.63-9.0618-4.5887-8.52-1.9255C441.9381,669.6789,447.2129,673.99,448.099,671.7247Z"/>
          <path class="cls-9" d="M430.03,608.7156c.6-1.4208.7573-2.85,1.6167-4.0649.0733-.2023,1.4123-1.0835.82-1.8007C428.5615,600.3952,427.0861,614.9434,430.03,608.7156Z"/>
          <path class="cls-9" d="M437.5609,608.6143c.4364-3.0083-5.4695.903-6.403,2.0915C431.7775,612.8247,436.0373,609.0919,437.5609,608.6143Z"/>
          <path class="cls-9" d="M440.9352,614.7044c-.0132-3.0636-5.1651,1.9308-6.7652,2.367C433.0185,620.5093,439.8236,615.4059,440.9352,614.7044Z"/>
          <path class="cls-9" d="M348.2016,612.4643c-1.6529-1.41-2.7051-8.4844-4.265-6.9745C343.903,607.3445,346.51,614.4572,348.2016,612.4643Z"/>
          <path class="cls-9" d="M353.404,612.0655c.2052-2.3228-.7558-4.6714-1.7826-6.7218C349.3894,602.9381,352.6656,616.6231,353.404,612.0655Z"/>
          <path class="cls-9" d="M356.7871,614.7013c-.1474-2.6213,4.1978-11.06,1.3108-10.8191C357.4121,606.2867,353.7854,614.7655,356.7871,614.7013Z"/>
        </g>
        <g>
          <path class="cls-10" d="M-76.8145,1062.6762c-14.0513-73.0035,527.3123-202.0636,971.98-215.84,595.6078-18.4532,1003.1067,125.5384,1157.1161,179.9584,111.6488,39.4516,167.3273,59.5437,160.1823,77.4925C2165.4594,1222.3663-49.0739,1206.8014-76.8145,1062.6762Z"/>
          <path class="cls-11" d="M-208.1575,1099.866c-14.0514-73.0034,527.3123-202.0635,971.98-215.84,595.6078-18.4533,1003.1066,125.5383,1157.116,179.9583,111.6488,39.4516,167.3273,59.5437,160.1823,77.4926C2034.1163,1259.5562-180.417,1243.9912-208.1575,1099.866Z"/>
          <g>
            <path class="cls-10" d="M507.0418,966.4068c-11.172.0867-10.0836,13.05,1.93,10.6084C516.1853,975.0959,516.115,967.1964,507.0418,966.4068Z"/>
            <path class="cls-10" d="M549.83,936.3592c.3505,2.7045-8.6326,3.7652-8.9669.7585-5.7244-.3443-10.3-11.0365-.303-8.0328C544.4994,931.08,549.2781,933.4545,549.83,936.3592Z"/>
            <path class="cls-10" d="M503.42,993.1343c-5.3111-1.2873-3.8574,5.4973.0675,4.8806C507.9577,998.158,506.414,993.83,503.42,993.1343Zm-1.5177,1.3915a.2043.2043,0,0,1,.0529.0192C501.9382,994.5382,501.9178,994.5339,501.9025,994.5258Z"/>
            <path class="cls-10" d="M565.8131,940.6039c3.4431,1.836,6.3891,4.8727,4.5841,7.3978C564.8313,954.2153,548.0358,935.5805,565.8131,940.6039Z"/>
            <path class="cls-10" d="M554.8291,950.7894c2.6949,1.188,9.1638,5.0809,4.7944,6.5857-3.327.4616-7.4906,1.1187-10.227-.4731C544.9792,954.8268,547.4174,948.9812,554.8291,950.7894Z"/>
            <path class="cls-10" d="M542.131,971.6439c2.7692-.2838,3.2725-2.105,1.1438-2.9346-1.1587-3.549-5.7493-7.3438-13.5484-7.6157C519.5467,962.4716,534.8179,972.1827,542.131,971.6439Z"/>
            <path class="cls-10" d="M577.1613,913.7078c5.3431,1.1861,10.1031,8.1552,1.3438,8.022-2.0862-.7132-5.4616-.9543-5.7257-2.4568C572.4756,917.2465,569.6954,912.3047,577.1613,913.7078Z"/>
            <path class="cls-10" d="M649.1909,904.2867c1.1072.9307.3281,2.1627-1.2107,2.8265-6.9045,3.7866-16.29-3.36-15.1846-6.8078C637.7967,895.4512,645.7138,902.0625,649.1909,904.2867Z"/>
            <path class="cls-10" d="M605.8445,951.4673c2.7207,3.8952-5.585,3.92-6.8236.5789C598.84,950.0264,604.3507,949.9019,605.8445,951.4673Z"/>
            <path class="cls-10" d="M643.5611,940.588c-13.9685-2.615-7.5551-12.3971,3.6709-6.8212C648.7723,935.7339,650.2376,941.0673,643.5611,940.588Z"/>
            <path class="cls-10" d="M621.142,923.7762c-7.75-.5935-3.4458-7.0263,3.256-6.6759C631.6393,918.1066,628.5541,924.13,621.142,923.7762Z"/>
            <path class="cls-10" d="M685.4186,932.2912c-2.4835.0618-5.7-.1675-5.9212-1.7583-.1667-1.4468-1.7453-3.2416.6915-4.4184C687.77,923.2645,694.6785,931.5288,685.4186,932.2912Z"/>
            <path class="cls-10" d="M595.2609,934.738c3.1163,2.787-2.6318,5.55-7.1228,2.9484C584.8511,935.361,591.965,931.8867,595.2609,934.738Z"/>
            <path class="cls-10" d="M606.1276,982.5033c7.4375.121,10.7279,6.0643,3.1242,7.41C600.5127,990.3576,594.2563,982.3558,606.1276,982.5033Z"/>
            <path class="cls-10" d="M683.3865,910.879c-4.513-.1276-8.4682-3.6065-8.39-5.6466,1.11-2.2059-.5722-6.128,5.5624-6.4746C689.9288,898.3406,693.5517,910.5717,683.3865,910.879Z"/>
            <path class="cls-10" d="M669.7713,920.3984c-5.2014,1.1934-15.12-4.4975-8.1354-6.0339C667.5735,913.6121,675.0518,918.0509,669.7713,920.3984Z"/>
            <path class="cls-10" d="M660.744,955.8445c.5774,2.3411-5.2373,3.7644-8.6187,2.3676-3.9352-1.3041-6.0669-6.2141.2342-6.6109C656.7664,951.6551,660.609,953.6427,660.744,955.8445Z"/>
            <path class="cls-10" d="M592.6264,993.3629c6.2985-.9563,15.3822,7.2559,7.0335,7.8981C593.4514,1001.4076,583.4338,994.8282,592.6264,993.3629Z"/>
            <path class="cls-10" d="M715.32,913.6112c-7.2249,4.484-15.88-2.7754-8.0724-5.45C712.1459,907.6245,718.2355,911.28,715.32,913.6112Z"/>
            <path class="cls-10" d="M679.2706,977.6757c7.7713,6.2591-5.0087,6.1222-10.443,1.92C661.7916,974.386,675.2547,973.0485,679.2706,977.6757Z"/>
            <path class="cls-10" d="M617.6572,966.4463c-4.3677,2.0578-4.0511,6.0019.934,8.12C633.1233,980.5718,627.0752,963.4726,617.6572,966.4463Z"/>
            <path class="cls-10" d="M555.2993,995.7422c6.5148-2.0956,14.9046,2.7062,11.3425,5.7407C561.4242,1003.0206,546.8656,998.8177,555.2993,995.7422Z"/>
            <path class="cls-10" d="M574.7375,977.9987c7.8851,1.7135,6.3264,9.2308-3.72,7.3165C558.66,982.9937,561.1016,975.5444,574.7375,977.9987Z"/>
            <path class="cls-10" d="M737.6584,899.0467c-4.5858-.8214-4.5813-3.76-5.1581-5.7963.5853-2.4974,7.5967-.4992,9.445.593C744.69,895.5385,742.8608,899.5551,737.6584,899.0467Z"/>
            <path class="cls-10" d="M585.435,969.1432c-5.6826,3.638-12.2436-3.694-8.8082-6.1615C583.1971,959.4832,589.6359,966.5767,585.435,969.1432Z"/>
            <path class="cls-10" d="M693.5031,991.0816c.0871,1.1019-2.108,1.9131-4.1812,1.61-5.7453,1.007-9.486-3.6358-8.6676-5.8521C684.5945,981.7127,695.0582,987.6024,693.5031,991.0816Z"/>
            <path class="cls-10" d="M648.0605,1001.9355c3.6667-.4632,5.48,2.5366,2.3366,3.3513C646.88,1005.74,644.065,1002.572,648.0605,1001.9355Z"/>
          </g>
        </g>
        <g>
          <g>
            <path class="cls-12" d="M1302.9181,982.8623c-2.8327-4.53-8.9905.4314-11.7848,2.8257,1.078-4.5661,2.4937-13.0908-.8457-16.0119.4309,5.119,1.5213,10.2993-.04,15.446-1.0575-2.9874-3.029-6.4633-6.5654-6.6462-4.549-.3746-3.9212,5.3011-.9871,7.0858,6.8051,4.0548,9.0017-1.1151,4.4912,9.9079,2.33-.5847,2.2632-5.3259,3.2861-7.4644C1294.05,989.5428,1303.2009,987.6566,1302.9181,982.8623Z"/>
            <path class="cls-13" d="M1308.7357,953.8063c-3.1012-3.4144-8.4213-.2721-11.3835,1.9356,1.9695-10.31-10.61-8.9918-10.5091.0454-2.6134-5.91-13.0025-4.6507-10.4714,2.6711,3.544,5.7391,13.0662,16.2978,20.1663,10.6669C1300.5134,965.6842,1311.1624,959.8766,1308.7357,953.8063Z"/>
          </g>
          <g>
            <path class="cls-12" d="M1467.1011,1002.7136c-2.2453-3.5906-7.1259.3419-9.3406,2.24.8544-3.6191,1.9765-10.3757-.67-12.691.3415,4.0573,1.2058,8.1632-.0319,12.2424-.8382-2.3678-2.4008-5.1228-5.2036-5.2677-3.6056-.2969-3.108,4.2016-.7825,5.6162,5.3937,3.2138,7.1348-.8839,3.56,7.8529,1.8466-.4634,1.7938-4.2213,2.6045-5.9163C1460.0718,1008.0085,1467.3252,1006.5135,1467.1011,1002.7136Z"/>
            <path class="cls-13" d="M1471.712,979.684c-2.458-2.7062-6.6747-.2157-9.0225,1.5342,1.5611-8.1719-8.41-7.1268-8.3294.036-2.0714-4.6839-10.3057-3.6862-8.3,2.1171,2.8089,4.5487,10.3561,12.9174,15.9836,8.4544C1465.1951,989.0984,1473.6354,984.4953,1471.712,979.684Z"/>
          </g>
          <g>
            <path class="cls-12" d="M1382.1373,959.1956c-2.2452-3.5907-7.1258.3419-9.3406,2.24.8544-3.6191,1.9765-10.3757-.67-12.6909.3415,4.0573,1.2057,8.1632-.0319,12.2424-.8382-2.3678-2.4008-5.1228-5.2037-5.2678-3.6056-.2969-3.1079,4.2017-.7824,5.6162,5.3937,3.2138,7.1347-.8838,3.56,7.8529,1.8466-.4633,1.7938-4.2212,2.6045-5.9162C1375.1081,964.4905,1382.3614,962.9955,1382.1373,959.1956Z"/>
            <path class="cls-14" d="M1386.7483,936.166c-2.458-2.7062-6.6747-.2157-9.0225,1.5342,1.561-8.1719-8.41-7.1268-8.3294.036-2.0714-4.6839-10.3057-3.6862-8.3,2.1171,2.8089,4.5487,10.3562,12.9174,15.9837,8.4544C1380.2313,945.58,1388.6717,940.9773,1386.7483,936.166Z"/>
          </g>
          <g>
            <path class="cls-12" d="M1019.3982,998.8928c-2.8328-4.53-8.9906.4314-11.7849,2.8257,1.078-4.5661,2.4938-13.0908-.8456-16.0119.4309,5.119,1.5213,10.2993-.04,15.446-1.0575-2.9874-3.0291-6.4633-6.5654-6.6462-4.5491-.3746-3.9212,5.3011-.9872,7.0858,6.8052,4.0548,9.0018-1.1151,4.4913,9.9079,2.33-.5847,2.2632-5.3259,3.286-7.4644C1010.53,1005.5733,1019.681,1003.687,1019.3982,998.8928Z"/>
            <path class="cls-13" d="M1025.2158,969.8368c-3.1013-3.4144-8.4214-.2722-11.3836,1.9356,1.97-10.31-10.61-8.9918-10.509.0454-2.6134-5.91-13.0025-4.6507-10.4714,2.6711,3.5439,5.7391,13.0662,16.2977,20.1663,10.6669C1016.9935,981.7147,1027.6425,975.9071,1025.2158,969.8368Z"/>
          </g>
          <g>
            <path class="cls-12" d="M1182.8086,1015.8875c-2.8328-4.53-8.9906.4314-11.7849,2.8257,1.078-4.5661,2.4938-13.0908-.8456-16.0119.4309,5.119,1.5213,10.2993-.04,15.4459-1.0576-2.9873-3.0291-6.4632-6.5654-6.6462-4.5491-.3745-3.9212,5.3012-.9872,7.0859,6.8052,4.0548,9.0018-1.1151,4.4913,9.9079,2.33-.5847,2.2632-5.326,3.286-7.4644C1173.94,1022.568,1183.0914,1020.6817,1182.8086,1015.8875Z"/>
            <path class="cls-15" d="M1188.6262,986.8315c-3.1013-3.4144-8.4214-.2722-11.3836,1.9356,1.97-10.31-10.61-8.9918-10.509.0454-2.6134-5.91-13.0025-4.6508-10.4714,2.6711,3.5439,5.7391,13.0662,16.2977,20.1663,10.6669C1180.4039,998.7094,1191.0529,992.9018,1188.6262,986.8315Z"/>
          </g>
          <g>
            <path class="cls-12" d="M1075.6114,960.9816c-2.8328-4.53-8.9906.4314-11.7849,2.8257,1.078-4.5661,2.4938-13.0908-.8456-16.0119.4309,5.119,1.5213,10.2993-.04,15.4459-1.0575-2.9873-3.029-6.4632-6.5653-6.6462-4.5491-.3745-3.9212,5.3012-.9872,7.0859,6.8052,4.0548,9.0018-1.1151,4.4912,9.9079,2.33-.5847,2.2632-5.326,3.2861-7.4644C1066.7427,967.6621,1075.8942,965.7758,1075.6114,960.9816Z"/>
            <path class="cls-14" d="M1081.429,931.9256c-3.1013-3.4144-8.4214-.2722-11.3836,1.9356,1.97-10.31-10.61-8.9918-10.509.0454-2.6135-5.91-13.0025-4.6507-10.4714,2.6711,3.5439,5.7391,13.0662,16.2977,20.1663,10.6669C1073.2067,943.8035,1083.8557,937.9959,1081.429,931.9256Z"/>
          </g>
          <g>
            <path class="cls-12" d="M1440.997,945.9478c-2.8327-4.53-8.9905.4314-11.7848,2.8257,1.0779-4.5661,2.4937-13.0908-.8457-16.0118.4309,5.1189,1.5213,10.2992-.04,15.4459-1.0575-2.9874-3.0291-6.4633-6.5654-6.6462-4.5491-.3746-3.9212,5.3011-.9871,7.0858,6.8051,4.0548,9.0017-1.115,4.4912,9.9079,2.33-.5846,2.2632-5.3259,3.2861-7.4644C1432.1284,952.6283,1441.28,950.7421,1440.997,945.9478Z"/>
            <path class="cls-15" d="M1446.8146,916.8918c-3.1012-3.4144-8.4213-.2721-11.3836,1.9356,1.97-10.31-10.61-8.9917-10.509.0455-2.6134-5.91-13.0025-4.6508-10.4714,2.6711,3.5439,5.739,13.0662,16.2977,20.1663,10.6668C1438.5923,928.77,1449.2413,922.9621,1446.8146,916.8918Z"/>
          </g>
          <g>
            <path class="cls-12" d="M1313.21,898.232c-2.8328-4.53-8.9906.4314-11.7849,2.8257,1.078-4.5661,2.4938-13.0908-.8456-16.0119.4309,5.119,1.5213,10.2993-.04,15.4459-1.0576-2.9873-3.0291-6.4632-6.5654-6.6461-4.5491-.3746-3.9212,5.3011-.9872,7.0858,6.8052,4.0548,9.0018-1.1151,4.4913,9.9079,2.33-.5847,2.2632-5.3259,3.286-7.4644C1304.3414,904.9125,1313.4929,903.0262,1313.21,898.232Z"/>
            <path class="cls-16" d="M1319.0277,869.176c-3.1013-3.4144-8.4214-.2722-11.3836,1.9356,1.97-10.31-10.61-8.9918-10.509.0454-2.6135-5.91-13.0025-4.6507-10.4714,2.6711,3.5439,5.7391,13.0662,16.2977,20.1663,10.6669C1310.8054,881.0539,1321.4544,875.2463,1319.0277,869.176Z"/>
          </g>
          <g>
            <path class="cls-12" d="M937.693,1008.0438c-2.8328-4.53-8.99.4314-11.7848,2.8257,1.0779-4.5661,2.4937-13.0908-.8457-16.0119.4309,5.119,1.5213,10.2993-.04,15.4459-1.0575-2.9873-3.0291-6.4632-6.5654-6.6462-4.5491-.3745-3.9212,5.3012-.9872,7.0859,6.8052,4.0548,9.0018-1.1151,4.4913,9.9079,2.33-.5847,2.2632-5.326,3.2861-7.4644C928.8244,1014.7243,937.9758,1012.838,937.693,1008.0438Z"/>
            <path class="cls-16" d="M943.5106,978.9878c-3.1013-3.4144-8.4214-.2722-11.3836,1.9356,1.97-10.31-10.61-8.9918-10.509.0454-2.6134-5.91-13.0025-4.6508-10.4714,2.6711,3.5439,5.7391,13.0662,16.2977,20.1663,10.6669C935.2883,990.8657,945.9373,985.0581,943.5106,978.9878Z"/>
          </g>
          <g>
            <path class="cls-12" d="M1388.7057,1020.79c-2.8328-4.53-8.9906.4314-11.7849,2.8257,1.078-4.5661,2.4938-13.0908-.8456-16.0119.4309,5.119,1.5213,10.2993-.04,15.4459-1.0576-2.9873-3.0291-6.4632-6.5654-6.6461-4.5491-.3746-3.9212,5.3011-.9872,7.0858,6.8052,4.0548,9.0018-1.1151,4.4913,9.9079,2.33-.5847,2.2632-5.3259,3.286-7.4644C1379.837,1027.47,1388.9885,1025.584,1388.7057,1020.79Z"/>
            <path class="cls-16" d="M1394.5233,991.7338c-3.1013-3.4144-8.4214-.2722-11.3836,1.9356,1.97-10.31-10.61-8.9918-10.509.0454-2.6134-5.91-13.0025-4.6507-10.4714,2.6711,3.5439,5.7391,13.0662,16.2977,20.1663,10.6669C1386.301,1003.6117,1396.95,997.8041,1394.5233,991.7338Z"/>
          </g>
          <g>
            <path class="cls-12" d="M1543.6187,977.6494c-2.8327-4.53-8.99.4314-11.7848,2.8258,1.078-4.5662,2.4937-13.0909-.8457-16.0119.4309,5.119,1.5214,10.2992-.04,15.4459-1.0575-2.9874-3.029-6.4633-6.5653-6.6462-4.5491-.3746-3.9213,5.3012-.9872,7.0859,6.8051,4.0548,9.0017-1.1151,4.4912,9.9078,2.33-.5846,2.2632-5.3259,3.2861-7.4644C1534.75,984.33,1543.9015,982.4437,1543.6187,977.6494Z"/>
            <path class="cls-14" d="M1549.4363,948.5934c-3.1012-3.4144-8.4213-.2721-11.3835,1.9356,1.97-10.31-10.61-8.9917-10.5091.0455-2.6134-5.91-13.0025-4.6508-10.4714,2.6711,3.544,5.7391,13.0662,16.2977,20.1663,10.6668C1541.214,960.4714,1551.8631,954.6637,1549.4363,948.5934Z"/>
          </g>
          <g>
            <path class="cls-12" d="M1497.21,908.0366c-2.8328-4.53-8.9906.4314-11.7849,2.8257,1.078-4.5661,2.4938-13.0908-.8456-16.0119.4309,5.119,1.5213,10.2993-.04,15.446-1.0576-2.9874-3.0291-6.4633-6.5654-6.6462-4.5491-.3746-3.9212,5.3011-.9872,7.0858,6.8052,4.0548,9.0018-1.115,4.4913,9.9079,2.33-.5846,2.2632-5.3259,3.286-7.4644C1488.3415,914.7171,1497.493,912.8309,1497.21,908.0366Z"/>
            <path class="cls-16" d="M1503.0278,878.9806c-3.1013-3.4144-8.4214-.2721-11.3836,1.9356,1.97-10.31-10.61-8.9917-10.509.0455-2.6134-5.91-13.0025-4.6508-10.4714,2.671,3.5439,5.7391,13.0662,16.2978,20.1663,10.6669C1494.8055,890.8585,1505.4545,885.0509,1503.0278,878.9806Z"/>
          </g>
          <g>
            <path class="cls-12" d="M1138.8725,943.9721c-2.1409-3.4238-6.7947.326-8.9065,2.1356.8147-3.4509,1.8847-9.8935-.6391-12.1012.3257,3.8688,1.15,7.7838-.03,11.6734-.7992-2.2577-2.2892-4.8846-4.9618-5.0229-3.438-.2831-2.9635,4.0064-.7461,5.3552,5.1431,3.0645,6.8032-.8427,3.3943,7.488,1.7608-.4419,1.71-4.0251,2.4835-5.6413C1132.17,949.021,1139.0863,947.5954,1138.8725,943.9721Z"/>
            <path class="cls-15" d="M1143.2692,922.0128c-2.3438-2.58-6.3645-.2057-8.6032,1.4628,1.4885-7.792-8.0189-6.7956-7.9423.0344-1.9751-4.4663-9.8268-3.5149-7.9139,2.0187,2.6784,4.3373,9.8749,12.3171,15.2409,8.0615C1137.0551,930.99,1145.1032,926.6005,1143.2692,922.0128Z"/>
          </g>
          <g>
            <path class="cls-12" d="M1262.3713,956.816c-2.1409-3.4238-6.7947.326-8.9065,2.1355.8147-3.4509,1.8847-9.8935-.6391-12.1011.3257,3.8687,1.15,7.7838-.03,11.6734-.7992-2.2577-2.2892-4.8847-4.9618-5.0229-3.438-.2831-2.9635,4.0064-.7461,5.3552,5.1431,3.0644,6.8032-.8427,3.3943,7.4879,1.7608-.4418,1.71-4.0251,2.4835-5.6412C1255.6688,961.8648,1262.585,960.4393,1262.3713,956.816Z"/>
            <path class="cls-16" d="M1266.768,934.8567c-2.3438-2.5805-6.3645-.2057-8.6032,1.4628,1.4885-7.7921-8.0189-6.7956-7.9423.0343-1.9751-4.4662-9.8268-3.5148-7.9139,2.0188,2.6784,4.3373,9.8749,12.3171,15.2409,8.0615C1260.5539,943.8335,1268.602,939.4443,1266.768,934.8567Z"/>
          </g>
          <g>
            <path class="cls-12" d="M1181.3561,915.32c-2.1409-3.4238-6.7947.326-8.9065,2.1355.8147-3.4509,1.8847-9.8935-.6391-12.1011.3257,3.8687,1.15,7.7838-.03,11.6734-.7992-2.2577-2.2892-4.8846-4.9618-5.0229-3.438-.2831-2.9635,4.0064-.7461,5.3552,5.143,3.0644,6.8032-.8427,3.3943,7.4879,1.7608-.4418,1.71-4.0251,2.4835-5.6412C1174.6536,920.3692,1181.57,918.9437,1181.3561,915.32Z"/>
            <path class="cls-13" d="M1185.7528,893.3611c-2.3438-2.58-6.3645-.2057-8.6032,1.4628,1.4885-7.7921-8.0189-6.7956-7.9423.0344-1.9751-4.4663-9.8268-3.5149-7.9139,2.0187,2.6784,4.3373,9.8749,12.3171,15.2409,8.0615C1179.5387,902.3379,1187.5868,897.9488,1185.7528,893.3611Z"/>
          </g>
        </g>
        <g>
          <g>
            <path class="cls-12" d="M580.5722,1013.16c2.8328-4.53,8.9906.4314,11.7849,2.8257-1.078-4.5662-2.4938-13.0909.8456-16.0119-.4309,5.119-1.5213,10.2993.04,15.4459,1.0576-2.9874,3.0291-6.4632,6.5654-6.6462,4.5491-.3746,3.9212,5.3012.9872,7.0859-6.8052,4.0548-9.0018-1.1151-4.4913,9.9078-2.33-.5846-2.2632-5.3259-3.286-7.4644C589.4409,1019.84,580.2894,1017.9539,580.5722,1013.16Z"/>
            <path class="cls-13" d="M574.7546,984.1036c3.1013-3.4144,8.4214-.2721,11.3836,1.9357-1.97-10.31,10.61-8.9918,10.509.0454,2.6135-5.91,13.0025-4.6508,10.4714,2.6711-3.5439,5.7391-13.0662,16.2977-20.1663,10.6668C582.9769,995.9816,572.3279,990.174,574.7546,984.1036Z"/>
          </g>
          <g>
            <path class="cls-12" d="M416.3893,1033.011c2.2452-3.5907,7.1258.3419,9.3406,2.24-.8544-3.6191-1.9765-10.3757.67-12.6909-.3415,4.0573-1.2057,8.1631.0319,12.2423.8382-2.3677,2.4008-5.1227,5.2037-5.2677,3.6055-.2969,3.1079,4.2017.7824,5.6162-5.3937,3.2138-7.1347-.8838-3.56,7.8529-1.8466-.4634-1.7938-4.2213-2.6045-5.9162C423.4185,1038.3059,416.1651,1036.8108,416.3893,1033.011Z"/>
            <path class="cls-13" d="M411.7783,1009.9814c2.458-2.7063,6.6747-.2157,9.0225,1.5341-1.561-8.1718,8.41-7.1268,8.3294.036,2.0714-4.6839,10.3057-3.6861,8.3,2.1171-2.8089,4.5488-10.3562,12.9175-15.9837,8.4545C418.2953,1019.3957,409.8549,1014.7927,411.7783,1009.9814Z"/>
          </g>
          <g>
            <path class="cls-12" d="M501.353,989.4929c2.2453-3.5906,7.1259.342,9.3406,2.24-.8544-3.6191-1.9765-10.3757.67-12.6909-.3415,4.0572-1.2058,8.1631.0319,12.2423.8382-2.3678,2.4008-5.1227,5.2036-5.2677,3.6056-.2969,3.108,4.2016.7825,5.6162-5.3937,3.2138-7.1348-.8838-3.56,7.8529-1.8466-.4634-1.7938-4.2213-2.6045-5.9163C508.3823,994.7879,501.1289,993.2928,501.353,989.4929Z"/>
            <path class="cls-14" d="M496.7421,966.4634c2.458-2.7063,6.6747-.2157,9.0225,1.5341-1.5611-8.1718,8.41-7.1268,8.3294.036,2.0714-4.6839,10.3057-3.6861,8.2995,2.1171-2.8089,4.5488-10.3561,12.9175-15.9836,8.4545C503.259,975.8777,494.8187,971.2746,496.7421,966.4634Z"/>
          </g>
          <g>
            <path class="cls-12" d="M864.0921,1029.19c2.8328-4.53,8.9906.4314,11.7849,2.8258-1.078-4.5662-2.4937-13.0909.8456-16.0119-.4309,5.119-1.5213,10.2992.04,15.4459,1.0575-2.9874,3.029-6.4633,6.5653-6.6462,4.5491-.3746,3.9213,5.3012.9872,7.0859-6.8051,4.0548-9.0017-1.1151-4.4912,9.9078-2.33-.5846-2.2632-5.3259-3.2861-7.4644C872.9608,1035.8706,863.8093,1033.9844,864.0921,1029.19Z"/>
            <path class="cls-13" d="M858.2745,1000.1341c3.1013-3.4144,8.4214-.2721,11.3836,1.9356-1.97-10.31,10.61-8.9917,10.509.0455,2.6135-5.91,13.0026-4.6508,10.4715,2.6711-3.544,5.7391-13.0663,16.2977-20.1663,10.6668C866.4969,1012.0121,855.8478,1006.2044,858.2745,1000.1341Z"/>
          </g>
          <g>
            <path class="cls-12" d="M700.6818,1046.1848c2.8327-4.53,8.99.4314,11.7848,2.8257-1.078-4.5661-2.4937-13.0908.8457-16.0119-.431,5.119-1.5214,10.2993.04,15.446,1.0575-2.9874,3.029-6.4633,6.5653-6.6462,4.5491-.3746,3.9213,5.3011.9872,7.0858-6.8051,4.0548-9.0017-1.115-4.4912,9.9079-2.33-.5846-2.2632-5.3259-3.2861-7.4644C709.55,1052.8653,700.399,1050.9791,700.6818,1046.1848Z"/>
            <path class="cls-15" d="M694.8642,1017.1288c3.1012-3.4144,8.4213-.2721,11.3835,1.9356-1.97-10.31,10.61-8.9917,10.509.0455,2.6135-5.91,13.0026-4.6508,10.4715,2.6711-3.544,5.739-13.0662,16.2977-20.1663,10.6668C703.0865,1029.0067,692.4374,1023.1991,694.8642,1017.1288Z"/>
          </g>
          <g>
            <path class="cls-12" d="M807.879,991.2789c2.8327-4.53,8.99.4314,11.7848,2.8257-1.078-4.5661-2.4937-13.0908.8457-16.0118-.4309,5.1189-1.5213,10.2992.04,15.4459,1.0575-2.9874,3.029-6.4633,6.5654-6.6462,4.549-.3746,3.9212,5.3011.9871,7.0859-6.8051,4.0548-9.0017-1.1151-4.4912,9.9078-2.33-.5846-2.2632-5.3259-3.2861-7.4644C816.7476,997.9594,807.5962,996.0732,807.879,991.2789Z"/>
            <path class="cls-14" d="M802.0614,962.2229c3.1012-3.4144,8.4213-.2721,11.3835,1.9356-1.9695-10.31,10.61-8.9917,10.5091.0455,2.6134-5.91,13.0025-4.6508,10.4714,2.6711-3.544,5.739-13.0662,16.2977-20.1663,10.6668C810.2837,974.1008,799.6347,968.2932,802.0614,962.2229Z"/>
          </g>
          <g>
            <path class="cls-12" d="M442.4933,976.2452c2.8328-4.53,8.9906.4314,11.7849,2.8257-1.078-4.5662-2.4938-13.0908.8456-16.0119-.4309,5.119-1.5213,10.2993.04,15.4459,1.0575-2.9873,3.029-6.4632,6.5653-6.6462,4.5491-.3745,3.9212,5.3012.9872,7.0859-6.8051,4.0548-9.0018-1.1151-4.4912,9.9079-2.33-.5847-2.2632-5.326-3.2861-7.4644C451.362,982.9257,442.2105,981.0394,442.4933,976.2452Z"/>
            <path class="cls-15" d="M436.6757,947.1892c3.1013-3.4144,8.4214-.2722,11.3836,1.9356-1.97-10.31,10.61-8.9918,10.509.0454,2.6135-5.91,13.0026-4.6508,10.4714,2.6711-3.5439,5.7391-13.0662,16.2977-20.1662,10.6669C444.8981,959.0671,434.249,953.26,436.6757,947.1892Z"/>
          </g>
          <g>
            <path class="cls-12" d="M570.28,928.5293c2.8327-4.53,8.99.4314,11.7848,2.8257-1.078-4.5661-2.4937-13.0908.8457-16.0118-.4309,5.119-1.5214,10.2992.04,15.4459,1.0575-2.9874,3.029-6.4633,6.5654-6.6462,4.549-.3746,3.9212,5.3012.9871,7.0859-6.8051,4.0548-9.0017-1.1151-4.4912,9.9078-2.33-.5846-2.2632-5.3259-3.2861-7.4644C579.1489,935.21,569.9975,933.3236,570.28,928.5293Z"/>
            <path class="cls-16" d="M564.4627,899.4733c3.1012-3.4144,8.4213-.2721,11.3835,1.9356-1.9695-10.31,10.61-8.9917,10.5091.0455,2.6134-5.91,13.0025-4.6508,10.4714,2.6711-3.544,5.7391-13.0662,16.2977-20.1663,10.6668C572.685,911.3513,562.0359,905.5436,564.4627,899.4733Z"/>
          </g>
          <g>
            <path class="cls-12" d="M945.7973,1038.3411c2.8328-4.53,8.9906.4314,11.7849,2.8257-1.078-4.5661-2.4937-13.0908.8456-16.0119-.4309,5.119-1.5213,10.2993.04,15.446,1.0575-2.9874,3.029-6.4633,6.5653-6.6462,4.5491-.3746,3.9213,5.3011.9872,7.0858-6.8051,4.0548-9.0017-1.115-4.4912,9.9079-2.33-.5846-2.2632-5.3259-3.2861-7.4644C954.666,1045.0216,945.5145,1043.1354,945.7973,1038.3411Z"/>
            <path class="cls-16" d="M939.98,1009.2851c3.1013-3.4144,8.4214-.2721,11.3836,1.9356-1.9695-10.31,10.61-8.9917,10.509.0455,2.6135-5.91,13.0026-4.6508,10.4715,2.6711-3.544,5.739-13.0663,16.2977-20.1663,10.6668C948.2021,1021.163,937.553,1015.3554,939.98,1009.2851Z"/>
          </g>
          <g>
            <path class="cls-12" d="M494.7847,1051.0871c2.8327-4.53,8.99.4314,11.7848,2.8257-1.078-4.5661-2.4937-13.0908.8457-16.0118-.4309,5.1189-1.5214,10.2992.04,15.4459,1.0575-2.9874,3.029-6.4633,6.5653-6.6462,4.5491-.3746,3.9213,5.3012.9872,7.0859-6.8051,4.0548-9.0017-1.1151-4.4912,9.9078-2.33-.5846-2.2632-5.3259-3.2861-7.4644C503.6533,1057.7676,494.5019,1055.8814,494.7847,1051.0871Z"/>
            <path class="cls-16" d="M488.9671,1022.0311c3.1012-3.4144,8.4213-.2721,11.3835,1.9356-1.9695-10.31,10.61-8.9917,10.5091.0455,2.6134-5.91,13.0025-4.6508,10.4714,2.6711-3.544,5.7391-13.0662,16.2977-20.1663,10.6668C497.1894,1033.9091,486.54,1028.1014,488.9671,1022.0311Z"/>
          </g>
          <g>
            <path class="cls-12" d="M339.8716,1007.9468c2.8328-4.53,8.9906.4314,11.7849,2.8257-1.078-4.5661-2.4938-13.0908.8456-16.0119-.4309,5.119-1.5213,10.2993.04,15.4459,1.0575-2.9873,3.0291-6.4632,6.5654-6.6461,4.5491-.3746,3.9212,5.3011.9872,7.0858-6.8052,4.0548-9.0018-1.1151-4.4913,9.9079-2.33-.5847-2.2632-5.3259-3.286-7.4644C348.74,1014.6273,339.5888,1012.741,339.8716,1007.9468Z"/>
            <path class="cls-14" d="M334.054,978.8908c3.1013-3.4144,8.4214-.2722,11.3836,1.9356-1.97-10.31,10.61-8.9918,10.509.0454,2.6134-5.91,13.0025-4.6507,10.4714,2.6711-3.5439,5.7391-13.0662,16.2977-20.1663,10.6669C342.2763,990.7687,331.6273,984.9611,334.054,978.8908Z"/>
          </g>
          <g>
            <path class="cls-12" d="M386.28,938.334c2.8327-4.53,8.99.4314,11.7848,2.8257-1.078-4.5662-2.4937-13.0909.8457-16.0119-.431,5.119-1.5214,10.2993.04,15.4459,1.0575-2.9874,3.029-6.4632,6.5653-6.6462,4.5491-.3746,3.9213,5.3012.9872,7.0859-6.8051,4.0548-9.0017-1.1151-4.4912,9.9078-2.33-.5846-2.2632-5.3259-3.2861-7.4644C395.1488,945.0145,385.9974,943.1282,386.28,938.334Z"/>
            <path class="cls-16" d="M380.4626,909.278c3.1012-3.4145,8.4213-.2722,11.3835,1.9356-1.9695-10.31,10.61-8.9918,10.5091.0454,2.6134-5.91,13.0025-4.6508,10.4714,2.6711-3.544,5.7391-13.0662,16.2977-20.1663,10.6668C388.6849,921.1559,378.0358,915.3483,380.4626,909.278Z"/>
          </g>
          <g>
            <path class="cls-12" d="M744.6178,974.27c2.1409-3.4238,6.7947.326,8.9065,2.1355-.8147-3.4509-1.8846-9.8935.6391-12.1011-.3256,3.8687-1.15,7.7838.03,11.6734.7993-2.2578,2.2893-4.8847,4.9619-5.0229,3.438-.2831,2.9635,4.0064.746,5.3552-5.143,3.0644-6.8031-.8428-3.3943,7.4879-1.7608-.4418-1.71-4.0251-2.4834-5.6413C751.32,979.3183,744.4041,977.8927,744.6178,974.27Z"/>
            <path class="cls-15" d="M740.2211,952.31c2.3438-2.58,6.3645-.2056,8.6032,1.4629-1.4885-7.7921,8.0189-6.7956,7.9423.0343,1.9752-4.4662,9.8268-3.5148,7.9139,2.0187-2.6784,4.3374-9.8749,12.3172-15.2408,8.0616C746.4352,961.287,738.3871,956.8978,740.2211,952.31Z"/>
          </g>
          <g>
            <path class="cls-12" d="M621.119,987.1133c2.1409-3.4237,6.7947.3261,8.9065,2.1356-.8147-3.4509-1.8846-9.8935.6391-12.1011-.3256,3.8687-1.15,7.7837.03,11.6734.7993-2.2578,2.2893-4.8847,4.9619-5.023,3.438-.2831,2.9635,4.0064.746,5.3552-5.143,3.0645-6.8031-.8427-3.3943,7.488-1.7608-.4419-1.71-4.0251-2.4834-5.6413C627.8216,992.1622,620.9053,990.7366,621.119,987.1133Z"/>
            <path class="cls-16" d="M616.7223,965.154c2.3438-2.5805,6.3645-.2057,8.6033,1.4629-1.4886-7.7921,8.0188-6.7956,7.9422.0343,1.9752-4.4662,9.8268-3.5149,7.9139,2.0187-2.6784,4.3374-9.8749,12.3171-15.2408,8.0616C622.9364,974.1308,614.8883,969.7417,616.7223,965.154Z"/>
          </g>
          <g>
            <path class="cls-12" d="M702.1342,945.6177c2.1409-3.4237,6.7947.3261,8.9065,2.1356-.8147-3.4509-1.8846-9.8935.6391-12.1011-.3256,3.8687-1.15,7.7837.03,11.6734.7993-2.2578,2.2893-4.8847,4.9619-5.023,3.438-.283,2.9635,4.0064.746,5.3552-5.143,3.0645-6.8031-.8427-3.3943,7.488-1.7608-.4419-1.71-4.0251-2.4834-5.6413C708.8368,950.6666,701.9205,949.241,702.1342,945.6177Z"/>
            <path class="cls-13" d="M697.7375,923.6584c2.3438-2.5805,6.3646-.2057,8.6033,1.4629-1.4885-7.7921,8.0188-6.7956,7.9422.0343,1.9752-4.4662,9.8268-3.5149,7.9139,2.0187-2.6783,4.3374-9.8749,12.3171-15.2408,8.0616C703.9516,932.6353,695.9035,928.2461,697.7375,923.6584Z"/>
          </g>
        </g>
        <g>
          <path class="cls-7" d="M1833.9476,1100.6072c2.9234-102.6291,32.4467-109.33-56.0681-186.9916,13.5273,5.298,32.4313,27.6355,46.087,40.0479,13.9089,12.8067,20.1988,37.3248,15.45,4.6132-12.7454-85.7324-10.5031-126.8459-98.8053-156.6379,27.5771,6.56,56.919,18.039,75.44,40.3958,6.5883,10.56,2.1725-.6281,1.63-6.9488-9.1587-63.6567-44.1788-110.3524-108.3575-125.022,22.8335.4754,54.791,15.8975,73.7366,33.0549-27.76-72.0978-72.55-95.5954-146.1279-104.7247,27.4942-1.7322,65.0475,6.42,91.8413,22.3328-20.5216-28.9345-63.5825-47.5266-79.5255-73.9636,26.4819,25.0326,59.15,42.8826,82.5183,71.3592-13.512-42.5613,4.9973-43.9574,5.4628-74.152,3.525-1.3542,3.4386,7.172,2.54,9.7355-26.3964,54.4167,20.3693,92.25,42.4648,137.3186,3.3731-25.8208,12.7842-51.5506,24.7083-73.5094-28.9819,96.7962-22.1255,64.8065,10.702,157.0624,7.8168,17.2565,5.0994,69.8473,16.7625,29.78,27.8208-42.1489,13.3751-77.0957,35.68-120.29-2.4421,21.61-18.2117,50.2444-12.4909,75.3914,12.9113-22.8076,27.4465-44.44,42.351-66.06-28.6022,76.1207-64.6144,57.5368,20.0977,55.39-57.4569-2.4891-75.3877,32.7221-89.6733,82.2868,1.9082,35.5794,16.3515,76.1319,16.2153,114.1552,9.8082-36.1514,40.2382-68.3482,72.55-78.8936C1830.6559,956.6736,1852.2182,1023.55,1833.9476,1100.6072Z"/>
          <path class="cls-8" d="M1735.6056,920.19c22.6071-45.0132,33.2639-44.0494,47.8092,1.0706C1772.5286,922.95,1736.0585,937.4071,1735.6056,920.19Z"/>
          <path class="cls-8" d="M1698.2872,799.2177c2.7823-39.0751,31.87-5.5318,48.2655,4.074,8.8242,2.553-9.62,9.5748-10.9927,14.3693C1711.3422,849.2688,1701.4546,828.7977,1698.2872,799.2177Z"/>
          <path class="cls-8" d="M1656.6758,731.4286c-15.7207-15.4012,2.743-52.0944,20.4843-61.3225,10.5421.5578,23.7815,33.4687,38.461,39.8338,2.5148-.7327,3.5106,3.1345,1.0334,3.9262C1694.5307,710.07,1676.9982,725.4048,1656.6758,731.4286Z"/>
          <path class="cls-8" d="M1616.739,619.143c49.84,37.14,30.8325,3.9656-13.4367,55.194C1582.2479,666.311,1590.8045,593.4054,1616.739,619.143Z"/>
          <path class="cls-8" d="M1644.3844,566.0373c-1.4529,12.9027,16.3724,28.3519,9.4035,27.118-17.3843-8.3306-47.5617,1.8612-57.6423-16.8131,2.9789-21.1694,28.794-34.6491,46.6212-42.8936C1649.6994,540.25,1641.1178,556.2057,1644.3844,566.0373Z"/>
          <path class="cls-8" d="M1744.9655,589.6285c-3.2265,3.4866-5.5366,13.1164-9.4723,13.5989-7.5221,1.0157-7.0617-15.2788-9.5942-20.9159-8.13-20.5256-10.43-49.7849,20.546-38.5138C1806.8091,554.3866,1761.9717,560.8375,1744.9655,589.6285Z"/>
          <path class="cls-8" d="M1802.6012,672.9483c-9.0991,5.2406-5.4065-21.6672-8.087-27.8562-7.8-28.3786-8.9991-47.7093,27.3312-37.1052C1884.5507,636.8076,1818.94,637.7264,1802.6012,672.9483Z"/>
          <path class="cls-8" d="M1853.0928,713.2561c-4.27-15.77-3.3249-28.7431,16.1251-19.8745,46.7072,11.5606,22.6991,17.0407,2.4775,41.8786C1860.5923,759.3308,1855.0687,724.6071,1853.0928,713.2561Z"/>
          <path class="cls-8" d="M1891.7067,750.03c-15.5991,2.1527,22.2091-82.6385,34.0756-46.2735C1967.6555,744.2871,1919.7644,723.923,1891.7067,750.03Z"/>
          <path class="cls-8" d="M1905.8336,791.15c7.0228-15.3371,84.28-35.6411,53.4562,6.1438C1941.9655,847.9775,1936.5136,803.3969,1905.8336,791.15Z"/>
          <path class="cls-8" d="M1900.8783,917.6984c-1.9232-16.6762,20.0588-28.9219,29.8044-41.0006,25.41-24.2242,23.0813,8.8465,24.1816,28.0264-1.1194,5.7,4.5036,16.8215-.1255,19.7985C1938.341,916.7542,1914.9272,924.5207,1900.8783,917.6984Z"/>
          <path class="cls-9" d="M1722.6014,800.818c-1.0364-.7224-5.54-2.7373-2.3936-3.4692C1724.5181,798.2426,1729.9725,806.3754,1722.6014,800.818Z"/>
          <path class="cls-9" d="M1716.5543,809.7029c1.8141-.5594,9.17-3.172,8.7954-.8132C1723.403,809.6456,1716.6573,812.54,1716.5543,809.7029Z"/>
          <path class="cls-9" d="M1715.1584,818.5779c1.3207-1.309,10.5481-5.9,9.5911-2.7136C1722.0441,816.3884,1717.0634,820.8668,1715.1584,818.5779Z"/>
          <path class="cls-9" d="M1766.8321,909.8391c-1.2959-.2106-1.4-1.9306-1.42-2.0657-1.0707-1.56-6.4576-4.2421-1.6914-4.2917C1765.9441,903.5393,1768.128,910.05,1766.8321,909.8391Z"/>
          <path class="cls-9" d="M1758.2877,911.5748c2.8486-3.2251,12.79,2.9672,4.58,1.4846C1761.7147,912.4328,1757.6953,913.72,1758.2877,911.5748Z"/>
          <path class="cls-9" d="M1752.7087,916.6575c2.0806-2.7471,13.4348.9831,8.85,2.4889C1759.8777,915.8847,1752.1165,919.8017,1752.7087,916.6575Z"/>
          <path class="cls-9" d="M1900.9479,725.1271c.1743-1.5382,4.0608-9.2305,4.8895-6.0375C1904.7114,720.6006,1903.0581,726.9981,1900.9479,725.1271Z"/>
          <path class="cls-9" d="M1905.315,729.9526c1.1706-1.029,2.4387-7.937,3.755-5.2426C1908.9152,726.14,1906.5012,732.6906,1905.315,729.9526Z"/>
          <path class="cls-9" d="M1908.8415,731.8336c1.7968-.5864,7.7574-7.168,7.5692-3.7375C1914.9784,729.3344,1909.5042,734.6965,1908.8415,731.8336Z"/>
          <path class="cls-9" d="M1872.0186,719.7877c1.7468-1.2541,5.3485-9.2761,6.4084-6.7832C1877.2045,714.9656,1874.2051,721.393,1872.0186,719.7877Z"/>
          <path class="cls-9" d="M1868.411,718.1121c-.7721-1.93,1.7039-11.5487,3.5481-8.4449C1870.3133,711.624,1870.7721,718.5677,1868.411,718.1121Z"/>
          <path class="cls-9" d="M1862.2015,718.39c-.1836-3.36-2.8408-8.4513-1.1083-11.1073C1864.4685,707.3281,1865.4961,724.8618,1862.2015,718.39Z"/>
          <path class="cls-9" d="M1814.726,645.8175c.8724-1.58,4.7995-10.8311,5.7608-6.5615C1819.1226,640.7032,1816.5124,649.2027,1814.726,645.8175Z"/>
          <path class="cls-9" d="M1807.7106,642.8146c-1.1691-4.864,6.0339-13.3579,2.2146-3.8149C1809.5627,640.0445,1809.4011,644.4105,1807.7106,642.8146Z"/>
          <path class="cls-9" d="M1799.7838,639.6961c-.1677-2.5823-1.0529-7.2292,1.036-8.86C1802.4048,631.4679,1802.314,645.2558,1799.7838,639.6961Z"/>
          <path class="cls-9" d="M1690.71,696.8711c-.7144-1.8824-7.0607-4.0986-4.1044-5.7512C1693.0973,692.5387,1701.1619,708.08,1690.71,696.8711Z"/>
          <path class="cls-9" d="M1681.4985,701.8819c-2.8357-5.2761,12.8265,2.1939,7.73,3.2148a21.7517,21.7517,0,0,0-7.0133-3.0063A4.7986,4.7986,0,0,0,1681.4985,701.8819Z"/>
          <path class="cls-9" d="M1674.945,707.7943c2.0677-2.1582,13.6192.0747,9.3882,2.3368C1682.3424,706.9788,1673.6552,711.656,1674.945,707.7943Z"/>
          <path class="cls-9" d="M1612.9559,631.4841c1.9518.6778,11.0178,4.052,8.1349,5.5568C1619.392,635.4355,1610.5708,633.6161,1612.9559,631.4841Z"/>
          <path class="cls-9" d="M1612.0846,643.5272c.691-1.5981,9.4883-4.7706,7.45-1.6184C1617.3846,641.71,1612.9205,645.9009,1612.0846,643.5272Z"/>
          <path class="cls-9" d="M1611.0765,651.9457c2.2482-.8336,11.9882-6.0705,11.2719-2.5472C1619.227,649.2393,1612.2487,654.9431,1611.0765,651.9457Z"/>
          <path class="cls-9" d="M1634.98,568.5884c-.7943-1.88-1.0019-3.77-2.1388-5.3777-.0969-.2675-1.8683-1.4333-1.0843-2.3821C1636.9235,557.5809,1638.8753,576.8274,1634.98,568.5884Z"/>
          <path class="cls-9" d="M1625.0179,568.4544c-.5774-3.98,7.2357,1.1946,8.4706,2.767C1632.6689,574.0245,1627.0334,569.0862,1625.0179,568.4544Z"/>
          <path class="cls-9" d="M1620.5538,576.5113c.0175-4.053,6.8331,2.5543,8.95,3.1313C1631.0272,584.1907,1622.0244,577.4393,1620.5538,576.5113Z"/>
          <path class="cls-9" d="M1743.2349,573.5477c2.1867-1.8654,3.5787-11.2243,5.6424-9.2269C1748.9218,566.7745,1745.4735,576.1842,1743.2349,573.5477Z"/>
          <path class="cls-9" d="M1736.3524,573.02c-.2714-3.0729,1-6.18,2.3583-8.8925C1741.6635,560.9451,1737.3293,579.05,1736.3524,573.02Z"/>
          <path class="cls-9" d="M1731.8768,576.5071c.195-3.4678-5.5535-14.6324-1.7341-14.313C1731.05,565.3751,1735.8478,576.5921,1731.8768,576.5071Z"/>
        </g>
        <path class="cls-7" d="M-19.7375,1006.6321C4.39,1012.5256,19.6767,1036.365,30.52,1057.13c-1.8268-22.8866.56-44.7538,2.7792-67.0564C-58.2431,959.108-43.35,817.4931,36.2048,958.3326c21.2467-101.8.5055-59.02-36.0979-140.3771,4.0766-71.3661,54.9495,13.2968,56.6374,41.1,37.5437-94.3446-2.9463-57.1051-11.29-139.0284,4.2856-66.3068,52.6827,24.5178,41.5385,50.59,7.8561-17.1154,16.8716-33.6462,23.8275-51.1451.5029-26.1973,2.8514-111.8183,43.4535-97.2018,33.7467,48.4459-55.3871,106.3552-64.5376,156.3134,36.65-65.5743,109.0522-54.472,54.93-5.0637-76.3777,34.1471-56.1635-3.83-81.4653,90.3447,72.044-100.0167,127.6991,10.2307-5.1982,23.73-7.49,22.1075-12.1216,49.892-13.9362,74.7717,11.9147-55.2115,102.4592-78.6523,75.3964-18.2319-64.567,74.343-93.4759,3.1252-80.4111,133.9512,25.9695-151.867,160.7555-47.6258-2.7423,12.0682C13.2238,1085.5219-85.2691,1007.6909-19.7375,1006.6321Z"/>
        <path class="cls-7" d="M402.32,1077.6486c9.3137-.6792,17.5379,6.0842,23.8171,12.2609-3.2981-7.9777-4.9708-16.0775-6.7538-24.3138-36.3319-.5019-47.3663-52.8923-2.6282-11.6926-4.1608-38.879-6.6387-21.1757-29.136-46.0556-6.7876-26.0057,21.1972-1.5917,25.0138,8.1612,2.5317-38.0944-7.6526-20.0917-20.1038-48.44-6.1283-24.22,21.6827,2.685,20.7079,13.3012.8332-7.0316,2.1489-13.9881,2.6157-21.0529-2.8471-9.4314-11.9-40.3378,4.3161-39.8,17.6723,13.4345-7.5283,44.4536-5.03,63.3859,5.5362-27.6972,32.7245-32.0908,19.0687-8.1589-23.3821,21.0431-20.5377,5.1193-18.709,41.7383,14.2205-44.11,46.8727-11.0948.8821,9.0914-.1255,8.7755,1.4279,19.2519,3.6534,28.3635-2.1165-21.1313,27.5716-39.9806,24.87-15.2353-14.5118,34.06-33.0845,11.9192-13.2932,57.2188-8.2561-57.3384,52.0149-35.6154.4133,4.6349C423.2287,1102.0666,378.995,1085.6,402.32,1077.6486Z"/>
        <path class="cls-7" d="M1931.2062,1023.3862c-18.254,4.4587-29.8194,22.4948-38.0233,38.205,1.382-17.3152-.4237-33.8591-2.1027-50.7325,69.258-23.4276,57.99-130.5684-2.198-24.0142-16.0745-77.0186-.3825-44.6526,27.31-106.2043-3.0842-53.9931-41.5728,10.06-42.85,31.0948-28.4041-71.3777,2.2291-43.2036,8.5413-105.1839-3.2423-50.1654-39.8579,18.5493-31.4266,38.2743-5.9436-12.9489-12.7644-25.4555-18.0269-38.6946-.3806-19.82-2.1574-84.5977-32.8754-73.5394-25.5316,36.6525,41.9039,80.4646,48.8268,118.2612-27.7279-49.6112-82.505-41.2116-41.5581-3.831,57.7846,25.8344,42.4913-2.8977,61.6338,68.3515-54.506-75.669-96.6126,7.74,3.9327,17.9536,5.667,16.7257,9.1708,37.7465,10.5437,56.57-9.0143-41.771-77.517-59.5055-57.0423-13.7936,48.8492,56.2452,70.7206,2.3644,60.8362,101.3427-19.6476-114.8971-121.6219-36.032,2.0747,9.13C1906.2688,1083.0714,1980.7851,1024.1872,1931.2062,1023.3862Z"/>
        <path class="cls-7" d="M1699.7952,1068.9268c-12.6819-1.5959-24.408,7.0592-33.4335,15.0519,5.08-10.668,7.9468-21.6195,10.9742-32.7495,49.6965,1.918,68.5341-68.9016,4.43-15.7938,8.4738-52.844,10.592-28.4684,43.1259-60.8634,11.1416-35.06-28.86-3.6949-34.7753,9.3624-.73-52.2512,11.9-26.914,30.9509-64.7693,10.1123-32.6657-29.83,2.116-29.2582,16.6967-.635-9.671-1.9347-19.2738-2.0664-28.9638,4.5675-12.6874,19.1569-54.2833-3.047-54.71-25.1185,17.0965,7.104,61.3015,2.3319,87-5.5821-38.255-42.43-46.2091-25.4795-12.5187,30.4519,30.4387,27.7053,8.4692,22.5811,58.3913-16.276-61.3118-63.2733-18.5245-1.8573,12.3634-.4574,12.0039-3.3315,26.2124-7.0266,38.5071,4.4075-28.7318-34.821-56.624-32.9019-22.607,17.3944,47.5959,44.3675,18.6631,14.0688,79.163,15.3946-77.782-68.5445-52.4093-.897,6.3055C1669.4653,1100.8042,1731.107,1081.4663,1699.7952,1068.9268Z"/>
        <g id="_Grupo_" data-name="&lt;Grupo&gt;">
          <path class="cls-7" d="M190.9222,858.59c-8.9869-6.4458-18.54-11.7413-28.1718-9.6119-27.7338,5.05-52.8093-20.1712-52.6231-19.9949C138.9554,814.3093,180.68,821.5048,190.9222,858.59Z"/>
          <g>
            <path class="cls-17" d="M155.37,806.7123c-.59,28.46,35.3752,52.2867,35.3752,52.2867s36.9225-22.3152,37.5128-50.7747-35.375-52.2867-35.375-52.2867S155.9605,778.2525,155.37,806.7123Z"/>
            <path class="cls-18" d="M191.6149,859.2965c48.0431-34.612,27.037-84.017,2.14-103.6257l-.46.5605C219.9638,778.8388,237.22,822.2164,191.6149,859.2965Z"/>
            <path class="cls-18" d="M189.8637,859.2605c-44.1215-38.9706-24.8389-81.7378,2.5978-103.0475l-.44-.579C166.1972,774.357,143.3808,822.7026,189.8637,859.2605Z"/>
            <path class="cls-18" d="M194.7017,853.2773c27.2469-27.8148,14.2654-74.2446,1.9242-91.945l-.6024.4041C209.7908,781.4267,219.3457,823.8454,194.7017,853.2773Z"/>
            <path class="cls-18" d="M187.0291,853.1179c-23.4079-30.3635-12.0654-72.5241,2.4785-91.5177l-.59-.4263C175.84,778.4591,160.9689,824.1036,187.0291,853.1179Z"/>
            <path class="cls-18" d="M191.9613,853.3954c18.473-38.5082,2.8089-92.6341,1.2264-91.5513C194.2913,762.3356,208.3709,816.2089,191.9613,853.3954Z"/>
            <path class="cls-18" d="M189.763,853.35c-14.871-37.6543,1.4711-91.3361,2.5737-91.5235C190.809,760.5567,172.8948,814.1952,189.763,853.35Z"/>
            <path class="cls-18" d="M190.6122,847.8931c1.8446,1.5746,1.9-83.4295,2.457-83.3581C191.2235,762.96,191.1679,847.9642,190.6122,847.8931Z"/>
            <path class="cls-18" d="M189.0243,758.6433c8.1434,5.0059,38.04-8.77,33.0823-16.2625-5.3194-9.8822-24.3727,11.2593-24.3727,11.2593,24.4534-30.43,4.882-42.2507-4.1237-1.719,2.7568-31.0728-24.81-39.2281-4.2084.2746C175.2942,731.47,156.62,740.6274,189.0243,758.6433Z"/>
          </g>
          <path class="cls-7" d="M300.4811,873.0919c-19.9054-31.3661-73.21-64.8444-108.8645-13.2712C252.0635,840.6462,245.3355,884.9394,300.4811,873.0919Z"/>
          <path class="cls-19" d="M190.9917,859.2659c30.0172-30.4642,69.3255-15.121,85.4983.9022l.51-.5181C261.4428,843.2608,218.2142,827.8358,190.9917,859.2659Z"/>
          <path class="cls-7" d="M107.6013,927.598c.4148-37.1468,28.1154-93.6694,85.5775-68.5863C131.691,874.5253,160.7251,908.6447,107.6013,927.598Z"/>
          <path class="cls-19" d="M120.4912,903.8092c8.0041-21.8224,28.479-55.0608,72.9275-45.5971C153.7611,845.7891,125.0476,881.7382,120.4912,903.8092Z"/>
          <path class="cls-19" d="M279.9707,1124.8509c-18.98-102.0555-104.9527-267.6621-106.0763-266.8329C174.7372,859.6348,258.6578,1020.8975,279.9707,1124.8509Z"/>
          <path class="cls-7" d="M209.7574,931.6421c4.2481-10.2111,9.5833-19.7419,18.8939-23.0012,26.239-10.3045,34.2843-44.9479,34.2187-44.7C230.6351,866.6387,198.9459,894.7193,209.7574,931.6421Z"/>
          <g>
            <path class="cls-17" d="M212.6793,868.82c15.4823,23.8874-2.5559,63.0776-2.5559,63.0776s-43.14.4611-58.6219-23.4263,2.5562-63.0775,2.5562-63.0775S197.1974,844.9324,212.6793,868.82Z"/>
            <path class="cls-18" d="M195.7332,930.1372c2.4577.2454,12.8366,3.608,13.8923,1.75-58.5177-4.0944-66.4858-56.5364-55.7616-86.0284l-.69-.2322C144.64,866.8,146.35,920.9977,195.7332,930.1372Z"/>
            <path class="cls-18" d="M211.01,931.6561c20.3421-55.608-24.7687-84.7149-56.3806-86.9724l-.0661.7211C189.3225,849.15,227.95,875.3732,211.01,931.6561Z"/>
            <path class="cls-18" d="M203.7478,929.1148c-36.4155-11.9951-50.6849-53.2589-49.3062-77.14l-.7284-.0224C152.5905,873.5987,165.8952,919.7241,203.7478,929.1148Z"/>
            <path class="cls-18" d="M209.4662,924.854c9.6909-36.0679-29.9045-70.08-49.2824-77.096l-.2734.6727C179.8924,856.1446,216.2986,886.8669,209.4662,924.854Z"/>
            <path class="cls-18" d="M206.14,927.7721c-33.4446-22.8244-50.0372-76.4235-49.23-77.1968C154.9338,850.3816,170.206,904.8307,206.14,927.7721Z"/>
            <path class="cls-18" d="M207.2663,926.68c-2.9065-40.1316-50.139-79.2294-49.6414-76.5694C158.0591,850.4509,201.2192,884.4827,207.2663,926.68Z"/>
            <path class="cls-18" d="M203.781,922.78c2.4131.2684-45.2459-70.1213-44.7446-70.375C156.6223,852.1369,204.2813,922.5266,203.781,922.78Z"/>
            <path class="cls-18" d="M158.7629,845.6628c-4.0508,8.5019-37.1992,12.54-36.6888,3.586-.6788-11.2023,26.65-3.2553,26.65-3.2553-36.8093-13.0027-26.39-33.3542,2.6017-3.6322-18.6995-24.9685.4458-46.4138,3.7227-1.9816C156.1339,815.3315,176.8316,813.2881,158.7629,845.6628Z"/>
          </g>
          <path class="cls-19" d="M124.2372,1001.6407c.4148-37.1469,28.1161-93.6694,85.5778-68.5862C148.3267,948.5681,177.362,982.6874,124.2372,1001.6407Z"/>
          <path class="cls-7" d="M137.1276,977.8515c8.0041-21.8223,28.4789-55.0608,72.9275-45.597C170.3973,919.8316,141.684,955.78,137.1276,977.8515Z"/>
          <path class="cls-19" d="M316.9253,946.46c-19.9054-31.366-73.21-64.8445-108.8644-13.271C268.5077,914.0141,261.7791,958.3076,316.9253,946.46Z"/>
          <path class="cls-7" d="M207.4361,932.6335c30.0152-30.4626,69.3264-15.12,85.4981.9028l.51-.5181C277.8867,916.6294,234.66,901.2027,207.4361,932.6335Z"/>
          <path class="cls-7" d="M258.6866,1051.7426c-8.9869-6.4458-18.54-11.7413-28.1719-9.612-27.7337,5.05-52.8093-20.171-52.623-19.9948C206.72,1007.4624,248.4442,1014.6579,258.6866,1051.7426Z"/>
          <g>
            <path class="cls-17" d="M223.1347,999.8654c-.5905,28.46,35.375,52.2868,35.375,52.2868s36.9225-22.3153,37.513-50.7748-35.3752-52.2867-35.3752-52.2867S223.725,971.4056,223.1347,999.8654Z"/>
            <path class="cls-18" d="M259.3789,1052.45c48.0433-34.611,27.0381-84.0176,2.1406-103.6263l-.4595.5606C287.7272,971.99,304.9857,1015.3708,259.3789,1052.45Z"/>
            <path class="cls-18" d="M257.6287,1052.414c-44.1223-38.9688-24.8389-81.7409,2.5971-103.0475l-.4411-.5792C233.9607,967.5108,211.1459,1015.8557,257.6287,1052.414Z"/>
            <path class="cls-18" d="M262.4662,1046.43c27.247-27.8143,14.265-74.2453,1.9246-91.9451l-.6031.404C277.5557,974.58,287.11,1016.9979,262.4662,1046.43Z"/>
            <path class="cls-18" d="M254.7937,1046.2714c-23.4084-30.3652-12.0646-72.5233,2.4782-91.5178l-.59-.4263C243.6049,971.6133,228.7337,1017.2573,254.7937,1046.2714Z"/>
            <path class="cls-18" d="M257.5274,1046.5026c-14.87-37.6543,1.4713-91.3355,2.5736-91.5229C258.5733,953.71,240.66,1007.3479,257.5274,1046.5026Z"/>
            <path class="cls-18" d="M259.7253,1046.5487c18.4732-38.5078,2.809-92.6335,1.2271-91.5512C262.0553,955.4891,276.1355,1009.3623,259.7253,1046.5487Z"/>
            <path class="cls-18" d="M258.3767,1041.0458c1.8466,1.5764,1.8994-83.4289,2.4568-83.3574C258.9858,956.1117,258.933,1041.117,258.3767,1041.0458Z"/>
            <path class="cls-18" d="M256.7887,951.7964c8.1432,5.006,38.04-8.77,33.0825-16.2625-5.3194-9.8823-24.3726,11.2592-24.3726,11.2592,24.4532-30.43,4.8817-42.25-4.124-1.7188,2.7569-31.0723-24.8095-39.2287-4.2084.2745C243.0584,924.623,224.385,933.7807,256.7887,951.7964Z"/>
          </g>
          <path class="cls-19" d="M368.2457,1066.245c-19.9057-31.3664-73.21-64.8443-108.8647-13.2712C319.8278,1033.7993,313.1,1078.0926,368.2457,1066.245Z"/>
          <path class="cls-7" d="M258.7561,1052.4186c30.0212-30.4633,69.3227-15.1227,85.4982.9028l.51-.518C329.2065,1036.4136,285.9771,1020.9883,258.7561,1052.4186Z"/>
          <path class="cls-19" d="M175.3658,1120.7512c.4147-37.1468,28.1154-93.67,85.5774-68.5864C199.4556,1067.6785,228.49,1101.7978,175.3658,1120.7512Z"/>
          <path class="cls-7" d="M188.2558,1096.9626c8.0048-21.823,28.4788-55.061,72.9278-45.5977C221.5254,1038.9417,192.8134,1074.8919,188.2558,1096.9626Z"/>
        </g>
        <g id="_Grupo_2" data-name="&lt;Grupo&gt;">
          <path class="cls-7" d="M1576.6954,886.5351c8.019-5.7516,16.5429-10.4767,25.1377-8.5767,24.7468,4.5059,47.1217-17.9987,46.9555-17.8415C1623.0654,847.0239,1585.8347,853.4444,1576.6954,886.5351Z"/>
          <g>
            <path class="cls-17" d="M1608.4185,840.2451c.5268,25.3945-31.5652,46.6554-31.5652,46.6554s-32.946-19.9118-33.4727-45.3062,31.5651-46.6555,31.5651-46.6555S1607.8917,814.8505,1608.4185,840.2451Z"/>
            <path class="cls-18" d="M1576.0773,887.1659c-42.8689-30.8842-24.1251-74.9683-1.9094-92.4651l.41.5C1550.7816,815.3736,1535.3843,854.0794,1576.0773,887.1659Z"/>
            <path class="cls-18" d="M1577.64,887.1338c39.37-34.7734,22.1637-72.9346-2.318-91.9492l.3929-.5166C1598.7575,811.3745,1619.1166,854.5132,1577.64,887.1338Z"/>
            <path class="cls-18" d="M1573.3229,881.7951c-24.3123-24.8192-12.729-66.2485-1.717-82.0426l.5376.3606C1559.8589,817.6827,1551.3331,855.533,1573.3229,881.7951Z"/>
            <path class="cls-18" d="M1580.1692,881.6528c20.8869-27.0934,10.766-64.7133-2.2116-81.6612l.5266-.38C1590.153,815.0348,1603.4227,855.7633,1580.1692,881.6528Z"/>
            <path class="cls-18" d="M1575.7682,881.9c-16.4834-34.3608-2.5064-82.6573-1.0943-81.6912C1573.6891,800.6478,1561.1259,848.7189,1575.7682,881.9Z"/>
            <path class="cls-18" d="M1577.73,881.86c13.2693-33.5989-1.3127-81.4992-2.2965-81.6663C1576.7964,799.0605,1592.7813,846.9221,1577.73,881.86Z"/>
            <path class="cls-18" d="M1576.972,876.9907c-1.646,1.405-1.6956-74.4441-2.1924-74.38C1576.4265,801.2051,1576.4762,877.0542,1576.972,876.9907Z"/>
            <path class="cls-18" d="M1578.3889,797.3532c-7.2663,4.4667-33.9432-7.8258-29.5194-14.511,4.7465-8.818,21.7478,10.0466,21.7478,10.0466-21.82-27.1529-4.3562-37.7,3.68-1.5338-2.46-27.7263,22.1377-35.0033,3.7551.245C1590.64,773.1065,1607.303,781.2776,1578.3889,797.3532Z"/>
          </g>
          <path class="cls-7" d="M1478.9361,899.4756c17.7615-27.988,65.325-57.8606,97.14-11.8419C1522.139,870.5243,1528.1425,910.0471,1478.9361,899.4756Z"/>
          <path class="cls-19" d="M1576.6334,887.1386c-26.7844-27.1831-61.8592-13.4924-76.29.805l-.4547-.4622C1513.77,872.8573,1552.3427,859.0936,1576.6334,887.1386Z"/>
          <path class="cls-7" d="M1651.0426,948.1114c-.37-33.1461-25.0874-83.5812-76.3608-61.2C1629.5474,900.7546,1603.64,931.1993,1651.0426,948.1114Z"/>
          <path class="cls-19" d="M1639.541,926.8846c-7.1421-19.4721-25.4118-49.1307-65.0733-40.6862C1609.8542,875.1133,1635.4753,907.1906,1639.541,926.8846Z"/>
          <path class="cls-19" d="M1497.2375,1124.12c16.9356-91.064,93.6492-238.8348,94.6517-238.0949C1591.1372,887.4678,1516.255,1031.3625,1497.2375,1124.12Z"/>
          <path class="cls-7" d="M1559.8888,951.72c-3.7906-9.1114-8.5513-17.6157-16.8591-20.524-23.413-9.1946-30.5918-40.1069-30.5333-39.8857C1541.26,893.7174,1569.5358,918.7737,1559.8888,951.72Z"/>
          <g>
            <path class="cls-17" d="M1557.2815,895.6634c-13.8148,21.3147,2.2807,56.2842,2.2807,56.2842s38.4934.4113,52.3083-20.9034-2.2809-56.284-2.2809-56.284S1571.0961,874.3488,1557.2815,895.6634Z"/>
            <path class="cls-18" d="M1572.4025,950.3771c-2.1929.2189-11.4541,3.2194-12.396,1.5618,52.2152-3.6535,59.3252-50.4474,49.756-76.7631l.6156-.2072C1617.9928,893.861,1616.4667,942.2219,1572.4025,950.3771Z"/>
            <path class="cls-18" d="M1558.7712,951.7324c-18.1513-49.619,22.1011-75.5911,50.3083-77.6054l.059.6434C1578.1228,878.1119,1543.6555,901.5111,1558.7712,951.7324Z"/>
            <path class="cls-18" d="M1565.2511,949.4648c32.4936-10.7032,45.2262-47.5229,43.9959-68.8318l.65-.02C1610.8988,899.9278,1599.027,941.0854,1565.2511,949.4648Z"/>
            <path class="cls-18" d="M1560.1486,945.6629c-8.6472-32.1834,26.6838-62.5319,43.9747-68.7927l.2439.6C1586.5373,884.3535,1554.052,911.767,1560.1486,945.6629Z"/>
            <path class="cls-18" d="M1563.1168,948.2667c29.8426-20.3662,44.6481-68.1927,43.928-68.8827C1608.8078,879.2112,1595.1805,927.7961,1563.1168,948.2667Z"/>
            <path class="cls-18" d="M1562.1116,947.2923c2.5935-35.8094,44.7389-70.6964,44.295-68.3229C1606.0191,879.273,1567.5074,909.64,1562.1116,947.2923Z"/>
            <path class="cls-18" d="M1565.2215,943.8122c-2.1532.2394,40.3729-62.5693,39.9256-62.7956C1607.3012,880.7775,1564.7751,943.5862,1565.2215,943.8122Z"/>
            <path class="cls-18" d="M1605.3911,875.0006c3.6145,7.5862,33.1928,11.19,32.7374,3.2.6058-9.9958-23.78-2.9047-23.78-2.9047,32.8449-11.6023,23.5474-29.7619-2.3215-3.241,16.6856-22.2794-.3978-41.4151-3.3218-1.7682C1607.737,847.936,1589.2684,846.1127,1605.3911,875.0006Z"/>
          </g>
          <path class="cls-19" d="M1636.1983,1014.18c-.37-33.1461-25.0879-83.5811-76.361-61.2C1614.7034,966.823,1588.7952,997.2676,1636.1983,1014.18Z"/>
          <path class="cls-7" d="M1624.6963,992.9525c-7.1421-19.472-25.4117-49.1307-65.0732-40.6862C1595.01,941.1814,1620.6306,973.2585,1624.6963,992.9525Z"/>
          <path class="cls-19" d="M1464.2629,964.9418c17.7615-27.9878,65.3252-57.8607,97.14-11.8417C1507.4659,935.9905,1513.47,975.5135,1464.2629,964.9418Z"/>
          <path class="cls-7" d="M1561.96,952.6045c-26.7825-27.1817-61.86-13.4916-76.29.8056l-.4546-.4623C1499.097,938.3241,1537.668,924.5589,1561.96,952.6045Z"/>
          <path class="cls-7" d="M1516.2293,1058.8855c8.0189-5.7516,16.5429-10.4767,25.1377-8.5767,24.7468,4.506,47.1217-17.9987,46.9555-17.8414C1562.5993,1019.3743,1525.3685,1025.7949,1516.2293,1058.8855Z"/>
          <g>
            <path class="cls-17" d="M1547.9522,1012.5955c.5269,25.3945-31.5651,46.6555-31.5651,46.6555s-32.946-19.9119-33.4728-45.3063,31.5652-46.6555,31.5652-46.6555S1547.4255,987.2009,1547.9522,1012.5955Z"/>
            <path class="cls-18" d="M1515.6115,1059.5165c-42.869-30.8833-24.1261-74.9688-1.91-92.4656l.41.5C1490.3164,987.7221,1474.9166,1026.431,1515.6115,1059.5165Z"/>
            <path class="cls-18" d="M1517.1732,1059.4846c39.37-34.7718,22.1638-72.9374-2.3174-91.9493l.3936-.5168C1538.2922,983.7255,1558.65,1026.8637,1517.1732,1059.4846Z"/>
            <path class="cls-18" d="M1512.8567,1054.1452c-24.3125-24.8187-12.7287-66.2491-1.7173-82.0426l.5381.3605C1499.3923,990.033,1490.8674,1027.8829,1512.8567,1054.1452Z"/>
            <path class="cls-18" d="M1519.7028,1054.0035c20.8873-27.0948,10.7653-64.7124-2.2112-81.6612l.5266-.38C1529.6866,987.3862,1542.9562,1028.1143,1519.7028,1054.0035Z"/>
            <path class="cls-18" d="M1517.2636,1054.21c13.2689-33.5989-1.3129-81.4985-2.2964-81.6658C1516.33,971.4114,1532.3148,1019.2722,1517.2636,1054.21Z"/>
            <path class="cls-18" d="M1515.3024,1054.251c-16.4836-34.36-2.5064-82.6569-1.0949-81.6911C1513.2234,972.9985,1500.66,1021.07,1515.3024,1054.251Z"/>
            <path class="cls-18" d="M1516.5058,1049.3407c-1.6478,1.4067-1.6948-74.4435-2.1922-74.38C1515.9623,973.5541,1516.0094,1049.4043,1516.5058,1049.3407Z"/>
            <path class="cls-18" d="M1517.9227,969.7036c-7.2661,4.4668-33.9432-7.8258-29.52-14.511,4.7465-8.818,21.7477,10.0466,21.7477,10.0466-21.82-27.153-4.3559-37.7,3.68-1.5338-2.46-27.7258,22.1375-35.0037,3.7551.245C1530.1743,945.4568,1546.8366,953.6281,1517.9227,969.7036Z"/>
          </g>
          <path class="cls-19" d="M1418.47,1071.826c17.7617-27.9883,65.325-57.86,97.14-11.8419C1461.673,1042.8747,1467.6764,1082.3976,1418.47,1071.826Z"/>
          <path class="cls-7" d="M1516.1672,1059.4887c-26.7879-27.1824-61.8566-13.4939-76.29.8056l-.4547-.4622C1453.3044,1045.2075,1491.8779,1031.4435,1516.1672,1059.4887Z"/>
          <path class="cls-19" d="M1590.5764,1120.4619c-.37-33.1461-25.0874-83.5814-76.3607-61.2C1569.081,1073.1051,1543.1738,1103.55,1590.5764,1120.4619Z"/>
          <path class="cls-7" d="M1579.0746,1099.2353c-7.1427-19.4726-25.4116-49.1309-65.0734-40.6868C1549.3882,1047.4633,1575.0079,1079.5416,1579.0746,1099.2353Z"/>
        </g>
      </g>
    </g>
  </g>
</svg>
