<?xml version="1.0" encoding="utf-8"?>
<!-- Generator: Adobe Illustrator 25.3.1, SVG Export Plug-In . SVG Version: 6.00 Build 0)  -->
<svg version="1.1" id="Layer_1" xmlns="http://www.w3.org/2000/svg" xmlns:xlink="http://www.w3.org/1999/xlink" x="0px" y="0px"
	 viewBox="0 0 512 512" style="enable-background:new 0 0 512 512;" xml:space="preserve">
<style type="text/css">
	.st0{fill:#F9F9F9;}
	.st1{fill:#005D8E;}
	.st2{fill:#137994;}
	.st3{fill:#9ADDDB;}
	.st4{fill:#004C75;}
	.st5{fill:#0DBBC3;}
	.st6{fill:#FFFFFF;}
</style>
<rect y="293.7" class="st0" width="512" height="218.3"/>
<path class="st1" d="M512,186.5v167.8c-6.1,1.2-12.6,1.9-19.3,2.4c-32.1,2.3-63.1,0.3-94.7-2.5c-17.6-1.6-37.1,2.5-54.8,3.4
	c-17.8,0.8-35.6,1.2-53.3,0.7c-16.5-0.4-32.9-1.6-49.3-2.8c-20.1-1.4-40.2-2.9-60.3-4.3c-15.8-1.1-33.2-3-44.3-14.4
	c-12.7-13.1-12.3-34-9.4-52c6.3-39.7,20.1-78,39.5-113.2c6-10.9,12.7-21.7,22.3-29.4c9.7-7.8,22.9-12.1,34.7-8.4
	c12.1,3.8,20.2,14.7,29.4,23.3c10.5,9.7,23.8,17.2,38.1,17.5c19,0.4,36-11.5,50.6-23.6c25.3-21,54.9-68.6,92.6-62.2
	c17.4,3,30.8,17.6,41.5,32.4c13.5,18.7,24.8,39.1,34.4,60.3C510.5,183.1,511.3,184.8,512,186.5z"/>
<path class="st2" d="M370.4,332c-2.9,5.9-6.8,11.4-12.3,14.9c-5,3.2-11,4.5-16.8,5.7c-0.6,0.1-1.1,0.2-1.7,0.3
	c-65.5,13.3-132,20.5-198.7,25.7c-47.4,3.7-97.6,5.9-140.9-12.4V154.7c2.6-5.5,5.5-10.9,8.5-16.1c3.3-5.7,6.8-11.2,10.5-16.6
	c18.3-26.4,46-50.5,78.1-49.1c32.8,1.4,58.8,29,73.5,58.4c6.2,12.4,11.1,25.3,16,38.3c6.7,17.9,13.3,35.7,23.2,52
	c3.2,5.2,8.3,11,14.2,9.3c3.8-1,6.1-4.8,7.8-8.2c5.1-9.9,9.9-20.8,15.9-30.3c6.1-9.6,13.6-17.8,24.2-21.8
	c16.1-6.2,34.8-0.3,48.1,10.6c4.5,3.7,8.5,7.9,12.1,12.4c4.2,5.2,7.9,10.8,11.4,16.5c2.5,4.1,4.8,8.2,7.1,12.3
	c9.4,16.9,18.6,34.2,23.3,52.9C378.9,294.1,378.9,314.6,370.4,332z"/>
<path class="st0" d="M186.6,169.6c-2.6,4.2-6.1,7.6-10.6,9.6c-7.5,3.4-16.6,2.2-23.7-2c-7.1-4.2-12.3-11.1-15.8-18.5
	c-4.6-9.8-7.1-21.6-15.9-27.9c-4.5-3.2-11.1-4.4-15.5-1.1c-4.9,3.7-5,10.9-4.2,17c1.4,10.9,4.2,22.1,1.9,32.9
	c-2.3,10.8-11.7,21.2-22.7,19.7c-3.6-0.5-7-2.2-10-4.3c-17.2-11.6-25.5-32.2-32.8-51.6c0.3,0.7-12.7,14.1-14.6,15
	c-7.1,3.4-8.8-3.3-10.7-9.5c-1.1-3.4-2.3-6.9-3.6-10.3c3.3-5.7,6.8-11.2,10.5-16.6c18.3-26.4,46-50.5,78.1-49.1
	c32.8,1.4,58.8,29,73.5,58.4C176.8,143.6,181.7,156.6,186.6,169.6z"/>
<path class="st0" d="M343.7,210.1c-3.6,2.8-8,4.4-12.5,3.8c-3-0.5-5.8-1.8-8.5-3.2c0.1,5.5-0.4,11-1.4,16.5
	c-1.1,5.8-4.1,12.7-10.1,13.1c-3.3,0.2-6.4-1.8-8.9-4c-5.3-4.7-9.3-10.7-11.6-17.3c-2.4-6.8-2.9-14.2-6.2-20.6
	c-3.3-6.4-10.7-11.7-17.4-9.2c-5,1.8-10.8,10.3-16.8,6.6c-1.3-0.8-2.1-1.9-2.5-3.3c6.1-9.6,13.6-17.8,24.2-21.8
	c16.1-6.2,34.8-0.3,48.1,10.6c4.5,3.7,8.5,7.9,12.1,12.4C336.4,198.7,340.2,204.3,343.7,210.1z"/>
<path class="st3" d="M225.1,318.9c28.3-38.8,69.2-60.6,110-66.7c41.9-6.2,87,5.1,115.2,42.9c14.9,19.9,23.9,45.7,31.5,71.6
	c1.2,4,2.3,8.3,1.6,12.6c-0.7,3.7-2.7,6.8-4.9,9.4c-8.9,10.6-21,15.5-32.7,19.4c-41.6,13.8-84.7,18.6-126.9,14.5
	c-21.5-2.1-42.8-6.4-63.6-13c-12.5-4-49.7-11.1-55.9-26.6C193,367.4,217,329.9,225.1,318.9z"/>
<g>
	<path class="st4" d="M138,385.1c-0.1-1.2-0.7-2.7-1.9-2.6c-0.6,0-1.1,0.5-1.5,0.9c-2.5,2.9-3.2,6.9-4.5,10.5
		c-1.2,3.6-3.1,7.1-5.5,10.1c-3,3.8-6.4,6.6-10.3,8.8l-1.7-31c-0.3-6.3-6.9-11.2-14.6-11.2h-0.8c-7.7,0-14.3,4.9-14.6,11.2
		l-1.2,22.3c-1.7-0.7-3.3-1.6-4.7-2.7c-3.3-2.6-5.8-6.1-7.5-9.9c-2-4.2-3.2-8.9-6-12.6c-0.8-1-2-2-3.2-1.7c-0.8,0.2-1.4,1-1.8,1.8
		c-0.7,1.6-0.6,3.4-0.5,5.1c0.8,8.1,5,15.5,10,21.8c2.2,2.8,4.7,5.5,7.9,7.2c1.6,0.8,3.4,1.3,5.2,1.3L80.2,438
		c-0.5,9.1,7.1,9,17.1,9h1c9.9,0,17.6,0.1,17.1-9l-0.5-16.5c0.3-0.1,0.7-0.3,1-0.4c5.9-2.9,10.5-8,14.3-13.4
		C134.9,401.1,138.8,393.3,138,385.1z"/>
	<path class="st5" d="M50,389.1c-9.4-1.8-19.5-4.7-24.6-11.5c-3.3-4.5-3.8-9.9-3.6-15.1c0.4-8.9,2.8-17.6,5.6-26.1
		c8.3-25.3,20.7-49.6,36.8-72.2c4.9-6.9,10.3-13.8,18.3-18.3c7.9-4.6,19.2-6.9,27.6-2.4c28,14.8,73.5,98.7,60.4,134.3
		c-3.1,8.5-16.2,10-24.5,12.2c-10.4,2.7-21.1,4.1-31.8,4.7C92.6,395.6,71.1,393.2,50,389.1z"/>
</g>
<g>
	<path class="st4" d="M310.8,292.3c-0.1-0.8-0.5-1.7-1.2-1.7c-0.4,0-0.7,0.3-0.9,0.6c-1.6,1.9-2.1,4.4-2.9,6.8
		c-0.8,2.3-2,4.5-3.5,6.5c-1.9,2.5-4.1,4.2-6.6,5.7l-1.1-20c-0.2-4.1-4.4-7.2-9.4-7.2h-0.5c-5,0-9.2,3.2-9.4,7.2l-0.8,14.4
		c-1.1-0.4-2.1-1-3-1.7c-2.1-1.7-3.7-3.9-4.9-6.4c-1.3-2.7-2-5.7-3.9-8.1c-0.5-0.6-1.3-1.3-2.1-1.1c-0.5,0.1-0.9,0.7-1.1,1.2
		c-0.4,1-0.4,2.2-0.3,3.3c0.5,5.2,3.2,10,6.5,14.1c1.4,1.8,3,3.6,5.1,4.6c1,0.5,2.2,0.8,3.3,0.9l-0.5,15.1c-0.3,5.9,4.6,5.8,11,5.8
		h0.7c6.4,0,11.3,0.1,11-5.8l-0.3-10.6c0.2-0.1,0.4-0.2,0.6-0.3c3.8-1.8,6.8-5.1,9.2-8.6C308.8,302.6,311.3,297.6,310.8,292.3z"/>
	<path class="st5" d="M254.1,294.9c-6.1-1.2-12.6-3-15.8-7.4c-2.1-2.9-2.5-6.4-2.3-9.7c0.3-5.7,1.8-11.3,3.6-16.8
		c5.4-16.3,13.4-32,23.7-46.5c3.2-4.4,6.7-8.9,11.8-11.8c5.1-2.9,12.4-4.4,17.8-1.6c18.1,9.6,47.4,63.6,38.9,86.5
		c-2,5.5-10.5,6.4-15.8,7.8c-6.7,1.8-13.6,2.7-20.5,3C281.6,299.1,267.7,297.5,254.1,294.9z"/>
</g>
<g>
	<path class="st4" d="M398.6,250.3c0-0.4-0.2-0.9-0.7-0.9c-0.2,0-0.4,0.2-0.5,0.3c-0.9,1-1.1,2.4-1.5,3.6c-0.4,1.3-1.1,2.5-1.9,3.5
		c-1,1.3-2.2,2.3-3.6,3.1l-0.6-10.8c-0.1-2.2-2.4-3.9-5.1-3.9h-0.3c-2.7,0-5,1.7-5.1,3.9L379,257c-0.6-0.2-1.1-0.5-1.6-0.9
		c-1.1-0.9-2-2.1-2.6-3.4c-0.7-1.5-1.1-3.1-2.1-4.4c-0.3-0.4-0.7-0.7-1.1-0.6c-0.3,0.1-0.5,0.4-0.6,0.6c-0.2,0.6-0.2,1.2-0.2,1.8
		c0.3,2.8,1.7,5.4,3.5,7.6c0.8,1,1.6,1.9,2.8,2.5c0.6,0.3,1.2,0.4,1.8,0.5l-0.3,8.2c-0.2,3.2,2.5,3.1,5.9,3.1h0.4
		c3.4,0,6.1,0,5.9-3.1l-0.2-5.7c0.1,0,0.2-0.1,0.3-0.1c2.1-1,3.6-2.8,5-4.6C397.5,255.9,398.9,253.2,398.6,250.3z"/>
	<path class="st5" d="M368,251.7c-3.3-0.6-6.8-1.6-8.5-4c-1.2-1.6-1.3-3.4-1.3-5.2c0.1-3.1,1-6.1,1.9-9.1
		c2.9-8.8,7.2-17.2,12.8-25.1c1.7-2.4,3.6-4.8,6.3-6.4c2.8-1.6,6.7-2.4,9.6-0.8c9.7,5.2,25.5,34.3,21,46.6c-1.1,3-5.6,3.5-8.5,4.2
		c-3.6,0.9-7.3,1.4-11,1.6C382.8,254,375.3,253.1,368,251.7z"/>
</g>
<g>
	<path class="st4" d="M440.7,354.1c-0.1-0.5-0.3-1.2-0.8-1.1c-0.3,0-0.5,0.2-0.6,0.4c-1.1,1.3-1.4,3-2,4.6c-0.5,1.6-1.4,3.1-2.4,4.4
		c-1.3,1.7-2.8,2.9-4.5,3.9l-0.7-13.6c-0.1-2.8-3-4.9-6.4-4.9h-0.4c-3.4,0-6.3,2.2-6.4,4.9l-0.5,9.8c-0.7-0.3-1.4-0.7-2.1-1.2
		c-1.5-1.1-2.5-2.7-3.3-4.4c-0.9-1.9-1.4-3.9-2.7-5.5c-0.3-0.4-0.9-0.9-1.4-0.7c-0.4,0.1-0.6,0.4-0.8,0.8c-0.3,0.7-0.3,1.5-0.2,2.2
		c0.4,3.6,2.2,6.8,4.4,9.6c1,1.2,2.1,2.4,3.5,3.2c0.7,0.4,1.5,0.6,2.3,0.6l-0.4,10.3c-0.2,4,3.1,4,7.5,4h0.5c4.4,0,7.7,0,7.5-4
		l-0.2-7.2c0.2-0.1,0.3-0.1,0.4-0.2c2.6-1.3,4.6-3.5,6.3-5.9C439.4,361.2,441.1,357.7,440.7,354.1z"/>
	<path class="st5" d="M402,355.9c-4.1-0.8-8.6-2.1-10.8-5.1c-1.5-2-1.7-4.4-1.6-6.6c0.2-3.9,1.2-7.7,2.4-11.5
		c3.7-11.1,9.1-21.8,16.2-31.8c2.2-3,4.5-6.1,8-8.1s8.5-3,12.1-1.1c12.3,6.5,32.4,43.4,26.6,59.1c-1.4,3.7-7.1,4.4-10.8,5.4
		c-4.6,1.2-9.3,1.8-14,2.1C420.8,358.8,411.3,357.7,402,355.9z"/>
</g>
<path class="st5" d="M346.6,433.2c-3-1.8-6.2-4.8-5.4-8.1c1-4,6.5-4.6,10.5-3.9c5.2,0.9,10.3,2.3,15.3,4.2c-4.4-8-5.6-17.6-3.4-26.4
	c1.6-6.6,6.2-13.4,13-13.8c4.6-0.3,8.8,2.6,12,6c7.2,7.7,10.5,18.1,13.6,28.1c1.9-3.1,3.9-6.3,5.8-9.4c4.1-6.6,8.5-13.5,15-17.7
	c2.3-1.4,5.2-2.5,7.5-1.2c2.9,1.6,3,5.7,2.4,8.9c-1.7,9.2-6.5,17.7-13.3,24c5.4-5.2,12.2-9.9,19.7-9.3c2.1,0.2,4.4,1,5.2,2.9
	c0.5,1.3,0.2,2.7-0.3,4c-1.8,5.1-5.4,9.5-10,12.4c5.2-5.4,12.2-9.1,19.6-10.3c2.4-0.4,5.3-0.3,6.9,1.6c1.3,1.6,1,4,0.4,5.9
	c-2.3,7.4-8.9,12.9-16.1,15.6s-15.1,3.1-22.9,3c-13.9-0.2-28.8-1-42.3-4.9C368.6,441.6,356.6,439.2,346.6,433.2z"/>
<path class="st5" d="M14,443.6c-1.6-1-3.4-2.6-2.9-4.4c0.5-2.2,3.5-2.5,5.7-2.1c2.8,0.5,5.6,1.2,8.3,2.3c-2.4-4.3-3.1-9.6-1.9-14.4
	c0.9-3.6,3.4-7.3,7.1-7.5c2.5-0.1,4.8,1.4,6.5,3.2c3.9,4.2,5.7,9.8,7.4,15.3c1.1-1.7,2.1-3.4,3.2-5.1c2.2-3.6,4.6-7.3,8.2-9.6
	c1.2-0.8,2.8-1.4,4.1-0.7c1.6,0.9,1.6,3.1,1.3,4.9c-0.9,5-3.5,9.6-7.2,13.1c3-2.8,6.7-5.4,10.7-5.1c1.1,0.1,2.4,0.5,2.8,1.6
	c0.3,0.7,0.1,1.5-0.2,2.2c-1,2.8-2.9,5.2-5.5,6.7c2.8-3,6.6-5,10.7-5.6c1.3-0.2,2.9-0.2,3.7,0.9c0.7,0.9,0.6,2.2,0.2,3.2
	c-1.3,4-4.8,7-8.8,8.5s-8.2,1.7-12.5,1.6c-7.6-0.1-15.7-0.6-23-2.7C26,448.2,19.5,446.9,14,443.6z"/>
<circle class="st0" cx="295.7" cy="66.1" r="32.1"/>
<path class="st6" d="M467.4,48.3c-2,0-3.6-1.6-3.6-3.6s1.6-3.6,3.6-3.6s3.6,1.6,3.6,3.6S469.4,48.3,467.4,48.3z M484,121.8
	c0,1.7,1.4,3.1,3.1,3.1s3.1-1.4,3.1-3.1s-1.4-3.1-3.1-3.1C485.4,118.7,484,120.1,484,121.8z M454,100.7c0-2-1.6-3.6-3.6-3.6
	s-3.6,1.6-3.6,3.6s1.6,3.6,3.6,3.6C452.3,104.4,454,102.7,454,100.7z M390.6,189.6c0-1.9-1.6-3.5-3.5-3.5s-3.5,1.6-3.5,3.5
	s1.6,3.5,3.5,3.5S390.6,191.5,390.6,189.6z M277.5,154c-0.3-1.7-1.9-2.9-3.6-2.6c-1.7,0.3-2.9,1.9-2.6,3.6c0.3,1.7,1.9,2.9,3.6,2.6
	C276.6,157.3,277.8,155.7,277.5,154z M282.2,240.1c-0.3-1.8-2-3-3.8-2.7s-3,2-2.7,3.8s2,3,3.8,2.7
	C281.3,243.5,282.5,241.8,282.2,240.1z M453.8,250.6c0-1.9-1.5-3.4-3.4-3.4s-3.4,1.5-3.4,3.4s1.5,3.4,3.4,3.4
	C452.2,254.1,453.8,252.5,453.8,250.6z M464.7,281.8c-0.3-1.8-2-2.9-3.7-2.6c-1.8,0.3-2.9,2-2.6,3.7c0.3,1.8,2,2.9,3.7,2.6
	C463.9,285.2,465,283.5,464.7,281.8z M505.4,340.5c0-1.8-1.4-3.2-3.2-3.2c-1.8,0-3.2,1.4-3.2,3.2c0,1.8,1.4,3.2,3.2,3.2
	C504,343.8,505.4,342.3,505.4,340.5z M468.2,423.1c0-2-1.6-3.6-3.6-3.6s-3.6,1.6-3.6,3.6s1.6,3.6,3.6,3.6S468.2,425.1,468.2,423.1z
	 M27,86.5c-0.3-1.9-2.1-3.2-4-2.8c-1.9,0.3-3.2,2.1-2.8,4c0.3,1.9,2.1,3.2,4,2.8C26,90.2,27.3,88.4,27,86.5z M331.1,97.4
	c0-1.8-1.5-3.3-3.3-3.3s-3.3,1.5-3.3,3.3s1.5,3.3,3.3,3.3C329.6,100.8,331.1,99.3,331.1,97.4z M331.7,200.5
	c-0.3-1.9-2.2-3.2-4.1-2.9s-3.2,2.2-2.9,4.1c0.3,1.9,2.2,3.2,4.1,2.9C330.8,204.3,332.1,202.4,331.7,200.5z M190.5,145.9
	c-0.3-1.6-1.8-2.7-3.4-2.4c-1.6,0.3-2.7,1.8-2.4,3.4c0.3,1.6,1.8,2.7,3.4,2.4C189.7,149.1,190.8,147.5,190.5,145.9z M243.5,22.7
	c-0.3-1.9-2.2-3.2-4.1-2.9c-1.9,0.3-3.2,2.2-2.9,4.1s2.2,3.2,4.1,2.9C242.5,26.4,243.8,24.6,243.5,22.7z M147.9,87
	c1.9-0.3,3.2-2.2,2.9-4.1s-2.2-3.2-4.1-2.9c-1.9,0.3-3.2,2.2-2.9,4.1C144.1,86.1,146,87.4,147.9,87z M172.4,293.7
	c0-1.9-1.5-3.4-3.4-3.4s-3.4,1.5-3.4,3.4s1.5,3.4,3.4,3.4S172.4,295.5,172.4,293.7z M165.6,268c-0.3-1.8-2-3-3.8-2.7s-3,2-2.7,3.8
	s2,3,3.8,2.7C164.7,271.5,165.9,269.8,165.6,268z M53.9,219.8c0-1.7-1.4-3.1-3.1-3.1c-1.7,0-3.1,1.4-3.1,3.1c0,1.7,1.4,3.1,3.1,3.1
	C52.5,222.9,53.9,221.5,53.9,219.8z M87.9,33.4c-0.3-1.9-2.2-3.2-4.1-2.9c-1.9,0.3-3.2,2.2-2.9,4.1c0.3,1.9,2.2,3.2,4.1,2.9
	C86.9,37.2,88.2,35.3,87.9,33.4z M154.3,423.1c0-1.8-1.5-3.3-3.3-3.3s-3.3,1.5-3.3,3.3s1.5,3.3,3.3,3.3
	C152.9,426.4,154.3,424.9,154.3,423.1z M87.9,375.7c-0.3-1.9-2.2-3.2-4.1-2.9c-1.9,0.3-3.2,2.2-2.9,4.1c0.3,1.9,2.2,3.2,4.1,2.9
	S88.2,377.6,87.9,375.7z M232,381.8c-0.3-1.7-1.9-2.8-3.6-2.5c-1.7,0.3-2.8,1.9-2.5,3.6s1.9,2.8,3.6,2.5
	C231.1,385.1,232.3,383.5,232,381.8z M30.2,279.1c0-1.8-1.4-3.2-3.2-3.2c-1.8,0-3.2,1.4-3.2,3.2c0,1.8,1.4,3.2,3.2,3.2
	C28.8,282.3,30.2,280.9,30.2,279.1z"/>
</svg>
