<?xml version="1.0" encoding="UTF-8" standalone="no"?>
<!-- Created with Inkscape (http://www.inkscape.org/) -->

<svg
   version="1.1"
   id="svg9"
   width="2560"
   height="1440"
   viewBox="0 0 2560 1440"
   xmlns="http://www.w3.org/2000/svg"
   xmlns:svg="http://www.w3.org/2000/svg">
  <defs
     id="defs13">
    <clipPath
       clipPathUnits="userSpaceOnUse"
       id="clipPath27">
      <path
         d="M 0,1080 H 1920 V 0 H 0 Z"
         id="path25" />
    </clipPath>
    <clipPath
       clipPathUnits="userSpaceOnUse"
       id="clipPath143">
      <path
         d="M 0,1080 H 1920 V 0 H 0 Z"
         id="path141" />
    </clipPath>
    <clipPath
       clipPathUnits="userSpaceOnUse"
       id="clipPath179">
      <path
         d="M 0,1080 H 1920 V 0 H 0 Z"
         id="path177" />
    </clipPath>
    <clipPath
       clipPathUnits="userSpaceOnUse"
       id="clipPath803">
      <path
         d="M 0,1080 H 1920 V 0 H 0 Z"
         id="path801" />
    </clipPath>
  </defs>
  <g
     id="g17"
     transform="matrix(1.3333333,0,0,-1.3333333,0,1440)">
    <path
       d="M 0,0 H 1920 V 1080 H 0 Z"
       style="fill:#375ca6;fill-opacity:1;fill-rule:nonzero;stroke:none"
       id="path19" />
    <g
       id="g21">
      <g
         id="g23"
         clip-path="url(#clipPath27)">
        <g
           id="g29"
           transform="translate(414,860.5)">
          <path
             d="m 0,0 c 0,-69.864 -56.636,-126.5 -126.5,-126.5 -69.864,0 -126.5,56.636 -126.5,126.5 0,69.864 56.636,126.5 126.5,126.5 C -56.636,126.5 0,69.864 0,0"
             style="fill:#f9c2cd;fill-opacity:1;fill-rule:nonzero;stroke:none"
             id="path31" />
        </g>
        <g
           id="g33"
           transform="translate(572,726.5)">
          <path
             d="m 0,0 c 0,-65.998 -56.636,-119.5 -126.5,-119.5 -69.864,0 -126.5,53.502 -126.5,119.5 0,65.998 56.636,119.5 126.5,119.5 C -56.636,119.5 0,65.998 0,0"
             style="fill:#f9c2cd;fill-opacity:1;fill-rule:nonzero;stroke:none"
             id="path35" />
        </g>
        <g
           id="g37"
           transform="translate(867,708.2476)">
          <path
             d="m 0,0 c 0,-93.127 -79.917,-168.623 -178.5,-168.623 -98.583,0 -178.5,75.496 -178.5,168.623 0,93.127 79.917,168.623 178.5,168.623 C -79.917,168.623 0,93.127 0,0"
             style="fill:#f9c2cd;fill-opacity:1;fill-rule:nonzero;stroke:none"
             id="path39" />
        </g>
        <g
           id="g41"
           transform="translate(1133,788.23)">
          <path
             d="m 0,0 c 0,-93.128 -79.917,-168.623 -178.5,-168.623 -98.583,0 -178.5,75.495 -178.5,168.623 0,93.127 79.917,168.623 178.5,168.623 C -79.917,168.623 0,93.127 0,0"
             style="fill:#f9c2cd;fill-opacity:1;fill-rule:nonzero;stroke:none"
             id="path43" />
        </g>
        <g
           id="g45"
           transform="translate(1330,697.3354)">
          <path
             d="m 0,0 c 0,-73.824 -63.352,-133.67 -141.5,-133.67 -78.148,0 -141.5,59.846 -141.5,133.67 0,73.824 63.352,133.67 141.5,133.67 C -63.352,133.67 0,73.824 0,0"
             style="fill:#f9c2cd;fill-opacity:1;fill-rule:nonzero;stroke:none"
             id="path47" />
        </g>
        <g
           id="g49"
           transform="translate(1695.7852,720.8325)">
          <path
             d="m 0,0 c 0,-110.549 -94.867,-200.167 -211.893,-200.167 -117.025,0 -211.892,89.618 -211.892,200.167 0,110.549 94.867,200.167 211.892,200.167 C -94.867,200.167 0,110.549 0,0"
             style="fill:#f9c2cd;fill-opacity:1;fill-rule:nonzero;stroke:none"
             id="path51" />
        </g>
        <g
           id="g53"
           transform="translate(1869.5361,566.2661)">
          <path
             d="m 0,0 c 0,-88.218 -75.704,-159.734 -169.091,-159.734 -93.386,0 -169.09,71.516 -169.09,159.734 0,88.219 75.704,159.734 169.09,159.734 C -75.704,159.734 0,88.219 0,0"
             style="fill:#f9c2cd;fill-opacity:1;fill-rule:nonzero;stroke:none"
             id="path55" />
        </g>
        <g
           id="g57"
           transform="translate(1629.3564,615.4541)">
          <path
             d="m 0,0 -113.315,13.661 -92.824,46.402 -183.262,-20.618 -64.543,88.869 -112.495,44.196 -104.509,-61.637 -122.948,7.447 -33.13,-54.633 -140.241,-57.595 c 0.012,-1.37 -0.02,-2.752 -0.104,-4.137 L -986.991,-321.968 4.113,-382 23.323,-64.849 Z"
             style="fill:#84a6d8;fill-opacity:1;fill-rule:nonzero;stroke:none"
             id="path59" />
        </g>
        <g
           id="g61"
           transform="translate(1637,634)">
          <path
             d="M 0,0 123,-97 0,-173 -132,-44 Z"
             style="fill:#33437f;fill-opacity:1;fill-rule:nonzero;stroke:none"
             id="path63" />
        </g>
        <g
           id="g65"
           transform="translate(1174.3203,744.6001)">
          <path
             d="m 0,0 41.289,-119.063 114.516,-14.259 130.296,-90.889 -7.651,-25.168 56.971,-3.451 -46.333,-6.347 118.876,-60.294 61.682,-18.383 8.765,144.713 -15.566,71.735 -130.646,17.677 -90.728,44.553 -177.258,-18.556 z"
             style="fill:#33437f;fill-opacity:1;fill-rule:nonzero;stroke:none"
             id="path67" />
        </g>
        <g
           id="g69"
           transform="translate(835.3057,734.0107)">
          <path
             d="m 0,0 81.749,-161.792 63.767,-16.067 28.301,-100.578 233.1,-126.41 114.898,-6.959 11.533,-43.418 -35.315,185.221 -98.582,92.63 -105.776,-9.46 -53.67,82.586 -117.044,96.799 z"
             style="fill:#33437f;fill-opacity:1;fill-rule:nonzero;stroke:none"
             id="path71" />
        </g>
        <g
           id="g73"
           transform="translate(964.127,283.5752)">
          <path
             d="m 0,0 -215.127,319.425 -222,68 -130,154 -397,72 v -666 z"
             style="fill:#33437f;fill-opacity:1;fill-rule:nonzero;stroke:none"
             id="path75" />
        </g>
        <g
           id="g77"
           transform="translate(877,294.8691)">
          <path
             d="m 0,0 682,54.131 190,-10 234,172 v -386 l -460.271,86.754 z"
             style="fill:#33437f;fill-opacity:1;fill-rule:nonzero;stroke:none"
             id="path79" />
        </g>
        <g
           id="g81"
           transform="translate(1168.4277,318)">
          <path
             d="m 0,0 470.572,222 120,24 212,357 V 163 l -224,-163 z"
             style="fill:#6a8bc4;fill-opacity:1;fill-rule:nonzero;stroke:none"
             id="path83" />
        </g>
        <g
           id="g85"
           transform="translate(357.1704,493.6582)">
          <path
             d="m 0,0 -73.201,-228.393 161.698,9.885 z"
             style="fill:#19264f;fill-opacity:1;fill-rule:nonzero;stroke:none"
             id="path87" />
        </g>
        <g
           id="g89"
           transform="translate(439.6548,573.5288)">
          <path
             d="m 0,0 -68.686,-302.263 161.699,9.885 z"
             style="fill:#19264f;fill-opacity:1;fill-rule:nonzero;stroke:none"
             id="path91" />
        </g>
        <g
           id="g93"
           transform="translate(544.9839,532.1699)">
          <path
             d="m 0,0 -57.015,-250.904 134.223,8.205 z"
             style="fill:#19264f;fill-opacity:1;fill-rule:nonzero;stroke:none"
             id="path95" />
        </g>
        <g
           id="g97"
           transform="translate(817.3872,480.9209)">
          <path
             d="m 0,0 -73.87,-197.851 142.639,1.981 z"
             style="fill:#19264f;fill-opacity:1;fill-rule:nonzero;stroke:none"
             id="path99" />
        </g>
        <g
           id="g101"
           transform="translate(893.2559,547.75)">
          <path
             d="m 0,0 -72.965,-263.015 142.638,1.981 z"
             style="fill:#19264f;fill-opacity:1;fill-rule:nonzero;stroke:none"
             id="path103" />
        </g>
        <g
           id="g105"
           transform="translate(984.1846,506.998)">
          <path
             d="m 0,0 -60.567,-218.324 118.402,1.643 z"
             style="fill:#19264f;fill-opacity:1;fill-rule:nonzero;stroke:none"
             id="path107" />
        </g>
        <g
           id="g109"
           transform="translate(1712.582,447.7959)">
          <path
             d="M 0,0 -150.24,-224.782 28.062,-264.274 Z"
             style="fill:#19264f;fill-opacity:1;fill-rule:nonzero;stroke:none"
             id="path111" />
        </g>
        <g
           id="g113"
           transform="translate(1826.7686,508.7422)">
          <path
             d="M 0,0 -168.282,-306.238 10.021,-345.73 Z"
             style="fill:#19264f;fill-opacity:1;fill-rule:nonzero;stroke:none"
             id="path115" />
        </g>
        <g
           id="g117"
           transform="translate(1928.0732,431.2178)">
          <path
             d="M 0,0 -139.688,-254.203 8.317,-286.985 Z"
             style="fill:#19264f;fill-opacity:1;fill-rule:nonzero;stroke:none"
             id="path119" />
        </g>
      </g>
    </g>
    <g
       id="g121"
       transform="translate(1154.3467,368.8945)">
      <path
         d="m 0,0 -6.531,-99.233 288.679,-19 6.532,99.233 -166.334,180.073 -43.313,14.932 -6.278,-3.614 z"
         style="fill:#50122c;fill-opacity:1;fill-rule:nonzero;stroke:none"
         id="path123" />
    </g>
    <g
       id="g125"
       transform="translate(1353.0752,283.333)">
      <path
         d="m 0,0 -24.057,1.583 3.431,52.123 24.057,-1.584 z"
         style="fill:#ff7224;fill-opacity:1;fill-rule:nonzero;stroke:none"
         id="path127" />
    </g>
    <g
       id="g129"
       transform="translate(1409.208,279.6387)">
      <path
         d="m 0,0 -24.057,1.583 3.43,52.122 24.057,-1.583 z"
         style="fill:#ff7224;fill-opacity:1;fill-rule:nonzero;stroke:none"
         id="path131" />
    </g>
    <g
       id="g133"
       transform="translate(1224.9971,264.5811)">
      <path
         d="m 0,0 -38.09,2.508 5.542,84.197 38.09,-2.507 z"
         style="fill:#ff7224;fill-opacity:1;fill-rule:nonzero;stroke:none"
         id="path135" />
    </g>
    <g
       id="g137">
      <g
         id="g139"
         clip-path="url(#clipPath143)">
        <g
           id="g145"
           transform="translate(1236.1133,433.4785)">
          <path
             d="m 0,0 c -1.038,-15.776 -9.733,-28.05 -19.421,-27.412 -9.688,0.638 -16.7,13.944 -15.661,29.722 1.038,15.777 9.733,28.049 19.421,27.412 C -5.973,29.085 1.038,15.777 0,0"
             style="fill:#ff7224;fill-opacity:1;fill-rule:nonzero;stroke:none"
             id="path147" />
        </g>
        <g
           id="g149"
           transform="translate(1226.3633,545.3608)">
          <path
             d="M 0,0 43.255,-184.053 226.687,-196.125 178.42,-11.743 Z"
             style="fill:#ffd9e2;fill-opacity:1;fill-rule:nonzero;stroke:none"
             id="path151" />
        </g>
        <g
           id="g153"
           transform="translate(1226.3633,545.3608)">
          <path
             d="m 0,0 -77.028,-176.136 5.011,-0.33 73.064,172.011 z"
             style="fill:#ffd9e2;fill-opacity:1;fill-rule:nonzero;stroke:none"
             id="path155" />
        </g>
        <g
           id="g157"
           transform="translate(0,270.1152)">
          <path
             d="m 0,0 c 12,-0.123 969,56.134 1335,-0.123 366,-56.256 621,-121.514 621,-121.514 V -274.655 H 0 V 0"
             style="fill:#7d96bc;fill-opacity:1;fill-rule:nonzero;stroke:none"
             id="path159" />
        </g>
        <g
           id="g161"
           transform="translate(185.2832,244.8916)">
          <path
             d="m 0,0 c 0,0 725.717,-91.478 792.717,-58.74 67,32.736 21,47.468 0,50.741 -21,3.273 519,-32.736 413,-39.284 -106,-6.547 -180,-11.457 -94,-18.823 86,-7.366 623,-100.665 623,-100.665 0,0 -329,122.762 -429,140.767 -100,18.005 -382,63.836 -502,62.199 C 683.717,34.559 -1.104,6.859 -1.104,6.859"
             style="fill:#f9c2cd;fill-opacity:1;fill-rule:nonzero;stroke:none"
             id="path163" />
        </g>
        <g
           id="g165"
           transform="translate(877,124.7695)">
          <path
             d="m 0,0 c 0,-11.3 -190.279,-20.46 -425,-20.46 -234.721,0 -425,9.16 -425,20.46 0,11.3 190.279,20.461 425,20.461 C -190.279,20.461 0,11.3 0,0"
             style="fill:#647ca0;fill-opacity:1;fill-rule:nonzero;stroke:none"
             id="path167" />
        </g>
        <g
           id="g169"
           transform="translate(1599,13.875)">
          <path
             d="m 0,0 c 0,-21.47 -190.279,-38.875 -425,-38.875 -234.721,0 -425,17.405 -425,38.875 0,21.47 190.279,38.874 425,38.874 C -190.279,38.874 0,21.47 0,0"
             style="fill:#647ca0;fill-opacity:1;fill-rule:nonzero;stroke:none"
             id="path171" />
        </g>
      </g>
    </g>
    <g
       id="g173">
      <g
         id="g175"
         clip-path="url(#clipPath179)">
        <g
           id="g181"
           transform="translate(179.8823,900.9595)">
          <path
             d="m 0,0 c 0,-6.474 -5.249,-11.723 -11.723,-11.723 -6.474,0 -11.722,5.249 -11.722,11.723 0,6.474 5.248,11.723 11.722,11.723 C -5.249,11.723 0,6.474 0,0"
             style="fill:#ffffff;fill-opacity:1;fill-rule:nonzero;stroke:none"
             id="path183" />
        </g>
        <g
           id="g185"
           transform="translate(325.4912,844.5054)">
          <path
             d="m 0,0 c 0,-3.237 -2.625,-5.861 -5.861,-5.861 -3.238,0 -5.862,2.624 -5.862,5.861 0,3.237 2.624,5.861 5.862,5.861 C -2.625,5.861 0,3.237 0,0"
             style="fill:#ffffff;fill-opacity:1;fill-rule:nonzero;stroke:none"
             id="path187" />
        </g>
        <g
           id="g189"
           transform="translate(77.4629,748.2559)">
          <path
             d="m 0,0 c 0,-3.237 -2.624,-5.862 -5.861,-5.862 -3.238,0 -5.862,2.625 -5.862,5.862 0,3.237 2.624,5.861 5.862,5.861 C -2.624,5.861 0,3.237 0,0"
             style="fill:#ffffff;fill-opacity:1;fill-rule:nonzero;stroke:none"
             id="path191" />
        </g>
        <g
           id="g193"
           transform="translate(290.3228,925.9473)">
          <path
             d="m 0,0 c 0,-3.237 -2.624,-5.861 -5.861,-5.861 -3.238,0 -5.862,2.624 -5.862,5.861 0,3.237 2.624,5.861 5.862,5.861 C -2.624,5.861 0,3.237 0,0"
             style="fill:#ffffff;fill-opacity:1;fill-rule:nonzero;stroke:none"
             id="path195" />
        </g>
        <g
           id="g197"
           transform="translate(691.9805,748.2559)">
          <path
             d="m 0,0 c 0,-3.237 -2.625,-5.862 -5.861,-5.862 -3.238,0 -5.862,2.625 -5.862,5.862 0,3.237 2.624,5.861 5.862,5.861 C -2.625,5.861 0,3.237 0,0"
             style="fill:#ffffff;fill-opacity:1;fill-rule:nonzero;stroke:none"
             id="path199" />
        </g>
        <g
           id="g201"
           transform="translate(517.9902,780.9561)">
          <path
             d="m 0,0 c 0,-3.237 -2.624,-5.861 -5.861,-5.861 -3.237,0 -5.862,2.624 -5.862,5.861 0,3.237 2.625,5.861 5.862,5.861 C -2.624,5.861 0,3.237 0,0"
             style="fill:#ffffff;fill-opacity:1;fill-rule:nonzero;stroke:none"
             id="path203" />
        </g>
        <g
           id="g205"
           transform="translate(256.3887,787.1255)">
          <path
             d="m 0,0 c 0,-3.237 -2.624,-5.861 -5.861,-5.861 -3.238,0 -5.862,2.624 -5.862,5.861 0,3.237 2.624,5.862 5.862,5.862 C -2.624,5.862 0,3.237 0,0"
             style="fill:#ffffff;fill-opacity:1;fill-rule:nonzero;stroke:none"
             id="path207" />
        </g>
        <g
           id="g209"
           transform="translate(471.0996,888.9282)">
          <path
             d="m 0,0 c 0,-3.237 -2.625,-5.861 -5.861,-5.861 -3.238,0 -5.862,2.624 -5.862,5.861 0,3.237 2.624,5.861 5.862,5.861 C -2.625,5.861 0,3.237 0,0"
             style="fill:#ffffff;fill-opacity:1;fill-rule:nonzero;stroke:none"
             id="path211" />
        </g>
        <g
           id="g213"
           transform="translate(232.9434,662.4946)">
          <path
             d="m 0,0 c 0,-3.237 -2.625,-5.861 -5.861,-5.861 -3.238,0 -5.862,2.624 -5.862,5.861 0,3.237 2.624,5.861 5.862,5.861 C -2.625,5.861 0,3.237 0,0"
             style="fill:#ffffff;fill-opacity:1;fill-rule:nonzero;stroke:none"
             id="path215" />
        </g>
        <g
           id="g217"
           transform="translate(607.4531,991.9648)">
          <path
             d="m 0,0 c 0,-3.237 -2.624,-5.861 -5.861,-5.861 -3.237,0 -5.862,2.624 -5.862,5.861 0,3.237 2.625,5.861 5.862,5.861 C -2.624,5.861 0,3.237 0,0"
             style="fill:#ffffff;fill-opacity:1;fill-rule:nonzero;stroke:none"
             id="path219" />
        </g>
        <g
           id="g221"
           transform="translate(451.9731,974.6895)">
          <path
             d="m 0,0 c 0,-3.237 -2.625,-5.861 -5.861,-5.861 -3.238,0 -5.862,2.624 -5.862,5.861 0,3.237 2.624,5.861 5.862,5.861 C -2.625,5.861 0,3.237 0,0"
             style="fill:#ffffff;fill-opacity:1;fill-rule:nonzero;stroke:none"
             id="path223" />
        </g>
        <g
           id="g225"
           transform="translate(753.6787,974.6895)">
          <path
             d="m 0,0 c 0,-3.237 -2.624,-5.861 -5.861,-5.861 -3.237,0 -5.862,2.624 -5.862,5.861 0,3.237 2.625,5.861 5.862,5.861 C -2.624,5.861 0,3.237 0,0"
             style="fill:#ffffff;fill-opacity:1;fill-rule:nonzero;stroke:none"
             id="path227" />
        </g>
        <g
           id="g229"
           transform="translate(872.7568,888.9282)">
          <path
             d="m 0,0 c 0,-3.237 -2.624,-5.861 -5.861,-5.861 -3.237,0 -5.862,2.624 -5.862,5.861 0,3.237 2.625,5.861 5.862,5.861 C -2.624,5.861 0,3.237 0,0"
             style="fill:#ffffff;fill-opacity:1;fill-rule:nonzero;stroke:none"
             id="path231" />
        </g>
        <g
           id="g233"
           transform="translate(1051.0654,806.8691)">
          <path
             d="m 0,0 c 0,-3.237 -2.624,-5.861 -5.861,-5.861 -3.237,0 -5.862,2.624 -5.862,5.861 0,3.237 2.625,5.861 5.862,5.861 C -2.624,5.861 0,3.237 0,0"
             style="fill:#ffffff;fill-opacity:1;fill-rule:nonzero;stroke:none"
             id="path235" />
        </g>
        <g
           id="g237"
           transform="translate(1085,912.9907)">
          <path
             d="m 0,0 c 0,-3.237 -2.624,-5.861 -5.861,-5.861 -3.238,0 -5.862,2.624 -5.862,5.861 0,3.237 2.624,5.861 5.862,5.861 C -2.624,5.861 0,3.237 0,0"
             style="fill:#ffffff;fill-opacity:1;fill-rule:nonzero;stroke:none"
             id="path239" />
        </g>
        <g
           id="g241"
           transform="translate(588.9438,709.3857)">
          <path
             d="m 0,0 c 0,-3.237 -2.625,-5.861 -5.861,-5.861 -3.238,0 -5.862,2.624 -5.862,5.861 0,3.237 2.624,5.861 5.862,5.861 C -2.625,5.861 0,3.237 0,0"
             style="fill:#ffffff;fill-opacity:1;fill-rule:nonzero;stroke:none"
             id="path243" />
        </g>
        <g
           id="g245"
           transform="translate(426.0596,722.3423)">
          <path
             d="m 0,0 c 0,-3.237 -2.624,-5.861 -5.861,-5.861 -3.238,0 -5.862,2.624 -5.862,5.861 0,3.237 2.624,5.861 5.862,5.861 C -2.624,5.861 0,3.237 0,0"
             style="fill:#ffffff;fill-opacity:1;fill-rule:nonzero;stroke:none"
             id="path247" />
        </g>
        <g
           id="g249"
           transform="translate(549.4565,613.7529)">
          <path
             d="m 0,0 c 0,-3.237 -2.624,-5.861 -5.861,-5.861 -3.237,0 -5.862,2.624 -5.862,5.861 0,3.237 2.625,5.861 5.862,5.861 C -2.624,5.861 0,3.237 0,0"
             style="fill:#ffffff;fill-opacity:1;fill-rule:nonzero;stroke:none"
             id="path251" />
        </g>
        <g
           id="g253"
           transform="translate(284.1528,515.0352)">
          <path
             d="m 0,0 c 0,-3.237 -2.624,-5.861 -5.861,-5.861 -3.237,0 -5.862,2.624 -5.862,5.861 0,3.237 2.625,5.861 5.862,5.861 C -2.624,5.861 0,3.237 0,0"
             style="fill:#ffffff;fill-opacity:1;fill-rule:nonzero;stroke:none"
             id="path255" />
        </g>
        <g
           id="g257"
           transform="translate(728.9995,508.248)">
          <path
             d="m 0,0 c 0,-3.237 -2.625,-5.861 -5.861,-5.861 -3.238,0 -5.862,2.624 -5.862,5.861 0,3.237 2.624,5.861 5.862,5.861 C -2.625,5.861 0,3.237 0,0"
             style="fill:#ffffff;fill-opacity:1;fill-rule:nonzero;stroke:none"
             id="path259" />
        </g>
        <g
           id="g261"
           transform="translate(853.6304,703.8325)">
          <path
             d="m 0,0 c 0,-3.237 -2.624,-5.861 -5.861,-5.861 -3.238,0 -5.862,2.624 -5.862,5.861 0,3.237 2.624,5.861 5.862,5.861 C -2.624,5.861 0,3.237 0,0"
             style="fill:#ffffff;fill-opacity:1;fill-rule:nonzero;stroke:none"
             id="path263" />
        </g>
        <g
           id="g265"
           transform="translate(999.2393,901.2681)">
          <path
             d="m 0,0 c 0,-6.645 -5.387,-12.031 -12.031,-12.031 -6.645,0 -12.031,5.386 -12.031,12.031 0,6.645 5.386,12.031 12.031,12.031 C -5.387,12.031 0,6.645 0,0"
             style="fill:#ffffff;fill-opacity:1;fill-rule:nonzero;stroke:none"
             id="path267" />
        </g>
        <g
           id="g269"
           transform="translate(999.2393,1003.6875)">
          <path
             d="m 0,0 c 0,-6.645 -5.387,-12.031 -12.031,-12.031 -6.645,0 -12.031,5.386 -12.031,12.031 0,6.645 5.386,12.031 12.031,12.031 C -5.387,12.031 0,6.645 0,0"
             style="fill:#ffffff;fill-opacity:1;fill-rule:nonzero;stroke:none"
             id="path271" />
        </g>
        <g
           id="g273"
           transform="translate(12.0625,980.2422)">
          <path
             d="m 0,0 c 0,-6.645 -5.387,-12.031 -12.031,-12.031 -6.645,0 -12.031,5.386 -12.031,12.031 0,6.645 5.386,12.031 12.031,12.031 C -5.387,12.031 0,6.645 0,0"
             style="fill:#ffffff;fill-opacity:1;fill-rule:nonzero;stroke:none"
             id="path275" />
        </g>
        <g
           id="g277"
           transform="translate(1768.9297,715.9609)">
          <path
             d="M 0,0 C -0.672,6.439 4.003,12.205 10.441,12.877 16.881,13.55 22.646,8.875 23.318,2.436 23.991,-4.003 19.316,-9.769 12.877,-10.441 6.438,-11.114 0.673,-6.439 0,0"
             style="fill:#ffffff;fill-opacity:1;fill-rule:nonzero;stroke:none"
             id="path279" />
        </g>
        <g
           id="g281"
           transform="translate(1618.2441,756.9834)">
          <path
             d="M 0,0 C -0.336,3.22 2.001,6.102 5.221,6.438 8.44,6.775 11.323,4.437 11.659,1.218 11.996,-2.002 9.658,-4.885 6.438,-5.221 3.22,-5.557 0.337,-3.22 0,0"
             style="fill:#ffffff;fill-opacity:1;fill-rule:nonzero;stroke:none"
             id="path283" />
        </g>
        <g
           id="g285"
           transform="translate(1854.9316,878.4785)">
          <path
             d="M 0,0 C -0.336,3.22 2.001,6.102 5.221,6.438 8.44,6.775 11.323,4.437 11.659,1.218 11.996,-2.002 9.658,-4.884 6.438,-5.221 3.219,-5.557 0.337,-3.22 0,0"
             style="fill:#ffffff;fill-opacity:1;fill-rule:nonzero;stroke:none"
             id="path287" />
        </g>
        <g
           id="g289"
           transform="translate(1661.6826,679.6353)">
          <path
             d="M 0,0 C -0.336,3.22 2.001,6.102 5.221,6.438 8.44,6.775 11.323,4.437 11.659,1.218 11.996,-2.002 9.658,-4.884 6.438,-5.221 3.219,-5.557 0.337,-3.22 0,0"
             style="fill:#ffffff;fill-opacity:1;fill-rule:nonzero;stroke:none"
             id="path291" />
        </g>
        <g
           id="g293"
           transform="translate(1243.7393,814.6396)">
          <path
             d="M 0,0 C -0.336,3.22 2.001,6.103 5.221,6.438 8.44,6.775 11.323,4.437 11.659,1.218 11.995,-2.002 9.658,-4.884 6.438,-5.221 3.219,-5.557 0.336,-3.22 0,0"
             style="fill:#ffffff;fill-opacity:1;fill-rule:nonzero;stroke:none"
             id="path295" />
        </g>
        <g
           id="g297"
           transform="translate(1420.1846,800.1914)">
          <path
             d="M 0,0 C -0.336,3.219 2.001,6.102 5.221,6.438 8.44,6.775 11.323,4.437 11.659,1.218 11.996,-2.002 9.658,-4.885 6.438,-5.221 3.219,-5.557 0.337,-3.22 0,0"
             style="fill:#ffffff;fill-opacity:1;fill-rule:nonzero;stroke:none"
             id="path299" />
        </g>
        <g
           id="g301"
           transform="translate(1681.0117,821.231)">
          <path
             d="M 0,0 C -0.336,3.22 2.002,6.103 5.221,6.438 8.44,6.775 11.323,4.437 11.66,1.218 11.996,-2.001 9.658,-4.884 6.438,-5.221 3.22,-5.557 0.337,-3.219 0,0"
             style="fill:#ffffff;fill-opacity:1;fill-rule:nonzero;stroke:none"
             id="path303" />
        </g>
        <g
           id="g305"
           transform="translate(1478.0391,697.6743)">
          <path
             d="M 0,0 C -0.337,3.22 2.001,6.102 5.221,6.438 8.439,6.775 11.322,4.437 11.659,1.218 11.995,-2.002 9.658,-4.885 6.438,-5.221 3.219,-5.557 0.336,-3.22 0,0"
             style="fill:#ffffff;fill-opacity:1;fill-rule:nonzero;stroke:none"
             id="path307" />
        </g>
        <g
           id="g309"
           transform="translate(1691.3838,947.6235)">
          <path
             d="M 0,0 C -0.337,3.22 2.001,6.102 5.221,6.438 8.44,6.775 11.322,4.437 11.659,1.218 11.995,-2.002 9.658,-4.885 6.438,-5.221 3.219,-5.557 0.336,-3.22 0,0"
             style="fill:#ffffff;fill-opacity:1;fill-rule:nonzero;stroke:none"
             id="path311" />
        </g>
        <g
           id="g313"
           transform="translate(1353.127,581.0303)">
          <path
             d="M 0,0 C -0.337,3.22 2.001,6.102 5.221,6.438 8.439,6.775 11.322,4.437 11.659,1.218 11.995,-2.002 9.657,-4.885 6.438,-5.221 3.219,-5.557 0.336,-3.22 0,0"
             style="fill:#ffffff;fill-opacity:1;fill-rule:nonzero;stroke:none"
             id="path315" />
        </g>
        <g
           id="g317"
           transform="translate(1505.9707,614.3643)">
          <path
             d="M 0,0 C -0.336,3.22 2.001,6.102 5.221,6.438 8.44,6.775 11.323,4.437 11.659,1.218 11.996,-2.002 9.658,-4.884 6.438,-5.221 3.219,-5.557 0.337,-3.22 0,0"
             style="fill:#ffffff;fill-opacity:1;fill-rule:nonzero;stroke:none"
             id="path319" />
        </g>
        <g
           id="g321"
           transform="translate(1205.8975,583.0215)">
          <path
             d="M 0,0 C -0.336,3.22 2.001,6.103 5.221,6.439 8.44,6.775 11.323,4.437 11.659,1.218 11.995,-2.001 9.658,-4.884 6.438,-5.221 3.219,-5.557 0.336,-3.219 0,0"
             style="fill:#ffffff;fill-opacity:1;fill-rule:nonzero;stroke:none"
             id="path323" />
        </g>
        <g
           id="g325"
           transform="translate(1078.5547,655.9482)">
          <path
             d="M 0,0 C -0.337,3.22 2.001,6.103 5.221,6.438 8.44,6.775 11.322,4.437 11.659,1.218 11.995,-2.002 9.658,-4.884 6.438,-5.221 3.219,-5.557 0.336,-3.22 0,0"
             style="fill:#ffffff;fill-opacity:1;fill-rule:nonzero;stroke:none"
             id="path327" />
        </g>
        <g
           id="g329"
           transform="translate(892.6855,719.04)">
          <path
             d="M 0,0 C -0.336,3.22 2.001,6.102 5.221,6.438 8.44,6.775 11.323,4.437 11.66,1.218 11.996,-2.002 9.658,-4.885 6.438,-5.221 3.219,-5.557 0.336,-3.22 0,0"
             style="fill:#ffffff;fill-opacity:1;fill-rule:nonzero;stroke:none"
             id="path331" />
        </g>
        <g
           id="g333"
           transform="translate(869.9595,609.9673)">
          <path
             d="M 0,0 C -0.336,3.22 2.001,6.103 5.221,6.438 8.44,6.775 11.323,4.437 11.659,1.218 11.996,-2.002 9.658,-4.884 6.438,-5.221 3.219,-5.557 0.336,-3.22 0,0"
             style="fill:#ffffff;fill-opacity:1;fill-rule:nonzero;stroke:none"
             id="path335" />
        </g>
        <g
           id="g337"
           transform="translate(1342.1807,864.0034)">
          <path
             d="M 0,0 C -0.337,3.22 2.001,6.102 5.221,6.438 8.44,6.775 11.322,4.437 11.659,1.218 11.995,-2.002 9.658,-4.884 6.438,-5.221 3.219,-5.557 0.336,-3.22 0,0"
             style="fill:#ffffff;fill-opacity:1;fill-rule:nonzero;stroke:none"
             id="path339" />
        </g>
        <g
           id="g341"
           transform="translate(1505.5293,868.0381)">
          <path
             d="M 0,0 C -0.336,3.219 2.001,6.102 5.221,6.438 8.44,6.774 11.323,4.437 11.659,1.218 11.995,-2.002 9.658,-4.885 6.438,-5.221 3.219,-5.557 0.336,-3.22 0,0"
             style="fill:#ffffff;fill-opacity:1;fill-rule:nonzero;stroke:none"
             id="path343" />
        </g>
        <g
           id="g345"
           transform="translate(1371.5186,963.2207)">
          <path
             d="M 0,0 C -0.336,3.22 2.002,6.103 5.222,6.438 8.44,6.775 11.323,4.437 11.66,1.218 11.996,-2.002 9.658,-4.884 6.439,-5.221 3.22,-5.557 0.337,-3.22 0,0"
             style="fill:#ffffff;fill-opacity:1;fill-rule:nonzero;stroke:none"
             id="path347" />
        </g>
        <g
           id="g349"
           transform="translate(1181.9873,1049.5029)">
          <path
             d="M 0,0 C -0.336,3.219 2.001,6.102 5.221,6.438 8.44,6.774 11.323,4.437 11.659,1.218 11.996,-2.002 9.658,-4.885 6.438,-5.221 3.219,-5.557 0.336,-3.22 0,0"
             style="fill:#ffffff;fill-opacity:1;fill-rule:nonzero;stroke:none"
             id="path351" />
        </g>
        <g
           id="g353"
           transform="translate(1078.3486,842.0293)">
          <path
             d="M 0,0 C -0.336,3.22 2.001,6.103 5.221,6.438 8.44,6.775 11.323,4.437 11.659,1.218 11.996,-2.002 9.658,-4.884 6.438,-5.221 3.219,-5.557 0.337,-3.22 0,0"
             style="fill:#ffffff;fill-opacity:1;fill-rule:nonzero;stroke:none"
             id="path355" />
        </g>
        <g
           id="g357"
           transform="translate(954.0386,630.5356)">
          <path
             d="M 0,0 C -0.69,6.609 4.107,12.526 10.716,13.216 17.325,13.906 23.242,9.109 23.932,2.5 24.623,-4.109 19.825,-10.026 13.216,-10.716 6.607,-11.406 0.69,-6.608 0,0"
             style="fill:#ffffff;fill-opacity:1;fill-rule:nonzero;stroke:none"
             id="path359" />
        </g>
        <g
           id="g361"
           transform="translate(964.6787,528.6709)">
          <path
             d="M 0,0 C -0.69,6.608 4.107,12.525 10.716,13.215 17.324,13.906 23.241,9.108 23.932,2.499 24.622,-4.109 19.824,-10.026 13.216,-10.717 6.607,-11.407 0.69,-6.609 0,0"
             style="fill:#ffffff;fill-opacity:1;fill-rule:nonzero;stroke:none"
             id="path363" />
        </g>
        <g
           id="g365"
           transform="translate(1103.874,189.915)">
          <path
             d="M 0,0 C 0.187,6.472 5.585,11.566 12.057,11.379 18.528,11.192 23.623,5.795 23.436,-0.677 23.249,-7.148 17.852,-12.243 11.38,-12.057 4.908,-11.869 -0.187,-6.472 0,0"
             style="fill:#ffffff;fill-opacity:1;fill-rule:nonzero;stroke:none"
             id="path367" />
        </g>
        <g
           id="g369"
           transform="translate(959.9551,250.5469)">
          <path
             d="M 0,0 C 0.094,3.236 2.793,5.783 6.028,5.69 9.264,5.597 11.812,2.897 11.718,-0.338 11.625,-3.574 8.926,-6.121 5.69,-6.027 2.454,-5.935 -0.093,-3.235 0,0"
             style="fill:#ffffff;fill-opacity:1;fill-rule:nonzero;stroke:none"
             id="path371" />
        </g>
        <g
           id="g373"
           transform="translate(1210.6572,339.5996)">
          <path
             d="M 0,0 C 0.094,3.236 2.793,5.783 6.028,5.689 9.264,5.597 11.812,2.897 11.718,-0.338 11.625,-3.574 8.926,-6.121 5.69,-6.028 2.454,-5.935 -0.093,-3.235 0,0"
             style="fill:#ffffff;fill-opacity:1;fill-rule:nonzero;stroke:none"
             id="path375" />
        </g>
        <g
           id="g377"
           transform="translate(992.7588,168.124)">
          <path
             d="M 0,0 C 0.094,3.236 2.792,5.783 6.028,5.689 9.264,5.597 11.812,2.897 11.718,-0.338 11.624,-3.574 8.926,-6.121 5.689,-6.028 2.454,-5.935 -0.094,-3.235 0,0"
             style="fill:#ffffff;fill-opacity:1;fill-rule:nonzero;stroke:none"
             id="path379" />
        </g>
        <g
           id="g381"
           transform="translate(596.396,357.332)">
          <path
             d="M 0,0 C 0.093,3.236 2.792,5.783 6.028,5.689 9.264,5.597 11.811,2.897 11.718,-0.338 11.625,-3.574 8.926,-6.121 5.69,-6.028 2.454,-5.935 -0.093,-3.235 0,0"
             style="fill:#ffffff;fill-opacity:1;fill-rule:nonzero;stroke:none"
             id="path383" />
        </g>
        <g
           id="g385"
           transform="translate(769.3696,319.625)">
          <path
             d="M 0,0 C 0.094,3.235 2.792,5.783 6.028,5.689 9.264,5.597 11.812,2.897 11.718,-0.339 11.625,-3.574 8.926,-6.121 5.69,-6.028 2.454,-5.935 -0.093,-3.236 0,0"
             style="fill:#ffffff;fill-opacity:1;fill-rule:nonzero;stroke:none"
             id="path387" />
        </g>
        <g
           id="g389"
           transform="translate(1030.6846,305.9092)">
          <path
             d="M 0,0 C 0.094,3.235 2.792,5.783 6.028,5.689 9.264,5.596 11.812,2.897 11.718,-0.339 11.624,-3.574 8.926,-6.122 5.689,-6.028 2.454,-5.935 -0.094,-3.236 0,0"
             style="fill:#ffffff;fill-opacity:1;fill-rule:nonzero;stroke:none"
             id="path391" />
        </g>
        <g
           id="g393"
           transform="translate(813.1255,210.3447)">
          <path
             d="M 0,0 C 0.093,3.235 2.792,5.783 6.028,5.689 9.264,5.596 11.812,2.897 11.718,-0.339 11.625,-3.574 8.926,-6.122 5.69,-6.028 2.454,-5.935 -0.093,-3.236 0,0"
             style="fill:#ffffff;fill-opacity:1;fill-rule:nonzero;stroke:none"
             id="path395" />
        </g>
        <g
           id="g397"
           transform="translate(1057.7168,429.8115)">
          <path
             d="M 0,0 C 0.094,3.235 2.792,5.783 6.028,5.689 9.264,5.597 11.812,2.897 11.718,-0.338 11.624,-3.574 8.926,-6.121 5.689,-6.028 2.454,-5.935 -0.094,-3.236 0,0"
             style="fill:#ffffff;fill-opacity:1;fill-rule:nonzero;stroke:none"
             id="path399" />
        </g>
        <g
           id="g401"
           transform="translate(673.8555,111.2852)">
          <path
             d="M 0,0 C 0.093,3.236 2.792,5.783 6.028,5.689 9.264,5.597 11.811,2.897 11.718,-0.338 11.625,-3.574 8.925,-6.121 5.689,-6.028 2.454,-5.935 -0.094,-3.235 0,0"
             style="fill:#ffffff;fill-opacity:1;fill-rule:nonzero;stroke:none"
             id="path403" />
        </g>
        <g
           id="g405"
           transform="translate(829.7695,124.0674)">
          <path
             d="M 0,0 C 0.093,3.235 2.792,5.783 6.028,5.689 9.264,5.596 11.811,2.897 11.718,-0.339 11.625,-3.574 8.925,-6.122 5.689,-6.028 2.454,-5.935 -0.094,-3.236 0,0"
             style="fill:#ffffff;fill-opacity:1;fill-rule:nonzero;stroke:none"
             id="path407" />
        </g>
        <g
           id="g409"
           transform="translate(528.189,132.7734)">
          <path
             d="M 0,0 C 0.094,3.235 2.792,5.783 6.028,5.689 9.264,5.596 11.812,2.897 11.718,-0.339 11.625,-3.574 8.926,-6.122 5.69,-6.028 2.454,-5.935 -0.093,-3.236 0,0"
             style="fill:#ffffff;fill-opacity:1;fill-rule:nonzero;stroke:none"
             id="path411" />
        </g>
        <g
           id="g413"
           transform="translate(411.6353,221.9346)">
          <path
             d="M 0,0 C 0.093,3.235 2.792,5.783 6.028,5.689 9.264,5.597 11.812,2.897 11.718,-0.338 11.625,-3.574 8.926,-6.121 5.69,-6.028 2.454,-5.935 -0.093,-3.235 0,0"
             style="fill:#ffffff;fill-opacity:1;fill-rule:nonzero;stroke:none"
             id="path415" />
        </g>
        <g
           id="g417"
           transform="translate(235.7686,309.1045)">
          <path
             d="M 0,0 C 0.094,3.236 2.792,5.783 6.028,5.69 9.264,5.597 11.812,2.897 11.718,-0.338 11.625,-3.574 8.926,-6.121 5.69,-6.028 2.454,-5.935 -0.093,-3.235 0,0"
             style="fill:#ffffff;fill-opacity:1;fill-rule:nonzero;stroke:none"
             id="path419" />
        </g>
        <g
           id="g421"
           transform="translate(198.7861,204.0068)">
          <path
             d="M 0,0 C 0.094,3.235 2.792,5.783 6.028,5.689 9.264,5.596 11.812,2.897 11.718,-0.339 11.625,-3.574 8.926,-6.122 5.69,-6.028 2.454,-5.935 -0.093,-3.236 0,0"
             style="fill:#ffffff;fill-opacity:1;fill-rule:nonzero;stroke:none"
             id="path423" />
        </g>
        <g
           id="g425"
           transform="translate(700.5112,393.2129)">
          <path
             d="M 0,0 C 0.093,3.235 2.792,5.783 6.028,5.689 9.264,5.597 11.812,2.897 11.718,-0.338 11.625,-3.574 8.926,-6.121 5.69,-6.028 2.454,-5.935 -0.093,-3.236 0,0"
             style="fill:#ffffff;fill-opacity:1;fill-rule:nonzero;stroke:none"
             id="path427" />
        </g>
        <g
           id="g429"
           transform="translate(862.9536,375.5615)">
          <path
             d="M 0,0 C 0.093,3.235 2.792,5.783 6.028,5.689 9.264,5.597 11.812,2.897 11.718,-0.339 11.625,-3.574 8.926,-6.122 5.69,-6.028 2.454,-5.935 -0.093,-3.236 0,0"
             style="fill:#ffffff;fill-opacity:1;fill-rule:nonzero;stroke:none"
             id="path431" />
        </g>
        <g
           id="g433"
           transform="translate(742.7417,487.666)">
          <path
             d="M 0,0 C 0.093,3.236 2.792,5.783 6.028,5.69 9.264,5.597 11.811,2.897 11.718,-0.338 11.624,-3.574 8.925,-6.121 5.689,-6.027 2.454,-5.935 -0.094,-3.235 0,0"
             style="fill:#ffffff;fill-opacity:1;fill-rule:nonzero;stroke:none"
             id="path435" />
        </g>
        <g
           id="g437"
           transform="translate(1010.7832,578.687)">
          <path
             d="M 0,0 C 0.094,3.236 2.792,5.783 6.028,5.69 9.264,5.597 11.812,2.898 11.718,-0.338 11.625,-3.574 8.926,-6.121 5.689,-6.028 2.454,-5.935 -0.094,-3.235 0,0"
             style="fill:#ffffff;fill-opacity:1;fill-rule:nonzero;stroke:none"
             id="path439" />
        </g>
        <g
           id="g441"
           transform="translate(566.3179,598.3076)">
          <path
             d="M 0,0 C 0.093,3.236 2.792,5.783 6.028,5.69 9.264,5.597 11.812,2.897 11.718,-0.338 11.625,-3.574 8.926,-6.122 5.69,-6.028 2.454,-5.935 -0.093,-3.236 0,0"
             style="fill:#ffffff;fill-opacity:1;fill-rule:nonzero;stroke:none"
             id="path443" />
        </g>
        <g
           id="g445"
           transform="translate(436.0952,406.4014)">
          <path
             d="M 0,0 C 0.093,3.235 2.792,5.783 6.028,5.689 9.264,5.596 11.811,2.897 11.718,-0.339 11.624,-3.574 8.925,-6.122 5.689,-6.028 2.454,-5.935 -0.094,-3.236 0,0"
             style="fill:#ffffff;fill-opacity:1;fill-rule:nonzero;stroke:none"
             id="path447" />
        </g>
        <g
           id="g449"
           transform="translate(284.8501,213.25)">
          <path
             d="M 0,0 C 0.191,6.642 5.731,11.87 12.373,11.679 19.015,11.487 24.244,5.947 24.052,-0.694 23.86,-7.337 18.321,-12.565 11.679,-12.374 5.037,-12.182 -0.192,-6.643 0,0"
             style="fill:#ffffff;fill-opacity:1;fill-rule:nonzero;stroke:none"
             id="path451" />
        </g>
        <g
           id="g453"
           transform="translate(281.8945,110.873)">
          <path
             d="M 0,0 C 0.192,6.642 5.731,11.87 12.374,11.679 19.015,11.487 24.244,5.947 24.052,-0.694 23.861,-7.337 18.321,-12.565 11.679,-12.374 5.037,-12.182 -0.192,-6.643 0,0"
             style="fill:#ffffff;fill-opacity:1;fill-rule:nonzero;stroke:none"
             id="path455" />
        </g>
        <g
           id="g457"
           transform="translate(1269.3369,105.8223)">
          <path
             d="M 0,0 C 0.191,6.643 5.731,11.871 12.373,11.68 19.015,11.487 24.244,5.948 24.052,-0.694 23.86,-7.336 18.32,-12.564 11.679,-12.373 5.037,-12.182 -0.192,-6.642 0,0"
             style="fill:#ffffff;fill-opacity:1;fill-rule:nonzero;stroke:none"
             id="path459" />
        </g>
        <g
           id="g461"
           transform="translate(1771.874,244.915)">
          <path
             d="M 0,0 C 0.187,6.472 5.585,11.566 12.057,11.379 18.528,11.192 23.623,5.795 23.436,-0.677 23.249,-7.148 17.852,-12.243 11.38,-12.057 4.908,-11.869 -0.187,-6.472 0,0"
             style="fill:#ffffff;fill-opacity:1;fill-rule:nonzero;stroke:none"
             id="path463" />
        </g>
        <g
           id="g465"
           transform="translate(1627.9551,305.5469)">
          <path
             d="M 0,0 C 0.094,3.236 2.793,5.783 6.028,5.69 9.264,5.597 11.812,2.897 11.718,-0.338 11.625,-3.574 8.926,-6.121 5.69,-6.027 2.454,-5.935 -0.093,-3.235 0,0"
             style="fill:#ffffff;fill-opacity:1;fill-rule:nonzero;stroke:none"
             id="path467" />
        </g>
        <g
           id="g469"
           transform="translate(1878.6572,394.5996)">
          <path
             d="M 0,0 C 0.094,3.236 2.793,5.783 6.028,5.689 9.264,5.597 11.812,2.897 11.718,-0.338 11.625,-3.574 8.926,-6.121 5.69,-6.028 2.454,-5.935 -0.093,-3.235 0,0"
             style="fill:#ffffff;fill-opacity:1;fill-rule:nonzero;stroke:none"
             id="path471" />
        </g>
        <g
           id="g473"
           transform="translate(1660.7588,223.124)">
          <path
             d="M 0,0 C 0.094,3.236 2.792,5.783 6.028,5.689 9.264,5.597 11.812,2.897 11.718,-0.338 11.624,-3.574 8.926,-6.121 5.689,-6.028 2.454,-5.935 -0.094,-3.235 0,0"
             style="fill:#ffffff;fill-opacity:1;fill-rule:nonzero;stroke:none"
             id="path475" />
        </g>
        <g
           id="g477"
           transform="translate(1264.3955,412.332)">
          <path
             d="M 0,0 C 0.094,3.236 2.793,5.783 6.028,5.689 9.265,5.597 11.812,2.897 11.719,-0.338 11.625,-3.574 8.926,-6.121 5.69,-6.028 2.454,-5.935 -0.093,-3.235 0,0"
             style="fill:#ffffff;fill-opacity:1;fill-rule:nonzero;stroke:none"
             id="path479" />
        </g>
        <g
           id="g481"
           transform="translate(1437.3701,374.625)">
          <path
             d="M 0,0 C 0.093,3.235 2.792,5.783 6.027,5.689 9.264,5.597 11.811,2.897 11.718,-0.339 11.624,-3.574 8.925,-6.121 5.689,-6.028 2.454,-5.935 -0.094,-3.236 0,0"
             style="fill:#ffffff;fill-opacity:1;fill-rule:nonzero;stroke:none"
             id="path483" />
        </g>
        <g
           id="g485"
           transform="translate(1698.6846,360.9092)">
          <path
             d="M 0,0 C 0.094,3.235 2.792,5.783 6.028,5.689 9.264,5.596 11.812,2.897 11.718,-0.339 11.624,-3.574 8.926,-6.122 5.689,-6.028 2.454,-5.935 -0.094,-3.236 0,0"
             style="fill:#ffffff;fill-opacity:1;fill-rule:nonzero;stroke:none"
             id="path487" />
        </g>
        <g
           id="g489"
           transform="translate(1481.126,265.3447)">
          <path
             d="M 0,0 C 0.093,3.235 2.792,5.783 6.027,5.689 9.264,5.596 11.811,2.897 11.718,-0.339 11.624,-3.574 8.925,-6.122 5.689,-6.028 2.453,-5.935 -0.094,-3.236 0,0"
             style="fill:#ffffff;fill-opacity:1;fill-rule:nonzero;stroke:none"
             id="path491" />
        </g>
        <g
           id="g493"
           transform="translate(1725.7168,484.8115)">
          <path
             d="M 0,0 C 0.094,3.235 2.792,5.783 6.028,5.689 9.264,5.597 11.812,2.897 11.718,-0.338 11.624,-3.574 8.926,-6.121 5.689,-6.028 2.454,-5.935 -0.094,-3.236 0,0"
             style="fill:#ffffff;fill-opacity:1;fill-rule:nonzero;stroke:none"
             id="path495" />
        </g>
        <g
           id="g497"
           transform="translate(1341.8555,166.2852)">
          <path
             d="M 0,0 C 0.094,3.236 2.792,5.783 6.028,5.689 9.264,5.597 11.812,2.897 11.718,-0.338 11.624,-3.574 8.926,-6.121 5.689,-6.028 2.454,-5.935 -0.094,-3.235 0,0"
             style="fill:#ffffff;fill-opacity:1;fill-rule:nonzero;stroke:none"
             id="path499" />
        </g>
        <g
           id="g501"
           transform="translate(1497.7695,179.0674)">
          <path
             d="M 0,0 C 0.094,3.235 2.792,5.783 6.028,5.689 9.264,5.596 11.812,2.897 11.718,-0.339 11.624,-3.574 8.926,-6.122 5.689,-6.028 2.454,-5.935 -0.094,-3.236 0,0"
             style="fill:#ffffff;fill-opacity:1;fill-rule:nonzero;stroke:none"
             id="path503" />
        </g>
        <g
           id="g505"
           transform="translate(1196.1895,187.7734)">
          <path
             d="M 0,0 C 0.093,3.235 2.792,5.783 6.027,5.689 9.264,5.596 11.811,2.897 11.718,-0.339 11.624,-3.574 8.926,-6.122 5.689,-6.028 2.454,-5.935 -0.094,-3.236 0,0"
             style="fill:#ffffff;fill-opacity:1;fill-rule:nonzero;stroke:none"
             id="path507" />
        </g>
        <g
           id="g509"
           transform="translate(1079.6357,276.9346)">
          <path
             d="M 0,0 C 0.093,3.235 2.792,5.783 6.027,5.689 9.264,5.597 11.811,2.897 11.718,-0.338 11.624,-3.574 8.925,-6.121 5.689,-6.028 2.453,-5.935 -0.094,-3.235 0,0"
             style="fill:#ffffff;fill-opacity:1;fill-rule:nonzero;stroke:none"
             id="path511" />
        </g>
        <g
           id="g513"
           transform="translate(903.7686,364.1045)">
          <path
             d="M 0,0 C 0.094,3.236 2.792,5.783 6.028,5.69 9.264,5.597 11.812,2.897 11.718,-0.338 11.625,-3.574 8.926,-6.121 5.69,-6.028 2.454,-5.935 -0.093,-3.235 0,0"
             style="fill:#ffffff;fill-opacity:1;fill-rule:nonzero;stroke:none"
             id="path515" />
        </g>
        <g
           id="g517"
           transform="translate(866.7861,259.0068)">
          <path
             d="M 0,0 C 0.094,3.235 2.792,5.783 6.028,5.689 9.264,5.596 11.812,2.897 11.718,-0.339 11.625,-3.574 8.926,-6.122 5.69,-6.028 2.454,-5.935 -0.093,-3.236 0,0"
             style="fill:#ffffff;fill-opacity:1;fill-rule:nonzero;stroke:none"
             id="path519" />
        </g>
        <g
           id="g521"
           transform="translate(1368.5117,448.2129)">
          <path
             d="M 0,0 C 0.093,3.235 2.792,5.783 6.027,5.689 9.264,5.597 11.811,2.897 11.718,-0.338 11.624,-3.574 8.925,-6.121 5.689,-6.028 2.453,-5.935 -0.094,-3.236 0,0"
             style="fill:#ffffff;fill-opacity:1;fill-rule:nonzero;stroke:none"
             id="path523" />
        </g>
        <g
           id="g525"
           transform="translate(1530.9541,430.5615)">
          <path
             d="M 0,0 C 0.093,3.235 2.792,5.783 6.027,5.689 9.264,5.597 11.811,2.897 11.718,-0.339 11.624,-3.574 8.925,-6.122 5.689,-6.028 2.453,-5.935 -0.094,-3.236 0,0"
             style="fill:#ffffff;fill-opacity:1;fill-rule:nonzero;stroke:none"
             id="path527" />
        </g>
        <g
           id="g529"
           transform="translate(1410.7412,542.6665)">
          <path
             d="M 0,0 C 0.094,3.235 2.793,5.783 6.028,5.689 9.264,5.596 11.812,2.897 11.718,-0.338 11.625,-3.574 8.926,-6.122 5.69,-6.028 2.454,-5.935 -0.093,-3.236 0,0"
             style="fill:#ffffff;fill-opacity:1;fill-rule:nonzero;stroke:none"
             id="path531" />
        </g>
        <g
           id="g533"
           transform="translate(1678.7832,633.687)">
          <path
             d="M 0,0 C 0.094,3.236 2.792,5.783 6.028,5.69 9.264,5.597 11.812,2.898 11.718,-0.338 11.625,-3.574 8.926,-6.121 5.689,-6.028 2.454,-5.935 -0.094,-3.235 0,0"
             style="fill:#ffffff;fill-opacity:1;fill-rule:nonzero;stroke:none"
             id="path535" />
        </g>
        <g
           id="g537"
           transform="translate(1234.3184,653.3076)">
          <path
             d="M 0,0 C 0.093,3.236 2.792,5.783 6.027,5.69 9.264,5.597 11.811,2.897 11.718,-0.338 11.624,-3.574 8.925,-6.122 5.689,-6.028 2.453,-5.935 -0.094,-3.236 0,0"
             style="fill:#ffffff;fill-opacity:1;fill-rule:nonzero;stroke:none"
             id="path539" />
        </g>
        <g
           id="g541"
           transform="translate(1104.0947,461.4014)">
          <path
             d="M 0,0 C 0.094,3.235 2.793,5.783 6.028,5.689 9.264,5.596 11.812,2.897 11.718,-0.339 11.625,-3.574 8.926,-6.122 5.69,-6.028 2.454,-5.935 -0.093,-3.236 0,0"
             style="fill:#ffffff;fill-opacity:1;fill-rule:nonzero;stroke:none"
             id="path543" />
        </g>
        <g
           id="g545"
           transform="translate(952.8501,268.25)">
          <path
             d="M 0,0 C 0.191,6.642 5.731,11.87 12.374,11.679 19.015,11.487 24.244,5.947 24.052,-0.694 23.861,-7.337 18.321,-12.565 11.679,-12.374 5.037,-12.182 -0.192,-6.643 0,0"
             style="fill:#ffffff;fill-opacity:1;fill-rule:nonzero;stroke:none"
             id="path547" />
        </g>
        <g
           id="g549"
           transform="translate(949.8945,165.873)">
          <path
             d="M 0,0 C 0.192,6.642 5.731,11.87 12.373,11.679 19.016,11.487 24.244,5.947 24.053,-0.694 23.86,-7.337 18.321,-12.565 11.679,-12.374 5.037,-12.182 -0.192,-6.643 0,0"
             style="fill:#ffffff;fill-opacity:1;fill-rule:nonzero;stroke:none"
             id="path551" />
        </g>
        <g
           id="g553"
           transform="translate(1242.9541,918.8408)">
          <path
             d="m 0,0 h -2.408 c -1.324,0 -2.407,1.083 -2.407,2.408 v 45.343 c 0,1.325 1.083,2.408 2.407,2.408 H 0 c 1.324,0 2.407,-1.083 2.407,-2.408 V 2.408 C 2.407,1.083 1.324,0 0,0"
             style="fill:#ffffff;fill-opacity:1;fill-rule:nonzero;stroke:none"
             id="path555" />
        </g>
        <g
           id="g557"
           transform="translate(1240.3242,939.2607)">
          <path
             d="m 0,0 -2.342,2.342 c -0.761,0.761 -0.761,2.005 0,2.765 l 17.276,17.276 c 0.76,0.761 2.004,0.761 2.765,0 l 2.342,-2.342 c 0.761,-0.76 0.761,-2.005 0,-2.765 L 2.765,0 C 2.005,-0.761 0.76,-0.761 0,0"
             style="fill:#ffffff;fill-opacity:1;fill-rule:nonzero;stroke:none"
             id="path559" />
        </g>
        <g
           id="g561"
           transform="translate(1243.1758,939.2607)">
          <path
             d="m 0,0 2.342,2.342 c 0.761,0.761 0.761,2.005 0,2.765 l -17.276,17.276 c -0.76,0.761 -2.004,0.761 -2.765,0 l -2.342,-2.342 c -0.761,-0.76 -0.761,-2.005 0,-2.765 L -2.765,0 C -2.005,-0.761 -0.76,-0.761 0,0"
             style="fill:#ffffff;fill-opacity:1;fill-rule:nonzero;stroke:none"
             id="path563" />
        </g>
        <g
           id="g565"
           transform="translate(1240.5459,924.6592)">
          <path
             d="m 0,0 h 2.408 c 1.324,0 2.407,-1.083 2.407,-2.408 v -45.343 c 0,-1.325 -1.083,-2.408 -2.407,-2.408 H 0 c -1.324,0 -2.407,1.083 -2.407,2.408 V -2.408 C -2.407,-1.083 -1.324,0 0,0"
             style="fill:#ffffff;fill-opacity:1;fill-rule:nonzero;stroke:none"
             id="path567" />
        </g>
        <g
           id="g569"
           transform="translate(1243.1758,904.2393)">
          <path
             d="m 0,0 2.342,-2.342 c 0.761,-0.761 0.761,-2.005 0,-2.765 l -17.276,-17.276 c -0.76,-0.761 -2.004,-0.761 -2.765,0 l -2.342,2.342 c -0.761,0.76 -0.761,2.005 0,2.765 L -2.765,0 C -2.005,0.761 -0.76,0.761 0,0"
             style="fill:#ffffff;fill-opacity:1;fill-rule:nonzero;stroke:none"
             id="path571" />
        </g>
        <g
           id="g573"
           transform="translate(1240.3242,904.2393)">
          <path
             d="m 0,0 -2.342,-2.342 c -0.761,-0.761 -0.761,-2.005 0,-2.765 l 17.276,-17.276 c 0.76,-0.761 2.004,-0.761 2.765,0 l 2.342,2.342 c 0.761,0.76 0.761,2.005 0,2.765 L 2.765,0 C 2.005,0.761 0.76,0.761 0,0"
             style="fill:#ffffff;fill-opacity:1;fill-rule:nonzero;stroke:none"
             id="path575" />
        </g>
        <g
           id="g577"
           transform="translate(1238.8408,920.5464)">
          <path
             d="m 0,0 v 2.407 c 0,1.324 1.083,2.408 2.407,2.408 h 45.345 c 1.324,0 2.407,-1.084 2.407,-2.408 V 0 c 0,-1.324 -1.083,-2.408 -2.407,-2.408 H 2.407 C 1.083,-2.408 0,-1.324 0,0"
             style="fill:#ffffff;fill-opacity:1;fill-rule:nonzero;stroke:none"
             id="path579" />
        </g>
        <g
           id="g581"
           transform="translate(1259.2607,923.1763)">
          <path
             d="m 0,0 2.342,2.342 c 0.761,0.76 2.005,0.76 2.765,0 l 17.276,-17.276 c 0.761,-0.76 0.761,-2.005 0,-2.766 l -2.342,-2.342 c -0.761,-0.76 -2.005,-0.76 -2.766,0 L 0,-2.766 C -0.761,-2.005 -0.761,-0.761 0,0"
             style="fill:#ffffff;fill-opacity:1;fill-rule:nonzero;stroke:none"
             id="path583" />
        </g>
        <g
           id="g585"
           transform="translate(1259.2607,920.3237)">
          <path
             d="m 0,0 2.342,-2.342 c 0.761,-0.76 2.005,-0.76 2.765,0 l 17.276,17.276 c 0.761,0.76 0.761,2.005 0,2.766 l -2.342,2.342 c -0.761,0.76 -2.005,0.76 -2.766,0 L 0,2.766 C -0.761,2.005 -0.761,0.761 0,0"
             style="fill:#ffffff;fill-opacity:1;fill-rule:nonzero;stroke:none"
             id="path587" />
        </g>
        <g
           id="g589"
           transform="translate(1244.6592,922.9536)">
          <path
             d="m 0,0 v -2.407 c 0,-1.324 -1.083,-2.408 -2.407,-2.408 h -45.345 c -1.324,0 -2.407,1.084 -2.407,2.408 V 0 c 0,1.324 1.083,2.408 2.407,2.408 H -2.407 C -1.083,2.408 0,1.324 0,0"
             style="fill:#ffffff;fill-opacity:1;fill-rule:nonzero;stroke:none"
             id="path591" />
        </g>
        <g
           id="g593"
           transform="translate(1224.2393,920.3237)">
          <path
             d="m 0,0 -2.342,-2.342 c -0.761,-0.76 -2.005,-0.76 -2.765,0 l -17.276,17.276 c -0.761,0.76 -0.761,2.005 0,2.766 l 2.342,2.342 c 0.761,0.76 2.005,0.76 2.766,0 L 0,2.766 C 0.761,2.005 0.761,0.761 0,0"
             style="fill:#ffffff;fill-opacity:1;fill-rule:nonzero;stroke:none"
             id="path595" />
        </g>
        <g
           id="g597"
           transform="translate(1224.2393,923.1763)">
          <path
             d="m 0,0 -2.342,2.342 c -0.761,0.76 -2.005,0.76 -2.765,0 l -17.276,-17.276 c -0.761,-0.76 -0.761,-2.005 0,-2.766 l 2.342,-2.342 c 0.761,-0.76 2.005,-0.76 2.766,0 L 0,-2.766 C 0.761,-2.005 0.761,-0.761 0,0"
             style="fill:#ffffff;fill-opacity:1;fill-rule:nonzero;stroke:none"
             id="path599" />
        </g>
        <g
           id="g601"
           transform="translate(603.9536,241.8408)">
          <path
             d="m 0,0 h -2.407 c -1.324,0 -2.408,1.083 -2.408,2.407 v 45.345 c 0,1.324 1.084,2.407 2.408,2.407 H 0 c 1.324,0 2.408,-1.083 2.408,-2.407 V 2.407 C 2.408,1.083 1.324,0 0,0"
             style="fill:#ffffff;fill-opacity:1;fill-rule:nonzero;stroke:none"
             id="path603" />
        </g>
        <g
           id="g605"
           transform="translate(601.3237,262.2607)">
          <path
             d="m 0,0 -2.342,2.342 c -0.76,0.761 -0.76,2.005 0,2.765 l 17.276,17.276 c 0.76,0.761 2.005,0.761 2.766,0 l 2.342,-2.342 c 0.76,-0.761 0.76,-2.005 0,-2.766 L 2.766,0 C 2.005,-0.761 0.761,-0.761 0,0"
             style="fill:#ffffff;fill-opacity:1;fill-rule:nonzero;stroke:none"
             id="path607" />
        </g>
        <g
           id="g609"
           transform="translate(604.1763,262.2607)">
          <path
             d="m 0,0 2.342,2.342 c 0.76,0.761 0.76,2.005 0,2.765 l -17.276,17.276 c -0.76,0.761 -2.005,0.761 -2.766,0 l -2.342,-2.342 c -0.76,-0.761 -0.76,-2.005 0,-2.766 L -2.766,0 C -2.005,-0.761 -0.761,-0.761 0,0"
             style="fill:#ffffff;fill-opacity:1;fill-rule:nonzero;stroke:none"
             id="path611" />
        </g>
        <g
           id="g613"
           transform="translate(601.5464,247.6592)">
          <path
             d="m 0,0 h 2.407 c 1.324,0 2.408,-1.083 2.408,-2.407 v -45.345 c 0,-1.324 -1.084,-2.407 -2.408,-2.407 H 0 c -1.324,0 -2.408,1.083 -2.408,2.407 V -2.407 C -2.408,-1.083 -1.324,0 0,0"
             style="fill:#ffffff;fill-opacity:1;fill-rule:nonzero;stroke:none"
             id="path615" />
        </g>
        <g
           id="g617"
           transform="translate(604.1763,227.2393)">
          <path
             d="m 0,0 2.342,-2.342 c 0.76,-0.761 0.76,-2.005 0,-2.765 l -17.276,-17.276 c -0.76,-0.761 -2.005,-0.761 -2.766,0 l -2.342,2.342 c -0.76,0.761 -0.76,2.005 0,2.766 L -2.766,0 C -2.005,0.761 -0.761,0.761 0,0"
             style="fill:#ffffff;fill-opacity:1;fill-rule:nonzero;stroke:none"
             id="path619" />
        </g>
        <g
           id="g621"
           transform="translate(601.3237,227.2393)">
          <path
             d="m 0,0 -2.342,-2.342 c -0.76,-0.761 -0.76,-2.005 0,-2.765 l 17.276,-17.276 c 0.76,-0.761 2.005,-0.761 2.766,0 l 2.342,2.342 c 0.76,0.761 0.76,2.005 0,2.766 L 2.766,0 C 2.005,0.761 0.761,0.761 0,0"
             style="fill:#ffffff;fill-opacity:1;fill-rule:nonzero;stroke:none"
             id="path623" />
        </g>
        <g
           id="g625"
           transform="translate(599.8408,243.5459)">
          <path
             d="m 0,0 v 2.408 c 0,1.324 1.083,2.407 2.408,2.407 h 45.343 c 1.325,0 2.408,-1.083 2.408,-2.407 V 0 c 0,-1.324 -1.083,-2.407 -2.408,-2.407 H 2.408 C 1.083,-2.407 0,-1.324 0,0"
             style="fill:#ffffff;fill-opacity:1;fill-rule:nonzero;stroke:none"
             id="path627" />
        </g>
        <g
           id="g629"
           transform="translate(620.2607,246.1758)">
          <path
             d="m 0,0 2.342,2.342 c 0.761,0.761 2.005,0.761 2.765,0 l 17.276,-17.276 c 0.761,-0.76 0.761,-2.004 0,-2.765 l -2.342,-2.342 c -0.76,-0.761 -2.005,-0.761 -2.765,0 L 0,-2.765 C -0.761,-2.005 -0.761,-0.76 0,0"
             style="fill:#ffffff;fill-opacity:1;fill-rule:nonzero;stroke:none"
             id="path631" />
        </g>
        <g
           id="g633"
           transform="translate(620.2607,243.3242)">
          <path
             d="m 0,0 2.342,-2.342 c 0.761,-0.761 2.005,-0.761 2.765,0 l 17.276,17.276 c 0.761,0.76 0.761,2.004 0,2.765 l -2.342,2.342 c -0.76,0.761 -2.005,0.761 -2.765,0 L 0,2.765 C -0.761,2.005 -0.761,0.76 0,0"
             style="fill:#ffffff;fill-opacity:1;fill-rule:nonzero;stroke:none"
             id="path635" />
        </g>
        <g
           id="g637"
           transform="translate(605.6592,245.9541)">
          <path
             d="m 0,0 v -2.408 c 0,-1.324 -1.083,-2.407 -2.408,-2.407 h -45.343 c -1.325,0 -2.408,1.083 -2.408,2.407 V 0 c 0,1.324 1.083,2.407 2.408,2.407 H -2.408 C -1.083,2.407 0,1.324 0,0"
             style="fill:#ffffff;fill-opacity:1;fill-rule:nonzero;stroke:none"
             id="path639" />
        </g>
        <g
           id="g641"
           transform="translate(585.2393,243.3242)">
          <path
             d="m 0,0 -2.342,-2.342 c -0.761,-0.761 -2.005,-0.761 -2.765,0 l -17.276,17.276 c -0.761,0.76 -0.761,2.004 0,2.765 l 2.342,2.342 c 0.76,0.761 2.005,0.761 2.765,0 L 0,2.765 C 0.761,2.005 0.761,0.76 0,0"
             style="fill:#ffffff;fill-opacity:1;fill-rule:nonzero;stroke:none"
             id="path643" />
        </g>
        <g
           id="g645"
           transform="translate(585.2393,246.1758)">
          <path
             d="m 0,0 -2.342,2.342 c -0.761,0.761 -2.005,0.761 -2.765,0 l -17.276,-17.276 c -0.761,-0.76 -0.761,-2.004 0,-2.765 l 2.342,-2.342 c 0.76,-0.761 2.005,-0.761 2.765,0 L 0,-2.765 C 0.761,-2.005 0.761,-0.76 0,0"
             style="fill:#ffffff;fill-opacity:1;fill-rule:nonzero;stroke:none"
             id="path647" />
        </g>
        <g
           id="g649"
           transform="translate(331.9536,676.8408)">
          <path
             d="m 0,0 h -2.407 c -1.324,0 -2.408,1.083 -2.408,2.408 v 45.343 c 0,1.325 1.084,2.408 2.408,2.408 H 0 c 1.324,0 2.408,-1.083 2.408,-2.408 V 2.408 C 2.408,1.083 1.324,0 0,0"
             style="fill:#ffffff;fill-opacity:1;fill-rule:nonzero;stroke:none"
             id="path651" />
        </g>
        <g
           id="g653"
           transform="translate(329.3237,697.2607)">
          <path
             d="m 0,0 -2.342,2.342 c -0.76,0.761 -0.76,2.005 0,2.765 l 17.276,17.276 c 0.76,0.761 2.005,0.761 2.766,0 l 2.342,-2.342 c 0.76,-0.76 0.76,-2.005 0,-2.765 L 2.766,0 C 2.005,-0.761 0.761,-0.761 0,0"
             style="fill:#ffffff;fill-opacity:1;fill-rule:nonzero;stroke:none"
             id="path655" />
        </g>
        <g
           id="g657"
           transform="translate(332.1763,697.2607)">
          <path
             d="m 0,0 2.342,2.342 c 0.76,0.761 0.76,2.005 0,2.765 l -17.276,17.276 c -0.76,0.761 -2.005,0.761 -2.766,0 l -2.342,-2.342 c -0.76,-0.76 -0.76,-2.005 0,-2.765 L -2.766,0 C -2.005,-0.761 -0.761,-0.761 0,0"
             style="fill:#ffffff;fill-opacity:1;fill-rule:nonzero;stroke:none"
             id="path659" />
        </g>
        <g
           id="g661"
           transform="translate(329.5464,682.6592)">
          <path
             d="m 0,0 h 2.407 c 1.324,0 2.408,-1.083 2.408,-2.408 v -45.343 c 0,-1.325 -1.084,-2.408 -2.408,-2.408 H 0 c -1.324,0 -2.408,1.083 -2.408,2.408 V -2.408 C -2.408,-1.083 -1.324,0 0,0"
             style="fill:#ffffff;fill-opacity:1;fill-rule:nonzero;stroke:none"
             id="path663" />
        </g>
        <g
           id="g665"
           transform="translate(332.1763,662.2393)">
          <path
             d="m 0,0 2.342,-2.342 c 0.76,-0.761 0.76,-2.005 0,-2.765 l -17.276,-17.276 c -0.76,-0.761 -2.005,-0.761 -2.766,0 l -2.342,2.342 c -0.76,0.76 -0.76,2.005 0,2.765 L -2.766,0 C -2.005,0.761 -0.761,0.761 0,0"
             style="fill:#ffffff;fill-opacity:1;fill-rule:nonzero;stroke:none"
             id="path667" />
        </g>
        <g
           id="g669"
           transform="translate(329.3237,662.2393)">
          <path
             d="m 0,0 -2.342,-2.342 c -0.76,-0.761 -0.76,-2.005 0,-2.765 l 17.276,-17.276 c 0.76,-0.761 2.005,-0.761 2.766,0 l 2.342,2.342 c 0.76,0.76 0.76,2.005 0,2.765 L 2.766,0 C 2.005,0.761 0.761,0.761 0,0"
             style="fill:#ffffff;fill-opacity:1;fill-rule:nonzero;stroke:none"
             id="path671" />
        </g>
        <g
           id="g673"
           transform="translate(327.8408,678.5464)">
          <path
             d="m 0,0 v 2.407 c 0,1.324 1.083,2.408 2.408,2.408 h 45.343 c 1.325,0 2.408,-1.084 2.408,-2.408 V 0 c 0,-1.324 -1.083,-2.408 -2.408,-2.408 H 2.408 C 1.083,-2.408 0,-1.324 0,0"
             style="fill:#ffffff;fill-opacity:1;fill-rule:nonzero;stroke:none"
             id="path675" />
        </g>
        <g
           id="g677"
           transform="translate(348.2607,681.1763)">
          <path
             d="m 0,0 2.342,2.342 c 0.761,0.76 2.005,0.76 2.765,0 l 17.276,-17.276 c 0.761,-0.76 0.761,-2.005 0,-2.766 l -2.342,-2.342 c -0.76,-0.76 -2.005,-0.76 -2.765,0 L 0,-2.766 C -0.761,-2.005 -0.761,-0.761 0,0"
             style="fill:#ffffff;fill-opacity:1;fill-rule:nonzero;stroke:none"
             id="path679" />
        </g>
        <g
           id="g681"
           transform="translate(348.2607,678.3237)">
          <path
             d="m 0,0 2.342,-2.342 c 0.761,-0.76 2.005,-0.76 2.765,0 l 17.276,17.276 c 0.761,0.76 0.761,2.005 0,2.766 l -2.342,2.342 c -0.76,0.76 -2.005,0.76 -2.765,0 L 0,2.766 C -0.761,2.005 -0.761,0.761 0,0"
             style="fill:#ffffff;fill-opacity:1;fill-rule:nonzero;stroke:none"
             id="path683" />
        </g>
        <g
           id="g685"
           transform="translate(333.6592,680.9536)">
          <path
             d="m 0,0 v -2.407 c 0,-1.324 -1.083,-2.408 -2.408,-2.408 h -45.343 c -1.325,0 -2.408,1.084 -2.408,2.408 V 0 c 0,1.324 1.083,2.408 2.408,2.408 H -2.408 C -1.083,2.408 0,1.324 0,0"
             style="fill:#ffffff;fill-opacity:1;fill-rule:nonzero;stroke:none"
             id="path687" />
        </g>
        <g
           id="g689"
           transform="translate(313.2393,678.3237)">
          <path
             d="m 0,0 -2.342,-2.342 c -0.761,-0.76 -2.005,-0.76 -2.765,0 l -17.276,17.276 c -0.761,0.76 -0.761,2.005 0,2.766 l 2.342,2.342 c 0.76,0.76 2.005,0.76 2.765,0 L 0,2.766 C 0.761,2.005 0.761,0.761 0,0"
             style="fill:#ffffff;fill-opacity:1;fill-rule:nonzero;stroke:none"
             id="path691" />
        </g>
        <g
           id="g693"
           transform="translate(313.2393,681.1763)">
          <path
             d="m 0,0 -2.342,2.342 c -0.761,0.76 -2.005,0.76 -2.765,0 l -17.276,-17.276 c -0.761,-0.76 -0.761,-2.005 0,-2.766 l 2.342,-2.342 c 0.76,-0.76 2.005,-0.76 2.765,0 L 0,-2.766 C 0.761,-2.005 0.761,-0.761 0,0"
             style="fill:#ffffff;fill-opacity:1;fill-rule:nonzero;stroke:none"
             id="path695" />
        </g>
        <g
           id="g697"
           transform="translate(1784.9541,336.8408)">
          <path
             d="m 0,0 h -2.408 c -1.324,0 -2.407,1.083 -2.407,2.407 v 45.345 c 0,1.324 1.083,2.407 2.407,2.407 H 0 c 1.324,0 2.407,-1.083 2.407,-2.407 V 2.407 C 2.407,1.083 1.324,0 0,0"
             style="fill:#ffffff;fill-opacity:1;fill-rule:nonzero;stroke:none"
             id="path699" />
        </g>
        <g
           id="g701"
           transform="translate(1782.3242,357.2607)">
          <path
             d="m 0,0 -2.342,2.342 c -0.761,0.761 -0.761,2.005 0,2.765 l 17.276,17.276 c 0.76,0.761 2.004,0.761 2.765,0 l 2.342,-2.342 c 0.761,-0.761 0.761,-2.005 0,-2.766 L 2.765,0 C 2.005,-0.761 0.76,-0.761 0,0"
             style="fill:#ffffff;fill-opacity:1;fill-rule:nonzero;stroke:none"
             id="path703" />
        </g>
        <g
           id="g705"
           transform="translate(1785.1758,357.2607)">
          <path
             d="m 0,0 2.342,2.342 c 0.761,0.761 0.761,2.005 0,2.765 l -17.276,17.276 c -0.76,0.761 -2.004,0.761 -2.765,0 l -2.342,-2.342 c -0.761,-0.761 -0.761,-2.005 0,-2.766 L -2.765,0 C -2.005,-0.761 -0.76,-0.761 0,0"
             style="fill:#ffffff;fill-opacity:1;fill-rule:nonzero;stroke:none"
             id="path707" />
        </g>
        <g
           id="g709"
           transform="translate(1782.5459,342.6592)">
          <path
             d="m 0,0 h 2.408 c 1.324,0 2.407,-1.083 2.407,-2.407 v -45.345 c 0,-1.324 -1.083,-2.407 -2.407,-2.407 H 0 c -1.324,0 -2.407,1.083 -2.407,2.407 V -2.407 C -2.407,-1.083 -1.324,0 0,0"
             style="fill:#ffffff;fill-opacity:1;fill-rule:nonzero;stroke:none"
             id="path711" />
        </g>
        <g
           id="g713"
           transform="translate(1785.1758,322.2393)">
          <path
             d="m 0,0 2.342,-2.342 c 0.761,-0.761 0.761,-2.005 0,-2.765 l -17.276,-17.276 c -0.76,-0.761 -2.004,-0.761 -2.765,0 l -2.342,2.342 c -0.761,0.761 -0.761,2.005 0,2.766 L -2.765,0 C -2.005,0.761 -0.76,0.761 0,0"
             style="fill:#ffffff;fill-opacity:1;fill-rule:nonzero;stroke:none"
             id="path715" />
        </g>
        <g
           id="g717"
           transform="translate(1782.3242,322.2393)">
          <path
             d="m 0,0 -2.342,-2.342 c -0.761,-0.761 -0.761,-2.005 0,-2.765 l 17.276,-17.276 c 0.76,-0.761 2.004,-0.761 2.765,0 l 2.342,2.342 c 0.761,0.761 0.761,2.005 0,2.766 L 2.765,0 C 2.005,0.761 0.76,0.761 0,0"
             style="fill:#ffffff;fill-opacity:1;fill-rule:nonzero;stroke:none"
             id="path719" />
        </g>
        <g
           id="g721"
           transform="translate(1780.8408,338.5459)">
          <path
             d="m 0,0 v 2.408 c 0,1.324 1.083,2.407 2.407,2.407 h 45.345 c 1.324,0 2.407,-1.083 2.407,-2.407 V 0 c 0,-1.324 -1.083,-2.407 -2.407,-2.407 H 2.407 C 1.083,-2.407 0,-1.324 0,0"
             style="fill:#ffffff;fill-opacity:1;fill-rule:nonzero;stroke:none"
             id="path723" />
        </g>
        <g
           id="g725"
           transform="translate(1801.2607,341.1758)">
          <path
             d="m 0,0 2.342,2.342 c 0.761,0.761 2.005,0.761 2.765,0 l 17.276,-17.276 c 0.761,-0.76 0.761,-2.004 0,-2.765 l -2.342,-2.342 c -0.761,-0.761 -2.005,-0.761 -2.766,0 L 0,-2.765 C -0.761,-2.005 -0.761,-0.76 0,0"
             style="fill:#ffffff;fill-opacity:1;fill-rule:nonzero;stroke:none"
             id="path727" />
        </g>
        <g
           id="g729"
           transform="translate(1801.2607,338.3242)">
          <path
             d="m 0,0 2.342,-2.342 c 0.761,-0.761 2.005,-0.761 2.765,0 l 17.276,17.276 c 0.761,0.76 0.761,2.004 0,2.765 l -2.342,2.342 c -0.761,0.761 -2.005,0.761 -2.766,0 L 0,2.765 C -0.761,2.005 -0.761,0.76 0,0"
             style="fill:#ffffff;fill-opacity:1;fill-rule:nonzero;stroke:none"
             id="path731" />
        </g>
        <g
           id="g733"
           transform="translate(1786.6592,340.9541)">
          <path
             d="m 0,0 v -2.408 c 0,-1.324 -1.083,-2.407 -2.407,-2.407 h -45.345 c -1.324,0 -2.407,1.083 -2.407,2.407 V 0 c 0,1.324 1.083,2.407 2.407,2.407 H -2.407 C -1.083,2.407 0,1.324 0,0"
             style="fill:#ffffff;fill-opacity:1;fill-rule:nonzero;stroke:none"
             id="path735" />
        </g>
        <g
           id="g737"
           transform="translate(1766.2393,338.3242)">
          <path
             d="m 0,0 -2.342,-2.342 c -0.761,-0.761 -2.005,-0.761 -2.765,0 l -17.276,17.276 c -0.761,0.76 -0.761,2.004 0,2.765 l 2.342,2.342 c 0.761,0.761 2.005,0.761 2.766,0 L 0,2.765 C 0.761,2.005 0.761,0.76 0,0"
             style="fill:#ffffff;fill-opacity:1;fill-rule:nonzero;stroke:none"
             id="path739" />
        </g>
        <g
           id="g741"
           transform="translate(1766.2393,341.1758)">
          <path
             d="m 0,0 -2.342,2.342 c -0.761,0.761 -2.005,0.761 -2.765,0 l -17.276,-17.276 c -0.761,-0.76 -0.761,-2.004 0,-2.765 l 2.342,-2.342 c 0.761,-0.761 2.005,-0.761 2.766,0 L 0,-2.765 C 0.761,-2.005 0.761,-0.76 0,0"
             style="fill:#ffffff;fill-opacity:1;fill-rule:nonzero;stroke:none"
             id="path743" />
        </g>
        <g
           id="g745"
           transform="translate(1317.9541,481.8408)">
          <path
             d="m 0,0 h -2.408 c -1.324,0 -2.407,1.083 -2.407,2.407 v 45.345 c 0,1.324 1.083,2.407 2.407,2.407 H 0 c 1.324,0 2.407,-1.083 2.407,-2.407 V 2.407 C 2.407,1.083 1.324,0 0,0"
             style="fill:#ffffff;fill-opacity:1;fill-rule:nonzero;stroke:none"
             id="path747" />
        </g>
        <g
           id="g749"
           transform="translate(1315.3242,502.2607)">
          <path
             d="m 0,0 -2.342,2.342 c -0.761,0.761 -0.761,2.005 0,2.765 l 17.276,17.276 c 0.76,0.761 2.004,0.761 2.765,0 l 2.342,-2.342 c 0.761,-0.761 0.761,-2.005 0,-2.766 L 2.765,0 C 2.005,-0.761 0.76,-0.761 0,0"
             style="fill:#ffffff;fill-opacity:1;fill-rule:nonzero;stroke:none"
             id="path751" />
        </g>
        <g
           id="g753"
           transform="translate(1318.1758,502.2607)">
          <path
             d="m 0,0 2.342,2.342 c 0.761,0.761 0.761,2.005 0,2.765 l -17.276,17.276 c -0.76,0.761 -2.004,0.761 -2.765,0 l -2.342,-2.342 c -0.761,-0.761 -0.761,-2.005 0,-2.766 L -2.765,0 C -2.005,-0.761 -0.76,-0.761 0,0"
             style="fill:#ffffff;fill-opacity:1;fill-rule:nonzero;stroke:none"
             id="path755" />
        </g>
        <g
           id="g757"
           transform="translate(1315.5459,487.6592)">
          <path
             d="m 0,0 h 2.408 c 1.324,0 2.407,-1.083 2.407,-2.407 v -45.345 c 0,-1.324 -1.083,-2.407 -2.407,-2.407 H 0 c -1.324,0 -2.407,1.083 -2.407,2.407 V -2.407 C -2.407,-1.083 -1.324,0 0,0"
             style="fill:#ffffff;fill-opacity:1;fill-rule:nonzero;stroke:none"
             id="path759" />
        </g>
        <g
           id="g761"
           transform="translate(1318.1758,467.2393)">
          <path
             d="m 0,0 2.342,-2.342 c 0.761,-0.761 0.761,-2.005 0,-2.765 l -17.276,-17.276 c -0.76,-0.761 -2.004,-0.761 -2.765,0 l -2.342,2.342 c -0.761,0.761 -0.761,2.005 0,2.766 L -2.765,0 C -2.005,0.761 -0.76,0.761 0,0"
             style="fill:#ffffff;fill-opacity:1;fill-rule:nonzero;stroke:none"
             id="path763" />
        </g>
        <g
           id="g765"
           transform="translate(1315.3242,467.2393)">
          <path
             d="m 0,0 -2.342,-2.342 c -0.761,-0.761 -0.761,-2.005 0,-2.765 l 17.276,-17.276 c 0.76,-0.761 2.004,-0.761 2.765,0 l 2.342,2.342 c 0.761,0.761 0.761,2.005 0,2.766 L 2.765,0 C 2.005,0.761 0.76,0.761 0,0"
             style="fill:#ffffff;fill-opacity:1;fill-rule:nonzero;stroke:none"
             id="path767" />
        </g>
        <g
           id="g769"
           transform="translate(1313.8408,483.5459)">
          <path
             d="m 0,0 v 2.408 c 0,1.324 1.083,2.407 2.407,2.407 h 45.345 c 1.324,0 2.407,-1.083 2.407,-2.407 V 0 c 0,-1.324 -1.083,-2.407 -2.407,-2.407 H 2.407 C 1.083,-2.407 0,-1.324 0,0"
             style="fill:#ffffff;fill-opacity:1;fill-rule:nonzero;stroke:none"
             id="path771" />
        </g>
        <g
           id="g773"
           transform="translate(1334.2607,486.1758)">
          <path
             d="m 0,0 2.342,2.342 c 0.761,0.761 2.005,0.761 2.765,0 l 17.276,-17.276 c 0.761,-0.76 0.761,-2.004 0,-2.765 l -2.342,-2.342 c -0.761,-0.761 -2.005,-0.761 -2.766,0 L 0,-2.765 C -0.761,-2.005 -0.761,-0.76 0,0"
             style="fill:#ffffff;fill-opacity:1;fill-rule:nonzero;stroke:none"
             id="path775" />
        </g>
        <g
           id="g777"
           transform="translate(1334.2607,483.3242)">
          <path
             d="m 0,0 2.342,-2.342 c 0.761,-0.761 2.005,-0.761 2.765,0 l 17.276,17.276 c 0.761,0.76 0.761,2.004 0,2.765 l -2.342,2.342 c -0.761,0.761 -2.005,0.761 -2.766,0 L 0,2.765 C -0.761,2.005 -0.761,0.76 0,0"
             style="fill:#ffffff;fill-opacity:1;fill-rule:nonzero;stroke:none"
             id="path779" />
        </g>
        <g
           id="g781"
           transform="translate(1319.6592,485.9541)">
          <path
             d="m 0,0 v -2.408 c 0,-1.324 -1.083,-2.407 -2.407,-2.407 h -45.345 c -1.324,0 -2.407,1.083 -2.407,2.407 V 0 c 0,1.324 1.083,2.407 2.407,2.407 H -2.407 C -1.083,2.407 0,1.324 0,0"
             style="fill:#ffffff;fill-opacity:1;fill-rule:nonzero;stroke:none"
             id="path783" />
        </g>
        <g
           id="g785"
           transform="translate(1299.2393,483.3242)">
          <path
             d="m 0,0 -2.342,-2.342 c -0.761,-0.761 -2.005,-0.761 -2.765,0 l -17.276,17.276 c -0.761,0.76 -0.761,2.004 0,2.765 l 2.342,2.342 c 0.761,0.761 2.005,0.761 2.766,0 L 0,2.765 C 0.761,2.005 0.761,0.76 0,0"
             style="fill:#ffffff;fill-opacity:1;fill-rule:nonzero;stroke:none"
             id="path787" />
        </g>
        <g
           id="g789"
           transform="translate(1299.2393,486.1758)">
          <path
             d="m 0,0 -2.342,2.342 c -0.761,0.761 -2.005,0.761 -2.765,0 l -17.276,-17.276 c -0.761,-0.76 -0.761,-2.004 0,-2.765 l 2.342,-2.342 c 0.761,-0.761 2.005,-0.761 2.766,0 L 0,-2.765 C 0.761,-2.005 0.761,-0.76 0,0"
             style="fill:#ffffff;fill-opacity:1;fill-rule:nonzero;stroke:none"
             id="path791" />
        </g>
      </g>
    </g>
    <g
       id="g793"
       transform="translate(0,1080)">
      <path
         d="M 0,0 V -1080 H 245.903 L 214,-578 204.556,0 Z"
         style="fill:#02011f;fill-opacity:1;fill-rule:nonzero;stroke:none"
         id="path795" />
    </g>
    <g
       id="g797">
      <g
         id="g799"
         clip-path="url(#clipPath803)">
        <g
           id="g805"
           transform="translate(149.8345,1110.814)">
          <path
             d="m 0,0 16.166,-350.814 -42,236 c 0,0 28,-436 21,-474 -7,-38 33,200 33,200 L 71.944,-731.209 54.166,3.186 Z"
             style="fill:#284f94;fill-opacity:1;fill-rule:nonzero;stroke:none"
             id="path807" />
        </g>
        <g
           id="g809"
           transform="translate(212,102)">
          <path
             d="M 0,0 -39,296 V -42 L -72,-134.751 36,-135 Z"
             style="fill:#4271b7;fill-opacity:1;fill-rule:nonzero;stroke:none"
             id="path811" />
        </g>
      </g>
    </g>
  </g>
</svg>
