<svg xmlns="http://www.w3.org/2000/svg" xmlns:xl="http://www.w3.org/1999/xlink" width="1440" height="695" version="1.1" viewBox="523 191 1440 695"><defs><marker id="FilledArrow_Marker" stroke-linejoin="miter" stroke-miterlimit="10" color="#000" markerHeight="6" markerUnits="strokeWidth" markerWidth="7" orient="auto" overflow="visible" viewBox="-1 -3 7 6"><g><path fill="currentColor" stroke="currentColor" stroke-width="1" d="M 4.8 0 L 0 -1.8 L 0 1.8 Z"/></g></marker></defs><g id="runtimes" fill="none" fill-opacity="1" stroke="none" stroke-dasharray="none" stroke-opacity="1"><title>runtimes</title><rect width="1440" height="695" x="523" y="191" fill="#fff"/><g id="runtimes_v2"><title>v2</title><g id="Graphic_149"><rect width="1438.583" height="694.488" x="523.751" y="191.339" fill="#fff"/></g><g id="Graphic_128"><rect width="293.386" height="48.189" x="660.472" y="294.803" fill="#0a55a8"/><text fill="#fff" transform="translate(665.47245 309.1656)"><tspan x="85.549" y="16" fill="#fff" font-family="Helvetica Neue" font-size="16" font-weight="bold">Docker Engine</tspan></text></g><g id="Graphic_127"><rect width="190.63" height="48.189" x="548.918" y="603.279" fill="#0a55a8"/><text fill="#fff" transform="translate(553.91824 617.642)"><tspan x="27.819" y="16" fill="#fff" font-family="Helvetica Neue" font-size="16" font-weight="bold">containerd-shim</tspan></text></g><g id="Graphic_126"><rect width="190.63" height="48.189" x="548.918" y="797.953" fill="#333"/><rect width="190.63" height="48.189" x="548.918" y="797.953" stroke="gray" stroke-linecap="round" stroke-linejoin="round" stroke-width="1"/><text fill="#fff" transform="translate(553.91824 812.3152)"><tspan x="19.643" y="16" fill="#fff" font-family="Helvetica Neue" font-size="16" font-weight="bold">Container Process</tspan></text></g><g id="Graphic_125"><rect width="293.386" height="48.189" x="1077.293" y="409.606" fill="#0a55a8"/><text fill="#fff" transform="translate(1082.2927 423.96874)"><tspan x="100.805" y="16" fill="#fff" font-family="Helvetica Neue" font-size="16" font-weight="bold">containerd</tspan></text></g><g id="Graphic_124"><rect width="190.63" height="48.189" x="548.918" y="718.583" fill="#0a55a8"/><text fill="#fff" transform="translate(553.91824 732.9451)"><tspan x="73.123" y="16" fill="#fff" font-family="Helvetica Neue" font-size="16" font-weight="bold">runc</tspan></text></g><g id="Line_123"><line x1="644.233" x2="644.233" y1="651.468" y2="705.683" stroke="#000" stroke-linecap="round" stroke-linejoin="round" stroke-width="2" marker-end="url(#FilledArrow_Marker)"/></g><g id="Line_122"><line x1="644.233" x2="644.233" y1="766.772" y2="785.053" stroke="#000" stroke-linecap="round" stroke-linejoin="round" stroke-width="2" marker-end="url(#FilledArrow_Marker)"/></g><g id="Graphic_119"><rect width="146.012" height="48.189" x="965.197" y="797.953" fill="#333"/><rect width="146.012" height="48.189" x="965.197" y="797.953" stroke="gray" stroke-linecap="round" stroke-linejoin="round" stroke-width="1"/><text fill="#fff" transform="translate(970.1969 812.3152)"><tspan x="13.958" y="16" fill="#fff" font-family="Helvetica Neue" font-size="16" font-weight="bold">Wasm Module</tspan></text></g><g id="Graphic_118"><rect width="146.012" height="48.189" x="965.197" y="718.583" fill="#0a55a8"/><text fill="#fff" transform="translate(970.1969 732.9451)"><tspan x="26.398" y="16" fill="#fff" font-family="Helvetica Neue" font-size="16" font-weight="bold">wasmedge</tspan></text></g><g id="Line_116"><line x1="1038.203" x2="1038.203" y1="766.772" y2="785.053" stroke="#000" stroke-linecap="round" stroke-linejoin="round" stroke-width="2" marker-end="url(#FilledArrow_Marker)"/></g><g id="Graphic_114"><rect width="293.386" height="48.189" x="1077.293" y="603.279" fill="#0a55a8"/><text fill="#fff" transform="translate(1082.2927 617.642)"><tspan x="53.293" y="16" fill="#fff" font-family="Helvetica Neue" font-size="16" font-weight="bold">containerd-wasm-shim</tspan></text></g><g id="Graphic_113"><rect width="146.012" height="48.189" x="1151.027" y="796.953" fill="#333"/><rect width="146.012" height="48.189" x="1151.027" y="796.953" stroke="gray" stroke-linecap="round" stroke-linejoin="round" stroke-width="1"/><text fill="#fff" transform="translate(1156.027 811.3152)"><tspan x="13.958" y="16" fill="#fff" font-family="Helvetica Neue" font-size="16" font-weight="bold">Wasm Module</tspan></text></g><g id="Graphic_112"><rect width="146.012" height="48.189" x="1151.027" y="717.583" fill="#0a55a8"/><text fill="#fff" transform="translate(1156.027 731.9451)"><tspan x="52.014" y="16" fill="#fff" font-family="Helvetica Neue" font-size="16" font-weight="bold">spin</tspan></text></g><g id="Line_111"><path stroke="#000" stroke-linecap="round" stroke-linejoin="round" stroke-width="2" marker-end="url(#FilledArrow_Marker)" d="M 1223.9856 651.4685 L 1223.9856 662.4685 L 1224.0092 684.5256 L 1224.0328 698.6827 L 1224.0328 704.6827"/></g><g id="Line_110"><line x1="1224.033" x2="1224.033" y1="765.772" y2="784.053" stroke="#000" stroke-linecap="round" stroke-linejoin="round" stroke-width="2" marker-end="url(#FilledArrow_Marker)"/></g><g id="Graphic_107"><rect width="146.012" height="48.189" x="1336.857" y="794.584" fill="#333"/><rect width="146.012" height="48.189" x="1336.857" y="794.584" stroke="gray" stroke-linecap="round" stroke-linejoin="round" stroke-width="1"/><text fill="#fff" transform="translate(1341.8571 808.9463)"><tspan x="13.958" y="16" fill="#fff" font-family="Helvetica Neue" font-size="16" font-weight="bold">Wasm Module</tspan></text></g><g id="Graphic_106"><rect width="146.012" height="48.189" x="1336.857" y="715.214" fill="#0a55a8"/><text fill="#fff" transform="translate(1341.8571 729.5762)"><tspan x="47.134" y="16" fill="#fff" font-family="Helvetica Neue" font-size="16" font-weight="bold">slight</tspan></text></g><g id="Line_104"><line x1="1409.863" x2="1409.863" y1="763.403" y2="781.684" stroke="#000" stroke-linecap="round" stroke-linejoin="round" stroke-width="2" marker-end="url(#FilledArrow_Marker)"/></g><g id="Graphic_101"><rect width="146.012" height="48.189" x="779.367" y="797.953" fill="#333"/><rect width="146.012" height="48.189" x="779.367" y="797.953" stroke="gray" stroke-linecap="round" stroke-linejoin="round" stroke-width="1"/><text fill="#fff" transform="translate(784.3667 812.3152)"><tspan x="13.958" y="16" fill="#fff" font-family="Helvetica Neue" font-size="16" font-weight="bold">Wasm Module</tspan></text></g><g id="Graphic_100"><rect width="146.012" height="48.189" x="779.367" y="718.583" fill="#0a55a8"/><text fill="#fff" transform="translate(784.3667 732.9451)"><tspan x="28.638" y="16" fill="#fff" font-family="Helvetica Neue" font-size="16" font-weight="bold">wasmtime</tspan></text></g><g id="Line_98"><line x1="852.372" x2="852.372" y1="766.772" y2="785.053" stroke="#000" stroke-linecap="round" stroke-linejoin="round" stroke-width="2" marker-end="url(#FilledArrow_Marker)"/></g><g id="Line_97"><path stroke="#000" stroke-linecap="round" stroke-linejoin="round" stroke-width="2" marker-end="url(#FilledArrow_Marker)" d="M 807.1654 342.99213 L 807.1654 376.2992 L 1223.9856 376.2992 L 1223.9856 396.7063"/></g><g id="Line_95"><line x1="1223.986" x2="1223.986" y1="457.795" y2="590.38" stroke="#000" stroke-linecap="round" stroke-linejoin="round" stroke-width="2" marker-end="url(#FilledArrow_Marker)"/></g><g id="Line_92"><path stroke="#000" stroke-linecap="round" stroke-linejoin="round" stroke-width="2" marker-end="url(#FilledArrow_Marker)" d="M 1223.9856 539.1304 L 644.4034 539.1304 L 644.4034 573.58225 L 644.2332 584.3795 L 644.2332 590.3795"/></g><g id="Graphic_91"><rect width="293.386" height="48.189" x="1077.34" y="215.933" fill="#0a55a8"/><text fill="#fff" transform="translate(1082.3399 230.2955)"><tspan x="97.397" y="16" fill="#fff" font-family="Helvetica Neue" font-size="16" font-weight="bold">Kubernetes</tspan></text></g><g id="Graphic_90"><rect width="293.386" height="48.189" x="1418.432" y="409.606" fill="#0a55a8"/><text fill="#fff" transform="translate(1423.4324 423.96874)"><tspan x="118.149" y="16" fill="#fff" font-family="Helvetica Neue" font-size="16" font-weight="bold">CRI-O</tspan></text></g><g id="Graphic_86"><rect width="285.216" height="29.464" x="1081.378" y="479.565" fill="#fff"/><text fill="#000" transform="translate(1086.3776 484.5647)"><tspan x="0" y="16" fill="#000" font-family="Helvetica Neue" font-size="16" font-weight="bold">OCI (Open Container Initiative) Spec</tspan></text></g><g id="Graphic_131"><rect width="146.012" height="48.189" x="1418.432" y="603.279" fill="#0a55a8"/><text fill="#fff" transform="translate(1423.4324 617.642)"><tspan x="29.806" y="16" fill="#fff" font-family="Helvetica Neue" font-size="16" font-weight="bold">kata-shim</tspan></text></g><g id="Graphic_132"><rect width="146.012" height="48.189" x="1612.198" y="603.279" fill="#0a55a8"/><text fill="#fff" transform="translate(1617.198 617.642)"><tspan x="23.43" y="16" fill="#fff" font-family="Helvetica Neue" font-size="16" font-weight="bold">gvisor-shim</tspan></text></g><g id="Graphic_133"><rect width="146.012" height="48.189" x="1805.963" y="603.279" fill="#0a55a8"/><text fill="#fff" transform="translate(1810.9634 616.374)"><tspan x="60.006" y="17" fill="#fff" font-family="PingFang SC" font-size="16" font-weight="bold">…</tspan></text></g><g id="Line_134"><path stroke="#000" stroke-linecap="round" stroke-linejoin="round" stroke-width="2" marker-end="url(#FilledArrow_Marker)" d="M 1223.9856 538.5827 L 1491.4382 538.5827 L 1491.4382 590.3795"/></g><g id="Line_135"><path stroke="#000" stroke-linecap="round" stroke-linejoin="round" stroke-width="2" marker-end="url(#FilledArrow_Marker)" d="M 1223.9856 539.0476 L 1684.2757 539.0476 L 1684.2757 590.41296"/></g><g id="Line_136"><path stroke="#000" stroke-linecap="round" stroke-linejoin="round" stroke-width="2" marker-end="url(#FilledArrow_Marker)" d="M 1223.9856 538.5827 L 1878.6624 538.5827 L 1878.6624 590.3832"/></g><g id="Line_137"><path stroke="#000" stroke-linecap="round" stroke-linejoin="round" stroke-width="2" marker-end="url(#FilledArrow_Marker)" d="M 1224.0047 680.3156 L 852.18 680.3156 L 852.18 682.5833 L 852.3725 699.6827 L 852.3725 705.6827"/></g><g id="Line_138"><path stroke="#000" stroke-linecap="round" stroke-linejoin="round" stroke-width="2" marker-end="url(#FilledArrow_Marker)" d="M 1224.0047 680.3156 L 1038.2026 680.3156 L 1038.2026 705.6827"/></g><g id="Line_139"><path stroke="#000" stroke-linecap="round" stroke-linejoin="round" stroke-width="2" marker-end="url(#FilledArrow_Marker)" d="M 1224.0048 680.4352 L 1409.8574 680.4352 L 1409.8574 702.3138"/></g><g id="Graphic_140"><rect width="146.012" height="48.189" x="1708.517" y="715.214" fill="#0a55a8"/><text fill="#fff" transform="translate(1713.5174 729.5762)"><tspan x="46.518" y="16" fill="#fff" font-family="Helvetica Neue" font-size="16" font-weight="bold">runsc</tspan></text></g><g id="Graphic_141"><rect width="146.012" height="48.189" x="1522.687" y="715.214" fill="#0a55a8"/><text fill="#fff" transform="translate(1527.6873 729.5762)"><tspan x="18.838" y="16" fill="#fff" font-family="Helvetica Neue" font-size="16" font-weight="bold">kata-runtime</tspan></text></g><g id="Line_142"><path stroke="#000" stroke-linecap="round" stroke-linejoin="round" stroke-width="2" marker-end="url(#FilledArrow_Marker)" d="M 1491.4382 651.4685 L 1491.4382 683.34115 L 1595.693 683.34115 L 1595.693 702.3138"/></g><g id="Line_143"><path stroke="#000" stroke-linecap="round" stroke-linejoin="round" stroke-width="2" marker-end="url(#FilledArrow_Marker)" d="M 1685.2037 651.4685 L 1685.2037 683.34115 L 1781.5232 683.34115 L 1781.5232 702.3138"/></g><g id="Graphic_144"><rect width="146.012" height="48.189" x="1522.687" y="797.953" fill="#333"/><rect width="146.012" height="48.189" x="1522.687" y="797.953" stroke="gray" stroke-linecap="round" stroke-linejoin="round" stroke-width="1"/><text fill="#fff" transform="translate(1527.6873 802.5831)"><tspan x="30.526" y="16" fill="#fff" font-family="Helvetica Neue" font-size="16" font-weight="bold">Container </tspan> <tspan x="37.038" y="35.464" fill="#fff" font-family="Helvetica Neue" font-size="16" font-weight="bold">Process</tspan></text></g><g id="Graphic_145"><rect width="146.012" height="48.189" x="1708.517" y="797.953" fill="#333"/><rect width="146.012" height="48.189" x="1708.517" y="797.953" stroke="gray" stroke-linecap="round" stroke-linejoin="round" stroke-width="1"/><text fill="#fff" transform="translate(1713.5174 802.5831)"><tspan x="30.526" y="16" fill="#fff" font-family="Helvetica Neue" font-size="16" font-weight="bold">Container </tspan> <tspan x="37.038" y="35.464" fill="#fff" font-family="Helvetica Neue" font-size="16" font-weight="bold">Process</tspan></text></g><g id="Line_146"><line x1="1595.693" x2="1595.693" y1="763.403" y2="785.053" stroke="#000" stroke-linecap="round" stroke-linejoin="round" stroke-width="2" marker-end="url(#FilledArrow_Marker)"/></g><g id="Line_147"><line x1="1781.523" x2="1781.523" y1="763.403" y2="785.053" stroke="#000" stroke-linecap="round" stroke-linejoin="round" stroke-width="2" marker-end="url(#FilledArrow_Marker)"/></g><g id="Line_88"><path stroke="#000" stroke-linecap="round" stroke-linejoin="round" stroke-width="2" marker-end="url(#FilledArrow_Marker)" d="M 1224.0328 264.12205 L 1224.0328 275.12205 L 1224.0092 336.86418 L 1565.1254 336.86418 L 1565.1254 396.7063"/></g><g id="Line_89"><path stroke="#000" stroke-linecap="round" stroke-linejoin="round" stroke-width="2" marker-end="url(#FilledArrow_Marker)" d="M 1224.0328 264.12205 L 1224.0328 275.12205 L 1224.0092 336.86418 L 1223.9856 390.7063 L 1223.9856 396.7063"/></g><g id="Graphic_87"><rect width="268" height="29.464" x="1090.024" y="284.463" fill="#fff"/><text fill="#000" transform="translate(1095.0236 289.4629)"><tspan x="0" y="16" fill="#000" font-family="Helvetica Neue" font-size="16" font-weight="bold">CRI (Container Runtime Interface)</tspan></text></g></g></g></svg>