<svg xmlns="http://www.w3.org/2000/svg" xmlns:xl="http://www.w3.org/1999/xlink" width="1418" height="742" version="1.1" viewBox="515 151 1418 742"><defs><marker id="FilledArrow_Marker" stroke-linejoin="miter" stroke-miterlimit="10" color="#000" markerHeight="6" markerUnits="strokeWidth" markerWidth="7" orient="auto" overflow="visible" viewBox="-1 -3 7 6"><g><path fill="currentColor" stroke="currentColor" stroke-width="1" d="M 4.8 0 L 0 -1.8 L 0 1.8 Z"/></g></marker></defs><g id="runtimes" fill="none" fill-opacity="1" stroke="none" stroke-dasharray="none" stroke-opacity="1"><title>runtimes</title><rect width="1418" height="742" x="515" y="151" fill="#fff"/><g id="runtimes_Layer_1"><title>Layer 1</title><g id="Graphic_78"><rect width="1416.16" height="741.26" x="515.905" y="151.654" fill="#fff"/></g><g id="Graphic_77"><rect width="232.441" height="249.449" x="555.817" y="617.953" fill="#fff"/><rect width="232.441" height="249.449" x="555.817" y="617.953" stroke="gray" stroke-linecap="round" stroke-linejoin="round" stroke-width="1"/></g><g id="Graphic_76"><rect width="293.386" height="48.189" x="660.472" y="294.803" fill="#0a55a8"/><text fill="#fff" transform="translate(665.47245 309.1656)"><tspan x="85.549" y="16" fill="#fff" font-family="Helvetica Neue" font-size="16" font-weight="bold">Docker Engine</tspan></text></g><g id="Graphic_75"><rect width="190.63" height="48.189" x="576.723" y="639.213" fill="#0a55a8"/><text fill="#fff" transform="translate(581.72304 653.575)"><tspan x="27.819" y="16" fill="#fff" font-family="Helvetica Neue" font-size="16" font-weight="bold">containerd-shim</tspan></text></g><g id="Graphic_74"><rect width="190.63" height="48.189" x="576.723" y="797.953" fill="#333"/><rect width="190.63" height="48.189" x="576.723" y="797.953" stroke="gray" stroke-linecap="round" stroke-linejoin="round" stroke-width="1"/><text fill="#fff" transform="translate(581.72304 812.3152)"><tspan x="19.643" y="16" fill="#fff" font-family="Helvetica Neue" font-size="16" font-weight="bold">Container Process</tspan></text></g><g id="Graphic_73"><rect width="293.386" height="48.189" x="1077.293" y="409.606" fill="#0a55a8"/><text fill="#fff" transform="translate(1082.2927 423.96874)"><tspan x="100.805" y="16" fill="#fff" font-family="Helvetica Neue" font-size="16" font-weight="bold">containerd</tspan></text></g><g id="Graphic_72"><rect width="190.63" height="48.189" x="576.723" y="718.583" fill="#0a55a8"/><text fill="#fff" transform="translate(581.72304 732.9451)"><tspan x="73.123" y="16" fill="#fff" font-family="Helvetica Neue" font-size="16" font-weight="bold">runc</tspan></text></g><g id="Line_71"><line x1="672.038" x2="672.038" y1="687.402" y2="705.683" stroke="#000" stroke-linecap="round" stroke-linejoin="round" stroke-width="2" marker-end="url(#FilledArrow_Marker)"/></g><g id="Line_70"><line x1="672.038" x2="672.038" y1="766.772" y2="785.053" stroke="#000" stroke-linecap="round" stroke-linejoin="round" stroke-width="2" marker-end="url(#FilledArrow_Marker)"/></g><g id="Graphic_69"><rect width="232.441" height="249.449" x="831.841" y="617.953" fill="#fff"/><rect width="232.441" height="249.449" x="831.841" y="617.953" stroke="gray" stroke-linecap="round" stroke-linejoin="round" stroke-width="1"/></g><g id="Graphic_68"><rect width="190.63" height="48.189" x="852.747" y="639.213" fill="#0a55a8"/><text fill="#fff" transform="translate(857.7467 653.575)"><tspan x="1.915" y="16" fill="#fff" font-family="Helvetica Neue" font-size="16" font-weight="bold">containerd-wasm-shim</tspan></text></g><g id="Graphic_67"><rect width="190.63" height="48.189" x="852.747" y="797.953" fill="#333"/><rect width="190.63" height="48.189" x="852.747" y="797.953" stroke="gray" stroke-linecap="round" stroke-linejoin="round" stroke-width="1"/><text fill="#fff" transform="translate(857.7467 812.3152)"><tspan x="36.267" y="16" fill="#fff" font-family="Helvetica Neue" font-size="16" font-weight="bold">Wasm Module</tspan></text></g><g id="Graphic_66"><rect width="190.63" height="48.189" x="852.747" y="718.583" fill="#0a55a8"/><text fill="#fff" transform="translate(857.7467 732.9451)"><tspan x="48.707" y="16" fill="#fff" font-family="Helvetica Neue" font-size="16" font-weight="bold">wasmedge</tspan></text></g><g id="Line_65"><line x1="948.062" x2="948.062" y1="687.402" y2="705.683" stroke="#000" stroke-linecap="round" stroke-linejoin="round" stroke-width="2" marker-end="url(#FilledArrow_Marker)"/></g><g id="Line_64"><line x1="948.062" x2="948.062" y1="766.772" y2="785.053" stroke="#000" stroke-linecap="round" stroke-linejoin="round" stroke-width="2" marker-end="url(#FilledArrow_Marker)"/></g><g id="Graphic_63"><rect width="232.441" height="249.449" x="1107.765" y="616.953" fill="#fff"/><rect width="232.441" height="249.449" x="1107.765" y="616.953" stroke="gray" stroke-linecap="round" stroke-linejoin="round" stroke-width="1"/></g><g id="Graphic_62"><rect width="190.63" height="48.189" x="1128.671" y="638.213" fill="#0a55a8"/><text fill="#fff" transform="translate(1133.6707 652.575)"><tspan x="1.915" y="16" fill="#fff" font-family="Helvetica Neue" font-size="16" font-weight="bold">containerd-wasm-shim</tspan></text></g><g id="Graphic_61"><rect width="190.63" height="48.189" x="1128.671" y="796.953" fill="#333"/><rect width="190.63" height="48.189" x="1128.671" y="796.953" stroke="gray" stroke-linecap="round" stroke-linejoin="round" stroke-width="1"/><text fill="#fff" transform="translate(1133.6707 811.3152)"><tspan x="36.267" y="16" fill="#fff" font-family="Helvetica Neue" font-size="16" font-weight="bold">Wasm Module</tspan></text></g><g id="Graphic_60"><rect width="190.63" height="48.189" x="1128.671" y="717.583" fill="#0a55a8"/><text fill="#fff" transform="translate(1133.6707 731.9451)"><tspan x="74.323" y="16" fill="#fff" font-family="Helvetica Neue" font-size="16" font-weight="bold">spin</tspan></text></g><g id="Line_59"><line x1="1223.986" x2="1223.986" y1="686.402" y2="704.683" stroke="#000" stroke-linecap="round" stroke-linejoin="round" stroke-width="2" marker-end="url(#FilledArrow_Marker)"/></g><g id="Line_58"><line x1="1223.986" x2="1223.986" y1="765.772" y2="784.053" stroke="#000" stroke-linecap="round" stroke-linejoin="round" stroke-width="2" marker-end="url(#FilledArrow_Marker)"/></g><g id="Graphic_57"><rect width="232.441" height="249.449" x="1383.672" y="615.783" fill="#fff"/><rect width="232.441" height="249.449" x="1383.672" y="615.783" stroke="gray" stroke-linecap="round" stroke-linejoin="round" stroke-width="1"/></g><g id="Graphic_56"><rect width="190.63" height="48.189" x="1404.578" y="637.043" fill="#0a55a8"/><text fill="#fff" transform="translate(1409.5778 651.405)"><tspan x="1.915" y="16" fill="#fff" font-family="Helvetica Neue" font-size="16" font-weight="bold">containerd-wasm-shim</tspan></text></g><g id="Graphic_55"><rect width="190.63" height="48.189" x="1404.578" y="795.783" fill="#333"/><rect width="190.63" height="48.189" x="1404.578" y="795.783" stroke="gray" stroke-linecap="round" stroke-linejoin="round" stroke-width="1"/><text fill="#fff" transform="translate(1409.5778 810.1452)"><tspan x="36.267" y="16" fill="#fff" font-family="Helvetica Neue" font-size="16" font-weight="bold">Wasm Module</tspan></text></g><g id="Graphic_54"><rect width="190.63" height="48.189" x="1404.578" y="716.413" fill="#0a55a8"/><text fill="#fff" transform="translate(1409.5778 730.7751)"><tspan x="69.443" y="16" fill="#fff" font-family="Helvetica Neue" font-size="16" font-weight="bold">slight</tspan></text></g><g id="Line_53"><line x1="1499.893" x2="1499.893" y1="685.232" y2="703.513" stroke="#000" stroke-linecap="round" stroke-linejoin="round" stroke-width="2" marker-end="url(#FilledArrow_Marker)"/></g><g id="Line_52"><line x1="1499.893" x2="1499.893" y1="764.602" y2="782.883" stroke="#000" stroke-linecap="round" stroke-linejoin="round" stroke-width="2" marker-end="url(#FilledArrow_Marker)"/></g><g id="Graphic_51"><rect width="232.441" height="249.449" x="1659.576" y="614.584" fill="#fff"/><rect width="232.441" height="249.449" x="1659.576" y="614.584" stroke="gray" stroke-linecap="round" stroke-linejoin="round" stroke-width="1"/></g><g id="Graphic_50"><rect width="190.63" height="48.189" x="1680.482" y="635.844" fill="#0a55a8"/><text fill="#fff" transform="translate(1685.482 650.2061)"><tspan x="1.915" y="16" fill="#fff" font-family="Helvetica Neue" font-size="16" font-weight="bold">containerd-wasm-shim</tspan></text></g><g id="Graphic_49"><rect width="190.63" height="48.189" x="1680.482" y="794.584" fill="#333"/><rect width="190.63" height="48.189" x="1680.482" y="794.584" stroke="gray" stroke-linecap="round" stroke-linejoin="round" stroke-width="1"/><text fill="#fff" transform="translate(1685.482 808.9463)"><tspan x="36.267" y="16" fill="#fff" font-family="Helvetica Neue" font-size="16" font-weight="bold">Wasm Module</tspan></text></g><g id="Graphic_48"><rect width="190.63" height="48.189" x="1680.482" y="715.214" fill="#0a55a8"/><text fill="#fff" transform="translate(1685.482 729.5762)"><tspan x="50.947" y="16" fill="#fff" font-family="Helvetica Neue" font-size="16" font-weight="bold">wasmtime</tspan></text></g><g id="Line_47"><line x1="1775.797" x2="1775.797" y1="684.033" y2="702.314" stroke="#000" stroke-linecap="round" stroke-linejoin="round" stroke-width="2" marker-end="url(#FilledArrow_Marker)"/></g><g id="Line_46"><line x1="1775.797" x2="1775.797" y1="763.403" y2="781.684" stroke="#000" stroke-linecap="round" stroke-linejoin="round" stroke-width="2" marker-end="url(#FilledArrow_Marker)"/></g><g id="Line_45"><path stroke="#000" stroke-linecap="round" stroke-linejoin="round" stroke-width="2" marker-end="url(#FilledArrow_Marker)" d="M 807.1654 342.99213 L 807.1654 376.2992 L 1223.9856 376.2992 L 1223.9856 396.7063"/></g><g id="Line_44"><path stroke="#000" stroke-linecap="round" stroke-linejoin="round" stroke-width="2" marker-end="url(#FilledArrow_Marker)" d="M 1223.9856 457.7953 L 1223.9856 547 L 948.0616 547 L 948.0616 605.05276"/></g><g id="Line_43"><line x1="1223.986" x2="1223.986" y1="457.795" y2="604.053" stroke="#000" stroke-linecap="round" stroke-linejoin="round" stroke-width="2" marker-end="url(#FilledArrow_Marker)"/></g><g id="Line_42"><path stroke="#000" stroke-linecap="round" stroke-linejoin="round" stroke-width="2" marker-end="url(#FilledArrow_Marker)" d="M 1223.9856 547.3716 L 1499.9369 547.3716 L 1499.9369 602.88284"/></g><g id="Line_41"><path stroke="#000" stroke-linecap="round" stroke-linejoin="round" stroke-width="2" marker-end="url(#FilledArrow_Marker)" d="M 1230.6223 547.3716 L 1776.1422 547.3716 L 1776.1422 601.6885"/></g><g id="Line_40"><path stroke="#000" stroke-linecap="round" stroke-linejoin="round" stroke-width="2" marker-end="url(#FilledArrow_Marker)" d="M 1223.9856 546.77465 L 671.7934 546.77465 L 671.7934 573.298 L 672.038 599.05276 L 672.038 605.05276"/></g><g id="Graphic_79"><rect width="293.386" height="48.189" x="1077.293" y="170.079" fill="#0a55a8"/><text fill="#fff" transform="translate(1082.2927 184.44117)"><tspan x="97.397" y="16" fill="#fff" font-family="Helvetica Neue" font-size="16" font-weight="bold">Kubernetes</tspan></text></g><g id="Graphic_81"><rect width="293.386" height="48.189" x="1438.583" y="409.606" fill="#0a55a8"/><text fill="#fff" transform="translate(1443.5827 423.96874)"><tspan x="118.149" y="16" fill="#fff" font-family="Helvetica Neue" font-size="16" font-weight="bold">CRI-O</tspan></text></g><g id="Line_82"><line x1="1223.986" x2="1223.986" y1="218.268" y2="396.706" stroke="#000" stroke-linecap="round" stroke-linejoin="round" stroke-width="2" marker-end="url(#FilledArrow_Marker)"/></g><g id="Line_83"><path stroke="#000" stroke-linecap="round" stroke-linejoin="round" stroke-width="2" marker-end="url(#FilledArrow_Marker)" d="M 1223.9856 218.26772 L 1223.9856 313.937 L 1585.2756 313.937 L 1585.2756 396.7063"/></g><g id="Graphic_84"><rect width="268" height="29.464" x="1089.986" y="247.011" fill="#fff"/><text fill="#000" transform="translate(1094.9856 252.0113)"><tspan x="0" y="16" fill="#000" font-family="Helvetica Neue" font-size="16" font-weight="bold">CRI (Container Runtime Interface)</tspan></text></g><g id="Graphic_85"><rect width="285.216" height="29.464" x="1081.378" y="482.995" fill="#fff"/><text fill="#000" transform="translate(1086.3776 487.9953)"><tspan x="0" y="16" fill="#000" font-family="Helvetica Neue" font-size="16" font-weight="bold">OCI (Open Container Initiative) Spec</tspan></text></g></g></g></svg>