<svg xmlns="http://www.w3.org/2000/svg" xmlns:xl="http://www.w3.org/1999/xlink" width="1030" height="604" version="1.1" viewBox="891 464 1030 604"><defs><marker id="FilledArrow_Marker" stroke-linejoin="miter" stroke-miterlimit="10" color="#000" markerHeight="8" markerUnits="strokeWidth" markerWidth="10" orient="auto" overflow="visible" viewBox="-1 -4 10 8"><g><path fill="currentColor" stroke="currentColor" stroke-width="1" d="M 8 0 L 0 -3 L 0 3 Z"/></g></marker></defs><g id="Geneve_Tunnel" fill="none" fill-opacity="1" stroke="none" stroke-dasharray="none" stroke-opacity="1"><title>Geneve Tunnel</title><rect width="1030" height="604" x="891" y="464" fill="#fff"/><g id="Geneve_Tunnel_Layer_2"><title>Layer 2</title><g id="Graphic_344"><rect width="1028.976" height="602.362" x="891.496" y="464.882" fill="#fff"/></g><g id="Graphic_323"><title>ztunnel a pod</title><rect width="391.181" height="184.39" x="945.645" y="777.779" fill="#fafafa"/><rect width="391.181" height="184.39" x="945.645" y="777.779" stroke="#000" stroke-linecap="round" stroke-linejoin="round" stroke-width="1"/><text fill="#000" transform="translate(950.6448 782.7792)"><tspan x="0" y="16" fill="#000" font-family="Helvetica Neue" font-size="16" font-weight="bold">Ztunnel A Pod</tspan></text></g><g id="Graphic_322"><rect width="391.181" height="162.992" x="1483.937" y="637.795" fill="#fafafa"/><rect width="391.181" height="162.992" x="1483.937" y="637.795" stroke="#000" stroke-linecap="round" stroke-linejoin="round" stroke-width="1"/><text fill="#000" transform="translate(1488.937 642.7953)"><tspan x="0" y="16" fill="#000" font-family="Helvetica Neue" font-size="16" font-weight="bold">Ztunnel B Pod</tspan></text></g><g id="Graphic_321"><rect width="391.181" height="68.031" x="946.74" y="525.827" fill="#fafafa"/><rect width="391.181" height="68.031" x="946.74" y="525.827" stroke="#000" stroke-linecap="round" stroke-linejoin="round" stroke-width="1"/><text fill="#000" transform="translate(951.7397 530.82677)"><tspan x="0" y="16" fill="#000" font-family="Helvetica Neue" font-size="16" font-weight="bold">Service A Pod</tspan></text></g><g id="Graphic_314"><rect width="391.181" height="68.031" x="1483.937" y="531.496" fill="#fafafa"/><rect width="391.181" height="68.031" x="1483.937" y="531.496" stroke="#000" stroke-linecap="round" stroke-linejoin="round" stroke-width="1"/><text fill="#000" transform="translate(1488.937 536.49605)"><tspan x="0" y="16" fill="#000" font-family="Helvetica Neue" font-size="16" font-weight="bold">Service B Pod</tspan></text></g><g id="Graphic_340"><rect width="454.961" height="554.173" x="1445.669" y="488.976" stroke="#a5a5a5" stroke-linecap="round" stroke-linejoin="round" stroke-width="1"/><text fill="#000" transform="translate(1450.6693 493.9764)"><tspan x="0" y="16" fill="#000" font-family="Helvetica Neue" font-size="16" font-weight="bold">Node B</tspan></text></g><g id="Graphic_324"><rect width="454.961" height="554.173" x="913.755" y="488.976" stroke="#a5a5a5" stroke-linecap="round" stroke-linejoin="round" stroke-width="1"/><text fill="#000" transform="translate(918.755 493.9764)"><tspan x="0" y="16" fill="#000" font-family="Helvetica Neue" font-size="16" font-weight="bold">Node A</tspan></text></g><g id="Graphic_320"><rect width="243.78" height="46.772" x="1019.346" y="671.811" fill="#0a55a8"/><text fill="#fff" transform="translate(1024.3456 676.2408)"><tspan x="88.314" y="16" fill="#fff" font-family="Helvetica Neue" font-size="16" font-weight="bold">istioout</tspan> <tspan x="65.738" y="34.464" fill="#fff" font-family="Helvetica Neue" font-size="16">192.168.127.1</tspan></text></g><g id="Graphic_319"><rect width="243.78" height="46.772" x="1019.346" y="817.795" fill="#0a55a8"/><text fill="#fff" transform="translate(1024.3456 820.4491)"><tspan x="83.426" y="16" fill="#fff" font-family="Helvetica Neue" font-size="16" font-weight="bold">pistioout</tspan> <tspan x="46.018" y="36.464" fill="#fff" font-family="Helvetica Neue" font-size="16">192.168.127.2</tspan> <tspan y="36.464" fill="#fff" font-family="PingFang SC" font-size="16">:6081</tspan></text></g><g id="Line_316"><line x1="1141.235" x2="1141.235" y1="718.583" y2="807.895" stroke="#000" stroke-linecap="round" stroke-linejoin="round" stroke-width="1" marker-end="url(#FilledArrow_Marker)"/></g><g id="Graphic_313"><rect width="243.78" height="56.902" x="1556.543" y="873.233" fill="#0a55a8"/><text fill="#fff" transform="translate(1561.5429 882.7279)"><tspan x="93.954" y="16" fill="#fff" font-family="Helvetica Neue" font-size="16" font-weight="bold">istioin</tspan> <tspan x="65.738" y="34.464" fill="#fff" font-family="Helvetica Neue" font-size="16">192.168.126.1</tspan></text></g><g id="Line_308"><line x1="1678.433" x2="1678.433" y1="873.233" y2="786.802" stroke="#000" stroke-linecap="round" stroke-linejoin="round" stroke-width="1" marker-end="url(#FilledArrow_Marker)"/></g><g id="Graphic_295"><rect width="243.071" height="28.448" x="1019.7" y="733.957" fill="#fff"/><text fill="#000" transform="translate(1024.6999 738.95695)"><tspan x="52.223" y="15" fill="#000" font-family="Helvetica Neue" font-size="16" font-style="italic">Via Geneve tunnel</tspan></text></g><g id="Graphic_291"><rect width="243.78" height="28.346" x="1019.346" y="565.512" fill="#0a55a8"/><text fill="#fff" transform="translate(1024.3456 569.953)"><tspan x="100.29" y="16" fill="#fff" font-family="Helvetica Neue" font-size="16" font-weight="bold">eth0</tspan></text></g><g id="Graphic_285"><rect width="243.78" height="28.346" x="1019.346" y="908.606" fill="#0a55a8"/><text fill="#fff" transform="translate(1024.3456 913.0467)"><tspan x="100.29" y="16" fill="#fff" font-family="Helvetica Neue" font-size="16" font-weight="bold">eth0</tspan></text></g><g id="Graphic_275"><rect width="243.78" height="56.902" x="1556.543" y="720" fill="#0a55a8"/><text fill="#fff" transform="translate(1561.5429 727.7189)"><tspan x="89.066" y="16" fill="#fff" font-family="Helvetica Neue" font-size="16" font-weight="bold">pistioin</tspan> <tspan x="46.018" y="36.464" fill="#fff" font-family="Helvetica Neue" font-size="16">192.168.126.2</tspan> <tspan y="36.464" fill="#fff" font-family="PingFang SC" font-size="16">:6081</tspan></text></g><g id="Line_328"><line x1="1141.235" x2="1141.235" y1="864.567" y2="898.706" stroke="#000" stroke-linecap="round" stroke-linejoin="round" stroke-width="1" marker-end="url(#FilledArrow_Marker)"/></g><g id="Line_329"><line x1="1141.235" x2="1141.235" y1="593.858" y2="661.911" stroke="#000" stroke-linecap="round" stroke-linejoin="round" stroke-width="1" marker-end="url(#FilledArrow_Marker)"/></g><g id="Graphic_330"><rect width="173.296" height="28.448" x="1054.587" y="616.758" fill="#fff"/><text fill="#000" transform="translate(1059.5873 621.7578)"><tspan x="0" y="15" fill="#000" font-family="Helvetica Neue" font-size="16" font-style="italic">Intercepted by iptables</tspan></text></g><g id="Graphic_331"><rect width="243.78" height="28.346" x="1019.346" y="989.291" fill="#0a55a8"/><text fill="#fff" transform="translate(1024.3456 993.7325)"><tspan x="100.29" y="16" fill="#fff" font-family="Helvetica Neue" font-size="16" font-weight="bold">eth0</tspan></text></g><g id="Line_332"><line x1="1141.235" x2="1141.235" y1="936.952" y2="979.391" stroke="#000" stroke-linecap="round" stroke-linejoin="round" stroke-width="1" marker-end="url(#FilledArrow_Marker)"/></g><g id="Graphic_333"><rect width="243.78" height="28.346" x="1556.543" y="571.181" fill="#0a55a8"/><text fill="#fff" transform="translate(1561.5429 575.62226)"><tspan x="100.29" y="16" fill="#fff" font-family="Helvetica Neue" font-size="16" font-weight="bold">eth0</tspan></text></g><g id="Graphic_335"><rect width="243.78" height="28.346" x="1556.543" y="666.881" fill="#0a55a8"/><text fill="#fff" transform="translate(1561.5429 671.32216)"><tspan x="100.29" y="16" fill="#fff" font-family="Helvetica Neue" font-size="16" font-weight="bold">eth0</tspan></text></g><g id="Graphic_336"><rect width="243.78" height="28.346" x="1556.543" y="989.291" fill="#0a55a8"/><text fill="#fff" transform="translate(1561.5429 993.7325)"><tspan x="100.29" y="16" fill="#fff" font-family="Helvetica Neue" font-size="16" font-weight="bold">eth0</tspan></text></g><g id="Line_337"><path stroke="#000" stroke-linecap="round" stroke-linejoin="round" stroke-width="1" marker-end="url(#FilledArrow_Marker)" d="M 1678.4326 720 L 1678.4326 707.6137 L 1678.4326 710.1274 L 1678.4326 705.1274"/></g><g id="Line_338"><line x1="1678.433" x2="1678.433" y1="666.881" y2="609.428" stroke="#000" stroke-linecap="round" stroke-linejoin="round" stroke-width="1" marker-end="url(#FilledArrow_Marker)"/></g><g id="Line_339"><line x1="1678.433" x2="1678.433" y1="989.291" y2="940.035" stroke="#000" stroke-linecap="round" stroke-linejoin="round" stroke-width="1" marker-end="url(#FilledArrow_Marker)"/></g><g id="Line_341"><line x1="1263.125" x2="1546.643" y1="1003.465" y2="1003.465" stroke="#000" stroke-linecap="round" stroke-linejoin="round" stroke-width="1" marker-end="url(#FilledArrow_Marker)"/></g><g id="Graphic_342"><rect width="173.296" height="28.448" x="1591.785" y="948.336" fill="#fff"/><text fill="#000" transform="translate(1596.7846 953.3358)"><tspan x="0" y="15" fill="#000" font-family="Helvetica Neue" font-size="16" font-style="italic">Intercepted by iptables</tspan></text></g><g id="Graphic_343"><rect width="243.071" height="28.448" x="1557.992" y="822.786" fill="#fff"/><text fill="#000" transform="translate(1562.9921 827.7862)"><tspan x="52.223" y="15" fill="#000" font-family="Helvetica Neue" font-size="16" font-style="italic">Via Geneve tunnel</tspan></text></g></g></g></svg>