<svg xmlns="http://www.w3.org/2000/svg" xmlns:xl="http://www.w3.org/1999/xlink" width="2120" height="792" version="1.1" viewBox="1707 542 2120 792"><defs><marker id="FilledArrow_Marker" stroke-linejoin="miter" stroke-miterlimit="10" color="#000" markerHeight="6" markerUnits="strokeWidth" markerWidth="7" orient="auto" overflow="visible" viewBox="-1 -3 7 6"><g><path fill="currentColor" stroke="currentColor" stroke-width="1" d="M 4.8 0 L 0 -1.8 L 0 1.8 Z"/></g></marker></defs><g id="Geneve_vs_VXLAN" fill="none" fill-opacity="1" stroke="none" stroke-dasharray="none" stroke-opacity="1"><title>Geneve vs VXLAN</title><rect width="2120" height="792" x="1707" y="542" fill="#fff"/><g id="Geneve_vs_VXLAN_Layer_1"><title>Layer 1</title><g id="Graphic_90"><rect width="2118.898" height="790.866" x="1707.874" y="542.835" fill="#fff"/></g><g id="Group_82"><g id="Graphic_89"><rect width="453.543" height="63.78" x="2890.005" y="1178.215" fill="#fff"/><rect width="453.543" height="63.78" x="2890.005" y="1178.215" stroke="gray" stroke-linecap="round" stroke-linejoin="round" stroke-width="1"/><text fill="#000" transform="translate(2895.0053 1195.769)"><tspan x="152.424" y="23" fill="#000" font-family="Helvetica Neue" font-size="24">Option Class</tspan></text></g><g id="Graphic_88"><rect width="141.732" height="63.78" x="3655.36" y="1178.215" fill="#fff"/><rect width="141.732" height="63.78" x="3655.36" y="1178.215" stroke="gray" stroke-linecap="round" stroke-linejoin="round" stroke-width="1"/><text fill="#000" transform="translate(3660.3596 1195.769)"><tspan x="28.738" y="23" fill="#000" font-family="Helvetica Neue" font-size="24">Length</tspan></text></g><g id="Graphic_87"><rect width="907.087" height="63.78" x="2890.005" y="1241.995" fill="#fff"/><rect width="907.087" height="63.78" x="2890.005" y="1241.995" stroke="gray" stroke-linecap="round" stroke-linejoin="round" stroke-width="1"/><text fill="#000" transform="translate(2895.0053 1259.5485)"><tspan x="290.275" y="23" fill="#000" font-family="Helvetica Neue" font-size="24">Variable-Length Options Data</tspan></text></g><g id="Graphic_86"><rect width="226.772" height="63.78" x="3343.549" y="1178.215" fill="#fff"/><rect width="226.772" height="63.78" x="3343.549" y="1178.215" stroke="gray" stroke-linecap="round" stroke-linejoin="round" stroke-width="1"/><text fill="#000" transform="translate(3348.5486 1195.769)"><tspan x="83.27" y="23" fill="#000" font-family="Helvetica Neue" font-size="24">Type</tspan></text></g><g id="Graphic_85"><rect width="28.346" height="63.78" x="3570.32" y="1178.215" fill="#fff"/><rect width="28.346" height="63.78" x="3570.32" y="1178.215" stroke="gray" stroke-linecap="round" stroke-linejoin="round" stroke-width="1"/><text fill="#000" transform="translate(3575.3202 1195.769)"><tspan x=".953" y="23" fill="#000" font-family="Helvetica Neue" font-size="24">R</tspan></text></g><g id="Graphic_84"><rect width="28.346" height="63.78" x="3598.667" y="1178.215" fill="#fff"/><rect width="28.346" height="63.78" x="3598.667" y="1178.215" stroke="gray" stroke-linecap="round" stroke-linejoin="round" stroke-width="1"/><text fill="#000" transform="translate(3603.6667 1195.769)"><tspan x=".953" y="23" fill="#000" font-family="Helvetica Neue" font-size="24">R</tspan></text></g><g id="Graphic_83"><rect width="28.346" height="63.78" x="3627.013" y="1178.215" fill="#fff"/><rect width="28.346" height="63.78" x="3627.013" y="1178.215" stroke="gray" stroke-linecap="round" stroke-linejoin="round" stroke-width="1"/><text fill="#000" transform="translate(3632.013 1195.769)"><tspan x=".953" y="23" fill="#000" font-family="Helvetica Neue" font-size="24">R</tspan></text></g></g><g id="Group_74"><g id="Graphic_81"><rect width="453.543" height="63.78" x="2865.869" y="1162.027" fill="#fff"/><rect width="453.543" height="63.78" x="2865.869" y="1162.027" stroke="gray" stroke-linecap="round" stroke-linejoin="round" stroke-width="1"/><text fill="#000" transform="translate(2870.8688 1179.5812)"><tspan x="152.424" y="23" fill="#000" font-family="Helvetica Neue" font-size="24">Option Class</tspan></text></g><g id="Graphic_80"><rect width="141.732" height="63.78" x="3631.223" y="1162.027" fill="#fff"/><rect width="141.732" height="63.78" x="3631.223" y="1162.027" stroke="gray" stroke-linecap="round" stroke-linejoin="round" stroke-width="1"/><text fill="#000" transform="translate(3636.223 1179.5812)"><tspan x="28.738" y="23" fill="#000" font-family="Helvetica Neue" font-size="24">Length</tspan></text></g><g id="Graphic_79"><rect width="907.087" height="63.78" x="2865.869" y="1225.807" fill="#fff"/><rect width="907.087" height="63.78" x="2865.869" y="1225.807" stroke="gray" stroke-linecap="round" stroke-linejoin="round" stroke-width="1"/><text fill="#000" transform="translate(2870.8688 1243.3607)"><tspan x="290.275" y="23" fill="#000" font-family="Helvetica Neue" font-size="24">Variable-Length Options Data</tspan></text></g><g id="Graphic_78"><rect width="226.772" height="63.78" x="3319.412" y="1162.027" fill="#fff"/><rect width="226.772" height="63.78" x="3319.412" y="1162.027" stroke="gray" stroke-linecap="round" stroke-linejoin="round" stroke-width="1"/><text fill="#000" transform="translate(3324.412 1179.5812)"><tspan x="83.27" y="23" fill="#000" font-family="Helvetica Neue" font-size="24">Type</tspan></text></g><g id="Graphic_77"><rect width="28.346" height="63.78" x="3546.184" y="1162.027" fill="#fff"/><rect width="28.346" height="63.78" x="3546.184" y="1162.027" stroke="gray" stroke-linecap="round" stroke-linejoin="round" stroke-width="1"/><text fill="#000" transform="translate(3551.1837 1179.5812)"><tspan x=".953" y="23" fill="#000" font-family="Helvetica Neue" font-size="24">R</tspan></text></g><g id="Graphic_76"><rect width="28.346" height="63.78" x="3574.53" y="1162.027" fill="#fff"/><rect width="28.346" height="63.78" x="3574.53" y="1162.027" stroke="gray" stroke-linecap="round" stroke-linejoin="round" stroke-width="1"/><text fill="#000" transform="translate(3579.53 1179.5812)"><tspan x=".953" y="23" fill="#000" font-family="Helvetica Neue" font-size="24">R</tspan></text></g><g id="Graphic_75"><rect width="28.346" height="63.78" x="3602.877" y="1162.027" fill="#fff"/><rect width="28.346" height="63.78" x="3602.877" y="1162.027" stroke="gray" stroke-linecap="round" stroke-linejoin="round" stroke-width="1"/><text fill="#000" transform="translate(3607.8767 1179.5812)"><tspan x=".953" y="23" fill="#000" font-family="Helvetica Neue" font-size="24">R</tspan></text></g></g><g id="Graphic_2"><rect width="907.087" height="63.78" x="1739.055" y="609.449" fill="#fff"/><rect width="907.087" height="63.78" x="1739.055" y="609.449" stroke="gray" stroke-linecap="round" stroke-linejoin="round" stroke-width="1"/><text fill="#000" transform="translate(1755.0551 627.0026)"><tspan x="0" y="23" fill="#000" font-family="Helvetica Neue" font-size="24">Ethernet Header</tspan></text></g><g id="Graphic_3"><rect width="907.087" height="63.78" x="1739.055" y="673.228" fill="#fff"/><rect width="907.087" height="63.78" x="1739.055" y="673.228" stroke="gray" stroke-linecap="round" stroke-linejoin="round" stroke-width="1"/><text fill="#000" transform="translate(1755.0551 690.7821)"><tspan x="0" y="23" fill="#000" font-family="Helvetica Neue" font-size="24">IP Header</tspan></text></g><g id="Graphic_4"><rect width="907.087" height="63.78" x="1739.055" y="737.008" fill="#fff"/><rect width="907.087" height="63.78" x="1739.055" y="737.008" stroke="gray" stroke-linecap="round" stroke-linejoin="round" stroke-width="1"/><text fill="#000" transform="translate(1755.0551 754.56165)"><tspan x="0" y="23" fill="#000" font-family="Helvetica Neue" font-size="24">UDP Header</tspan></text></g><g id="Graphic_5"><rect width="907.087" height="63.78" x="1739.055" y="800.787" fill="#333"/><rect width="907.087" height="63.78" x="1739.055" y="800.787" stroke="gray" stroke-linecap="round" stroke-linejoin="round" stroke-width="1"/><text fill="#fff" transform="translate(1755.0551 818.3412)"><tspan x="0" y="23" fill="#fff" font-family="Helvetica Neue" font-size="24">VXLAN/Geneve Header</tspan></text></g><g id="Graphic_6"><rect width="907.087" height="63.78" x="1739.055" y="864.567" fill="#fff"/><rect width="907.087" height="63.78" x="1739.055" y="864.567" stroke="gray" stroke-linecap="round" stroke-linejoin="round" stroke-width="1"/><text fill="#000" transform="translate(1755.0551 882.1207)"><tspan x="0" y="23" fill="#000" font-family="Helvetica Neue" font-size="24">Inner Ethernet Header (VLAN Tagged)</tspan></text></g><g id="Graphic_7"><rect width="907.087" height="63.78" x="1739.055" y="928.346" fill="#fff"/><rect width="907.087" height="63.78" x="1739.055" y="928.346" stroke="gray" stroke-linecap="round" stroke-linejoin="round" stroke-width="1"/><text fill="#000" transform="translate(1755.0551 945.9002)"><tspan x="0" y="23" fill="#000" font-family="Helvetica Neue" font-size="24">Inner IP Header</tspan></text></g><g id="Graphic_8"><rect width="907.087" height="63.78" x="1739.055" y="992.126" fill="#fff"/><rect width="907.087" height="63.78" x="1739.055" y="992.126" stroke="gray" stroke-linecap="round" stroke-linejoin="round" stroke-width="1"/><text fill="#000" transform="translate(1755.0551 1009.6798)"><tspan x="0" y="23" fill="#000" font-family="Helvetica Neue" font-size="24">Inner Payload (Application Data)</tspan></text></g><g id="Graphic_9"><rect width="907.087" height="63.78" x="2841.732" y="660.687" fill="#fff"/><rect width="907.087" height="63.78" x="2841.732" y="660.687" stroke="gray" stroke-linecap="round" stroke-linejoin="round" stroke-width="1"/></g><g id="Graphic_10"><rect width="28.346" height="63.78" x="2841.732" y="660.687" fill="#fff"/><rect width="28.346" height="63.78" x="2841.732" y="660.687" stroke="gray" stroke-linecap="round" stroke-linejoin="round" stroke-width="1"/><text fill="#000" transform="translate(2846.7323 678.2404)"><tspan x=".953" y="23" fill="#000" font-family="Helvetica Neue" font-size="24">R</tspan></text></g><g id="Graphic_11"><rect width="28.346" height="63.78" x="2870.079" y="660.687" fill="#fff"/><rect width="28.346" height="63.78" x="2870.079" y="660.687" stroke="gray" stroke-linecap="round" stroke-linejoin="round" stroke-width="1"/><text fill="#000" transform="translate(2875.0788 678.2404)"><tspan x=".953" y="23" fill="#000" font-family="Helvetica Neue" font-size="24">R</tspan></text></g><g id="Graphic_12"><rect width="28.346" height="63.78" x="2898.425" y="660.687" fill="#fff"/><rect width="28.346" height="63.78" x="2898.425" y="660.687" stroke="gray" stroke-linecap="round" stroke-linejoin="round" stroke-width="1"/><text fill="#000" transform="translate(2903.4252 678.2404)"><tspan x=".953" y="23" fill="#000" font-family="Helvetica Neue" font-size="24">R</tspan></text></g><g id="Graphic_13"><rect width="28.346" height="63.78" x="2926.772" y="660.687" fill="#fff"/><rect width="28.346" height="63.78" x="2926.772" y="660.687" stroke="gray" stroke-linecap="round" stroke-linejoin="round" stroke-width="1"/><text fill="#000" transform="translate(2931.7717 678.2404)"><tspan x=".953" y="23" fill="#000" font-family="Helvetica Neue" font-size="24">R</tspan></text></g><g id="Graphic_14"><rect width="680.315" height="63.78" x="2841.732" y="724.466" fill="#fff"/><rect width="680.315" height="63.78" x="2841.732" y="724.466" stroke="gray" stroke-linecap="round" stroke-linejoin="round" stroke-width="1"/><text fill="#000" transform="translate(2846.7323 742.02)"><tspan x="170.517" y="23" fill="#000" font-family="Helvetica Neue" font-size="24">VXLAN Network Identifier (VNI)</tspan></text></g><g id="Graphic_15"><rect width="226.772" height="63.78" x="3522.047" y="724.466" fill="#fff"/><rect width="226.772" height="63.78" x="3522.047" y="724.466" stroke="gray" stroke-linecap="round" stroke-linejoin="round" stroke-width="1"/><text fill="#000" transform="translate(3527.0473 742.02)"><tspan x="57.722" y="23" fill="#000" font-family="Helvetica Neue" font-size="24">Reserved</tspan></text></g><g id="Graphic_19"><rect width="28.346" height="63.78" x="2955.118" y="660.687" fill="#fff"/><rect width="28.346" height="63.78" x="2955.118" y="660.687" stroke="gray" stroke-linecap="round" stroke-linejoin="round" stroke-width="1"/><text fill="#000" transform="translate(2960.118 678.2404)"><tspan x="6.065" y="23" fill="#000" font-family="Helvetica Neue" font-size="24">I</tspan></text></g><g id="Graphic_18"><rect width="28.346" height="63.78" x="2983.465" y="660.687" fill="#fff"/><rect width="28.346" height="63.78" x="2983.465" y="660.687" stroke="gray" stroke-linecap="round" stroke-linejoin="round" stroke-width="1"/><text fill="#000" transform="translate(2988.4646 678.2404)"><tspan x=".953" y="23" fill="#000" font-family="Helvetica Neue" font-size="24">R</tspan></text></g><g id="Graphic_17"><rect width="28.346" height="63.78" x="3011.811" y="660.687" fill="#fff"/><rect width="28.346" height="63.78" x="3011.811" y="660.687" stroke="gray" stroke-linecap="round" stroke-linejoin="round" stroke-width="1"/><text fill="#000" transform="translate(3016.811 678.2404)"><tspan x=".953" y="23" fill="#000" font-family="Helvetica Neue" font-size="24">R</tspan></text></g><g id="Graphic_16"><rect width="28.346" height="63.78" x="3040.157" y="660.687" fill="#fff"/><rect width="28.346" height="63.78" x="3040.157" y="660.687" stroke="gray" stroke-linecap="round" stroke-linejoin="round" stroke-width="1"/><text fill="#000" transform="translate(3045.1575 678.2404)"><tspan x=".953" y="23" fill="#000" font-family="Helvetica Neue" font-size="24">R</tspan></text></g><g id="Graphic_20"><rect width="680.315" height="63.78" x="3068.504" y="660.687" fill="#fff"/><rect width="680.315" height="63.78" x="3068.504" y="660.687" stroke="gray" stroke-linecap="round" stroke-linejoin="round" stroke-width="1"/><text fill="#000" transform="translate(3073.504 678.2404)"><tspan x="284.493" y="23" fill="#000" font-family="Helvetica Neue" font-size="24">Reserved</tspan></text></g><g id="Graphic_32"><rect width="907.087" height="63.78" x="2841.732" y="852.025" fill="#fff"/><rect width="907.087" height="63.78" x="2841.732" y="852.025" stroke="gray" stroke-linecap="round" stroke-linejoin="round" stroke-width="1"/></g><g id="Graphic_31"><rect width="56.693" height="63.78" x="2841.732" y="852.025" fill="#fff"/><rect width="56.693" height="63.78" x="2841.732" y="852.025" stroke="gray" stroke-linecap="round" stroke-linejoin="round" stroke-width="1"/><text fill="#000" transform="translate(2846.7323 869.579)"><tspan x="6.234" y="23" fill="#000" font-family="Helvetica Neue" font-size="24">Ver</tspan></text></g><g id="Graphic_29"><rect width="170.079" height="63.78" x="2898.425" y="852.025" fill="#fff"/><rect width="170.079" height="63.78" x="2898.425" y="852.025" stroke="gray" stroke-linecap="round" stroke-linejoin="round" stroke-width="1"/><text fill="#000" transform="translate(2903.4252 869.579)"><tspan x="36.899" y="23" fill="#000" font-family="Helvetica Neue" font-size="24">Opt Len</tspan></text></g><g id="Graphic_27"><rect width="680.315" height="63.78" x="2841.732" y="915.805" fill="#fff"/><rect width="680.315" height="63.78" x="2841.732" y="915.805" stroke="gray" stroke-linecap="round" stroke-linejoin="round" stroke-width="1"/><text fill="#000" transform="translate(2846.7323 933.3586)"><tspan x="174.957" y="23" fill="#000" font-family="Helvetica Neue" font-size="24">Virtual Network Identifier (VNI)</tspan></text></g><g id="Graphic_26"><rect width="226.772" height="63.78" x="3522.047" y="915.805" fill="#fff"/><rect width="226.772" height="63.78" x="3522.047" y="915.805" stroke="gray" stroke-linecap="round" stroke-linejoin="round" stroke-width="1"/><text fill="#000" transform="translate(3527.0473 933.3586)"><tspan x="57.722" y="23" fill="#000" font-family="Helvetica Neue" font-size="24">Reserved</tspan></text></g><g id="Graphic_21"><rect width="170.079" height="63.78" x="3125.197" y="852.025" fill="#fff"/><rect width="170.079" height="63.78" x="3125.197" y="852.025" stroke="gray" stroke-linecap="round" stroke-linejoin="round" stroke-width="1"/><text fill="#000" transform="translate(3130.197 869.579)"><tspan x="29.375" y="23" fill="#000" font-family="Helvetica Neue" font-size="24">Reserved</tspan></text></g><g id="Graphic_33"><rect width="907.087" height="63.78" x="2841.732" y="979.584" fill="#333"/><rect width="907.087" height="63.78" x="2841.732" y="979.584" stroke="gray" stroke-linecap="round" stroke-linejoin="round" stroke-width="1"/><text fill="#fff" transform="translate(2857.7323 997.1381)"><tspan x="307.727" y="23" fill="#fff" font-family="Helvetica Neue" font-size="24">Variable-Length Options</tspan></text></g><g id="Graphic_34"><rect width="28.346" height="63.78" x="3068.504" y="852.025" fill="#fff"/><rect width="28.346" height="63.78" x="3068.504" y="852.025" stroke="gray" stroke-linecap="round" stroke-linejoin="round" stroke-width="1"/><text fill="#000" transform="translate(3073.504 869.579)"><tspan x=".053" y="23" fill="#000" font-family="Helvetica Neue" font-size="24">O</tspan></text></g><g id="Graphic_35"><rect width="28.346" height="63.78" x="3096.85" y="852.025" fill="#fff"/><rect width="28.346" height="63.78" x="3096.85" y="852.025" stroke="gray" stroke-linecap="round" stroke-linejoin="round" stroke-width="1"/><text fill="#000" transform="translate(3101.8504 869.579)"><tspan x=".509" y="23" fill="#000" font-family="Helvetica Neue" font-size="24">C</tspan></text></g><g id="Graphic_36"><rect width="453.543" height="63.78" x="3295.276" y="852.025" fill="#fff"/><rect width="453.543" height="63.78" x="3295.276" y="852.025" stroke="gray" stroke-linecap="round" stroke-linejoin="round" stroke-width="1"/><text fill="#000" transform="translate(3300.2756 869.579)"><tspan x="148.212" y="23" fill="#000" font-family="Helvetica Neue" font-size="24">Protocol Type</tspan></text></g><g id="Graphic_37"><text fill="#000" transform="translate(2846.7323 818.3291)"><tspan x="0" y="23" fill="#000" font-family="Helvetica Neue" font-size="24" font-weight="bold">Geneve Header:</tspan></text></g><g id="Graphic_38"><text fill="#000" transform="translate(2846.7323 626.9905)"><tspan x="0" y="23" fill="#000" font-family="Helvetica Neue" font-size="24" font-weight="bold">VXLAN Header:</tspan></text></g><g id="Graphic_42"><text fill="#000" transform="translate(1745.1231 571.4488)"><tspan x="0" y="23" fill="#000" font-family="Helvetica Neue" font-size="24" font-weight="bold">VXLAN/Geneve Packet</tspan></text></g><g id="Graphic_45"><text fill="#000" transform="translate(2846.7323 1112.1434)"><tspan x="0" y="23" fill="#000" font-family="Helvetica Neue" font-size="24" font-weight="bold">Tunnel Options:</tspan></text></g><g id="Group_73"><g id="Graphic_52"><rect width="453.543" height="63.78" x="2841.732" y="1145.84" fill="#fff"/><rect width="453.543" height="63.78" x="2841.732" y="1145.84" stroke="gray" stroke-linecap="round" stroke-linejoin="round" stroke-width="1"/><text fill="#000" transform="translate(2846.7323 1163.3933)"><tspan x="152.424" y="23" fill="#000" font-family="Helvetica Neue" font-size="24">Option Class</tspan></text></g><g id="Graphic_51"><rect width="141.732" height="63.78" x="3607.087" y="1145.84" fill="#fff"/><rect width="141.732" height="63.78" x="3607.087" y="1145.84" stroke="gray" stroke-linecap="round" stroke-linejoin="round" stroke-width="1"/><text fill="#000" transform="translate(3612.0866 1163.3933)"><tspan x="28.738" y="23" fill="#000" font-family="Helvetica Neue" font-size="24">Length</tspan></text></g><g id="Graphic_49"><rect width="907.087" height="63.78" x="2841.732" y="1209.619" fill="#fff"/><rect width="907.087" height="63.78" x="2841.732" y="1209.619" stroke="gray" stroke-linecap="round" stroke-linejoin="round" stroke-width="1"/><text fill="#000" transform="translate(2846.7323 1227.1728)"><tspan x="290.275" y="23" fill="#000" font-family="Helvetica Neue" font-size="24">Variable-Length Options Data</tspan></text></g><g id="Graphic_56"><rect width="226.772" height="63.78" x="3295.276" y="1145.84" fill="#fff"/><rect width="226.772" height="63.78" x="3295.276" y="1145.84" stroke="gray" stroke-linecap="round" stroke-linejoin="round" stroke-width="1"/><text fill="#000" transform="translate(3300.2756 1163.3933)"><tspan x="83.27" y="23" fill="#000" font-family="Helvetica Neue" font-size="24">Type</tspan></text></g><g id="Graphic_57"><rect width="28.346" height="63.78" x="3522.047" y="1145.84" fill="#fff"/><rect width="28.346" height="63.78" x="3522.047" y="1145.84" stroke="gray" stroke-linecap="round" stroke-linejoin="round" stroke-width="1"/><text fill="#000" transform="translate(3527.0473 1163.3933)"><tspan x=".953" y="23" fill="#000" font-family="Helvetica Neue" font-size="24">R</tspan></text></g><g id="Graphic_58"><rect width="28.346" height="63.78" x="3550.394" y="1145.84" fill="#fff"/><rect width="28.346" height="63.78" x="3550.394" y="1145.84" stroke="gray" stroke-linecap="round" stroke-linejoin="round" stroke-width="1"/><text fill="#000" transform="translate(3555.3937 1163.3933)"><tspan x=".953" y="23" fill="#000" font-family="Helvetica Neue" font-size="24">R</tspan></text></g><g id="Graphic_59"><rect width="28.346" height="63.78" x="3578.74" y="1145.84" fill="#fff"/><rect width="28.346" height="63.78" x="3578.74" y="1145.84" stroke="gray" stroke-linecap="round" stroke-linejoin="round" stroke-width="1"/><text fill="#000" transform="translate(3583.74 1163.3933)"><tspan x=".953" y="23" fill="#000" font-family="Helvetica Neue" font-size="24">R</tspan></text></g></g><g id="Line_62"><path stroke="#000" stroke-linecap="round" stroke-linejoin="round" stroke-width="2" marker-end="url(#FilledArrow_Marker)" d="M 2646.1417 832.6772 L 2734 832.6772 L 2734 642 L 2828.8323 642"/></g><g id="Line_63"><line x1="2646.142" x2="2828.832" y1="832.677" y2="832.677" stroke="#000" stroke-linecap="round" stroke-linejoin="round" stroke-width="2" marker-end="url(#FilledArrow_Marker)"/></g><g id="Line_64"><path stroke="#000" stroke-linecap="round" stroke-linejoin="round" stroke-width="2" marker-end="url(#FilledArrow_Marker)" d="M 3295.2756 1043.3638 L 3295.2756 1075.2536 L 2935.8443 1075.2536 L 2935.8443 1094.2434"/></g></g></g></svg>