<svg xmlns="http://www.w3.org/2000/svg" xmlns:xl="http://www.w3.org/1999/xlink" width="1493" height="935" version="1.1" viewBox="-760 -172 1493 935"><defs><marker id="FilledArrow_Marker" stroke-linejoin="miter" stroke-miterlimit="10" color="#000" markerHeight="6" markerUnits="strokeWidth" markerWidth="7" orient="auto" overflow="visible" viewBox="-1 -3 7 6"><g><path fill="currentColor" stroke="currentColor" stroke-width="1" d="M 4.8 0 L 0 -1.8 L 0 1.8 Z"/></g></marker><marker id="FilledArrow_Marker_2" stroke-linejoin="miter" stroke-miterlimit="10" color="#000" markerHeight="8" markerUnits="strokeWidth" markerWidth="10" orient="auto" overflow="visible" viewBox="-1 -4 10 8"><g><path fill="currentColor" stroke="currentColor" stroke-width="1" d="M 8 0 L 0 -3 L 0 3 Z"/></g></marker><marker id="FilledArrow_Marker_3" stroke-linejoin="miter" stroke-miterlimit="10" color="#000" markerHeight="8" markerUnits="strokeWidth" markerWidth="10" orient="auto" overflow="visible" viewBox="-9 -4 10 8"><g><path fill="currentColor" stroke="currentColor" stroke-width="1" d="M -8 0 L 0 3 L 0 -3 Z"/></g></marker></defs><g id="Canvas_32" fill="none" fill-opacity="1" stroke="none" stroke-dasharray="none" stroke-opacity="1"><title>Canvas 32</title><rect width="1493" height="935" x="-760" y="-172" fill="#fff"/><g id="Canvas_32_Layer_1"><title>Layer 1</title><g id="Graphic_175"><rect width="409.47" height="902.744" x="275.175" y="-157.554" fill="#ffffc0"/><rect width="409.47" height="902.744" x="275.175" y="-157.554" stroke="gray" stroke-linecap="round" stroke-linejoin="round" stroke-width="1"/></g><g id="Graphic_174"><rect width="1481.361" height="934" x="-759.685" y="-171.496" fill="#fff"/></g><g id="Graphic_173"><rect width="1045.019" height="902.744" x="-360.373" y="-157.554" fill="#fff"/><rect width="1045.019" height="902.744" x="-360.373" y="-157.554" stroke="#000" stroke-linecap="round" stroke-linejoin="round" stroke-width="1"/></g><g id="Graphic_172"><path stroke="#a5a5a5" stroke-dasharray="8 8" stroke-linecap="round" stroke-linejoin="round" stroke-width="2" d="M -314.35442 -93.81006 L 250.64558 -93.81006 L 250.64558 715.1899 L -314.35442 715.1899 Z"/></g><g id="Graphic_171"><rect width="540.129" height="775.814" x="-301.919" y="-79.124" fill="#f8f8f8" fill-opacity=".788"/><rect width="540.129" height="775.814" x="-301.919" y="-79.124" stroke="gray" stroke-linecap="round" stroke-linejoin="round" stroke-width="1"/></g><g id="Line_170"><title>编号 8</title><path stroke="#000" stroke-linecap="round" stroke-linejoin="round" stroke-width="2" marker-end="url(#FilledArrow_Marker)" d="M -.8745967 255.18994 L -.8745967 266.18994 L -.8640682 273.07933 L -.8640682 273.7142 L 500.8077 273.7142 L 500.8077 609.9838 L 512.6745 609.9838"/></g><g id="Line_169"><title>编号 9</title><path stroke="#000" stroke-dasharray="8 8" stroke-linecap="round" stroke-linejoin="round" stroke-width="2" marker-end="url(#FilledArrow_Marker)" d="M 525.1621 130.4931 L 518.7621 130.4931 L 189.32636 130.21148 L 124.2754 130.21148"/></g><g id="Graphic_168"><rect width="145.99" height="809" x="303.912" y="-93.31" fill="#0a55a8"/></g><g id="Graphic_167"><rect width="224.5" height="53" x="-113.125" y="-64.81" fill="#0a55a8"/><rect width="224.5" height="53" x="-113.125" y="-64.81" stroke="#a5a5a5" stroke-linecap="round" stroke-linejoin="round" stroke-width="1"/><text fill="#fff" transform="translate(-108.1246 -48.04212)"><tspan x="54.938" y="16" fill="#fff" font-family="Helvetica Neue" font-size="16">PREROUTING</tspan></text></g><g id="Graphic_166"><rect width="224.5" height="53" x="-113.125" y="24.19" fill="#0a55a8"/><rect width="224.5" height="53" x="-113.125" y="24.19" stroke="gray" stroke-linecap="round" stroke-linejoin="round" stroke-width="1"/><text fill="#fff" transform="translate(-108.1246 40.95788)"><tspan x="83.394" y="16" fill="#fff" font-family="Helvetica Neue" font-size="16">INPUT</tspan></text></g><g id="Graphic_165"><rect width="224.5" height="53" x="-113.125" y="113.19" fill="#0a55a8"/><rect width="224.5" height="53" x="-113.125" y="113.19" stroke="gray" stroke-linecap="round" stroke-linejoin="round" stroke-width="1"/><text fill="#fff" transform="translate(-108.1246 129.95788)"><tspan x="74.794" y="16" fill="#fff" font-family="Helvetica Neue" font-size="16">OUTPUT</tspan></text></g><g id="Graphic_164"><rect width="224.5" height="53" x="-113.125" y="202.19" fill="#0a55a8"/><rect width="224.5" height="53" x="-113.125" y="202.19" stroke="gray" stroke-linecap="round" stroke-linejoin="round" stroke-width="1"/><text fill="#fff" transform="translate(-108.1246 218.95788)"><tspan x="49.602" y="16" fill="#fff" font-family="Helvetica Neue" font-size="16">POSTROUTING</tspan></text></g><g id="Graphic_163"><rect width="224.5" height="53" x="-113.125" y="291.19" fill="#0a55a8"/><rect width="224.5" height="53" x="-113.125" y="291.19" stroke="gray" stroke-linecap="round" stroke-linejoin="round" stroke-width="1"/><text fill="#fff" transform="translate(-108.1246 307.95788)"><tspan x="45.754" y="16" fill="#fff" font-family="Helvetica Neue" font-size="16">ISTIO_INBOUND</tspan></text></g><g id="Graphic_162"><rect width="224.5" height="53" x="-113.125" y="380.19" fill="#0a55a8"/><rect width="224.5" height="53" x="-113.125" y="380.19" stroke="gray" stroke-linecap="round" stroke-linejoin="round" stroke-width="1"/><text fill="#fff" transform="translate(-108.1246 396.9579)"><tspan x="30.93" y="16" fill="#fff" font-family="Helvetica Neue" font-size="16">ISTIO_IN_REDIRECT</tspan></text></g><g id="Graphic_161"><rect width="224.5" height="53" x="-113.125" y="475.19" fill="#0a55a8"/><rect width="224.5" height="53" x="-113.125" y="475.19" stroke="gray" stroke-linecap="round" stroke-linejoin="round" stroke-width="1"/><text fill="#fff" transform="translate(-108.1246 491.9579)"><tspan x="50.338" y="16" fill="#fff" font-family="Helvetica Neue" font-size="16">ISTIO_OUTPUT</tspan></text></g><g id="Graphic_160"><rect width="224.5" height="53" x="-113.125" y="570.19" fill="#0a55a8"/><rect width="224.5" height="53" x="-113.125" y="570.19" stroke="gray" stroke-linecap="round" stroke-linejoin="round" stroke-width="1"/><text fill="#fff" transform="translate(-108.1246 586.9579)"><tspan x="42.93" y="16" fill="#fff" font-family="Helvetica Neue" font-size="16">ISTIO_REDIRECT</tspan></text></g><g id="Line_159"><path stroke="#000" stroke-linecap="round" stroke-linejoin="round" stroke-width="2" marker-end="url(#FilledArrow_Marker)" d="M 111.3754 -38.310065 L 207.9722 -38.310065 L 207.9722 7.1827776 L 207.9722 317.68994 L 124.2754 317.68994"/></g><g id="Line_158"><path stroke="#000" stroke-linecap="round" stroke-linejoin="round" stroke-width="2" marker-end="url(#FilledArrow_Marker)" d="M -113.1246 317.68994 L -177.4864 317.68994 L -177.4864 323.72624 L -177.4864 406.68994 L -126.0246 406.68994"/></g><g id="Line_157"><line x1="111.375" x2="291.012" y1="406.69" y2="406.69" stroke="#000" stroke-linecap="round" stroke-linejoin="round" stroke-width="2" marker-end="url(#FilledArrow_Marker)"/></g><g id="Graphic_156"><path fill="#000" d="M 207.9722 -12.692794 L 207.9722 -12.692794 C 213.19018 -12.692794 217.4202 -8.46278 217.4202 -3.2447936 L 217.4202 6.3072045 C 217.4202 11.525191 213.19018 15.755204 207.9722 15.755204 L 207.9722 15.755204 C 202.7542 15.755204 198.5242 11.525191 198.5242 6.3072045 L 198.5242 -3.2447936 C 198.5242 -8.46278 202.7542 -12.692794 207.9722 -12.692794 Z"/><text fill="#fff" transform="translate(203.5242 -7.692794)"><tspan x="0" y="15" fill="#fff" font-family="Helvetica Neue" font-size="16">2</tspan></text></g><g id="Graphic_155"><path fill="#000" d="M -177.4864 348.2597 L -177.4864 348.2597 C -172.2684 348.2597 -168.0384 352.48973 -168.0384 357.7077 L -168.0384 367.2597 C -168.0384 372.4777 -172.2684 376.7077 -177.4864 376.7077 L -177.4864 376.7077 C -182.70438 376.7077 -186.9344 372.4777 -186.9344 367.2597 L -186.9344 357.7077 C -186.9344 352.48973 -182.70438 348.2597 -177.4864 348.2597 Z"/><text fill="#fff" transform="translate(-181.9344 353.2597)"><tspan x="0" y="15" fill="#fff" font-family="Helvetica Neue" font-size="16">3</tspan></text></g><g id="Graphic_154"><path fill="#000" d="M 129.60234 392.46594 L 129.60234 392.46594 C 134.82033 392.46594 139.05034 396.69595 139.05034 401.91394 L 139.05034 411.46593 C 139.05034 416.6839 134.82033 420.91393 129.60234 420.91393 L 129.60234 420.91393 C 124.38435 420.91393 120.15434 416.6839 120.15434 411.46593 L 120.15434 401.91394 C 120.15434 396.69595 124.38435 392.46594 129.60234 392.46594 Z"/><text fill="#fff" transform="translate(125.15434 397.46594)"><tspan x="0" y="15" fill="#fff" font-family="Helvetica Neue" font-size="16">4</tspan></text></g><g id="Line_153"><path stroke="#000" stroke-linecap="round" stroke-linejoin="round" stroke-width="2" marker-end="url(#FilledArrow_Marker)" d="M -113.1246 139.68994 L -217.58737 139.68994 L -217.58737 179.7304 L -217.58737 501.68994 L -126.0246 501.68994"/></g><g id="Graphic_152"><path fill="#000" d="M -217.58737 318.22297 L -217.58737 318.22297 C -212.36939 318.22297 -208.13937 322.453 -208.13937 327.67097 L -208.13937 337.22297 C -208.13937 342.44095 -212.36939 346.67097 -217.58737 346.67097 L -217.58737 346.67097 C -222.80536 346.67097 -227.03537 342.44095 -227.03537 337.22297 L -227.03537 327.67097 C -227.03537 322.453 -222.80536 318.22297 -217.58737 318.22297 Z"/><text fill="#fff" transform="translate(-222.03537 323.22297)"><tspan x="0" y="15" fill="#fff" font-family="Helvetica Neue" font-size="16">6</tspan></text></g><g id="Line_151"><path stroke="#000" stroke-linecap="round" stroke-linejoin="round" stroke-width="2" marker-end="url(#FilledArrow_Marker)" d="M 303.9119 192.78675 L -.8745967 192.78675 L -.8745967 179.08994"/></g><g id="Graphic_150"><path fill="#000" d="M 141.24918 178.56275 L 141.24918 178.56275 C 146.46717 178.56275 150.69718 182.79277 150.69718 188.01075 L 150.69718 197.56275 C 150.69718 202.78074 146.46717 207.01075 141.24918 207.01075 L 141.24918 207.01075 C 136.0312 207.01075 131.80118 202.78074 131.80118 197.56275 L 131.80118 188.01075 C 131.80118 182.79277 136.0312 178.56275 141.24918 178.56275 Z"/><text fill="#fff" transform="translate(136.80118 183.56275)"><tspan x="0" y="15" fill="#fff" font-family="Helvetica Neue" font-size="16">5</tspan></text></g><g id="Graphic_148"><text fill="#000" transform="translate(166.0208 388.24194)"><tspan x="0" y="15" fill="#000" font-family="Helvetica Neue" font-size="16">Inbound</tspan> <tspan x="7.992" y="33.448" fill="#000" font-family="Helvetica Neue" font-size="16">Traffic</tspan></text></g><g id="Graphic_147"><text fill="#000" transform="translate(92.35258 629.79065)"><tspan x="0" y="15" fill="#000" font-family="Helvetica Neue" font-size="16">Outbound</tspan> <tspan x="16.744" y="33.448" fill="#000" font-family="Helvetica Neue" font-size="16">Traffic</tspan></text></g><g id="Line_146"><title>编号 15</title><path stroke="#000" stroke-dasharray="8 8" stroke-linecap="round" stroke-linejoin="round" stroke-width="2" marker-end="url(#FilledArrow_Marker)" d="M -.8745967 528.18994 L -.8745967 546.8891 L 699.7755 546.8891"/></g><g id="Graphic_145"><rect width="121" height="809" x="525.147" y="-93.31" fill="#0a55a8"/></g><g id="Graphic_144"><text fill="#000" transform="translate(-283.9203 658.197)"><tspan x="0" y="20" fill="#000" font-family="Helvetica Neue" font-size="20" font-weight="bold">iptables manipulations</tspan></text></g><g id="Graphic_143"><text fill="#000" transform="translate(-351.80303 220.84994) rotate(-90)"><tspan x="0" y="20" fill="#000" font-family="Helvetica Neue" font-size="20" font-weight="bold">Reviews Pod</tspan></text></g><g id="Graphic_142"><text fill="#000" transform="translate(-348.7595 658.1084) rotate(-90)"><tspan x="0" y="17" fill="#000" font-family="Helvetica Neue" font-size="17" font-weight="bold">Init Container</tspan></text></g><g id="Graphic_140"><text fill="#000" transform="translate(-276.19372 -56.75806)"><tspan x="9.784" y="15" fill="#000" font-family="Helvetica Neue" font-size="16">Inbound</tspan> <tspan x="0" y="33.448" fill="#000" font-family="Helvetica Neue" font-size="16">TCP Traffic</tspan></text></g><g id="Line_138"><path stroke="#000" stroke-linecap="round" stroke-linejoin="round" stroke-width="2" marker-end="url(#FilledArrow_Marker)" d="M -338.01296 663.1084 L -338.01296 702.344 L -337.06197 702.344 L -323.612 702.4303"/></g><g id="Graphic_135"><text fill="#000" transform="translate(-347.23696 531.23394) rotate(-90)"><tspan x="0" y="15" fill="#000" font-family="Helvetica Neue" font-size="16">Terminated after iptables setup</tspan></text></g><g id="Graphic_134"><text fill="#000" transform="translate(194.92198 614.7666) rotate(-90)"><tspan x="5.176" y="15" fill="#000" font-family="Helvetica Neue" font-size="16">To non-</tspan> <tspan x="0" y="33.448" fill="#000" font-family="Helvetica Neue" font-size="16">localhost</tspan></text></g><g id="Graphic_131"><rect width="28" height="100" x="525.574" y="559.984" fill="#fff"/><rect width="28" height="100" x="525.574" y="559.984" stroke="#a5a5a5" stroke-linecap="round" stroke-linejoin="round" stroke-width="1"/><text fill="#000" transform="translate(530.3505 644.9598) rotate(-90)"><tspan x="0" y="15" fill="#000" font-family="Helvetica Neue" font-size="16">Port 9080</tspan></text></g><g id="Graphic_129"><path fill="#000" d="M 185.26891 115.98748 L 185.26891 115.98748 C 190.4869 115.98748 194.71691 120.21749 194.71691 125.43548 L 194.71691 134.98748 C 194.71691 140.20546 190.4869 144.43548 185.26891 144.43548 L 185.26891 144.43548 C 180.05093 144.43548 175.82091 140.20546 175.82091 134.98748 L 175.82091 125.43548 C 175.82091 120.21749 180.05093 115.98748 185.26891 115.98748 Z"/><text fill="#fff" transform="translate(180.82091 120.98748)"><tspan x="0" y="15" fill="#fff" font-family="Helvetica Neue" font-size="16">9</tspan></text></g><g id="Graphic_128"><text fill="#000" transform="translate(455.5794 112.01744)"><tspan x="22.528" y="15" fill="#000" font-family="Helvetica Neue" font-size="16">To</tspan> <tspan x="0" y="33.448" fill="#000" font-family="Helvetica Neue" font-size="16">Upstram</tspan></text></g><g id="Line_125"><path stroke="#000" stroke-dasharray="8 8" stroke-linecap="round" stroke-linejoin="round" stroke-width="2" marker-end="url(#FilledArrow_Marker)" d="M -113.1246 151.18994 L -193.9151 151.18994 L -193.9151 270.8651 L -193.9151 484.18994 L -126.0246 484.18994"/></g><g id="Graphic_124"><path fill="#000" d="M -193.9151 186.17274 L -193.9151 186.17274 C -186.24055 186.17274 -180.0191 192.3942 -180.0191 200.06874 L -180.0191 200.72474 C -180.0191 208.3993 -186.24055 214.62074 -193.9151 214.62074 L -193.9151 214.62074 C -201.58965 214.62074 -207.8111 208.3993 -207.8111 200.72474 L -207.8111 200.06874 C -207.8111 192.3942 -201.58965 186.17274 -193.9151 186.17274 Z"/><text fill="#fff" transform="translate(-202.8111 191.17274)"><tspan x="0" y="15" fill="#fff" font-family="Helvetica Neue" font-size="16">10</tspan></text></g><g id="Line_121"><path stroke="#000" stroke-dasharray="8 8" stroke-linecap="round" stroke-linejoin="round" stroke-width="2" marker-end="url(#FilledArrow_Marker)" d="M 111.3754 512.9298 L 212.97346 512.9298 L 213.42393 555.8916 L 213.31016 611.9399 L 213.31016 615.9399 L 124.06816 615.9399"/></g><g id="Graphic_120"><path fill="#000" d="M 28.761898 259.4902 L 28.761898 259.4902 C 33.979884 259.4902 38.209898 263.7202 38.209898 268.9382 L 38.209898 278.4902 C 38.209898 283.7082 33.979884 287.9382 28.761898 287.9382 L 28.761898 287.9382 C 23.54391 287.9382 19.313898 283.7082 19.313898 278.4902 L 19.313898 268.9382 C 19.313898 263.7202 23.54391 259.4902 28.761898 259.4902 Z"/><text fill="#fff" transform="translate(24.313898 264.4902)"><tspan x="0" y="15" fill="#fff" font-family="Helvetica Neue" font-size="16">8</tspan></text></g><g id="Line_117"><path stroke="#000" stroke-dasharray="8 8" stroke-linecap="round" stroke-linejoin="round" stroke-width="2" marker-end="url(#FilledArrow_Marker)" d="M -.8237548 623.1899 L -.5973506 648.23865 L 291.0119 648.23865"/></g><g id="Graphic_116"><path fill="#000" d="M 45.56334 634.01465 L 45.56334 634.01465 C 53.23789 634.01465 59.45934 640.2361 59.45934 647.91065 L 59.45934 648.56665 C 59.45934 656.2412 53.23789 662.46265 45.56334 662.46265 L 45.56334 662.46265 C 37.88879 662.46265 31.66734 656.2412 31.66734 648.56665 L 31.66734 647.91065 C 31.66734 640.2361 37.88879 634.01465 45.56334 634.01465 Z"/><text fill="#fff" transform="translate(36.66734 639.01465)"><tspan x="0" y="15" fill="#fff" font-family="Helvetica Neue" font-size="16">12</tspan></text></g><g id="Line_113"><path stroke="#000" stroke-dasharray="8 8" stroke-linecap="round" stroke-linejoin="round" stroke-width="2" marker-end="url(#FilledArrow_Marker)" d="M 303.01914 148.41743 L 291.61914 148.41743 L 124.44607 148.40121"/></g><g id="Graphic_112"><path fill="#000" d="M 152.68652 134.17995 L 152.68652 134.17995 C 160.36107 134.17995 166.58252 140.4014 166.58252 148.07595 L 166.58252 148.73195 C 166.58252 156.4065 160.36107 162.62795 152.68652 162.62795 L 152.68652 162.62795 C 145.01197 162.62795 138.79052 156.4065 138.79052 148.73195 L 138.79052 148.07595 C 138.79052 140.4014 145.01197 134.17995 152.68652 134.17995 Z"/><text fill="#fff" transform="translate(143.79052 139.17995)"><tspan x="0" y="15" fill="#fff" font-family="Helvetica Neue" font-size="16">13</tspan></text></g><g id="Graphic_107"><path fill="#000" d="M 47.84562 532.6651 L 47.84562 532.6651 C 40.113633 532.6651 33.84562 538.9331 33.84562 546.6651 L 33.84562 547.1131 C 33.84562 554.8451 40.113633 561.1131 47.84562 561.1131 L 47.84562 561.1131 C 55.577606 561.1131 61.84562 554.8451 61.84562 547.1131 L 61.84562 546.6651 C 61.84562 538.9331 55.577606 532.6651 47.84562 532.6651 Z"/><text fill="#fff" transform="translate(38.84562 537.6651)"><tspan x=".104" y="15" fill="#fff" font-family="Helvetica Neue" font-size="16">15</tspan></text></g><g id="Line_101"><path stroke="#a5a5a5" stroke-linecap="round" stroke-linejoin="round" stroke-width="2" d="M 276.28328 -157.55406 L 276.54042 232.02841 L 275.66294 745.1899"/></g><g id="Graphic_100"><text fill="#000" transform="translate(-148.82442 -144.2924)"><tspan x="0" y="20" fill="#000" font-family="Helvetica Neue" font-size="20" font-weight="bold">Netfilter/Linux Kernel </tspan> <tspan y="20" fill="#000" font-family="Helvetica Neue" font-size="20" font-weight="bold">Space</tspan></text></g><g id="Graphic_99"><text fill="#000" transform="translate(355.7358 -144.2924)"><tspan x="0" y="20" fill="#000" font-family="Helvetica Neue" font-size="20" font-weight="bold">App &amp;</tspan> <tspan y="20" fill="#000" font-family="Helvetica Neue" font-size="20" font-weight="bold"> Sidecar/Linux User Space</tspan></text></g><g id="Graphic_92"><text fill="#fff" transform="translate(312.1547 -74.44685)"><tspan x="2.224" y="15" fill="#fff" font-family="Helvetica Neue" font-size="16">Executing routing </tspan> <tspan x="30.824" y="33.448" fill="#fff" font-family="Helvetica Neue" font-size="16">decisions</tspan> <tspan x="9.64" y="51.896" fill="#fff" font-family="Helvetica Neue" font-size="16">configured with</tspan> <tspan x="49.792" y="70.344" fill="#fff" font-family="Helvetica Neue" font-size="16">xDS</tspan></text></g><g id="Graphic_91"><text fill="#000" transform="translate(-727.786 87.5381)"><tspan x="0" y="15" fill="#000" font-family="Helvetica Neue" font-size="16">This diagram shows a Pod of the Review </tspan> <tspan x="0" y="33.448" fill="#000" font-family="Helvetica Neue" font-size="16">service that accepts traffic from the </tspan> <tspan x="0" y="51.896" fill="#000" font-family="Helvetica Neue" font-size="16">Productpage service while sending requests to </tspan> <tspan x="0" y="70.344" fill="#000" font-family="Helvetica Neue" font-size="16">the Ratings service.</tspan> <tspan x="0" y="106.792" fill="#000" font-family="Helvetica Neue" font-size="16">*Note: Path 16 is used for iptables rule </tspan> <tspan x="0" y="125.24" fill="#000" font-family="Helvetica Neue" font-size="16">description only and is not in the routing path </tspan> <tspan x="0" y="143.688" fill="#000" font-family="Helvetica Neue" font-size="16">for this example.</tspan></text></g><g id="Line_90"><line x1="-499.821" x2="-126.025" y1="-38.31" y2="-38.31" stroke="#000" stroke-linecap="round" stroke-linejoin="round" stroke-width="2" marker-end="url(#FilledArrow_Marker)"/></g><g id="Graphic_89"><rect width="230.904" height="84.607" x="-730.725" y="-53.172" fill="#fff"/><rect width="230.904" height="84.607" x="-730.725" y="-53.172" stroke="#000" stroke-linecap="round" stroke-linejoin="round" stroke-width="1"/></g><g id="Graphic_88"><text fill="#000" transform="translate(-698.4333 -51.06392)"><tspan x="0" y="20" fill="#000" font-family="Helvetica Neue" font-size="20" font-weight="bold">Productpage Pod</tspan></text></g><g id="Graphic_87"><rect width="115.452" height="54.355" x="-730.725" y="-22.92" fill="#0a55a8"/><rect width="115.452" height="54.355" x="-730.725" y="-22.92" stroke="#000" stroke-linecap="round" stroke-linejoin="round" stroke-width="1"/><text fill="#fff" transform="translate(-715.1643 -18.26475)"><tspan x="25.002" y="18" fill="#fff" font-family="Helvetica Neue" font-size="18" font-weight="bold">App</tspan> <tspan x="0" y="40.522" fill="#fff" font-family="Helvetica Neue" font-size="18" font-weight="bold">Container</tspan></text></g><g id="Graphic_86"><rect width="115.452" height="54.355" x="-615.273" y="-22.92" fill="#0a55a8"/><rect width="115.452" height="54.355" x="-615.273" y="-22.92" stroke="#000" stroke-linecap="round" stroke-linejoin="round" stroke-width="1"/><text fill="#fff" transform="translate(-590.2083 -18.26475)"><tspan x="0" y="18" fill="#fff" font-family="Helvetica Neue" font-size="18" font-weight="bold">Sidecar</tspan> <tspan x="8.316" y="40.522" fill="#fff" font-family="Helvetica Neue" font-size="18" font-weight="bold">Proxy</tspan></text></g><g id="Graphic_85"><path fill="#000" d="M -405.90335 -52.534064 L -405.90335 -52.534064 C -400.68536 -52.534064 -396.45535 -48.30405 -396.45535 -43.086064 L -396.45535 -33.534066 C -396.45535 -28.31608 -400.68536 -24.086066 -405.90335 -24.086066 L -405.90335 -24.086066 C -411.12134 -24.086066 -415.35135 -28.31608 -415.35135 -33.534066 L -415.35135 -43.086064 C -415.35135 -48.30405 -411.12134 -52.534064 -405.90335 -52.534064 Z"/><text fill="#fff" transform="translate(-410.35135 -47.534064)"><tspan x="0" y="15" fill="#fff" font-family="Helvetica Neue" font-size="16">1</tspan></text></g><g id="Graphic_83"><text fill="#fff" transform="translate(340.6167 144.50171)"><tspan x="0" y="20" fill="#fff" font-family="Helvetica Neue" font-size="20" font-weight="bold">Sidecar</tspan> <tspan x="9.24" y="44.58" fill="#fff" font-family="Helvetica Neue" font-size="20" font-weight="bold">Proxy</tspan></text></g><g id="Group_80"><g id="Graphic_82"><rect width="20.867" height="182.897" x="324.701" y="294.19" fill="#0a55a8"/><rect width="20.867" height="182.897" x="324.701" y="294.19" stroke="gray" stroke-linecap="round" stroke-linejoin="round" stroke-width="1"/><text fill="#fff" transform="translate(325.9108 445.3584) rotate(-90)"><tspan x="0" y="15" fill="#fff" font-family="Helvetica Neue" font-size="16">Inbound Handler</tspan></text></g><g id="Graphic_81"><rect width="20.867" height="182.897" x="324.701" y="477.087" fill="#0a55a8"/><rect width="20.867" height="182.897" x="324.701" y="477.087" stroke="gray" stroke-linecap="round" stroke-linejoin="round" stroke-width="1"/><text fill="#fff" transform="translate(325.9108 634.78335) rotate(-90)"><tspan x="0" y="15" fill="#fff" font-family="Helvetica Neue" font-size="16">Outbound Handler</tspan></text></g></g><g id="Graphic_79"><text fill="#fff" transform="translate(538.8121 146.00171)"><tspan x="27.78" y="20" fill="#fff" font-family="Helvetica Neue" font-size="20" font-weight="bold">App</tspan> <tspan x="0" y="44.58" fill="#fff" font-family="Helvetica Neue" font-size="20" font-weight="bold">Container</tspan></text></g><g id="Graphic_78"><text fill="#fff" transform="translate(530.1472 -74.124065)"><tspan x="3.576" y="15" fill="#fff" font-family="Helvetica Neue" font-size="16">Send requests</tspan> <tspan x="12.312" y="33.448" fill="#fff" font-family="Helvetica Neue" font-size="16">to upstream</tspan> <tspan x="48.04" y="51.896" fill="#fff" font-family="Helvetica Neue" font-size="16">or</tspan> <tspan x="0" y="70.344" fill="#fff" font-family="Helvetica Neue" font-size="16">consume traffic</tspan> <tspan x="8.32" y="88.792" fill="#fff" font-family="Helvetica Neue" font-size="16">redirected by</tspan> <tspan x="27.144" y="107.24" fill="#fff" font-family="Helvetica Neue" font-size="16">iptables</tspan></text></g><g id="Graphic_77"><rect width="20.867" height="182.794" x="303.912" y="294.19" fill="#fff"/><rect width="20.867" height="182.794" x="303.912" y="294.19" stroke="gray" stroke-linecap="round" stroke-linejoin="round" stroke-width="1"/><text fill="#000" transform="translate(305.12124 425.0109) rotate(-90)"><tspan x="0" y="15" fill="#000" font-family="Helvetica Neue" font-size="16">Port 15006</tspan></text></g><g id="Line_76"><path stroke="#000" stroke-linecap="round" stroke-linejoin="round" stroke-width="2" marker-end="url(#FilledArrow_Marker)" d="M 111.3754 502.02235 L 139.10234 502.10446 L 150.87164 502.10446 L 150.87164 316.2221 L 150.87164 228.68994 L 124.2754 228.68994"/></g><g id="Graphic_75"><path fill="#000" d="M 150.87164 349.1878 L 150.87164 349.1878 C 156.08963 349.1878 160.31964 353.4178 160.31964 358.6358 L 160.31964 368.1878 C 160.31964 373.4058 156.08963 377.6358 150.87164 377.6358 L 150.87164 377.6358 C 145.65365 377.6358 141.42364 373.4058 141.42364 368.1878 L 141.42364 358.6358 C 141.42364 353.4178 145.65365 349.1878 150.87164 349.1878 Z"/><text fill="#fff" transform="translate(146.42364 354.1878)"><tspan x="0" y="15" fill="#fff" font-family="Helvetica Neue" font-size="16">7</tspan></text></g><g id="Graphic_72"><rect width="20.867" height="182.794" x="303.912" y="477.19" fill="#fff"/><rect width="20.867" height="182.794" x="303.912" y="477.19" stroke="gray" stroke-linecap="round" stroke-linejoin="round" stroke-width="1"/><text fill="#000" transform="translate(305.12124 608.0109) rotate(-90)"><tspan x="0" y="15" fill="#000" font-family="Helvetica Neue" font-size="16">Port 15001</tspan></text></g><g id="Graphic_71"><rect width="28.448" height="134.464" x="486.584" y="344.106" fill="#fff"/><text fill="#000" transform="translate(491.5837 473.56975) rotate(-90)"><tspan x="0" y="15" fill="#000" font-family="Helvetica Neue" font-size="16">To App Container</tspan></text></g><g id="Graphic_70"><path fill="#000" d="M -193.9151 241.30903 L -193.9151 241.30903 C -186.24055 241.30903 -180.0191 247.53048 -180.0191 255.20503 L -180.0191 255.86103 C -180.0191 263.53558 -186.24055 269.75703 -193.9151 269.75703 L -193.9151 269.75703 C -201.58965 269.75703 -207.8111 263.53558 -207.8111 255.86103 L -207.8111 255.20503 C -207.8111 247.53048 -201.58965 241.30903 -193.9151 241.30903 Z"/><text fill="#fff" transform="translate(-202.8111 246.30903)"><tspan x="0" y="15" fill="#fff" font-family="Helvetica Neue" font-size="16">14</tspan></text></g><g id="Line_69"><path stroke="#000" stroke-linecap="round" stroke-linejoin="round" stroke-width="2" marker-end="url(#FilledArrow_Marker)" d="M 111.3754 482.6285 L 141.42364 482.6285 L 141.42364 454.31036 L -.8745967 454.31036 L -.8745967 446.08994"/></g><g id="Graphic_68"><path fill="#000" d="M 49.71596 440.08636 L 49.71596 440.08636 C 57.39051 440.08636 63.61196 446.3078 63.61196 453.98236 L 63.61196 454.63836 C 63.61196 462.3129 57.39051 468.53436 49.71596 468.53436 L 49.71596 468.53436 C 42.04141 468.53436 35.81996 462.3129 35.81996 454.63836 L 35.81996 453.98236 C 35.81996 446.3078 42.04141 440.08636 49.71596 440.08636 Z"/><text fill="#fff" transform="translate(40.81996 445.08636)"><tspan x="0" y="15" fill="#fff" font-family="Helvetica Neue" font-size="16">16</tspan></text></g><g id="Graphic_66"><text fill="#000" transform="translate(-727.786 579.50414)"><tspan x="0" y="16" fill="#000" font-family="Helvetica Neue" font-size="16" font-weight="bold">Legend</tspan></text></g><g id="Line_64"><line x1="-728.395" x2="-672.474" y1="619.505" y2="619.505" stroke="#000" stroke-dasharray="8 8" stroke-linecap="round" stroke-linejoin="round" stroke-width="2" marker-end="url(#FilledArrow_Marker)"/></g><g id="Graphic_63"><text fill="#000" transform="translate(-620.21424 610.2814)"><tspan x="0" y="15" fill="#000" font-family="Helvetica Neue" font-size="16">Outbound Traffic Routing</tspan></text></g><g id="Graphic_59"><text fill="#000" transform="translate(-620.21424 640.5506)"><tspan x="0" y="15" fill="#000" font-family="Helvetica Neue" font-size="16">Inbound TCP Traffic Routing</tspan></text></g><g id="Line_58"><line x1="-728.867" x2="-672.474" y1="649.846" y2="649.794" stroke="#000" stroke-linecap="round" stroke-linejoin="round" stroke-width="2" marker-end="url(#FilledArrow_Marker)"/></g><g id="Graphic_57"><text fill="#000" transform="translate(78.15252 435.86236)"><tspan x="0" y="15" fill="#000" font-family="Helvetica Neue" font-size="16">Internal</tspan> <tspan x="5.16" y="33.448" fill="#000" font-family="Helvetica Neue" font-size="16">Traffic</tspan></text></g><g id="Group_47"><g id="Graphic_56"><rect width="20.867" height="182.897" x="345.568" y="294.19" fill="#fff"/><rect width="20.867" height="182.897" x="345.568" y="294.19" stroke="gray" stroke-linecap="round" stroke-linejoin="round" stroke-width="1"/><text fill="#000" transform="translate(349.86146 436.4984) rotate(-90)"><tspan x="0" y="10" fill="#000" font-family="Helvetica Neue" font-size="10">Listener 0.0.0.0_15006</tspan></text></g><g id="Graphic_55"><rect width="20.867" height="182.897" x="345.568" y="477.087" fill="#fff"/><rect width="20.867" height="182.897" x="345.568" y="477.087" stroke="gray" stroke-linecap="round" stroke-linejoin="round" stroke-width="1"/><text fill="#000" transform="translate(349.86146 619.39535) rotate(-90)"><tspan x="0" y="10" fill="#000" font-family="Helvetica Neue" font-size="10">Listener 0.0.0.0_15001</tspan></text></g><g id="Graphic_54"><rect width="20.867" height="182.897" x="366.435" y="294.19" fill="#fff"/><rect width="20.867" height="182.897" x="366.435" y="294.19" stroke="gray" stroke-linecap="round" stroke-linejoin="round" stroke-width="1"/><text fill="#000" transform="translate(370.72814 432.0384) rotate(-90)"><tspan x="0" y="10" fill="#000" font-family="Helvetica Neue" font-size="10">Listener PodIP_9080</tspan></text></g><g id="Graphic_53"><rect width="20.867" height="182.897" x="387.301" y="294.19" fill="#fff"/><rect width="20.867" height="182.897" x="387.301" y="294.19" stroke="gray" stroke-linecap="round" stroke-linejoin="round" stroke-width="1"/><text fill="#000" transform="translate(391.5948 472.1384) rotate(-90)"><tspan x="0" y="10" fill="#000" font-family="Helvetica Neue" font-size="10">Filter envoy. http_connection_manager</tspan></text></g><g id="Graphic_52"><rect width="41.733" height="182.897" x="408.168" y="294.19" fill="#fff"/><rect width="41.733" height="182.897" x="408.168" y="294.19" stroke="gray" stroke-linecap="round" stroke-linejoin="round" stroke-width="1"/><text fill="#000" transform="translate(418.8108 468.8544) rotate(-90)"><tspan x="42.092" y="8" fill="#000" font-family="Helvetica Neue" font-size="8">Cluster: inbound|9080||</tspan> <tspan x="0" y="18.224" fill="#000" font-family="Helvetica Neue" font-size="8">upstreamBindConfig source address 127.0.0.6</tspan></text></g><g id="Graphic_51"><rect width="20.867" height="182.897" x="366.435" y="477.087" fill="#fff"/><rect width="20.867" height="182.897" x="366.435" y="477.087" stroke="gray" stroke-linecap="round" stroke-linejoin="round" stroke-width="1"/><text fill="#000" transform="translate(370.72814 616.61535) rotate(-90)"><tspan x="0" y="10" fill="#000" font-family="Helvetica Neue" font-size="10">Listener 0.0.0.0_9080</tspan></text></g><g id="Graphic_50"><rect width="20.867" height="182.897" x="387.301" y="477.087" fill="#fff"/><rect width="20.867" height="182.897" x="387.301" y="477.087" stroke="gray" stroke-linecap="round" stroke-linejoin="round" stroke-width="1"/><text fill="#000" transform="translate(391.5948 594.38035) rotate(-90)"><tspan x="0" y="10" fill="#000" font-family="Helvetica Neue" font-size="10">Route 9080</tspan></text></g><g id="Graphic_49"><title>Cluster</title><rect width="20.867" height="182.897" x="408.168" y="477.087" fill="#fff"/><rect width="20.867" height="182.897" x="408.168" y="477.087" stroke="gray" stroke-linecap="round" stroke-linejoin="round" stroke-width="1"/><text fill="#000" transform="translate(408.3775 652.33135) rotate(-90)"><tspan x="71.056" y="8" fill="#000" font-family="Helvetica Neue" font-size="8">Cluster </tspan> <tspan x="0" y="18.224" fill="#000" font-family="Helvetica Neue" font-size="8">outbound|9080||ratings.default.svc.cluster.local</tspan></text></g><g id="Graphic_48"><rect width="20.867" height="182.897" x="429.035" y="477.087" fill="#fff"/><rect width="20.867" height="182.897" x="429.035" y="477.087" stroke="gray" stroke-linecap="round" stroke-linejoin="round" stroke-width="1"/><text fill="#000" transform="translate(433.32815 616.14535) rotate(-90)"><tspan x="0" y="10" fill="#000" font-family="Helvetica Neue" font-size="10">Endpoint PodIP:9080</tspan></text></g></g><g id="Graphic_46"><text fill="#000" transform="translate(-727.786 -152.55406)"><tspan x="0" y="21" fill="#000" font-family="Helvetica Neue" font-size="22" font-weight="bold">Transparent Traffic Intercepting</tspan> <tspan x="0" y="47.638" fill="#000" font-family="Helvetica Neue" font-size="22" font-weight="bold">and Routing in Istio Service Mesh</tspan></text></g><g id="Graphic_45"><text fill="#000" transform="translate(-725.7253 -86.72176)"><tspan x="0" y="15" fill="#000" font-family="Helvetica Neue" font-size="16">Based on Istio 1.14</tspan></text></g><g id="Graphic_44"><rect width="47.622" height="51.431" x="-528.169" y="464.151" stroke="gray" stroke-linecap="round" stroke-linejoin="round" stroke-width="1"/></g><g id="Graphic_43"><rect width="38.551" height="38" x="-679.881" y="403.628" fill="#fff"/><rect width="38.551" height="38" x="-679.881" y="403.628" stroke="gray" stroke-linecap="round" stroke-linejoin="round" stroke-width="1"/><text fill="#000" transform="translate(-674.8809 408.6284)"><tspan x="2.932" y="7" fill="#000" font-family="Helvetica Neue" font-size="7">Ingress</tspan> <tspan x="4.682" y="15.196" fill="#000" font-family="Helvetica Neue" font-size="7">Envoy</tspan></text></g><g id="Graphic_42"><rect width="47.622" height="51.431" x="-528.549" y="396.913" stroke="gray" stroke-linecap="round" stroke-linejoin="round" stroke-width="1"/></g><g id="Line_41"><line x1="-730.165" x2="-685.081" y1="422.628" y2="422.628" stroke="#000" stroke-linecap="round" stroke-linejoin="round" stroke-width=".5" marker-end="url(#FilledArrow_Marker_2)"/></g><g id="Graphic_40"><text fill="#000" transform="translate(-716.8633 409.6424)"><tspan x="0" y="7" fill="#000" font-family="Helvetica Neue" font-size="7">Request</tspan></text></g><g id="Graphic_39"><title>Rectangle</title><rect width="47.622" height="51.431" x="-527.789" y="329.675" fill="#fff"/><rect width="47.622" height="51.431" x="-527.789" y="329.675" stroke="gray" stroke-linecap="round" stroke-linejoin="round" stroke-width="1"/></g><g id="Graphic_38"><rect width="26.221" height="7.72" x="-673.716" y="427.99" fill="#333"/></g><g id="Graphic_37"><rect width="36.061" height="21.918" x="-522.389" y="401.493" fill="#fff"/><rect width="36.061" height="21.918" x="-522.389" y="401.493" stroke="gray" stroke-linecap="round" stroke-linejoin="round" stroke-width=".5"/><text fill="#000" transform="translate(-521.38894 404.868)"><tspan x="1.479" y="6" fill="#000" font-family="Helvetica Neue" font-size="6">Reviews-v2</tspan> <tspan x="2.031" y="13.168" fill="#000" font-family="PingFang SC" font-size="6">★★★★★</tspan></text></g><g id="Graphic_36"><rect width="26.221" height="7.72" x="-517.469" y="434.954" fill="#333"/></g><g id="Line_35"><line x1="-504.358" x2="-504.358" y1="426.261" y2="432.104" stroke="#000" stroke-linecap="round" stroke-linejoin="round" stroke-width=".25" marker-end="url(#FilledArrow_Marker_2)" marker-start="url(#FilledArrow_Marker_3)"/></g><g id="Graphic_34"><rect width="36.061" height="21.918" x="-522.009" y="468.731" fill="#fff"/><rect width="36.061" height="21.918" x="-522.009" y="468.731" stroke="gray" stroke-linecap="round" stroke-linejoin="round" stroke-width=".5"/><text fill="#000" transform="translate(-521.00894 472.1057)"><tspan x="1.479" y="6" fill="#000" font-family="Helvetica Neue" font-size="6">Reviews-v3</tspan> <tspan x="2.031" y="13.168" fill="#ff2600" font-family="PingFang SC" font-size="6">★★★★★</tspan></text></g><g id="Graphic_33"><rect width="26.221" height="7.72" x="-517.089" y="502.192" fill="#333"/></g><g id="Line_32"><line x1="-503.923" x2="-503.899" y1="493.498" y2="499.342" stroke="#000" stroke-linecap="round" stroke-linejoin="round" stroke-width=".25" marker-end="url(#FilledArrow_Marker_2)" marker-start="url(#FilledArrow_Marker_3)"/></g><g id="Graphic_31"><rect width="36.061" height="21.918" x="-521.629" y="334.255" fill="#fff"/><rect width="36.061" height="21.918" x="-521.629" y="334.255" stroke="gray" stroke-linecap="round" stroke-linejoin="round" stroke-width=".5"/><text fill="#000" transform="translate(-520.62894 341.63027)"><tspan x="1.479" y="6" fill="#000" font-family="Helvetica Neue" font-size="6">Reviews-v1</tspan></text></g><g id="Graphic_30"><rect width="26.221" height="7.72" x="-516.709" y="367.716" fill="#333"/></g><g id="Line_29"><line x1="-503.598" x2="-503.598" y1="359.023" y2="364.866" stroke="#000" stroke-linecap="round" stroke-linejoin="round" stroke-width=".25" marker-end="url(#FilledArrow_Marker_2)" marker-start="url(#FilledArrow_Marker_3)"/></g><g id="Graphic_28"><title>Rectangle</title><rect width="47.622" height="51.431" x="-608.751" y="396.913" fill="#fff"/><rect width="47.622" height="51.431" x="-608.751" y="396.913" stroke="gray" stroke-linecap="round" stroke-linejoin="round" stroke-width="1"/></g><g id="Graphic_27"><rect width="36.061" height="21.918" x="-602.59" y="401.493" fill="#fff"/><rect width="36.061" height="21.918" x="-602.59" y="401.493" stroke="gray" stroke-linecap="round" stroke-linejoin="round" stroke-width=".5"/><text fill="#000" transform="translate(-601.5901 405.284)"><tspan x="6.417" y="6" fill="#000" font-family="Helvetica Neue" font-size="6">Product</tspan> <tspan x="10.307" y="13.168" fill="#000" font-family="Helvetica Neue" font-size="6">page</tspan></text></g><g id="Line_26"><line x1="-584.56" x2="-584.56" y1="426.261" y2="432.104" stroke="#000" stroke-linecap="round" stroke-linejoin="round" stroke-width=".25" marker-end="url(#FilledArrow_Marker_2)" marker-start="url(#FilledArrow_Marker_3)"/></g><g id="Graphic_25"><title>Rectangle</title><rect width="47.622" height="51.431" x="-448.348" y="396.913" fill="#fff"/><rect width="47.622" height="51.431" x="-448.348" y="396.913" stroke="gray" stroke-linecap="round" stroke-linejoin="round" stroke-width="1"/></g><g id="Graphic_24"><rect width="36.061" height="21.918" x="-442.188" y="401.493" fill="#fff"/><rect width="36.061" height="21.918" x="-442.188" y="401.493" stroke="gray" stroke-linecap="round" stroke-linejoin="round" stroke-width=".5"/><text fill="#000" transform="translate(-441.1878 408.868)"><tspan x="6.864" y="6" fill="#000" font-family="Helvetica Neue" font-size="6">Ratings</tspan></text></g><g id="Graphic_23"><rect width="26.221" height="7.72" x="-437.268" y="434.954" fill="#333"/></g><g id="Line_22"><line x1="-424.157" x2="-424.157" y1="426.261" y2="432.104" stroke="#000" stroke-linecap="round" stroke-linejoin="round" stroke-width=".25" marker-end="url(#FilledArrow_Marker_2)" marker-start="url(#FilledArrow_Marker_3)"/></g><g id="Line_21"><line x1="-641.33" x2="-613.951" y1="422.628" y2="422.628" stroke="#000" stroke-linecap="round" stroke-linejoin="round" stroke-width=".5" marker-end="url(#FilledArrow_Marker_2)"/></g><g id="Line_20"><line x1="-579.912" x2="-512.247" y1="434.954" y2="378.759" stroke="#000" stroke-linecap="round" stroke-linejoin="round" stroke-width=".5" marker-end="url(#FilledArrow_Marker_2)"/></g><g id="Line_19"><line x1="-571.449" x2="-522.669" y1="438.814" y2="438.814" stroke="#000" stroke-linecap="round" stroke-linejoin="round" stroke-width=".5" marker-end="url(#FilledArrow_Marker_2)"/></g><g id="Line_18"><line x1="-580.612" x2="-520.807" y1="442.674" y2="501.159" stroke="#000" stroke-linecap="round" stroke-linejoin="round" stroke-width=".5" marker-end="url(#FilledArrow_Marker_2)"/></g><g id="Line_17"><line x1="-491.248" x2="-442.468" y1="438.814" y2="438.814" stroke="#000" stroke-linecap="round" stroke-linejoin="round" stroke-width=".5" marker-end="url(#FilledArrow_Marker_2)"/></g><g id="Line_16"><line x1="-499.038" x2="-432.687" y1="375.437" y2="431.595" stroke="#000" stroke-linecap="round" stroke-linejoin="round" stroke-width=".5" marker-end="url(#FilledArrow_Marker_2)"/></g><g id="Graphic_15"><path stroke="gray" stroke-dasharray="4 4" stroke-linecap="round" stroke-linejoin="round" stroke-width="1" d="M -540.2631 320.93294 L -466.9338 320.93294 L -466.9338 524.3239 L -540.2631 524.3239 Z"/></g><g id="Graphic_14"><text fill="#000" transform="translate(-725.7653 300.76085)"><tspan x="0" y="16" fill="#000" font-family="Helvetica Neue" font-size="16" font-weight="bold">Bookinfo Sample</tspan></text></g><g id="Graphic_13"><text fill="#000" transform="translate(-603.4536 377.5771)"><tspan x="0" y="11" fill="#000" font-family="Helvetica Neue" font-size="12">Python</tspan></text></g><g id="Graphic_12"><text fill="#000" transform="translate(-516.15644 301.59694)"><tspan x="0" y="11" fill="#000" font-family="Helvetica Neue" font-size="12">Java</tspan></text></g><g id="Graphic_11"><text fill="#000" transform="translate(-445.7153 377.5771)"><tspan x="0" y="11" fill="#000" font-family="Helvetica Neue" font-size="12">NodeJS</tspan></text></g><g id="Graphic_10"><rect width="349.464" height="252.457" x="-732.786" y="288.523" stroke="gray" stroke-linecap="round" stroke-linejoin="round" stroke-width="1"/></g><g id="Graphic_9"><path fill="#000" d="M 180.88962 498.7058 L 180.88962 498.7058 C 188.56416 498.7058 194.78562 504.92726 194.78562 512.6018 L 194.78562 513.2578 C 194.78562 520.93236 188.56416 527.1538 180.88962 527.1538 L 180.88962 527.1538 C 173.21507 527.1538 166.99362 520.93236 166.99362 513.2578 L 166.99362 512.6018 C 166.99362 504.92726 173.21507 498.7058 180.88962 498.7058 Z"/><text fill="#fff" transform="translate(171.99362 503.7058)"><tspan x="0" y="15" fill="#fff" font-family="Helvetica Neue" font-size="16">11</tspan></text></g><g id="Graphic_8"><text fill="#000" transform="translate(-727.786 692.6644)"><tspan x="0" y="15" fill="#000" font-family="Helvetica Neue" font-size="16">https://jimmysong.io</tspan> <tspan x="0" y="39" fill="#000" font-family="Helvetica Neue" font-size="16">Version: 2022-11-16</tspan></text></g><g id="Graphic_7"><title>Rectangle</title><rect width="47.622" height="51.431" x="-608.371" y="464.151" fill="#fff"/><rect width="47.622" height="51.431" x="-608.371" y="464.151" stroke="gray" stroke-linecap="round" stroke-linejoin="round" stroke-width="1"/></g><g id="Graphic_6"><rect width="36.061" height="21.918" x="-602.97" y="487.933" fill="#fff"/><rect width="36.061" height="21.918" x="-602.97" y="487.933" stroke="gray" stroke-linecap="round" stroke-linejoin="round" stroke-width=".5"/><text fill="#000" transform="translate(-601.9701 495.30786)"><tspan x="7.92" y="6" fill="#000" font-family="Helvetica Neue" font-size="6">Details</tspan></text></g><g id="Graphic_5"><rect width="26.221" height="7.72" x="-597.67" y="473.42" fill="#333"/></g><g id="Graphic_4"><text fill="#000" transform="translate(-599.3236 521.64355)"><tspan x="0" y="11" fill="#000" font-family="Helvetica Neue" font-size="12">Ruby</tspan></text></g><g id="Line_3"><line x1="-584.56" x2="-584.56" y1="442.674" y2="468.22" stroke="#000" stroke-linecap="round" stroke-linejoin="round" stroke-width=".5" marker-end="url(#FilledArrow_Marker_2)"/></g><g id="Graphic_2"><rect width="26.221" height="7.72" x="-597.67" y="434.954" fill="#333"/></g></g></g></svg>