<?xml version="1.0" encoding="UTF-8" standalone="no"?>
<!DOCTYPE svg PUBLIC "-//W3C//DTD SVG 1.1//EN" "http://www.w3.org/Graphics/SVG/1.1/DTD/svg11.dtd">
<svg xmlns:dc="http://purl.org/dc/elements/1.1/" version="1.1" xmlns="http://www.w3.org/2000/svg" xmlns:xl="http://www.w3.org/1999/xlink" viewBox="-3936 3055 1164 592" width="1164" height="592">
  <defs>
    <marker orient="auto" overflow="visible" markerUnits="strokeWidth" id="FilledArrow_Marker" stroke-linejoin="miter" stroke-miterlimit="10" viewBox="-1 -3 7 6" markerWidth="7" markerHeight="6" color="black">
      <g>
        <path d="M 4.8 0 L 0 -1.8 L 0 1.8 Z" fill="currentColor" stroke="currentColor" stroke-width="1"/>
      </g>
    </marker>
  </defs>
  <g id="gateway-ap-reference" stroke-opacity="1" stroke="none" fill="none" fill-opacity="1" stroke-dasharray="none">
    <title>gateway-ap-reference</title>
    <rect fill="white" x="-3936" y="3055" width="1164" height="592"/>
    <g id="gateway-ap-reference_jimmysong">
      <title>jimmysong</title>
      <g id="Graphic_31">
        <rect x="-3935.9055" y="3055.748" width="1163.622" height="591.0236" fill="white"/>
      </g>
      <g id="Graphic_30">
        <path d="M -3909.4804 3085.512 L -3440.9804 3085.512 C -3436.562 3085.512 -3432.9804 3089.0936 -3432.9804 3093.512 L -3432.9804 3306.012 C -3432.9804 3310.43 -3436.562 3314.012 -3440.9804 3314.012 L -3909.4804 3314.012 C -3913.8986 3314.012 -3917.4804 3310.43 -3917.4804 3306.012 L -3917.4804 3093.512 C -3917.4804 3089.0936 -3913.8986 3085.512 -3909.4804 3085.512 Z" stroke="gray" stroke-linecap="round" stroke-linejoin="round" stroke-dasharray="4.0,4.0" stroke-width="1"/>
        <text transform="translate(-3912.4804 3090.512)" fill="#666">
          <tspan font-family="Helvetica Neue" font-weight="bold" font-size="16" fill="#666" x="182.002" y="16">Namespace: A</tspan>
        </text>
      </g>
      <g id="Graphic_29">
        <path d="M -3630.9804 3167.012 L -3475.9804 3167.012 C -3471.562 3167.012 -3467.9804 3170.5936 -3467.9804 3175.012 L -3467.9804 3235.512 C -3467.9804 3239.93 -3471.562 3243.512 -3475.9804 3243.512 L -3630.9804 3243.512 C -3635.3986 3243.512 -3638.9804 3239.93 -3638.9804 3235.512 L -3638.9804 3175.012 C -3638.9804 3170.5936 -3635.3986 3167.012 -3630.9804 3167.012 Z" fill="#0a55a8"/>
        <text transform="translate(-3633.9804 3185.7977)" fill="white">
          <tspan font-family="Helvetica Neue" font-weight="bold" font-size="16" fill="white" x="53.388" y="16">xRoute</tspan>
          <tspan font-family="Helvetica Neue" font-weight="bold" font-size="16" fill="white" x="11.012" y="35.46411">parentRef: service</tspan>
        </text>
      </g>
      <g id="Graphic_28">
        <path d="M -3879.9804 3167.012 L -3724.9804 3167.012 C -3720.562 3167.012 -3716.9804 3170.5936 -3716.9804 3175.012 L -3716.9804 3235.512 C -3716.9804 3239.93 -3720.562 3243.512 -3724.9804 3243.512 L -3879.9804 3243.512 C -3884.3986 3243.512 -3887.9804 3239.93 -3887.9804 3235.512 L -3887.9804 3175.012 C -3887.9804 3170.5936 -3884.3986 3167.012 -3879.9804 3167.012 Z" fill="#0a55a8"/>
        <text transform="translate(-3882.9804 3195.5298)" fill="white">
          <tspan font-family="Helvetica Neue" font-weight="bold" font-size="16" fill="white" x="58.292" y="16">Client</tspan>
        </text>
      </g>
      <g id="Graphic_27">
        <path d="M -3268.4804 3085.512 L -2799.9804 3085.512 C -2795.562 3085.512 -2791.9804 3089.0936 -2791.9804 3093.512 L -2791.9804 3306.012 C -2791.9804 3310.43 -2795.562 3314.012 -2799.9804 3314.012 L -3268.4804 3314.012 C -3272.8986 3314.012 -3276.4804 3310.43 -3276.4804 3306.012 L -3276.4804 3093.512 C -3276.4804 3089.0936 -3272.8986 3085.512 -3268.4804 3085.512 Z" stroke="gray" stroke-linecap="round" stroke-linejoin="round" stroke-dasharray="4.0,4.0" stroke-width="1"/>
        <text transform="translate(-3271.4804 3090.512)" fill="#666">
          <tspan font-family="Helvetica Neue" font-weight="bold" font-size="16" fill="#666" x="181.85" y="16">Namespace: B</tspan>
        </text>
      </g>
      <g id="Graphic_26">
        <path d="M -2989.9804 3167.012 L -2834.9804 3167.012 C -2830.562 3167.012 -2826.9804 3170.5936 -2826.9804 3175.012 L -2826.9804 3235.512 C -2826.9804 3239.93 -2830.562 3243.512 -2834.9804 3243.512 L -2989.9804 3243.512 C -2994.3986 3243.512 -2997.9804 3239.93 -2997.9804 3235.512 L -2997.9804 3175.012 C -2997.9804 3170.5936 -2994.3986 3167.012 -2989.9804 3167.012 Z" fill="#0a55a8"/>
        <text transform="translate(-2992.9804 3195.5298)" fill="white">
          <tspan font-family="Helvetica Neue" font-weight="bold" font-size="16" fill="white" x="52.196" y="16">Service</tspan>
        </text>
      </g>
      <g id="Graphic_25">
        <path d="M -3238.9804 3167.012 L -3083.9804 3167.012 C -3079.562 3167.012 -3075.9804 3170.5936 -3075.9804 3175.012 L -3075.9804 3235.512 C -3075.9804 3239.93 -3079.562 3243.512 -3083.9804 3243.512 L -3238.9804 3243.512 C -3243.3986 3243.512 -3246.9804 3239.93 -3246.9804 3235.512 L -3246.9804 3175.012 C -3246.9804 3170.5936 -3243.3986 3167.012 -3238.9804 3167.012 Z" fill="#0a55a8"/>
        <text transform="translate(-3241.9804 3185.7977)" fill="white">
          <tspan font-family="Helvetica Neue" font-weight="bold" font-size="16" fill="white" x="53.388" y="16">xRoute</tspan>
          <tspan font-family="Helvetica Neue" font-weight="bold" font-size="16" fill="white" x="11.012" y="35.46411">parentRef: service</tspan>
        </text>
      </g>
      <g id="Graphic_24">
        <path d="M -3909.4804 3399.512 L -3440.9804 3399.512 C -3436.562 3399.512 -3432.9804 3403.0936 -3432.9804 3407.512 L -3432.9804 3620.012 C -3432.9804 3624.43 -3436.562 3628.012 -3440.9804 3628.012 L -3909.4804 3628.012 C -3913.8986 3628.012 -3917.4804 3624.43 -3917.4804 3620.012 L -3917.4804 3407.512 C -3917.4804 3403.0936 -3913.8986 3399.512 -3909.4804 3399.512 Z" stroke="gray" stroke-linecap="round" stroke-linejoin="round" stroke-dasharray="4.0,4.0" stroke-width="1"/>
        <text transform="translate(-3912.4804 3404.512)" fill="#666">
          <tspan font-family="Helvetica Neue" font-weight="bold" font-size="16" fill="#666" x="181.554" y="16">Namespace: C</tspan>
        </text>
      </g>
      <g id="Graphic_23">
        <path d="M -3752.7304 3492.512 L -3597.7304 3492.512 C -3593.312 3492.512 -3589.7304 3496.0936 -3589.7304 3500.512 L -3589.7304 3561.012 C -3589.7304 3565.43 -3593.312 3569.012 -3597.7304 3569.012 L -3752.7304 3569.012 C -3757.1486 3569.012 -3760.7304 3565.43 -3760.7304 3561.012 L -3760.7304 3500.512 C -3760.7304 3496.0936 -3757.1486 3492.512 -3752.7304 3492.512 Z" fill="#0a55a8"/>
        <text transform="translate(-3755.7304 3521.0298)" fill="white">
          <tspan font-family="Helvetica Neue" font-weight="bold" font-size="16" fill="white" x="58.292" y="16">Client</tspan>
        </text>
      </g>
      <g id="Line_22">
        <line x1="-3716.9804" y1="3205.262" x2="-3651.8804" y2="3205.262" marker-end="url(#FilledArrow_Marker)" stroke="black" stroke-linecap="round" stroke-linejoin="round" stroke-width="2"/>
      </g>
      <g id="Line_21">
        <path d="M -3553.4804 3167.012 L -3553.4804 3135.1053 L -2910.797 3135.1053 L -2910.797 3154.112" marker-end="url(#FilledArrow_Marker)" stroke="black" stroke-linecap="round" stroke-linejoin="round" stroke-width="2"/>
      </g>
      <g id="Line_20">
        <path d="M -3589.7304 3530.762 L -3578.7304 3530.762 L -3367.767 3530.4857 L -3161.4804 3530.4857 L -3161.4804 3256.412" marker-end="url(#FilledArrow_Marker)" stroke="black" stroke-linecap="round" stroke-linejoin="round" stroke-width="2"/>
      </g>
      <g id="Line_19">
        <line x1="-3075.9804" y1="3205.262" x2="-3010.8804" y2="3205.262" marker-end="url(#FilledArrow_Marker)" stroke="black" stroke-linecap="round" stroke-linejoin="round" stroke-width="2"/>
      </g>
      <g id="Graphic_18">
        <text transform="translate(-3731.4804 3275.512)" fill="black">
          <tspan font-family="Helvetica Neue" font-weight="bold" font-size="16" fill="black" x="0" y="16">Producer Route</tspan>
        </text>
      </g>
      <g id="Graphic_17">
        <text transform="translate(-3098.8223 3275.512)" fill="black">
          <tspan font-family="Helvetica Neue" font-weight="bold" font-size="16" fill="black" x="55422333e-20" y="16">Consumer Route</tspan>
        </text>
      </g>
    </g>
  </g>
</svg>
