<svg xmlns="http://www.w3.org/2000/svg" xmlns:xl="http://www.w3.org/1999/xlink" width="1396" height="658" version="1.1" viewBox="2494 865 1396 658"><defs><marker id="FilledArrow_Marker" stroke-linejoin="miter" stroke-miterlimit="10" color="#000" markerHeight="6" markerUnits="strokeWidth" markerWidth="7" orient="auto" overflow="visible" viewBox="-1 -3 7 6"><g><path fill="currentColor" stroke="currentColor" stroke-width="1" d="M 4.8 0 L 0 -1.8 L 0 1.8 Z"/></g></marker></defs><g id="Chain_tree" fill="none" fill-opacity="1" stroke="none" stroke-dasharray="none" stroke-opacity="1"><title>Chain tree</title><rect width="1396" height="658" x="2494" y="865" fill="#fff"/><g id="Chain_tree_Layer_1"><title>Layer 1</title><g id="Graphic_457"><rect width="1396" height="658" x="2494" y="865" fill="#fff"/></g><g id="Graphic_367"><rect width="140" height="64" x="2924" y="1256" fill="#0a55a8"/><rect width="140" height="64" x="2924" y="1256" stroke="#a5a5a5" stroke-linecap="round" stroke-linejoin="round" stroke-width=".5"/><text fill="#fff" transform="translate(2929 1278.268)"><tspan x="41.152" y="16" fill="#fff" font-family="Helvetica Neue" font-size="16" font-weight="bold">SPIRE</tspan></text></g><g id="Graphic_427"><rect width="140" height="64" x="2524" y="1078.25" fill="#0a55a8"/><rect width="140" height="64" x="2524" y="1078.25" stroke="#a5a5a5" stroke-linecap="round" stroke-linejoin="round" stroke-width=".5"/><text fill="#fff" transform="translate(2529 1100.518)"><tspan x="12.552" y="16" fill="#fff" font-family="Helvetica Neue" font-size="16" font-weight="bold">Cert Manager</tspan></text></g><g id="Graphic_428"><rect width="140" height="64" x="2723.667" y="1078.25" fill="#fff"/><rect width="140" height="64" x="2723.667" y="1078.25" stroke="#000" stroke-linecap="round" stroke-linejoin="round" stroke-width="2"/><text fill="#000" transform="translate(2728.6667 1100.518)"><tspan x="46.184" y="16" fill="#000" font-family="Helvetica Neue" font-size="16" font-weight="bold">Vault</tspan></text></g><g id="Graphic_430"><rect width="140" height="64" x="2724" y="1429" fill="#333"/><rect width="140" height="64" x="2724" y="1429" stroke="#a5a5a5" stroke-linecap="round" stroke-linejoin="round" stroke-width=".5"/><text fill="#fff" transform="translate(2729 1451.268)"><tspan x="24.584" y="16" fill="#fff" font-family="Helvetica Neue" font-size="16" font-weight="bold">Workloads</tspan></text></g><g id="Graphic_435"><rect width="140" height="64" x="2524" y="900.5" fill="#fff"/><rect width="140" height="64" x="2524" y="900.5" stroke="#000" stroke-linecap="round" stroke-linejoin="round" stroke-width="2"/><text fill="#000" transform="translate(2529 922.7679)"><tspan x="15.208" y="16" fill="#000" font-family="Helvetica Neue" font-size="16" font-weight="bold">Let’s Encrypt</tspan></text></g><g id="Graphic_436"><rect width="140" height="64" x="2723" y="900.5" fill="#fff"/><rect width="140" height="64" x="2723" y="900.5" stroke="#000" stroke-linecap="round" stroke-linejoin="round" stroke-width="2"/><text fill="#000" transform="translate(2728 922.7679)"><tspan x="46.184" y="16" fill="#000" font-family="Helvetica Neue" font-size="16" font-weight="bold">Vault</tspan></text></g><g id="Graphic_437"><rect width="140" height="64" x="2922" y="900.5" fill="#fff"/><rect width="140" height="64" x="2922" y="900.5" stroke="#000" stroke-linecap="round" stroke-linejoin="round" stroke-width="2"/><text fill="#000" transform="translate(2927 922.7679)"><tspan x="41.584" y="16" fill="#000" font-family="Helvetica Neue" font-size="16" font-weight="bold">Venafi</tspan></text></g><g id="Graphic_438"><rect width="140" height="64" x="3121" y="900.5" fill="#fff"/><rect width="140" height="64" x="3121" y="900.5" stroke="#000" stroke-linecap="round" stroke-linejoin="round" stroke-width="2"/><text fill="#000" transform="translate(3126 922.7679)"><tspan x="3.536" y="16" fill="#000" font-family="Helvetica Neue" font-size="16" font-weight="bold">External Issuers</tspan></text></g><g id="Graphic_443"><rect width="140" height="64" x="2923.333" y="1078.25" fill="#fff"/><rect width="140" height="64" x="2923.333" y="1078.25" stroke="#000" stroke-linecap="round" stroke-linejoin="round" stroke-width="2"/><text fill="#000" transform="translate(2928.3333 1100.518)"><tspan x="41.152" y="16" fill="#000" font-family="Helvetica Neue" font-size="16" font-weight="bold">SPIRE</tspan></text></g><g id="Graphic_444"><rect width="140" height="64" x="3123" y="1078.25" fill="#fff"/><rect width="140" height="64" x="3123" y="1078.25" stroke="#000" stroke-linecap="round" stroke-linejoin="round" stroke-width="2"/><text fill="#000" transform="translate(3128 1081.0538)"><tspan x="5.448" y="16" fill="#000" font-family="Helvetica Neue" font-size="16" font-weight="bold">GCP Certificate </tspan> <tspan x="30.184" y="35.464" fill="#000" font-family="Helvetica Neue" font-size="16" font-weight="bold">Authority </tspan> <tspan x="36.696" y="54.928" fill="#000" font-family="Helvetica Neue" font-size="16" font-weight="bold">Service</tspan></text></g><g id="Graphic_445"><rect width="140" height="64" x="3322.667" y="1078.25" fill="#fff"/><rect width="140" height="64" x="3322.667" y="1078.25" stroke="#000" stroke-linecap="round" stroke-linejoin="round" stroke-width="2"/><text fill="#000" transform="translate(3327.6667 1090.7859)"><tspan x="19.992" y="16" fill="#000" font-family="Helvetica Neue" font-size="16" font-weight="bold">AWS Secret </tspan> <tspan x="31.224" y="35.464" fill="#000" font-family="Helvetica Neue" font-size="16" font-weight="bold">Manager</tspan></text></g><g id="Graphic_446"><rect width="140" height="64" x="3522.333" y="1078.25" fill="#fff"/><rect width="140" height="64" x="3522.333" y="1078.25" stroke="#000" stroke-linecap="round" stroke-linejoin="round" stroke-width="2"/><text fill="#000" transform="translate(3527.3333 1090.7859)"><tspan x="4.752" y="16" fill="#000" font-family="Helvetica Neue" font-size="16" font-weight="bold">AWS Certificate </tspan> <tspan x="31.224" y="35.464" fill="#000" font-family="Helvetica Neue" font-size="16" font-weight="bold">Manager</tspan></text></g><g id="Graphic_447"><rect width="140" height="64" x="3722" y="1078.25" fill="#fff"/><rect width="140" height="64" x="3722" y="1078.25" stroke="#000" stroke-linecap="round" stroke-linejoin="round" stroke-width="2"/><text fill="#000" transform="translate(3727 1100.518)"><tspan x="48.12" y="16" fill="#000" font-family="Helvetica Neue" font-size="16" font-weight="bold">Disk</tspan></text></g><g id="Graphic_448"><rect width="140" height="64" x="2524" y="1429" fill="#0a55a8"/><rect width="140" height="64" x="2524" y="1429" stroke="#a5a5a5" stroke-linecap="round" stroke-linejoin="round" stroke-width=".5"/><text fill="#fff" transform="translate(2529 1451.268)"><tspan x="43.688" y="16" fill="#fff" font-family="Helvetica Neue" font-size="16" font-weight="bold">Istiod</tspan></text></g><g id="Graphic_449"><rect width="140" height="64" x="2924" y="1429" fill="#333"/><rect width="140" height="64" x="2924" y="1429" stroke="#a5a5a5" stroke-linecap="round" stroke-linejoin="round" stroke-width=".5"/><text fill="#fff" transform="translate(2929 1441.5359)"><tspan x="1.304" y="16" fill="#fff" font-family="Helvetica Neue" font-size="16" font-weight="bold">Ingress Gateway</tspan> <tspan x="61.744" y="35.464" fill="#fff" font-family="Helvetica Neue" font-size="16" font-weight="bold">*</tspan></text></g><g id="Graphic_450"><rect width="140" height="64" x="3124" y="1429" fill="#333"/><rect width="140" height="64" x="3124" y="1429" stroke="#a5a5a5" stroke-linecap="round" stroke-linejoin="round" stroke-width=".5"/><text fill="#fff" transform="translate(3129 1441.5359)"><tspan x="3.224" y="16" fill="#fff" font-family="Helvetica Neue" font-size="16" font-weight="bold">Egress Gateway</tspan> <tspan x="61.744" y="35.464" fill="#fff" font-family="Helvetica Neue" font-size="16" font-weight="bold">*</tspan></text></g><g id="Line_451"><path stroke="#000" stroke-linecap="round" stroke-linejoin="round" stroke-width="2" marker-end="url(#FilledArrow_Marker)" d="M 2594 1142.25 L 2594 1153.25 L 2593.9172 1173.1738 L 2593.9172 1288 L 2911.1 1288"/></g><g id="Line_453"><path stroke="#000" stroke-linecap="round" stroke-linejoin="round" stroke-width="2" marker-end="url(#FilledArrow_Marker)" d="M 2594 1142.25 L 2594 1153.25 L 2593.9172 1173.1738 L 2594 1410.1 L 2594 1416.1"/></g><g id="Line_454"><path stroke="#000" stroke-linecap="round" stroke-linejoin="round" stroke-width="2" marker-end="url(#FilledArrow_Marker)" d="M 2994 1320 L 2994 1374.5 L 2794 1374.5 L 2794 1416.1"/></g><g id="Line_455"><line x1="2994" x2="2994" y1="1320" y2="1416.1" stroke="#000" stroke-linecap="round" stroke-linejoin="round" stroke-width="2" marker-end="url(#FilledArrow_Marker)"/></g><g id="Line_456"><path stroke="#000" stroke-linecap="round" stroke-linejoin="round" stroke-width="2" marker-end="url(#FilledArrow_Marker)" d="M 2994 1320 L 2994 1374.5 L 3194 1374.5 L 3194 1416.1"/></g><g id="Line_461"><line x1="2594" x2="2594" y1="965.5" y2="1065.35" stroke="#000" stroke-dasharray="8 8" stroke-linecap="round" stroke-linejoin="round" stroke-width="2" marker-end="url(#FilledArrow_Marker)"/></g><g id="Line_462"><path stroke="#000" stroke-dasharray="8 8" stroke-linecap="round" stroke-linejoin="round" stroke-width="2" d="M 2793 965.5 L 2793 975.5 L 2792.698 1019.1396 L 2792.698 1021.9424 L 2594 1021.9424"/></g><g id="Line_465"><path stroke="#000" stroke-dasharray="8 8" stroke-linecap="round" stroke-linejoin="round" stroke-width="2" d="M 2992 965.5 L 2992 975.5 L 2991.969 1020.2073 L 2991.969 1021.9424 L 2791.6667 1021.9424"/></g><g id="Line_467"><path stroke="#000" stroke-dasharray="8 8" stroke-linecap="round" stroke-linejoin="round" stroke-width="2" d="M 3191 965.5 L 3191 975.5 L 3191.2935 990.0998 L 3191.2935 1022.3214 L 2992.857 1022.3214"/></g><g id="Line_468"><path stroke="#000" stroke-dasharray="8 8" stroke-linecap="round" stroke-linejoin="round" stroke-width="2" marker-end="url(#FilledArrow_Marker)" d="M 2793.6667 1143.25 L 2793.6667 1199.125 L 2994 1199.125 L 2994 1243.1"/></g><g id="Line_470"><path stroke="#000" stroke-dasharray="8 8" stroke-linecap="round" stroke-linejoin="round" stroke-width="2" d="M 2993.3333 1143.25 L 2993.3333 1153.25 L 2994 1195.0528 L 2994 1206.0528"/></g><g id="Line_471"><path stroke="#000" stroke-dasharray="8 8" stroke-linecap="round" stroke-linejoin="round" stroke-width="2" d="M 3193 1143.25 L 3193 1153.25 L 3193.413 1194.9102 L 3193.413 1198.5701 L 2994 1198.5701"/></g><g id="Line_473"><path stroke="#000" stroke-dasharray="8 8" stroke-linecap="round" stroke-linejoin="round" stroke-width="2" d="M 3392.6667 1143.25 L 3392.6667 1198.6736 L 3335.8177 1198.6736 L 3202.3105 1198.5701 L 3191.3105 1198.5701"/></g><g id="Line_474"><path stroke="#000" stroke-dasharray="8 8" stroke-linecap="round" stroke-linejoin="round" stroke-width="2" d="M 3592.3333 1143.25 L 3592.3333 1197.8363 L 3592.8943 1197.8363 L 3592.8943 1198.8142 L 3394.071 1198.8142"/></g><g id="Line_475"><path stroke="#000" stroke-dasharray="8 8" stroke-linecap="round" stroke-linejoin="round" stroke-width="2" d="M 3792 1143.25 L 3792 1199.5697 L 3784.7826 1199.5697 L 3784.7826 1198.8142 L 3592.8854 1198.8142"/></g></g></g></svg>