<?xml version="1.0" encoding="UTF-8" standalone="no"?>
<!DOCTYPE svg PUBLIC "-//W3C//DTD SVG 1.1//EN" "http://www.w3.org/Graphics/SVG/1.1/DTD/svg11.dtd">
<svg version="1.1" xmlns="http://www.w3.org/2000/svg" xmlns:dc="http://purl.org/dc/elements/1.1/" xmlns:xl="http://www.w3.org/1999/xlink" viewBox="2494 865 1396 658" width="1396" height="658">
  <defs>
    <marker orient="auto" overflow="visible" markerUnits="strokeWidth" id="FilledArrow_Marker" stroke-linejoin="miter" stroke-miterlimit="10" viewBox="-1 -3 7 6" markerWidth="7" markerHeight="6" color="black">
      <g>
        <path d="M 4.8 0 L 0 -1.8 L 0 1.8 Z" fill="currentColor" stroke="currentColor" stroke-width="1"/>
      </g>
    </marker>
  </defs>
  <g id="Chain_tree" fill-opacity="1" stroke-dasharray="none" stroke-opacity="1" fill="none" stroke="none">
    <title>Chain tree</title>
    <rect fill="white" x="2494" y="865" width="1396" height="658"/>
    <g id="Chain_tree_Layer_1">
      <title>Layer 1</title>
      <g id="Graphic_457">
        <rect x="2494" y="865" width="1396" height="658" fill="white"/>
      </g>
      <g id="Graphic_367">
        <rect x="2924" y="1256" width="140" height="64" fill="#0a55a8"/>
        <rect x="2924" y="1256" width="140" height="64" stroke="#a5a5a5" stroke-linecap="round" stroke-linejoin="round" stroke-width=".5"/>
        <text transform="translate(2929 1278.268)" fill="white">
          <tspan font-family="Helvetica Neue" font-weight="bold" font-size="16" fill="white" x="41.152" y="16">SPIRE</tspan>
        </text>
      </g>
      <g id="Graphic_427">
        <rect x="2524" y="1078.25" width="140" height="64" fill="#0a55a8"/>
        <rect x="2524" y="1078.25" width="140" height="64" stroke="#a5a5a5" stroke-linecap="round" stroke-linejoin="round" stroke-width=".5"/>
        <text transform="translate(2529 1100.518)" fill="white">
          <tspan font-family="Helvetica Neue" font-weight="bold" font-size="16" fill="white" x="12.552" y="16">Cert Manager</tspan>
        </text>
      </g>
      <g id="Graphic_428">
        <rect x="2723.6667" y="1078.25" width="140" height="64" fill="white"/>
        <rect x="2723.6667" y="1078.25" width="140" height="64" stroke="black" stroke-linecap="round" stroke-linejoin="round" stroke-width="2"/>
        <text transform="translate(2728.6667 1100.518)" fill="black">
          <tspan font-family="Helvetica Neue" font-weight="bold" font-size="16" fill="black" x="46.184" y="16">Vault</tspan>
        </text>
      </g>
      <g id="Graphic_430">
        <rect x="2724" y="1429" width="140" height="64" fill="#333"/>
        <rect x="2724" y="1429" width="140" height="64" stroke="#a5a5a5" stroke-linecap="round" stroke-linejoin="round" stroke-width=".5"/>
        <text transform="translate(2729 1451.268)" fill="white">
          <tspan font-family="Helvetica Neue" font-weight="bold" font-size="16" fill="white" x="24.584" y="16">Workloads</tspan>
        </text>
      </g>
      <g id="Graphic_435">
        <rect x="2524" y="900.5" width="140" height="64" fill="white"/>
        <rect x="2524" y="900.5" width="140" height="64" stroke="black" stroke-linecap="round" stroke-linejoin="round" stroke-width="2"/>
        <text transform="translate(2529 922.7679)" fill="black">
          <tspan font-family="Helvetica Neue" font-weight="bold" font-size="16" fill="black" x="15.208" y="16">Let’s Encrypt</tspan>
        </text>
      </g>
      <g id="Graphic_436">
        <rect x="2723" y="900.5" width="140" height="64" fill="white"/>
        <rect x="2723" y="900.5" width="140" height="64" stroke="black" stroke-linecap="round" stroke-linejoin="round" stroke-width="2"/>
        <text transform="translate(2728 922.7679)" fill="black">
          <tspan font-family="Helvetica Neue" font-weight="bold" font-size="16" fill="black" x="46.184" y="16">Vault</tspan>
        </text>
      </g>
      <g id="Graphic_437">
        <rect x="2922" y="900.5" width="140" height="64" fill="white"/>
        <rect x="2922" y="900.5" width="140" height="64" stroke="black" stroke-linecap="round" stroke-linejoin="round" stroke-width="2"/>
        <text transform="translate(2927 922.7679)" fill="black">
          <tspan font-family="Helvetica Neue" font-weight="bold" font-size="16" fill="black" x="41.584" y="16">Venafi</tspan>
        </text>
      </g>
      <g id="Graphic_438">
        <rect x="3121" y="900.5" width="140" height="64" fill="white"/>
        <rect x="3121" y="900.5" width="140" height="64" stroke="black" stroke-linecap="round" stroke-linejoin="round" stroke-width="2"/>
        <text transform="translate(3126 922.7679)" fill="black">
          <tspan font-family="Helvetica Neue" font-weight="bold" font-size="16" fill="black" x="3.536" y="16">External Issuers</tspan>
        </text>
      </g>
      <g id="Graphic_443">
        <rect x="2923.3333" y="1078.25" width="140" height="64" fill="white"/>
        <rect x="2923.3333" y="1078.25" width="140" height="64" stroke="black" stroke-linecap="round" stroke-linejoin="round" stroke-width="2"/>
        <text transform="translate(2928.3333 1100.518)" fill="black">
          <tspan font-family="Helvetica Neue" font-weight="bold" font-size="16" fill="black" x="41.152" y="16">SPIRE</tspan>
        </text>
      </g>
      <g id="Graphic_444">
        <rect x="3123" y="1078.25" width="140" height="64" fill="white"/>
        <rect x="3123" y="1078.25" width="140" height="64" stroke="black" stroke-linecap="round" stroke-linejoin="round" stroke-width="2"/>
        <text transform="translate(3128 1081.0538)" fill="black">
          <tspan font-family="Helvetica Neue" font-weight="bold" font-size="16" fill="black" x="5.448" y="16">GCP Certificate </tspan>
          <tspan font-family="Helvetica Neue" font-weight="bold" font-size="16" fill="black" x="30.184" y="35.46411">Authority </tspan>
          <tspan font-family="Helvetica Neue" font-weight="bold" font-size="16" fill="black" x="36.696" y="54.92822">Service</tspan>
        </text>
      </g>
      <g id="Graphic_445">
        <rect x="3322.6667" y="1078.25" width="140" height="64" fill="white"/>
        <rect x="3322.6667" y="1078.25" width="140" height="64" stroke="black" stroke-linecap="round" stroke-linejoin="round" stroke-width="2"/>
        <text transform="translate(3327.6667 1090.7859)" fill="black">
          <tspan font-family="Helvetica Neue" font-weight="bold" font-size="16" fill="black" x="19.992" y="16">AWS Secret </tspan>
          <tspan font-family="Helvetica Neue" font-weight="bold" font-size="16" fill="black" x="31.224" y="35.46411">Manager</tspan>
        </text>
      </g>
      <g id="Graphic_446">
        <rect x="3522.3333" y="1078.25" width="140" height="64" fill="white"/>
        <rect x="3522.3333" y="1078.25" width="140" height="64" stroke="black" stroke-linecap="round" stroke-linejoin="round" stroke-width="2"/>
        <text transform="translate(3527.3333 1090.7859)" fill="black">
          <tspan font-family="Helvetica Neue" font-weight="bold" font-size="16" fill="black" x="4.752" y="16">AWS Certificate </tspan>
          <tspan font-family="Helvetica Neue" font-weight="bold" font-size="16" fill="black" x="31.224" y="35.46411">Manager</tspan>
        </text>
      </g>
      <g id="Graphic_447">
        <rect x="3722" y="1078.25" width="140" height="64" fill="white"/>
        <rect x="3722" y="1078.25" width="140" height="64" stroke="black" stroke-linecap="round" stroke-linejoin="round" stroke-width="2"/>
        <text transform="translate(3727 1100.518)" fill="black">
          <tspan font-family="Helvetica Neue" font-weight="bold" font-size="16" fill="black" x="48.12" y="16">Disk</tspan>
        </text>
      </g>
      <g id="Graphic_448">
        <rect x="2524" y="1429" width="140" height="64" fill="#0a55a8"/>
        <rect x="2524" y="1429" width="140" height="64" stroke="#a5a5a5" stroke-linecap="round" stroke-linejoin="round" stroke-width=".5"/>
        <text transform="translate(2529 1451.268)" fill="white">
          <tspan font-family="Helvetica Neue" font-weight="bold" font-size="16" fill="white" x="43.688" y="16">Istiod</tspan>
        </text>
      </g>
      <g id="Graphic_449">
        <rect x="2924" y="1429" width="140" height="64" fill="#333"/>
        <rect x="2924" y="1429" width="140" height="64" stroke="#a5a5a5" stroke-linecap="round" stroke-linejoin="round" stroke-width=".5"/>
        <text transform="translate(2929 1441.5359)" fill="white">
          <tspan font-family="Helvetica Neue" font-weight="bold" font-size="16" fill="white" x="1.304" y="16">Ingress Gateway</tspan>
          <tspan font-family="Helvetica Neue" font-weight="bold" font-size="16" fill="white" x="61.744" y="35.46411">*</tspan>
        </text>
      </g>
      <g id="Graphic_450">
        <rect x="3124" y="1429" width="140" height="64" fill="#333"/>
        <rect x="3124" y="1429" width="140" height="64" stroke="#a5a5a5" stroke-linecap="round" stroke-linejoin="round" stroke-width=".5"/>
        <text transform="translate(3129 1441.5359)" fill="white">
          <tspan font-family="Helvetica Neue" font-weight="bold" font-size="16" fill="white" x="3.224" y="16">Egress Gateway</tspan>
          <tspan font-family="Helvetica Neue" font-weight="bold" font-size="16" fill="white" x="61.744" y="35.46411">*</tspan>
        </text>
      </g>
      <g id="Line_451">
        <path d="M 2594 1142.25 L 2594 1153.25 L 2593.9172 1173.1738 L 2593.9172 1288 L 2911.1 1288" marker-end="url(#FilledArrow_Marker)" stroke="black" stroke-linecap="round" stroke-linejoin="round" stroke-width="2"/>
      </g>
      <g id="Line_453">
        <path d="M 2594 1142.25 L 2594 1153.25 L 2593.9172 1173.1738 L 2594 1410.1 L 2594 1416.1" marker-end="url(#FilledArrow_Marker)" stroke="black" stroke-linecap="round" stroke-linejoin="round" stroke-width="2"/>
      </g>
      <g id="Line_454">
        <path d="M 2994 1320 L 2994 1374.5 L 2794 1374.5 L 2794 1416.1" marker-end="url(#FilledArrow_Marker)" stroke="black" stroke-linecap="round" stroke-linejoin="round" stroke-width="2"/>
      </g>
      <g id="Line_455">
        <line x1="2994" y1="1320" x2="2994" y2="1416.1" marker-end="url(#FilledArrow_Marker)" stroke="black" stroke-linecap="round" stroke-linejoin="round" stroke-width="2"/>
      </g>
      <g id="Line_456">
        <path d="M 2994 1320 L 2994 1374.5 L 3194 1374.5 L 3194 1416.1" marker-end="url(#FilledArrow_Marker)" stroke="black" stroke-linecap="round" stroke-linejoin="round" stroke-width="2"/>
      </g>
      <g id="Line_461">
        <line x1="2594" y1="965.5" x2="2594" y2="1065.35" marker-end="url(#FilledArrow_Marker)" stroke="black" stroke-linecap="round" stroke-linejoin="round" stroke-dasharray="8.0,8.0" stroke-width="2"/>
      </g>
      <g id="Line_462">
        <path d="M 2793 965.5 L 2793 975.5 L 2792.698 1019.1396 L 2792.698 1021.9424 L 2594 1021.9424" stroke="black" stroke-linecap="round" stroke-linejoin="round" stroke-dasharray="8.0,8.0" stroke-width="2"/>
      </g>
      <g id="Line_465">
        <path d="M 2992 965.5 L 2992 975.5 L 2991.969 1020.2073 L 2991.969 1021.9424 L 2791.6667 1021.9424" stroke="black" stroke-linecap="round" stroke-linejoin="round" stroke-dasharray="8.0,8.0" stroke-width="2"/>
      </g>
      <g id="Line_467">
        <path d="M 3191 965.5 L 3191 975.5 L 3191.2935 990.0998 L 3191.2935 1022.3214 L 2992.857 1022.3214" stroke="black" stroke-linecap="round" stroke-linejoin="round" stroke-dasharray="8.0,8.0" stroke-width="2"/>
      </g>
      <g id="Line_468">
        <path d="M 2793.6667 1143.25 L 2793.6667 1199.125 L 2994 1199.125 L 2994 1243.1" marker-end="url(#FilledArrow_Marker)" stroke="black" stroke-linecap="round" stroke-linejoin="round" stroke-dasharray="8.0,8.0" stroke-width="2"/>
      </g>
      <g id="Line_470">
        <path d="M 2993.3333 1143.25 L 2993.3333 1153.25 L 2994 1195.0528 L 2994 1206.0528" stroke="black" stroke-linecap="round" stroke-linejoin="round" stroke-dasharray="8.0,8.0" stroke-width="2"/>
      </g>
      <g id="Line_471">
        <path d="M 3193 1143.25 L 3193 1153.25 L 3193.413 1194.9102 L 3193.413 1198.5701 L 2994 1198.5701" stroke="black" stroke-linecap="round" stroke-linejoin="round" stroke-dasharray="8.0,8.0" stroke-width="2"/>
      </g>
      <g id="Line_473">
        <path d="M 3392.6667 1143.25 L 3392.6667 1198.6736 L 3335.8177 1198.6736 L 3202.3105 1198.5701 L 3191.3105 1198.5701" stroke="black" stroke-linecap="round" stroke-linejoin="round" stroke-dasharray="8.0,8.0" stroke-width="2"/>
      </g>
      <g id="Line_474">
        <path d="M 3592.3333 1143.25 L 3592.3333 1197.8363 L 3592.8943 1197.8363 L 3592.8943 1198.8142 L 3394.071 1198.8142" stroke="black" stroke-linecap="round" stroke-linejoin="round" stroke-dasharray="8.0,8.0" stroke-width="2"/>
      </g>
      <g id="Line_475">
        <path d="M 3792 1143.25 L 3792 1199.5697 L 3784.7826 1199.5697 L 3784.7826 1198.8142 L 3592.8854 1198.8142" stroke="black" stroke-linecap="round" stroke-linejoin="round" stroke-dasharray="8.0,8.0" stroke-width="2"/>
      </g>
    </g>
  </g>
</svg>
