<svg aria-roledescription="sequence" role="graphics-document document" viewBox="-50 -10 1050 762" style="max-width: 1050px; background-color: white;" xmlns:xlink="http://www.w3.org/1999/xlink" xmlns="http://www.w3.org/2000/svg" width="100%" id="my-svg"><g><rect class="actor actor-bottom" ry="3" rx="3" name="UserContainer" height="65" width="150" stroke="#666" fill="#eaeaea" y="676" x="800"/><text style="text-anchor: middle; font-size: 16px; font-weight: 400;" class="actor actor-box" alignment-baseline="central" dominant-baseline="central" y="708.5" x="875"><tspan dy="0" x="875">UserContainer</tspan></text></g><g><rect class="actor actor-bottom" ry="3" rx="3" name="QueueProxy" height="65" width="150" stroke="#666" fill="#eaeaea" y="676" x="600"/><text style="text-anchor: middle; font-size: 16px; font-weight: 400;" class="actor actor-box" alignment-baseline="central" dominant-baseline="central" y="708.5" x="675"><tspan dy="0" x="675">QueueProxy</tspan></text></g><g><rect class="actor actor-bottom" ry="3" rx="3" name="Activator" height="65" width="150" stroke="#666" fill="#eaeaea" y="676" x="400"/><text style="text-anchor: middle; font-size: 16px; font-weight: 400;" class="actor actor-box" alignment-baseline="central" dominant-baseline="central" y="708.5" x="475"><tspan dy="0" x="475">Activator</tspan></text></g><g><rect class="actor actor-bottom" ry="3" rx="3" name="Ingress" height="65" width="150" stroke="#666" fill="#eaeaea" y="676" x="200"/><text style="text-anchor: middle; font-size: 16px; font-weight: 400;" class="actor actor-box" alignment-baseline="central" dominant-baseline="central" y="708.5" x="275"><tspan dy="0" x="275">Ingress</tspan></text></g><g><rect class="actor actor-bottom" ry="3" rx="3" name="Client" height="65" width="150" stroke="#666" fill="#eaeaea" y="676" x="0"/><text style="text-anchor: middle; font-size: 16px; font-weight: 400;" class="actor actor-box" alignment-baseline="central" dominant-baseline="central" y="708.5" x="75"><tspan dy="0" x="75">Client</tspan></text></g><g><line name="UserContainer" stroke="#999" stroke-width="0.5px" class="actor-line 200" y2="676" x2="875" y1="65" x1="875" id="actor4"/><g id="root-4"><rect class="actor actor-top" ry="3" rx="3" name="UserContainer" height="65" width="150" stroke="#666" fill="#eaeaea" y="0" x="800"/><text style="text-anchor: middle; font-size: 16px; font-weight: 400;" class="actor actor-box" alignment-baseline="central" dominant-baseline="central" y="32.5" x="875"><tspan dy="0" x="875">UserContainer</tspan></text></g></g><g><line name="QueueProxy" stroke="#999" stroke-width="0.5px" class="actor-line 200" y2="676" x2="675" y1="65" x1="675" id="actor3"/><g id="root-3"><rect class="actor actor-top" ry="3" rx="3" name="QueueProxy" height="65" width="150" stroke="#666" fill="#eaeaea" y="0" x="600"/><text style="text-anchor: middle; font-size: 16px; font-weight: 400;" class="actor actor-box" alignment-baseline="central" dominant-baseline="central" y="32.5" x="675"><tspan dy="0" x="675">QueueProxy</tspan></text></g></g><g><line name="Activator" stroke="#999" stroke-width="0.5px" class="actor-line 200" y2="676" x2="475" y1="65" x1="475" id="actor2"/><g id="root-2"><rect class="actor actor-top" ry="3" rx="3" name="Activator" height="65" width="150" stroke="#666" fill="#eaeaea" y="0" x="400"/><text style="text-anchor: middle; font-size: 16px; font-weight: 400;" class="actor actor-box" alignment-baseline="central" dominant-baseline="central" y="32.5" x="475"><tspan dy="0" x="475">Activator</tspan></text></g></g><g><line name="Ingress" stroke="#999" stroke-width="0.5px" class="actor-line 200" y2="676" x2="275" y1="65" x1="275" id="actor1"/><g id="root-1"><rect class="actor actor-top" ry="3" rx="3" name="Ingress" height="65" width="150" stroke="#666" fill="#eaeaea" y="0" x="200"/><text style="text-anchor: middle; font-size: 16px; font-weight: 400;" class="actor actor-box" alignment-baseline="central" dominant-baseline="central" y="32.5" x="275"><tspan dy="0" x="275">Ingress</tspan></text></g></g><g><line name="Client" stroke="#999" stroke-width="0.5px" class="actor-line 200" y2="676" x2="75" y1="65" x1="75" id="actor0"/><g id="root-0"><rect class="actor actor-top" ry="3" rx="3" name="Client" height="65" width="150" stroke="#666" fill="#eaeaea" y="0" x="0"/><text style="text-anchor: middle; font-size: 16px; font-weight: 400;" class="actor actor-box" alignment-baseline="central" dominant-baseline="central" y="32.5" x="75"><tspan dy="0" x="75">Client</tspan></text></g></g><style>#my-svg{font-family:"trebuchet ms",verdana,arial,sans-serif;font-size:16px;fill:#1e293b;}@keyframes edge-animation-frame{from{stroke-dashoffset:0;}}@keyframes dash{to{stroke-dashoffset:0;}}#my-svg .edge-animation-slow{stroke-dasharray:9,5!important;stroke-dashoffset:900;animation:dash 50s linear infinite;stroke-linecap:round;}#my-svg .edge-animation-fast{stroke-dasharray:9,5!important;stroke-dashoffset:900;animation:dash 20s linear infinite;stroke-linecap:round;}#my-svg .error-icon{fill:#fce7f3;}#my-svg .error-text{fill:#1e293b;stroke:#1e293b;}#my-svg .edge-thickness-normal{stroke-width:1px;}#my-svg .edge-thickness-thick{stroke-width:3.5px;}#my-svg .edge-pattern-solid{stroke-dasharray:0;}#my-svg .edge-thickness-invisible{stroke-width:0;fill:none;}#my-svg .edge-pattern-dashed{stroke-dasharray:3;}#my-svg .edge-pattern-dotted{stroke-dasharray:2;}#my-svg .marker{fill:#3b82f6;stroke:#3b82f6;}#my-svg .marker.cross{stroke:#3b82f6;}#my-svg svg{font-family:"trebuchet ms",verdana,arial,sans-serif;font-size:16px;}#my-svg p{margin:0;}#my-svg .actor{stroke:#3b82f6;fill:#dbeafe;}#my-svg text.actor&gt;tspan{fill:#1e293b;stroke:none;}#my-svg .actor-line{stroke:#3b82f6;}#my-svg .innerArc{stroke-width:1.5;stroke-dasharray:none;}#my-svg .messageLine0{stroke-width:1.5;stroke-dasharray:none;stroke:#3b82f6;}#my-svg .messageLine1{stroke-width:1.5;stroke-dasharray:2,2;stroke:#3b82f6;}#my-svg #arrowhead path{fill:#3b82f6;stroke:#3b82f6;}#my-svg .sequenceNumber{fill:#ffffff;}#my-svg #sequencenumber{fill:#3b82f6;}#my-svg #crosshead path{fill:#3b82f6;stroke:#3b82f6;}#my-svg .messageText{fill:#1e293b;stroke:none;}#my-svg .labelBox{stroke:#3b82f6;fill:#dbeafe;}#my-svg .labelText,#my-svg .labelText&gt;tspan{fill:#1e293b;stroke:none;}#my-svg .loopText,#my-svg .loopText&gt;tspan{fill:#1e293b;stroke:none;}#my-svg .loopLine{stroke-width:2px;stroke-dasharray:2,2;stroke:#3b82f6;fill:#3b82f6;}#my-svg .note{stroke:#f59e0b;fill:#fef3c7;}#my-svg .noteText,#my-svg .noteText&gt;tspan{fill:#1e293b;stroke:none;}#my-svg .activation0{fill:#93c5fd;stroke:#3b82f6;}#my-svg .activation1{fill:#93c5fd;stroke:#3b82f6;}#my-svg .activation2{fill:#93c5fd;stroke:#3b82f6;}#my-svg .actorPopupMenu{position:absolute;}#my-svg .actorPopupMenuPanel{position:absolute;fill:#dbeafe;box-shadow:0px 8px 16px 0px rgba(0,0,0,0.2);filter:drop-shadow(3px 5px 2px rgb(0 0 0 / 0.4));}#my-svg .actor-man line{stroke:#3b82f6;fill:#dbeafe;}#my-svg .actor-man circle,#my-svg line{stroke:#3b82f6;fill:#dbeafe;stroke-width:2px;}#my-svg .legend,#my-svg .legendText,#my-svg .legendRect,#my-svg g.legend{display:none!important;visibility:hidden!important;opacity:0!important;}#my-svg .label-container:has(&gt; g &gt; foreignObject[width='8']){display:none!important;}#my-svg .node rect[width='34'],#my-svg .node rect[width='35'],#my-svg .node rect[width='36']{display:none!important;}#my-svg .node:has(rect[width='34']),#my-svg .node:has(rect[width='35']),#my-svg .node:has(rect[width='36']){display:none!important;}#my-svg foreignObject[width='8']{display:none!important;}#my-svg .node text,#my-svg .flowchart-node text,#my-svg .nodeLabel,#my-svg span.nodeLabel{display:block!important;visibility:visible!important;opacity:1!important;font-family:'PingFang SC','Hiragino Sans GB','Microsoft YaHei','Source Han Sans SC',system-ui,sans-serif!important;font-weight:500!important;font-size:14px!important;fill:#1e293b!important;color:#1e293b!important;}#my-svg .node foreignObject:not([width='8']),#my-svg .node&gt;g.label,#my-svg .cluster-label foreignObject{display:block!important;visibility:visible!important;opacity:1!important;}#my-svg .edgeLabel span.edgeLabel:empty{display:none!important;}#my-svg g.edgeLabel:has(span.edgeLabel:empty){display:none!important;}#my-svg .cluster-label foreignObject[height='0']{display:none!important;}#my-svg .cluster rect[width='0'],#my-svg .cluster rect[height='0']{display:none!important;}#my-svg #node_0 circle.label-container{fill:#dbeafe!important;stroke:#3b82f6!important;stroke-width:2.5px!important;}#my-svg #node_1 path.node-bkg,#my-svg #node_2 path.node-bkg,#my-svg #node_3 path.node-bkg,#my-svg #node_4 path.node-bkg,#my-svg #node_5 path.node-bkg,#my-svg #node_6 path.node-bkg,#my-svg #node_7 path.node-bkg,#my-svg #node_8 path.node-bkg,#my-svg #node_9 path.node-bkg,#my-svg #node_10 path.node-bkg,#my-svg #node_11 path.node-bkg,#my-svg #node_12 path.node-bkg,#my-svg #node_13 path.node-bkg,#my-svg #node_14 path.node-bkg,#my-svg #node_15 path.node-bkg{stroke-width:2.5px!important;}#my-svg #node_1 path.node-bkg{fill:#fef3c7!important;stroke:#f59e0b!important;}#my-svg #node_2 path.node-bkg{fill:#dbeafe!important;stroke:#3b82f6!important;}#my-svg #node_3 path.node-bkg{fill:#fce7f3!important;stroke:#ec4899!important;}#my-svg #node_4 path.node-bkg{fill:#e0e7ff!important;stroke:#818cf8!important;}#my-svg #node_5 path.node-bkg{fill:#dbeafe!important;stroke:#3b82f6!important;}#my-svg #node_6 path.node-bkg{fill:#d1fae5!important;stroke:#10b981!important;}#my-svg #node_7 path.node-bkg{fill:#fee2e2!important;stroke:#ef4444!important;}#my-svg #node_8 path.node-bkg{fill:#fee2e2!important;stroke:#ef4444!important;}#my-svg #node_9 path.node-bkg{fill:#f3e8ff!important;stroke:#a855f7!important;}#my-svg #node_10 path.node-bkg{fill:#ccfbf1!important;stroke:#14b8a6!important;}#my-svg #node_11 path.node-bkg{fill:#ccfbf1!important;stroke:#14b8a6!important;}#my-svg #node_12 path.node-bkg{fill:#fef3c7!important;stroke:#f59e0b!important;}#my-svg #node_13 path.node-bkg{fill:#fce7f3!important;stroke:#ec4899!important;}#my-svg #node_14 path.node-bkg{fill:#e0e7ff!important;stroke:#818cf8!important;}#my-svg #node_15 path.node-bkg{fill:#d1fae5!important;stroke:#10b981!important;}#my-svg svg[aria-roledescription='mindmap'] text,#my-svg svg[aria-roledescription='mindmap'] .nodeLabel,#my-svg svg[aria-roledescription='mindmap'] .nodeLabel p,#my-svg svg[aria-roledescription='mindmap'] tspan,#my-svg [class*='mindmap'] text,#my-svg [class*='mindmap'] .nodeLabel,#my-svg [class*='mindmap'] tspan{fill:#1e293b!important;color:#1e293b!important;font-weight:500!important;font-size:14px!important;font-family:'PingFang SC','Hiragino Sans GB','Microsoft YaHei','Source Han Sans SC',system-ui,sans-serif!important;}#my-svg svg:not([aria-roledescription='mindmap']) path.edge{stroke:#64748b!important;stroke-width:3px!important;fill:none!important;stroke-linecap:round!important;stroke-linejoin:round!important;opacity:0.45!important;filter:drop-shadow(0 1px 3px rgba(100, 116, 139, 0.25))!important;transition:all 0.3s ease!important;}#my-svg svg[aria-roledescription='mindmap'] path.edge{stroke:#3b82f6!important;stroke-width:3px!important;fill:none!important;stroke-linecap:round!important;stroke-linejoin:round!important;opacity:0.7!important;filter:drop-shadow(0 2px 6px rgba(15, 23, 42, 0.2))!important;transition:stroke 0.3s ease,stroke-width 0.3s ease,opacity 0.3s ease!important;}#my-svg svg[aria-roledescription='mindmap'] path.edge.edge-depth--1,#my-svg svg[aria-roledescription='mindmap'] path.edge.edge-depth-0{stroke:#2563eb!important;stroke-width:4px!important;opacity:0.95!important;}#my-svg svg[aria-roledescription='mindmap'] path.edge.edge-depth-1{stroke:#f59e0b!important;stroke-width:3.6px!important;opacity:0.9!important;}#my-svg svg[aria-roledescription='mindmap'] path.edge.edge-depth-2{stroke:#3b82f6!important;stroke-width:3.4px!important;opacity:0.85!important;}#my-svg svg[aria-roledescription='mindmap'] path.edge.edge-depth-3{stroke:#ec4899!important;stroke-width:3.2px!important;opacity:0.8!important;}#my-svg svg[aria-roledescription='mindmap'] path.edge.edge-depth-4{stroke:#8b5cf6!important;stroke-width:3px!important;opacity:0.75!important;}#my-svg svg[aria-roledescription='mindmap'] path.edge.edge-depth-5{stroke:#10b981!important;stroke-width:2.8px!important;opacity:0.7!important;}#my-svg svg[aria-roledescription='mindmap'] path.edge.edge-depth-6{stroke:#0ea5e9!important;stroke-width:2.6px!important;opacity:0.68!important;}#my-svg svg[aria-roledescription='mindmap'] path.edge.edge-depth-7{stroke:#f97316!important;stroke-width:2.4px!important;opacity:0.66!important;}#my-svg svg[aria-roledescription='mindmap'] path.edge.edge-depth-8{stroke:#6366f1!important;stroke-width:2.3px!important;opacity:0.64!important;}#my-svg svg[aria-roledescription='mindmap'] path.edge.edge-depth-9{stroke:#14b8a6!important;stroke-width:2.2px!important;opacity:0.62!important;}#my-svg svg[aria-roledescription='mindmap'] path.edge.edge-depth-10{stroke:#f43f5e!important;stroke-width:2.1px!important;opacity:0.6!important;}#my-svg svg[aria-roledescription='mindmap'] path.edge:hover{opacity:0.9!important;stroke-width:3.6px!important;filter:drop-shadow(0 3px 8px rgba(15, 23, 42, 0.25))!important;}#my-svg path.edge:hover{opacity:0.75!important;stroke-width:3.5px!important;filter:drop-shadow(0 2px 4px rgba(100, 116, 139, 0.35))!important;}#my-svg .node:not([class*='mindmap']) rect,#my-svg .flowchart-node rect,#my-svg .basic.label-container{rx:8px!important;ry:8px!important;fill:#dbeafe!important;stroke:#3b82f6!important;stroke-width:2.5px!important;filter:drop-shadow(0 4px 6px rgba(59, 130, 246, 0.15))!important;transition:all 0.3s ease!important;}#my-svg .node:not([class*='mindmap']):nth-child(3n+1) rect{fill:#dbeafe!important;stroke:#3b82f6!important;}#my-svg .node:not([class*='mindmap']):nth-child(3n+2) rect{fill:#fef3c7!important;stroke:#f59e0b!important;}#my-svg .node:not([class*='mindmap']):nth-child(3n) rect{fill:#fce7f3!important;stroke:#ec4899!important;}#my-svg .cluster rect{fill:#f0f9ff!important;stroke:#3b82f6!important;stroke-width:2px!important;stroke-dasharray:5,5!important;rx:12px!important;ry:12px!important;opacity:0.6!important;}#my-svg .cluster text,#my-svg .cluster-label{font-weight:600!important;font-size:15px!important;fill:#1e293b!important;}#my-svg .edgeLabel{background:transparent!important;font-size:12px!important;font-weight:500!important;}#my-svg .edgeLabel rect{fill:rgba(248, 250, 252, 0.95)!important;stroke:rgba(59, 130, 246, 0.3)!important;stroke-width:1.5px!important;rx:4px!important;ry:4px!important;}#my-svg .edgeLabel div.labelBkg{background:rgba(248, 250, 252, 0.95)!important;padding:3px 8px!important;margin:0!important;font-size:12px!important;color:#475569!important;border:none!important;border-radius:4px!important;box-shadow:0 2px 4px rgba(0,0,0,0.1)!important;white-space:nowrap!important;}#my-svg .edgeLabel span.edgeLabel{background:transparent!important;padding:0!important;border:none!important;box-shadow:none!important;display:inline-flex!important;align-items:center!important;}#my-svg .edgeLabel span.edgeLabel p{display:inline!important;background:transparent!important;padding:0!important;margin:0!important;}#my-svg .edgeLabel foreignObject{overflow:visible!important;}#my-svg .flowchart-link,#my-svg .edgePath path{stroke:#3b82f6!important;stroke-width:2.5px!important;opacity:0.8!important;}#my-svg .arrowMarkerPath,#my-svg .marker{fill:#3b82f6!important;stroke:#3b82f6!important;}#my-svg .actor rect{rx:8px!important;ry:8px!important;fill:#dbeafe!important;stroke:#3b82f6!important;stroke-width:2.5px!important;filter:drop-shadow(0 2px 4px rgba(59, 130, 246, 0.2))!important;}#my-svg .activation0,#my-svg .activation1,#my-svg .activation2{fill:#93c5fd!important;stroke:#3b82f6!important;stroke-width:2px!important;opacity:0.7!important;}#my-svg .actor-line{stroke:#94a3b8!important;stroke-width:1.5px!important;stroke-dasharray:5,5!important;}#my-svg .messageLine0,#my-svg .messageLine1{stroke:#3b82f6!important;stroke-width:2.5px!important;}#my-svg .note rect{fill:#fef3c7!important;stroke:#f59e0b!important;stroke-width:2px!important;rx:6px!important;ry:6px!important;}#my-svg .note text{fill:#1e293b!important;}#my-svg svg #arrowhead path,#my-svg svg #crosshead path,#my-svg svg #filled-head path,#my-svg svg marker path{fill:#3b82f6!important;stroke:#3b82f6!important;}#my-svg #arrowhead&gt;path,#my-svg #crosshead&gt;path,#my-svg #filled-head&gt;path{fill:#3b82f6!important;stroke:#3b82f6!important;}#my-svg .taskText{fill:#1e293b!important;font-weight:500!important;}#my-svg .task{stroke-width:2px!important;}#my-svg .grid .tick{stroke:#cbd5e1!important;stroke-width:1px!important;}#my-svg .pieCircle{stroke:#ffffff!important;stroke-width:2px!important;}#my-svg :root{--mermaid-font-family:"trebuchet ms",verdana,arial,sans-serif;}</style><g/><defs><symbol height="24" width="24" id="computer"><path d="M2 2v13h20v-13h-20zm18 11h-16v-9h16v9zm-10.228 6l.466-1h3.524l.467 1h-4.457zm14.228 3h-24l2-6h2.104l-1.33 4h18.45l-1.297-4h2.073l2 6zm-5-10h-14v-7h14v7z" transform="scale(.5)"/></symbol></defs><defs><symbol clip-rule="evenodd" fill-rule="evenodd" id="database"><path d="M12.258.001l.256.004.255.005.253.008.251.01.249.012.247.015.246.016.242.019.241.02.239.023.236.024.233.027.231.028.229.031.225.032.223.034.22.036.217.038.214.04.211.041.208.043.205.045.201.046.198.048.194.05.191.051.187.053.183.054.18.056.175.057.172.059.168.06.163.061.16.063.155.064.15.066.074.033.073.033.071.034.07.034.069.035.068.035.067.035.066.035.064.036.064.036.062.036.06.036.06.037.058.037.058.037.055.038.055.038.053.038.052.038.051.039.05.039.048.039.047.039.045.04.044.04.043.04.041.04.04.041.039.041.037.041.036.041.034.041.033.042.032.042.03.042.029.042.027.042.026.043.024.043.023.043.021.043.02.043.018.044.017.043.015.044.013.044.012.044.011.045.009.044.007.045.006.045.004.045.002.045.001.045v17l-.001.045-.002.045-.004.045-.006.045-.007.045-.009.044-.011.045-.012.044-.013.044-.015.044-.017.043-.018.044-.02.043-.021.043-.023.043-.024.043-.026.043-.027.042-.029.042-.03.042-.032.042-.033.042-.034.041-.036.041-.037.041-.039.041-.04.041-.041.04-.043.04-.044.04-.045.04-.047.039-.048.039-.05.039-.051.039-.052.038-.053.038-.055.038-.055.038-.058.037-.058.037-.06.037-.06.036-.062.036-.064.036-.064.036-.066.035-.067.035-.068.035-.069.035-.07.034-.071.034-.073.033-.074.033-.15.066-.155.064-.16.063-.163.061-.168.06-.172.059-.175.057-.18.056-.183.054-.187.053-.191.051-.194.05-.198.048-.201.046-.205.045-.208.043-.211.041-.214.04-.217.038-.22.036-.223.034-.225.032-.229.031-.231.028-.233.027-.236.024-.239.023-.241.02-.242.019-.246.016-.247.015-.249.012-.251.01-.253.008-.255.005-.256.004-.258.001-.258-.001-.256-.004-.255-.005-.253-.008-.251-.01-.249-.012-.247-.015-.245-.016-.243-.019-.241-.02-.238-.023-.236-.024-.234-.027-.231-.028-.228-.031-.226-.032-.223-.034-.22-.036-.217-.038-.214-.04-.211-.041-.208-.043-.204-.045-.201-.046-.198-.048-.195-.05-.19-.051-.187-.053-.184-.054-.179-.056-.176-.057-.172-.059-.167-.06-.164-.061-.159-.063-.155-.064-.151-.066-.074-.033-.072-.033-.072-.034-.07-.034-.069-.035-.068-.035-.067-.035-.066-.035-.064-.036-.063-.036-.062-.036-.061-.036-.06-.037-.058-.037-.057-.037-.056-.038-.055-.038-.053-.038-.052-.038-.051-.039-.049-.039-.049-.039-.046-.039-.046-.04-.044-.04-.043-.04-.041-.04-.04-.041-.039-.041-.037-.041-.036-.041-.034-.041-.033-.042-.032-.042-.03-.042-.029-.042-.027-.042-.026-.043-.024-.043-.023-.043-.021-.043-.02-.043-.018-.044-.017-.043-.015-.044-.013-.044-.012-.044-.011-.045-.009-.044-.007-.045-.006-.045-.004-.045-.002-.045-.001-.045v-17l.001-.045.002-.045.004-.045.006-.045.007-.045.009-.044.011-.045.012-.044.013-.044.015-.044.017-.043.018-.044.02-.043.021-.043.023-.043.024-.043.026-.043.027-.042.029-.042.03-.042.032-.042.033-.042.034-.041.036-.041.037-.041.039-.041.04-.041.041-.04.043-.04.044-.04.046-.04.046-.039.049-.039.049-.039.051-.039.052-.038.053-.038.055-.038.056-.038.057-.037.058-.037.06-.037.061-.036.062-.036.063-.036.064-.036.066-.035.067-.035.068-.035.069-.035.07-.034.072-.034.072-.033.074-.033.151-.066.155-.064.159-.063.164-.061.167-.06.172-.059.176-.057.179-.056.184-.054.187-.053.19-.051.195-.05.198-.048.201-.046.204-.045.208-.043.211-.041.214-.04.217-.038.22-.036.223-.034.226-.032.228-.031.231-.028.234-.027.236-.024.238-.023.241-.02.243-.019.245-.016.247-.015.249-.012.251-.01.253-.008.255-.005.256-.004.258-.001.258.001zm-9.258 20.499v.01l.001.021.003.021.004.022.005.021.006.022.007.022.009.023.01.022.011.023.012.023.013.023.015.023.016.024.017.023.018.024.019.024.021.024.022.025.023.024.024.025.052.049.056.05.061.051.066.051.07.051.075.051.079.052.084.052.088.052.092.052.097.052.102.051.105.052.11.052.114.051.119.051.123.051.127.05.131.05.135.05.139.048.144.049.147.047.152.047.155.047.16.045.163.045.167.043.171.043.176.041.178.041.183.039.187.039.19.037.194.035.197.035.202.033.204.031.209.03.212.029.216.027.219.025.222.024.226.021.23.02.233.018.236.016.24.015.243.012.246.01.249.008.253.005.256.004.259.001.26-.001.257-.004.254-.005.25-.008.247-.011.244-.012.241-.014.237-.016.233-.018.231-.021.226-.021.224-.024.22-.026.216-.027.212-.028.21-.031.205-.031.202-.034.198-.034.194-.036.191-.037.187-.039.183-.04.179-.04.175-.042.172-.043.168-.044.163-.045.16-.046.155-.046.152-.047.148-.048.143-.049.139-.049.136-.05.131-.05.126-.05.123-.051.118-.052.114-.051.11-.052.106-.052.101-.052.096-.052.092-.052.088-.053.083-.051.079-.052.074-.052.07-.051.065-.051.06-.051.056-.05.051-.05.023-.024.023-.025.021-.024.02-.024.019-.024.018-.024.017-.024.015-.023.014-.024.013-.023.012-.023.01-.023.01-.022.008-.022.006-.022.006-.022.004-.022.004-.021.001-.021.001-.021v-4.127l-.077.055-.08.053-.083.054-.085.053-.087.052-.09.052-.093.051-.095.05-.097.05-.1.049-.102.049-.105.048-.106.047-.109.047-.111.046-.114.045-.115.045-.118.044-.12.043-.122.042-.124.042-.126.041-.128.04-.13.04-.132.038-.134.038-.135.037-.138.037-.139.035-.142.035-.143.034-.144.033-.147.032-.148.031-.15.03-.151.03-.153.029-.154.027-.156.027-.158.026-.159.025-.161.024-.162.023-.163.022-.165.021-.166.02-.167.019-.169.018-.169.017-.171.016-.173.015-.173.014-.175.013-.175.012-.177.011-.178.01-.179.008-.179.008-.181.006-.182.005-.182.004-.184.003-.184.002h-.37l-.184-.002-.184-.003-.182-.004-.182-.005-.181-.006-.179-.008-.179-.008-.178-.01-.176-.011-.176-.012-.175-.013-.173-.014-.172-.015-.171-.016-.17-.017-.169-.018-.167-.019-.166-.02-.165-.021-.163-.022-.162-.023-.161-.024-.159-.025-.157-.026-.156-.027-.155-.027-.153-.029-.151-.03-.15-.03-.148-.031-.146-.032-.145-.033-.143-.034-.141-.035-.14-.035-.137-.037-.136-.037-.134-.038-.132-.038-.13-.04-.128-.04-.126-.041-.124-.042-.122-.042-.12-.044-.117-.043-.116-.045-.113-.045-.112-.046-.109-.047-.106-.047-.105-.048-.102-.049-.1-.049-.097-.05-.095-.05-.093-.052-.09-.051-.087-.052-.085-.053-.083-.054-.08-.054-.077-.054v4.127zm0-5.654v.011l.001.021.003.021.004.021.005.022.006.022.007.022.009.022.01.022.011.023.012.023.013.023.015.024.016.023.017.024.018.024.019.024.021.024.022.024.023.025.024.024.052.05.056.05.061.05.066.051.07.051.075.052.079.051.084.052.088.052.092.052.097.052.102.052.105.052.11.051.114.051.119.052.123.05.127.051.131.05.135.049.139.049.144.048.147.048.152.047.155.046.16.045.163.045.167.044.171.042.176.042.178.04.183.04.187.038.19.037.194.036.197.034.202.033.204.032.209.03.212.028.216.027.219.025.222.024.226.022.23.02.233.018.236.016.24.014.243.012.246.01.249.008.253.006.256.003.259.001.26-.001.257-.003.254-.006.25-.008.247-.01.244-.012.241-.015.237-.016.233-.018.231-.02.226-.022.224-.024.22-.025.216-.027.212-.029.21-.03.205-.032.202-.033.198-.035.194-.036.191-.037.187-.039.183-.039.179-.041.175-.042.172-.043.168-.044.163-.045.16-.045.155-.047.152-.047.148-.048.143-.048.139-.05.136-.049.131-.05.126-.051.123-.051.118-.051.114-.052.11-.052.106-.052.101-.052.096-.052.092-.052.088-.052.083-.052.079-.052.074-.051.07-.052.065-.051.06-.05.056-.051.051-.049.023-.025.023-.024.021-.025.02-.024.019-.024.018-.024.017-.024.015-.023.014-.023.013-.024.012-.022.01-.023.01-.023.008-.022.006-.022.006-.022.004-.021.004-.022.001-.021.001-.021v-4.139l-.077.054-.08.054-.083.054-.085.052-.087.053-.09.051-.093.051-.095.051-.097.05-.1.049-.102.049-.105.048-.106.047-.109.047-.111.046-.114.045-.115.044-.118.044-.12.044-.122.042-.124.042-.126.041-.128.04-.13.039-.132.039-.134.038-.135.037-.138.036-.139.036-.142.035-.143.033-.144.033-.147.033-.148.031-.15.03-.151.03-.153.028-.154.028-.156.027-.158.026-.159.025-.161.024-.162.023-.163.022-.165.021-.166.02-.167.019-.169.018-.169.017-.171.016-.173.015-.173.014-.175.013-.175.012-.177.011-.178.009-.179.009-.179.007-.181.007-.182.005-.182.004-.184.003-.184.002h-.37l-.184-.002-.184-.003-.182-.004-.182-.005-.181-.007-.179-.007-.179-.009-.178-.009-.176-.011-.176-.012-.175-.013-.173-.014-.172-.015-.171-.016-.17-.017-.169-.018-.167-.019-.166-.02-.165-.021-.163-.022-.162-.023-.161-.024-.159-.025-.157-.026-.156-.027-.155-.028-.153-.028-.151-.03-.15-.03-.148-.031-.146-.033-.145-.033-.143-.033-.141-.035-.14-.036-.137-.036-.136-.037-.134-.038-.132-.039-.13-.039-.128-.04-.126-.041-.124-.042-.122-.043-.12-.043-.117-.044-.116-.044-.113-.046-.112-.046-.109-.046-.106-.047-.105-.048-.102-.049-.1-.049-.097-.05-.095-.051-.093-.051-.09-.051-.087-.053-.085-.052-.083-.054-.08-.054-.077-.054v4.139zm0-5.666v.011l.001.02.003.022.004.021.005.022.006.021.007.022.009.023.01.022.011.023.012.023.013.023.015.023.016.024.017.024.018.023.019.024.021.025.022.024.023.024.024.025.052.05.056.05.061.05.066.051.07.051.075.052.079.051.084.052.088.052.092.052.097.052.102.052.105.051.11.052.114.051.119.051.123.051.127.05.131.05.135.05.139.049.144.048.147.048.152.047.155.046.16.045.163.045.167.043.171.043.176.042.178.04.183.04.187.038.19.037.194.036.197.034.202.033.204.032.209.03.212.028.216.027.219.025.222.024.226.021.23.02.233.018.236.017.24.014.243.012.246.01.249.008.253.006.256.003.259.001.26-.001.257-.003.254-.006.25-.008.247-.01.244-.013.241-.014.237-.016.233-.018.231-.02.226-.022.224-.024.22-.025.216-.027.212-.029.21-.03.205-.032.202-.033.198-.035.194-.036.191-.037.187-.039.183-.039.179-.041.175-.042.172-.043.168-.044.163-.045.16-.045.155-.047.152-.047.148-.048.143-.049.139-.049.136-.049.131-.051.126-.05.123-.051.118-.052.114-.051.11-.052.106-.052.101-.052.096-.052.092-.052.088-.052.083-.052.079-.052.074-.052.07-.051.065-.051.06-.051.056-.05.051-.049.023-.025.023-.025.021-.024.02-.024.019-.024.018-.024.017-.024.015-.023.014-.024.013-.023.012-.023.01-.022.01-.023.008-.022.006-.022.006-.022.004-.022.004-.021.001-.021.001-.021v-4.153l-.077.054-.08.054-.083.053-.085.053-.087.053-.09.051-.093.051-.095.051-.097.05-.1.049-.102.048-.105.048-.106.048-.109.046-.111.046-.114.046-.115.044-.118.044-.12.043-.122.043-.124.042-.126.041-.128.04-.13.039-.132.039-.134.038-.135.037-.138.036-.139.036-.142.034-.143.034-.144.033-.147.032-.148.032-.15.03-.151.03-.153.028-.154.028-.156.027-.158.026-.159.024-.161.024-.162.023-.163.023-.165.021-.166.02-.167.019-.169.018-.169.017-.171.016-.173.015-.173.014-.175.013-.175.012-.177.01-.178.01-.179.009-.179.007-.181.006-.182.006-.182.004-.184.003-.184.001-.185.001-.185-.001-.184-.001-.184-.003-.182-.004-.182-.006-.181-.006-.179-.007-.179-.009-.178-.01-.176-.01-.176-.012-.175-.013-.173-.014-.172-.015-.171-.016-.17-.017-.169-.018-.167-.019-.166-.02-.165-.021-.163-.023-.162-.023-.161-.024-.159-.024-.157-.026-.156-.027-.155-.028-.153-.028-.151-.03-.15-.03-.148-.032-.146-.032-.145-.033-.143-.034-.141-.034-.14-.036-.137-.036-.136-.037-.134-.038-.132-.039-.13-.039-.128-.041-.126-.041-.124-.041-.122-.043-.12-.043-.117-.044-.116-.044-.113-.046-.112-.046-.109-.046-.106-.048-.105-.048-.102-.048-.1-.05-.097-.049-.095-.051-.093-.051-.09-.052-.087-.052-.085-.053-.083-.053-.08-.054-.077-.054v4.153zm8.74-8.179l-.257.004-.254.005-.25.008-.247.011-.244.012-.241.014-.237.016-.233.018-.231.021-.226.022-.224.023-.22.026-.216.027-.212.028-.21.031-.205.032-.202.033-.198.034-.194.036-.191.038-.187.038-.183.04-.179.041-.175.042-.172.043-.168.043-.163.045-.16.046-.155.046-.152.048-.148.048-.143.048-.139.049-.136.05-.131.05-.126.051-.123.051-.118.051-.114.052-.11.052-.106.052-.101.052-.096.052-.092.052-.088.052-.083.052-.079.052-.074.051-.07.052-.065.051-.06.05-.056.05-.051.05-.023.025-.023.024-.021.024-.02.025-.019.024-.018.024-.017.023-.015.024-.014.023-.013.023-.012.023-.01.023-.01.022-.008.022-.006.023-.006.021-.004.022-.004.021-.001.021-.001.021.001.021.001.021.004.021.004.022.006.021.006.023.008.022.01.022.01.023.012.023.013.023.014.023.015.024.017.023.018.024.019.024.02.025.021.024.023.024.023.025.051.05.056.05.06.05.065.051.07.052.074.051.079.052.083.052.088.052.092.052.096.052.101.052.106.052.11.052.114.052.118.051.123.051.126.051.131.05.136.05.139.049.143.048.148.048.152.048.155.046.16.046.163.045.168.043.172.043.175.042.179.041.183.04.187.038.191.038.194.036.198.034.202.033.205.032.21.031.212.028.216.027.22.026.224.023.226.022.231.021.233.018.237.016.241.014.244.012.247.011.25.008.254.005.257.004.26.001.26-.001.257-.004.254-.005.25-.008.247-.011.244-.012.241-.014.237-.016.233-.018.231-.021.226-.022.224-.023.22-.026.216-.027.212-.028.21-.031.205-.032.202-.033.198-.034.194-.036.191-.038.187-.038.183-.04.179-.041.175-.042.172-.043.168-.043.163-.045.16-.046.155-.046.152-.048.148-.048.143-.048.139-.049.136-.05.131-.05.126-.051.123-.051.118-.051.114-.052.11-.052.106-.052.101-.052.096-.052.092-.052.088-.052.083-.052.079-.052.074-.051.07-.052.065-.051.06-.05.056-.05.051-.05.023-.025.023-.024.021-.024.02-.025.019-.024.018-.024.017-.023.015-.024.014-.023.013-.023.012-.023.01-.023.01-.022.008-.022.006-.023.006-.021.004-.022.004-.021.001-.021.001-.021-.001-.021-.001-.021-.004-.021-.004-.022-.006-.021-.006-.023-.008-.022-.01-.022-.01-.023-.012-.023-.013-.023-.014-.023-.015-.024-.017-.023-.018-.024-.019-.024-.02-.025-.021-.024-.023-.024-.023-.025-.051-.05-.056-.05-.06-.05-.065-.051-.07-.052-.074-.051-.079-.052-.083-.052-.088-.052-.092-.052-.096-.052-.101-.052-.106-.052-.11-.052-.114-.052-.118-.051-.123-.051-.126-.051-.131-.05-.136-.05-.139-.049-.143-.048-.148-.048-.152-.048-.155-.046-.16-.046-.163-.045-.168-.043-.172-.043-.175-.042-.179-.041-.183-.04-.187-.038-.191-.038-.194-.036-.198-.034-.202-.033-.205-.032-.21-.031-.212-.028-.216-.027-.22-.026-.224-.023-.226-.022-.231-.021-.233-.018-.237-.016-.241-.014-.244-.012-.247-.011-.25-.008-.254-.005-.257-.004-.26-.001-.26.001z" transform="scale(.5)"/></symbol></defs><defs><symbol height="24" width="24" id="clock"><path d="M12 2c5.514 0 10 4.486 10 10s-4.486 10-10 10-10-4.486-10-10 4.486-10 10-10zm0-2c-6.627 0-12 5.373-12 12s5.373 12 12 12 12-5.373 12-12-5.373-12-12-12zm5.848 12.459c.202.038.202.333.001.372-1.907.361-6.045 1.111-6.547 1.111-.719 0-1.301-.582-1.301-1.301 0-.512.77-5.447 1.125-7.445.034-.192.312-.181.343.014l.985 6.238 5.394 1.011z" transform="scale(.5)"/></symbol></defs><defs><marker orient="auto-start-reverse" markerHeight="12" markerWidth="12" markerUnits="userSpaceOnUse" refY="5" refX="7.9" id="arrowhead"><path d="M -1 0 L 10 5 L 0 10 z"/></marker></defs><defs><marker refY="4.5" refX="4" orient="auto" markerHeight="8" markerWidth="15" id="crosshead"><path style="stroke-dasharray: 0, 0;" d="M 1,2 L 6,7 M 6,2 L 1,7" stroke-width="1pt" stroke="#000000" fill="none"/></marker></defs><defs><marker orient="auto" markerHeight="28" markerWidth="20" refY="7" refX="15.5" id="filled-head"><path d="M 18,7 L9,13 L14,7 L9,1 Z"/></marker></defs><defs><marker orient="auto" markerHeight="40" markerWidth="60" refY="15" refX="15" id="sequencenumber"><circle r="6" cy="15" cx="15"/></marker></defs><g><line class="loopLine" y2="167" x2="886" y1="167" x1="391"/><line class="loopLine" y2="380" x2="886" y1="167" x1="886"/><line class="loopLine" y2="380" x2="886" y1="380" x1="391"/><line class="loopLine" y2="380" x2="391" y1="167" x1="391"/><polygon class="labelBox" points="391,167 441,167 441,180 432.6,187 391,187"/><text style="font-size: 16px; font-weight: 400;" class="labelText" alignment-baseline="middle" dominant-baseline="middle" text-anchor="middle" y="180" x="416">alt</text><text style="font-size: 16px; font-weight: 400;" class="loopText" text-anchor="middle" y="185" x="663.5"><tspan x="663.5">[实例数为 0]</tspan></text></g><text style="font-size: 16px; font-weight: 400;" dy="1em" class="messageText" alignment-baseline="middle" dominant-baseline="middle" text-anchor="middle" y="80" x="174">发送请求</text><line style="fill: none;" marker-end="url(#arrowhead)" stroke="none" stroke-width="2" class="messageLine0" y2="111" x2="271" y1="111" x1="76"/><text style="font-size: 16px; font-weight: 400;" dy="1em" class="messageText" alignment-baseline="middle" dominant-baseline="middle" text-anchor="middle" y="126" x="374">转发请求</text><line style="fill: none;" marker-end="url(#arrowhead)" stroke="none" stroke-width="2" class="messageLine0" y2="157" x2="471" y1="157" x1="276"/><text style="font-size: 16px; font-weight: 400;" dy="1em" class="messageText" alignment-baseline="middle" dominant-baseline="middle" text-anchor="middle" y="217" x="476">激活实例</text><path style="fill: none;" marker-end="url(#arrowhead)" stroke="none" stroke-width="2" class="messageLine0" d="M 476,248 C 536,238 536,278 476,268"/><text style="font-size: 16px; font-weight: 400;" dy="1em" class="messageText" alignment-baseline="middle" dominant-baseline="middle" text-anchor="middle" y="293" x="574">启动 Pod</text><line style="fill: none;" marker-end="url(#arrowhead)" stroke="none" stroke-width="2" class="messageLine0" y2="324" x2="671" y1="324" x1="476"/><text style="font-size: 16px; font-weight: 400;" dy="1em" class="messageText" alignment-baseline="middle" dominant-baseline="middle" text-anchor="middle" y="339" x="774">初始化容器</text><line style="fill: none;" marker-end="url(#arrowhead)" stroke="none" stroke-width="2" class="messageLine0" y2="370" x2="871" y1="370" x1="676"/><text style="font-size: 16px; font-weight: 400;" dy="1em" class="messageText" alignment-baseline="middle" dominant-baseline="middle" text-anchor="middle" y="395" x="574">转发请求</text><line style="fill: none;" marker-end="url(#arrowhead)" stroke="none" stroke-width="2" class="messageLine0" y2="426" x2="671" y1="426" x1="476"/><text style="font-size: 16px; font-weight: 400;" dy="1em" class="messageText" alignment-baseline="middle" dominant-baseline="middle" text-anchor="middle" y="441" x="774">处理请求</text><line style="fill: none;" marker-end="url(#arrowhead)" stroke="none" stroke-width="2" class="messageLine0" y2="472" x2="871" y1="472" x1="676"/><text style="font-size: 16px; font-weight: 400;" dy="1em" class="messageText" alignment-baseline="middle" dominant-baseline="middle" text-anchor="middle" y="487" x="777">返回响应</text><line style="stroke-dasharray: 3, 3; fill: none;" marker-end="url(#arrowhead)" stroke="none" stroke-width="2" class="messageLine1" y2="518" x2="679" y1="518" x1="874"/><text style="font-size: 16px; font-weight: 400;" dy="1em" class="messageText" alignment-baseline="middle" dominant-baseline="middle" text-anchor="middle" y="533" x="577">返回响应</text><line style="stroke-dasharray: 3, 3; fill: none;" marker-end="url(#arrowhead)" stroke="none" stroke-width="2" class="messageLine1" y2="564" x2="479" y1="564" x1="674"/><text style="font-size: 16px; font-weight: 400;" dy="1em" class="messageText" alignment-baseline="middle" dominant-baseline="middle" text-anchor="middle" y="579" x="377">返回响应</text><line style="stroke-dasharray: 3, 3; fill: none;" marker-end="url(#arrowhead)" stroke="none" stroke-width="2" class="messageLine1" y2="610" x2="279" y1="610" x1="474"/><text style="font-size: 16px; font-weight: 400;" dy="1em" class="messageText" alignment-baseline="middle" dominant-baseline="middle" text-anchor="middle" y="625" x="177">返回响应</text><line style="stroke-dasharray: 3, 3; fill: none;" marker-end="url(#arrowhead)" stroke="none" stroke-width="2" class="messageLine1" y2="656" x2="79" y1="656" x1="274"/></svg>