<?xml version="1.0" encoding="UTF-8" standalone="no"?>
<!DOCTYPE svg PUBLIC "-//W3C//DTD SVG 1.1//EN" "http://www.w3.org/Graphics/SVG/1.1/DTD/svg11.dtd">
<svg xmlns:dc="http://purl.org/dc/elements/1.1/" xmlns="http://www.w3.org/2000/svg" xmlns:xl="http://www.w3.org/1999/xlink" version="1.1" viewBox="-21 107 499 357" width="499" height="357">
  <defs>
    <marker orient="auto" overflow="visible" markerUnits="strokeWidth" id="FilledArrow_Marker" stroke-linejoin="miter" stroke-miterlimit="10" viewBox="-1 -3 7 6" markerWidth="7" markerHeight="6" color="black">
      <g>
        <path d="M 4.8 0 L 0 -1.8 L 0 1.8 Z" fill="currentColor" stroke="currentColor" stroke-width="1"/>
      </g>
    </marker>
  </defs>
  <g id="Canvas_1" stroke-dasharray="none" fill-opacity="1" stroke="none" fill="none" stroke-opacity="1">
    <title>Canvas 1</title>
    <rect fill="white" x="-21" y="107" width="499" height="357"/>
    <g id="Canvas_1_Layer_1">
      <title>Layer 1</title>
      <g id="Graphic_14">
        <rect x="-21" y="107.5" width="499" height="356.5" fill="white"/>
      </g>
      <g id="Graphic_7">
        <path d="M 105.5 299 L 460.5 299 C 464.9183 299 468.5 302.58172 468.5 307 L 468.5 441.5 C 468.5 445.9183 464.9183 449.5 460.5 449.5 L 105.5 449.5 C 101.08172 449.5 97.5 445.9183 97.5 441.5 L 97.5 307 C 97.5 302.58172 101.08172 299 105.5 299 Z" fill="#e5e5e5" fill-opacity=".3757047"/>
        <path d="M 105.5 299 L 460.5 299 C 464.9183 299 468.5 302.58172 468.5 307 L 468.5 441.5 C 468.5 445.9183 464.9183 449.5 460.5 449.5 L 105.5 449.5 C 101.08172 449.5 97.5 445.9183 97.5 441.5 L 97.5 307 C 97.5 302.58172 101.08172 299 105.5 299 Z" stroke="gray" stroke-linecap="round" stroke-linejoin="round" stroke-width="1"/>
      </g>
      <g id="Graphic_3">
        <path d="M 216.5 133 L 349.5 133 C 353.91828 133 357.5 136.58172 357.5 141 L 357.5 175.5 C 357.5 179.91828 353.91828 183.5 349.5 183.5 L 216.5 183.5 C 212.08172 183.5 208.5 179.91828 208.5 175.5 L 208.5 141 C 208.5 136.58172 212.08172 133 216.5 133 Z" fill="#ccc"/>
        <path d="M 216.5 133 L 349.5 133 C 353.91828 133 357.5 136.58172 357.5 141 L 357.5 175.5 C 357.5 179.91828 353.91828 183.5 349.5 183.5 L 216.5 183.5 C 212.08172 183.5 208.5 179.91828 208.5 175.5 L 208.5 141 C 208.5 136.58172 212.08172 133 216.5 133 Z" stroke="gray" stroke-linecap="round" stroke-linejoin="round" stroke-width="1"/>
        <text transform="translate(213.5 149.026)" fill="black">
          <tspan font-family="Helvetica Neue" font-size="16" fill="black" x="28.012" y="15">Helm Client</tspan>
        </text>
      </g>
      <g id="Graphic_4">
        <path d="M -1 133 L 132 133 C 136.41828 133 140 136.58172 140 141 L 140 175.5 C 140 179.91828 136.41828 183.5 132 183.5 L -1 183.5 C -5.418278 183.5 -9 179.91828 -9 175.5 L -9 141 C -9 136.58172 -5.418278 133 -1 133 Z" fill="#ccc"/>
        <path d="M -1 133 L 132 133 C 136.41828 133 140 136.58172 140 141 L 140 175.5 C 140 179.91828 136.41828 183.5 132 183.5 L -1 183.5 C -5.418278 183.5 -9 179.91828 -9 175.5 L -9 141 C -9 136.58172 -5.418278 133 -1 133 Z" stroke="gray" stroke-linecap="round" stroke-linejoin="round" stroke-width="1"/>
        <text transform="translate(-4 139.802)" fill="black">
          <tspan font-family="Helvetica Neue" font-size="16" fill="black" x="49.796" y="15">Chart</tspan>
          <tspan font-family="Helvetica Neue" font-size="16" fill="black" x="30.836" y="33.448">Repository</tspan>
        </text>
      </g>
      <g id="Graphic_5">
        <path d="M 216.5 349 L 349.5 349 C 353.91828 349 357.5 352.58172 357.5 357 L 357.5 391.5 C 357.5 395.9183 353.91828 399.5 349.5 399.5 L 216.5 399.5 C 212.08172 399.5 208.5 395.9183 208.5 391.5 L 208.5 357 C 208.5 352.58172 212.08172 349 216.5 349 Z" fill="#ccc"/>
        <path d="M 216.5 349 L 349.5 349 C 353.91828 349 357.5 352.58172 357.5 357 L 357.5 391.5 C 357.5 395.9183 353.91828 399.5 349.5 399.5 L 216.5 399.5 C 212.08172 399.5 208.5 395.9183 208.5 391.5 L 208.5 357 C 208.5 352.58172 212.08172 349 216.5 349 Z" stroke="gray" stroke-linecap="round" stroke-linejoin="round" stroke-width="1"/>
        <text transform="translate(213.5 355.802)" fill="black">
          <tspan font-family="Helvetica Neue" font-size="16" fill="black" x="28.308" y="15">Kubernetes</tspan>
          <tspan font-family="Helvetica Neue" font-size="16" fill="black" x="31.732" y="33.448">API Server</tspan>
        </text>
      </g>
      <g id="Graphic_6">
        <rect x="303" y="214.5" width="149" height="50.5" fill="#ccc"/>
        <rect x="303" y="214.5" width="149" height="50.5" stroke="gray" stroke-linecap="round" stroke-linejoin="round" stroke-width="1"/>
        <text transform="translate(308 230.526)" fill="black">
          <tspan font-family="Helvetica Neue" font-size="16" fill="black" x="30.38" y="15">Helm chart</tspan>
        </text>
      </g>
      <g id="Line_8">
        <line x1="283" y1="183.5" x2="283" y2="336.1" marker-end="url(#FilledArrow_Marker)" stroke="black" stroke-linecap="round" stroke-linejoin="round" stroke-width="2"/>
      </g>
      <g id="Line_9">
        <line x1="208.5" y1="158.25" x2="152.9" y2="158.25" marker-end="url(#FilledArrow_Marker)" stroke="black" stroke-linecap="round" stroke-linejoin="round" stroke-width="2"/>
      </g>
      <g id="Graphic_13">
        <text transform="translate(231.716 422.5)" fill="black">
          <tspan font-family="Helvetica Neue" font-size="14" fill="black" x="0" y="13">Kubernetes Cluster</tspan>
        </text>
      </g>
      <g id="Graphic_15">
        <path d="M 181.5641 255.11434 C 183.07924 257.2345 183.6302 259.41585 182.7973 259.98755 C 181.96441 260.55926 180.0619 259.30404 178.54676 257.18387 C 177.98935 256.4033 177.56537 255.61432 177.2899 254.90127 C 174.80198 256.5299 171.92452 257.55516 168.90072 257.85473 C 169.07504 258.572 169.1805 259.40952 169.1805 260.31454 C 169.1805 262.90304 168.35622 265 167.33824 265 C 166.32026 265 165.49598 262.90304 165.49598 260.31454 C 165.49598 259.4285 165.59713 258.61208 165.765 257.90536 C 162.72183 257.6965 159.81424 256.7514 157.27683 255.1966 C 157.0035 255.8316 156.63117 256.50668 156.14909 257.18387 C 154.63396 259.30404 152.73143 260.55926 151.89854 259.98755 C 151.06565 259.41585 151.6166 257.2345 153.13174 255.11434 C 153.63965 254.4034 154.1906 253.80216 154.7308 253.32116 C 153.6827 252.39926 152.73359 251.3571 151.9136 250.20104 L 154.33265 248.55132 C 157.22733 252.63132 161.98148 255.06582 167.0477 255.06582 C 172.12683 255.06582 176.88528 252.62288 179.77996 248.53022 L 182.20115 250.17572 C 181.4522 251.23475 180.59348 252.19463 179.65513 253.05746 C 180.29217 253.56588 180.9572 254.26627 181.5641 255.11434 Z M 154.9331 226.36237 C 153.65257 227.45937 152.51407 228.73147 151.5628 230.17445 L 154.0378 231.7419 C 156.9045 227.39187 161.76841 224.79493 167.04985 224.79493 C 172.5056 224.79493 177.4556 227.52477 180.28787 232.0963 L 182.80591 230.59637 C 181.86972 229.0859 180.73337 227.7505 179.44852 226.59865 C 180.14583 226.0818 180.89263 225.32655 181.5641 224.38566 C 183.07924 222.2655 183.6302 220.08415 182.7973 219.51245 C 181.96441 218.94074 180.0619 220.19596 178.54676 222.31613 C 177.91402 223.20006 177.46207 224.0882 177.19735 224.87298 C 174.71804 223.26757 171.8492 222.27394 168.80387 221.99547 C 169.0363 221.2107 169.1805 220.24449 169.1805 219.18335 C 169.1805 216.59696 168.35622 214.5 167.33824 214.5 C 166.32026 214.5 165.49598 216.59696 165.49598 219.18546 C 165.49598 220.22128 165.63157 221.1706 165.8554 221.94484 C 162.81437 222.1347 159.92185 223.05239 157.39735 224.57553 C 157.12187 223.8667 156.7022 223.08825 156.14909 222.31613 C 154.6361 220.19596 152.73359 218.94285 151.9007 219.51456 C 151.0678 220.08626 151.61876 222.2676 153.1339 224.38777 C 153.70422 225.1852 154.3305 225.86028 154.9331 226.36237 Z M 142.5 246.71806 L 146.04678 246.71806 L 146.04678 241.5031 L 150.04767 241.5031 L 150.04767 246.72017 L 153.59446 246.72017 L 153.59446 233.57726 L 150.04983 233.57726 L 150.04983 238.46946 L 146.04678 238.46946 L 146.04678 233.57726 L 142.5 233.57726 Z M 156.5666 233.57726 L 156.5666 246.71806 L 165.43572 246.71806 L 165.43572 243.8068 L 160.1134 243.8068 L 160.1134 241.4609 L 164.4866 241.4609 L 164.4866 238.54963 L 160.1134 238.54963 L 160.1134 236.48642 L 165.2291 236.48642 L 165.2291 233.57515 L 156.5666 233.57726 Z M 168.0334 233.57726 L 168.0334 246.71806 L 176.655 246.71806 L 176.655 243.8068 L 171.58017 243.8068 L 171.58017 233.57726 L 168.0334 233.57726 Z M 178.96428 233.57726 L 178.96428 246.71806 L 182.22267 246.71806 L 182.22267 242.83637 C 182.22267 242.49883 182.20546 242.12965 182.17102 241.7246 C 182.13659 241.31955 182.09785 240.90607 182.05696 240.48204 C 182.01607 240.058 181.96657 239.6424 181.91276 239.23947 C 181.8568 238.83443 181.80946 238.47157 181.76857 238.1488 L 181.85035 238.1488 L 182.92213 241.2225 L 184.77946 245.6506 L 186.09874 245.6506 L 187.95391 241.2225 L 189.06659 238.1488 L 189.14837 238.1488 C 189.10748 238.47157 189.05798 238.83654 189.00417 239.24158 C 188.94822 239.64663 188.90087 240.0601 188.85998 240.48415 C 188.81909 240.90818 188.78035 241.32377 188.74591 241.7267 C 188.71148 242.13176 188.69426 242.50094 188.69426 242.83848 L 188.69426 246.72017 L 192 246.72017 L 192 233.57726 L 188.3284 233.57726 L 186.3075 239.03695 L 185.565 241.18032 L 185.48322 241.18032 L 184.74072 239.03695 L 182.6359 233.57726 L 178.96428 233.57726 Z" fill="black"/>
      </g>
      <g id="Group_16">
        <title>Page-1</title>
        <g id="Group_17">
          <title>kubernetes</title>
          <g id="Graphic_19">
            <title>Path</title>
            <path d="M 453.1008 401.2324 C 452.78176 400.2758 452.01156 399.4978 451.04994 399.0216 L 431.52135 390.2976 C 431.00636 390.0595 430.4321 390 429.91714 390 C 429.40215 390 428.8279 390 428.3175 390.11904 L 408.78433 398.9026 C 407.8227 399.31922 407.12087 400.09724 406.8611 401.11334 L 402.0621 420.7679 C 401.8707 421.784 402.12593 422.8001 402.7685 423.63764 L 416.2813 439.2278 C 417.0515 439.9463 418.14074 440.42244 419.2254 440.48197 L 440.74103 440.48197 C 441.89406 440.601 442.9833 440.12484 443.68513 439.2278 L 457.1979 423.63764 C 457.8405 422.8001 458.0957 421.784 457.9681 420.7679 Z" fill="#0a55a7"/>
          </g>
          <g id="Graphic_18">
            <title>Shape</title>
            <path d="M 450.1202 419.52647 C 450.0564 419.52647 449.9926 419.52647 449.9926 419.46694 C 449.9926 419.4074 449.865 419.4074 449.7374 419.4074 C 449.4822 419.3479 449.22697 419.3479 448.9672 419.3479 C 448.8396 419.3479 448.712 419.3479 448.58437 419.2884 L 448.52057 419.2884 C 447.81416 419.22886 447.0485 419.1098 446.3421 418.93126 C 446.1507 418.87174 445.9593 418.6932 445.8955 418.5146 C 445.9593 418.5146 445.8955 418.5146 445.8955 418.5146 L 445.38505 418.39557 C 445.64027 416.66097 445.51266 414.8711 445.12984 413.1365 C 444.6832 411.4019 443.913 409.7311 442.8876 408.2388 L 443.2704 407.8817 L 443.2704 407.82217 C 443.2704 407.6436 443.3342 407.4055 443.4618 407.2865 C 444.03605 406.8103 444.61485 406.44894 445.2529 406.0918 C 445.3805 406.0323 445.5081 405.9728 445.6357 405.91326 C 445.89093 405.7942 446.08234 405.67517 446.3421 405.55613 C 446.4059 405.4966 446.4697 405.4966 446.5335 405.4371 C 446.59733 405.37757 446.5335 405.37757 446.5335 405.31805 C 447.10776 404.9014 447.23993 404.1829 446.78874 403.6472 C 446.59733 403.40914 446.2145 403.2306 445.89093 403.2306 C 445.5719 403.2306 445.24833 403.3496 444.9931 403.5282 L 444.9293 403.5877 C 444.8655 403.6472 444.8017 403.70674 444.7379 403.70674 C 444.5465 403.8853 444.3551 404.06387 444.22747 404.24243 C 444.16366 404.36147 444.03605 404.421 443.97225 404.4805 C 443.5256 404.95667 442.94683 405.4371 442.3726 405.7942 C 442.245 405.85374 442.1174 405.91326 441.98977 405.91326 C 441.92596 405.91326 441.79836 405.91326 441.73455 405.85374 L 441.67075 405.85374 L 441.1603 406.15134 C 440.6499 405.67517 440.0711 405.19476 439.56066 404.7186 C 437.1908 402.984 434.2467 401.9126 431.23423 401.61077 L 431.17043 401.1346 L 431.17043 401.1941 C 430.979 401.0751 430.9152 400.8965 430.8514 400.71796 C 430.8514 400.059 430.8514 399.40425 430.979 398.68576 L 430.979 398.62623 C 430.979 398.5072 431.0428 398.38815 431.0428 398.2691 C 431.1066 398.03103 431.1066 397.79295 431.17043 397.5506 L 431.17043 397.185 C 431.23423 396.58553 430.7238 395.9903 430.0812 395.9308 C 429.6984 395.8713 429.311 396.04984 428.992 396.34745 C 428.73676 396.58553 428.60915 396.88313 428.60915 397.185 L 428.60915 397.4826 C 428.60915 397.72067 428.67296 397.95875 428.73676 398.2011 C 428.80056 398.32013 428.80056 398.43917 428.80056 398.5582 L 428.80056 398.61773 C 428.92817 399.2767 428.92817 399.93144 428.92817 400.64993 C 428.86437 400.8285 428.80056 401.00706 428.60915 401.1261 L 428.60915 401.24514 L 428.54535 401.7213 C 427.83895 401.78083 427.1371 401.89987 426.3669 402.0189 C 423.359 402.61837 420.60175 404.11063 418.49166 406.20236 L 418.10883 405.96427 L 418.04503 405.96427 C 417.98123 405.96427 417.9174 406.0238 417.7898 406.0238 C 417.6622 406.0238 417.5346 405.96427 417.407 405.90475 C 416.83275 405.4881 416.25396 405.0077 415.80733 404.53153 C 415.74353 404.4125 415.6159 404.35297 415.5521 404.29345 C 415.3607 404.1149 415.2331 403.9363 415.0417 403.75776 C 414.9779 403.69824 414.91407 403.69824 414.85027 403.6387 C 414.78647 403.5792 414.78647 403.5792 414.78647 403.5792 C 414.53125 403.40064 414.21223 403.2816 413.88865 403.2816 C 413.50583 403.2816 413.18225 403.40064 412.99084 403.69824 C 412.608 404.23392 412.7356 404.9524 413.24606 405.36907 C 413.30986 405.36907 413.30986 405.4286 413.30986 405.4286 C 413.30986 405.4286 413.43747 405.54763 413.50127 405.54763 C 413.6927 405.66667 413.9479 405.7857 414.20767 405.90475 C 414.3353 405.96427 414.4629 406.0238 414.5905 406.0833 C 415.2331 406.44044 415.87114 406.8018 416.38157 407.278 C 416.5092 407.397 416.6368 407.6351 416.573 407.81366 L 416.573 407.75414 L 416.9558 408.11127 C 416.892 408.2303 416.8282 408.28983 416.7644 408.40887 C 414.77735 411.33813 413.9479 414.8031 414.52214 418.2085 L 414.0117 418.32755 C 414.0117 418.38707 413.9479 418.38707 413.9479 418.38707 C 413.8841 418.56563 413.6927 418.68467 413.50127 418.8037 C 412.79487 418.9823 412.09303 419.1013 411.3228 419.16084 C 411.1952 419.16084 411.0676 419.16084 410.94 419.22036 C 410.6848 419.22036 410.42956 419.2799 410.1698 419.2799 C 410.106 419.2799 410.0422 419.3394 409.91457 419.3394 C 409.85077 419.3394 409.85077 419.3394 409.78697 419.3989 C 409.08056 419.51796 408.63394 420.1174 408.76154 420.77215 C 408.88915 421.30783 409.46795 421.6692 410.0422 421.6097 C 410.1698 421.6097 410.2336 421.6097 410.3612 421.55017 C 410.425 421.55017 410.425 421.55017 410.425 421.49065 C 410.425 421.4311 410.6164 421.49065 410.6802 421.49065 C 410.93544 421.4311 411.19065 421.3121 411.3866 421.25256 C 411.51423 421.19304 411.64184 421.1335 411.76945 421.1335 L 411.83325 421.1335 C 412.53965 420.89544 413.1777 420.7169 413.9479 420.59784 L 414.0117 420.59784 C 414.2031 420.59784 414.39453 420.65736 414.52214 420.7764 C 414.58594 420.7764 414.58594 420.8359 414.58594 420.8359 L 415.1602 420.7764 C 416.1218 423.52285 417.91286 425.97595 420.41034 427.7658 C 420.98457 428.18246 421.49956 428.54384 422.1376 428.84144 L 421.8186 429.2581 C 421.8186 429.3176 421.8824 429.3176 421.8824 429.3176 C 422.01 429.49616 422.01 429.73425 421.9462 429.91706 C 421.69097 430.5165 421.3036 431.1117 420.92077 431.65166 L 420.92077 431.7112 C 420.85696 431.8302 420.79316 431.88974 420.66555 432.0088 C 420.53794 432.1278 420.41034 432.3659 420.2189 432.60824 C 420.1551 432.66776 420.1551 432.7273 420.0913 432.7868 C 420.0913 432.7868 420.0913 432.8463 420.0275 432.8463 C 419.7085 433.4458 419.9637 434.16003 420.53794 434.45763 C 420.66555 434.51715 420.85696 434.57667 420.98457 434.57667 C 421.495 434.57667 421.9462 434.27907 422.2014 433.85817 C 422.2014 433.85817 422.2014 433.79865 422.2652 433.79865 C 422.2652 433.73913 422.329 433.6796 422.3928 433.6201 C 422.4566 433.382 422.58423 433.20345 422.64803 432.9611 L 422.77564 432.604 C 422.96705 431.945 423.28607 431.3498 423.60965 430.75035 C 423.73726 430.5718 423.92867 430.45275 424.1201 430.3932 C 424.1839 430.3932 424.1839 430.3932 424.1839 430.3337 L 424.4391 429.85754 C 426.23017 430.5165 428.0896 430.8141 430.0083 430.8141 C 431.1613 430.8141 432.31434 430.6951 433.46737 430.3975 C 434.1738 430.27844 434.8756 430.04035 435.5182 429.8618 L 435.77343 430.27844 C 435.83724 430.27844 435.83724 430.27844 435.83724 430.33796 C 436.02865 430.3975 436.22006 430.5165 436.34767 430.6951 C 436.6667 431.29454 436.99027 431.88974 437.1817 432.5487 L 437.1817 432.60824 L 437.3093 432.96537 C 437.3731 433.20345 437.4369 433.44153 437.5645 433.62434 C 437.6283 433.68386 437.6283 433.7434 437.6921 433.8029 C 437.6921 433.8029 437.6921 433.8624 437.7559 433.8624 C 438.01113 434.27907 438.4623 434.5809 438.97275 434.5809 C 439.16416 434.5809 439.29177 434.5214 439.4832 434.4619 C 439.7384 434.34284 439.9936 434.10476 440.0574 433.8029 C 440.1212 433.5053 440.1212 433.20345 439.9936 432.90584 C 439.9936 432.8463 439.9298 432.8463 439.9298 432.8463 C 439.9298 432.7868 439.866 432.7273 439.8022 432.66776 C 439.6746 432.4297 439.547 432.2511 439.35557 432.0683 C 439.29177 431.94926 439.22797 431.88974 439.10036 431.7707 L 439.10036 431.65166 C 438.65373 431.116 438.33015 430.5165 438.07494 429.91706 C 438.01113 429.7385 438.01113 429.5004 438.13874 429.3176 C 438.13874 429.2581 438.20254 429.2581 438.20254 429.2581 L 438.01113 428.7819 C 441.2788 426.9283 443.7763 424.0628 444.9293 420.65736 L 445.43974 420.7169 C 445.50355 420.7169 445.50355 420.65736 445.50355 420.65736 C 445.63116 420.5383 445.82257 420.4788 446.014 420.4788 L 446.0778 420.4788 C 446.7842 420.59784 447.48603 420.7764 448.12863 421.0145 L 448.19243 421.0145 C 448.32004 421.074 448.44765 421.1335 448.57526 421.1335 C 448.83047 421.25256 449.0219 421.3716 449.28166 421.4311 C 449.34546 421.4311 449.40926 421.49065 449.53687 421.49065 C 449.6007 421.49065 449.6007 421.49065 449.6645 421.55017 C 449.7921 421.6097 449.8559 421.6097 449.9835 421.6097 C 450.55774 421.6097 451.07273 421.25256 451.26414 420.77215 C 451.20945 420.1259 450.69446 419.6455 450.1202 419.52647 Z M 431.6125 417.6728 L 429.88523 418.45084 L 428.15797 417.6728 L 427.71134 415.9382 L 428.92817 414.5055 L 430.8514 414.5055 L 432.06824 415.9382 Z M 442.049 413.79123 C 442.36804 415.0454 442.43184 416.2996 442.30423 417.5538 L 436.22006 415.9425 C 435.6458 415.82343 435.32225 415.2835 435.44986 414.7478 C 435.51366 414.56925 435.57746 414.4502 435.70507 414.33117 L 440.5086 410.26676 C 441.215 411.3424 441.73 412.53705 442.049 413.79123 Z M 438.5899 408.056 L 433.33977 411.52095 C 432.89314 411.75903 432.25054 411.6995 431.9315 411.28286 C 431.8039 411.1638 431.7401 411.0448 431.7401 410.8662 L 431.3573 404.8334 C 434.1738 405.131 436.67125 406.26613 438.5899 408.056 Z M 427.0004 405.0077 L 428.281 404.7696 L 427.962 410.74293 C 427.962 411.2786 427.45157 411.6995 426.87277 411.6995 C 426.68136 411.6995 426.55375 411.64 426.36234 411.58047 L 421.0484 408.056 C 422.7073 406.56373 424.7581 405.4881 427.0004 405.0077 Z M 419.18894 410.26676 L 423.92867 414.2079 C 424.3753 414.565 424.4391 415.16446 424.0563 415.5811 C 423.92867 415.75966 423.80106 415.8192 423.54585 415.8787 L 417.33407 417.54953 C 417.1381 415.0454 417.77614 412.47753 419.18894 410.26676 Z M 418.0997 420.364 L 424.4391 419.3479 C 424.94954 419.3479 425.46453 419.6455 425.52833 420.1259 C 425.59213 420.3045 425.59213 420.54257 425.46453 420.7254 L 423.03086 426.22253 C 420.7886 424.84506 418.99297 422.75333 418.0997 420.364 Z M 432.6379 427.77007 C 431.7401 427.94863 430.84685 428.06767 429.88523 428.06767 C 428.5408 428.06767 427.13255 427.8296 425.8519 427.4682 L 428.992 422.1496 C 429.311 421.7925 429.826 421.67346 430.2726 421.91154 C 430.46403 422.0306 430.59164 422.1496 430.78305 422.3282 L 433.8593 427.52773 C 433.46737 427.5915 433.08455 427.65103 432.6379 427.77007 Z M 440.44936 422.57477 C 439.48774 424.0075 438.1433 425.2617 436.60744 426.15876 L 434.10997 420.54257 C 433.98236 420.0664 434.2376 419.586 434.6842 419.4074 C 434.8756 419.3479 435.06703 419.2884 435.25844 419.2884 L 441.66163 420.3045 C 441.34717 421.13777 440.9598 421.9158 440.44936 422.57477 Z" fill="white"/>
          </g>
        </g>
      </g>
    </g>
  </g>
</svg>
